<svg width="23" height="23" viewBox="0 0 23 23" fill="none" xmlns="http://www.w3.org/2000/svg">
<rect width="22.6389" height="22" transform="translate(0 0.75)" fill="#222222" fill-opacity="0.04"/>
<path d="M11.5063 8.94805C11.3119 8.75748 11.0007 8.75748 10.8063 8.94805L6.80632 12.9481C6.71166 13.0419 6.65842 13.1697 6.65842 13.3031C6.65842 13.4364 6.71166 13.5642 6.80632 13.6581C6.89705 13.7547 7.02373 13.8096 7.15632 13.8096C7.2889 13.8096 7.41559 13.7547 7.50632 13.6581L11.1563 10.0081L14.8063 13.6581C14.898 13.7532 15.0242 13.8073 15.1563 13.8081C15.2915 13.8077 15.4209 13.7538 15.5163 13.6581C15.7081 13.4602 15.7081 13.1459 15.5163 12.9481L11.5063 8.94805Z" fill="#222222"/>
</svg>
