<svg width="23" height="23" viewBox="0 0 23 23" fill="none" xmlns="http://www.w3.org/2000/svg">
<rect width="22.6389" height="22" transform="matrix(-1 0 0 -1 22.6387 22.75)" fill="#222222" fill-opacity="0.04"/>
<path d="M11.1324 14.5519C11.3268 14.7425 11.6379 14.7425 11.8324 14.5519L15.8324 10.5519C15.927 10.4581 15.9803 10.3303 15.9803 10.1969C15.9803 10.0636 15.927 9.93583 15.8324 9.84195C15.7416 9.74527 15.6149 9.69043 15.4824 9.69043C15.3498 9.69043 15.2231 9.74527 15.1324 9.84195L11.4824 13.4919L7.83235 9.84195C7.74068 9.74681 7.61447 9.69272 7.48235 9.69195C7.34722 9.69228 7.21774 9.74623 7.12235 9.84195C6.93057 10.0398 6.93057 10.3541 7.12235 10.5519L11.1324 14.5519Z" fill="#222222"/>
</svg>
