<svg width="23" height="24" viewBox="0 0 23 24" fill="none" xmlns="http://www.w3.org/2000/svg">
<rect width="22.6389" height="22" transform="matrix(0 1 -1 0 22.3203 0.430664)" fill="#222222" fill-opacity="0.04"/>
<path d="M14.1232 11.937C14.3138 11.7426 14.3138 11.4314 14.1232 11.237L10.1232 7.23698C10.0294 7.14233 9.90156 7.08908 9.76824 7.08908C9.63492 7.08908 9.50712 7.14233 9.41324 7.23698C9.31656 7.32772 9.26172 7.4544 9.26172 7.58698C9.26172 7.71957 9.31656 7.84625 9.41324 7.93698L13.0632 11.587L9.41324 15.237C9.3181 15.3287 9.26401 15.4549 9.26324 15.587C9.26357 15.7221 9.31752 15.8516 9.41324 15.947C9.61105 16.1388 9.92542 16.1388 10.1232 15.947L14.1232 11.937Z" fill="#222222"/>
</svg>
