<svg width="23" height="24" viewBox="0 0 23 24" fill="none" xmlns="http://www.w3.org/2000/svg">
<rect width="22.6389" height="22" transform="matrix(0 -1 1 0 0.320312 23.0693)" fill="#222222" fill-opacity="0.04"/>
<path d="M8.51739 11.563C8.32682 11.7574 8.32682 12.0686 8.51739 12.263L12.5174 16.263C12.6113 16.3577 12.7391 16.4109 12.8724 16.4109C13.0057 16.4109 13.1335 16.3577 13.2274 16.263C13.3241 16.1723 13.3789 16.0456 13.3789 15.913C13.3789 15.7804 13.3241 15.6538 13.2274 15.563L9.57739 11.913L13.2274 8.26302C13.3225 8.17134 13.3766 8.04514 13.3774 7.91302C13.3771 7.77788 13.3231 7.64841 13.2274 7.55302C13.0296 7.36123 12.7152 7.36123 12.5174 7.55302L8.51739 11.563Z" fill="#222222"/>
</svg>
