<?xml version="1.0" encoding="UTF-8"?>
<svg width="286px" height="273px" viewBox="0 0 286 273" version="1.1" xmlns="http://www.w3.org/2000/svg" xmlns:xlink="http://www.w3.org/1999/xlink">
    <title>6FC7309F-2033-490F-93AD-015441504E1C</title>
    <g id="V2_Communication-Framework_desktop" stroke="none" stroke-width="1" fill="none" fill-rule="evenodd">
        <g id="V2_CF_Client_EmptyState" transform="translate(-708.000000, -165.000000)">
            <g id="Group-9" transform="translate(606.000000, 165.000000)">
                <g id="Group-12" transform="translate(33.500000, 0.000000)">
                    <g id="banco" transform="translate(68.500000, 0.000000)">
                        <ellipse id="Oval" fill="#DEEDF2" cx="143" cy="265.5" rx="143" ry="7.5"></ellipse>
                        <g id="Group" transform="translate(14.000000, 120.000000)" fill-rule="nonzero">
                            <polygon id="Fill-35" fill="#9BC3D3" points="36.288 145.27512 51.4284093 145.27512 51.4284093 0 36.288 0"></polygon>
                            <polygon id="Fill-36" fill="#9BC3D3" points="207.684 145.273523 222.824409 145.273523 222.824409 0 207.684 0"></polygon>
                            <polygon id="Fill-37" fill="#C3DEE7" points="0 85.4350328 258.909852 85.4350328 258.909852 59.94 0 59.94"></polygon>
                            <polygon id="Fill-38" fill="#C3DEE7" points="14.904 51.4919375 244.159053 51.4919375 244.159053 39.528 14.904 39.528"></polygon>
                            <polygon id="Fill-39" fill="#C3DEE7" points="14.904 32.0519375 244.159053 32.0519375 244.159053 20.088 14.904 20.088"></polygon>
                        </g>
                        <path d="M122.347068,54.2038062 C127.635775,53.2017491 132.84126,58.8383199 136.962789,63.9488107 C139.736135,57.4103886 146.252354,54.1203014 150.785828,55.0659927 C151.651328,55.2455279 151.69502,57.1285601 150.785828,57.2371163 C148.035368,57.56696 145.330679,58.8821599 143.216861,61.7755996 C141.438008,64.2118507 140.582911,66.30782 139.120298,69.111492 C138.700031,69.9173129 137.853256,70.1678271 137.245741,69.8922615 C137.08554,69.8191948 136.923259,69.7273396 136.783864,69.5853815 C136.625743,69.4267225 136.486348,69.2242234 136.361516,69.0071111 C136.278295,68.9110806 136.190913,68.8672406 136.111853,68.7398959 C132.412671,62.7045899 127.766848,56.2434097 122.347068,56.143204 C121.533581,56.1285907 121.579353,54.3499395 122.347068,54.2038062 Z M154.272796,35.3901855 C156.709096,31.7243269 162.432633,29.8809595 166.414767,30.4112146 C167.176241,30.5114203 167.21369,31.5677555 166.414767,31.6282964 C163.997191,31.8120069 161.623307,32.5531115 159.767475,34.1731037 C158.202916,35.540494 157.451845,37.419351 156.166078,38.9913279 C155.797824,39.440166 155.052994,39.582124 154.520379,39.4276403 C154.380983,39.3879755 154.237427,39.335785 154.116756,39.2564555 C153.97528,39.1666879 153.854609,39.0518689 153.744341,38.930787 C153.671523,38.8785965 153.592463,38.8535451 153.525886,38.7804784 C150.276098,35.3964483 146.194099,33.1835724 141.433847,33.1272067 C140.720226,33.1188562 140.761836,32.1230621 141.433847,32.0395573 C146.07967,31.4759002 150.652674,32.5259725 154.272796,35.3901855 Z M88.8255747,0.126128638 C94.4471658,-0.621238894 102.527943,1.98202176 105.967058,7.15722877 C111.07892,3.11351115 117.534803,1.6313018 124.092633,2.42459694 C125.045515,2.53941598 125.10169,3.94647105 124.092633,3.95899676 C117.372522,4.03832628 111.609455,7.16557925 107.021887,11.9441387 C106.926183,12.0443444 106.815915,12.0798339 106.711888,12.1549882 C106.557929,12.3282606 106.387325,12.4869196 106.189675,12.6142643 C106.016991,12.7249081 105.81518,12.7979748 105.617529,12.8564281 C104.864378,13.0756281 103.81163,12.8752167 103.291497,12.2384929 C101.479356,10.0172665 100.418286,7.36599065 98.210844,5.43703088 C95.5893766,3.14900067 92.2376433,2.10519127 88.8255747,1.84423891 C87.6979277,1.75864654 87.7520214,0.268086717 88.8255747,0.126128638 Z" id="Primary-color" fill="#9BC3D3"></path>
                    </g>
                </g>
            </g>
        </g>
    </g>
</svg>