<svg width="283" height="233" viewBox="0 0 283 233" fill="none" xmlns="http://www.w3.org/2000/svg">
<path fill-rule="evenodd" clip-rule="evenodd" d="M118.603 129.099L120.966 142.958L118.309 228.456L16.4355 169.554L16.7292 70.3379L118.603 129.099Z" fill="#CEDEE7"/>
<path fill-rule="evenodd" clip-rule="evenodd" d="M118.603 129.098L215.009 73.1348L214.715 172.352L118.309 228.456L118.603 129.098Z" fill="#9BC3D3"/>
<path fill-rule="evenodd" clip-rule="evenodd" d="M16.7344 70.3364L113.141 14.2324L215.014 73.1336L118.608 129.097L16.7344 70.3364Z" fill="#257FA4"/>
<path fill-rule="evenodd" clip-rule="evenodd" d="M183.404 119.2L180.9 138.399L74.0059 76.6743V59.1104L183.404 119.2Z" fill="#9BC3D3"/>
<path fill-rule="evenodd" clip-rule="evenodd" d="M74.0166 116.541L73.8633 134.553L108.558 154.633L108.711 136.482L74.0166 116.541Z" fill="white"/>
<path fill-rule="evenodd" clip-rule="evenodd" d="M181.039 120.827L282.325 61.9121V79.4895L180.898 138.391L181.039 120.827Z" fill="#CEDEE7"/>
<path fill-rule="evenodd" clip-rule="evenodd" d="M74 59.1142L175.426 0.200195L282.32 61.9115L181.034 120.826L74 59.1142Z" fill="#DEEDF2"/>
</svg>
