<?xml version="1.0" encoding="UTF-8"?>
<svg width="277px" height="197px" viewBox="0 0 277 197" version="1.1" xmlns="http://www.w3.org/2000/svg" xmlns:xlink="http://www.w3.org/1999/xlink">
    <title>DDAF4F38-503A-41DC-B614-426008A22CE5</title>
    <g id="MVP-1" stroke="none" stroke-width="1" fill="none" fill-rule="evenodd">
        <g id="Employee_SSI_01" transform="translate(-265.000000, -327.000000)">
            <g id="ilustracion" transform="translate(265.000000, 326.999993)">
                <path d="M107.438701,170.045565 C106.710389,169.37109 105.996004,168.688873 105.295547,167.998991 C91.1897259,154.111266 72.5016022,145.047249 52.2487958,141.640493 C39.9560537,139.572744 28.1936931,134.138008 18.6891815,125.335904 C-6.20526584,102.282008 -6.23352991,65.1042785 18.6273282,42.0186587 C29.5943623,31.8351211 43.5785249,26.1445439 57.9179955,24.9454092 C70.1941068,23.9185553 81.7280609,18.9573252 90.2451323,10.7030284 C90.3549116,10.5967759 90.4655102,10.4912824 90.5761087,10.3865479 C105.105481,-3.3435444 128.608902,-3.47939574 143.314413,10.0875232 C143.398795,10.1649356 143.482359,10.2431071 143.565103,10.3212785 C147.493399,14.0143098 153.163418,15.6270701 158.657299,14.6389224 C189.980447,9.0045072 223.666307,17.4234953 247.926713,39.8974046 C286.691096,75.807694 286.691096,134.135427 247.926713,170.046096 C209.1312,205.984846 146.233395,205.984618 107.438701,170.045565" id="Primary-color" fill="#DEEDF2"></path>
                <path d="M75.6528685,125.327744 C75.6528685,127.609954 66.9927505,129.459972 56.3099689,129.459972 C45.6271873,129.459972 36.9670309,127.609954 36.9670309,125.327744 C36.9670309,123.045535 45.6271873,121.195517 56.3099689,121.195517 C66.9927505,121.195517 75.6528685,123.045535 75.6528685,125.327744" id="Fill-1" fill="#9BC3D3" transform="translate(56.309950, 125.327744) scale(-1, 1) translate(-56.309950, -125.327744) "></path>
                <path d="M57.8959658,107.940475 C56.1184928,111.35046 53.037779,113.449257 50.2239168,113.461243 C49.3751696,113.465279 48.5541073,113.27738 47.7967459,112.881589 C47.4620919,112.705738 47.1512776,112.493872 46.8682765,112.249963 C44.4012445,110.151166 43.9907134,105.733758 46.0592622,101.748158 C47.5378408,98.9058422 49.9250224,96.9789221 52.3083588,96.4112535 C53.6474876,96.087494 54.982643,96.1914405 56.158354,96.8071732 C59.1752388,98.390211 60.07205,102.771602 58.3622512,106.933053 C58.2267747,107.26886 58.0713035,107.608641 57.8959658,107.940475 M58.0155492,93.2372313 C56.4134139,92.3977124 54.6000531,92.2137873 52.7746443,92.5895841 C49.227645,93.3091351 45.6327097,96.1433765 43.4327858,100.373014 C40.097012,106.785143 41.2208137,113.985011 45.9396789,116.451402 C46.2425465,116.61136 46.5533608,116.743247 46.8682765,116.855269 C47.7889275,117.183001 48.7613595,117.318991 49.7537862,117.279001 C53.7351564,117.119044 58.0274691,114.120872 60.5224423,109.315748 C60.9329734,108.528138 61.2716007,107.732582 61.5506286,106.933053 C63.5274072,101.208431 62.1563639,95.403959 58.0155492,93.2372313" id="Fill-2" fill="#C3DEE7" transform="translate(51.977525, 104.844812) scale(-1, 1) translate(-51.977525, -104.844812) "></path>
                <path d="M83.8211565,85.7456467 C83.8211565,85.7656414 83.8171832,85.7816627 83.8132099,85.8016574 L83.8132099,85.8097321 L82.984201,92.5897123 L82.5179156,96.4113817 L81.2305678,106.933181 L80.4334735,113.461305 L79.9632147,117.278937 L79.7281494,119.217905 C79.4570682,121.420521 78.5005293,123.383457 77.0778332,124.90241 C75.2284564,126.893287 72.5901882,128.120523 69.6967319,128.120523 L65.1015516,128.120523 C60.438569,128.120523 56.4372041,124.934452 55.3093008,120.49705 C55.2135572,120.141248 55.1419098,119.773526 55.0900006,119.401702 L51.539028,94.2167127 L50.3513971,85.8097321 C50.3474238,85.7896093 50.3434505,85.7656414 50.3434505,85.7456467 L83.8211565,85.7456467 Z" id="Fill-3" fill="#C3DEE7" transform="translate(67.082303, 106.933085) scale(-1, 1) translate(-67.082303, -106.933085) "></path>
                <path d="M66.9268323,85.7456467 C66.9268323,85.7656414 66.922859,85.7816627 66.9188857,85.8016574 L66.9188857,85.8097321 L66.0898768,92.5897123 L65.6235914,96.4113817 L64.3362436,106.933181 L63.5391493,113.461305 L63.0688906,117.278937 L62.8338253,119.217905 C62.562744,121.420521 61.6062051,123.383457 60.183509,124.90241 C58.3341322,126.893287 55.695864,128.120523 52.8024077,128.120523 L50.3434505,128.120523 C51.5151882,127.572977 52.5672143,126.801388 53.4400576,125.861896 C54.8628819,124.342816 55.8192925,122.380008 56.0903738,120.177264 L56.3255673,118.238424 L56.795826,114.420792 L57.5929204,107.892668 L58.8802681,97.3708684 L59.3465536,93.5490709 L60.1755624,86.7690908 L60.1755624,86.761016 C60.1795357,86.7411495 60.183509,86.7251282 60.183509,86.7051335" id="Fill-4" fill="#FFFFFF" transform="translate(58.635141, 106.933085) scale(-1, 1) translate(-58.635141, -106.933085) "></path>
                <path d="M83.8228227,85.7462876 C83.8228227,86.2391044 82.0966181,86.6877023 79.2812178,87.0214591 C76.229086,87.3812346 71.8929389,87.6080969 67.083457,87.6080969 C62.2741033,87.6080969 57.9378281,87.3812346 54.8858245,87.0214591 C52.070296,86.6877023 50.3442196,86.2391044 50.3442196,85.7462876 C50.3442196,84.7188703 57.8390084,83.8844782 67.083457,83.8844782 C76.3279057,83.8844782 83.8228227,84.7188703 83.8228227,85.7462876" id="Fill-5" fill="#990000" transform="translate(67.083521, 85.746288) scale(-1, 1) translate(-67.083521, -85.746288) "></path>
                <path d="M72.2523072,67.5409014 L65.6555445,76.2848967 C64.2847776,78.1005733 63.6151293,80.3478421 63.7688645,82.6148124 L63.9574555,85.3883476 L64.0736418,87.0924083 L64.1084977,87.5982067 C63.679378,87.6043394 63.2420253,87.6077124 62.7979014,87.6077124 C62.4015601,87.6077124 62.0107588,87.6050294 61.6267286,87.6001998 C61.387585,87.5968268 61.1511345,87.5927639 60.9181464,87.588011 L60.6905445,87.0924083 L59.9258851,85.4271373 L57.1161015,79.3096446 C55.3510709,75.4706977 56.3535812,70.9312377 59.5713247,68.1801637 C61.7326043,66.3325201 62.8860798,63.6842462 62.8860798,60.9890568 C62.8860798,59.5042419 62.5355205,58.0030985 61.8104722,56.615641 L55.460486,44.4718036 C54.7457482,43.1081871 55.3490703,41.4273542 56.7696973,40.8214387 C57.1065604,40.6770891 57.4612747,40.6077124 57.8137576,40.6077124 C58.5750469,40.6077124 59.319793,40.9371943 59.8357831,41.5424199 L61.4906907,43.4874209 L71.9031329,55.7265458 C74.7743951,59.1012437 74.9199742,64.0035324 72.2523072,67.5409014" id="Fill-6" fill="#F5F9FB" transform="translate(64.658961, 64.107712) scale(-1, 1) translate(-64.658961, -64.107712) "></path>
                <path d="M36.8615025,141.046114 L91.3273196,175.007836 C92.8167542,175.937062 94.584491,176.287606 96.3116764,175.993383 C112.269368,173.283805 199.369679,158.001968 227.994398,153.023769 C234.129661,151.953665 236.448595,150.836552 230.571659,148.718271 C212.574387,142.222552 172.756004,127.851318 166.378934,125.567077 C165.749638,125.341792 165.085798,125.266697 164.426464,125.338638 L37.1555746,139.760036 C36.4954894,139.831977 36.2982898,140.69557 36.8615025,141.046114" id="Shadow" fill="#C3DEE7" transform="translate(135.250951, 150.703582) scale(-1, 1) translate(-135.250951, -150.703582) "></path>
                <path d="M235.275053,145.786712 L229.157813,146.975766 C210.173792,140.070179 173.805274,126.847147 167.739098,124.656926 C167.112806,124.431641 166.449867,124.353392 165.789631,124.422179 L48.0311783,137.078844 L42.4867628,133.67764 L42.4867628,138.14279 C42.4209796,138.41178 42.5085404,138.718468 42.7901467,138.896744 L97.174711,172.996191 C98.6608414,173.925567 100.425574,174.279114 102.155914,173.9912 C118.119914,171.322173 200.651743,157.173069 229.288478,152.263657 C233.002678,151.62535 235.321612,150.965264 235.26454,150.070282 C235.267544,150.070282 235.275053,150.064124 235.275053,150.064124 L235.275053,145.786712 Z" id="Shadow" fill="#9BC3D3" transform="translate(138.870518, 149.243460) scale(-1, 1) translate(-138.870518, -149.243460) "></path>
                <path d="M42.8000028,134.540632 L97.1844169,168.636925 C98.6675436,169.569305 100.435431,169.926006 102.16577,169.635088 C118.126465,166.962907 200.658746,152.816957 229.298484,147.907545 C235.430744,146.856215 237.758689,145.74541 231.886259,143.608356 C213.907009,137.068931 174.121668,122.600524 167.749104,120.300814 C167.119808,120.075529 166.459573,119.99728 165.799337,120.069221 L43.0972289,133.254705 C42.4369935,133.326646 42.2367902,134.187085 42.8000028,134.540632" id="Base" fill="#C3DEE7" transform="translate(138.874770, 144.888632) scale(-1, 1) translate(-138.874770, -144.888632) "></path>
                <path d="M112.052109,47.0262476 L130.95728,127.894122 C131.633135,130.456815 133.72333,132.083823 137.124534,131.730276 L256.125058,119.812096 C260.155108,119.42085 261.581913,115.891385 260.790261,113.150416 L239.028475,45.1488721 C238.53405,43.612428 237.10409,42.5671053 235.489547,42.5671053 L115.675443,42.4679731 C113.281865,42.4634742 111.50767,44.691994 112.052109,47.0262476" id="Cover" fill="#C3DEE7" transform="translate(186.476642, 87.123177) scale(-1, 1) translate(-186.476642, -87.123177) "></path>
                <path d="M115.820416,50.1918031 L133.10804,124.73923 C133.508447,126.469569 135.141763,127.630388 136.906496,127.442651 L252.712479,116.150162 C255.162379,115.868556 255.794529,114.116439 255.115519,111.854126 L235.43747,48.9995945 C234.968126,47.5447036 233.613262,46.5558524 232.08628,46.5526984 L118.649095,47.1504548 C116.386782,47.1473008 115.307366,47.9826578 115.820416,50.1918031" id="Screen" fill="#F5F9FB" transform="translate(185.532867, 87.007611) scale(-1, 1) translate(-185.532867, -87.007611) "></path>
                <polygon id="Keyboard" fill="#9BC3D3" transform="translate(138.782904, 144.500007) scale(-1, 1) translate(-138.782904, -144.500007) " points="73.565808 139.61832 105.981925 162.000007 204 144.25027 166.480275 127.000007"></polygon>
            </g>
        </g>
    </g>
</svg>