<svg width="44" height="44" viewBox="0 0 44 44" fill="none" xmlns="http://www.w3.org/2000/svg">
<path fill-rule="evenodd" clip-rule="evenodd" d="M21.9703 3.28418C23.8481 3.28418 25.3703 4.80641 25.3703 6.68418C25.3703 8.26842 24.2868 9.59959 22.8204 9.97705L22.8203 11.3592H32.1703C35.4564 11.3592 38.1203 14.0902 38.1203 17.4592V27.7842C38.1203 31.1531 35.4564 33.8842 32.1703 33.8842H19.4203L14.8773 35.9033C13.4161 36.5527 11.7703 35.4831 11.7703 33.8842C8.48422 33.8842 5.82031 31.1531 5.82031 27.7842V17.4592C5.82031 14.0902 8.48422 11.3592 11.7703 11.3592H21.1203L21.1205 9.9771C19.6539 9.59972 18.5703 8.2685 18.5703 6.68418C18.5703 4.80641 20.0925 3.28418 21.9703 3.28418ZM16.0203 16.4592C17.8981 16.4592 19.4203 17.9814 19.4203 19.8592C19.4203 21.7369 17.8981 23.2592 16.0203 23.2592C14.1425 23.2592 12.6203 21.7369 12.6203 19.8592C12.6203 17.9814 14.1425 16.4592 16.0203 16.4592ZM31.3203 19.8592C31.3203 17.9814 29.7981 16.4592 27.9203 16.4592C26.0425 16.4592 24.5203 17.9814 24.5203 19.8592C24.5203 21.7369 26.0425 23.2592 27.9203 23.2592C29.7981 23.2592 31.3203 21.7369 31.3203 19.8592ZM16.0203 18.1592C15.0814 18.1592 14.3203 18.9203 14.3203 19.8592C14.3203 20.7981 15.0814 21.5592 16.0203 21.5592C16.9592 21.5592 17.7203 20.7981 17.7203 19.8592C17.7203 18.9203 16.9592 18.1592 16.0203 18.1592ZM26.2203 19.8592C26.2203 18.9203 26.9814 18.1592 27.9203 18.1592C28.8592 18.1592 29.6203 18.9203 29.6203 19.8592C29.6203 20.7981 28.8592 21.5592 27.9203 21.5592C26.9814 21.5592 26.2203 20.7981 26.2203 19.8592ZM21.9703 4.98418C21.0314 4.98418 20.2703 5.7453 20.2703 6.68418C20.2703 7.62306 21.0314 8.38418 21.9703 8.38418C22.9092 8.38418 23.6703 7.62306 23.6703 6.68418C23.6703 5.7453 22.9092 4.98418 21.9703 4.98418ZM18.4317 26.0338C18.1157 25.8784 17.7337 26.0085 17.5783 26.3245C17.4229 26.6404 17.5531 27.0225 17.869 27.1779C20.7222 28.5811 24.0649 28.5811 26.9181 27.1779C27.234 27.0225 27.3642 26.6404 27.2088 26.3245C27.0534 26.0085 26.6713 25.8784 26.3554 26.0338C23.8571 27.2625 20.93 27.2625 18.4317 26.0338Z" fill="#60001D"/>
</svg>
