<?xml version="1.0" encoding="UTF-8"?>
<svg width="71px" height="71px" viewBox="0 0 71 71" version="1.1" xmlns="http://www.w3.org/2000/svg" xmlns:xlink="http://www.w3.org/1999/xlink">
    <title>ilustracion@2x</title>
    <defs>
        <rect id="path-1" x="0" y="0" width="71" height="71" rx="8"></rect>
    </defs>
    <g id="Contact-list" stroke="none" stroke-width="1" fill="none" fill-rule="evenodd">
        <g id="ISM-Contact-list---Fav-vacío" transform="translate(-66.000000, -218.000000)">
            <g id="ilustracion" transform="translate(66.000000, 218.000000)">
                <mask id="mask-2" fill="white">
                    <use xlink:href="#path-1"></use>
                </mask>
                <use id="Mask" fill="#DEEDF2" xlink:href="#path-1"></use>
                <g id="Group-2" mask="url(#mask-2)">
                    <g transform="translate(82.500000, 132.000000) scale(-1, 1) translate(-82.500000, -132.000000) translate(-59.000000, 0.000000)">
                        <g id="Characters/Male/Adult-Sitting" transform="translate(32.000000, 9.000000)"></g>
                        <g id="Characters/Body-parts/Head/Female/Model-B-03" transform="translate(194.000000, 35.000000) scale(-1, 1) translate(-194.000000, -35.000000) translate(167.000000, 0.000000)">
                            <g id="Characters/Body-parts/Head/Female/Model-B-00" transform="translate(16.999613, 3.015578)">
                                <path d="M6.37909057,27.8252083 C2.57840073,25.0479581 0.109686968,20.5713178 0.109686968,15.5257627 C0.109686968,7.10734914 6.98233482,0.272381802 15.4475201,0.272381802 C23.2638127,0.272381802 29.7223835,6.09953648 30.6665303,13.619998 C30.8316408,14.4035497 30.9516962,15.1957267 31.0342742,15.9877676 L31.0345025,15.9890841 L31.0371044,16.0065166 L31.0376522,16.0126452 C31.0621654,16.2496173 31.0833463,16.4864533 31.1013775,16.7228807 L32.1577739,28.4931793 L29.7532875,29.2935278 L29.7282265,29.2992025 L29.7280895,29.2992479 C29.6683814,29.504306 29.6353319,29.6151653 29.6353319,29.6151653 L29.5699633,31.2073732 L29.4518708,34.1833713 C29.4110154,35.1681223 29.203954,36.1331257 28.8433769,37.0404294 C28.5914432,37.6808445 28.2584834,38.2941575 27.8516644,38.8634354 C27.3739534,39.5314518 26.8032565,40.1308734 26.1661411,40.6370495 C25.8341855,40.9027126 25.4814143,41.1396848 25.1128031,41.3507353 C24.9177473,41.4628204 24.7231936,41.5657807 24.5210623,41.66234 L24.5196928,41.663021 L25.5525803,60.2547132 C25.5525803,60.2547132 20.0951713,61.8900482 14.1190133,60.5924667 C10.5067603,59.8147258 6.70132297,57.9577629 3.79835552,54.0269303 C3.79835552,54.0269303 7.2344512,39.2163515 6.37909057,27.8252083 Z" id="Skin-tone" fill="#FFC4B8"></path>
                                <path d="M13.9718711,65.9844218 C10.481565,65.0914754 6.80509569,62.9594435 4.00038699,58.446343 C4.00038699,58.446343 7.59107393,40.2257967 6.37393452,26.9844218 C6.37393452,26.9844218 14.5420042,50.517978 13.9718711,65.9844218 Z M30.000387,29.924526 C28.9600339,30.2075797 27.9357054,29.4495776 28.0035839,28.4470892 L28.4410987,21.9844218 L30.000387,29.924526 Z" id="Shadows" fill="#F4A48D"></path>
                            </g>
                            <g id="Hair" transform="translate(0.255893, 0.219125)" fill="#34466B">
                                <path d="M46.4883392,5.13604361 C42.0195798,1.0621507 35.5597728,-0.621388035 29.3414539,1.26345318 C21.2213706,3.72466946 16.1769826,11.4615003 16.8510914,19.5435695 C16.6385145,19.5349938 16.4247994,19.5306608 16.2101281,19.5306608 C7.59331867,19.5306608 0.597402597,26.4854812 0.597402597,35.051895 C0.597402597,43.6182636 7.59331867,50.573084 16.2101281,50.573084 C17.6041938,50.573084 20.7488207,50.3644696 22.0352548,50.0229775 C22.7354975,48.2999456 23.7282212,41.1494195 23.3850659,31.6907302 C23.3850659,31.6484386 26.5818239,30.1214735 26.5818239,30.1214735 L26.6059545,30.051153 C26.4892626,30.1096481 26.3674258,30.1584391 26.2406264,30.1968491 C25.2034204,30.511215 24.0506151,30.0677176 23.0759666,29.1146451 C22.9534468,28.9948566 22.8337955,28.8670792 22.7175133,28.7316739 L22.6828654,28.6910072 L22.681454,28.6893823 C22.6471248,28.6487156 22.6131143,28.6073719 22.579377,28.5653511 L22.5462771,28.5237817 L22.5439551,28.5208479 L22.5122211,28.4802715 L22.5099902,28.477428 C22.4773,28.4352718 22.4449286,28.3924837 22.4128759,28.3490638 L22.4105084,28.3458592 L22.3801858,28.3044703 L22.3769532,28.300002 L22.3469037,28.258252 L22.3444452,28.2548217 L22.3136673,28.2113115 L22.2811137,28.1645064 L22.2516562,28.1215378 L22.2482415,28.1164376 L22.21974,28.074146 L22.2160977,28.0686846 L22.1875052,28.0254904 L22.1852287,28.022015 L22.1556801,27.9766091 L22.1267689,27.9313386 L22.1238551,27.9268251 L22.0964463,27.8831794 L22.0924397,27.8768154 L22.0655318,27.8333052 L22.0618895,27.8273473 L22.0345263,27.7823025 L22.0039305,27.7311193 L21.9771137,27.6853975 L21.9734713,27.6791237 L21.9477472,27.6345754 L21.943604,27.6273538 L21.918062,27.5823089 L21.9147839,27.5764414 L21.8879671,27.5282822 L21.8618332,27.4805745 L21.8591925,27.4756999 L21.8342879,27.4293913 L21.8302813,27.4218988 L21.8061051,27.3761319 L21.8021441,27.3685492 L21.7778314,27.3216538 L21.7751907,27.3165084 L21.7497397,27.2665439 L21.7252904,27.2176174 L21.7219667,27.2109375 L21.6988378,27.1637261 L21.6948312,27.1555116 L21.6720665,27.10821 L21.6684697,27.1007176 L21.6452952,27.0517009 L21.6436561,27.0480901 L21.6208003,26.9988025 L21.6188426,26.9945598 L21.5963966,26.9451821 L21.5927997,26.9372834 L21.5712643,26.8889437 L21.5674854,26.8803229 L21.546041,26.8313062 L21.5430816,26.8244457 L21.5205901,26.7719536 L21.4988725,26.7202288 L21.4962318,26.7139099 L21.4756525,26.6638099 L21.4721012,26.6550537 L21.4521138,26.6054051 L21.4486991,26.5967843 L21.4285751,26.5458268 L21.4263897,26.5402301 L21.405264,26.4854812 L21.3853677,26.4327634 L21.3824538,26.4249551 L21.3636501,26.3739524 L21.3602809,26.3647448 L21.341796,26.3135165 L21.3388821,26.3053922 L21.3200784,26.2520877 L21.3005463,26.195398 L21.2987251,26.1900721 L21.2808776,26.1369932 L21.2779182,26.1281467 L21.2607991,26.0760157 L21.2577487,26.0666727 L21.2408117,26.0137293 L21.2385352,26.0065528 L21.2210519,25.9505402 L21.2074386,25.9059467 L21.2039329,25.894347 L21.1905472,25.8494376 L21.1776168,25.80516 L21.1742932,25.793786 L21.1614084,25.7484704 L21.1490699,25.7044185 L21.146065,25.6934056 L21.1358664,25.6560337 L21.1335899,25.6476386 L21.1218888,25.6037222 L21.1191571,25.5933411 L21.1096414,25.556556 L21.1071373,25.5469422 L21.0960281,25.503116 L21.0936606,25.4936377 L21.0846002,25.4568977 L21.0820506,25.4464715 L21.0714877,25.4026905 L21.0695755,25.3944759 L21.0608339,25.3571492 L21.0582842,25.3461813 L21.0482677,25.3023552 L21.0382968,25.2574458 L21.0358382,25.2461169 L21.0263681,25.2022456 L21.0170801,25.1577875 L21.0147581,25.1463683 L21.0057888,25.1023165 L20.9971382,25.0583098 L20.9949528,25.0469357 L20.9865298,25.0026131 L20.9784711,24.9589674 L20.9764678,24.9478191 L20.9685457,24.9031805 L20.9611244,24.8598508 L20.9593487,24.8491086 L20.9532478,24.8124138 L20.9518819,24.804109 L20.9450525,24.7609598 L20.943459,24.7508947 L20.9379499,24.7147415 L20.9365385,24.7053083 L20.9302554,24.6623396 L20.9289351,24.6532224 L20.9238813,24.6171143 L20.9224699,24.6069138 L20.9166877,24.5640354 L20.915686,24.5562722 L20.9109965,24.5195322 L20.9096761,24.5088804 L20.9044403,24.466002 L20.8993865,24.4221759 L20.8981572,24.4112983 L20.8934677,24.3683748 L20.8890058,24.3250903 L20.8879131,24.3141225 L20.8837699,24.271199 L20.8798999,24.2283207 L20.8789438,24.2174431 L20.8753469,24.1743391 L20.8720233,24.131867 L20.8712493,24.1213054 L20.8681533,24.0779305 L20.8654215,24.0357744 L20.8647841,24.0257093 L20.8626898,23.989872 L20.8622345,23.9820185 L20.8600035,23.9401331 L20.8595482,23.9307902 L20.8579547,23.8954945 L20.8575449,23.8866029 L20.8558603,23.8449432 L20.8555872,23.8365932 L20.8544034,23.8012525 L20.8540847,23.791729 L20.8529465,23.7501595 L20.8528099,23.743299 L20.8520814,23.7073264 L20.8518993,23.6974418 L20.8512619,23.6559175 L20.8509432,23.6138065 L20.8508976,23.6036962 L20.8508521,23.5621719 L20.8510342,23.5206928 L20.8511253,23.5105825 L20.8515806,23.4693742 L20.8525367,23.4181007 L20.8535839,23.3768021 L20.8548587,23.3359097 L20.8551774,23.3263862 L20.8565433,23.2904136 L20.8567709,23.2848619 L20.8585466,23.2443306 L20.8607775,23.2005045 L20.8611418,23.1935988 L20.8634638,23.1533383 L20.8640101,23.145214 L20.8661955,23.110821 L20.8667419,23.1029675 L20.8701111,23.0559368 L20.8728428,23.0214536 L20.8735258,23.0131036 L20.8768949,22.9732493 L20.8806284,22.9326277 L20.8814479,22.9239167 L20.8854089,22.8841978 L20.8857277,22.8808126 L20.8895977,22.8442984 L20.8905538,22.835497 L20.8950612,22.7958233 L20.8951067,22.7955525 L20.8997507,22.7566009 L20.9008434,22.7478898 L20.9058061,22.7088028 L20.9110875,22.6695804 L20.9122713,22.661095 L20.9177804,22.6221435 L20.9236081,22.583237 L20.9248374,22.575203 L20.930301,22.5403136 L20.9309384,22.536116 L20.937267,22.4975706 L20.9384963,22.4902136 L20.9442785,22.4563623 L20.9452346,22.4509009 L20.952064,22.4127167 L20.9532933,22.4062172 L20.9606691,22.3665435 L20.9680449,22.32863 L20.969092,22.3233492 L20.9758759,22.289859 L20.9772418,22.2830436 L20.9859379,22.2416998 L20.9949528,22.2004463 L21.0037399,22.1614948 L21.0120718,22.1259283 L21.0137564,22.118797 L21.0227257,22.0816959 L21.0318771,22.0450914 L21.0336528,22.0380954 L21.0430774,22.0016714 L21.0528662,21.965112 L21.0546419,21.958432 L21.0645673,21.9224142 L21.074948,21.8859451 L21.0767236,21.8797616 L21.0865125,21.8462713 L21.0981225,21.807726 L21.099807,21.8022195 L21.1099146,21.7697674 L21.1110528,21.7660211 L21.1224352,21.7304096 L21.1344549,21.6938501 L21.1359574,21.6893366 L21.1490244,21.6507461 L21.1619092,21.6136902 L21.1743843,21.5787105 L21.1869959,21.5442725 L21.1889537,21.5391271 L21.2019751,21.5045084 L21.2169998,21.4656471 L21.230431,21.4317958 L21.2440443,21.3983507 L21.2461386,21.3932956 L21.2599796,21.3601213 L21.2742303,21.3268116 L21.2905754,21.2894849 L21.3054635,21.2563557 L21.3074213,21.2521582 L21.3219452,21.2206088 L21.3223094,21.2197512 L21.3377894,21.1869831 L21.3542255,21.1529964 L21.371208,21.1186937 L21.3877352,21.0861062 L21.4064022,21.0501335 L21.4223376,21.0201638 L21.4411412,20.9855904 L21.4580782,20.9552144 L21.4599904,20.9518293 L21.4774737,20.9212277 L21.4949115,20.8913483 L21.4969603,20.8879632 L21.5147623,20.8580837 L21.5348408,20.8253608 L21.5530981,20.7962035 L21.5737229,20.7640674 L21.592481,20.7354968 L21.6117855,20.7067007 L21.6328201,20.6760991 L21.6528531,20.6475737 L21.6742974,20.6177845 L21.6949223,20.5897556 L21.7158203,20.5620427 L21.7168219,20.5606887 L21.7380386,20.5332465 L21.7499218,20.518036 C22.0810119,20.0992275 22.4970143,19.7961003 22.9870931,19.6475607 C24.8596731,19.0800321 27.1088727,20.9827468 28.0066675,23.8938697 C28.1346508,24.3087514 28.2282593,24.7218728 28.2893598,25.1269602 L29.1351145,22.658748 L29.2924187,22.1896139 L29.2957879,22.1841977 L31.2362979,16.5169911 L31.3079157,16.3412802 L33.0299299,12.0673486 C35.0510725,12.8975634 37.8810454,13.4138636 41.0115126,13.4138636 C47.1471501,13.4138636 52.12807,11.4306279 52.12807,8.9877365 C52.12807,7.33759773 49.8547854,5.89733712 46.4883392,5.13604361 Z" id="Hair-color"></path>
                            </g>
                        </g>
                        <g id="Characters/Body-parts/Upper-body/Generic/Shirt" transform="translate(153.000000, 46.000000)">
                            <path d="M46.4509375,0.421335428 L64.1624576,5.6279874 C73.0626587,8.24303282 79.9011715,14.812149 82.3207395,23.0707983 L90.6693073,51.5670736 C93.5953622,61.5526721 93.9908639,72.2136969 84.5157509,80.4675294 C82.0515067,81.2742562 79.7899513,81.5055482 77.6367944,81.4296407 C77.6367944,81.4296407 84.5724191,70.8955299 75.6284824,70.1947296 C73.1433109,69.9990474 71.3289876,70.2564447 70.0025753,70.7280173 L69.9397935,70.750596 L62.8515643,84.4241806 C62.8515643,84.4241806 26.0586113,87.9045715 17.5585442,88.1434973 C15.4827006,88.2018364 12.6998211,87.9423962 11.8514439,85.8576495 C3.68997529,65.8022016 0.714941233,44.6637924 0.0709458101,23.5359199 C0.0709458101,15.9759206 5.42679718,9.28767476 13.31038,7.00937477 L26.464224,3.20862419 L38.9041896,20.340494 L46.4509375,0.421335428 Z" id="Body" fill="#EC0000"></path>
                        </g>
                    </g>
                </g>
            </g>
        </g>
    </g>
</svg>