<?xml version="1.0" encoding="UTF-8"?>
<svg width="24px" height="24px" viewBox="0 0 24 24" version="1.1" xmlns="http://www.w3.org/2000/svg" xmlns:xlink="http://www.w3.org/1999/xlink">
    <title>3C85B8B4-F110-4FAB-BF65-AFCC76455122</title>
    <g id="Styles" stroke="none" stroke-width="1" fill="none" fill-rule="evenodd">
        <g id="Icons" transform="translate(-269.000000, -538.000000)" fill="#444444">
            <g id="atoms/ico/24/add-24-copy" transform="translate(269.000000, 538.000000)">
                <path d="M15.8701147,20 C15.5715192,20.0017367 15.2845223,19.8825142 15.0725209,19.6686495 L8.33229143,12.8135184 C8.11962298,12.5989909 8,12.306967 8,12.0023278 C8,11.6976886 8.11962298,11.4056647 8.33229143,11.1911373 L15.0725209,4.33600612 C15.5130198,3.88799796 16.2272097,3.88799796 16.6677086,4.33600612 C17.1082075,4.78401427 17.1082075,5.51037901 16.6677086,5.95838716 L10.7138392,12.0023278 L16.6677086,18.0462685 C16.880377,18.2607959 17,18.5528198 17,18.857459 C17,19.1620982 16.880377,19.4541221 16.6677086,19.6686495 C16.4557072,19.8825142 16.1687103,20.0017367 15.8701147,20 Z" id="🌈-Color" transform="translate(12.500000, 12.000000) rotate(-180.000000) translate(-12.500000, -12.000000) "></path>
            </g>
        </g>
    </g>
</svg>