<?xml version="1.0" encoding="UTF-8"?>
<svg width="134px" height="134px" viewBox="0 0 134 134" version="1.1" xmlns="http://www.w3.org/2000/svg" xmlns:xlink="http://www.w3.org/1999/xlink">
    <title>F07B8109-58DA-44E3-9352-F206C0EB1CBF</title>
    <g id="Styles" stroke="none" stroke-width="1" fill="none" fill-rule="evenodd">
        <g id="Modal" transform="translate(-762.000000, -2467.000000)">
            <g id="Group-8" transform="translate(579.000000, 2468.000000)">
                <g id="attention" transform="translate(184.000000, 0.000000)">
                    <circle id="Oval" stroke="#FFE699" fill="#FFCC33" cx="66" cy="66" r="66"></circle>
                    <path d="M72.1597663,75.2907567 L75.1551249,39.9642454 C75.5838466,34.9080095 71.8325051,30.4615729 66.7762692,30.0328513 C66.5180918,30.0109602 66.2591039,30 66,30 C60.9148906,30 56.7925949,34.1222957 56.7925949,39.2074051 C56.7925949,39.4605935 56.8030382,39.7136742 56.8238984,39.9660018 L59.7441447,75.2897503 C60.0109281,78.5168038 62.7078837,81 65.9459459,81 C69.1858144,81 71.8860379,78.5190411 72.1597663,75.2907567 Z M66.0544218,106 C67.5782313,106 68.9387755,105.637188 70.1360544,104.911565 C71.3333333,104.185941 72.276644,103.22449 72.9659864,102.027211 C73.6553288,100.829932 74,99.5056689 74,98.0544218 C74,96.6031746 73.6553288,95.260771 72.9659864,94.0272109 C72.276644,92.7936508 71.3333333,91.814059 70.1360544,91.0884354 C68.9387755,90.3628118 67.5782313,90 66.0544218,90 C64.5306122,90 63.1519274,90.3628118 61.9183673,91.0884354 C60.6848073,91.814059 59.723356,92.7936508 59.0340136,94.0272109 C58.3446712,95.260771 58,96.6031746 58,98.0544218 C58,99.5056689 58.3446712,100.829932 59.0340136,102.027211 C59.723356,103.22449 60.6848073,104.185941 61.9183673,104.911565 C63.1519274,105.637188 64.5306122,106 66.0544218,106 Z" id="!" fill="#FFFFFF" fill-rule="nonzero"></path>
                </g>
            </g>
        </g>
    </g>
</svg>