<?xml version="1.0" encoding="UTF-8"?>
<svg width="65px" height="65px" viewBox="0 0 65 65" version="1.1" xmlns="http://www.w3.org/2000/svg" xmlns:xlink="http://www.w3.org/1999/xlink">
    <title>Group 25</title>
    <g id="Costs-&amp;-Charges-Reporting" stroke="none" stroke-width="1" fill="none" fill-rule="evenodd">
        <g id="Special_CCR_feed_-04-E" transform="translate(-968.000000, -448.000000)">
            <g id="Group-21" transform="translate(956.000000, 427.000000)">
                <g id="Group-25" transform="translate(12.000000, 21.000000)">
                    <circle id="Oval" fill="#DEEDF2" cx="32.5" cy="32.5" r="32.5"></circle>
                    <g id="Group" transform="translate(8.000000, 8.000000)">
                        <g id="CHAN010---|-chat" transform="translate(4.000000, 8.000000)">
                            <path d="M22,10.000058 C25.3137085,10.000058 28,12.6863495 28,16.000058 L28,20.000058 C28,23.3137665 25.3137085,26.000058 22,26.000058 L13.415,26.000058 L7.7074875,31.7154266 C7.55118146,31.8719011 7.34838244,31.9712474 7.13153484,32.0000163 L7,32.0087007 C6.48716416,32.0087007 6.06449284,31.6226606 6.00672773,31.1253219 L6,31.0087007 L5.999,26.000058 L5.77506174,25.9959195 C2.56557489,25.8776298 2.27770265e-13,23.238455 2.27373675e-13,20.000058 L2.27373675e-13,16.000058 C2.26967863e-13,12.6863495 2.6862915,10.000058 6,10.000058 L22,10.000058 Z M9,18.000058 L7,18.000058 C6.44771525,18.000058 6,18.4477733 6,19.000058 C6,19.5523428 6.44771525,20.000058 7,20.000058 L7,20.000058 L9,20.000058 C9.55228475,20.000058 10,19.5523428 10,19.000058 C10,18.4477733 9.55228475,18.000058 9,18.000058 L9,18.000058 Z M15,18.000058 L13,18.000058 C12.4477153,18.000058 12,18.4477733 12,19.000058 C12,19.5523428 12.4477153,20.000058 13,20.000058 L13,20.000058 L15,20.000058 C15.5522847,20.000058 16,19.5523428 16,19.000058 C16,18.4477733 15.5522847,18.000058 15,18.000058 L15,18.000058 Z M21,18.000058 L19,18.000058 C18.4477153,18.000058 18,18.4477733 18,19.000058 C18,19.5523428 18.4477153,20.000058 19,20.000058 L19,20.000058 L21,20.000058 C21.5522847,20.000058 22,19.5523428 22,19.000058 C22,18.4477733 21.5522847,18.000058 21,18.000058 L21,18.000058 Z" id="Combined-Shape" fill="#34466B"></path>
                            <path d="M20,26.000058 C23.2805714,26.000058 25.9462114,23.3672237 25.9991962,20.099279 L26,20.000058 L26,16.000058 C26,12.7194866 23.3671657,10.0538466 20.099221,10.0008618 L20,10.000058 L22,10.000058 C25.3137085,10.000058 28,12.6863495 28,16.000058 L28,20.000058 C28,23.3137665 25.3137085,26.000058 22,26.000058 L20,26.000058 Z M13.41625,26.000058 L7.7074875,31.7154266 C7.53331791,31.8897839 7.30142113,31.9932089 7.05668504,32.0070943 L7,32.0087007 C6.57104834,32.0087007 6.20517726,31.7386207 6.06316027,31.3592342 L11.41625,26.000058 L13.41625,26.000058 Z" id="Shape" fill-opacity="0.15" fill="#000000"></path>
                            <path d="M11.888,10.0000064 L7.269,18.0000064 L7,18.000058 C6.44771525,18.000058 6,18.4477733 6,19.000058 C6,19.2733139 6.10960107,19.5209711 6.28724106,19.7014674 L3.08670161,25.2465611 C1.24559256,24.2220345 2.7633544e-16,22.2565081 0,20.000058 L0,16.000058 C-4.05812251e-16,12.6863495 2.6862915,10.000058 6,10.000058 L11.888,10.0000064 Z" id="Combined-Shape" fill-opacity="0.2" fill="#FFFFFF"></path>
                            <path d="M34,5.80208864e-05 C37.3137085,5.80208864e-05 40,2.68634952 40,6.00005802 L40,9.99377487 C40,13.3074834 37.3137085,15.9937749 34,15.9937749 L25.416,15.993058 L19.7073487,21.7070379 C19.551052,21.8634416 19.3482959,21.9627386 19.1315017,21.9914931 L19,22.0001732 C18.4871642,22.0001732 18.0644928,21.614133 18.0067277,21.1167943 L18,21.0001732 L17.999,15.993058 L17.7750617,15.9896364 C14.5655749,15.8713466 12,13.2321718 12,9.99377487 L12,6.00005802 C12,2.68634952 14.6862915,5.80208864e-05 18,5.80208864e-05 L34,5.80208864e-05 Z M21,8.00005802 L19,8.00005802 C18.4477153,8.00005802 18,8.44777327 18,9.00005802 C18,9.55234277 18.4477153,10.000058 19,10.000058 L19,10.000058 L21,10.000058 C21.5522847,10.000058 22,9.55234277 22,9.00005802 C22,8.44777327 21.5522847,8.00005802 21,8.00005802 L21,8.00005802 Z M27,8.00005802 L25,8.00005802 C24.4477153,8.00005802 24,8.44777327 24,9.00005802 C24,9.55234277 24.4477153,10.000058 25,10.000058 L25,10.000058 L27,10.000058 C27.5522847,10.000058 28,9.55234277 28,9.00005802 C28,8.44777327 27.5522847,8.00005802 27,8.00005802 L27,8.00005802 Z M33,8.00005802 L31,8.00005802 C30.4477153,8.00005802 30,8.44777327 30,9.00005802 C30,9.55234277 30.4477153,10.000058 31,10.000058 L31,10.000058 L33,10.000058 C33.5522847,10.000058 34,9.55234277 34,9.00005802 C34,8.44777327 33.5522847,8.00005802 33,8.00005802 L33,8.00005802 Z" id="Combined-Shape" fill="#1BB3BC" transform="translate(26.000000, 11.000116) scale(-1, 1) translate(-26.000000, -11.000116) "></path>
                            <path d="M34,5.80208864e-05 C37.2805714,5.80208864e-05 39.9462114,2.63289232 39.9991962,5.90083705 L40,6.00005802 L40,9.99377487 C40,13.2415406 37.4195591,15.886612 34.1970668,15.9905997 L34.099221,15.992971 L34.00025,15.993558 L34,21.0001732 L33.9987762,21.0500832 C33.9736086,21.5621134 33.5633287,21.9728999 33.0515099,21.9988694 L33,22.0001732 L32.9433294,21.9985676 C32.7174763,21.9857568 32.5025548,21.8966903 32.3338455,21.7459889 L32.2926513,21.7070379 L31.9368397,21.3507066 C31.9721319,21.2564266 31.9935998,21.1553964 31.9987762,21.0500832 L32,21.0001732 L32.00025,15.993558 L32.099221,15.992971 C35.3671657,15.9399863 38,13.2743463 38,9.99377487 L38,6.00005802 C38,2.68634952 35.3137085,5.80208864e-05 32,5.80208864e-05 L34,5.80208864e-05 Z" id="Shape" fill-opacity="0.15" fill="#000000"></path>
                            <path d="M25.697,8 L25,8.00005802 C24.4477153,8.00005802 24,8.44777327 24,9.00005802 C24,9.40731001 24.2434458,9.7577022 24.5927497,9.91364704 L21.082,15.993 L18,15.9937749 C14.7616031,15.9937749 12.1224282,13.4282 12.0041385,10.2187131 L12,9.99377487 L12,6.00005802 C12,2.68634952 14.6862915,5.80208863e-05 18,5.80208863e-05 L18,5.80208863e-05 L30.316,5.32907052e-15 L25.697,8 Z M21,8.00005802 L19,8.00005802 C18.4477153,8.00005802 18,8.44777327 18,9.00005802 C18,9.55234277 18.4477153,10.000058 19,10.000058 L19,10.000058 L21,10.000058 L21.1166211,9.99333029 C21.6139598,9.93556518 22,9.51289386 22,9.00005802 C22,8.44777327 21.5522847,8.00005802 21,8.00005802 L21,8.00005802 Z" id="Combined-Shape" fill-opacity="0.2" fill="#FFFFFF"></path>
                        </g>
                    </g>
                </g>
            </g>
        </g>
    </g>
</svg>