<?xml version="1.0" encoding="UTF-8"?>
<svg width="322px" height="302px" viewBox="0 0 322 302" version="1.1" xmlns="http://www.w3.org/2000/svg" xmlns:xlink="http://www.w3.org/1999/xlink">
    <title>a. backgrounds / scenarios / outdoors / city A</title>
    <g id="Multi-GLCS" stroke="none" stroke-width="1" fill="none" fill-rule="evenodd">
        <g id="V2_Client_Onboarding_01E" transform="translate(-217.000000, -165.000000)">
            <g id="Group-5" transform="translate(217.000000, 144.000000)">
                <g id="a.-backgrounds-/-scenarios-/-outdoors-/-city-A" transform="translate(0.000000, 21.000000)">
                    <g id="Group" transform="translate(219.800000, 6.400000)">
                        <g id="g.-vehicles-/-aerial-/-Airplane-01" transform="translate(29.600000, 29.600000) rotate(13.000000) translate(-29.600000, -29.600000) ">
                            <g id="Group" transform="translate(0.000000, 21.288960)">
                                <path d="M53.3432281,10.004911 L58.9786505,0.153817288 C58.9786505,0.153817288 55.7392068,-0.469626999 54.2270183,0.793774422 C53.2827406,1.57998822 49.724057,6.50385009 44.3709098,7.96270972 C41.9614895,8.61850571 39.8141818,9.0346969 39.8141818,9.0346969 L49.2704005,10.0264788 L53.3432281,10.004911 Z" id="Tail" fill="#9BC3D3"></path>
                                <path d="M0.0133809002,12.7969304 C0.0436246699,12.9290332 0.114193466,13.0500151 0.215006031,13.1608871 C1.18616708,14.2372552 5.08761337,14.371717 5.08761337,14.371717 L36.2252545,14.371717 C38.8665437,14.371717 41.5044725,14.0953795 44.0886346,13.5464115 L45.9066212,13.1608871 L55.0402396,11.2214699 L55.0402396,9.9722223 L39.6024754,8.66939224 C39.6024754,8.66939224 9.43935579,8.82238884 7.32565233,8.94101175 C5.00696332,9.07041857 4.33487955,9.60455867 2.76892436,10.3735856 C2.74876185,10.3847065 2.72523892,10.3958274 2.70171598,10.4069483 C2.26150111,10.6212784 1.84480918,10.8470663 1.47852352,11.0765612 C0.527524985,11.6723717 -0.100873341,12.293457 0.0133809002,12.7969304" id="Body" fill="#CEDEE7"></path>
                                <path d="M0.215006031,13.1605501 C1.18616708,14.2375922 5.08761337,14.372054 5.08761337,14.372054 L36.2218941,14.372054 C38.8665437,14.372054 41.5044725,14.0953795 44.0886346,13.5464115 L45.9066212,13.1605501 L0.215006031,13.1605501 Z" id="Bottom" fill="#CEDEE7"></path>
                                <path d="M47.509541,10.7415863 L57.2043494,9.53783328 L58.6123649,9.53783328 L53.5818179,10.9471544 C52.8055611,11.1645174 52.0091418,11.2912282 51.2026413,11.319536 C49.9626467,11.3640195 48.2353915,11.3090891 47.509541,10.7415863" id="Tail-wing" fill="#9BC3D3"></path>
                                <polygon id="Wing-tip" fill="#DEEDF2" points="45.6747523 10.0231088 48.7024897 10.0443396 51.296733 6.39500009 50.1877948 6.39500009"></polygon>
                                <path d="M24.7124595,12.626073 C24.7124595,12.626073 27.7233948,13.4483454 30.2000235,13.9976504 C31.9037558,14.3757609 33.6881382,14.1408741 35.2372913,13.3337665 L36.6587485,12.5916993 C36.6587485,12.5916993 46.5820654,11.091389 48.7159314,10.0261418 L45.6949148,10.004574 L24.7124595,12.626073 Z" id="Wing" fill="#9BC3D3"></path>
                                <path d="M24.2615908,12.7085938 C25.1890664,12.5370624 27.3968616,12.2233183 28.8351209,12.797224 L28.8351209,12.797224 L28.8359454,13.2217062 C29.6138437,13.3786005 30.2771477,13.6942081 30.2771477,13.6942081 L30.2770968,14.0213822 L31.5159855,14.3937343 L30.2770968,14.7663822 L30.2771477,14.9977121 C30.2771477,14.9977121 29.6138437,15.3130022 28.8359454,15.4699152 L28.8351209,16.0135225 C27.3968616,16.5874283 25.1890664,16.2733472 24.2615908,16.1018157 C24.222706,16.0946425 24.1860843,16.0877169 24.1518727,16.0811145 L23.9766998,16.0459843 C23.8807662,16.025957 23.8280968,16.0135225 23.8280968,16.0135225 L23.8280968,16.0135225 L23.8280968,12.797224 C23.8280968,12.797224 23.9893969,12.7591434 24.2615908,12.7085938 Z" id="Engine" fill="#DEEDF2"></path>
                            </g>
                        </g>
                    </g>
                    <g id="Group" transform="translate(8.000000, 118.200000)" fill="#DEEDF2">
                        <g id="Group" transform="translate(12.000000, 0.080000)">
                            <polygon id="Tertiary-color" points="24.7714983 63.8315883 28.1869174 63.8315883 28.1869174 21.3515883 24.7714983 21.3515883"></polygon>
                            <g id="Primary-color" transform="translate(-0.000000, 0.000000)">
                                <path d="M0.220457799,21.7370551 C-0.0715474965,21.7173563 -0.0744443745,21.2897771 0.217560921,21.2666021 L23.4319819,19.4386721 L26.3891149,21.2845627 C26.4395206,21.315849 26.4401,21.3876916 26.3902737,21.4201366 L23.4545776,23.2990517 L0.220457799,21.7370551 Z" id="Fill-49"></path>
                                <path d="M39.9934331,49.8744305 C40.1237926,50.1363082 39.7558891,50.3547328 39.5884496,50.1148713 L26.2894623,24.7683481 L26.3891149,21.2845627 C26.3908531,21.2254664 26.4534256,21.1883864 26.5061488,21.215617 L29.6104432,22.8007887 L39.9934331,49.8744305 Z" id="Fill-50"></path>
                                <path d="M39.7373491,0.341294022 C39.8648117,0.0776781296 39.4940113,-0.136111462 39.330048,0.105488158 L26.2500648,17.8013567 L26.3891149,21.2839834 C26.3920118,21.3436591 26.4545844,21.3795803 26.5067282,21.3523497 L29.5924826,19.7318362 L39.7373491,0.341294022 Z" id="Fill-51"></path>
                            </g>
                            <path d="M28.189301,21.3352299 C28.189301,22.2935171 27.4123584,23.0704598 26.4546505,23.0704598 C25.4963633,23.0704598 24.72,22.2935171 24.72,21.3352299 C24.72,20.377522 25.4963633,19.6 26.4546505,19.6 C27.4123584,19.6 28.189301,20.377522 28.189301,21.3352299" id="Secondary-color"></path>
                        </g>
                    </g>
                    <g id="Group" transform="translate(6.800000, 168.200000)">
                        <g id="Group-5" transform="translate(12.240000, 0.236082)">
                            <path d="M39.4527347,-1.0658141e-14 L28.4470204,19.0625306 L15.476,19.062 L15.476049,63.5030204 L12.9281306,63.5030204 L12.928,19.062 L3.55271368e-15,19.0625306 L11.0060408,-1.0658141e-14 L39.4527347,-1.0658141e-14 Z" id="Primary-color" fill="#DEEDF2"></path>
                            <path d="M39.4533878,0.000326530612 L28.4455184,19.0641633 L15.4757837,19.0633265 L15.476049,27.1229388 L12.9281306,27.1229388 L12.9277837,19.0633265 L0.000783673469,19.0641633 L1.77155918,15.9983673 L23.4584163,15.9983673 L32.6977959,0.000326530612 L39.4533878,0.000326530612 Z" id="Secondary-color" fill="#CEDEE7"></path>
                        </g>
                    </g>
                    <g id="Group" transform="translate(69.000000, 114.200000)" fill="#DEEDF2">
                        <g id="a.-backgrounds-/-props-/-cloud-02" transform="translate(17.600000, 17.600000) scale(-1, 1) rotate(9.000000) translate(-17.600000, -17.600000) ">
                            <path d="M23.2330307,9.12186691 C27.3321097,8.38297994 31.6344478,10.2280381 33.836727,14.0424973 C36.6431612,18.9031155 34.9775284,25.1176129 30.1176435,27.9234767 C27.9999436,29.1461276 25.6246355,29.5192379 23.3863408,29.1494277 L23.3861779,29.1499981 L23.3843037,29.1491833 C23.1826336,29.1160197 22.9823486,29.075482 22.7828377,29.0297701 C22.3757898,28.9904953 21.7454381,28.9889064 20.836537,29.1330904 C20.0534456,29.2573111 19.0894621,29.5123118 18.2382102,29.7652755 C17.5505352,30.0531546 16.8499452,30.2802882 16.1419403,30.4448837 C16.1360327,30.44688 16.1333438,30.44798 16.1333438,30.44798 L16.1324068,30.4471244 C10.6383812,31.7170762 4.73262253,29.3356569 1.76644111,24.1980783 C-1.86993719,17.8996535 0.288056042,9.84600548 6.58644009,6.20962717 C12.1982084,2.9696632 19.2004011,4.3323018 23.2330307,9.12186691" id="Primary-color"></path>
                        </g>
                    </g>
                    <polygon id="Fill-1" fill="#FFFFFF" points="151.8 226.0114 263.2868 226.0114 263.2868 112.2 151.8 112.2"></polygon>
                    <path d="M302.806,196.6 L302.596,196.9666 L300.216,201.0848 L287.886,222.446 C278.294,239.0596 260.57,249.2938 241.386,249.2938 L223.115,249.2938 C208.5748,268.2494 187.829,281.38338 164.6774,286.4976 C159.6554,287.60942 154.518,288.34302 149.3082,288.6749 C147.1624,288.81392 145.0052,288.8828 142.8368,288.8828 L102.214,288.8828 C66.3012,288.8828 40.6,259.4042 40.6,227.2688 C40.6,219.7518 42.0065,212.0906 45.01826,204.625 C46.10676,201.9192 47.412,199.2366 48.93376,196.6 L302.806,196.6 Z" id="Blue-background" fill="#DEEDF2"></path>
                    <path d="M141.3126,288.6572 L102.2142,288.6572 C66.3018,288.6572 40.6,259.1788 40.6,227.0428 C40.6,219.5258 42.0065,211.8644 45.0185,204.4 L92.6612,204.4 L141.3126,288.6572 Z" id="Blue-background" fill="#CEDEE7"></path>
                    <g id="Group" transform="translate(46.600000, 121.800000)">
                        <path d="M6.675,30.0658 L23.3596,30.0658 L23.3596,27.5124 L11.62376,27.5124 L11.62376,27.5118 C8.75348,27.5116 6.42326,25.1812 6.42326,22.3108 C6.42326,19.4402 8.75348,17.1098 11.62376,17.1096 L11.62376,17.1094 L57.5042,13.3266 L57.5042,7.16 L66.9126,7.16 L66.9126,56.1966 L72.5462,56.1966 L72.5462,25.8794 L78.9072,25.8794 L78.9072,10.6616 C82.0212,10.6616 84.9084,11.6322 87.283,13.2872 L87.283,-5.68434189e-14 L87.6528,-5.68434189e-14 C99.748,-5.68434189e-14 109.5528,9.8052 109.5528,21.8996 L109.5528,74.3336 L100.0112,74.3336 L100.0112,81.1816 L6.675,81.1816 L6.675,30.0658 Z M40.8826,56.1966 L43.10154,56.1966 L43.10154,27.5122 L40.8826,27.5122 L40.8826,56.1966 Z M55.2846,56.1966 L57.50424,56.1966 L57.50424,27.5122 L55.2846,27.5122 L55.2846,56.1966 Z M3.4125,18.0648 C3.4125,19.0068 2.64796,19.7714 1.70626,19.7714 C0.76454,19.7714 1.13686838e-14,19.0068 1.13686838e-14,18.0648 C1.13686838e-14,17.123 0.76454,16.3584 1.70626,16.3584 C2.64796,16.3584 3.4125,17.123 3.4125,18.0648 Z" id="Fill-1" fill="#DEEDF2"></path>
                        <path d="M43.1018,56.1966 L38.663,56.1966 L38.663,22.7532 L43.1018,21.0374 L43.1018,56.1966 Z M23.3596,56.1966 L18.92076,56.1966 L18.92076,27.5956 L23.3596,25.8796 L23.3596,56.1966 Z M78.9072,56.1966 L74.4686,56.1966 L74.4686,17.1362 C74.4686,14.2684 76.232,11.6956 78.9072,10.6616 L78.9072,56.1966 Z M57.5046,27.6318 L55.2846,27.6318 L55.2846,21.0374 L53.066,21.0374 L53.066,8.8766 L57.5046,7.1604 L57.5046,27.6318 Z" id="Fill-2" fill="#FFFFFF"></path>
                    </g>
                    <path d="M225.499605,53.8011774 C218.828005,53.8461774 212.462205,55.1725774 206.633605,57.5463774 C201.510605,59.6323774 195.926005,60.2125774 190.462005,59.3523774 C188.963405,59.1165774 187.425005,59.0033774 185.855805,59.0227774 C171.102645,59.2077774 159.086645,71.3087774 159,86.0627774 C158.954145,94.2501774 162.523905,101.603577 168.206405,106.620577 C172.514905,110.424577 175.632385,115.388177 177.441405,120.843777 C184.167605,141.139877 203.299205,155.781377 225.851605,155.781377 C254.045005,155.781377 276.894605,132.900177 276.842295,104.694777 C276.789605,76.5383774 253.655605,53.6107774 225.499605,53.8011774 Z" id="Fill-1" fill="#DEEDF2"></path>
                    <path d="M201.3472,149.37266 C208.5466,153.25966 216.7854,155.4659 225.541,155.4659 C253.7344,155.4659 276.5832,132.5856 276.5308,104.3806 C276.5132,94.8162 273.8308,85.8552 269.1958,78.2 C277.1182,87.1722 281.9458,98.9342 281.970882,111.782 C282.0208,139.9874 259.1728,162.8674 230.979,162.8674 C219.2282,162.8674 208.4052,158.89116 199.782,152.2084 L201.3472,149.37266 Z M182.57124,127.9308 C183.7725,131.558 185.37174,135.0062 187.3185,138.2202 C182.8135,133.1262 179.31624,127.1282 177.1305,120.5294 C176.50674,118.6496 175.7295,116.8274 174.8,115.092 C178.35774,118.6812 180.97374,123.1142 182.57124,127.9308 Z" id="Fill-1" fill="#9BC3D3"></path>
                    <path d="M199.38,182 C173.7634,182 152.9968,202.7666 152.9968,228.3836 C152.9968,228.6678 153.0024,228.9508 153.0078,229.2338 L35,229.2338 L35,256.77532 L162.7024,256.77532 C171.1868,267.72012 184.4598,274.7668 199.38,274.7668 C224.9968,274.7668 245.764,254.0004 245.764,228.3836 C245.764,202.7666 224.9968,182 199.38,182 Z" id="Fill-1" fill="#FFFFFF"></path>
                    <path d="M232.043071,206.866592 C230.370671,203.400192 229.190231,199.622592 228.607291,195.611392 C225.535891,174.489992 240.167691,154.878392 261.289391,151.807392 C274.058791,149.950392 286.276191,154.563192 294.618791,163.170192 C290.608791,162.955392 286.516191,163.132792 282.391191,163.732792 C280.751591,163.971192 279.136191,164.271992 277.547391,164.632392 C277.721991,164.664592 277.896591,164.698192 278.071191,164.732992 C290.726191,167.250792 300.698791,175.681992 305.683791,186.582192 C301.976191,185.039392 298.061191,183.839392 293.973591,183.025792 C290.170591,182.268992 286.379591,181.878792 282.637391,181.830992 C285.524391,182.906592 288.328591,184.347192 290.986191,186.164792 C301.638591,193.448392 307.501191,205.117392 307.806191,217.099992 C305.001191,214.225992 301.873791,211.585392 298.431191,209.231792 C293.279991,205.708792 287.784591,203.071792 282.125591,201.286992 C286.944391,204.539592 291.099591,208.933192 294.146191,214.343392 C300.478591,225.585792 300.578791,238.644192 295.553791,249.527192 C294.308791,245.708692 292.671191,241.957192 290.623791,238.324192 C278.468791,216.745392 255.287991,205.285992 232.123091,207.031392 L232.043071,206.866592 Z" id="Fill-1" fill="#DEEDF2"></path>
                    <g id="Group" transform="translate(0.200000, 89.000000)" fill="#DEEDF2">
                        <g id="a.-backgrounds-/-shapes-/-curve-04" transform="translate(106.400000, 106.400000) scale(-1, 1) translate(-106.400000, -106.400000) ">
                            <path d="M21.28,60.648 L52.91405,60.648 C86.595502,60.648 117.719098,78.616832 134.559292,107.78586 L165.638998,107.78586 L191.27262,152.182058 L158.446624,152.182058 C142.728684,152.182058 128.206414,143.79694 120.346912,130.185401 C118.94855,127.763072 116.363828,126.270493 113.566572,126.270493 L84.567252,126.270493 C68.85011,126.270493 54.326776,117.885614 46.4680986,104.274128 L21.28,60.648 Z" id="Fill-1"></path>
                        </g>
                    </g>
                    <g id="a.-backgrounds-/-shapes-/-curve-04" transform="translate(116.200000, 99.600000)" fill="#DEEDF2">
                        <path d="M19.16,54.606 L47.6425375,54.606 C77.9685065,54.606 105.991443,70.784704 121.153949,97.047795 L149.137368,97.047795 L172.217265,137.021063 L142.661528,137.021063 C128.509473,137.021063 115.43397,129.471305 108.357464,117.215803 C107.098412,115.034796 104.771191,113.690913 102.252609,113.690913 L76.142319,113.690913 C61.9909825,113.690913 48.914522,106.14137 41.8387579,93.885916 L19.16,54.606 Z" id="Fill-1"></path>
                    </g>
                    <polygon id="Fill-1" fill="#DEEDF2" points="152.8182 232.75826 152.8182 222.8 83.2 222.8 83.2 232.75826 83.2 238.54026 321.21 238.54026 321.21 232.75826"></polygon>
                    <g id="Group-2" transform="translate(239.800000, 169.800000)">
                        <path d="M26.7824,21.876 L26.7824,39.163 L35.9066,39.163 L35.9066,20.228 L24.3516,20.228 L24.3516,11.8802 L38.2526,11.8802 L38.2526,15.9422 L40.704,14.9946 L40.704,68.56364 L35.9066,68.56364 L35.9066,52.27188 L26.7824,52.27188 L26.7824,68.5644 L13.165,68.5644 L13.165,69.6534 L0,69.6534 L0,32.742 C0,25.471 5.8946,19.577 13.165,19.577 L13.165,21.876 L26.7824,21.876 Z M56.2666,68.56364 L53.8692,68.56364 L53.8692,14.9946 L51.4716,14.9946 L51.4716,1.8544 L56.2666,0.0002 L56.2666,68.56364 Z M26.7824,45.1952 L35.9066,45.1952 L35.9066,40.93012 L26.7824,40.93012 L26.7824,45.1952 Z" id="Fill-1" fill="#FFFFFF"></path>
                        <polygon id="Fill-2" fill="#DEEDF2" points="70.1068 -7.95807864e-14 70.1068 68.56314 58.9266 68.56314 58.9266 10.806 70.1066 0.0002 58.9266 0.0002 58.9266 -7.95807864e-14"></polygon>
                        <path d="M51.4716,68.56364 L40.7042,68.56364 L40.7042,14.9946 L51.4716,68.56364 Z M58.9266,-2.27373675e-14 L56.2666,-2.27373675e-14 L58.9266,10.806 L58.9266,68.56314 L56.2666,68.56314 L56.2666,-2.27373675e-14 L58.9266,-2.27373675e-14 L58.9266,-2.27373675e-14 Z" id="Fill-3" fill="#9BC3D3"></path>
                        <path d="M53.8692,68.5639 L40.7042,68.5639 L40.7042,68.5639 L51.4716,68.5639 L40.7042,14.9946 L53.8692,14.9946 L53.8692,68.5639 Z M58.9266,10.806 L56.2666,0.0002 L70.1066,0.0002 L58.9266,10.806 Z" id="Fill-4" fill="#CEDEE7"></path>
                    </g>
                    <path d="M48.9701461,242.230431 C48.9701461,242.230431 42.5371461,208.017431 72.8884061,204.209231 C103.239406,200.401231 100.569406,177.136431 121.829406,180.538631 C143.089206,183.941431 156.218606,213.645231 156.218606,213.645231 L115.385406,215.640031 L94.7406061,238.996671 L48.9701461,242.230431 Z" id="Fill-1" fill="#FFFFFF"></path>
                    <path d="M132.4,232.831397 L177.6334,232.831397 L225.1,151.052197 L245.899,135.310597 L243.5334,131.914797 L231.3688,140.833397 L243.398,119.490797 L223.9448,119.4 C223.9448,119.4 201.4562,119.145997 188.1666,136.912597 L132.4,232.831397 Z" id="Fill-7" fill="#CEDEE7"></path>
                    <g id="Group" transform="translate(224.800000, 169.400000)">
                        <g id="Group" transform="translate(22.680000, 0.000000)">
                            <polygon id="Secondary-color" fill="#DEEDF2" points="10.6155485 71.9638224 11.8415532 71.9638224 11.8415532 28.1308877 10.6155485 28.1308877"></polygon>
                            <path d="M4.05550859,25.0083662 C4.32345204,20.1262404 5.55991304,18.6064782 2.6501125,14.1841042 C0.494474754,10.9070251 -1.32754072,6.49576096 1.30091919,2.86120605 C3.48269777,-0.154138065 8.79582037,-0.996852898 11.7670518,1.353534 C15.3872293,4.21726133 12.7698792,10.4178649 23.3092062,15.0264923 C27.5221268,16.8690937 28.0142279,22.2099909 21.9041369,24.1666316 C19.3740318,24.9769972 15.5604123,25.6213685 13.1374846,36.2247405 C11.5876604,43.007631 3.54674279,34.2694068 4.05550859,25.0083662" id="Primary-color" fill="#CEDEE7"></path>
                        </g>
                    </g>
                    <g id="Group" transform="translate(215.800000, 206.200000)">
                        <g id="Group-7" transform="translate(0.000000, 13.250000)">
                            <path d="M39.79105,7.05725 L39.79105,9.05745 C39.79105,10.72145 38.44275,12.07265 36.77585,12.07265 L34.54245,12.07265 C34.66015,11.73645 34.7222,11.3766 34.7222,11.0017 C34.7222,9.18445 33.2501,7.71235 31.43285,7.71235 C29.6153,7.71235 28.1432,9.18445 28.1432,11.0017 C28.1432,11.3766 28.20495,11.73645 28.32295,12.07265 L11.08105,12.07265 C11.1994,11.73645 11.26145,11.3766 11.26145,11.0017 C11.26145,9.18445 9.78905,7.71235 7.97145,7.71235 C6.1542,7.71235 4.6821,9.18445 4.6821,11.0017 C4.6821,11.3766 4.74385,11.73645 4.86155,12.07265 L0,12.07265 L0,10.344 C0,9.65945 0.12955,8.9986 0.372,8.3937 C0.5515,7.93945 0.79045,7.51755 1.0857,7.134 C1.76705,6.2428 2.72925,5.5704 3.8677,5.2547 L11.34975,3.1745 L11.4767,3.1393 L16.81045,0.98845 C18.4332,0.3365 20.1628,-1.77635684e-16 21.90905,-1.77635684e-16 L31.0167,-1.77635684e-16 C32.45395,-1.77635684e-16 33.7811,0.76705 34.4983,2.01205 L35.1502,3.1393 L35.2388,3.1745 L37.835,4.1895 C39.015,4.6527 39.79105,5.79145 39.79105,7.05725 Z" id="Primary-color" fill="#DEEDF2"></path>
                            <path d="M7.97145,8.50885 C9.34695,8.50885 10.46365,9.62555 10.46365,11.00105 C10.46365,12.37655 9.34695,13.49325 7.97145,13.49325 C6.596,13.49325 5.47925,12.37655 5.47925,11.00105 C5.47925,9.62555 6.596,8.50885 7.97145,8.50885 Z M31.4322,8.50885 C32.8077,8.50885 33.9244,9.62555 33.9244,11.00105 C33.9244,12.37655 32.8077,13.49325 31.4322,13.49325 C30.05675,13.49325 28.94,12.37655 28.94,11.00105 C28.94,9.62555 30.05675,8.50885 31.4322,8.50885 Z" id="Wheels" fill="#9BC3D3"></path>
                            <path d="M35.23915,3.17355 L11.35035,3.17355 L11.4761,3.13835 L16.8117,0.98905 C18.43225,0.3362 20.16215,0.0003 21.90905,0.0003 L31.0167,0.0003 C32.4533,0.0003 33.7805,0.7674 34.49895,2.0111 L35.1502,3.13835 L35.23915,3.17355 Z" id="Secondary-color" fill="#CEDEE7"></path>
                            <path d="M35.23915,3.17355 L23.63925,3.17355 L25.4709,0.0003 L31.0167,0.0003 C32.4533,0.0003 33.7805,0.7674 34.49895,2.0111 L35.1502,3.13835 L35.23915,3.17355 Z" id="Tertiary-color" fill="#9BC3D3"></path>
                            <path d="M4.00525,7.1337 L3.27845,8.3924 L0.37265,8.3924 C0.5521,7.9398 0.7914,7.51755 1.08505,7.1337 L4.00525,7.1337 Z" id="Headlight" fill="#FFFFFF"></path>
                        </g>
                    </g>
                    <g id="Group-7" transform="translate(204.000000, 151.600000)">
                        <path d="M0.73728,64.5539 L0.39944,65.139 L0,64.90836 L0.33782,64.32328 C0.47098,64.40016 0.60412,64.47704 0.73728,64.5539 Z M1.42906,63.35578 L1.08316,63.95484 L0.68372,63.7242 L1.02962,63.12514 C1.16276,63.20202 1.29592,63.2789 1.42906,63.35578 Z M2.12086,62.15766 L1.77496,62.75672 L1.37552,62.52608 L1.7214,61.92702 C1.85456,62.0039 1.9877,62.08078 2.12086,62.15766 Z M2.81264,60.95954 L2.46674,61.5586 L2.0673,61.32796 L2.4132,60.7289 C2.54634,60.80578 2.6795,60.88266 2.81264,60.95954 Z M3.50442,59.76142 L3.15854,60.36048 L2.75908,60.12984 L3.10498,59.53078 C3.23814,59.60766 3.37128,59.68454 3.50442,59.76142 Z M4.19622,58.5633 L3.85032,59.16236 L3.45088,58.93172 L3.79678,58.33266 C3.92992,58.40954 4.06306,58.48642 4.19622,58.5633 Z M4.888,57.36516 L4.54212,57.96422 L4.14266,57.7336 L4.48856,57.13452 C4.6217,57.2114 4.75486,57.28828 4.888,57.36516 Z M5.5798,56.16704 L5.2339,56.7661 L4.83446,56.53546 L5.18034,55.9364 C5.3135,56.01328 5.44664,56.09016 5.5798,56.16704 Z M6.27158,54.96892 L5.9257,55.56798 L5.52624,55.33734 L5.87214,54.73828 C6.00528,54.81516 6.13844,54.89204 6.27158,54.96892 Z M6.96338,53.7708 L6.61748,54.36986 L6.21804,54.13922 L6.56392,53.54016 C6.69708,53.61704 6.83022,53.69392 6.96338,53.7708 Z M7.65516,52.57268 L7.30926,53.17174 L6.90982,52.9411 L7.25572,52.34204 C7.38886,52.41892 7.52202,52.4958 7.65516,52.57268 Z M8.34696,51.37454 L8.00106,51.97362 L7.6016,51.74298 L7.9475,51.14392 C8.08066,51.22078 8.2138,51.29766 8.34696,51.37454 Z M9.03874,50.17642 L8.69284,50.77548 L8.2934,50.54484 L8.6393,49.94578 C8.77244,50.02266 8.9056,50.09954 9.03874,50.17642 Z M9.73052,48.9783 L9.38464,49.57736 L8.98518,49.34672 L9.33108,48.74766 C9.46424,48.82454 9.59738,48.90142 9.73052,48.9783 Z M10.42232,47.78018 L10.07642,48.37924 L9.67698,48.1486 L10.02288,47.54954 C10.15602,47.62642 10.28916,47.7033 10.42232,47.78018 Z M11.1141,46.58206 L10.76822,47.18112 L10.36876,46.95048 L10.71466,46.35142 C10.8478,46.4283 10.98096,46.50518 11.1141,46.58206 Z M11.8059,45.38392 L11.46,45.983 L11.06056,45.75236 L11.40644,45.1533 C11.5396,45.23018 11.67274,45.30706 11.8059,45.38392 Z M12.49768,44.1858 L12.15178,44.7848 L11.75234,44.5542 L12.09824,43.9552 C12.23138,44.032 12.36454,44.109 12.49768,44.1858 Z M13.18948,42.9876 L12.84358,43.5868 L12.44414,43.3562 L12.79002,42.757 C12.92318,42.834 13.05632,42.9108 13.18948,42.9876 Z M13.88126,41.7896 L13.53536,42.3886 L13.13592,42.158 L13.48182,41.559 C13.61496,41.6358 13.74812,41.7126 13.88126,41.7896 Z M14.57306,40.5914 L14.22716,41.1904 L13.8277,40.9598 L14.1736,40.3608 C14.30676,40.4376 14.4399,40.5146 14.57306,40.5914 Z M15.26484,39.3934 L14.91894,39.9924 L14.5195,39.7618 L14.8654,39.1626 C14.99854,39.2396 15.1317,39.3164 15.26484,39.3934 Z M15.9375,38.6234 L15.70944,38.6234 L15.61074,38.7942 L15.21128,38.5636 L15.44314,38.162 L15.9375,38.162 L15.9375,38.6234 Z M27.6972,38.6234 L28.38894,38.6234 L28.38894,38.16214 L27.6972,38.16214 L27.6972,38.6234 Z M26.3138,38.6234 L27.00556,38.6234 L27.00556,38.16214 L26.3138,38.16214 L26.3138,38.6234 Z M24.9302,38.6234 L25.62194,38.6234 L25.62194,38.16214 L24.9302,38.16214 L24.9302,38.6234 Z M23.5468,38.6234 L24.23854,38.6234 L24.23854,38.16214 L23.5468,38.16214 L23.5468,38.6234 Z M22.1632,38.6234 L22.85494,38.6234 L22.85494,38.16214 L22.1632,38.16214 L22.1632,38.6234 Z M20.7798,38.6234 L21.47154,38.6234 L21.47154,38.16214 L20.7798,38.16214 L20.7798,38.6234 Z M19.39626,38.6234 L20.08802,38.6234 L20.08802,38.16214 L19.39626,38.16214 L19.39626,38.6234 Z M18.01276,38.6234 L18.7045,38.6234 L18.7045,38.16214 L18.01276,38.16214 L18.01276,38.6234 Z M16.62926,38.6234 L17.321,38.6234 L17.321,38.16214 L16.62926,38.16214 L16.62926,38.6234 Z M29.4656,37.6306 L29.1198,38.2298 L28.7204,37.9992 L29.0662,37.4 C29.1994,37.477 29.3326,37.5538 29.4656,37.6306 Z M30.1574,36.4324 L29.8114,37.0316 L29.412,36.801 L29.7578,36.2018 C29.891,36.2788 30.0242,36.3556 30.1574,36.4324 Z M30.849,35.2342 L30.5032,35.8334 L30.1036,35.6028 L30.4496,35.0036 C30.5826,35.0806 30.7158,35.1574 30.849,35.2342 Z M31.5406,34.036 L31.1948,34.6352 L30.7954,34.4046 L31.1412,33.8054 C31.2744,33.8824 31.4074,33.9592 31.5406,34.036 Z M32.2322,32.8378 L31.8864,33.437 L31.487,33.2064 L31.8328,32.6072 C31.966,32.6842 32.0992,32.761 32.2322,32.8378 Z M32.924,31.6396 L32.5782,32.2388 L32.1786,32.0082 L32.5244,31.409 C32.6576,31.486 32.7908,31.5628 32.924,31.6396 Z M33.6156,30.4414 L33.2698,31.0406 L32.8704,30.81 L33.2162,30.2108 C33.3492,30.2878 33.4824,30.3646 33.6156,30.4414 Z M34.3072,29.2432 L33.9614,29.8424 L33.562,29.6118 L33.9078,29.0126 C34.041,29.0896 34.1742,29.1664 34.3072,29.2432 Z M34.999,28.045 L34.6532,28.6442 L34.2536,28.4136 L34.5994,27.8144 C34.7326,27.8914 34.8658,27.9682 34.999,28.045 Z M35.6906,26.8468 L35.3448,27.446 L34.9452,27.2154 L35.2912,26.6162 C35.4242,26.6932 35.5574,26.77 35.6906,26.8468 Z M36.3822,25.6486 L36.0364,26.2478 L35.637,26.0172 L35.9828,25.418 C36.116,25.495 36.249,25.5718 36.3822,25.6486 Z M37.074,24.4504 L36.728,25.0496 L36.3286,24.819 L36.6744,24.2198 C36.8076,24.2968 36.9408,24.3736 37.074,24.4504 Z M48.467,24.2768 L49.15874,24.2768 L49.15874,23.81556 L48.467,23.81556 L48.467,24.2768 Z M41.5496,24.2768 L42.24136,24.2768 L42.24136,23.81556 L41.5496,23.81556 L41.5496,24.2768 Z M47.0836,24.2768 L47.77534,24.2768 L47.77534,23.81556 L47.0836,23.81556 L47.0836,24.2768 Z M49.8506,24.2768 L50.54234,24.2768 L50.54234,23.81556 L49.8506,23.81556 L49.8506,24.2768 Z M45.7,24.2768 L46.39176,24.2768 L46.39176,23.81556 L45.7,23.81556 L45.7,24.2768 Z M44.3166,24.2768 L45.00834,24.2768 L45.00834,23.81556 L44.3166,23.81556 L44.3166,24.2768 Z M42.933,24.2768 L43.62474,24.2768 L43.62474,23.81556 L42.933,23.81556 L42.933,24.2768 Z M58.9056,23.9234 L58.7016,24.2768 L58.1516,24.2768 L58.1516,23.8156 L58.4354,23.8156 L58.5062,23.6928 C58.6394,23.7698 58.7724,23.8466 58.9056,23.9234 Z M56.768,24.2768 L57.45976,24.2768 L57.45976,23.81556 L56.768,23.81556 L56.768,24.2768 Z M55.3846,24.2768 L56.07634,24.2768 L56.07634,23.81556 L55.3846,23.81556 L55.3846,24.2768 Z M54.001,24.2768 L54.69274,24.2768 L54.69274,23.81556 L54.001,23.81556 L54.001,24.2768 Z M52.6176,24.2768 L53.30936,24.2768 L53.30936,23.81556 L52.6176,23.81556 L52.6176,24.2768 Z M51.234,24.2768 L51.92574,24.2768 L51.92574,23.81556 L51.234,23.81556 L51.234,24.2768 Z M40.166,24.2768 L40.85774,24.2768 L40.85774,23.81556 L40.166,23.81556 L40.166,24.2768 Z M38.7826,24.2768 L39.47434,24.2768 L39.47434,23.81556 L38.7826,23.81556 L38.7826,24.2768 Z M37.399,24.2768 L38.09074,24.2768 L38.09074,23.81556 L37.399,23.81556 L37.399,24.2768 Z M59.5974,22.7254 L59.2516,23.3244 L58.852,23.0938 L59.198,22.4948 C59.3312,22.5716 59.4642,22.6484 59.5974,22.7254 Z M60.2892,21.5272 L59.9434,22.1264 L59.544,21.8956 L59.8898,21.2966 C60.023,21.3736 60.1562,21.4504 60.2892,21.5272 Z M60.981,20.3292 L60.6352,20.9282 L60.2358,20.6976 L60.5816,20.0986 C60.7148,20.1754 60.848,20.2522 60.981,20.3292 Z M61.6728,19.131 L61.327,19.7302 L60.9276,19.4994 L61.2734,18.9004 C61.4066,18.9772 61.5398,19.0542 61.6728,19.131 Z M62.3646,17.933 L62.0188,18.532 L61.6194,18.3014 L61.9652,17.7022 C62.0984,17.7792 62.2316,17.856 62.3646,17.933 Z M63.0566,16.7348 L62.7106,17.3338 L62.3112,17.1032 C62.5652,16.6632 62.6164,16.4808 63.0566,16.7348 Z M63.7484,15.5368 L63.4024,16.1358 L63.003,15.9052 C63.257,15.4652 63.3082,15.2826 63.7484,15.5368 Z M64.4402,14.3386 L64.0942,14.9376 L63.6948,14.707 C63.9488,14.267 64,14.0846 64.4402,14.3386 Z M65.132,13.1404 L64.786,13.7396 L64.3866,13.509 C64.6406,13.0688 64.6918,12.8864 65.132,13.1404 Z M65.8238,11.9424 L65.4778,12.5414 L65.0784,12.3108 C65.3324,11.8708 65.3838,11.6882 65.8238,11.9424 Z M66.5156,10.7442 L66.1696,11.3434 L65.7702,11.1126 C66.0242,10.6726 66.0756,10.4902 66.5156,10.7442 Z M67.2074,9.5462 L66.8614,10.1452 L66.462,9.9146 C66.7162,9.4746 66.7674,9.292 67.2074,9.5462 Z M67.8992,8.348 L67.5532,8.9472 L67.1538,8.7164 C67.408,8.2764 67.4592,8.094 67.8992,8.348 Z M68.591,7.15 L68.245,7.749 L67.8456,7.5184 C68.0998,7.0784 68.151,6.8958 68.591,7.15 Z M69.2828,5.9518 L68.937,6.5508 L68.5374,6.3202 C68.7916,5.8802 68.8428,5.6978 69.2828,5.9518 Z M69.9746,4.7538 L69.6288,5.3528 L69.2292,5.1222 C69.4834,4.6822 69.5346,4.4996 69.9746,4.7538 Z M70.6664,3.5556 L70.3206,4.1546 L69.921,3.924 C70.1752,3.484 70.2264,3.3016 70.6664,3.5556 Z M71.3582,2.3576 L71.0124,2.9566 L70.613,2.726 L70.9588,2.1268 C71.092,2.2038 71.2252,2.2806 71.3582,2.3576 Z" id="Fill-1" fill="#FFFFFF"></path>
                        <path d="M17.86872,38.328 C17.86872,39.5656 16.86402,40.5704 15.62652,40.5704 C14.389,40.5704 13.38432,39.5656 13.38432,38.328 C13.38432,37.0902 14.389,36.0854 15.62652,36.0854 C16.86402,36.0854 17.86872,37.0902 17.86872,38.328 Z" id="Fill-2" fill="#FFFFFF"></path>
                        <path d="M31.025,38.328 C31.025,39.5656 30.0202,40.5704 28.7828,40.5704 C27.5452,40.5704 26.5406,39.5656 26.5406,38.328 C26.5406,37.0902 27.5452,36.0854 28.7828,36.0854 C30.0202,36.0854 31.025,37.0902 31.025,38.328 Z" id="Fill-3" fill="#FFFFFF"></path>
                        <path d="M39.2954,24.0404 C39.2954,25.278 38.2906,26.283 37.053,26.283 C35.8154,26.283 34.8108,25.278 34.8108,24.0404 C34.8108,22.8028 35.8154,21.798 37.053,21.798 C38.2906,21.798 39.2954,22.8028 39.2954,24.0404 Z" id="Fill-4" fill="#FFFFFF"></path>
                        <path d="M60.8312,24.0404 C60.8312,25.278 59.8262,26.283 58.5886,26.283 C57.3508,26.283 56.346,25.278 56.346,24.0404 C56.346,22.8028 57.3508,21.798 58.5886,21.798 C59.8262,21.798 60.8312,22.8028 60.8312,24.0404 Z" id="Fill-5" fill="#FFFFFF"></path>
                        <path d="M73.4012,2.2424 C73.4012,3.48 72.3962,4.4846 71.1586,4.4846 C69.921,4.4846 68.9162,3.48 68.9162,2.2424 C68.9162,1.0048 69.921,0 71.1586,0 C72.3962,0 73.4012,1.0048 73.4012,2.2424 Z" id="Fill-6" fill="#9BC3D3"></path>
                    </g>
                    <path d="M298.9058,109.95774 C298.9106,110.24768 298.9154,110.6618 298.9154,110.6618 L298.4414,110.6664 C298.4388,110.3802 298.4318,109.95654 298.4318,109.95654 C298.4318,109.95654 298.9048,109.89842 298.9058,109.95774 Z M298.8738,108.62578 C298.8818,108.88528 298.8908,109.23488 298.8908,109.23488 L298.4168,109.24678 C298.4092,108.9387 298.3968,108.53682 298.3968,108.53682 L298.8704,108.52192 C298.8716,108.55654 298.8726,108.59116 298.8738,108.62578 Z M298.8176,107.1702 C298.8306,107.45366 298.845,107.8086 298.845,107.8086 L298.3712,107.82754 C298.3594,107.52788 298.3406,107.118 298.3406,107.118 L298.8142,107.096 C298.8152,107.12072 298.8164,107.14546 298.8176,107.1702 Z M298.74,105.72456 C298.7558,105.98888 298.778,106.38346 298.778,106.38346 L298.3048,106.40886 C298.2888,106.1136 298.2634,105.70036 298.2634,105.70036 L298.7366,105.67086 C298.7376,105.68876 298.7388,105.70666 298.74,105.72456 Z M298.6406,104.28902 C298.6616,104.56164 298.6898,104.95908 298.6898,104.95908 L298.217,104.9917 C298.1968,104.69894 298.1648,104.28378 298.1648,104.28378 L298.6374,104.24734 C298.6386,104.26122 298.6396,104.27512 298.6406,104.28902 Z M298.5204,102.8637 C298.5456,103.13888 298.5798,103.53618 298.5798,103.53618 L298.1076,103.5761 C298.078,103.22664 298.0448,102.86906 298.0448,102.86906 L298.5168,102.82528 C298.518,102.83808 298.5192,102.8509 298.5204,102.8637 Z M298.3788,101.44882 C298.408,101.72128 298.4482,102.11524 298.4482,102.11524 L297.9766,102.1622 C297.9474,101.86994 297.9028,101.45642 297.9028,101.45642 L298.3742,101.4052 C298.3756,101.41974 298.3772,101.43428 298.3788,101.44882 Z M298.2166,100.0445 C298.249,100.30886 298.2946,100.69628 298.2946,100.69628 L297.8238,100.75072 C297.7898,100.4562 297.739,100.04602 297.739,100.04602 L298.2094,99.98764 C298.2118,100.0066 298.2142,100.02556 298.2166,100.0445 Z M155.28622,99.67988 C155.27952,99.99942 155.27394,100.39 155.27394,100.39 L154.8,100.38308 C154.80432,100.08696 154.81232,99.66994 154.81232,99.66994 C154.97028,99.67324 155.12826,99.67656 155.28622,99.67988 Z M298.0334,98.65082 C298.0728,98.93588 298.1188,99.27968 298.1188,99.27968 L297.649,99.34202 C297.6094,99.04426 297.5532,98.63842 297.5532,98.63842 L298.0226,98.5728 C298.0262,98.5988 298.0298,98.62482 298.0334,98.65082 Z M155.3258,98.26034 C155.31548,98.55206 155.30344,98.96986 155.30344,98.96986 L154.82962,98.95688 C154.83758,98.66624 154.85208,98.2436 154.85208,98.2436 C155.01,98.24918 155.1679,98.25476 155.3258,98.26034 Z M297.83,97.2678 C297.8704,97.53108 297.9206,97.86634 297.9206,97.86634 L297.4518,97.93596 C297.4064,97.63 297.3448,97.23416 297.3448,97.23416 L297.8132,97.1609 C297.8188,97.19652 297.8244,97.23216 297.83,97.2678 Z M155.3861,96.8418 C155.37112,97.13654 155.35336,97.55086 155.35336,97.55086 L154.8798,97.53066 C154.89208,97.24254 154.91272,96.81774 154.91272,96.81774 C155.0705,96.82576 155.2283,96.83378 155.3861,96.8418 Z M297.5846,95.77164 C297.634,96.05898 297.7,96.45628 297.7,96.45628 L297.2324,96.53326 C297.1856,96.24864 297.1142,95.83348 297.1142,95.83348 C297.1142,95.83348 297.5696,95.68514 297.5846,95.77164 Z M155.46762,95.4242 C155.44818,95.7192 155.42424,96.1325 155.42424,96.1325 L154.951,96.1056 C154.96744,95.81628 154.99464,95.39304 154.99464,95.39304 C155.1523,95.40344 155.30996,95.41382 155.46762,95.4242 Z M297.3386,94.4117 C297.3876,94.67214 297.4568,95.04992 297.4568,95.04992 L296.9904,95.13432 C296.9594,94.96348 296.9278,94.7928 296.8958,94.62214 C296.8842,94.56028 296.8726,94.4984 296.861,94.43656 L297.3266,94.34806 C297.3306,94.36928 297.3346,94.3905 297.3386,94.4117 Z M155.57092,94.00796 C155.54742,94.2998 155.51656,94.71578 155.51656,94.71578 L155.04382,94.68136 C155.06518,94.38776 155.09846,93.96988 155.09846,93.96988 C155.25596,93.98256 155.41344,93.99526 155.57092,94.00796 Z M297.0728,93.06296 C297.1252,93.32002 297.1906,93.64744 297.1906,93.64744 L296.7258,93.73974 C296.6954,93.58634 296.6644,93.43304 296.6332,93.27978 C296.6172,93.20114 296.601,93.12248 296.5848,93.04386 L297.049,92.94816 C297.057,92.98642 297.0648,93.02468 297.0728,93.06296 Z M155.69642,92.59374 C155.68206,92.74282 155.668,92.89194 155.65422,93.0411 C155.6446,93.14712 155.63088,93.30058 155.63088,93.30058 L155.15872,93.25884 C155.1916,92.88682 155.22462,92.54826 155.22462,92.54826 C155.38188,92.56342 155.53916,92.57858 155.69642,92.59374 Z M296.76,91.6045 C296.8194,91.87154 296.9016,92.24968 296.9016,92.24968 L296.4382,92.34952 C296.4008,92.17564 296.3628,92.00188 296.3242,91.8282 C296.3114,91.7709 296.2988,91.71358 296.2858,91.65628 L296.7484,91.5526 C296.7522,91.5699 296.7562,91.5872 296.76,91.6045 Z M155.8447,91.18182 C155.80182,91.5629 155.76764,91.88764 155.76764,91.88764 L155.29626,91.83804 C155.32944,91.52254 155.37368,91.1288 155.37368,91.1288 C155.5307,91.14646 155.6877,91.16414 155.8447,91.18182 Z M296.453,90.2796 C296.514,90.5344 296.5894,90.85664 296.5894,90.85664 L296.1278,90.9645 C296.0564,90.6586 295.964,90.2736 295.964,90.2736 L296.4248,90.1626 C296.4342,90.2016 296.4436,90.2406 296.453,90.2796 Z M156.01622,89.7728 C155.97864,90.0618 155.92748,90.477 155.92748,90.477 L155.45696,90.4198 C155.47812,90.2458 155.50002,90.072 155.52206,89.898 C155.53008,89.836 155.5381,89.7738 155.54618,89.7116 C155.70286,89.732 155.85954,89.7524 156.01622,89.7728 Z M296.0958,88.8474 C296.1616,89.1026 296.2542,89.4694 296.2542,89.4694 L295.7942,89.5844 C295.7526,89.4176 295.71,89.2508 295.6674,89.0842 C295.6512,89.0218 295.6352,88.9592 295.619,88.8968 L296.0776,88.7778 C296.0838,88.801 296.0898,88.8242 296.0958,88.8474 Z M156.21154,88.367 C156.15678,88.7372 156.11088,89.0696 156.11088,89.0696 L155.64142,89.0042 C155.68158,88.716 155.74264,88.2976 155.74264,88.2976 C155.89894,88.3208 156.05524,88.3438 156.21154,88.367 Z M295.7158,87.4294 C295.7924,87.707 295.8954,88.0876 295.8954,88.0876 L295.4376,88.2106 C295.3488,87.8804 295.2506,87.526 295.2506,87.526 L295.7074,87.399 C295.7102,87.4092 295.713,87.4192 295.7158,87.4294 Z M156.43128,86.9646 C156.3655,87.3622 156.31828,87.6656 156.31828,87.6656 L155.85006,87.5918 C155.91346,87.1894 155.96364,86.8874 155.96364,86.8874 C156.11952,86.913 156.2754,86.9388 156.43128,86.9646 Z M295.3474,86.1418 C295.4224,86.3968 295.5132,86.7122 295.5132,86.7122 L295.0578,86.843 C295.0144,86.6924 294.9708,86.542 294.9268,86.3916 C294.9042,86.315 294.8816,86.2382 294.859,86.1616 L295.3134,86.027 C295.3248,86.0654 295.3362,86.1036 295.3474,86.1418 Z M156.67588,85.5666 C156.6482,85.7174 156.62088,85.8682 156.59388,86.0192 C156.57588,86.1202 156.55044,86.265 156.55044,86.265 L156.08348,86.1836 C156.15104,85.7964 156.20966,85.481 156.20966,85.481 C156.36506,85.5096 156.52046,85.538 156.67588,85.5666 Z M294.9242,84.751 C294.9994,84.9914 295.1078,85.3436 295.1078,85.3436 L294.6544,85.482 C294.6062,85.3236 294.5572,85.1656 294.5078,85.0076 C294.4866,84.9398 294.4654,84.872 294.444,84.8042 L294.896,84.6618 C294.9054,84.6916 294.9148,84.7212 294.9242,84.751 Z M156.94578,84.1734 C156.91536,84.3234 156.88536,84.4732 156.85574,84.6232 C156.83574,84.7252 156.80762,84.8694 156.80762,84.8694 L156.34226,84.7794 C156.41724,84.3922 156.48126,84.0792 156.48126,84.0792 C156.6361,84.1106 156.79094,84.142 156.94578,84.1734 Z M294.4786,83.3746 C294.5622,83.6254 294.6786,83.982 294.6786,83.982 L294.2278,84.1284 C294.1746,83.9648 294.1208,83.8014 294.0668,83.638 C294.0464,83.5768 294.026,83.5156 294.0056,83.4544 L294.455,83.304 C294.463,83.3274 294.4708,83.351 294.4786,83.3746 Z M157.24154,82.786 C157.20712,82.9396 157.1736,83.0932 157.14018,83.247 C157.12002,83.3406 157.09048,83.4788 157.09048,83.4788 L156.62684,83.3802 C156.68664,83.0988 156.779,82.6822 156.779,82.6822 C156.93318,82.7168 157.08736,82.7514 157.24154,82.786 Z M294.0112,82.0128 C294.1016,82.2694 294.2258,82.6282 294.2258,82.6282 L293.7774,82.7822 C293.7202,82.6156 293.6622,82.4492 293.6038,82.283 C293.5838,82.2262 293.5636,82.1692 293.5436,82.1122 L293.9904,81.9542 C293.9974,81.9738 294.0042,81.9932 294.0112,82.0128 Z M157.56382,81.4038 C157.4742,81.7726 157.39932,82.0942 157.39932,82.0942 L156.93778,81.9862 C157.0049,81.6992 157.10322,81.2918 157.10322,81.2918 C157.25676,81.3292 157.41028,81.3664 157.56382,81.4038 Z M293.522,80.666 C293.6182,80.9244 293.7492,81.2822 293.7492,81.2822 L293.3038,81.4444 C293.2428,81.277 293.1812,81.1098 293.1192,80.9428 C293.0988,80.888 293.0784,80.8334 293.058,80.7786 L293.502,80.6126 C293.5086,80.6304 293.5154,80.6482 293.522,80.666 Z M157.91286,80.0284 C157.87654,80.1664 157.84044,80.3044 157.80468,80.4426 C157.77308,80.5654 157.73492,80.7154 157.73492,80.7154 L157.2755,80.5988 C157.33406,80.3682 157.3939,80.1378 157.4545,79.9078 C157.60728,79.948 157.76008,79.9882 157.91286,80.0284 Z M293.0112,79.3342 C293.112,79.5906 293.2488,79.945 293.2488,79.945 L292.8064,80.115 C292.7426,79.949 292.6782,79.7832 292.6134,79.6176 C292.5918,79.563 292.5704,79.5084 292.549,79.4538 L292.9898,79.2798 C292.997,79.298 293.004,79.316 293.0112,79.3342 Z M158.28912,78.6608 C158.18016,79.0414 158.09748,79.3438 158.09748,79.3438 L157.64054,79.2178 C157.71854,78.935 157.83344,78.5304 157.83344,78.5304 C157.98534,78.5738 158.13722,78.6174 158.28912,78.6608 Z M292.4792,78.0174 C292.5832,78.2686 292.725,78.617 292.725,78.617 L292.2856,78.7948 C292.2196,78.6322 292.1532,78.4698 292.0862,78.3074 C292.063,78.2512 292.0396,78.1948 292.0162,78.1384 L292.454,77.9564 C292.4624,77.9768 292.4708,77.9972 292.4792,78.0174 Z M158.69328,77.3006 C158.65014,77.4412 158.6072,77.5816 158.56476,77.7224 C158.53048,77.8362 158.4877,77.9798 158.4877,77.9798 L158.03332,77.8448 C158.1443,77.4712 158.24016,77.1616 158.24016,77.1616 C158.3912,77.2078 158.54224,77.2542 158.69328,77.3006 Z M291.9262,76.716 C292.0314,76.9582 292.1772,77.2986 292.1772,77.2986 L291.741,77.4842 C291.674,77.3268 291.6062,77.1696 291.5382,77.0126 C291.5122,76.9526 291.4862,76.8928 291.46,76.8328 L291.8942,76.643 C291.905,76.6674 291.9156,76.6918 291.9262,76.716 Z M159.12548,75.9498 C159.08238,76.08 159.03954,76.2104 158.9971,76.341 C158.95322,76.4766 158.90576,76.6244 158.90576,76.6244 L158.45436,76.4798 C158.56678,76.1288 158.67544,75.801 158.67544,75.801 C158.82546,75.8506 158.97548,75.9002 159.12548,75.9498 Z M291.3524,75.4304 C291.457,75.66 291.6056,75.9902 291.6056,75.9902 L291.173,76.1838 C291.1056,76.0334 291.0376,75.8832 290.9696,75.7332 C290.9398,75.668 290.91,75.6026 290.88,75.5374 L291.311,75.34 C291.3248,75.3702 291.3386,75.4002 291.3524,75.4304 Z M159.5862,74.6084 C159.461,74.961 159.35224,75.278 159.35224,75.278 L158.90394,75.124 C159.00148,74.8398 159.1395,74.4498 159.1395,74.4498 C159.2884,74.5026 159.4373,74.5554 159.5862,74.6084 Z M290.7074,74.055 C290.8302,74.3108 291.0104,74.6924 291.0104,74.6924 L290.5812,74.8936 C290.5148,74.752 290.4478,74.6108 290.3804,74.4696 C290.3382,74.3812 290.2768,74.2532 290.2768,74.2532 C290.2768,74.2532 290.6832,74.0048 290.7074,74.055 Z M160.07582,73.2772 C159.94162,73.6302 159.82734,73.9416 159.82734,73.9416 L159.38252,73.7778 C159.4864,73.4956 159.63274,73.1088 159.63274,73.1088 C159.78044,73.165 159.92812,73.2212 160.07582,73.2772 Z M290.091,72.8022 C290.2564,73.1318 290.3914,73.4054 290.3914,73.4054 L289.9662,73.615 C289.9014,73.4838 289.8364,73.3528 289.7712,73.2218 C289.7186,73.1168 289.6498,72.98 289.6498,72.98 L290.073,72.7664 C290.079,72.7784 290.085,72.7904 290.091,72.8022 Z M160.59458,71.9572 C160.54382,72.0826 160.49338,72.2078 160.44328,72.3334 C160.38758,72.4736 160.33146,72.616 160.33146,72.616 L159.89042,72.4424 C159.97764,72.2208 160.06588,71.9998 160.15528,71.7792 C160.30172,71.8386 160.44814,71.898 160.59458,71.9572 Z M289.4544,71.5654 C289.5786,71.802 289.7488,72.1304 289.7488,72.1304 L289.3274,72.3478 C289.2482,72.1942 289.1684,72.041 289.0884,71.8878 C289.0588,71.8314 289.0292,71.775 288.9994,71.7186 L289.4186,71.4974 C289.4306,71.5202 289.4426,71.5428 289.4544,71.5654 Z M161.1426,70.6498 C161.08586,70.7806 161.02998,70.9116 160.97414,71.0428 C160.9224,71.165 160.86494,71.302 160.86494,71.302 L160.42782,71.1186 C160.53852,70.8546 160.70774,70.4612 160.70774,70.4612 C160.8527,70.524 160.99764,70.5868 161.1426,70.6498 Z M288.7424,70.2438 C288.8816,70.4966 289.0826,70.8676 289.0826,70.8676 L288.6654,71.0924 C288.59,70.9526 288.514,70.813 288.4376,70.6736 C288.3926,70.5912 288.3258,70.4698 288.3258,70.4698 C288.3258,70.4698 288.7254,70.213 288.7424,70.2438 Z M161.72056,69.3546 C161.65626,69.4944 161.59252,69.6346 161.52906,69.7748 C161.48524,69.8722 161.42796,70.0004 161.42796,70.0004 L160.99504,69.8072 C161.11502,69.5382 161.2899,69.1564 161.2899,69.1564 C161.43346,69.2224 161.57702,69.2884 161.72056,69.3546 Z M288.0648,69.041 C288.2444,69.3538 288.3928,69.617 288.3928,69.617 L287.9802,69.8502 C287.8074,69.5442 287.6286,69.2336 287.6286,69.2336 L288.0394,68.997 C288.0478,69.0116 288.0562,69.0264 288.0648,69.041 Z M162.3282,68.0732 C162.26956,68.1934 162.21128,68.3138 162.15322,68.4342 C162.08508,68.5764 162.02054,68.7124 162.02054,68.7124 L161.59238,68.509 C161.6945,68.294 161.7978,68.0794 161.90216,67.8654 C162.04418,67.9348 162.18618,68.004 162.3282,68.0732 Z M287.3676,67.8546 C287.4978,68.0718 287.68,68.3802 287.68,68.3802 L287.2714,68.6204 C287.188,68.4788 287.104,68.3374 287.0196,68.1962 C286.9826,68.1344 286.9456,68.0726 286.9084,68.0108 L287.3146,67.7666 C287.3324,67.796 287.35,67.8254 287.3676,67.8546 Z M162.96564,66.807 C162.89562,66.942 162.82632,67.0774 162.75714,67.213 C162.7065,67.3128 162.64324,67.4382 162.64324,67.4382 L162.2197,67.2254 C162.35214,66.9618 162.54484,66.5888 162.54484,66.5888 C162.6851,66.6616 162.82538,66.7342 162.96564,66.807 Z M286.5908,66.5886 C286.7874,66.9024 286.9436,67.1566 286.9436,67.1566 L286.5398,67.4048 C286.4634,67.2806 286.3866,67.1566 286.3096,67.0326 C286.246,66.9308 286.1652,66.8022 286.1652,66.8022 L286.5668,66.55 C286.5748,66.563 286.5828,66.5758 286.5908,66.5886 Z M285.8542,65.4374 C285.9918,65.6484 286.1842,65.9474 286.1842,65.9474 L285.785,66.203 C285.697,66.0654 285.608,65.9282 285.519,65.7912 C285.4792,65.73 285.4392,65.6688 285.3992,65.6076 L285.7958,65.3482 C285.8152,65.378 285.8348,65.4076 285.8542,65.4374 Z M163.633,65.5564 C163.56592,65.6782 163.49968,65.8004 163.43348,65.9228 C163.36496,66.0498 163.29566,66.1796 163.29566,66.1796 L162.8775,65.9564 C163.01252,65.7034 163.21776,65.3278 163.21776,65.3278 C163.35616,65.404 163.49458,65.4802 163.633,65.5564 Z M285.035,64.2096 C285.193,64.4418 285.4016,64.7526 285.4016,64.7526 L285.0078,65.0162 C284.9078,64.8672 284.8074,64.7184 284.7068,64.5698 C284.6746,64.5226 284.6426,64.4754 284.6104,64.4284 L285.0018,64.161 C285.013,64.1772 285.024,64.1934 285.035,64.2096 Z M164.33062,64.3218 C164.26552,64.4338 164.20084,64.5462 164.1363,64.6586 C164.07162,64.772 163.97816,64.9368 163.97816,64.9368 L163.5654,64.7038 C163.6825,64.4964 163.80108,64.2898 163.92072,64.0838 C164.05736,64.163 164.19398,64.2424 164.33062,64.3218 Z M284.1944,63.0022 C284.359,63.2342 284.5964,63.5734 284.5964,63.5734 L284.2076,63.8444 C284.118,63.716 284.028,63.588 283.9378,63.4602 C283.8804,63.379 283.7992,63.2644 283.7992,63.2644 C283.7992,63.2644 284.1488,62.9384 284.1944,63.0022 Z M165.05786,63.1048 C164.97554,63.239 164.89382,63.3734 164.81248,63.508 C164.76,63.595 164.69054,63.7112 164.69054,63.7112 L164.2836,63.468 C164.4372,63.2108 164.65398,62.8568 164.65398,62.8568 C164.7886,62.9396 164.92324,63.0222 165.05786,63.1048 Z M283.3992,61.9058 C283.5554,62.1174 283.7684,62.4098 283.7684,62.4098 L283.385,62.6882 C283.2852,62.5512 283.185,62.4144 283.0846,62.2778 C283.0448,62.2238 283.005,62.17 282.9652,62.1162 L283.3462,61.8342 C283.3638,61.858 283.3816,61.882 283.3992,61.9058 Z M165.81486,61.9064 C165.73126,62.0352 165.6483,62.1644 165.56564,62.2938 C165.5061,62.3872 165.43268,62.5034 165.43268,62.5034 L165.03192,62.2502 C165.19096,61.9984 165.4173,61.6484 165.4173,61.6484 C165.54982,61.7344 165.68234,61.8204 165.81486,61.9064 Z M282.5178,60.7382 C282.6924,60.9648 282.918,61.2622 282.918,61.2622 L282.5402,61.5486 C282.4532,61.4338 282.366,61.319 282.2784,61.2046 C282.202,61.1048 282.1094,60.9848 282.1094,60.9848 L282.4844,60.695 C282.4956,60.7094 282.5068,60.7238 282.5178,60.7382 Z M166.60138,60.7272 C166.53426,60.825 166.46756,60.9232 166.40104,61.0214 C166.316,61.1476 166.20448,61.3144 166.20448,61.3144 L165.81018,61.0512 C165.97556,60.8034 166.21046,60.4592 166.21046,60.4592 C166.34076,60.5484 166.47108,60.6378 166.60138,60.7272 Z M281.6156,59.5914 C281.7912,59.8104 282.0456,60.132 282.0456,60.132 L281.673,60.425 C281.5776,60.3036 281.4814,60.1828 281.3852,60.062 C281.3206,59.9812 281.2314,59.87 281.2314,59.87 C281.2314,59.87 281.555,59.516 281.6156,59.5914 Z M167.41726,59.5678 C167.3272,59.6926 167.23766,59.8176 167.14854,59.9428 C167.0843,60.0334 167.00572,60.1448 167.00572,60.1448 L166.61802,59.8722 C166.79,59.6276 167.03306,59.2902 167.03306,59.2902 C167.16114,59.3828 167.2892,59.4754 167.41726,59.5678 Z M280.7646,58.5516 C280.9264,58.7458 281.151,59.0188 281.151,59.0188 L280.7844,59.3192 C280.6806,59.1926 280.5762,59.0666 280.4718,58.9406 C280.4252,58.8846 280.3784,58.8286 280.3318,58.7728 L280.6956,58.4688 C280.7186,58.4964 280.7416,58.524 280.7646,58.5516 Z M168.26198,58.4294 C168.1667,58.5546 168.07192,58.6802 167.97756,58.8062 C167.91556,58.889 167.836,58.996 167.836,58.996 L167.4554,58.7136 C167.59738,58.5222 167.74054,58.332 167.88482,58.1424 C168.01054,58.238 168.13626,58.3338 168.26198,58.4294 Z M279.8234,57.4456 C279.9984,57.6474 280.2346,57.9234 280.2346,57.9234 L279.874,58.231 C279.7626,58.1002 279.6506,57.9702 279.5382,57.8402 C279.4958,57.7914 279.4534,57.7424 279.4108,57.6936 L279.7684,57.3824 C279.7868,57.4034 279.805,57.4246 279.8234,57.4456 Z M169.13526,57.3128 C168.95462,57.5382 168.69506,57.8686 168.69506,57.8686 L168.32164,57.5766 C168.46836,57.3888 168.61642,57.2022 168.76542,57.0164 C168.8887,57.1152 169.01198,57.214 169.13526,57.3128 Z M278.8624,56.3614 C279.1032,56.6282 279.2966,56.846 279.2966,56.846 L278.9424,57.161 C278.8482,57.055 278.7538,56.9492 278.659,56.8438 C278.5708,56.7458 278.4686,56.633 278.4686,56.633 L278.8198,56.3146 C278.834,56.3302 278.8482,56.3458 278.8624,56.3614 Z M170.03636,56.2192 C169.94806,56.3234 169.8604,56.4282 169.77282,56.5332 C169.67278,56.6536 169.58214,56.7634 169.58214,56.7634 L169.21664,56.4616 C169.40068,56.2386 169.6746,55.9128 169.6746,55.9128 C169.79518,56.015 169.91576,56.117 170.03636,56.2192 Z M277.8816,55.299 C278.0652,55.4944 278.338,55.788 278.338,55.788 L277.9896,56.1094 C277.8894,56.0008 277.7886,55.8928 277.6878,55.785 C277.6072,55.699 277.5056,55.5912 277.5056,55.5912 L277.8504,55.2658 C277.8608,55.2768 277.8712,55.288 277.8816,55.299 Z M170.96514,55.1484 C170.86844,55.257 170.77238,55.366 170.67652,55.4752 C170.58906,55.5752 170.4974,55.6808 170.4974,55.6808 L170.13944,55.37 C170.33304,55.147 170.61128,54.833 170.61128,54.833 C170.72924,54.9382 170.8472,55.0434 170.96514,55.1484 Z M276.8816,54.2584 C277.076,54.4568 277.3578,54.7488 277.3578,54.7488 L277.0162,55.0774 C276.9102,54.9674 276.8038,54.8576 276.6972,54.748 C276.6228,54.6718 276.522,54.5688 276.522,54.5688 L276.86,54.2366 C276.8672,54.244 276.8744,54.2512 276.8816,54.2584 Z M171.92098,54.1016 C171.83738,54.1908 171.75412,54.2804 171.67108,54.3702 C171.57204,54.4774 171.43986,54.6218 171.43986,54.6218 L171.0897,54.3024 C171.2503,54.1264 171.41214,53.9514 171.57504,53.7776 C171.69034,53.8856 171.80566,53.9936 171.92098,54.1016 Z M275.8626,53.2404 C276.0668,53.4406 276.3574,53.7296 276.3574,53.7296 L276.0224,54.065 C275.9114,53.954 275.7998,53.8434 275.688,53.7332 C275.6172,53.6636 275.518,53.5664 275.518,53.5664 C275.518,53.5664 275.8016,53.1806 275.8626,53.2404 Z M172.90292,53.0794 C172.80934,53.1744 172.71628,53.2698 172.6233,53.3652 C172.53524,53.456 172.4088,53.5874 172.4088,53.5874 L172.0669,53.259 C172.26586,53.0518 172.56546,52.7466 172.56546,52.7466 C172.67794,52.8576 172.79044,52.9686 172.90292,53.0794 Z M274.825,52.2446 C275.0378,52.4448 275.3368,52.7306 275.3368,52.7306 L275.0084,53.0726 C274.8928,52.9616 274.7766,52.851 274.66,52.7406 C274.5922,52.6766 274.4942,52.5842 274.4942,52.5842 C274.4942,52.5842 274.7842,52.2064 274.825,52.2446 Z M173.91062,52.0824 C173.80624,52.1832 173.70234,52.2844 173.59866,52.3858 C173.50266,52.48 173.40352,52.578 173.40352,52.578 L173.07044,52.2406 C173.2804,52.0332 173.58156,51.7414 173.58156,51.7414 C173.69124,51.855 173.80094,51.9688 173.91062,52.0824 Z M273.769,51.2716 C273.9892,51.4708 274.296,51.7522 274.296,51.7522 L273.9748,52.101 C273.855,51.9904 273.7346,51.8804 273.6138,51.7708 C273.5486,51.7116 273.451,51.623 273.451,51.623 C273.451,51.623 273.7548,51.2588 273.769,51.2716 Z M174.9432,51.1112 C174.8272,51.2176 174.7118,51.3246 174.5966,51.4318 C174.52016,51.5032 174.42384,51.5936 174.42384,51.5936 L174.09906,51.2484 C174.27258,51.0852 174.4472,50.923 174.62274,50.762 C174.72956,50.8784 174.8364,50.9948 174.9432,51.1112 Z M272.7782,50.3938 C272.9712,50.5618 273.2358,50.7952 273.2358,50.7952 L272.9218,51.1504 C272.7982,51.041 272.674,50.932 272.5498,50.8234 C272.496,50.7766 272.442,50.7298 272.388,50.683 L272.6986,50.3248 C272.7252,50.3478 272.7516,50.3708 272.7782,50.3938 Z M175.9998,50.1664 C175.8964,50.2564 175.7934,50.347 175.6908,50.4378 C175.6014,50.517 175.4686,50.6354 175.4686,50.6354 L175.1524,50.2822 C175.3686,50.0886 175.6882,49.809 175.6882,49.809 C175.792,49.9282 175.896,50.0472 175.9998,50.1664 Z M271.6876,49.465 C271.886,49.6308 272.1566,49.8598 272.1566,49.8598 L271.8498,50.2212 C271.7228,50.1134 271.5954,50.0062 271.4678,49.8992 C271.4142,49.8544 271.3604,49.8094 271.3066,49.7646 L271.61,49.4004 C271.6358,49.422 271.6616,49.4436 271.6876,49.465 Z M177.0796,49.248 C176.9642,49.3436 176.8494,49.44 176.7346,49.5364 C176.641,49.6154 176.5368,49.704 176.5368,49.704 L176.2298,49.3426 C176.4572,49.1496 176.7772,48.8832 176.7772,48.8832 C176.878,49.0048 176.9788,49.1264 177.0796,49.248 Z M270.5794,48.5596 C270.7826,48.7222 271.0586,48.9464 271.0586,48.9464 L270.759,49.3138 C270.6292,49.2082 270.499,49.103 270.3686,48.998 C270.3146,48.9548 270.2608,48.9116 270.2068,48.8686 L270.5026,48.4982 C270.5282,48.5188 270.5538,48.5392 270.5794,48.5596 Z M178.182,48.3566 C178.0802,48.437 177.9786,48.5178 177.8772,48.5986 C177.7732,48.682 177.6282,48.7988 177.6282,48.7988 L177.33,48.4304 C177.5152,48.2806 177.7014,48.132 177.8886,47.9844 C177.9864,48.1086 178.0842,48.2326 178.182,48.3566 Z M269.4542,47.6778 C269.6612,47.8368 269.942,48.0556 269.942,48.0556 L269.6502,48.4292 C269.5178,48.3258 269.3852,48.2228 269.2522,48.1204 C269.1978,48.0786 269.1434,48.0368 269.089,47.995 L269.3772,47.6188 C269.4028,47.6384 269.4286,47.658 269.4542,47.6778 Z M179.3058,47.4928 C179.192,47.578 179.0788,47.6636 178.9656,47.7496 C178.8526,47.8358 178.7412,47.9214 178.7412,47.9214 L178.4526,47.5452 C178.6854,47.3666 179.0218,47.1132 179.0218,47.1132 C179.1164,47.2398 179.2112,47.3662 179.3058,47.4928 Z M268.312,46.8196 C268.5222,46.9746 268.8076,47.1876 268.8076,47.1876 L268.5236,47.567 C268.389,47.4662 268.2542,47.366 268.119,47.2662 C268.0638,47.2256 268.0088,47.185 267.9536,47.1446 L268.2342,46.7624 C268.26,46.7816 268.286,46.8006 268.312,46.8196 Z M180.4508,46.6562 C180.3252,46.7456 180.2,46.8356 180.075,46.926 C179.9844,46.9918 179.8758,47.071 179.8758,47.071 L179.5962,46.6882 C179.7884,46.5478 179.9816,46.4086 180.1754,46.2702 C180.2672,46.3988 180.359,46.5274 180.4508,46.6562 Z M267.153,45.9856 C267.3664,46.136 267.6558,46.343 267.6558,46.343 L267.3796,46.7282 C267.2432,46.6304 267.1064,46.533 266.9692,46.436 C266.9132,46.3964 266.8572,46.3568 266.801,46.3174 L267.0736,45.9296 C267.1002,45.9482 267.1266,45.9668 267.153,45.9856 Z M181.615,45.8476 C181.478,45.9402 181.3416,46.0336 181.2052,46.1274 C181.1326,46.1776 181.0306,46.2484 181.0306,46.2484 L180.76,45.859 C180.9952,45.6956 181.3496,45.4548 181.3496,45.4548 C181.438,45.5858 181.5266,45.7166 181.615,45.8476 Z M265.978,45.1756 C266.1936,45.3214 266.487,45.5222 266.487,45.5222 L266.2186,45.9128 C266.0804,45.818 265.942,45.7236 265.8032,45.6296 C265.7462,45.591 265.689,45.5524 265.6318,45.514 L265.8964,45.1208 C265.9236,45.139 265.9508,45.1574 265.978,45.1756 Z M182.7984,45.0668 C182.6782,45.1438 182.5584,45.2218 182.4388,45.2998 C182.3222,45.3762 182.2046,45.4536 182.2046,45.4536 L181.9436,45.0578 C182.1886,44.8964 182.5424,44.6678 182.5424,44.6678 C182.6278,44.8008 182.7132,44.9338 182.7984,45.0668 Z M264.7866,44.3902 C265.0046,44.5308 265.3016,44.7254 265.3016,44.7254 L265.0412,45.1214 C264.9016,45.0296 264.7616,44.9386 264.6214,44.8476 C264.563,44.81 264.5046,44.7724 264.4464,44.7348 L264.703,44.3362 C264.7308,44.3542 264.7588,44.3722 264.7866,44.3902 Z M184.0002,44.3136 C183.8702,44.393 183.7404,44.473 183.6108,44.5534 C183.5126,44.6146 183.3972,44.6866 183.3972,44.6866 L183.1456,44.285 C183.3988,44.1264 183.753,43.9092 183.753,43.9092 C183.8354,44.044 183.9178,44.1788 184.0002,44.3136 Z M263.5796,43.6292 C263.7998,43.7652 264.1,43.953 264.1,43.953 L263.8478,44.3544 C263.7068,44.2658 263.5654,44.1778 263.4238,44.09 C263.3642,44.0534 263.3048,44.0166 263.2452,43.98 L263.4936,43.5762 C263.5222,43.594 263.551,43.6116 263.5796,43.6292 Z M185.219,43.5886 C185.08,43.6692 184.9412,43.7504 184.8026,43.832 C184.7196,43.881 184.6074,43.9476 184.6074,43.9476 L184.365,43.5404 C184.5696,43.4186 184.775,43.2982 184.981,43.1786 C185.0604,43.3152 185.1396,43.452 185.219,43.5886 Z M262.3572,42.8932 C262.5796,43.0242 262.8828,43.2056 262.8828,43.2056 L262.639,43.612 C262.4966,43.5266 262.3538,43.4416 262.2108,43.3572 C262.1502,43.3214 262.0894,43.2858 262.0288,43.25 L262.2688,42.8414 C262.2982,42.8586 262.3278,42.876 262.3572,42.8932 Z M186.4536,42.8916 C186.3066,42.9724 186.16,43.054 186.0138,43.1358 C185.9408,43.1768 185.8344,43.2366 185.8344,43.2366 L185.6012,42.824 C185.8508,42.6828 186.2256,42.4762 186.2256,42.4762 C186.3016,42.6146 186.3776,42.7532 186.4536,42.8916 Z M261.1196,42.1824 C261.3438,42.3082 261.6506,42.4832 261.6506,42.4832 L261.4152,42.8946 C261.2714,42.8124 261.1272,42.7306 260.983,42.6492 C260.9212,42.6146 260.8594,42.5798 260.7976,42.5452 L261.0292,42.1318 C261.0594,42.1486 261.0896,42.1654 261.1196,42.1824 Z M187.7042,42.2224 C187.58,42.287 187.4562,42.3522 187.3324,42.4176 C187.203,42.4862 187.077,42.5536 187.077,42.5536 L186.8536,42.1356 C187.1094,41.9986 187.4852,41.802 187.4852,41.802 C187.5582,41.9422 187.6312,42.0822 187.7042,42.2224 Z M259.8674,41.4968 C260.0938,41.618 260.4038,41.7864 260.4038,41.7864 L260.1768,42.2026 C260.0316,42.1232 259.886,42.0446 259.7402,41.9664 C259.6776,41.9328 259.615,41.8994 259.5522,41.866 L259.7752,41.4476 C259.806,41.464 259.8366,41.4804 259.8674,41.4968 Z M188.969,41.5808 C188.84,41.6444 188.7114,41.7086 188.5828,41.773 C188.4614,41.834 188.3348,41.8982 188.3348,41.8982 L188.1204,41.4754 C188.3814,41.343 188.7594,41.1558 188.7594,41.1558 C188.8292,41.2974 188.8992,41.4392 188.969,41.5808 Z M258.6004,40.8368 C258.8294,40.9532 259.143,41.1154 259.143,41.1154 L258.9246,41.536 C258.7776,41.4598 258.6304,41.3842 258.483,41.3088 C258.4198,41.2766 258.3564,41.2444 258.2932,41.2124 L258.5076,40.7896 C258.5386,40.8054 258.5694,40.821 258.6004,40.8368 Z M190.2476,40.967 C190.1154,41.0286 189.9834,41.091 189.8514,41.1536 C189.7342,41.2094 189.6068,41.2704 189.6068,41.2704 L189.4016,40.8432 C189.6664,40.716 190.0472,40.5374 190.0472,40.5374 C190.114,40.6806 190.1808,40.8238 190.2476,40.967 Z M257.3192,40.2024 C257.551,40.3144 257.8684,40.4704 257.8684,40.4704 L257.6588,40.8954 C257.51,40.822 257.3608,40.7492 257.2116,40.6768 C257.148,40.6462 257.0844,40.6154 257.021,40.5848 L257.2266,40.1578 C257.2574,40.1726 257.2882,40.1876 257.3192,40.2024 Z M191.539,40.3804 C191.4052,40.4394 191.2716,40.499 191.1382,40.559 C191.0206,40.6118 190.8918,40.6702 190.8918,40.6702 L190.696,40.2386 C190.9634,40.1172 191.3478,39.9466 191.3478,39.9466 C191.4116,40.0912 191.4754,40.2358 191.539,40.3804 Z M256.024,39.594 C256.2594,39.7018 256.581,39.8516 256.581,39.8516 L256.3802,40.281 C256.2292,40.2104 256.0778,40.1404 255.9264,40.0706 C255.863,40.0416 255.7996,40.0126 255.736,39.9836 L255.9328,39.5524 C255.9632,39.5662 255.9936,39.58 256.024,39.594 Z M192.8426,39.821 C192.7092,39.8766 192.5758,39.9328 192.4426,39.9892 C192.3206,40.0412 192.1894,40.0972 192.1894,40.0972 L192.0028,39.6616 C192.2712,39.5466 192.6604,39.3834 192.6604,39.3834 C192.7212,39.5292 192.782,39.675 192.8426,39.821 Z M254.7152,39.0118 C254.955,39.1156 255.2812,39.2596 255.2812,39.2596 L255.0892,39.693 C254.9356,39.625 254.7816,39.5574 254.6276,39.4904 C254.5648,39.4632 254.502,39.436 254.4392,39.4088 L254.627,38.9736 C254.6564,38.9864 254.6858,38.999 254.7152,39.0118 Z M194.1576,39.2884 C193.8202,39.421 193.4988,39.5514 193.4988,39.5514 L193.321,39.112 C193.589,39.0036 193.9844,38.8472 193.9844,38.8472 C194.042,38.9944 194.0998,39.1414 194.1576,39.2884 Z M253.393,38.456 C253.6376,38.556 253.9694,38.6944 253.9694,38.6944 L253.7864,39.1316 C253.6296,39.066 253.4726,39.001 253.3154,38.9364 C253.2538,38.9112 253.1922,38.886 253.1306,38.8608 L253.3094,38.4218 C253.3374,38.4332 253.3652,38.4446 253.393,38.456 Z M195.4832,38.7826 C195.206,38.8852 195.0074,38.9606 195.0074,38.9606 L194.8188,39.0322 L194.6504,38.5892 C194.8728,38.5046 195.0954,38.4206 195.3186,38.338 C195.3734,38.4862 195.4284,38.6344 195.4832,38.7826 Z M252.0578,37.9268 C252.3088,38.0234 252.6464,38.156 252.6464,38.156 L252.4724,38.597 C252.312,38.5338 252.1512,38.471 251.9902,38.4086 C251.9306,38.3856 251.8708,38.3628 251.8112,38.3398 L251.981,37.8972 C252.0066,37.907 252.0322,37.917 252.0578,37.9268 Z M196.8184,38.303 C196.7312,38.3334 196.644,38.364 196.5568,38.3946 C196.3898,38.4538 196.1498,38.5394 196.1498,38.5394 L195.9892,38.0934 C196.2132,38.0128 196.4378,37.9334 196.6628,37.8552 C196.7146,38.0046 196.7664,38.1538 196.8184,38.303 Z M250.7098,37.4244 C251.0398,37.5438 251.3126,37.645 251.3126,37.645 L251.1478,38.0894 C250.809,37.9638 250.4814,37.8458 250.4814,37.8458 L250.642,37.4 C250.6646,37.408 250.6872,37.4162 250.7098,37.4244 Z M198.1628,37.8494 C198.0852,37.8746 198.0078,37.9002 197.9302,37.9258 C197.7442,37.9876 197.4898,38.073 197.4898,38.073 L197.338,37.6238 C197.617,37.5296 198.016,37.3988 198.016,37.3988 C198.0648,37.549 198.1138,37.6992 198.1628,37.8494 Z M199.5162,37.4214 C199.0686,37.559 198.8384,37.6322 198.8384,37.6322 L198.6954,37.1804 C198.9222,37.1086 199.1494,37.0382 199.3768,36.9682 C199.4234,37.1192 199.4698,37.2704 199.5162,37.4214 Z M249.3494,36.949 C249.6964,37.0666 249.9686,37.1614 249.9686,37.1614 L249.813,37.6092 C249.6776,37.562 249.542,37.5154 249.4064,37.469 C249.2848,37.4276 249.1418,37.3792 249.1418,37.3792 L249.2932,36.93 C249.3118,36.9364 249.3306,36.9428 249.3494,36.949 Z M200.8768,37.0188 C200.5722,37.1062 200.322,37.1796 200.322,37.1796 L200.1952,37.217 L200.061,36.7624 C200.2892,36.695 200.5176,36.6288 200.7462,36.5632 C200.7898,36.715 200.8334,36.867 200.8768,37.0188 Z M247.9768,36.501 C248.2334,36.582 248.6154,36.7056 248.6154,36.7056 L248.4682,37.156 C248.3272,37.11 248.186,37.0648 248.0448,37.0198 C247.9336,36.9844 247.7928,36.94 247.7928,36.94 L247.935,36.4878 C247.9488,36.4922 247.9628,36.4966 247.9768,36.501 Z M202.2448,36.6412 C201.9494,36.7198 201.7384,36.7778 201.7384,36.7778 L201.5596,36.827 L201.434,36.37 C201.6632,36.3068 201.8928,36.2444 202.1228,36.1832 C202.1634,36.3358 202.204,36.4886 202.2448,36.6412 Z M246.5924,36.0804 C246.8618,36.1596 247.2526,36.2772 247.2526,36.2772 L247.115,36.7306 C246.9674,36.6858 246.8194,36.6418 246.6716,36.5978 C246.572,36.5684 246.4354,36.5284 246.4354,36.5284 C246.4354,36.5284 246.4946,36.0518 246.5924,36.0804 Z M203.6192,36.2882 C203.232,36.3836 202.9314,36.4616 202.9314,36.4616 L202.8132,36.0026 C203.0986,35.929 203.5056,35.828 203.5056,35.828 C203.5436,35.9814 203.5814,36.1348 203.6192,36.2882 Z M245.1964,35.6876 C245.4798,35.7644 245.8816,35.8766 245.8816,35.8766 L245.7532,36.3328 C245.5978,36.289 245.4424,36.246 245.2866,36.2034 C245.1992,36.1794 245.0698,36.1442 245.0698,36.1442 C245.0698,36.1442 245.1626,35.6784 245.1964,35.6876 Z M205.0004,35.9592 C204.4868,36.0774 204.309,36.1208 204.309,36.1208 L204.1992,35.6596 C204.4306,35.6046 204.6622,35.5506 204.894,35.4972 C204.9294,35.6512 204.9648,35.8052 205.0004,35.9592 Z M243.8976,35.3496 C244.1532,35.4138 244.5028,35.5038 244.5028,35.5038 L244.3838,35.9626 C244.2196,35.92 244.055,35.878 243.8904,35.8366 C243.8258,35.8202 243.761,35.804 243.6962,35.788 L243.8108,35.328 C243.8398,35.3352 243.8686,35.3424 243.8976,35.3496 Z M206.3864,35.6542 C206.0842,35.718 205.8678,35.7654 205.8678,35.7654 L205.6924,35.8038 L205.591,35.3408 C205.8232,35.29 206.0558,35.2396 206.2884,35.1906 C206.321,35.345 206.3538,35.4996 206.3864,35.6542 Z M242.4802,35.0106 C242.8308,35.091 243.1166,35.159 243.1166,35.159 L243.0072,35.6202 C242.8688,35.5874 242.7304,35.5548 242.592,35.5228 C242.4652,35.4934 242.3162,35.4594 242.3162,35.4594 L242.4212,34.9972 C242.4408,35.0016 242.4606,35.0062 242.4802,35.0106 Z M207.7774,35.3726 C207.3654,35.452 207.0816,35.5106 207.0816,35.5106 L206.9872,35.046 C207.2704,34.9884 207.6878,34.9072 207.6878,34.9072 C207.7176,35.0624 207.7476,35.2176 207.7774,35.3726 Z M241.052,34.7 C241.324,34.7564 241.7242,34.8424 241.7242,34.8424 L241.6236,35.3056 C241.4742,35.273 241.3246,35.2414 241.175,35.2098 C241.0714,35.188 240.9298,35.1588 240.9298,35.1588 C240.9298,35.1588 240.949,34.6788 241.052,34.7 Z M209.1736,35.1142 C208.8548,35.1706 208.615,35.2146 208.615,35.2146 L208.475,35.2406 L208.3888,34.7744 C208.6228,34.7312 208.8568,34.6888 209.091,34.6474 C209.1186,34.803 209.146,34.9586 209.1736,35.1142 Z M239.7244,34.4386 C239.9754,34.4856 240.3254,34.5536 240.3254,34.5536 L240.2342,35.0188 C240.072,34.987 239.9098,34.956 239.7476,34.9252 C239.6774,34.912 239.6074,34.8988 239.5372,34.8858 L239.624,34.4198 C239.6576,34.426 239.691,34.4324 239.7244,34.4386 Z M210.5732,34.8784 C210.2868,34.924 209.8732,34.9934 209.8732,34.9934 L209.794,34.526 C210.0826,34.4772 210.4986,34.4102 210.4986,34.4102 C210.5236,34.5662 210.5484,34.7222 210.5732,34.8784 Z M211.9772,34.6648 C211.6532,34.7116 211.4094,34.7484 211.4094,34.7484 L211.2748,34.7688 L211.2036,34.3002 C211.4388,34.2644 211.674,34.2296 211.9094,34.1956 C211.932,34.352 211.9546,34.5084 211.9772,34.6648 Z M238.2766,34.183 C238.6276,34.2416 238.921,34.293 238.921,34.293 L238.8394,34.76 C238.7,34.7356 238.5604,34.7116 238.4208,34.6878 C238.2918,34.666 238.14,34.6408 238.14,34.6408 L238.2172,34.1732 C238.237,34.1764 238.2568,34.1798 238.2766,34.183 Z M213.3836,34.4732 C213.0942,34.51 212.6804,34.5662 212.6804,34.5662 L212.616,34.0966 C212.9026,34.0572 213.3238,34.003 213.3238,34.003 C213.3438,34.1596 213.3638,34.3164 213.3836,34.4732 Z M236.8188,33.9564 C237.1012,33.9976 237.5122,34.0604 237.5122,34.0604 L237.4394,34.5288 C237.2844,34.5046 237.1294,34.4814 236.9742,34.4582 C236.8768,34.444 236.738,34.4236 236.738,34.4236 C236.738,34.4236 236.7482,33.9462 236.8188,33.9564 Z M214.7936,34.303 C214.464,34.3402 214.0882,34.3854 214.0882,34.3854 L214.0318,33.9148 C214.3392,33.8778 214.7404,33.832 214.7404,33.832 C214.7582,33.989 214.7758,34.146 214.7936,34.303 Z M235.4648,33.7732 C235.733,33.8072 236.0986,33.8558 236.0986,33.8558 L236.0354,34.3254 C235.863,34.3024 235.6906,34.2798 235.518,34.2578 C235.456,34.2498 235.3938,34.242 235.3318,34.2342 L235.3906,33.764 C235.4152,33.767 235.44,33.77 235.4648,33.7732 Z M216.206,34.154 C215.9074,34.1836 215.4994,34.226 215.4994,34.226 L215.4496,33.7546 C215.7928,33.7182 216.1592,33.6824 216.1592,33.6824 C216.1748,33.8396 216.1904,33.9968 216.206,34.154 Z M233.989,33.603 C234.2688,33.6326 234.6816,33.679 234.6816,33.679 L234.6272,34.15 C234.4734,34.1322 234.3196,34.1152 234.1656,34.0984 C234.0644,34.0876 233.9224,34.0726 233.9224,34.0726 C233.9224,34.0726 233.9068,33.5944 233.989,33.603 Z M217.6198,34.026 C217.2602,34.0556 216.9124,34.0874 216.9124,34.0874 L216.87,33.6152 C217.1642,33.589 217.5808,33.5536 217.5808,33.5536 C217.5938,33.711 217.6068,33.8684 217.6198,34.026 Z M232.6188,33.472 C232.8908,33.4956 233.261,33.5302 233.261,33.5302 L233.2164,34.002 C233.0416,33.9856 232.8668,33.9696 232.692,33.9542 C232.6312,33.949 232.5704,33.9436 232.5098,33.9384 L232.55,33.4662 C232.573,33.4682 232.596,33.4702 232.6188,33.472 Z M219.036,33.9182 C218.711,33.9406 218.3276,33.9696 218.3276,33.9696 L218.2918,33.4968 C218.6032,33.4734 219.0034,33.4454 219.0034,33.4454 C219.0142,33.603 219.025,33.7606 219.036,33.9182 Z M231.1262,33.359 C231.4166,33.3782 231.8382,33.4092 231.8382,33.4092 L231.8024,33.8818 C231.643,33.8696 231.4834,33.8584 231.3238,33.8472 C231.2324,33.841 231.095,33.832 231.095,33.832 C231.1052,33.6742 230.9684,33.3488 231.1262,33.359 Z M220.4536,33.8306 C220.1524,33.8472 219.7446,33.872 219.7446,33.872 L219.7152,33.3988 C220.0524,33.3778 220.4274,33.3572 220.4274,33.3572 C220.436,33.515 220.4448,33.6728 220.4536,33.8306 Z M221.8722,33.7626 C221.582,33.7748 221.1628,33.7942 221.1628,33.7942 L221.1398,33.3208 C221.5062,33.3028 221.8524,33.289 221.8524,33.289 C221.859,33.4468 221.8656,33.6048 221.8722,33.7626 Z M229.7408,33.2812 C230.1098,33.2988 230.413,33.3156 230.413,33.3156 L230.3868,33.789 C230.2408,33.7808 230.0946,33.7732 229.9486,33.7658 C229.831,33.76 229.6782,33.7528 229.6782,33.7528 L229.7,33.2794 C229.7136,33.28 229.7272,33.2806 229.7408,33.2812 Z M223.2914,33.7142 C222.9386,33.7236 222.5814,33.736 222.5814,33.736 L222.5656,33.2622 C222.861,33.2524 223.2786,33.2404 223.2786,33.2404 C223.2828,33.3982 223.287,33.5562 223.2914,33.7142 Z M228.3486,33.2292 C228.6164,33.2368 228.9866,33.2498 228.9866,33.2498 L228.9694,33.7234 C228.7966,33.7172 228.6236,33.7116 228.4508,33.7064 C228.3872,33.7044 228.3238,33.7026 228.2602,33.701 L228.273,33.2272 C228.2982,33.2278 228.3234,33.2284 228.3486,33.2292 Z M224.7114,33.6846 C224.3784,33.6892 224.0014,33.697 224.0014,33.697 L223.9916,33.2232 C224.2944,33.217 224.7048,33.2108 224.7048,33.2108 C224.707,33.3688 224.7092,33.5266 224.7114,33.6846 Z M226.9496,33.203 C227.1998,33.2056 227.5592,33.2112 227.5592,33.2112 L227.5508,33.6852 C227.3876,33.6822 227.2244,33.6802 227.0612,33.6782 C226.988,33.6774 226.9146,33.6768 226.8414,33.6762 L226.8454,33.2022 C226.8802,33.2024 226.9148,33.2028 226.9496,33.203 Z M226.1318,33.674 C225.8134,33.6742 225.4216,33.677 225.4216,33.677 L225.418,33.203 C225.7322,33.2006 226.1314,33.2 226.1314,33.2 C226.1316,33.358 226.1316,33.516 226.1318,33.674 Z" id="Fill-1" fill="#DEEDF2"></path>
                    <polygon id="Blue-Road" fill="#DEEDF2" points="152.8182 232.75826 152.8182 222.8 83.2 222.8 83.2 232.75826 83.2 238.54026 321.21 238.54026 321.21 232.75826"></polygon>
                    <rect id="White-Rectangle" fill="#F5F9FB" x="0.8" y="238.4" width="320.4" height="63.4"></rect>
                </g>
            </g>
        </g>
    </g>
</svg>