<?xml version="1.0" encoding="UTF-8"?>
<svg width="57px" height="57px" viewBox="0 0 57 57" version="1.1" xmlns="http://www.w3.org/2000/svg" xmlns:xlink="http://www.w3.org/1999/xlink">
    <title>593B381D-A447-4DA5-BC34-088C801EF402</title>
    <defs>
        <path d="M13.1047993,4 L25.8952007,4 C29.819073,4 33,7.18092699 33,11.1047993 L33,23.8952007 C33,27.819073 29.819073,31 25.8952007,31 L13.1047993,31 C9.18092699,31 6,27.819073 6,23.8952007 L6,11.1047993 C6,7.18092699 9.18092699,4 13.1047993,4 Z" id="path-1"></path>
        <filter x="-53.6%" y="-49.9%" width="207.2%" height="207.2%" filterUnits="objectBoundingBox" id="filter-2">
            <feMorphology radius="0.470799973" operator="dilate" in="SourceAlpha" result="shadowSpreadOuter1"></feMorphology>
            <feOffset dx="0" dy="1" in="shadowSpreadOuter1" result="shadowOffsetOuter1"></feOffset>
            <feGaussianBlur stdDeviation="4.5" in="shadowOffsetOuter1" result="shadowBlurOuter1"></feGaussianBlur>
            <feComposite in="shadowBlurOuter1" in2="SourceAlpha" operator="out" result="shadowBlurOuter1"></feComposite>
            <feColorMatrix values="0 0 0 0 0   0 0 0 0 0   0 0 0 0 0  0 0 0 0.243935752 0" type="matrix" in="shadowBlurOuter1"></feColorMatrix>
        </filter>
    </defs>
    <g id="Gloval-Overview" stroke="none" stroke-width="1" fill="none" fill-rule="evenodd">
        <g id="ISM-Global-Overview" transform="translate(-975.000000, -198.000000)">
            <g id="card-copy" transform="translate(968.000000, 202.000000)">
                <g id="Group-6" transform="translate(16.000000, 6.000000)">
                    <g id="Rectangle" transform="translate(19.500000, 17.500000) rotate(15.000000) translate(-19.500000, -17.500000) ">
                        <use fill="black" fill-opacity="1" filter="url(#filter-2)" xlink:href="#path-1"></use>
                        <use stroke="#EFEFEF" stroke-width="0.941599946" fill="#FFFFFF" fill-rule="evenodd" xlink:href="#path-1"></use>
                    </g>
                    <path d="M7.36794001,6 L20.63206,6 C24.7012609,6 28,9.2987391 28,13.36794 L28,26.63206 C28,30.7012609 24.7012609,34 20.63206,34 L7.36794001,34 C3.2987391,34 -3.89845034e-16,30.7012609 0,26.63206 L0,13.36794 C-1.38651181e-15,9.2987391 3.2987391,6 7.36794001,6 Z" id="Rectangle-Copy" stroke="#CC0000" stroke-width="1.18518519" fill="#EC0000"></path>
                    <g id="Atoms/ico/normal-size/users-24" transform="translate(6.000000, 12.000000)" fill="#FFFFFF">
                        <path d="M8.09334457,7.63618954 C9.28234845,7.63618954 10.1168923,7.99730226 10.5618963,8.63195535 L10.6451923,8.76198198 L10.8560653,8.81540195 L11.1076533,8.86542007 L11.3737295,8.91069948 C11.4164428,8.91739939 11.4576298,8.92356303 11.4962253,8.92902099 L11.6881817,8.95194528 L11.7395446,8.95457136 L11.8049742,8.95355039 L11.9401468,8.94469405 L12.0951422,8.92522166 L12.2868463,8.89329698 L12.657347,8.8230664 C13.1273289,8.73375697 13.4444914,8.69336878 13.8107952,8.69336878 C15.0355998,8.69336878 15.875,9.47615272 15.875,10.6215527 C15.875,11.5916057 15.6608379,12.4392161 15.2395445,13.1560043 L15.1195161,13.3482422 L15.0568077,13.4377477 L15.3058107,13.4854192 C15.6220239,13.5519676 15.8222961,13.8484935 15.7520454,14.1467619 C15.6930791,14.4029857 15.453659,14.5833333 15.1806171,14.5833333 C15.1381521,14.5833333 15.0958258,14.5788795 15.0542278,14.5701247 C12.3896998,14.013944 10.1334007,13.755343 7.95351978,13.755343 C5.81436336,13.755343 3.58143259,14.0097188 0.92552862,14.5563565 C0.607206871,14.6223707 0.297834279,14.4331909 0.2270833,14.1316495 C0.159109415,13.8319762 0.359618014,13.5368575 0.675709312,13.4714435 L1.07161538,13.3963964 L1.00038164,13.295483 C0.43613169,12.4535514 0.189105085,11.4461663 0.136164838,10.228177 L0.127746335,9.96393929 L0.125,9.6931558 C0.125,8.47532429 1.29808209,7.63618954 2.93442476,7.63618954 C3.12644637,7.63618954 3.33455399,7.65539991 3.60739348,7.69438856 L4.18278613,7.78415505 L4.4456322,7.82854534 L4.70849703,7.88134811 L4.96512381,7.94125689 L5.18205306,7.99709259 L5.32444104,8.03030371 C5.34424791,8.03439815 5.36240897,8.03782435 5.37939885,8.04066053 L5.47108085,8.05122312 C5.48528448,8.05201209 5.49926616,8.05236746 5.51350053,8.05236746 L5.55896477,8.04996748 L5.68738486,8.03070342 L5.86912597,7.99201132 L6.36528765,7.87211142 C7.00103618,7.72757187 7.60445746,7.63618954 8.09334457,7.63618954 Z M13.8107952,9.80383545 C13.6636774,9.80383545 13.5296973,9.81216513 13.3741215,9.83176101 L13.1202193,9.86997154 L12.4071084,10.0018653 L12.2732714,10.0227848 C12.0815659,10.0506832 11.9098217,10.065038 11.7395446,10.065038 C11.6661628,10.065038 11.5691755,10.057644 11.4580977,10.0448345 L11.2199739,10.0125811 L10.8988077,9.95734234 L10.8981935,9.9970078 C10.8765736,10.9881046 10.7374568,11.8370541 10.4062373,12.5994994 L10.3358462,12.7500901 L10.5649011,12.7691566 C11.4429828,12.8463356 12.3558749,12.9634043 13.3165594,13.1216265 L13.7879231,13.2018919 L13.84472,13.144578 C14.3787105,12.5624399 14.6609535,11.8101682 14.6985494,10.847468 L14.7028858,10.6215527 C14.7028858,10.0164125 14.3236507,9.80383545 13.8107952,9.80383545 Z M8.09334457,8.74665621 C7.83159547,8.74665621 7.47511863,8.78720843 7.06629648,8.86327436 L6.85771951,8.90424347 L6.64115989,8.9510193 L6.12630357,9.07522821 L5.9143011,9.12051102 C5.75627855,9.15070458 5.63853056,9.16283413 5.51350053,9.16283413 C5.3572157,9.16283413 5.2102901,9.14441278 5.03792315,9.10728321 L4.90333394,9.07592375 L4.6654067,9.01537663 L4.44338016,8.96346234 L4.22347133,8.91896537 L3.50552081,8.80276233 C3.25620928,8.76555685 3.07375565,8.74665621 2.93442476,8.74665621 C1.93248175,8.74665621 1.29711418,9.13985481 1.29711418,9.6931558 C1.29711418,11.1963067 1.55418353,12.3117647 2.28745328,13.0938294 L2.35584615,13.1620721 L2.76135164,13.0941728 C4.4708543,12.8190941 6.02234971,12.6728391 7.50928316,12.6485206 L7.95351978,12.6448763 L8.3304612,12.64952 L8.7747496,12.6640441 L9.05242308,12.675045 L9.09733553,12.6067637 C9.52888653,11.8998277 9.70439984,11.0272844 9.72727139,9.94749181 L9.72988688,9.69461097 C9.72988688,9.09760774 9.16370554,8.74665621 8.09334457,8.74665621 Z M11.6369808,2.55307094 C12.3484367,2.55307094 13.0640399,2.85942903 13.510951,3.35680125 C13.8185284,3.69968677 13.9832808,4.11347437 13.9851263,4.54997829 L13.9796802,4.69625485 L13.7457378,6.69944251 C13.5796609,7.73095801 12.7307121,8.42411831 11.6369808,8.42411831 C10.6522511,8.42411831 9.85823189,7.85827358 9.59604648,6.98348033 L9.56075006,6.84997634 L9.53328708,6.70619782 L9.31422557,4.83018424 C9.2241929,4.30957633 9.38721223,3.77763286 9.76607127,3.35608763 C10.211796,2.85909985 10.9264972,2.55307094 11.6369808,2.55307094 Z M5.5122713,0.416666667 C6.39483925,0.416666667 7.28260321,0.796360991 7.83561302,1.41167888 C8.22305228,1.8431582 8.42479312,2.36490519 8.41574268,2.91167591 L8.40667872,3.07639259 L8.10120483,5.53066859 C7.89825627,6.79370539 6.8555852,7.64320264 5.5122713,7.64320264 C4.28548594,7.64320264 3.30237519,6.93141092 2.99331057,5.83612378 L2.95685573,5.69111239 L2.92779519,5.53657061 L2.64019694,3.21686962 C2.52950379,2.57587818 2.72752363,1.92749987 3.19204623,1.41017519 C3.74405834,0.795830586 4.63095567,0.416666667 5.5122713,0.416666667 Z M11.6369808,3.6635376 C11.2624532,3.6635376 10.8850022,3.82315052 10.6592299,4.07477194 C10.5512219,4.19534655 10.4816525,4.33266818 10.4661535,4.480468 L10.4634677,4.57035512 L10.4755402,4.67993363 L10.6949502,6.56166167 C10.7685266,7.01912632 11.134683,7.31365165 11.6369808,7.31365165 C12.0716489,7.31365165 12.4034615,7.09530723 12.5345017,6.74054176 L12.5630223,6.64905569 L12.5832986,6.55498466 L12.8005574,4.68932575 C12.8426505,4.44266713 12.768699,4.24388001 12.6179402,4.07637811 C12.3910918,3.82366699 12.0127378,3.6635376 11.6369808,3.6635376 Z M5.5122713,1.52713334 C4.96664727,1.52713334 4.41699302,1.76007212 4.08509548,2.12970893 C3.90584114,2.32985609 3.79472795,2.56189204 3.78349443,2.81981277 L3.78488767,2.9319175 L4.08851219,5.38842678 C4.20119893,6.08531677 4.75557833,6.53273597 5.5122713,6.53273597 C6.18536431,6.53273597 6.69877463,6.18026254 6.88503756,5.61000571 L6.91787857,5.49309047 L6.94044438,5.3820943 L7.22593641,3.07018286 C7.28968628,2.69725356 7.17458014,2.38941377 6.94360664,2.13151849 C6.60972738,1.76055581 6.05906769,1.52713334 5.5122713,1.52713334 Z" id="🌈-Color"></path>
                    </g>
                </g>
            </g>
        </g>
    </g>
</svg>