<?xml version="1.0" encoding="UTF-8"?>
<svg width="312px" height="168px" viewBox="0 0 312 168" version="1.1" xmlns="http://www.w3.org/2000/svg" xmlns:xlink="http://www.w3.org/1999/xlink">
    <title>3C39E4ED-921E-4DCA-9D0E-43CA317D943E</title>
    <g id="Empty-dashboard" stroke="none" stroke-width="1" fill="none" fill-rule="evenodd">
        <g id="Empleado_Empty-dashboard_01" transform="translate(-93.000000, -184.000000)">
            <g id="Group-11" transform="translate(93.000000, 184.000000)">
                <g id="Group-21">
                    <g id="svg">
                        <g id="g.-illustration/Backgrounds/Props/Cloud-01-Copy-2" transform="translate(128.000000, 101.000000) scale(-1, 1) translate(-128.000000, -101.000000) translate(0.000000, 34.000000)" fill="#DEEDF2">
                            <path d="M115.296829,49.237855 C118.714491,21.4858778 142.374076,0 171.049793,0 C202.07347,0 227.224515,25.1496783 227.224515,56.1747217 C227.224515,61.2646547 226.548007,66.1964626 225.27836,70.8848645 C225.755332,70.8911513 226.228204,70.9080981 226.698342,70.9355684 L227.227248,70.8919713 L227.227248,70.9706921 C243.317193,72.1795222 256,85.6196076 256,102.020609 C256,118.421611 243.317193,131.861696 227.227248,133.070526 L227.227248,133.16346 L22.7012679,133.16346 L22.7012679,133.160317 L22.7005846,133.160317 C10.1640125,133.160317 0,122.994938 0,110.456999 C0,97.9190604 10.1640125,87.7550479 22.7005846,87.7550479 L22.7012679,87.7550479 L22.7012679,87.7540912 L74.5188714,83.4819806 C74.2821621,81.9343502 74.1594341,80.3492726 74.1594341,78.7356314 C74.1594341,61.5386744 88.0995884,47.5971535 105.296545,47.5971535 C108.794704,47.5971535 112.158108,48.1740298 115.296829,49.237855 Z" id="Primary-color"></path>
                        </g>
                        <g id="g.-illustration/Backgrounds/Props/Flock" transform="translate(200.000000, 0.000000)" fill="#9BC3D3">
                            <path d="M48.2669636,82.2124129 C55.699033,80.8090323 63.0141541,88.7030479 68.8060225,95.8602886 C72.7033272,86.7032306 81.8603852,82.0954645 88.2311481,83.4199049 C89.4474113,83.6713439 89.5088092,86.3085298 88.2311481,86.4605627 C84.3660042,86.9225088 80.5651819,88.7644458 77.5946931,92.8167071 C75.0949215,96.228676 73.893277,99.1640803 71.8379092,103.090622 C71.2473199,104.219174 70.0573701,104.570019 69.203647,104.184089 C68.9785214,104.08176 68.750472,103.953116 68.5545835,103.754304 C68.3323816,103.532102 68.136493,103.248502 67.9610705,102.944437 C67.8441221,102.809946 67.7213263,102.748548 67.6102253,102.570202 C62.4118699,94.1177578 55.8832267,85.068877 48.2669636,84.928539 C47.1237932,84.908073 47.1881148,82.4170725 48.2669636,82.2124129 Z M93.1312852,55.8639433 C96.5549489,50.7299094 104.598074,48.148274 110.194054,48.8908962 C111.264131,49.0312343 111.316758,50.5106312 110.194054,50.5954188 C106.796703,50.8527052 103.460751,51.8906221 100.852802,54.1594206 C98.6541723,56.0744503 97.5987132,58.7057888 95.7918608,60.9073421 C95.2743642,61.5359396 94.2276762,61.7347518 93.4792066,61.5183973 C93.2833181,61.4628469 93.0815821,61.3897541 92.912007,61.2786532 C92.7131947,61.1529337 92.5436196,60.9921296 92.388663,60.8225545 C92.2863331,60.7494618 92.1752322,60.7143772 92.0816735,60.6120474 C87.5148393,55.8727144 81.7785214,52.7735824 75.0890741,52.6946422 C74.0862418,52.6829474 74.144716,51.288338 75.0890741,51.1713896 C81.6177173,50.381988 88.0440307,51.8526139 93.1312852,55.8639433 Z M1.16015681,6.47664312 C9.06001976,5.42995513 20.4157073,9.07582082 25.248599,16.3236966 C32.4321532,10.6604713 41.5044236,8.58463764 50.7199558,9.69564723 C52.0590147,9.85645125 52.1379549,11.8270314 50.7199558,11.8445737 C41.2763743,11.9556746 33.1776991,16.3353914 26.7309197,23.0277623 C26.5964291,23.1681004 26.4414725,23.2178035 26.295287,23.323057 C26.0789325,23.5657249 25.8391883,23.7879268 25.5614359,23.9662731 C25.318768,24.1212297 25.0351682,24.2235595 24.7574158,24.3054234 C23.699033,24.6124129 22.219636,24.3317368 21.4887087,23.4400054 C18.9421577,20.3291785 17.4510659,16.6160675 14.3490102,13.91456 C10.6651362,10.7101744 5.95504031,9.24831968 1.16015681,8.882856 C-0.424493719,8.76298391 -0.348477273,6.67545536 1.16015681,6.47664312 Z" id="Primary-color"></path>
                        </g>
                    </g>
                </g>
            </g>
        </g>
    </g>
</svg>