<?xml version="1.0" encoding="UTF-8"?>
<svg width="366px" height="167px" viewBox="0 0 366 167" version="1.1" xmlns="http://www.w3.org/2000/svg" xmlns:xlink="http://www.w3.org/1999/xlink">
    <title>09B6F60D-70EB-4A91-BB5F-4121F2B74B05</title>
    <g id="Empty-dashboard" stroke="none" stroke-width="1" fill="none" fill-rule="evenodd">
        <g id="Empleado_Empty-dashboard_01" transform="translate(-974.000000, -184.000000)">
            <g id="Group-11" transform="translate(93.000000, 184.000000)">
                <g id="Group-21">
                    <g id="svg" transform="translate(881.000000, 0.000000)">
                        <g id="g.-illustration/Backgrounds/Props/Cloud-01-Copy" fill="#DEEDF2">
                            <path d="M144.121037,61.5473187 C148.393113,26.8573472 177.967595,1.42108547e-14 213.812241,1.42108547e-14 C252.591837,1.42108547e-14 284.030644,31.4370979 284.030644,70.2184022 C284.030644,76.5808184 283.185009,82.7455783 281.59795,88.6060807 C282.194165,88.6139391 282.785255,88.6351227 283.372928,88.6694605 L284.03406,88.6149641 L284.03406,88.7133652 C304.146491,90.2244027 320,107.02451 320,127.525761 C320,148.027013 304.146491,164.82712 284.03406,166.338158 L284.03406,166.454326 L28.3765849,166.454326 L28.3765849,166.450396 L28.3757307,166.450396 C12.7050156,166.450396 0,153.743672 0,138.071249 C0,122.398826 12.7050156,109.69381 28.3757307,109.69381 L28.3765849,109.69381 L28.3765849,109.692614 L93.1485893,104.352476 C92.8527027,102.417938 92.6992926,100.436591 92.6992926,98.4195393 C92.6992926,76.923343 110.124485,59.4964418 131.620682,59.4964418 C135.99338,59.4964418 140.197635,60.2175373 144.121037,61.5473187 Z" id="Primary-color"></path>
                        </g>
                        <g id="g.-illustration/Backgrounds/Props/Cloud-01" transform="translate(174.000000, 12.000000)" fill="#C3DEE7">
                            <path d="M86.4726221,37.0083912 C89.0358679,16.1944083 106.780557,0.08 128.287345,0.08 C151.555102,0.08 170.418386,18.9422588 170.418386,42.2110413 C170.418386,46.028491 169.911006,49.727347 168.95877,53.2436484 C169.316499,53.2483635 169.671153,53.2610736 170.023757,53.2816763 L170.420436,53.2489785 L170.420436,53.3080191 C182.487895,54.2146416 192,64.2947057 192,76.5954569 C192,88.896208 182.487895,98.9762721 170.420436,99.8828946 L170.420436,99.9525954 L17.0259509,99.9525954 L17.0259509,99.9502378 L17.0254384,99.9502378 C7.62300937,99.9502378 0,92.3262035 0,82.9227494 C0,73.5192953 7.62300937,65.8962859 17.0254384,65.8962859 L17.0259509,65.8962859 L17.0259509,65.8955684 L55.8891536,62.6914855 C55.7116216,61.5307626 55.6195756,60.3419545 55.6195756,59.1317236 C55.6195756,46.2340058 66.0746913,35.7778651 78.972409,35.7778651 C81.5960281,35.7778651 84.118581,36.2105224 86.4726221,37.0083912 Z" id="Primary-color"></path>
                        </g>
                    </g>
                </g>
            </g>
        </g>
    </g>
</svg>