<?xml version="1.0" encoding="UTF-8"?>
<svg width="65px" height="65px" viewBox="0 0 65 65" version="1.1" xmlns="http://www.w3.org/2000/svg" xmlns:xlink="http://www.w3.org/1999/xlink">
    <title>Group 30</title>
    <g id="Costs-&amp;-Charges-Reporting" stroke="none" stroke-width="1" fill="none" fill-rule="evenodd">
        <g id="Special_CCR_feed_-04-E" transform="translate(-72.000000, -446.000000)">
            <g id="Group-32" transform="translate(48.000000, 160.000000)">
                <g id="Group-30" transform="translate(24.000000, 286.000000)">
                    <circle id="Oval" fill="#DEEDF2" cx="32.5" cy="32.5" r="32.5"></circle>
                    <g id="C.-document/A.-Finance/b.-Currency/AB271-email-invoice-euro-|-🔍-Euros,-Currency,-Coin,-Moneda,-Divisa,-Money,-Dinero,-invoice,--email,--factura,-send,--enviar,--recibir,--receive,-wire,--giro-postal" transform="translate(9.000000, 9.000000)">
                        <g id="01.-Finance-/-b.-Currency-/AB271-email-invoice-euro-|-🔍-Euros,-Currency,-Coin,-Moneda,-Divisa,-Money,-Dinero,-invoice,--email,--factura,-send,--enviar,--recibir,--receive,-wire,--giro-postal" transform="translate(4.000000, 4.000000)">
                            <path d="M39.9201597,15.630978 C39.9201597,15.5990419 39.9061876,15.5710978 39.9021956,15.5391617 C39.8982036,15.4952495 39.9001996,15.4533333 39.8902196,15.4094212 C39.8802395,15.371497 39.8682635,15.3355689 39.8542914,15.2996407 C39.8363273,15.2497405 39.8123752,15.2058283 39.7864271,15.1579242 C39.7704591,15.131976 39.7684631,15.1000399 39.750499,15.0740918 C39.744511,15.0641118 39.7325349,15.0581238 39.7245509,15.0481437 C39.7145709,15.0361677 39.7125749,15.0201996 39.7025948,15.0082236 L33.9341317,7.80063872 L5.99001996,7.79864271 L0.219560878,15.0082236 C0.209580838,15.0182036 0.20758483,15.0341717 0.19760479,15.0481437 C0.189620758,15.0581238 0.177644711,15.0641118 0.169660679,15.0740918 C0.153692615,15.1020359 0.149700599,15.1339721 0.135728543,15.1599202 C0.0958083832,15.2317764 0.0638722555,15.3036327 0.0419161677,15.3834731 C0.0319361277,15.4293812 0.0239520958,15.4752894 0.0199600798,15.5231936 C0.0159680639,15.5591218 0,15.5930539 0,15.630978 L0,32.1539321 C0,33.7746906 0.502994012,35.2796806 1.35528942,36.5251896 C1.39720559,36.6349701 1.4510978,36.7387625 1.53293413,36.8325749 C1.58682635,36.8924551 1.65668663,36.9243912 1.72055888,36.9683034 C3.14570858,38.7527345 5.31137725,39.9203992 7.76646707,39.9203992 L32.1556886,39.9203992 C34.6546906,39.9203992 36.8582834,38.7148104 38.2794411,36.874491 C38.3073852,36.8485429 38.3413174,36.8365669 38.3672655,36.8086228 C38.4031936,36.7667066 38.4171657,36.7188024 38.4451098,36.6728942 C39.3652695,35.3974451 39.9201597,33.8445509 39.9201597,32.1539321 L39.9201597,15.630978 Z" id="Path" fill="#D39E00"></path>
                            <path d="M34.1337325,0.000239520958 C34.6698724,0.000239520958 35.1046612,0.420658554 35.1305197,0.948457341 L35.1317365,0.998243513 L35.1317365,27.5076711 L7.18762475,27.5056751 L7.18762475,0.998243513 C7.18762475,0.464039194 7.60804378,0.0274321513 8.13584257,0.00146166414 L8.18562874,0.000239520958 L34.1337325,0.000239520958 Z" id="Path" fill="#C3DEE7"></path>
                            <g id="Group-27" transform="translate(5.990020, 0.000240)">
                                <path d="M26.9461078,2.04281037e-13 C27.4822476,2.04281037e-13 27.9170365,0.420419033 27.942895,0.94821782 L27.9441118,0.998003992 L27.9441118,27.5074316 L7.10542736e-14,27.5054356 L7.10542736e-14,0.998003992 C7.10542736e-14,0.463799673 0.420419033,0.0271926304 0.94821782,0.00122214319 L0.998003992,2.04281037e-13 L26.9461078,2.04281037e-13 Z" id="Path" fill="#F5F9FB"></path>
                                <g id="Group" transform="translate(6.009980, 1.999760)" fill="#EC0000" fill-rule="nonzero">
                                    <g id="C.-People-&amp;-Nature/a.-People/CA200-family-|-🔍-PEOPLE,-adults,-kid,-girl,-boy,-family,-adultos,-niño,-niña,-familia">
                                        <path d="M8.00026667,1.33346667 C11.6823616,1.33346667 14.6669333,4.28497554 14.6669333,7.92628046 C14.6669333,8.22378197 14.628972,8.6273491 14.5715818,9.0057844 L14.5413535,9.19230034 L14.5372543,9.21189166 C14.3113113,10.2839449 13.521169,11.0018281 12.5242667,11.0018281 C11.7204174,11.0018281 11.0387857,10.4836926 10.7865885,9.76228045 C10.1871366,10.6519714 9.16278257,11.2380486 8,11.2380486 C6.15057175,11.2380486 4.65133333,9.75541866 4.65133333,7.92647824 C4.65133333,6.09743461 6.15067608,4.61424859 8,4.61424859 C9.09773191,4.61424859 10.0721501,5.13683996 10.6828701,5.94415481 L10.6822667,5.33991961 C10.6822667,5.15786408 10.8315051,5.01027892 11.0156,5.01027892 C11.1792399,5.01027892 11.3153389,5.12688942 11.3435629,5.28066628 L11.3489333,5.33991961 L11.3489333,9.14463245 C11.3489333,9.80813129 11.8767678,10.3425467 12.5242667,10.3425467 C13.1524443,10.3425467 13.6635282,9.90824025 13.8555062,9.19863478 L13.8863418,9.07010969 C13.9522776,8.68766906 14.0002667,8.23122465 14.0002667,7.92628046 C14.0002667,4.64908659 11.3141718,1.99274805 8.00026667,1.99274805 C4.6859306,1.99274805 2.00026667,4.6488535 2.00026667,7.92628046 C2.00026667,11.2037074 4.6859306,13.8598129 8.00026667,13.8598129 C9.16134606,13.8598129 10.2728857,13.5330535 11.2268431,12.9295279 L11.3916,12.8201333 L10.2204393,12.6989989 C10.0576916,12.6821233 9.93463127,12.5521131 9.92277697,12.396264 L9.92368408,12.3367799 C9.94074877,12.1758351 10.0722153,12.054138 10.2298102,12.042415 L10.2899607,12.0433121 L12.089294,12.2298887 C12.2520839,12.2467688 12.3751583,12.3768389 12.3869646,12.5327293 L12.3860365,12.5922279 L12.1967032,14.3716283 C12.1774383,14.5526843 12.013402,14.6840148 11.8303179,14.6649634 C11.6675764,14.6480288 11.5445642,14.517974 11.5327677,14.3621206 L11.5336968,14.3026369 L11.6233661,13.4611433 C10.5547906,14.1471248 9.30491615,14.5190943 8.00026667,14.5190943 C4.31772991,14.5190943 1.3336,11.5678077 1.3336,7.92628046 C1.3336,4.28475318 4.31772991,1.33346667 8.00026667,1.33346667 Z M8,5.27352997 C6.5189115,5.27352997 5.318,6.4615006 5.318,7.92647824 C5.318,9.3913076 6.51876158,10.5787672 8,10.5787672 C9.48123842,10.5787672 10.682,9.3913076 10.682,7.92647824 C10.682,6.4615006 9.4810885,5.27352997 8,5.27352997 Z" id="icon-color"></path>
                                    </g>
                                </g>
                            </g>
                            <path d="M18.709,0 L0.004,32.398 L0.00133561908,32.2984965 L0.00133561908,32.2984965 L2.09965378e-12,32.1539321 L2.09965378e-12,15.630978 C2.09965378e-12,15.5930539 0.0159680639,15.5591218 0.0199600798,15.5231936 C0.0239520958,15.4752894 0.0319361277,15.4293812 0.0419161677,15.3834731 C0.0638722555,15.3036327 0.0958083832,15.2317764 0.135728543,15.1599202 C0.149700599,15.1339721 0.153692615,15.1020359 0.169660679,15.0740918 L0.19760479,15.0481437 C0.20425815,15.038829 0.207363052,15.0286272 0.211650773,15.0199039 L0.219560878,15.0082236 L5.99001996,7.79864271 L5.99001996,0.998243513 C5.99001996,0.464039194 6.41043899,0.0274321513 6.93823778,0.00146166414 L6.98802395,0.000239520958 L18.709,0 Z" id="Combined-Shape" fill-opacity="0.2" fill="#FFFFFF"></path>
                            <path d="M1.78215746,14.7682749 L14.9772455,23.626986 L17.4762475,21.4114172 C18.9623662,20.0864913 21.1938376,20.0683526 22.7025427,21.3531879 L22.7716567,21.4134132 L25.2666667,23.626986 L38.4058979,14.8088765 C38.8098361,14.5379533 39.3491384,14.6093791 39.6691618,14.9686331 L39.7025948,15.0082236 C39.7092482,15.0162076 39.7123531,15.0259658 39.7166408,15.0351327 L39.7245509,15.0481437 C39.7325349,15.0581238 39.744511,15.0641118 39.750499,15.0740918 C39.7684631,15.1000399 39.7704591,15.131976 39.7864271,15.1579242 C39.8123752,15.2058283 39.8363273,15.2497405 39.8542914,15.2996407 C39.8682635,15.3355689 39.8802395,15.371497 39.8902196,15.4094212 C39.9001996,15.4533333 39.8982036,15.4952495 39.9021956,15.5391617 C39.904857,15.5604524 39.9119539,15.579969 39.9163894,15.6000769 L39.9201597,15.630978 L39.9201597,32.1539321 C39.9201597,33.8445509 39.3652695,35.3974451 38.4451098,36.6728942 C38.4171657,36.7188024 38.4031936,36.7667066 38.3672655,36.8086228 C38.3413174,36.8365669 38.3073852,36.8485429 38.2794411,36.874491 C36.8815811,38.6846412 34.7267293,39.8807011 32.27835,39.9194297 L32.1556886,39.9203992 L7.76646707,39.9203992 C5.31137725,39.9203992 3.14570858,38.7527345 1.72055888,36.9683034 C1.65668663,36.9243912 1.58682635,36.8924551 1.53293413,36.8325749 C1.4510978,36.7387625 1.39720559,36.6349701 1.35528942,36.5251896 C0.528061524,35.3163133 0.0298900469,33.862995 0.00130143743,32.2966361 L0,32.1539321 L0,15.630978 C0,15.5930539 0.0159680639,15.5591218 0.0199600798,15.5231936 C0.0239520958,15.4752894 0.0319361277,15.4293812 0.0419161677,15.3834731 C0.0638722555,15.3036327 0.0958083832,15.2317764 0.135728543,15.1599202 C0.149700599,15.1339721 0.153692615,15.1020359 0.169660679,15.0740918 L0.19760479,15.0481437 C0.20425815,15.038829 0.207363052,15.0286272 0.211650773,15.0199039 L0.219560878,15.0082236 C0.598884607,14.5342494 1.27809914,14.4299508 1.78215746,14.7682749 Z" id="Path" fill="#FFCC33"></path>
                            <path d="M1.78215746,14.7682749 L2.13700599,15.006453 L2.12781844,15.0199039 L2.12168256,15.033802 L2.12168256,15.033802 L2.11377246,15.0481437 L2.08582834,15.0740918 C2.06986028,15.1020359 2.06586826,15.1339721 2.05189621,15.1599202 C2.01197605,15.2317764 1.98003992,15.3036327 1.95808383,15.3834731 C1.94810379,15.4293812 1.94011976,15.4752894 1.93612774,15.5231936 C1.9334664,15.5471457 1.92548237,15.5702107 1.92045539,15.5941628 L1.91616766,15.630978 L1.91616766,32.1539321 L1.9174691,32.2966361 C1.94605771,33.862995 2.44422919,35.3163133 3.27145709,36.5251896 C3.31337325,36.6349701 3.36726547,36.7387625 3.4491018,36.8325749 C3.50299401,36.8924551 3.57285429,36.9243912 3.63672655,36.9683034 C5.03812375,38.722994 7.15556165,39.8813057 9.56012351,39.9194287 L9.68263473,39.9203992 L7.76646707,39.9203992 C5.31137725,39.9203992 3.14570858,38.7527345 1.72055888,36.9683034 C1.65668663,36.9243912 1.58682635,36.8924551 1.53293413,36.8325749 C1.4510978,36.7387625 1.39720559,36.6349701 1.35528942,36.5251896 C0.528061524,35.3163133 0.0298900469,33.862995 0.00130143743,32.2966361 L0,32.1539321 L0,15.630978 C0,15.5930539 0.0159680639,15.5591218 0.0199600798,15.5231936 C0.0239520958,15.4752894 0.0319361277,15.4293812 0.0419161677,15.3834731 C0.0638722555,15.3036327 0.0958083832,15.2317764 0.135728543,15.1599202 C0.149700599,15.1339721 0.153692615,15.1020359 0.169660679,15.0740918 L0.19760479,15.0481437 C0.20425815,15.038829 0.207363052,15.0286272 0.211650773,15.0199039 L0.219560878,15.0082236 C0.598884607,14.5342494 1.27809914,14.4299508 1.78215746,14.7682749 Z" id="Shape" fill="#FFD65B"></path>
                            <path d="M17.4762475,21.4114172 C18.9623662,20.0864913 21.1938376,20.0683526 22.7025427,21.3531879 L22.7716567,21.4134132 L37.5257485,34.5068263 L37.5257485,34.508024 L38.9894719,35.806884 C38.8264222,36.1076135 38.6443267,36.3967563 38.4451098,36.6728942 C38.4171657,36.7188024 38.4031936,36.7667066 38.3672655,36.8086228 C38.3413174,36.8365669 38.3073852,36.8485429 38.2794411,36.874491 C36.8815811,38.6846412 34.7267293,39.8807011 32.27835,39.9194297 L32.1556886,39.9203992 L7.76646707,39.9203992 C5.31137725,39.9203992 3.14570858,38.7527345 1.72055888,36.9683034 C1.65668663,36.9243912 1.58682635,36.8924551 1.53293413,36.8325749 C1.4510978,36.7387625 1.39720559,36.6349701 1.35528942,36.5251896 C1.23955329,36.3560577 1.13025823,36.1821409 1.02778908,36.0037992 L2.71257485,34.508982 L2.71377246,34.5112176 L17.4762475,21.4114172 Z" id="Shape" fill="#D39E00"></path>
                            <path d="M3.27145709,36.5251896 C3.31337325,36.6349701 3.36726547,36.7387625 3.4491018,36.8325749 C3.50299401,36.8924551 3.57285429,36.9243912 3.63672655,36.9683034 C5.03812375,38.722994 7.15556165,39.8813057 9.56012351,39.9194287 L9.68263473,39.9203992 L7.76646707,39.9203992 C5.31137725,39.9203992 3.14570858,38.7527345 1.72055888,36.9683034 C1.65668663,36.9243912 1.58682635,36.8924551 1.53293413,36.8325749 C1.4510978,36.7387625 1.39720559,36.6349701 1.35528942,36.5251896 L1.27625955,36.4074315 L1.27625955,36.4074315 L1.19931284,36.2881734 L1.1692836,36.2403128 L1.11343566,36.1492057 L1.07902005,36.0916359 L1.07902005,36.0916359 L1.02765123,36.0035593 L2.38339967,34.8008764 C2.60791187,35.4154238 2.90790708,35.9939128 3.27145709,36.5251896 Z" id="Path" fill="#DBB133"></path>
                            <path d="M1.78215746,14.7682749 L14.9772455,23.626986 L17.4762475,21.4114172 C18.9623662,20.0864913 21.1938376,20.0683526 22.7025427,21.3531879 L22.7716567,21.4134132 L23.558,22.1110458 L13.276,39.9202395 L7.76646707,39.9203992 C5.31137725,39.9203992 3.14570858,38.7527345 1.72055888,36.9683034 C1.65668663,36.9243912 1.58682635,36.8924551 1.53293413,36.8325749 C1.4510978,36.7387625 1.39720559,36.6349701 1.35528942,36.5251896 C1.00076318,36.0070998 0.706675872,35.4441124 0.484089348,34.8465711 L0.381355957,34.5527394 C0.333515752,34.4065112 0.289908987,34.2583868 0.250688931,34.1085093 C0.180388014,33.839864 0.124204508,33.565694 0.082984534,33.2867163 L0.0422798171,32.9643078 C0.0258639772,32.8078097 0.0141430513,32.6499341 0.0072668712,32.490821 L0.00130143743,32.2966361 L0.00130143743,32.2966361 L-4.36983782e-13,32.1539321 L-4.36983782e-13,15.630978 C-4.36983782e-13,15.5930539 0.0159680639,15.5591218 0.0199600798,15.5231936 C0.0239520958,15.4752894 0.0319361277,15.4293812 0.0419161677,15.3834731 C0.0638722555,15.3036327 0.0958083832,15.2317764 0.135728543,15.1599202 C0.149700599,15.1339721 0.153692615,15.1020359 0.169660679,15.0740918 L0.19760479,15.0481437 C0.20425815,15.038829 0.207363052,15.0286272 0.211650773,15.0199039 L0.219560878,15.0082236 C0.598884607,14.5342494 1.27809914,14.4299508 1.78215746,14.7682749 Z" id="Combined-Shape" fill-opacity="0.15" fill="#FFFFFF"></path>
                        </g>
                    </g>
                </g>
            </g>
        </g>
    </g>
</svg>