<?xml version="1.0" encoding="UTF-8"?>
<svg width="47px" height="47px" viewBox="0 0 47 47" version="1.1" xmlns="http://www.w3.org/2000/svg" xmlns:xlink="http://www.w3.org/1999/xlink">
    <title>636E0282-5179-43C3-BA42-A949554119C8</title>
    <defs>
        <path d="M13.7534479,3.43243243 L29.4627683,3.43243243 C33.3866406,3.43243243 36.5675676,6.61335943 36.5675676,10.5372317 L36.5675676,26.2465521 C36.5675676,30.1704244 33.3866406,33.3513514 29.4627683,33.3513514 L13.7534479,33.3513514 C9.82957564,33.3513514 6.64864865,30.1704244 6.64864865,26.2465521 L6.64864865,10.5372317 C6.64864865,6.61335943 9.82957564,3.43243243 13.7534479,3.43243243 Z" id="path-1"></path>
        <filter x="-18.6%" y="-15.3%" width="137.2%" height="137.2%" filterUnits="objectBoundingBox" id="filter-2">
            <feMorphology radius="0.56495999" operator="dilate" in="SourceAlpha" result="shadowSpreadOuter1"></feMorphology>
            <feOffset dx="0" dy="1" in="shadowSpreadOuter1" result="shadowOffsetOuter1"></feOffset>
            <feGaussianBlur stdDeviation="1.5" in="shadowOffsetOuter1" result="shadowBlurOuter1"></feGaussianBlur>
            <feComposite in="shadowBlurOuter1" in2="SourceAlpha" operator="out" result="shadowBlurOuter1"></feComposite>
            <feColorMatrix values="0 0 0 0 0   0 0 0 0 0   0 0 0 0 0  0 0 0 0.16 0" type="matrix" in="shadowBlurOuter1"></feColorMatrix>
        </filter>
        <filter id="filter-3">
            <feColorMatrix in="SourceGraphic" type="matrix" values="0 0 0 0 1.000000 0 0 0 0 1.000000 0 0 0 0 1.000000 0 0 0 1.000000 0"></feColorMatrix>
        </filter>
    </defs>
    <g id="Costs-&amp;-Charges-Reporting" stroke="none" stroke-width="1" fill="none" fill-rule="evenodd">
        <g id="Special_CCR_feed_-04-A" transform="translate(-812.000000, -302.000000)">
            <g id="card-copy" transform="translate(494.000000, 160.000000)">
                <g id="Group" transform="translate(55.000000, 145.961586)">
                    <g id="CV-Management" transform="translate(265.000000, -0.000000)">
                        <g id="Rectangle" transform="translate(21.608108, 18.391892) rotate(15.000000) translate(-21.608108, -18.391892) ">
                            <use fill="black" fill-opacity="1" filter="url(#filter-2)" xlink:href="#path-1"></use>
                            <use stroke="#EFEFEF" stroke-width="1.12991998" fill="#FFFFFF" fill-rule="evenodd" xlink:href="#path-1"></use>
                        </g>
                        <path d="M7.36794001,5.64864865 L23.659087,5.64864865 C27.7282879,5.64864865 31.027027,8.94738775 31.027027,13.0165887 L31.027027,29.3077357 C31.027027,33.3769366 27.7282879,36.6756757 23.659087,36.6756757 L7.36794001,36.6756757 C3.2987391,36.6756757 4.98333386e-16,33.3769366 0,29.3077357 L0,13.0165887 C-4.98333386e-16,8.94738775 3.2987391,5.64864865 7.36794001,5.64864865 Z" id="Rectangle-Copy" stroke="#CC0000" stroke-width="1.18518519" fill="#EC0000"></path>
                        <g id="ico" transform="translate(2.216216, 7.864865)" filter="url(#filter-3)">
                            <g transform="translate(4.432432, 2.216216)" id="Group-9" fill="#FFFFFF">
                                <path d="M15.098783,6.45825735e-13 C16.2798187,6.45825735e-13 17.2372372,0.909547648 17.2372372,2.03153153 L17.2372372,2.03153153 L17.2372372,19.2687688 C17.2372372,20.3907527 16.2798187,21.3003003 15.098783,21.3003003 L15.098783,21.3003003 L2.13845424,21.3003003 C0.957418577,21.3003003 1.1668744e-13,20.3907527 1.1668744e-13,19.2687688 L1.1668744e-13,19.2687688 L1.1668744e-13,2.03153153 C1.1668744e-13,0.909547648 0.957418577,6.45825735e-13 2.13845424,6.45825735e-13 L2.13845424,6.45825735e-13 Z M15.098783,1.6006006 L2.13845424,1.6006006 C1.88793153,1.6006006 1.68484274,1.79353495 1.68484274,2.03153153 L1.68484274,2.03153153 L1.68484274,19.2687688 C1.68484274,19.5067654 1.88793153,19.6996997 2.13845424,19.6996997 L2.13845424,19.6996997 L15.098783,19.6996997 C15.3493057,19.6996997 15.5523945,19.5067654 15.5523945,19.2687688 L15.5523945,19.2687688 L15.5523945,2.03153153 C15.5523945,1.79353495 15.3493057,1.6006006 15.098783,1.6006006 L15.098783,1.6006006 Z M8.8536851,4.27852853 C10.4221664,4.27852853 11.7051179,5.61071542 11.7051179,7.23348348 C11.7051179,7.99981147 11.4167686,8.71996762 10.9235493,9.26020526 L10.7695209,9.41674526 L10.6735435,9.49894895 L10.7865834,9.5298539 C11.0587636,9.61264741 11.3264034,9.71172085 11.5880276,9.826567 L11.9757679,10.0106024 L12.3533784,10.2179164 C13.0866937,10.6416109 13.573173,11.4000338 13.6768676,12.2709704 L13.6947379,12.49092 L13.6960799,16.0821988 C13.6960799,16.4309555 13.4853603,16.7375745 13.1722075,16.8531228 L13.0501852,16.8872061 L12.9247162,16.8986486 L4.3111534,16.8986486 C3.97714486,16.8986486 3.68874497,16.6710499 3.58170195,16.3417963 L3.55032706,16.2138072 L3.53978979,16.0821988 L3.53978979,12.7032144 C3.53978979,11.6648218 4.05437291,10.7154985 4.88148128,10.218505 C5.50616084,9.8512212 6.17864801,9.58011526 6.87790944,9.41086768 L6.92567568,9.40045045 L6.82730099,9.3055952 C6.41063822,8.86945066 6.13260469,8.308929 6.03805779,7.69901163 L6.01129125,7.46812364 L6.00225225,7.23348348 C6.00225225,5.61071542 7.28520377,4.27852853 8.8536851,4.27852853 Z M6.1543185,11.2874273 L5.88455104,11.4232068 L5.62033767,11.5740733 C5.37153227,11.736841 5.18231265,12.0358894 5.11082805,12.3743888 L5.08756959,12.521593 L5.07882883,12.6844848 L5.07882883,15.3583784 L12.1276276,15.3583784 L12.1276276,12.6844848 C12.1276276,12.2345756 11.974392,11.8728863 11.6968954,11.6511379 L11.587066,11.574643 C9.90450186,10.5708648 7.87924623,10.4752669 6.1543185,11.2874273 Z M8.8536851,5.84834835 C8.10999876,5.84834835 7.49578707,6.48613142 7.49578707,7.26426426 C7.49578707,8.04239711 8.10999876,8.68018018 8.8536851,8.68018018 C9.59737144,8.68018018 10.2115831,8.04239711 10.2115831,7.26426426 C10.2115831,6.48613142 9.59737144,5.84834835 8.8536851,5.84834835 Z" id="Combined-Shape"></path>
                            </g>
                        </g>
                    </g>
                </g>
            </g>
        </g>
    </g>
</svg>