<?xml version="1.0" encoding="UTF-8"?>
<svg width="139px" height="126px" viewBox="0 0 139 126" version="1.1" xmlns="http://www.w3.org/2000/svg" xmlns:xlink="http://www.w3.org/1999/xlink">
    <title>49DE6128-5E03-474E-81DC-8E29B8B2750B</title>
    <defs>
        <rect id="path-1" x="0" y="0" width="139" height="126"></rect>
        <filter id="filter-3">
            <feColorMatrix in="SourceGraphic" type="matrix" values="0 0 0 0 0.807843 0 0 0 0 0.870588 0 0 0 0 0.905882 0 0 0 1.000000 0"></feColorMatrix>
        </filter>
    </defs>
    <g id="Gloval-Overview" stroke="none" stroke-width="1" fill="none" fill-rule="evenodd">
        <g id="ISM-Contact-list-Global-Overview-no-favs" transform="translate(-1203.000000, -792.000000)">
            <g id="card" transform="translate(968.000000, 727.000000)">
                <g id="Desktop-woman" transform="translate(235.000000, 65.000000)">
                    <mask id="mask-2" fill="white">
                        <use xlink:href="#path-1"></use>
                    </mask>
                    <g id="Mask"></g>
                    <g mask="url(#mask-2)">
                        <g transform="translate(-10.000000, -20.000000)">
                            <g filter="url(#filter-3)" id="g.-illustration/Backgrounds/Shapes/Bubble-01">
                                <g transform="translate(78.030503, 78.955495) scale(-1, 1) translate(-78.030503, -78.955495) translate(16.030503, 31.455495)">
                                    <path d="M46.8890802,80.8185101 C40.6076278,74.1427978 32.2856336,69.7858017 23.2668717,68.1482025 C17.7928,67.1542533 12.5549121,64.5418214 8.32246526,60.3107243 C-2.76326223,49.2289113 -2.77584849,31.3578909 8.29492143,20.2608285 C13.1786431,15.365688 19.4059199,12.6302756 25.7914187,12.0538617 C31.2580846,11.5602617 36.3942609,9.17544027 40.1869916,5.20766951 C40.2358773,5.15659486 40.2851279,5.10588503 40.3343784,5.05554002 C46.8044423,-1.54439936 57.2707327,-1.60970195 63.8192326,4.91180136 C63.856809,4.94901289 63.8940205,4.98658924 63.9308672,5.02416559 C65.680174,6.79937454 68.2050859,7.57461478 70.6515617,7.09962052 C84.6000489,4.39120473 99.6006739,8.4381412 110.404057,19.2411595 C127.666195,36.5029324 127.666195,64.540581 110.404057,81.8025362 C93.1280564,99.0779897 65.1190825,99.0778803 47.8434466,81.8022808 C47.5191226,81.4780662 47.2010004,81.1501305 46.8890802,80.8185101 Z" id="Primary-color" fill="#DEEDF2"></path>
                                </g>
                            </g>
                            <g id="Characters/Female/Woman-with-Mouse" transform="translate(90.502934, 101.608664) rotate(-33.000000) translate(-90.502934, -101.608664) translate(40.502934, 14.108664)">
                                <g id="Group" transform="translate(12.500000, 50.000000)">
                                    <g id="Group-6" transform="translate(11.500000, 8.250000)">
                                        <path d="M52.0825,4.55575 L52.0825,8.2725 C52.0825,10.78725 50.04375,12.82825 47.52675,12.82825 C45.012,12.82825 42.97325,10.78725 42.97325,8.2725 L42.97325,4.55575 C42.97325,2.041 45.012,-7.10542736e-15 47.52675,-7.10542736e-15 C50.04375,-7.10542736e-15 52.0825,2.041 52.0825,4.55575 Z" id="Mouse" fill="#34466B"></path>
                                        <path d="M39.89075,37.08455 L44.44175,18.114 L51.64125,18.6705 L50.00375,33.6505 C48.715,41.842275 40.82775,47.97905 40.82775,47.97905 L40.8165,47.941875 C38.6365,50.858925 35.69025,53.1226 32.31525,54.477425 C31.70425,54.72145 31.08125,54.93925 30.448,55.122775 C28.5765,55.66325 26.602,55.9375 24.573275,55.8992 C19.860275,55.8145 15.8148,53.6647 12.1162,51.19425 C10.972675,50.43005 9.874825,49.0746 9.089325,47.977625 C8.9046,47.900675 -1.618775,43.48235 0.214325,36.519825 L5.41535,25.0065 L11.183075,25.57725 L9.288625,36.450125 C11.4744,35.94845 13.675475,35.5665 15.8854,35.304775 C16.0548,35.27855 16.228225,35.2604 16.397625,35.24025 C21.612775,34.65945 26.86825,34.7381 32.07325,35.48225 C32.30125,35.510475 32.527,35.544775 32.755,35.57905 C33.02925,35.6214 33.3035,35.665775 33.57375,35.710125 C33.57975,35.710125 33.58375,35.710125 33.58775,35.714175 C35.26175,35.99045 36.9275,36.33935 38.58925,36.7568 L39.89075,37.08455 Z" id="Blouse" fill="#EC0000"></path>
                                        <path d="M40.828,47.97945 L40.828,53.493075 C36.37525,56.735925 30.89175,58.64975 24.960675,58.64975 C19.0296,58.64975 13.546225,56.735925 9.091375,53.493075 L9.091375,47.97945 C13.546225,51.2223 19.0296,53.1341 24.960675,53.1341 C30.89175,53.1341 36.37525,51.2223 40.828,47.97945 Z" id="Chair" fill="#34466B"></path>
                                        <path d="M32.68075,35.32575 L32.711,25.84925 L29.34525,25.928 L18.789825,25.71225 L16.767075,35.1987 C16.767075,35.1987 16.305275,35.249125 16.0693,35.27735 C16.071325,35.279375 16.07335,35.2834 16.07535,35.285425 L14.87745,35.432625 C14.87745,35.432625 16.416175,40.4562 26.296,40.17185 C36.17575,39.885475 36.1575001,35.7049 36.1575001,35.7049 L32.68075,35.32575 Z M5.874025,25.052 L5.798925,24.3485 L5.5307,23.69925 L4.691775,20.09925 C4.48405,19.208 4.524375,18.27425 4.812775,17.401 L6.510825,12.24025 C6.81735,11.31275 7.966875,10.996 8.70295,11.63525 L9.6508,12.46025 C9.919025,12.692 10.0844,13.01875 10.11465,13.37375 L10.57645,18.74425 C10.687375,17.96575 10.8104,17.0945 10.90115,16.439 C10.96165,16.0115 11.48195,15.84 11.78445,16.1425 C11.883275,16.2415 11.9357,16.3725 11.9357,16.50975 L11.9357,20.87775 C11.9357,20.98075 11.919575,21.0815 11.889325,21.17625 L10.61275,25.0805 L10.598325,25.5195 L5.874025,25.052 Z M44.81925,18.14325 L44.44575,10.2165 C44.39925,9.20425 44.615,8.198 45.071,7.2925 L46.08525,5.27975 C46.63975,4.1785 48.14625,4.02325 48.91075,4.98925 L51.27625,7.962 C51.5385,8.29075 51.6675,8.706 51.63725,9.1255 L51.141,16.35325 L49.88575,18.53475 L44.81925,18.14325 Z" id="Skin-tone" fill="#F4A48D"></path>
                                    </g>
                                    <g id="Head/Woman/Student-02" transform="translate(18.750000, 24.750000)">
                                        <g id="Characters/Body-parts/Head/Female/Model-H-00" fill="#FFC4B8">
                                            <path d="M18.81225,7.25 C25.19365,7.25 30.3745,12.43085 30.3745,18.81225 C30.3745,25.193625 25.19365,30.3745 18.81225,30.3745 C12.430875,30.3745 7.25,25.193625 7.25,18.81225 C7.25,12.43085 12.430875,7.25 18.81225,7.25 Z" id="Skin-tone"></path>
                                        </g>
                                        <g id="Hair" fill="#1C1C1E">
                                            <path d="M9.88374393,10.1104833 C9.18274393,10.0199833 8.48149393,9.8664833 7.78774393,9.6372333 C7.78774393,9.6372333 13.8869939,2.7864833 23.0547439,6.2064833 C23.0547439,6.2064833 22.7912439,6.3972333 22.3167439,6.6954833 C25.6109939,7.7849833 28.3852439,10.3292333 29.6357439,13.8522333 C30.2262439,15.5152333 30.4157439,17.2234833 30.2547439,18.8707333 C29.7592439,24.7369833 27.6362439,30.5289833 26.7257439,32.4802333 C26.7257439,32.4802333 27.7789939,31.4187333 30.5747439,32.2512333 C34.6609939,33.4712333 34.1634939,35.4154833 34.1634939,35.4154833 C34.1634939,35.4154833 22.5832439,44.2897333 13.7797439,36.1522333 C6.30749393,29.2434833 6.98474393,17.9632333 7.03849393,17.2149833 C7.15999393,14.5872333 8.17474393,12.0794833 9.88374393,10.1104833 Z" id="Hair-color"></path>
                                        </g>
                                    </g>
                                </g>
                            </g>
                            <g id="g.-illustration/Objects/Devices/Desktop-Top-View" transform="translate(69.894376, 61.829318) rotate(-30.000000) translate(-69.894376, -61.829318) translate(33.894376, 55.329318)">
                                <g id="Group" transform="translate(0.176215, 0.459030)">
                                    <polygon id="Stand" fill="#34466B" points="40.4913259 0 38.1194261 5.58452268 31.9760583 5.58452268 29.6041585 0"></polygon>
                                    <path d="M70.1738588,7.31427098 L70.1738588,7.33293189 L0,7.33293189 L0,7.31427098 C0,5.42657267 1.5233195,3.89244949 3.4070892,3.87673504 L66.7353407,3.87673504 C68.6348248,3.87673504 70.1738588,5.41478684 70.1738588,7.31427098" id="Frame" fill="#F0F4F5"></path>
                                    <polygon id="Display" fill="#DEEDF2" points="0 7.31293201 15.5030224 11.0457163 54.6711682 11.0457163 70.1741907 7.31293201"></polygon>
                                </g>
                            </g>
                        </g>
                    </g>
                </g>
            </g>
        </g>
    </g>
</svg>