<?xml version="1.0" encoding="UTF-8"?>
<svg width="236px" height="184px" viewBox="0 0 236 184" version="1.1" xmlns="http://www.w3.org/2000/svg" xmlns:xlink="http://www.w3.org/1999/xlink">
    <title>1184C637-B889-4910-81A2-9DC9EDC7C9B2</title>
    <g id="✅Version-01---MVP-2" stroke="none" stroke-width="1" fill="none" fill-rule="evenodd">
        <g id="Files-empty-state" transform="translate(-363.000000, -384.000000)">
            <g id="empty-lap" transform="translate(363.000000, 384.000000)">
                <path d="M89.7103375,26.645603 C77.6922597,39.4054093 61.7704995,47.7332784 44.5152399,50.8631369 C34.0419996,52.76337 24.0206407,57.7566209 15.9229339,65.8434236 C-5.28679653,87.0252297 -5.31087762,121.183508 15.870193,142.394146 C25.2139436,151.750619 37.1282514,156.978796 49.3453112,158.080813 C59.8042162,159.024256 69.6313538,163.582359 76.8877738,171.166206 C76.9808459,171.263914 77.0755228,171.360554 77.1696648,171.457194 C89.5482636,184.072201 109.572688,184.196605 122.101593,171.731631 C122.173804,171.660619 122.244945,171.589074 122.315552,171.516994 C125.662406,168.123911 130.493065,166.642274 135.173954,167.549944 C161.860527,172.726864 190.560454,164.991383 211.229965,144.342966 C244.256678,111.349175 244.256678,57.7587566 211.229965,24.7647513 C178.176506,-8.2551013 124.588866,-8.25489307 91.5364777,24.7652318 C90.9154617,25.3849566 90.3072832,26.0117292 89.7103375,26.645603 Z" id="Path" fill="#DEEDF2"></path>
                <path d="M54,123 L54,121.698912 C54,120.759976 54.760129,120 55.6992542,120 L57,120 C55.3436807,120 54,121.34341 54,123" id="Path" fill="#9BC3D3" fill-rule="nonzero"></path>
                <path d="M61.9992658,72 C61.4045521,71.389206 61,71 61,71 C61,71 61.4008811,71.3845355 62,72 C62,72 62,72 61.9992658,72" id="Path" fill="#9BC3D3" fill-rule="nonzero"></path>
                <path d="M38.0073196,159 C38.0193197,159.001595 38.0445198,158.905211 38.08292,158.720519 C38.1237202,158.502442 38.1729205,158.234827 38.2323208,157.911212 C38.3589215,157.20852 38.5107224,156.185983 38.6787833,154.921138 C39.0177851,152.391987 39.356787,148.885529 39.6705887,145.012918 C39.9843904,141.137614 40.2850521,137.63331 40.5616536,135.101466 C40.7002544,133.870006 40.814855,132.856622 40.8994555,132.103316 C40.9342557,131.777547 40.9624558,131.508316 40.9858559,131.287009 C41.002056,131.100163 41.004456,131.002163 40.992456,131 C40.9810559,130.998932 40.9552558,131.094778 40.9174556,131.280009 C40.8766553,131.498624 40.8274551,131.765162 40.7674547,132.088777 C40.6408541,132.791469 40.4896532,133.813468 40.3210523,135.078312 C39.9825904,137.607464 39.6429886,141.11446 39.3297869,144.989225 C39.0159851,148.862914 38.7147835,152.366679 38.438722,154.898523 C38.2995212,156.129983 38.1855206,157.143905 38.1009201,157.896135 C38.0661199,158.222442 38.0379198,158.492211 38.0145196,158.712442 C37.9983195,158.900365 37.9953195,158.998365 38.0073196,159" id="Path" fill="#CCCCCC" fill-rule="nonzero"></path>
                <path d="M194.589375,183 L42.4098756,183 C38.3175728,183 35,179.66571 35,175.552275 L35,75.9627536 C35,73.7743913 36.7651151,72 38.9427522,72 L198.572218,72 C200.464885,72 202,73.5427391 202,75.4452899 L202,175.552275 C202,179.66571 198.682481,183 194.589375,183" id="Path" fill="#34466B"></path>
                <path d="M202.017885,184 L34.9821684,184 C31.1259608,184 28,180.765556 28,176.776667 L28,174 L209,174 L209,176.776667 C209,180.765556 205.873879,184 202.017885,184" id="Path" fill="#34466B"></path>
                <polygon id="Path" fill="#9BC3D3" points="39 170 197 170 197 77 39 77"></polygon>
                <polyline id="Path" fill="#9BC3D3" points="101 175 103.249731 178 134.910388 178 137 175 101 175"></polyline>
                <polygon id="Path" fill="#34466B" fill-rule="nonzero" points="35 175 202 175 202 174 35 174"></polygon>
                <path d="M34,115 L34,114.967 C34.99648,114.6535 35.8102,114.3935 36.33466,114.222 L37,114 C36.15508,114.2995 35.12926,114.64 34,115" id="Path" fill="#444444" fill-rule="nonzero"></path>
                <path d="M34.9425631,111.144356 C34.9545631,111.208356 34.7185631,111.302356 34.4965631,111.499356 C34.2695631,111.691356 34.1435631,111.910356 34.0805631,111.889356 C34.0195631,111.876356 34.0665631,111.564356 34.3455631,111.324356 C34.6225631,111.082356 34.9375631,111.081356 34.9425631,111.144356" id="Path" fill="#444444" fill-rule="nonzero"></path>
                <path d="M35.7233027,111.288729 C35.7673027,111.335729 35.7023027,111.467729 35.5793027,111.583729 C35.4563027,111.700729 35.3203027,111.757729 35.2763027,111.710729 C35.2333027,111.664729 35.2973027,111.532729 35.4203027,111.415729 C35.5443027,111.299729 35.6793027,111.242729 35.7233027,111.288729" id="Path" fill="#444444" fill-rule="nonzero"></path>
                <polygon id="Path" fill="#DEEDF2" points="39 77.2795248 39.1633357 170 197 169.719941 196.836396 77"></polygon>
                <path d="M110,123.451371 C110.026856,138.639644 97.7362076,150.973236 82.5489582,151 C67.3611707,151.027208 55.0269442,138.736368 55,123.548629 C54.973144,108.36089 67.2637924,96.0267645 82.4515798,96 C97.6393673,95.9727916 109.973594,108.264167 110,123.451371 Z" id="Path" fill="#FFCC33"></path>
                <polygon id="Path" fill="#9BC3D3" points="39 127.279321 39.0758362 170 197 169.720679 196.924325 127"></polygon>
                <path d="M196.971001,153.830351 L197,169.848847 L112,170 L148.591673,106.053052 C153.197182,97.999048 164.752306,97.9781438 169.390574,106.015532 L196.971001,153.830351 Z" id="Path" fill="#CEDEE7"></path>
                <path d="M157.977987,157.294995 L158,169.881789 L92,170 L120.412267,119.755852 C123.988498,113.427751 132.961018,113.411483 136.561946,119.72657 L157.977987,157.294995 Z" id="Path" fill="#CEDEE7"></path>
            </g>
        </g>
    </g>
</svg>