<?xml version="1.0" encoding="UTF-8"?>
<svg width="99px" height="98px" viewBox="0 0 99 98" version="1.1" xmlns="http://www.w3.org/2000/svg" xmlns:xlink="http://www.w3.org/1999/xlink">
    <title>9468274C-1E24-4508-8533-1413C536DB6A</title>
    <g id="Costs-&amp;-Charges-Reporting" stroke="none" stroke-width="1" fill="none" fill-rule="evenodd">
        <g id="Special_CCR_mifid_-05" transform="translate(-101.000000, -161.000000)">
            <g id="Group-8" transform="translate(48.000000, 161.000000)">
                <g id="Group" transform="translate(53.000000, 0.000000)">
                    <path d="M21.9857143,93 C20.8151575,93 19.8595176,92.0843421 19.8026749,90.9335544 L19.8,90.825 L19.8,8.175 C19.8,7.01018125 20.7201685,6.05922586 21.8766251,6.00266182 L21.9857143,6 L56.8522286,6 C57.3905098,6 57.9083192,6.19758439 58.3077353,6.5523916 L58.397762,6.63704275 L80.3248477,28.4566428 C80.7014286,28.8313776 80.926555,29.3289406 80.9605278,29.8550452 L80.9649563,29.9769177 L80.9823394,32.169426 L81,32.1698865 L81,90.825 C81,92.0262193 80.0214239,93 78.8142873,93 L21.9857143,93 Z" id="Path" fill="#C3DEE7" fill-rule="nonzero"></path>
                    <path d="M17.7857143,93 C16.6151575,93 15.6595176,92.0843421 15.6026749,90.9335544 L15.6,90.825 L15.6,8.175 C15.6,7.01018125 16.5201685,6.05922586 17.6766251,6.00266182 L17.7857143,6 L55.7996571,6 L76.1248477,28.4566428 C76.5014286,28.8313776 76.726555,29.3289406 76.7605278,29.8550452 L76.7649563,29.9769177 L76.7823394,32.169426 L76.8,32.1698865 L76.8,90.825 C76.8,92.0262193 75.8214239,93 74.6142873,93 L17.7857143,93 Z" id="Path" fill="#DEEDF2" fill-rule="nonzero"></path>
                    <path d="M53.4,6 L15,72 L15.0001765,8.18985603 C15.0001765,7.01726877 15.9290654,6.05997118 17.0964816,6.0030299 L17.2066047,6.00035032 L53.4,6 Z" id="Combined-Shape" fill-opacity="0.2" fill="#FFFFFF" fill-rule="nonzero"></path>
                    <path d="M57.2990378,6.00054625 C57.8124344,6.01234459 58.3039795,6.20660595 58.6854011,6.54690783 L58.7714265,6.62801489 L80.3659082,28.1392443 C80.7367768,28.5086831 80.9584884,28.9992142 80.9919459,29.5178834 L80.9963072,29.6380335 L81,30.0190149 C80.8321812,30.9979455 79.9985392,31.7497516 78.9810376,31.7975899 L78.871338,31.8 L57.4490611,31.7310998 C56.3027944,31.7274283 55.3673789,30.8315297 55.306566,29.7035498 L55.3034473,29.5971419 L55.2,8.15452893 C55.1944181,6.97029976 56.1535151,6.0056843 57.3423275,6 L57.2990378,6.00054625 Z" id="Path" fill="#C3DEE7" fill-rule="nonzero"></path>
                    <path d="M56.0050193,6 L56.1344262,6.00377325 L56.2485471,6.01339753 L56.3773754,6.03145995 L56.5023412,6.05645515 L56.589617,6.07841563 L56.6857596,6.10705112 L56.7642544,6.1340162 L56.8802984,6.18008235 L56.990471,6.23109512 L57.1115848,6.29605554 L57.161185,6.32555915 C57.2435619,6.37604196 57.3226403,6.43194036 57.3979778,6.49310278 L57.4706515,6.55477299 L57.5584481,6.63704275 L69,17.965 L25.242,93 L17.7968801,93 C16.6203435,93 15.6598217,92.0843421 15.6026886,90.9335544 L15.6,90.825 L15.6,8.175 C15.6,7.01018125 16.5248692,6.05922586 17.6872336,6.00266182 L17.7968801,6 L56.0050193,6 Z" id="Combined-Shape" fill-opacity="0.15" fill="#FFFFFF" fill-rule="nonzero"></path>
                    <g id="Group" transform="translate(0.366750, 0.000000)">
                        <path d="M49.8014673,95.7699711 C49.4219057,95.7745732 49.042344,95.7749238 48.6627824,95.7708915 L48.587396,95.7699711 L48.5922173,95.377699 C48.9428516,95.3819942 49.2943625,95.3826078 49.6458733,95.3794083 L49.7966461,95.377699 C49.797961,95.5084417 49.7997141,95.6391845 49.8014673,95.7699711 Z M52.2256653,95.6795513 C51.8465419,95.7031753 51.4669803,95.7221533 51.0874186,95.7371868 L51.0137854,95.7400357 L50.9988835,95.3480265 C51.3880876,95.3331684 51.7777299,95.3139274 52.1673723,95.2901281 L52.2011209,95.2880242 C52.2090101,95.4185479 52.2173377,95.5490277 52.2256653,95.6795513 Z M46.236393,95.2910485 C46.6010527,95.3131823 46.9661506,95.3314591 47.3312486,95.3458351 L47.3855969,95.3478512 L47.370695,95.7398604 C46.9841207,95.7252652 46.5979846,95.7059803 46.2122869,95.6825755 L46.1592534,95.6792883 L46.1837978,95.2877613 C46.2013296,95.288857 46.2188613,95.2899527 46.236393,95.2910485 Z M54.6424122,95.4673737 C54.2646038,95.5101072 53.8859187,95.5481949 53.5072337,95.5823379 L53.4353536,95.5886932 L53.4007285,95.1979112 C53.7846731,95.1639874 54.1686176,95.1255929 54.5521239,95.0828155 L54.5985829,95.077556 C54.6130466,95.2075098 54.6279486,95.3374199 54.6424122,95.4673737 Z M43.8512031,95.0844372 C44.2106033,95.1244533 44.57088,95.1606125 44.9311568,95.1929147 L44.9837519,95.1975606 L44.9491268,95.5882987 C44.567812,95.5546816 44.1873738,95.5165502 43.8075491,95.4742987 L43.7422435,95.4669354 L43.7861605,95.0771177 C43.807856,95.0795721 43.8297268,95.0820266 43.8512031,95.0844372 Z M57.0460104,95.1333069 C56.6620658,95.1968155 56.277683,95.2549331 55.8924235,95.30915 L55.8464028,95.315549 L55.7924928,94.9270462 C56.1869564,94.8720843 56.5796668,94.8122573 56.9723772,94.7479159 C56.9723772,94.7479159 57.0205894,94.9795537 57.0460104,95.1333069 Z M41.4306868,94.7502389 C41.8081447,94.8119943 42.1861723,94.8694545 42.5649012,94.9226633 L42.5923383,94.9264764 L42.5383844,95.3150231 C42.1703061,95.2639181 41.8041562,95.2082549 41.4382693,95.1489539 L41.3387768,95.1326494 L41.4027237,94.745593 C41.4120594,94.7471708 41.421395,94.7487049 41.4306868,94.7502389 Z M59.4290088,94.6776576 C59.0341069,94.7634315 58.6378902,94.8443404 58.2412351,94.9205157 C58.2412351,94.9205157 58.1667253,94.5353439 58.1667253,94.5353439 C58.5392743,94.4644281 58.9113849,94.3879898 59.282619,94.3080452 L59.3457332,94.2943266 C59.3737839,94.422089 59.4013964,94.5498952 59.4290088,94.6776576 Z M39.0506688,94.2959921 C39.4214208,94.3764189 39.7929616,94.4525503 40.1654229,94.524518 L40.2180619,94.5345988 L40.1442096,94.9198582 C39.7505787,94.844428 39.3585257,94.7641766 38.9672617,94.6793231 L39.0391417,94.2934939 C39.0429987,94.2943266 39.0468557,94.2951594 39.0506688,94.2959921 Z M36.7142609,93.7249403 C37.0778249,93.8234247 37.4424407,93.9177892 37.8081085,94.0080337 L37.8667521,94.0224097 L37.773308,94.4034177 C37.3851997,94.3082205 36.9976611,94.2081144 36.6114374,94.1034939 C36.6114374,94.1034939 36.7016381,93.7215216 36.7016381,93.7215216 C36.7058457,93.7226612 36.7100533,93.7238008 36.7142609,93.7249403 Z M61.786148,94.1011271 C61.3982588,94.2063174 61.0090547,94.3066865 60.618974,94.4025411 L60.5181666,94.0233301 C60.8872093,93.9333486 61.2540604,93.8383267 61.620035,93.7397108 L61.6835874,93.7225297 C61.7177743,93.8487581 61.7519611,93.9749426 61.786148,94.1011271 Z M64.1108534,93.4049865 C63.7483852,93.5238516 63.3846021,93.6377639 63.0190658,93.7479945 L62.9528836,93.767893 L62.8402423,93.3921884 C63.2202423,93.2781446 63.5998039,93.1592357 63.9776124,93.0359001 C63.9776124,93.0359001 64.0622029,93.2572818 64.1108534,93.4049865 Z M34.4247066,93.0402392 C34.7805565,93.156343 35.1377214,93.2683706 35.4961135,93.3764098 L35.5445449,93.3909612 L35.4318598,93.7667096 C35.0770179,93.6602483 34.7228334,93.5494917 34.3700076,93.4350096 L34.274153,93.4037155 L34.3962613,93.0309474 C34.4057285,93.0340593 34.4152394,93.0371711 34.4247066,93.0402392 Z M66.3965508,92.5912081 C66.0551207,92.7226522 65.7119373,92.8499762 65.3678774,92.9738378 L65.2587425,93.0126706 L65.1272546,92.6431458 C65.4695614,92.5212128 65.8114298,92.3948529 66.1515451,92.2650306 L66.2558588,92.2251021 C66.3027561,92.3471228 66.3496535,92.4691874 66.3965508,92.5912081 Z M32.1850737,92.2450882 C32.5328153,92.3782416 32.8819594,92.5074942 33.2325937,92.6328459 L33.2575764,92.6417433 L33.1260447,93.0113119 C33.0512281,92.9846636 32.9764992,92.9577963 32.9018141,92.9308413 C32.637129,92.8348551 32.3732767,92.7367214 32.1102133,92.6364838 L31.9883679,92.5897179 L32.1291476,92.2235681 C32.1478188,92.2307561 32.1664463,92.2379002 32.1850737,92.2450882 Z M29.9351411,91.3145048 C30.2739415,91.4647078 30.6144074,91.6110976 30.9564511,91.7538057 L31.0120267,91.7769038 L30.8615607,92.1391528 C30.4974708,91.987898 30.1358792,91.832567 29.7759092,91.6729845 L29.7468943,91.6600987 L29.906389,91.3017066 C29.9159438,91.3059581 29.9255424,91.3102533 29.9351411,91.3145048 Z M68.6384189,91.6617642 C68.2715678,91.8252037 67.9020869,91.9833397 67.5312911,92.1374873 C67.5312911,92.1374873 67.3730674,91.778394 67.3730674,91.778394 C67.4616025,91.7418403 67.5496994,91.7048923 67.6377963,91.6678127 C67.9147974,91.5506132 68.1913602,91.4309154 68.4666081,91.3088946 C68.4666081,91.3088946 68.5753047,91.520108 68.6384189,91.6617642 Z M70.8290068,90.6195476 C70.4985339,90.7870193 70.1663079,90.9507217 69.8318904,91.1108739 L69.7402872,91.1546155 L69.5719828,90.8003434 C69.8932514,90.6475107 70.2136435,90.4902074 70.5327208,90.3298798 L70.6519364,90.2696145 C70.711106,90.3862881 70.7702755,90.5029178 70.8290068,90.6195476 Z M27.7449915,90.2736907 C28.0949684,90.4508487 28.4470052,90.6238867 28.8010582,90.7927609 L28.6448068,91.1528185 C28.5565784,91.1108739 28.4685254,91.0685348 28.38056,91.0261081 C28.1083801,90.8942696 27.8373836,90.7601081 27.5675705,90.623536 L27.7333767,90.2678175 C27.7372337,90.269746 27.7410907,90.2717184 27.7449915,90.2736907 Z M72.964808,89.4672318 C72.6470456,89.6489918 72.3275301,89.8271579 72.0058232,90.0019491 L71.9041392,90.0568672 L71.7178647,89.7117115 C71.7919362,89.6716954 71.8660077,89.6314601 71.9400792,89.5911372 C72.1824552,89.4584221 72.423078,89.3240415 72.6628242,89.1877324 L72.7697677,89.1267658 C72.834635,89.2402399 72.8995023,89.3537139 72.964808,89.4672318 Z M25.6180876,89.1261084 C25.9575016,89.3202722 26.2991509,89.5104474 26.6430355,89.6966343 L26.6671855,89.7096516 L26.480911,90.0548949 C26.391061,90.0064197 26.3014739,89.9575938 26.2119307,89.9085927 C25.9476839,89.7635178 25.684752,89.6161637 25.4230911,89.4664867 C25.4230911,89.4664867 25.5939815,89.1123022 25.6180876,89.1261084 Z M75.0388099,88.2080601 C74.7324432,88.4045468 74.4243233,88.5975272 74.1140119,88.7873518 L74.0096982,88.8506852 L73.8063303,88.5154349 C74.1157651,88.3274511 74.4221318,88.1363554 74.7267454,87.942104 L74.8266762,87.8779379 C74.8976796,87.9879933 74.9682448,88.0980048 75.0388099,88.2080601 Z M23.6158342,87.9123878 C23.9250937,88.1101893 24.2365008,88.3045284 24.5500117,88.4954926 L24.5791582,88.5131996 L24.3755711,88.8484937 C24.0696427,88.6627452 23.7651168,88.4728329 23.4626947,88.2801155 L23.3466347,88.205781 L23.5584179,87.875615 C23.5775713,87.8878434 23.5966808,87.9001156 23.6158342,87.9123878 Z M77.0466296,86.8455829 C76.7507819,87.0571907 76.4527428,87.2654236 76.1525121,87.4705447 L76.0512665,87.5394443 L75.8308052,87.2149323 C75.9022469,87.1664133 75.9736886,87.1177189 76.0451304,87.0688931 C76.2717278,86.91308 76.496572,86.755689 76.7205397,86.596501 L76.818279,86.5265933 C76.894542,86.6329232 76.9703667,86.739253 77.0466296,86.8455829 Z M21.5679546,86.5245772 C21.8845773,86.7510431 22.2037422,86.9737835 22.5255369,87.1928862 L22.5544204,87.2124778 L22.3340905,87.5370337 C21.9989718,87.3095597 21.6681045,87.0784917 21.3395163,86.8434791 C21.3395163,86.8434791 21.5572602,86.5169509 21.5679546,86.5245772 Z M78.9830076,85.3834816 C78.6972406,85.6104735 78.4092822,85.8342659 78.118694,86.0550778 L78.0240228,86.1266511 L77.7877829,85.8137099 C77.85528,85.7624297 77.9232154,85.7110179 77.9907125,85.6594747 C78.2089823,85.4926604 78.425499,85.3243559 78.6407008,85.1543859 L78.7388784,85.0763698 C78.8204009,85.178755 78.9014851,85.2811402 78.9830076,85.3834816 Z M19.6516504,85.077597 C19.9560448,85.3193156 20.2631566,85.5575716 20.5729859,85.7922336 L20.5979248,85.8110802 L20.3615534,86.124109 C20.0400217,85.8813385 19.7224785,85.6347549 19.4074774,85.3845774 C19.4074774,85.3845774 19.6184278,85.0511241 19.6516504,85.077597 Z M80.8431226,83.8256134 C80.5674364,84.0682085 80.2891204,84.3077794 80.0086129,84.5443699 L79.9227075,84.6161623 L79.6711274,84.3154934 C79.7342416,84.2624161 79.7973558,84.2091635 79.8604699,84.1558233 C80.0699739,83.9784023 80.2777248,83.7996226 80.4837224,83.6192213 L80.5840915,83.5311682 C80.6704352,83.6293459 80.7567789,83.7274796 80.8431226,83.8256134 Z M17.8125296,83.5376988 C18.1041259,83.7941878 18.3985711,84.0473019 18.6959966,84.2970412 L18.7146679,84.3126883 L18.4628248,84.6134449 C18.3859044,84.5490158 18.3092031,84.48428 18.2326334,84.4194126 C18.0045019,84.2255557 17.778036,84.0297702 17.5532356,83.8320563 C17.5532356,83.8320563 17.8020544,83.5284508 17.8020544,83.5284508 C17.8055608,83.5315627 17.8090671,83.5346308 17.8125296,83.5376988 Z M82.6225917,82.175879 C82.3412077,82.4505571 82.055879,82.7212468 81.7679206,82.9889999 L81.7433762,83.0119227 L81.4764558,82.7243149 C81.7687972,82.4531431 82.0585088,82.1776322 82.344714,81.8989655 C82.344714,81.8989655 82.5130185,82.0638075 82.6225917,82.175879 Z M16.0540548,81.9084327 C16.3322831,82.1791224 16.6135356,82.4465248 16.8979,82.7107716 C16.8979,82.7107716 16.6426821,83.0090738 16.6426821,83.0090738 C16.3512173,82.7389977 16.0643985,82.4658097 15.780297,82.1894222 L15.7633789,82.1728986 L16.037312,81.8921282 C16.0428783,81.897563 16.0484884,81.9029978 16.0540548,81.9084327 Z M84.3165937,80.4388366 C84.0470436,80.729644 83.7735488,81.0167258 83.4974243,81.3009149 L83.4803309,81.318096 L83.1998234,81.0441629 C83.4759479,80.7611572 83.7490044,80.4736371 84.0185545,80.1833119 L84.0290736,80.1721792 C84.1246214,80.261065 84.2206076,80.3499508 84.3165937,80.4388366 Z M14.3796883,80.1932611 C14.6439789,80.4775379 14.911469,80.7587028 15.1822026,81.0368434 L14.9055959,81.3150718 C14.6305233,81.0332933 14.3599651,80.7481399 14.092212,80.4601815 L14.0695084,80.4356809 L14.35716,80.1689797 C14.3646987,80.1770881 14.3721935,80.1851965 14.3796883,80.1932611 Z M12.7928927,78.3956467 C13.0280369,78.6754529 13.2661175,78.9527169 13.5071786,79.2274389 L13.5502628,79.2763524 L13.2558177,79.5355588 C13.013617,79.2603547 12.7736517,78.9816881 12.536842,78.7006547 L12.465225,78.6153629 L12.7659377,78.363476 C12.7749227,78.3742142 12.7839077,78.3849085 12.7928927,78.3956467 Z M85.9211839,78.6186501 C85.6643443,78.9250607 85.4039983,79.227921 85.1397077,79.5279764 L84.8359708,79.2794205 C85.0958784,78.9852383 85.3518415,78.6864978 85.6047365,78.3852591 L85.6200767,78.3668508 C85.7204458,78.4507839 85.8208149,78.534717 85.9211839,78.6186501 Z M11.2971744,76.5190519 C11.5181179,76.8106043 11.7421732,77.0997461 11.9693842,77.3864773 L12.0050174,77.4313147 L11.6979494,77.6754 C11.4708261,77.3896769 11.2469899,77.1014555 11.0261341,76.8108673 L10.9547362,76.7165466 L11.2677211,76.4800876 C11.2775389,76.4930611 11.2873567,76.5060346 11.2971744,76.5190519 Z M87.4315412,76.7200092 C87.1891653,77.0410149 86.9424064,77.3587334 86.6925794,77.6737783 C86.6925794,77.6737783 86.3813915,77.434558 86.3813915,77.434558 C86.6255206,77.1284105 86.8643902,76.8196331 87.1001918,76.508226 L87.1186001,76.483594 C87.2229138,76.562399 87.3272275,76.6412041 87.4315412,76.7200092 Z M88.8445975,74.747472 C88.6175618,75.0818018 88.3865814,75.4131074 88.1512181,75.7417394 C88.1512181,75.7417394 87.8317026,75.5140901 87.8317026,75.5140901 C88.0587383,75.1977741 88.2813911,74.8778203 88.5005376,74.5557627 L88.5202608,74.5271422 C88.6285191,74.6006001 88.7363391,74.6740141 88.8445975,74.747472 Z M9.89595207,74.566983 C10.1022565,74.8697557 10.3118044,75.1702493 10.5245517,75.4685077 L10.5547939,75.5107591 L10.2358044,75.7390659 C10.0238898,75.4429552 9.8157883,75.1450475 9.6106234,74.8448607 L9.54194291,74.743878 L9.86645496,74.5235044 C9.87631655,74.5380119 9.88613431,74.5524755 9.89595207,74.566983 Z M90.1564081,72.7059914 C89.9582997,73.0320813 89.7562467,73.3555853 89.5506873,73.6769855 L89.5134324,73.7349278 L89.1833979,73.5231447 C89.3937785,73.1949071 89.6006527,72.864259 89.8035823,72.5312879 L89.8206757,72.5024044 C89.9324404,72.570296 90.0442051,72.6381437 90.1564081,72.7059914 Z M8.59277583,72.5429027 C8.78387153,72.8563697 8.97829826,73.1676892 9.17614366,73.4769048 L9.20344931,73.5194192 L8.87332711,73.73129 C8.67662126,73.4248356 8.48364091,73.1164965 8.29381626,72.8060975 L8.23065825,72.7023098 L8.56590848,72.4986351 C8.57484966,72.5134055 8.58383466,72.5281322 8.59277583,72.5429027 Z M91.3625901,70.6006954 C91.1710561,70.9557126 90.9747009,71.3080563 90.7744011,71.6582085 C90.7744011,71.6582085 90.4325326,71.4658855 90.4325326,71.4658855 C90.4785534,71.3852397 90.5245741,71.3043746 90.5705949,71.2234658 C90.717423,70.9629883 90.8620596,70.7012836 91.0045048,70.438264 L91.0172153,70.4144209 C91.1324863,70.4764832 91.2473191,70.5385893 91.3625901,70.6006954 Z M7.39110823,70.4502733 C7.56642539,70.7738649 7.74529271,71.0954842 7.92762255,71.4151751 L7.95457756,71.4622915 L7.61415548,71.6571566 C7.43257074,71.3399202 7.25418554,71.0198787 7.07921902,70.6981279 L7.02447623,70.5968822 L7.36963188,70.4105201 C7.37677605,70.4237566 7.38396406,70.4370368 7.39110823,70.4502733 Z M6.29436795,68.2926012 C6.45342443,68.6257915 6.61611875,68.9571847 6.78249473,69.2868248 L6.81168504,69.3445042 L6.461752,69.5217498 C6.28371743,69.1702827 6.1099343,68.8168434 5.9402273,68.461344 L5.92668405,68.4328988 L6.28095618,68.264419 C6.28542677,68.2738423 6.28989736,68.2832218 6.29436795,68.2926012 Z M92.4605138,68.4367996 C92.288703,68.7980844 92.1120709,69.156871 91.9314943,69.513729 L91.5756005,69.3481858 C91.7548622,68.9949217 91.9297411,68.6384143 92.1006753,68.2802414 C92.1006753,68.2802414 92.3202601,68.3702229 92.4605138,68.4367996 Z M93.4471111,66.2200018 C93.2959,66.5836973 93.1403061,66.9454642 92.9807674,67.3054342 L92.9676187,67.3347121 L92.6095334,67.1751735 C92.7546083,66.8488645 92.8966152,66.5194874 93.0346775,66.1890584 L93.0846429,66.0695797 C93.2051734,66.1197204 93.3261422,66.1698611 93.4471111,66.2200018 Z M5.30606132,66.073349 C5.45722854,66.4369568 5.61260336,66.7987676 5.77231729,67.1587375 L5.41953535,67.3307675 C5.3796507,67.2412681 5.34020434,67.1515495 5.30084564,67.061831 C5.17935085,66.7834712 5.0603105,66.5041033 4.94372459,66.2236397 L5.30290561,66.0657666 C5.30395752,66.0682648 5.30500942,66.0708069 5.30606132,66.073349 Z M94.3188756,63.9555616 C94.1979068,64.2955016 94.0729933,64.6339075 93.9441352,64.9711301 L93.8976762,65.0932385 L93.5312633,64.9524588 C93.563697,64.8686134 93.5956924,64.7847241 93.6276877,64.7007472 C93.7346312,64.4172155 93.8389449,64.1335086 93.9406289,63.8487497 L93.9493947,63.82403 C94.072555,63.8678592 94.1957153,63.9117324 94.3188756,63.9555616 Z M4.45305571,63.8618108 C4.57853896,64.2123574 4.70787919,64.5614577 4.84112023,64.9091555 L4.8561975,64.948295 L4.49009146,65.0892062 C4.35882274,64.7481705 4.23132334,64.4046804 4.10737411,64.0600507 L4.06858519,63.9514855 L4.43810992,63.8198662 C4.44310646,63.8338477 4.448103,63.8478293 4.45305571,63.8618108 Z M95.0744926,61.6497466 C94.9679874,62.0048515 94.8570993,62.3586854 94.7427048,62.7113358 L94.711586,62.8074973 L94.3385988,62.685345 C94.4512401,62.3425123 94.5594984,61.9978388 94.6638121,61.6525079 L94.6988756,61.5370615 C94.823789,61.5746232 94.9491408,61.6121849 95.0744926,61.6497466 Z M3.70887822,61.5985978 C3.8170489,61.9569461 3.92916422,62.3140233 4.04531184,62.6698733 L3.67626923,62.8033773 C3.55753569,62.4413474 3.44353571,62.0769945 3.33321739,61.7116774 L3.31340655,61.6455828 L3.68911121,61.5328101 C3.6956856,61.5547685 3.70226,61.5766832 3.70887822,61.5985978 Z M3.05972263,59.2181853 C3.14957267,59.5840284 3.24349883,59.9487758 3.34154495,60.312515 L3.35872603,60.3759798 L2.98012864,60.4786719 C2.87506984,60.0911333 2.77456928,59.7017977 2.67871462,59.3114541 C2.67871462,59.3114541 3.04828318,59.1712442 3.05972263,59.2181853 Z M95.7113321,59.3083422 C95.6157843,59.6967135 95.5158535,60.0838576 95.4115398,60.469906 L95.0293484,60.3800121 C95.1292792,60.0130295 95.2243887,59.6435048 95.3159919,59.2732349 L95.3300173,59.2148981 C95.4571222,59.2460169 95.5842272,59.2771796 95.7113321,59.3083422 Z M2.54604337,56.8598628 C2.61766042,57.2329377 2.69339744,57.6045224 2.77321057,57.9750991 L2.78697297,58.0384324 L2.40364201,58.1216642 C2.31791192,57.72685 2.23695923,57.3306332 2.16074009,56.9335399 C2.16074009,56.9335399 2.51808028,56.7130785 2.54604337,56.8598628 Z M96.2276411,56.9374407 C96.1522548,57.3306332 96.0720472,57.7228177 95.9870183,58.1140817 C95.9870183,58.1140817 95.6013206,58.0424647 95.6013206,58.0424647 C95.6828431,57.6686447 95.7595443,57.2925456 95.832301,56.9159205 L95.8423817,56.8635445 C95.9708015,56.8881765 96.0992213,56.9128086 96.2276411,56.9374407 Z M96.6229813,54.5432658 C96.571701,54.9105114 96.5160379,55.2770996 96.4568683,55.6431179 L96.4406515,55.7428734 L96.0536389,55.6789265 C96.0667876,55.5988504 96.0794981,55.5187743 96.0926469,55.4386981 C96.1373528,55.1553418 96.1803055,54.8716786 96.2206284,54.587621 L96.2342155,54.4892681 C96.3639502,54.5072819 96.4932466,54.5252519 96.6229813,54.5432658 Z M2.16065243,54.5306429 C2.21394885,54.909328 2.27154053,55.2873556 2.33338366,55.6647258 L1.94799273,55.7385781 C1.93173206,55.640269 1.91595352,55.5418723 1.90026263,55.4434755 C1.85520612,55.1576647 1.81247257,54.8715471 1.77214962,54.5850351 L1.76575054,54.5389705 L2.15429719,54.4848413 C2.15640099,54.5001378 2.15854863,54.5153904 2.16065243,54.5306429 Z M96.8960378,52.1323919 C96.8627275,52.5132685 96.824596,52.8937067 96.7820816,53.2737066 L96.7746307,53.3394505 L96.3849883,53.2956213 C96.427941,52.9138682 96.4665108,52.532115 96.5006976,52.1503619 L96.5055188,52.0977668 C96.6356918,52.1096007 96.7658648,52.1209963 96.8960378,52.1323919 Z M1.88969977,52.1648256 C1.92213345,52.5251024 1.9584241,52.8849408 1.99848407,53.244341 L2.00374358,53.2912383 L1.61396972,53.3350676 C1.57127999,52.9576974 1.53310468,52.5785741 1.4990055,52.1994507 L1.49265025,52.128009 L1.88343218,52.0933839 C1.88553599,52.1170517 1.8876398,52.1411578 1.88969977,52.1648256 Z M97.0476871,49.7108237 C97.0332235,50.0969598 97.0139386,50.4830958 96.9902708,50.8692318 L96.9872027,50.9222653 L96.5958072,50.8981592 C96.619475,50.5164061 96.6387599,50.1333381 96.6536618,49.7502701 L96.6558533,49.6959218 C96.7864646,49.700743 96.9170758,49.7060025 97.0476871,49.7108237 Z M1.73616577,49.7647338 C1.75062944,50.1298317 1.76895008,50.4949297 1.79121536,50.8595894 L1.79331917,50.8937762 L1.40183596,50.9178824 C1.37816815,50.5396356 1.35923389,50.1596357 1.34415662,49.780074 L1.34135154,49.7064408 L1.7333607,49.6915389 C1.73428112,49.7160833 1.73520153,49.7406277 1.73616577,49.7647338 Z M1.70351296,47.2853109 C1.69921768,47.6355069 1.69860407,47.9870178 1.70175978,48.3380904 L1.70351296,48.4888632 L1.31124082,48.4936844 C1.30659492,48.1141228 1.30628811,47.7349994 1.31032041,47.3558761 L1.31124082,47.2804897 C1.44198359,47.2818046 1.57277019,47.2835578 1.70351296,47.2853109 Z M97.0788059,47.3558761 C97.0827506,47.7349994 97.0823123,48.1141228 97.0779293,48.4936844 L96.6856572,48.4888632 C96.6896018,48.1373523 96.6904784,47.786718 96.6874104,47.4356454 L96.6856572,47.2853109 L97.0779293,47.2804897 C97.0779293,47.3054724 97.0783676,47.3308934 97.0788059,47.3558761 Z M96.9893942,44.889602 C97.0117471,45.2573297 97.0301554,45.6250575 97.0450574,45.9932235 L97.0476871,46.0668567 L96.6558533,46.0817587 C96.6409513,45.6929929 96.6216664,45.3033505 96.5979986,44.9137081 L96.5958072,44.8799596 L96.9872027,44.8554152 C96.9880793,44.8668108 96.9885176,44.8782064 96.9893942,44.889602 Z M1.79318768,44.8760149 C1.7694322,45.257768 1.75023498,45.6403977 1.7351577,46.0234657 L1.7330539,46.0782523 L1.34108857,46.0633504 C1.35572755,45.6763377 1.37496861,45.2902017 1.39837345,44.904504 L1.40166065,44.8514705 C1.53218427,44.8597981 1.66266406,44.8681257 1.79318768,44.8760149 Z M96.7803285,42.4851273 C96.8206514,42.8475955 96.857468,43.210502 96.8899017,43.5738468 L96.8964761,43.6452885 L96.5055188,43.6799137 C96.4717703,43.2964074 96.4332005,42.9124628 96.3906861,42.5289565 L96.3854266,42.4824975 L96.7750689,42.4382299 C96.7768221,42.4540085 96.7785753,42.469787 96.7803285,42.4851273 Z M2.00387507,42.4785529 C1.9609662,42.8589911 1.92239642,43.2407442 1.88807809,43.6233739 L1.88343218,43.675969 L1.49265025,43.6417822 C1.52631114,43.2600291 1.56448645,42.8800291 1.60673789,42.5000292 L1.61405738,42.4347236 C1.74401122,42.4491872 1.87392123,42.4640892 2.00387507,42.4785529 Z M96.4424046,40.0451508 C96.5050805,40.425589 96.5629352,40.8064655 96.6168452,41.1882186 L96.6234196,41.2346777 L96.2346538,41.2885877 C96.1798672,40.8941241 96.1198211,40.5009754 96.055392,40.1087032 L96.4410898,40.03507 C96.4415281,40.0381381 96.4419664,40.0416444 96.4424046,40.0451508 Z M2.33539981,40.0951162 C2.32220719,40.1748855 2.30927755,40.2550931 2.29643557,40.3348624 C2.25137906,40.6184379 2.20868933,40.9020134 2.16836639,41.1860271 L2.15451633,41.284643 L1.76601352,41.230733 C1.81703081,40.8634436 1.87273784,40.4965924 1.93208269,40.1306179 L1.94838719,40.0311254 C2.07737679,40.0526017 2.20641021,40.0736398 2.33539981,40.0951162 Z M95.9992905,37.7156241 C96.0794981,38.0894879 96.1561994,38.4642283 96.2280794,38.8398453 C96.2280794,38.8398453 95.84282,38.9139168 95.84282,38.9139168 C95.7722548,38.5418062 95.6955536,38.1696955 95.6157843,37.7984614 L95.6017589,37.734909 L95.9852652,37.6516333 C95.9900864,37.6731097 95.9944693,37.6941477 95.9992905,37.7156241 Z M2.78754275,37.7314026 C2.76650469,37.8278271 2.74594875,37.9242515 2.72548047,38.0206759 C2.66688072,38.2994302 2.61056008,38.5781845 2.5565624,38.8578153 L2.54643783,38.9104105 L2.16117839,38.8367773 C2.23665242,38.442752 2.31690385,38.0509181 2.40175735,37.6595226 C2.40175735,37.6595226 2.63563043,37.6985307 2.78754275,37.7314026 Z M95.4260034,35.3584849 C95.5250576,35.7253361 95.6197289,36.0930638 95.7100172,36.4621064 C95.7100172,36.4621064 95.3308939,36.5624755 95.3308939,36.5624755 C95.2410438,36.1938712 95.1459343,35.82702 95.0473184,35.4610455 L95.030225,35.397493 L95.40891,35.2949325 C95.4146078,35.3159705 95.4203056,35.3374469 95.4260034,35.3584849 Z M3.35955879,35.3939867 C3.33369951,35.4890962 3.30827852,35.5842058 3.28298902,35.678877 C3.21075836,35.9523718 3.14076298,36.2263049 3.07304673,36.5002379 L3.0586269,36.5594074 L2.67766272,36.4656128 C2.77290376,36.0772853 2.87296603,35.6898344 2.97758654,35.3036983 C2.97758654,35.3036983 3.20988177,35.3532254 3.35955879,35.3939867 Z M94.7164073,32.9816226 C94.8334315,33.3405845 94.946511,33.700423 95.055646,34.0620146 L95.0753691,34.1277585 L94.6997521,34.2408381 C94.585796,33.8608382 94.4670186,33.4812765 94.34342,33.1034681 C94.34342,33.1034681 94.7124626,32.970227 94.7124626,32.970227 C94.7137775,32.9737334 94.7150924,32.977678 94.7164073,32.9816226 Z M4.05008923,33.0885661 C4.02519419,33.1648291 4.00051831,33.241092 3.97593007,33.3169167 C3.8900685,33.5842753 3.80639839,33.8525106 3.72496357,34.1211841 L3.69011928,34.2368935 L3.31437079,34.1242522 C3.42091979,33.7692349 3.53163258,33.4150943 3.64607085,33.0622685 L3.67732113,32.9667207 C3.80157716,33.0074819 3.9258332,33.0478049 4.05008923,33.0885661 Z M93.913893,30.7235377 C94.0484489,31.074172 94.1786219,31.4261212 94.3052885,31.7798235 L94.3201905,31.8218997 L93.9507096,31.9538258 C93.8288642,31.6110808 93.7026358,31.2696506 93.5729011,30.9295353 L93.5325782,30.8252216 L93.898991,30.6840913 C93.9038123,30.6972401 93.9090718,30.7103889 93.913893,30.7235377 Z M4.85746855,30.8217153 C4.71682037,31.1872516 4.58037979,31.5554176 4.44827832,31.9248985 L4.43933714,31.9498812 L4.06976858,31.8183933 C4.09641679,31.7434452 4.12328414,31.6689354 4.15028298,31.5939874 C4.24626913,31.3292585 4.34435907,31.0654061 4.44464049,30.8024304 L4.49136251,30.6810233 C4.61338325,30.7279206 4.73544781,30.774818 4.85746855,30.8217153 Z M92.9750696,28.455372 C93.1359231,28.8182785 93.292832,29.1833765 93.4453579,29.5497893 L93.0859577,29.7075748 C93.0495794,29.6194779 93.0123245,29.531381 92.9755079,29.4432842 C92.8580454,29.1662831 92.7383915,28.8897203 92.6165461,28.6149106 L92.9693718,28.4426615 C92.971125,28.4470444 92.9733165,28.4509891 92.9750696,28.455372 Z M5.77937381,28.5986938 C5.62474408,28.94626 5.47419047,29.2968944 5.32731853,29.6488435 L5.30417666,29.7045067 L4.94192759,29.5541723 C5.08393449,29.2123038 5.23001751,28.871312 5.37978218,28.5320733 L5.42098172,28.4391552 C5.54041653,28.4926269 5.65989517,28.5456603 5.77937381,28.5986938 Z M91.956477,26.30949 C92.1243431,26.6421543 92.2882647,26.9761335 92.4486799,27.3123042 L92.462267,27.3407932 L92.107688,27.5090977 C91.9542855,27.1865141 91.7978149,26.8665603 91.6373998,26.5483597 L91.5773536,26.429144 L91.9271113,26.2516354 C91.9367538,26.2709203 91.9468345,26.2902052 91.956477,26.30949 Z M6.81326289,26.4256377 C6.76956509,26.5119814 6.72621793,26.5983251 6.68304608,26.6842305 C6.54927909,26.9524657 6.41765974,27.2224541 6.28836333,27.4933191 L5.9282619,27.3372869 C6.1002042,26.9752569 6.27692389,26.6167334 6.45758822,26.259963 C6.45758822,26.259963 6.67498149,26.3555108 6.81326289,26.4256377 Z M90.8015752,24.1636081 C90.9856582,24.4861916 91.1657966,24.8100901 91.3428669,25.1366183 L91.3643433,25.1765029 L91.0194068,25.3627774 C90.8484726,25.0467682 90.6735937,24.7311974 90.4952085,24.4182563 L90.4342858,24.3113128 L90.7748394,24.1162725 C90.7836052,24.132051 90.7928094,24.1478295 90.8015752,24.1636081 Z M7.95628691,24.3082447 C7.91009084,24.3884523 7.86428923,24.4695365 7.81857528,24.5501824 C7.671791,24.8100901 7.52702286,25.0721892 7.38453384,25.335165 L7.37142888,25.3597094 L7.02618558,25.1734349 C7.07466077,25.0835848 7.12353043,24.9937348 7.17253157,24.9043231 C7.31760652,24.6400324 7.46500441,24.3770567 7.6146376,24.1153959 C7.6146376,24.1153959 7.82032845,24.2302286 7.95628691,24.3082447 Z M89.5427981,22.0847849 C89.7426596,22.3968495 89.9385765,22.7106672 90.1309871,23.0266763 L90.1581613,23.0713822 L89.8228672,23.2747501 C89.6348396,22.9657536 89.4441822,22.6589486 89.2495801,22.3543351 L89.1855894,22.253966 L89.5156239,22.0422705 C89.524828,22.0562959 89.5340322,22.0707596 89.5427981,22.0847849 Z M9.20546546,22.2508979 C8.99486573,22.5791793 8.78838595,22.9096521 8.58563166,23.2423164 L8.56783697,23.2716821 L8.23254291,23.0678759 C8.2745752,22.9986256 8.3167828,22.9298136 8.35907807,22.8605633 C8.50454748,22.6243235 8.65185772,22.3889602 8.80100878,22.1549118 L8.8752556,22.0392025 C8.98531094,22.1097676 9.09541011,22.1803328 9.20546546,22.2508979 Z M88.1832135,20.0769652 C88.397977,20.3776341 88.6092342,20.6804945 88.816985,20.9859847 L88.846789,21.029814 L88.5224522,21.249837 C88.4738017,21.1788335 88.4251512,21.1073918 88.3765007,21.0363884 C88.2209067,20.8097909 88.0635596,20.5849467 87.904021,20.360979 L87.8338941,20.2628014 L88.1529713,20.0344508 C88.1630521,20.0484762 88.1731328,20.0629399 88.1832135,20.0769652 Z M10.5568101,20.2597334 C10.3293361,20.5770574 10.1071216,20.8961346 9.88823811,21.2178416 L9.86855876,21.2467689 L9.54400288,21.0267459 C9.77073179,20.6923284 10.0023696,20.360979 10.2376452,20.0318211 C10.2376452,20.0318211 10.4292669,20.1685684 10.5568101,20.2597334 Z M86.7267663,18.143217 C86.9559935,18.432052 87.1817143,18.7239551 87.4043671,19.0176113 L87.434171,19.0570577 L87.1212299,19.2932975 C86.9042749,19.0062157 86.6846902,18.7226402 86.4620374,18.4408179 L86.3840212,18.342202 L86.6908263,18.0980729 C86.7026602,18.1129748 86.7149324,18.1283151 86.7267663,18.143217 Z M12.0071651,18.3395722 C11.9490036,18.4123289 11.8911489,18.4859621 11.8333819,18.559157 C11.6500879,18.7927671 11.4684593,19.0281304 11.2888907,19.2652468 L11.2699564,19.2902295 L10.9569277,19.0539896 C11.1998296,18.7322827 11.4463693,18.4149586 11.6965469,18.099826 C11.6965469,18.099826 11.884706,18.2418329 12.0071651,18.3395722 Z M85.176086,16.2870467 C85.4193386,16.5640478 85.6595231,16.8436786 85.8966395,17.1255009 L85.9238137,17.1579346 L85.6227065,17.409953 C85.3934793,17.13602 85.1616224,16.8655933 84.9266974,16.597358 L84.8386005,16.4969889 L85.1331333,16.2379578 C85.147597,16.2541747 85.1620607,16.2708298 85.176086,16.2870467 Z M13.5525419,16.4943592 C13.4890771,16.5662392 13.4259191,16.6385575 13.3628488,16.7108759 C13.1682029,16.9348435 12.9751349,17.1605644 12.784083,17.3884767 L12.7683483,17.406885 L12.4675917,17.1553049 C12.5320208,17.0781653 12.5968005,17.0014641 12.6617117,16.9247628 C12.8555248,16.6968505 13.0513102,16.4702531 13.249068,16.2454088 C13.249068,16.2454088 13.4363943,16.3917987 13.5525419,16.4943592 Z M83.4873436,14.4628717 C83.7604,14.7433791 84.0299502,15.0265163 84.2964322,15.3131599 L84.3192235,15.3377043 L84.0317033,15.6046246 C83.7599617,15.3114067 83.4847138,15.0225717 83.2063978,14.7368047 C83.2063978,14.7368047 83.4579779,14.4326295 83.4873436,14.4628717 Z M15.1889084,14.729792 C14.9123018,15.0133675 14.6398589,15.3000111 14.3703526,15.590161 L14.0719628,15.3350745 C14.3410747,15.0444863 14.6149201,14.7569662 14.891702,14.4725141 L14.9080942,14.455859 C15.0017135,14.5470239 15.0952891,14.6381888 15.1889084,14.729792 Z M81.7578398,12.7750058 C82.0444834,13.0414878 82.3280589,13.311038 82.6085663,13.5840944 L82.6256597,13.6007496 L82.3517267,13.881257 C82.0677129,13.6042559 81.7810694,13.332076 81.4909195,13.0625259 L81.7460059,12.7644867 C81.7499506,12.7679931 81.7538952,12.7714994 81.7578398,12.7750058 Z M16.9120131,13.0493771 C16.7699185,13.1813033 16.6287882,13.314106 16.488403,13.4469088 C16.3395149,13.5889157 16.1914596,13.7313608 16.044237,13.8746826 C16.044237,13.8746826 15.7659648,13.5981198 15.7659648,13.5981198 C16.0478748,13.3228719 16.3329405,13.0524452 16.6209428,12.7846482 L16.6453119,12.761857 C16.7341977,12.8578431 16.8231273,12.9538293 16.9120131,13.0493771 Z M79.9450605,11.175675 C80.2448528,11.4276934 80.5415771,11.6827799 80.8356716,11.9413727 L80.5867212,12.2451097 C80.2917501,11.9847637 79.993711,11.7292389 79.6930421,11.476344 L79.6741955,11.4610037 L79.9262139,11.1598965 C79.93235,11.165156 79.9384861,11.1704155 79.9450605,11.175675 Z M18.7175168,11.4583739 C18.4436276,11.6876011 18.1732447,11.9198963 17.9051848,12.154383 L17.8046404,12.2424799 L17.545434,11.9483854 C17.821164,11.7055711 18.0995238,11.4658249 18.3804257,11.2291468 L18.465586,11.157705 C18.549563,11.2580741 18.6335399,11.3580049 18.7175168,11.4583739 Z M78.0525118,9.6683858 C78.3650146,9.90506396 78.6744494,10.1452485 78.9812544,10.3889393 L78.7419465,10.699689 C78.4360181,10.4559981 78.1270216,10.2171285 77.8158336,9.98132692 L77.7908509,9.96248033 L78.0270908,9.64953921 C78.0358567,9.65567531 78.0441842,9.66181141 78.0525118,9.6683858 Z M20.6009051,9.96028886 C20.5331889,10.0111308 20.465648,10.0624111 20.3981509,10.1141297 C20.1799687,10.280681 19.9634958,10.4489854 19.7483378,10.6190431 L19.6496343,10.6974975 L19.4055928,10.3902542 C19.6913597,10.1632185 19.9795812,9.9392508 20.2701693,9.71835119 L20.3644023,9.64690945 C20.4432512,9.75122316 20.5220563,9.85597516 20.6009051,9.96028886 Z M76.0837002,8.25620613 C76.4084752,8.47710574 76.7301822,8.7015117 77.0492594,8.92986229 C77.0492594,8.92986229 76.8213471,9.2493778 76.8213471,9.2493778 C76.5053379,9.02234209 76.1853841,8.7996893 75.8632388,8.58054286 L75.8343115,8.56081968 L76.0547728,8.23648295 C76.0644153,8.24305734 76.0740577,8.24963173 76.0837002,8.25620613 Z M22.5574446,8.55862822 C22.4861782,8.60727873 22.4149994,8.65592924 22.3439083,8.70457975 C22.1172232,8.86061201 21.8922036,9.01795916 21.6684551,9.17705948 L21.5702337,9.24718634 L21.3419269,8.92810912 C21.6377308,8.71641366 21.9359014,8.50822453 22.2361759,8.30310346 L22.3370709,8.23429148 C22.4105288,8.34254982 22.4839867,8.45080817 22.5574446,8.55862822 Z M74.0425702,6.94264235 C74.3585794,7.13549122 74.6728354,7.33140814 74.9844616,7.5308314 L75.0423163,7.567648 L74.8306208,7.89768255 C74.5023394,7.68774025 74.1718666,7.48086601 73.838764,7.27793641 L73.8098367,7.26040469 L74.0132046,6.92511064 C74.0232853,6.93080844 74.0329277,6.93694454 74.0425702,6.94264235 Z M24.5823139,7.25821323 C24.5087683,7.3029191 24.4353104,7.34806327 24.3619402,7.39276914 C24.1271905,7.5374058 23.8940626,7.68335733 23.6620741,7.83150032 L23.5615736,7.89592937 L23.349659,7.56545654 C23.655938,7.36910133 23.9644524,7.17581417 24.2749391,6.98603335 L24.3786392,6.92291917 C24.4465307,7.03468386 24.5144223,7.14644854 24.5823139,7.25821323 Z M71.9321899,5.73163911 C72.2788796,5.91966676 72.6233778,6.11120075 72.9656846,6.30711767 C72.9656846,6.30711767 72.773274,6.64854783 72.773274,6.64854783 C72.4331587,6.45350749 72.0904137,6.26328838 71.7459155,6.0770139 L71.7218094,6.06386512 L71.9080838,5.71849032 C71.9159731,5.72287325 71.9243007,5.72725618 71.9321899,5.73163911 Z M26.6704288,6.06211195 C26.3532801,6.23304617 26.0387173,6.40792503 25.7257324,6.58587194 L25.6186574,6.64679465 L25.4237924,6.30667937 C25.7415109,6.12478783 26.0612894,5.94640262 26.3829087,5.77152376 L26.4840667,5.71673715 C26.5461728,5.83200818 26.6083227,5.94684092 26.6704288,6.06211195 Z M69.7565041,4.62670275 C70.1132745,4.79676039 70.4682917,4.97120096 70.8211175,5.15002445 L70.6554428,5.50547998 C70.302617,5.32621819 69.9458466,5.15177762 69.5877613,4.9808434 L69.7442319,4.62056665 C69.7481765,4.62275811 69.7521211,4.62451128 69.7565041,4.62670275 Z M28.81653,4.97339242 C28.7446061,5.00757926 28.6727699,5.04176611 28.6010213,5.07639125 C28.3513259,5.19692179 28.1031645,5.31920551 27.8559673,5.44368068 L27.7364448,5.5041651 L27.5591992,5.15396909 C27.9106662,4.97602218 28.2641494,4.80245819 28.6196488,4.63240056 L28.6480502,4.61925177 C28.7041955,4.73715255 28.7603846,4.85505334 28.81653,4.97339242 Z M67.5830097,3.65763718 C67.9279462,3.80139725 68.2711295,3.94910195 68.6129979,4.10031299 L68.6419253,4.11346178 L68.4823867,4.47198536 C68.1549819,4.32603383 67.8267005,4.18446523 67.496666,4.04640297 L67.377012,3.99643758 L67.5273465,3.63440766 C67.5457548,3.64185864 67.5646014,3.64974791 67.5830097,3.65763718 Z M31.0152262,3.9951227 C30.9270417,4.0319393 30.8389886,4.06875591 30.7510233,4.10557251 C30.4738468,4.223035 30.1975032,4.34268896 29.9222552,4.46453438 L29.7501815,4.11170861 C29.8397247,4.07182396 29.9293994,4.0323776 30.0191618,3.99336953 C30.2975216,3.87152411 30.5768895,3.75274674 30.8573531,3.63616083 C30.8573531,3.63616083 30.9554431,3.85092434 31.0152262,3.9951227 Z M65.2881081,2.77097067 C65.6413722,2.89763732 65.9937597,3.0278103 66.344394,3.16192793 L66.4004954,3.18384257 L66.2598034,3.54981713 C65.8938289,3.40912511 65.5256629,3.27281603 65.1561819,3.14045158 L65.1311993,3.13168572 L65.2626871,2.76220482 C65.2710147,2.76527287 65.2797805,2.76834092 65.2881081,2.77097067 Z M33.2610828,3.13037084 C32.9175926,3.25265455 32.5765131,3.3788829 32.2369676,3.5086176 L32.1326539,3.54850225 L31.9917428,3.18252769 C32.3333482,3.05103983 32.6764877,2.9234966 33.0209421,2.799898 L33.1294634,2.76088994 C33.1733365,2.88405024 33.2172097,3.00721054 33.2610828,3.13037084 Z M63.0054788,2.02148984 C63.3670704,2.13018648 63.7269089,2.24326604 64.0858707,2.36029024 L64.1147981,2.36993268 L63.9925143,2.74248164 C63.9162514,2.71749894 63.8404267,2.69295454 63.7641637,2.66841014 C63.4968051,2.58250473 63.2285698,2.49879079 62.9598963,2.41726832 L62.844187,2.38264318 L62.9568283,2.00658788 C62.9730451,2.0118474 62.9892619,2.01666862 63.0054788,2.02148984 Z M35.5481389,2.3813283 C35.1677883,2.49572274 34.7885335,2.61450011 34.4111195,2.73766041 L34.2775716,2.36861781 C34.6396454,2.24984043 35.0039544,2.13588428 35.3693154,2.02543448 L35.4353223,2.0057113 C35.4729278,2.13106306 35.5105333,2.25597653 35.5481389,2.3813283 Z M60.6741989,1.38465028 C61.0432415,1.47537691 61.410531,1.57048646 61.7773821,1.66997895 L61.6870938,2.05217034 C61.3189277,1.95180127 60.9503234,1.85669172 60.5804042,1.7655268 L60.5221113,1.75106313 L60.6154677,1.37018661 C60.6351908,1.37500784 60.654914,1.37982906 60.6741989,1.38465028 Z M37.8700831,1.75018655 C37.7760693,1.77297778 37.6821431,1.79664559 37.5882608,1.82031341 C37.3147222,1.88912539 37.0412712,1.96012884 36.7684339,2.03376204 L36.7049253,2.05085546 L36.6023209,1.6726087 C36.9898157,1.56741841 37.3791512,1.46704934 37.7695387,1.3710632 C37.7695387,1.3710632 37.8330473,1.59853721 37.8700831,1.75018655 Z M58.2973366,0.863958332 C58.6729536,0.936276658 59.047694,1.01297791 59.4215578,1.0940621 L59.3496778,1.48019813 C58.9744991,1.39823736 58.5993204,1.3215361 58.2232651,1.24877949 L58.17067,1.23869875 L58.2447415,0.853439303 C58.2622732,0.856945646 58.2798049,0.860451989 58.2973366,0.863958332 Z M40.2214368,1.23826046 C40.034987,1.27376218 39.8486687,1.31101707 39.6623065,1.34871026 C39.4003827,1.40218199 39.0425166,1.47932154 39.0425166,1.47932154 L38.9592847,1.09581527 C39.3541428,1.01034816 39.7503596,0.929263972 40.1474091,0.85300101 C40.1474091,0.85300101 40.1920711,1.08398136 40.2214368,1.23826046 Z M55.8779599,0.46248205 C56.259713,0.515953782 56.6410278,0.573808443 57.021466,0.636046032 L57.049955,0.640867254 L56.9859643,1.02787987 C56.6226195,0.967833746 56.2592747,0.912608843 55.8950533,0.860890282 L55.7964374,0.84686491 L55.8503474,0.458537414 C55.8595516,0.459852293 55.8687557,0.461167171 55.8779599,0.46248205 Z M42.5960638,0.846426617 C42.5096763,0.858698818 42.4233326,0.870971019 42.3369889,0.883243219 C42.0296141,0.927949094 41.7226776,0.975284725 41.4162232,1.02568841 L41.3423708,0.640428961 C41.4406799,0.624212125 41.5390767,0.608433581 41.6374734,0.592655037 C41.9232842,0.54751087 42.2094456,0.50499646 42.4959139,0.464673514 L42.5419784,0.458099121 C42.5600361,0.587395522 42.5780499,0.717130216 42.5960638,0.846426617 Z M53.4923317,0.189863876 C53.8556765,0.222297549 54.218583,0.258675859 54.5810512,0.298998804 L54.6467952,0.306449783 L54.6025276,0.69653045 C54.2207745,0.653139455 53.8394597,0.615007974 53.4577066,0.580382836 L53.4051114,0.575999907 L53.4397366,0.185042654 C53.4572683,0.186795826 53.4748,0.188110704 53.4923317,0.189863876 Z M44.9872583,0.575561614 C44.6028754,0.609748459 44.2193691,0.64787994 43.8363012,0.690832643 L43.7898859,0.696092158 L43.7458375,0.306449783 C44.123383,0.26349708 44.5025063,0.225365599 44.8811914,0.191178754 L44.9530714,0.185042654 C44.964467,0.315215641 44.9758627,0.445388628 44.9872583,0.575561614 Z M51.0725167,0.0355847803 C51.4406827,0.0500484455 51.8088487,0.0684567467 52.1765765,0.0908096838 L52.2296099,0.0943160269 L52.2050655,0.485711573 C51.8219975,0.462043757 51.4402444,0.44275887 51.0576147,0.427856912 L51.0032664,0.425665448 L51.0181684,0.0333933159 C51.0361384,0.0342699017 51.0545467,0.0351464874 51.0725167,0.0355847803 Z M47.3895416,0.425665448 C46.9990226,0.440567406 46.6098185,0.459852293 46.2210527,0.483520109 L46.1873042,0.485711573 L46.1627598,0.0943160269 C46.5414448,0.0706482111 46.9210065,0.0513633242 47.3010064,0.0364613661 L47.3746396,0.0338316088 C47.3794608,0.164442888 47.3842821,0.295054168 47.3895416,0.425665448 Z M49.2702563,8.30566709e-05 C49.4473267,0.000521349556 49.6239587,0.00139793533 49.801029,0.00358939975 L49.7970844,0.395861532 C49.6967153,0.394546653 49.595908,0.393670067 49.4955389,0.393231774 C49.1944317,0.391478603 48.8928862,0.392355188 48.591779,0.395861532 L48.5878343,0.00358939975 C48.81487,0.00095964244 49.0427823,-0.000355236214 49.2702563,8.30566709e-05 Z" id="Circle-color" fill="#9BC3D3"></path>
                        <path d="M49.7177534,93.7646935 L51.9241198,95.5776044 L50.1117787,97.7832256 L47.9054123,95.9703148 L49.7177534,93.7646935 Z M30.3705412,2.61055548 C31.2922711,2.61055548 32.0391222,3.35740655 32.0391222,4.27913649 C32.0391222,5.2087557 31.2791224,5.960428 30.3468734,5.9477175 C29.4606452,5.9354453 28.7146707,5.18903252 28.7019602,4.30280431 C28.6892497,3.37055534 29.440922,2.61055548 30.3705412,2.61055548 Z" id="Yellow-color" fill="#FFCC33"></path>
                        <path d="M7.76738267,69.9025825 L9.97352991,71.7150989 L8.16096968,73.9212899 L5.95482245,72.1087735 L7.76738267,69.9025825 Z M72.3069304,4.55350784 C73.2155115,4.55350784 73.9527201,5.28545695 73.9527201,6.1883403 C73.9527201,7.09122364 73.2155115,7.82317276 72.3069304,7.82317276 C71.3979109,7.82317276 70.6607023,7.09122364 70.6607023,6.1883403 C70.6607023,5.28545695 71.3979109,4.55350784 72.3069304,4.55350784 Z" id="Turquoise-color" fill="#1BB3BC"></path>
                        <polygon id="Red-color" fill="#EC0000" points="2.40666623 34.6230295 5.15520091 34.6230295 5.15520091 31.8744948 2.40666623 31.8744948"></polygon>
                        <polygon id="Purple-color" fill="#9E3667" points="91.522567 68.1279784 94.2711017 68.1279784 94.2711017 65.3794437 91.522567 65.3794437"></polygon>
                        <polygon id="Grey-color" fill="#767676" points="92.0647353 25.6485444 94.2711017 27.461762 92.4583223 29.6672518 90.2523942 27.8544725"></polygon>
                        <path d="M3.29157956,51.0712849 C3.29157956,51.9741682 2.55480923,52.7061173 1.64578978,52.7061173 C0.736770339,52.7061173 4.82949588e-15,51.9741682 4.82949588e-15,51.0712849 C4.82949588e-15,50.1684015 0.736770339,49.4364524 1.64578978,49.4364524 C2.55480923,49.4364524 3.29157956,50.1684015 3.29157956,51.0712849" id="Dark-yellow-color" fill="#D39E00"></path>
                    </g>
                </g>
            </g>
        </g>
    </g>
</svg>