<?xml version="1.0" encoding="UTF-8"?>
<svg width="420px" height="302px" viewBox="0 0 420 302" version="1.1" xmlns="http://www.w3.org/2000/svg" xmlns:xlink="http://www.w3.org/1999/xlink">
    <title>Group 6</title>
    <g id="Confirming---MVP02-V03" stroke="none" stroke-width="1" fill="none" fill-rule="evenodd">
        <g id="Batches-processed-01A-3" transform="translate(-810.000000, -472.000000)">
            <g id="Group-6" transform="translate(1020.500000, 622.500000) scale(-1, 1) translate(-1020.500000, -622.500000) translate(811.000000, 476.000000)">
                <g id="Group-3" transform="translate(0.000000, 76.000000)" fill="#DEEDF2">
                    <path d="M216.070928,0 C290.590197,0 351,41.4136606 351,92.5 C351,143.586339 290.590197,185 216.070928,185 C209.508871,185 203.056224,184.678866 196.744601,184.058271 C186.869766,184.676656 176.686198,185 166.279335,185 C74.4457938,185 0,159.821595 0,128.762458 C0,108.060857 33.0726744,89.97178 82.3229285,80.2093397 C91.0902503,34.9334465 147.629748,0 216.070928,0 Z" id="Combined-Shape"></path>
                </g>
                <g id="g.-illustration/Concepts/Online-Shopping-02" transform="translate(126.000000, 0.000000)">
                    <path d="M209.442642,212.389731 L181.955259,259.997817 L27.8391065,259.997817 C6.44062046,259.997817 -6.93348465,236.832953 3.76542985,218.301884 L41.4552908,153.018322 C58.8966959,122.7999 94.4010273,107.986255 128.151055,116.847708 L174.677894,129.062544 C210.908669,138.568104 228.172467,179.942702 209.442642,212.389731 Z" id="Shirt" fill="#1BB3BC"></path>
                    <g id="Characters/Body-parts/Upper-body/Hands-&amp;-Arms/Hand-02-Copy-2" transform="translate(24.000000, 157.920000)" fill="#FFC4B8">
                        <path d="M112.892166,27.3209737 C115.356692,26.7472244 117.947888,27.3519769 119.90401,28.9574416 L119.90401,28.9574416 L132.697923,39.4585088 C134.377168,40.8369999 134.537324,43.3499761 133.046554,44.9305617 C131.692213,46.366466 129.456727,46.5063629 127.934002,45.2505446 L127.934002,45.2505446 L118.866919,37.772857 L133.953339,54.8261109 C135.26788,56.3119648 135.151351,58.5765331 133.691578,59.9196194 C132.26931,61.2284492 130.072284,61.1978288 128.687137,59.8497667 L128.687137,59.8497667 L122.065,53.4058401 L121.308,54.2218401 L126.392334,64.0573894 C127.037445,65.3052655 126.794267,66.8192375 125.811744,67.8018499 L125.66637,67.9385223 C124.277778,69.1658253 122.141601,68.9658359 121.004819,67.5019905 C119.999164,66.2072486 118.730527,64.5770534 117.425232,62.907887 L116.989086,62.3504616 C116.494859,61.7191571 115.998996,61.0869954 115.513631,60.4698736 L113.762,62.3578401 L114.862447,67.9239776 C115.081608,69.0330195 114.587387,70.1537412 113.638144,70.7434637 L113.475769,70.836741 C112.441356,71.3846544 111.171781,71.2038028 110.33101,70.3893008 L110.33101,70.3893008 L108.215,68.3378401 L107.920635,68.655996 L103.682339,71.890082 C102.272125,72.9675366 100.812162,73.9762867 99.3101019,74.913653 C97.4636209,76.0676585 95.550169,77.1164064 93.5812271,78.0503279 L81.2777318,83.8949926 C60.8420662,93.2361216 38.1619216,96.5373811 15.9123037,93.4083612 L0,91.1730736 C1.20702455,70.5372163 15.3823698,67.8876714 18.2053686,67.564121 L18.3764833,67.545825 C18.5815002,67.5255667 18.6925492,67.5209369 18.6925492,67.5209369 L22.9767679,67.9957441 C39.1741377,69.7966051 55.5666795,68.4223242 71.2376587,63.9519404 L79.7259224,61.5289117 L79.727,61.5278401 L88.22471,43.1509436 C90.1095079,39.0748091 93.3897674,35.8133546 97.4653218,33.9506665 L97.8621929,33.7747925 Z" id="Skin-tone"></path>
                    </g>
                    <g id="Group" transform="translate(178.080000, 182.400000)">
                        <g id="Group" transform="translate(0.000000, 28.899954)">
                            <path d="M89.2572554,54.5241463 C89.0090723,54.5241463 88.7627693,54.5208496 88.5164663,54.5126078 L74.3023409,54.0576616 L82.7255263,44.449396 L102.410962,47.4741288 L100.421736,51.7186448 L98.4851559,52.5823833 C95.623529,53.859859 92.4610742,54.5241463 89.2572554,54.5241463 Z" id="Shadow" fill="#F4A48D"></path>
                            <path d="M81.2947129,55.996128 L114.630221,5.37644192 C116.203928,2.98698544 114.237265,0 111.089851,0 L37.4302227,0 C35.9693265,0 34.6197366,0.683078618 33.8894765,1.79209236 L0.55378009,52.4126026 C-1.01973864,54.8010701 0.947300784,57.7878907 4.09452625,57.7878907 L77.7543428,57.7878907 C79.215239,57.7878907 80.5652049,57.1054714 81.2947129,55.996128 Z" id="Tablet" fill="#DEEDF2"></path>
                            <path d="M79.0723457,43.8691748 L79.0723457,43.4719211 L76.7710111,43.5032398 C74.5016395,43.5345586 72.5989021,42.0098295 72.4315665,40.0268576 L72.393963,39.5818015 C72.2360282,37.7274013 73.6536804,36.0510235 75.7218733,35.6422313 L75.6955508,33.9048644 C75.654187,31.193484 77.9348396,28.8823244 81.0032858,28.5295763 L91.0960669,27.3691339 L90.9306114,26.8499018 C89.9792427,23.8729713 91.912063,20.7752164 95.2832173,19.8719175 L105.454966,17.1465261 C107.011751,16.7294921 108.685107,17.3514167 109.424016,18.6219693 L110.179846,19.9167527 C111.018405,21.357086 110.375385,23.121486 108.737752,23.8663779 L105.150377,25.4998985 L105.968254,26.8845173 C107.340782,29.2103472 107.410348,31.961453 106.158151,34.3400303 L105.658025,35.2861865 C107.190368,37.2592683 107.361464,39.8092746 106.105506,41.9257634 L105.556495,42.8488426 L105.297031,46.0054439 C105.084571,48.5818239 103.179954,50.8136975 100.421736,51.7186448 L80.9544012,46.1455541 C79.8319365,45.8241247 79.0723457,44.9059906 79.0723457,43.8691748 Z" id="Skin-tone" fill="#FFC4B8"></path>
                        </g>
                    </g>
                    <g id="Group" transform="translate(93.985385, 8.790000)">
                        <g id="Characters/Body-parts/Head/Male/Model-A-00" transform="translate(77.983077, 77.983077) rotate(10.000000) translate(-77.983077, -77.983077) ">
                            <path d="M43.8578904,71.6643681 C40.6353177,67.5108855 38.1720923,62.6585705 36.7327326,57.2607899 C35.5114137,52.6808957 35.122954,48.0615942 35.4802205,43.5915002 C36.2570359,33.7989053 40.5980938,24.6582489 47.5062507,17.8685224 C52.347856,13.1032365 58.4501877,9.4931399 65.4788545,7.62050628 C87.129868,1.84559949 109.354213,14.7107276 115.124233,36.3557105 C115.558339,37.9756789 116.236064,48.7319367 116.33557,50.3229994 L116.570351,54.1601827 L121.501793,88.2611425 L116.270376,87.9240476 C116.139469,88.3082443 116.000971,88.6909852 115.853635,89.0722705 C114.842142,91.7350286 113.456747,94.2606405 111.726562,96.5723709 L108.484338,100.942542 L106.438478,103.690458 L106.241129,103.95009 L106.141414,104.089212 C103.927319,107.065566 101.250004,110.363938 98.2819679,113.4712 C94.5408597,117.386886 89.4319284,119.062378 84.5277287,118.581379 C84.0806257,120.110575 83.6614927,121.792098 83.3323001,123.569696 C82.8794784,126.001936 82.7631276,128.483982 82.8773988,130.953654 C82.8773988,130.953654 82.7538736,134.668872 82.6391865,134.736665 C79.1420094,144.01426 70.1845613,150.613395 59.697917,150.613395 C47.3580828,150.613395 37.1356452,141.47565 35.4382136,129.599244 C35.3806101,129.569298 35.3496248,129.542056 35.352348,129.518349 C36.7921038,118.661753 36.12748,124.732892 39.6626088,112.185519 C41.164251,106.843366 43.8270091,102.903245 45.5426368,87.8779856 C45.8376208,85.2691918 46.0556615,76.9423668 46.1990464,75.2890216 C46.2067407,75.2015765 46.2117316,75.0846019 46.2142271,74.941217 L43.8578904,71.6643681 Z" id="Base-color" fill="#FFC4B8"></path>
                            <path d="M60.5876519,94.9364939 L72.780046,111.903012 C75.715537,115.887011 80.024154,118.133652 84.5056855,118.579091 C84.5143156,118.583458 84.5192025,118.583978 84.5204503,118.580547 C83.4737094,122.148741 83.1226816,124.85912 83.1226816,124.85912 C74.8824698,121.366518 69.4602545,114.365198 60.5876519,94.9364939 Z M115.155114,87.8788175 L110.731082,87.585913 C109.308255,86.3562759 108.464998,84.4724127 108.664427,82.4057572 L110.151616,66.7407246 L115.155114,87.8788175 Z" id="Shadows" fill="#F4A48D"></path>
                        </g>
                    </g>
                    <g id="Characters/Body-parts/Hair/Male/Model-A-04" transform="translate(97.816923, 6.310769)" fill="#9BC3D3">
                        <path d="M49.4279239,46.3026237 C46.7281464,47.2455754 45.1382256,51.4165293 45.8213471,56.1263127 C45.9151049,56.7728699 46.0471581,57.3987617 46.2128341,57.9980565 C44.7344474,58.9180467 42.4337754,61.2348606 42.4337754,61.2348606 L42.4363149,61.2392615 C39.8001262,57.0546264 37.989778,52.3183416 37.2430678,47.2000351 C36.6073838,42.8434759 36.7929694,38.5489127 37.6929629,34.4751624 C39.6550708,25.5518507 45.0295356,17.6379833 52.6302147,12.1834823 C57.9590704,8.35580265 64.3826473,5.7370452 71.5004179,4.82174297 C84.6078182,3.13541319 97.0983268,7.60199621 105.667362,15.8659306 L117.771057,16.1060695 C120.20175,16.1545756 121.363006,18.9337764 119.615739,20.5211805 L120.853992,21.4879547 C123.536297,23.5808941 124.507803,27.0426251 123.272293,30.1058787 L116.041464,47.662135 C115.95888,46.9771174 115.819919,46.3026237 115.627325,45.6444901 L115.626918,45.6444901 C115.259811,44.3885925 114.697568,43.1916294 113.960204,42.0925396 L113.959289,42.0912959 L113.877112,41.9702697 L113.794223,41.8510613 L113.792293,41.8482868 L113.708591,41.7308006 L113.705849,41.7269736 L113.620624,41.6100614 L113.535906,41.4965934 L113.529304,41.4877915 L113.443571,41.3756629 L113.440219,41.371262 L113.351337,41.2575069 L113.263674,41.1479615 L113.253719,41.1356197 L113.165243,41.0276051 L113.16311,41.0250219 L113.074126,40.9186337 L113.066914,40.9101188 L112.978134,40.8063137 L112.965741,40.7920585 L112.874523,40.6877751 L112.782492,40.5851181 L112.770201,40.5715325 L112.679389,40.4722241 L112.66598,40.4578732 L112.571918,40.357321 L112.477144,40.2582996 L112.461298,40.2419395 L112.367946,40.1463624 L112.354741,40.1331595 L112.262913,40.0413136 L112.255092,40.0335641 L112.158896,39.9395176 L112.140612,39.9219138 L112.043908,39.8293025 L112.032734,39.8188742 L111.939891,39.7319075 L111.925974,39.7189917 L111.827747,39.6292506 L111.808244,39.6115511 L111.707579,39.5214273 L111.701281,39.5158782 L111.603155,39.429964 L111.585074,39.4143693 L111.484409,39.3280724 L111.464702,39.3114253 L111.360888,39.2245544 L111.359364,39.2233106 L111.25362,39.1367267 L111.232695,39.1197926 L111.128881,39.0366529 L111.110292,39.0220149 L111.009627,38.9432762 L110.998961,38.9350483 L110.891693,38.8528653 L110.869041,38.8357399 L110.761468,38.755279 L110.745825,38.7437983 L110.643839,38.6692691 L110.62718,38.65731 L110.517677,38.5790496 L110.494314,38.5624982 L110.382374,38.4845248 L110.372317,38.4775407 L110.264948,38.4044467 L110.244226,38.3904784 L110.132082,38.3157579 L110.109024,38.3006416 L109.991902,38.2245817 L109.7795,38.0889176 L109.74801,38.0688263 L109.54475,37.9409117 L109.506353,37.9169934 L109.302077,37.7901312 L109.2714,37.7713794 L109.059099,37.6414556 L109.055239,37.6390638 L108.840805,37.5098098 L108.807791,37.4899098 L108.601788,37.3676399 L108.562985,37.3445827 L108.355255,37.2229825 L108.325492,37.2057614 L108.112379,37.0827261 L108.104862,37.0783252 L107.888498,36.9552899 L107.854062,36.9358683 L107.645418,36.8189561 L107.606209,36.7971426 L107.395228,36.6807088 L107.366684,36.6650184 L107.15225,36.5484889 L107.141483,36.5425572 L106.923087,36.4255493 L106.887534,36.4067017 L106.676249,36.2951472 L106.636938,36.2745775 L106.422504,36.16331 L106.39528,36.1492461 L106.179323,36.0387439 L106.165406,36.0316641 L105.945182,35.9207793 L105.908613,35.9025058 L105.694687,35.7964046 L105.655376,35.7771743 L105.43759,35.6708818 L105.412093,35.6586356 L105.193901,35.5538739 L105.177547,35.545933 L104.955291,35.4409799 L104.91791,35.4234718 L104.701241,35.3227282 L104.662336,35.3048374 L104.440893,35.2037112 L104.417733,35.1931872 L104.196696,35.0937831 L104.178208,35.0854596 L103.953718,34.9862468 L103.916032,34.9696954 L103.696519,34.8743096 L103.658223,34.8578538 L103.433022,34.7617026 L103.412706,34.7529964 L103.188215,34.6587586 L103.168204,34.6503394 L102.941377,34.5567713 L102.903488,34.5412723 L102.680826,34.4510528 L102.64375,34.4362235 L102.414587,34.344856 L102.397826,34.3383502 L102.168968,34.2488004 L102.147839,34.2406682 L101.918371,34.1525535 L101.88099,34.1382983 L101.654976,34.0531494 L101.619728,34.0400422 L101.385994,33.9536497 L101.373804,33.949153 L101.139359,33.8640999 L101.117824,33.8563504 L100.88541,33.773689 L100.849146,33.7608688 L100.619374,33.6807907 L100.58636,33.6694056 L100.347852,33.5878923 L100.341148,33.5855962 L100.099998,33.5048483 L100.07887,33.4977685 L99.843104,33.4203692 L99.8083638,33.4091754 L99.574528,33.3339766 L99.5446637,33.3245049 L99.3006699,33.2476796 L99.0514956,33.1710457 L99.0313829,33.1648269 L98.7917571,33.0926896 L98.7594549,33.0831223 L98.5208448,33.0128985 L98.4951452,33.005436 L98.2468852,32.9338727 L97.9941556,32.8627877 L97.9759729,32.8578127 L97.7319792,32.7907461 L97.7028259,32.7829009 L97.4590353,32.7175563 L97.4383131,32.712103 L97.1852788,32.6458974 L96.9285876,32.5804571 L96.9133507,32.5766302 L96.664278,32.5147299 L96.6393911,32.5086068 L96.3894041,32.4480459 L96.3750814,32.4446974 L96.1163587,32.3837537 L95.8555028,32.3239582 L95.8441259,32.321375 L95.5891616,32.264641 L95.5694552,32.2603358 L95.3126624,32.2047498 L95.3061613,32.2033147 L95.0409375,32.1476331 L94.7750026,32.093578 L94.7687047,32.0922385 L94.5072393,32.0406709 L94.4939324,32.0380877 C94.2258644,31.9860417 93.9571868,31.9363875 93.6878998,31.8892207 C92.8428607,40.77876 85.4332525,48.084148 75.7761999,49.0246122 C64.3728957,50.1352784 54.6149747,48.0715192 54.2519299,47.9934501 L54.2180024,47.9565204 L54.1946391,47.9312628 L54.1628448,47.8973946 L54.1372468,47.8703192 L54.1071793,47.8390341 L54.0794481,47.8102366 L54.051209,47.7813434 L54.0213447,47.7510151 L53.9947309,47.7243224 L53.9630381,47.6927503 L53.9378464,47.6682581 L53.9044268,47.635538 L53.880454,47.6127678 L53.8453076,47.579091 L53.8228585,47.5581386 L53.7859852,47.5236964 L53.7647551,47.5043705 L53.7264597,47.4693542 L53.7062454,47.451272 L53.6665278,47.4157774 L53.6474309,47.3991303 L53.6062912,47.363253 L53.5881085,47.347754 L53.5458515,47.3116853 L53.5284814,47.2972387 L53.485107,47.2611701 L53.4685495,47.2475845 L53.4240578,47.2115159 L53.4081098,47.198887 L53.3628054,47.162914 L53.3474669,47.1510506 L53.3012483,47.1153646 L53.2863161,47.1041709 L53.2393864,47.0686763 L53.2249621,47.0581523 L53.177423,47.0232317 L53.1631003,47.0129947 L53.1150532,46.9785524 L53.1011368,46.9688 L53.0525819,46.9350213 L53.0387671,46.925741 L52.9898058,46.8925425 L52.975991,46.8834536 L52.9268266,46.8510205 L52.9130118,46.8422186 L52.8635426,46.8105509 L52.8497278,46.8019404 L52.8000555,46.7712294 L52.7861391,46.7628102 L52.7363652,46.7328646 L52.7222456,46.724541 L52.6725733,46.6956478 L52.6580475,46.6874199 L52.6084767,46.6594835 L52.5936461,46.6514469 L52.5441769,46.6243715 L52.5290416,46.616335 L52.4797756,46.5902163 L52.4641324,46.5823711 L52.4150695,46.5574005 L52.3991215,46.5494597 L52.3502619,46.5254458 L52.3337044,46.5176963 L52.2853526,46.4948305 L52.2681857,46.4868896 L52.2200371,46.4651719 L52.2023622,46.4573267 L52.1548231,46.4365657 L52.1363356,46.4289119 L52.0892028,46.4092033 L52.0701058,46.4015494 L52.0236841,46.3829889 L52.0038761,46.3754308 L51.9578606,46.357827 L51.9373416,46.3503645 L51.891834,46.3338131 L51.8706039,46.3264463 L51.8257058,46.3110429 L51.8037646,46.3037718 L51.7595776,46.2893252 L51.7368238,46.2822454 L51.6932463,46.2687555 L51.6697814,46.2619627 L51.6268133,46.2494296 L51.6024343,46.2428282 L51.5602788,46.2313474 L51.5351887,46.2248417 L51.4935411,46.214222 L51.4676384,46.2081946 L51.4267019,46.1985316 L51.4000881,46.1926956 L51.3597611,46.1838937 L51.3324362,46.1784403 L51.2928202,46.1704995 L51.2645812,46.1653332 L51.2257778,46.1582534 L51.1968277,46.1534697 L51.1585323,46.1473467 L51.1289726,46.1430414 L51.0913883,46.137588 L51.0609144,46.1337611 L51.0240411,46.1289775 L50.9930594,46.1256289 L50.956694,46.1217063 L50.9248996,46.1189318 L50.8893468,46.1156789 L50.8567398,46.1133828 L50.8217965,46.1108953 L50.7885801,46.1090775 L50.7541446,46.1072597 L50.7203187,46.1062073 L50.6865943,46.1050593 L50.6520573,46.1045809 L50.6189424,46.1040069 L50.5836944,46.1041982 L50.5513921,46.1042939 L50.5152299,46.1051549 L50.4836387,46.1058246 L50.4465622,46.1073554 L50.4158852,46.1086948 L50.3775898,46.110991 L50.3482333,46.1128088 L50.3077031,46.1160616 L50.2804799,46.1182621 L50.2353786,46.1227587 L50.2126248,46.1249592 L50.1449729,46.1329957 L50.0799621,46.1420847 L50.0632015,46.1446678 L50.0031681,46.1542351 L49.9982923,46.1550005 L49.9343988,46.1665769 L49.917943,46.1698298 L49.8618711,46.1812149 L49.8533385,46.1830326 L49.7908671,46.1970966 L49.7743097,46.2010191 L49.7219963,46.213935 L49.7099083,46.2169965 L49.6492654,46.2333566 L49.6322001,46.2381402 L49.5837467,46.2522041 L49.5682051,46.2567964 L49.5098985,46.2750699 L49.4910047,46.2812887 L49.4475287,46.2959266 L49.4279239,46.3026237 Z" id="Hair-color"></path>
                    </g>
                    <path d="M150.361358,163.317878 C150.361358,163.317878 139.22202,116.286347 125.954068,109.935619 L113.13927,116.966592 L118.355985,151.593361 L150.361358,163.317878 Z" id="Shirt" fill="#1BB3BC"></path>
                </g>
            </g>
        </g>
    </g>
</svg>