<?xml version="1.0" encoding="UTF-8"?>
<svg width="87px" height="111px" viewBox="0 0 87 111" version="1.1" xmlns="http://www.w3.org/2000/svg" xmlns:xlink="http://www.w3.org/1999/xlink">
    <title>3B8EB17F-B0B5-4A62-B4B6-2E3FA3FC02BD</title>
    <g id="Costs-&amp;-Charges-Reporting" stroke="none" stroke-width="1" fill="none" fill-rule="evenodd">
        <g id="Special_CCR_feed_-04-A" transform="translate(-99.000000, -286.000000)">
            <g id="Group-16" transform="translate(48.000000, 160.000000)">
                <g id="Group-17" transform="translate(25.000000, 87.000000)">
                    <g id="Group-10" transform="translate(26.000000, 39.000000)">
                        <g id="Group-11" transform="translate(0.000000, 0.742786)">
                            <g id="Group-14" transform="translate(0.395908, 0.000000)">
                                <g id="Group-9" fill-rule="nonzero">
                                    <g id="Group-Copy-3" transform="translate(-0.000000, 8.055936)">
                                        <path d="M2.59949531,100.123776 C1.2523624,100.123776 0.152566127,99.069993 0.0871488444,97.7456113 L0.0840704,97.6206816 L0.0840704,2.5030944 C0.0840704,1.16256508 1.14304446,0.0681599639 2.47395024,0.00306335403 L2.59949531,0 L42.7255535,0 C43.3450334,0 43.9409533,0.227389601 44.4006205,0.635718766 L44.5042276,0.733139376 L69.7389703,25.8441824 C70.1723576,26.2754453 70.4314439,26.8480647 70.4705415,27.453531 L70.4756381,27.5937877 L70.4956434,30.1170316 L70.515968,30.1175615 L70.515968,97.6206816 C70.515968,99.0031025 69.3897757,100.123776 68.0005449,100.123776 L2.59949531,100.123776 Z" id="Path" fill="#9BC3D3"></path>
                                        <path d="M48.789763,0.00062864858 C49.3806045,0.0142067494 49.9462982,0.23777204 50.3852565,0.629407784 L50.4842586,0.722749683 L75.3362247,25.478905 C75.7630381,25.9040729 76.0181944,26.4685996 76.0566989,27.0655091 L76.0617182,27.2037836 L76.065968,27.6422353 C75.8728341,28.7688356 74.9134389,29.6340501 73.7424492,29.6891048 L73.6162016,29.6918784 L48.9624171,29.6125848 C47.6432383,29.6083594 46.5667172,28.5773163 46.4967308,27.2791829 L46.4931417,27.1567236 L46.3740896,2.47953531 C46.3676657,1.11666754 47.4714406,0.00654176532 48.8395829,0 L48.789763,0.00062864858 Z" id="Path" fill="#C3DEE7"></path>
                                    </g>
                                    <g id="Group-Copy" transform="translate(4.603392, 4.603392)" fill="#C3DEE7">
                                        <path d="M2.59949531,100.123776 C1.2523624,100.123776 0.152566127,99.069993 0.0871488444,97.7456113 L0.0840704,97.6206816 L0.0840704,2.5030944 C0.0840704,1.16256508 1.14304446,0.0681599639 2.47395024,0.00306335403 L2.59949531,0 L42.7255535,0 C43.3450334,0 43.9409533,0.227389601 44.4006205,0.635718766 L44.5042276,0.733139376 L69.7389703,25.8441824 C70.1723576,26.2754453 70.4314439,26.8480647 70.4705415,27.453531 L70.4756381,27.5937877 L70.4956434,30.1170316 L70.515968,30.1175615 L70.515968,97.6206816 C70.515968,99.0031025 69.3897757,100.123776 68.0005449,100.123776 L2.59949531,100.123776 Z" id="Path"></path>
                                        <path d="M48.789763,0.00062864858 C49.3806045,0.0142067494 49.9462982,0.23777204 50.3852565,0.629407784 L50.4842586,0.722749683 L75.3362247,25.478905 C75.7630381,25.9040729 76.0181944,26.4685996 76.0566989,27.0655091 L76.0617182,27.2037836 L76.065968,27.6422353 C75.8728341,28.7688356 74.9134389,29.6340501 73.7424492,29.6891048 L73.6162016,29.6918784 L48.9624171,29.6125848 C47.6432383,29.6083594 46.5667172,28.5773163 46.4967308,27.2791829 L46.4931417,27.1567236 L46.3740896,2.47953531 C46.3676657,1.11666754 47.4714406,0.00654176532 48.8395829,0 L48.789763,0.00062864858 Z" id="Path"></path>
                                    </g>
                                    <g id="Group-Copy-2" transform="translate(9.316784, 0.000000)">
                                        <path d="M8.03949531,100.123776 C6.6923624,100.123776 5.59256613,99.069993 5.52714884,97.7456113 L5.5240704,97.6206816 L5.5240704,2.5030944 C5.5240704,1.16256508 6.58304446,0.0681599639 7.91395024,0.00306335403 L8.03949531,0 L48.1655535,0 C48.7850334,0 49.3809533,0.227389601 49.8406205,0.635718766 L49.9442276,0.733139376 L75.1789703,25.8441824 C75.6123576,26.2754453 75.8714439,26.8480647 75.9105415,27.453531 L75.9156381,27.5937877 L75.9356434,30.1170316 L75.955968,30.1175615 L75.955968,97.6206816 C75.955968,99.0031025 74.8297757,100.123776 73.4405449,100.123776 L8.03949531,100.123776 Z" id="Path" fill="#C3DEE7"></path>
                                        <path d="M3.20593371,100.123776 C1.8588008,100.123776 0.759004527,99.069993 0.693587244,97.7456113 L0.6905088,97.6206816 L0.6905088,2.5030944 C0.6905088,1.16256508 1.74948286,0.0681599639 3.08038864,0.00306335403 L3.20593371,0 L46.9542038,0 L70.3454087,25.8441824 C70.778796,26.2754453 71.0378823,26.8480647 71.0769799,27.453531 L71.0820765,27.5937877 L71.1020818,30.1170316 L71.1224064,30.1175615 L71.1224064,97.6206816 C71.1224064,99.0031025 69.9962141,100.123776 68.6069833,100.123776 L3.20593371,100.123776 Z" id="Path" fill="#DEEDF2"></path>
                                        <path d="M44.192,2.27373675e-13 L-2.84217094e-14,75.957 L0.00020314109,2.52019143 C0.00020314109,1.17072173 1.06921303,0.0690177085 2.41273171,0.00348695055 L2.53946657,0.000403166122 L44.192,2.27373675e-13 Z" id="Combined-Shape" fill-opacity="0.2" fill="#FFFFFF"></path>
                                        <path d="M48.679763,0.00062864858 C49.2706045,0.0142067494 49.8362982,0.23777204 50.2752565,0.629407784 L50.3742586,0.722749683 L75.2262247,25.478905 C75.6530381,25.9040729 75.9081944,26.4685996 75.9466989,27.0655091 L75.9517182,27.2037836 L75.955968,27.6422353 C75.7628341,28.7688356 74.8034389,29.6340501 73.6324492,29.6891048 L73.5062016,29.6918784 L48.8524171,29.6125848 C47.5332383,29.6083594 46.4567172,28.5773163 46.3867308,27.2791829 L46.3831417,27.1567236 L46.2640896,2.47953531 C46.2576657,1.11666754 47.3614406,0.00654176532 48.7295829,0 L48.679763,0.00062864858 Z" id="Path" fill="#C3DEE7"></path>
                                        <path d="M47.1905444,2.27373675e-13 L47.3394722,0.00434243192 L47.4708079,0.0154185205 L47.6190697,0.0362056252 L47.7628864,0.0649712985 L47.8633275,0.0902444667 L47.9739731,0.123199567 L48.0643086,0.154232277 L48.1978576,0.207247409 L48.3246495,0.265955353 L48.4640332,0.34071493 L48.5211155,0.374669095 C48.6159187,0.432767132 48.7069259,0.497097703 48.7936279,0.567486344 L48.8772644,0.638459389 L48.9783049,0.733139376 L62.1455088,13.77 L11.7875088,100.123 L3.2187839,100.123776 C1.86476908,100.123776 0.759354441,99.069993 0.693602971,97.7456113 L0.6905088,97.6206816 L0.6905088,2.5030944 C0.6905088,1.16256508 1.75489269,0.0681599639 3.09259747,0.00306335403 L3.2187839,2.27373675e-13 L47.1905444,2.27373675e-13 Z" id="Combined-Shape" fill-opacity="0.15" fill="#FFFFFF"></path>
                                    </g>
                                </g>
                                <rect id="Rectangle" fill="#9BC3D3" x="16.3640916" y="72.15" width="57.72" height="2.22" rx="1.11"></rect>
                                <rect id="Rectangle-Copy-7" fill="#9BC3D3" x="16.3640916" y="76.59" width="57.72" height="2.22" rx="1.11"></rect>
                                <rect id="Rectangle-Copy-8" fill="#9BC3D3" x="16.3640916" y="81.03" width="45.51" height="2.22" rx="1.11"></rect>
                                <rect id="Rectangle-Copy-9" fill="#9BC3D3" x="16.3640916" y="16.65" width="33.3" height="4.44" rx="2.22"></rect>
                                <g id="Group-13" transform="translate(24.689092, 32.190000)">
                                    <g id="Group-12" transform="translate(3.885000, 0.367214)" fill="#EC0000">
                                        <rect id="Rectangle" x="5.91526828e-15" y="11.1" width="6.438" height="17.76" rx="1.11"></rect>
                                        <rect id="Rectangle-Copy-5" x="12.876" y="3.75103448" width="6.438" height="25.1089655" rx="1.11"></rect>
                                        <rect id="Rectangle-Copy-6" x="25.752" y="0" width="6.438" height="28.86" rx="1.11"></rect>
                                    </g>
                                    <rect id="Rectangle" fill="#B5B5B5" transform="translate(20.535000, 29.782214) scale(1, -1) translate(-20.535000, -29.782214) " x="0.555" y="29.2272139" width="39.96" height="1.11" rx="0.555"></rect>
                                </g>
                            </g>
                        </g>
                    </g>
                </g>
            </g>
        </g>
    </g>
</svg>