<?xml version="1.0" encoding="UTF-8"?>
<svg width="132px" height="133px" viewBox="0 0 132 133" version="1.1" xmlns="http://www.w3.org/2000/svg" xmlns:xlink="http://www.w3.org/1999/xlink">
    <title>attention</title>
    <g id="🟢-Employee-supplier-onboarding" stroke="none" stroke-width="1" fill="none" fill-rule="evenodd">
        <g id="SMT-04D" transform="translate(-905.000000, -18.000000)">
            <g id="Components/Overlays/Notification-Modal/Alert/Dual-button" transform="translate(450.000000, 18.500000)">
                <g id="attention" transform="translate(184.000000, 0.000000)">
                    <g id="Components/Overlays/Notification-Modal/Info/Dual-button" transform="translate(87.000000, 0.000000)">
                        <g id="attention" transform="translate(184.000000, 0.000000)">
                            <circle id="Oval" fill="#257FA4" cx="66" cy="66" r="66"></circle>
                            <path d="M71.6567722,75.2702703 L71.6567722,35.7297297 C71.6567722,32.5652874 69.0914848,30 65.9270425,30 C62.7626001,30 60.1973128,32.5652874 60.1973128,35.7297297 L60.1973128,75.2702703 C60.1973128,78.4347126 62.7626001,81 65.9270425,81 C69.0914848,81 71.6567722,78.4347126 71.6567722,75.2702703 Z M66.0355183,106 C67.5593278,106 68.9198721,105.637188 70.117151,104.911565 C71.3144299,104.185941 72.2577405,103.22449 72.9470829,102.027211 C73.6364253,100.829932 73.9810965,99.5056689 73.9810965,98.0544218 C73.9810965,96.6031746 73.6364253,95.260771 72.9470829,94.0272109 C72.2577405,92.7936508 71.3144299,91.814059 70.117151,91.0884354 C68.9198721,90.3628118 67.5593278,90 66.0355183,90 C64.5117088,90 63.133024,90.3628118 61.8994639,91.0884354 C60.6659038,91.814059 59.7044526,92.7936508 59.0151101,94.0272109 C58.3257677,95.260771 57.9810965,96.6031746 57.9810965,98.0544218 C57.9810965,99.5056689 58.3257677,100.829932 59.0151101,102.027211 C59.7044526,103.22449 60.6659038,104.185941 61.8994639,104.911565 C63.133024,105.637188 64.5117088,106 66.0355183,106 Z" id="!" fill="#FFFFFF" fill-rule="nonzero" transform="translate(65.981097, 68.000000) rotate(-180.000000) translate(-65.981097, -68.000000) "></path>
                        </g>
                    </g>
                </g>
            </g>
        </g>
    </g>
</svg>