<?xml version="1.0" encoding="UTF-8"?>
<svg width="403px" height="269px" viewBox="0 0 403 269" version="1.1" xmlns="http://www.w3.org/2000/svg" xmlns:xlink="http://www.w3.org/1999/xlink">
    <title>_02._Login</title>
    <g id="Confirming---MVP02-V03" stroke="none" stroke-width="1" fill="none" fill-rule="evenodd">
        <g id="Invoices-01A-3" transform="translate(-825.000000, -474.000000)">
            <g id="_02._Login" transform="translate(825.094000, 474.294000)">
                <g id="Ilustracao">
                    <rect id="Retângulo_4516" fill="#FFFFFF" fill-rule="nonzero" opacity="0" x="0.998" y="19.553" width="400" height="226"></rect>
                    <g id="ilustracao-2" transform="translate(-0.002000, 0.000000)">
                        <path d="M371.357,75.289 C371.357,75.289 415.363,105.701 396.136,140.608 C388.486,154.501 373.71,167.814 357.353,179.458 C333.087,196.73 305.447,210.008 294.453,214.918 C273.856027,224.103628 251.817532,229.634485 229.324,231.263 C224.424,231.623 219.613,231.804 214.624,231.804 C211.507,231.804 232.083,228.731 195.424,231.263 C158.765,233.795 132.492,276.93 99.115,266.105 C65.738,255.28 78.109,231.385 61.915,187.96 C45.721,144.535 -10.339,92.974 2.915,57.637 C16.552,21.283 55.382,42.81 87.675,29.706 C109.999,20.648 113.312,-3.03 160.284,1.206 C207.256,5.442 200.091,33.346 265.475,46.487 L371.357,75.289 Z" id="Caminho_11975" fill="#EFF6F9"></path>
                        <path d="M71.535,64.415 C116.807,29.265 229.635,18.431 313.935,34.398 C398.235,50.365 365.413,93.385 365.413,93.385 L276.235,174.998 C276.235,174.998 194.845,211.366 132.835,174.998 C70.825,138.63 26.258,99.565 71.535,64.415 Z" id="Caminho_11971" fill="#9BC3D3"></path>
                        <path d="M68.938,57.489 C114.21,22.339 227.038,11.505 311.338,27.472 C395.638,43.439 362.816,86.459 362.816,86.459 L273.638,168.072 C273.638,168.072 192.248,204.44 130.238,168.072 C68.228,131.704 23.661,92.639 68.938,57.489 Z" id="Caminho_11970" fill="#CEDEE7"></path>
                        <polygon id="Caminho_6373" fill="#1BB3BC" points="162.464 160.892 152.915 123.752 196.636 112.552 206.109 149.7"></polygon>
                        <polygon id="Caminho_6374" fill="#FFFFFF" points="159.24 169.378 149.691 132.23 193.334 121.039 202.885 158.179"></polygon>
                        <path d="M276.584,227.956 C288.704788,223.384307 300.025277,216.922303 310.125,208.81 L315.547,219.646 C305.047,228.246 295.93,234.053 283.305,238.804 C266.338,245.157 243.36,244.593 224.891,243.346 L224.891,235.556 C242.464448,236.679295 260.077502,234.089792 276.584,227.956" id="Caminho_6404" fill="#34466B"></path>
                        <path d="M178.059,139.272 L176.717,126.866 L171.508,118.421 C170.380901,116.515687 169.5561,114.447106 169.063,112.289 L166.934,102.989 C166.852,102.863 166.934,102.728 167.09,102.657 C167.903973,102.170831 168.957426,102.427185 169.457,103.233 L174.666,111.756 L176.008,95.885 C176.160817,93.9826006 177.434241,92.355011 179.244,91.749 C179.797,91.568 180.584,91.331 181.297,91.086 C183.129996,90.5172531 185.098158,91.4131626 185.873,93.169 C185.873,93.169 194.711,116.069 191.555,126.339 L190.924,128.273 L190.529,143.591 L178.059,139.272 Z" id="Caminho_6408" fill="#FFC4B8"></path>
                        <path d="M332.43,190.018 C328.426728,195.653836 324.133272,201.077817 319.567,206.268 C296.553991,232.203642 261.389762,243.789511 227.467,236.613 C227.229,236.566 226.994,236.513 226.756,236.455 C224.072,235.887 221.389,235.177 218.705,234.355 C215.171727,233.260017 211.987676,231.256968 209.471,228.546 C206.913485,225.848036 205.116808,222.520371 204.264,218.902 L204.186,218.902 C202.606,218.697 176.879,215.035 176.879,190.467 L176.096,130.322 L193.696,129.304 L201.344,175.512 C201.542349,177.436515 202.605652,179.1662 204.23331,180.212065 C205.860967,181.25793 207.876092,181.506315 209.709,180.887 L258.088,164.661 L291.549,152.255 L321.697,141.111 C321.697,141.111 350.74,164.377 332.429,190.018" id="Caminho_6409" fill="#FFCC33"></path>
                        <path d="M225.377,236.329 C222.695,235.761 218.467,235.177 215.783,234.364 C212.25034,233.263548 209.066978,231.258175 206.549,228.547 C203.991876,225.851588 202.194561,222.526779 201.34,218.911 C207.254974,219.29521 213.190784,218.610609 218.863,216.89 L225.377,236.329 Z" id="Caminho_6410" fill="#34466B"></path>
                        <path d="M240.047,76.806 L230.258,72.339 C229.541971,72.0005448 229.003755,71.3734355 228.777824,70.614354 C228.551894,69.8552724 228.659588,69.0359163 229.074,68.361 C229.781297,67.2568422 231.158049,66.7883814 232.392,67.232 L243.283,71.17 L240.047,76.806 Z" id="Caminho_6416" fill="#FFC5B8" fill-rule="nonzero"></path>
                        <path d="M312.426,149.853 C307.956973,165.742501 291.472524,175.019057 275.571,170.593 C274.741622,170.370259 273.924783,170.103209 273.124,169.793 C271.484707,169.189032 269.900791,168.444251 268.39,167.567 L268.39,167.553 C267.759,167.166 267.126,166.748 266.495,166.322 L266.495,166.298 C265.741757,165.814673 265.029074,165.27088 264.364,164.672 C264.126,164.483 263.891,164.294 263.655,164.096 C260.561768,161.316903 258.087559,157.918359 256.393,154.121 C256.147428,153.663779 255.936502,153.18878 255.762,152.7 C255.606,152.266 255.446,151.824 255.289,151.374 C255.051,150.75 254.889,150.127 254.656,149.48 C254.422,148.359 254.181,147.215 254.025,146.055 C253.960597,145.892084 253.93393,145.716696 253.947,145.542 C253.788996,144.674913 253.709,143.795366 253.709,142.914 L253.709,140.894 C253.709,140.349 253.789,139.805 253.789,139.268 C253.938322,137.398418 254.28184,135.549455 254.814,133.751 C256.943235,126.107703 262.024536,119.624854 268.937897,115.731388 C275.851257,111.837921 284.029141,110.853461 291.669,112.995 C307.555187,117.470088 316.83404,133.946356 312.425,149.851" id="Caminho_6417" fill="#FFC5B8" fill-rule="nonzero"></path>
                        <polygon id="Caminho_6426" fill="#9BC3D3" points="215.228 27.327 209.998 39.594 196.482 39.594 191.341 27.327"></polygon>
                        <path d="M280.308,43.354 L280.308,43.401 L126.138,43.401 L126.138,43.354 C126.138,39.1947288 129.498773,35.8172686 133.658,35.7979997 L272.787,35.7979997 C274.787846,35.7974422 276.706375,36.5944943 278.117804,38.0126802 C279.529233,39.4308661 280.317113,41.3531799 280.308,43.354" id="Caminho_6427" fill="#FFFFFF"></path>
                        <polygon id="Caminho_6437" fill="#9BC3D3" points="126.138 43.4 160.204 51.594 246.238 51.594 280.306 43.4"></polygon>
                        <g id="Telemovel" transform="translate(168.000000, 89.000000)" fill="#FFFFFF" fill-rule="nonzero">
                            <path d="M23.811,31.531 L13.868,35.588 C12.7541246,36.0314121 11.490296,35.5013333 11.026,34.396 L0.214,7.879 C-0.208088225,6.77446594 0.313565797,5.53333471 1.398,5.062 L11.343,1.013 C12.4541461,0.567055851 13.7176833,1.09382629 14.183,2.197 L24.996,28.714 C25.2180802,29.2440504 25.2177436,29.8411285 24.995066,30.3709282 C24.7723884,30.9007278 24.3460677,31.3187626 23.812,31.531" id="Caminho_6420"></path>
                            <path d="M14.216,34.637 C13.2355066,35.0257582 12.1241942,34.5585625 11.716,33.586 L1.216,8.135 C0.845478696,7.16025679 1.30652868,6.06641902 2.263,5.651 L11.025,2.083 C12.0049845,1.68995441 13.1192657,2.15371948 13.531,3.126 L24.031,28.577 C24.2255799,29.0444837 24.2245429,29.5704759 24.0281213,30.0371888 C23.8316997,30.5039017 23.4563046,30.8723408 22.986,31.06" id="Caminho_6444"></path>
                        </g>
                        <path d="M247.366592,67.815335 L247.366592,76.4792229 C247.366592,80.2701993 245.344474,83.7733013 242.061481,85.6689442 C238.778489,87.5645871 234.733565,87.5647778 231.450394,85.6694443 C228.167223,83.7741108 226.144417,80.2711994 226.144417,76.480223 L226.144417,67.8163351 C226.144417,64.0255373 228.166783,60.5226956 231.449711,58.6272967 C234.732638,56.7318978 238.777371,56.7318978 242.060298,58.6272967 C245.343225,60.5226956 247.365592,64.0255373 247.365592,67.8163351" id="Caminho_6424" fill="#34466B" transform="translate(236.755504, 72.148279) rotate(-40.010958) translate(-236.755504, -72.148279) "></path>
                        <path d="M254.456855,91.0809672 L247.805173,102.617149 L239.983371,99.9168727 L238.910261,76.7614997 C238.802094,74.4007801 239.307213,72.0522902 240.376412,69.9448011 L242.723652,65.2443193 C243.320245,64.0505415 244.485775,63.244659 245.813315,63.1080333 C247.140855,62.9714076 248.446092,63.5230074 249.273323,64.5702503 L254.848895,71.4989603 C255.443479,72.2737557 255.722557,73.2449906 255.629975,74.2172389 L254.456855,91.0809672 Z" id="Caminho_6425" fill="#FFC4B8" transform="translate(247.271650, 82.852324) rotate(-40.010958) translate(-247.271650, -82.852324) "></path>
                        <path d="M299.926,168.44 C296.61,176.774 284.375,181.64 272.617,179.307 C262.357,177.271 256.484,172.745 256.652,165.139 L278.535,155.031 L289.98,150.801 C298.347,154.344 302.607,161.495 299.925,168.44" id="Caminho_6412" fill="#FFC4B8"></path>
                        <path d="M261.447,89.539 L246.933,98.063 L278.992,168.663 C278.992,168.663 321.912,142.233 322.148,141.522" id="Caminho_6413" fill="#FFCC33"></path>
                        <path d="M261.975,140.096 L260.791,130.996 L257.791,128.581 C256.213,127.322 249.721,129.081 249.635,126.925 C256.004,124.551 253.406,124.696 258.998,118.441 C268.74,110.295 276.887,108.451 286.355,110.55 C289.112106,111.099982 291.755725,112.114417 294.173,113.55 C295.23386,114.243338 296.059252,115.242386 296.54,116.415 L261.975,140.096 Z" id="Caminho_6414" fill="#6A2C46" fill-rule="nonzero"></path>
                        <path d="M313.451,142.936 C313.378184,145.270087 313.033525,147.587728 312.424,149.842 C311.443537,153.273176 309.868293,156.505576 307.77,159.392 C298.526,172.066 279.284,176.463 267.256,168.713 C263.156,166.071 258.838,158.413 258.838,158.413 L255.76,152.69 C255.604,152.256 255.444,151.814 255.287,151.364 C255.061911,150.745287 254.87719,150.112625 254.734,149.47 C254.496,148.625 254.259,147.77 254.103,146.889 C254.103,146.613 254.023,146.329 254.023,146.045 C253.958563,145.882093 253.931895,145.706697 253.945,145.532 C253.787006,144.664911 253.707,143.785365 253.707,142.904 L253.707,140.884 C253.707,140.339 253.787,139.795 253.787,139.258 C253.921761,137.889576 254.133092,136.529778 254.42,135.185 C254.574,134.704 254.654,134.222 254.813,133.741 C255.346897,131.82864 256.060405,129.97104 256.944,128.193 C263.424424,115.505358 277.949733,109.143921 291.669,112.985 C305.245,116.785 319.98,127.365 319.429,140.885" id="Caminho_6418" fill="#732645"></path>
                    </g>
                </g>
                <path d="M258.945,158.53 C258.945,158.53 261.754,185.986 286.721,197.863 C311.688,209.74 329.326,187.694 329.326,187.694 C329.326,187.694 325.812,182.011 320.9,180.336 C315.988,178.661 309.677,180.994 309.677,180.994 C309.677,180.994 321.282,158.319 319.446,140.665 C317.61,123.011 258.945,158.53 258.945,158.53 Z" id="Caminho_12126" fill="#732645"></path>
            </g>
        </g>
    </g>
</svg>