<?xml version="1.0" encoding="UTF-8"?>
<svg width="282px" height="200px" viewBox="0 0 282 200" version="1.1" xmlns="http://www.w3.org/2000/svg" xmlns:xlink="http://www.w3.org/1999/xlink">
    <title>71C77CA6-06F7-45D9-B04C-1703FDED5DD2</title>
    <g id="Costs-&amp;-Charges-Reporting" stroke="none" stroke-width="1" fill="none" fill-rule="evenodd">
        <g id="Special_CCR_mifid_-05-A-empty-state" transform="translate(-257.000000, -201.000000)">
            <g id="ilustracion" transform="translate(257.000000, 201.000000)">
                <path d="M109.074823,172.635091 C108.33542,171.950345 107.610157,171.257739 106.899032,170.557351 C92.5784019,156.458138 73.6056875,147.256091 53.0444627,143.797454 C40.5645215,141.698217 28.6230387,136.180718 18.9737883,127.244572 C-6.29976227,103.839602 -6.32845677,66.0957141 18.9109931,42.6585366 C30.0450379,32.3199198 44.2421572,26.5426841 58.7999954,25.3252884 C71.2630526,24.2827971 82.9726507,19.2460153 91.6194237,10.8660185 C91.7308747,10.758148 91.8431575,10.6510481 91.9554403,10.5447186 C106.706072,-3.39446143 130.567413,-3.53238157 145.496866,10.2411402 C145.582533,10.3197315 145.667369,10.3990934 145.751373,10.4784553 C149.739492,14.2277256 155.495856,15.8650457 161.0734,14.86185 C192.87355,9.14163157 227.072393,17.6888276 251.702247,40.5049792 C291.05695,76.9621258 291.05695,136.178099 251.702247,172.635631 C212.315939,209.121671 148.4603,209.12144 109.074823,172.635091" id="Primary-color" fill="#DEEDF2"></path>
                <path d="M76.8049426,127.236289 C76.8049426,129.553253 68.0129447,131.431443 57.1674811,131.431443 C46.3220175,131.431443 37.5299806,129.553253 37.5299806,127.236289 C37.5299806,124.919325 46.3220175,123.041134 57.1674811,123.041134 C68.0129447,123.041134 76.8049426,124.919325 76.8049426,127.236289" id="Fill-1" fill="#9BC3D3" transform="translate(57.167462, 127.236289) scale(-1, 1) translate(-57.167462, -127.236289) "></path>
                <path d="M58.7776302,109.584239 C56.9730892,113.046152 53.8454609,115.176911 50.988748,115.189079 C50.1270757,115.193176 49.2935099,115.002416 48.5246151,114.600598 C48.1848649,114.422069 47.8693174,114.206977 47.5820066,113.959353 C45.0774056,111.828594 44.6606227,107.343917 46.7606723,103.297623 C48.2617674,100.412023 50.6853019,98.4557584 53.1049328,97.8794452 C54.4644544,97.5507553 55.8199422,97.6562848 57.0135573,98.2813941 C60.0763845,99.8885391 60.9868528,104.336652 59.2510165,108.561475 C59.1134768,108.902396 58.955638,109.247351 58.7776302,109.584239 M58.8990347,94.6570876 C57.2725014,93.8047841 55.431526,93.6180581 53.5783191,93.9995778 C49.9773045,94.7300864 46.3276241,97.6074888 44.0941987,101.901537 C40.7076264,108.411313 41.8485419,115.720824 46.6392679,118.224774 C46.9467477,118.387167 47.2622952,118.521063 47.5820066,118.63479 C48.5166776,118.967514 49.5039183,119.105574 50.511458,119.064976 C54.5534583,118.902583 58.9111361,115.858754 61.4441038,110.980455 C61.8608867,110.180851 62.2046708,109.37318 62.4879478,108.561475 C64.4948296,102.749676 63.1029075,96.8568112 58.8990347,94.6570876" id="Fill-2" fill="#C3DEE7" transform="translate(52.769061, 106.441434) scale(-1, 1) translate(-52.769061, -106.441434) "></path>
                <path d="M85.0976208,87.051418 C85.0976208,87.0717171 85.093587,87.0879825 85.0895532,87.1082816 L85.0895532,87.1164793 L84.2479198,93.9997079 L83.7745336,97.8795753 L82.4675815,108.561605 L81.6583487,115.189142 L81.1809287,119.064911 L80.9422837,121.033407 C80.6670743,123.269564 79.6959689,125.262393 78.2516073,126.804477 C76.3740674,128.825672 73.6956226,130.071596 70.7581035,130.071596 L66.0929458,130.071596 C61.3589533,130.071596 57.2966539,126.837007 56.1515745,122.332031 C56.0543728,121.97081 55.9816343,121.597488 55.9289346,121.220002 L52.3238862,95.651485 L51.1181697,87.1164793 C51.1141359,87.0960501 51.1101021,87.0717171 51.1101021,87.051418 L85.0976208,87.051418 Z" id="Fill-3" fill="#C3DEE7" transform="translate(68.103861, 108.561507) scale(-1, 1) translate(-68.103861, -108.561507) "></path>
                <path d="M67.9460226,87.051418 C67.9460226,87.0717171 67.9419888,87.0879825 67.937955,87.1082816 L67.937955,87.1164793 L67.0963217,93.9997079 L66.6229354,97.8795753 L65.3159834,108.561605 L64.5067506,115.189142 L64.0293305,119.064911 L63.7906856,121.033407 C63.5154761,123.269564 62.5443707,125.262393 61.1000092,126.804477 C59.2224693,128.825672 56.5440244,130.071596 53.6065053,130.071596 L51.1101021,130.071596 C52.2996834,129.515712 53.3677302,128.732374 54.2538656,127.778575 C55.6983572,126.236361 56.6693325,124.243663 56.944542,122.007375 L57.183317,120.039009 L57.6607371,116.163241 L58.4699699,109.535703 L59.7769219,98.8536735 L60.2503082,94.973676 L61.0919416,88.0904475 L61.0919416,88.0822497 C61.0959754,88.0620807 61.1000092,88.0458154 61.1000092,88.0255163" id="Fill-4" fill="#FFFFFF" transform="translate(59.528062, 108.561507) scale(-1, 1) translate(-59.528062, -108.561507) "></path>
                <path d="M85.0993124,87.0520686 C85.0993124,87.5523903 83.3468204,88.0078196 80.488546,88.346659 C77.389935,88.7119133 72.9877553,88.9422304 68.1050325,88.9422304 C63.2224399,88.9422304 58.82013,88.7119133 55.7216492,88.346659 C52.8632447,88.0078196 51.1108828,87.5523903 51.1108828,87.0520686 C51.1108828,86.0090054 58.7198054,85.1619068 68.1050325,85.1619068 C77.4902596,85.1619068 85.0993124,86.0090054 85.0993124,87.0520686" id="Fill-5" fill="#990000" transform="translate(68.105098, 87.052069) scale(-1, 1) translate(-68.105098, -87.052069) "></path>
                <path d="M73.3525961,68.569443 L66.6553751,77.4465956 C65.2637336,79.2899222 64.5838876,81.5714133 64.7399639,83.872906 L64.9314269,86.6886778 L65.0493825,88.4186886 L65.0847692,88.9321895 C64.6491147,88.9384157 64.2051018,88.94184 63.7542146,88.94184 C63.3518377,88.94184 62.9550851,88.9391161 62.5652067,88.934213 C62.3224214,88.9307886 62.08237,88.9266638 61.8458339,88.9218386 L61.614766,88.4186886 L60.838462,86.7280581 L57.9858899,80.5174057 C56.1939806,76.6199977 57.2117576,72.0114089 60.4785022,69.2184403 C62.6726947,67.34266 63.8437359,64.654057 63.8437359,61.9178242 C63.8437359,60.4103979 63.4878381,58.8863944 62.7517484,57.4778081 L56.3050619,45.1490392 C55.5794398,43.7646569 56.1919496,42.0582276 57.6342104,41.443085 C57.9762035,41.2965372 58.3363195,41.226104 58.6941702,41.226104 C59.4670527,41.226104 60.2231401,41.5606034 60.7469879,42.1750456 L62.4270972,44.1496659 L72.9981044,56.5751734 C75.9130915,60.0012626 76.0608875,64.9782055 73.3525961,68.569443" id="Fill-6" fill="#F5F9FB" transform="translate(65.643615, 65.083972) scale(-1, 1) translate(-65.643615, -65.083972) "></path>
                <path d="M37.4228452,143.194024 L92.7180909,177.67293 C94.2302073,178.616307 96.0248639,178.972188 97.7783517,178.673486 C113.979054,175.922644 202.405765,160.40809 231.466394,155.35408 C237.695088,154.26768 240.049336,153.133555 234.082903,150.983017 C215.81156,144.388378 175.386806,129.798292 168.912624,127.479266 C168.273744,127.250551 167.599795,127.174312 166.93042,127.247349 L37.7213955,141.888362 C37.0512582,141.961398 36.8510557,142.838142 37.4228452,143.194024" id="Shadow" fill="#C3DEE7" transform="translate(137.310611, 152.998560) scale(-1, 1) translate(-137.310611, -152.998560) "></path>
                <path d="M238.857922,148.006814 L232.647526,149.213976 C213.374408,142.203227 176.452055,128.77883 170.293501,126.555255 C169.657671,126.326539 168.984636,126.247098 168.314347,126.316933 L48.7626176,139.166339 L43.1337694,135.71334 L43.1337694,140.246487 C43.0669843,140.519574 43.1558785,140.830932 43.4417733,141.011923 L98.6545289,175.630651 C100.163291,176.574179 101.954898,176.933111 103.711588,176.640812 C119.918694,173.93114 203.707354,159.566568 232.780181,154.582393 C236.550942,153.934365 238.90519,153.264228 238.847249,152.355616 C238.850298,152.355616 238.857922,152.349365 238.857922,152.349365 L238.857922,148.006814 Z" id="Shadow" fill="#9BC3D3" transform="translate(140.985297, 151.516203) scale(-1, 1) translate(-140.985297, -151.516203) "></path>
                <path d="M43.4517795,136.589474 L98.6643827,171.205 C100.170095,172.151578 101.964904,172.513712 103.721594,172.218363 C119.925346,169.505489 203.714463,155.144119 232.79034,150.159945 C239.015984,149.092604 241.37938,147.964883 235.417522,145.795285 C217.164476,139.156275 176.773267,124.467537 170.303659,122.132806 C169.66478,121.90409 168.99449,121.82465 168.3242,121.897686 L43.7535319,135.283964 C43.0832422,135.357001 42.87999,136.230543 43.4517795,136.589474" id="Base" fill="#C3DEE7" transform="translate(140.989614, 147.095058) scale(-1, 1) translate(-140.989614, -147.095058) "></path>
                <path d="M113.758486,47.7423834 L132.951553,129.841748 C133.637701,132.443467 135.759726,134.095252 139.212724,133.736321 L260.02544,121.636645 C264.11686,121.239442 265.565394,117.656228 264.761686,114.873519 L242.668503,45.8364184 C242.166548,44.2765767 240.714813,43.2153354 239.075683,43.2153354 L117.436998,43.1146935 C115.006969,43.1101261 113.205756,45.3725828 113.758486,47.7423834" id="Cover" fill="#C3DEE7" transform="translate(189.316388, 88.449925) scale(-1, 1) translate(-189.316388, -88.449925) "></path>
                <path d="M117.584178,50.9561453 L135.135066,126.638812 C135.54157,128.395502 137.19976,129.573998 138.991367,129.383402 L256.560892,117.918946 C259.0481,117.633051 259.689877,115.854252 259.000527,113.557488 L239.022812,49.7457813 C238.546321,48.2687346 237.170824,47.2648248 235.620589,47.2616228 L120.455934,47.868482 C118.15917,47.86528 117.063316,48.7133582 117.584178,50.9561453" id="Screen" fill="#F5F9FB" transform="translate(188.358241, 88.332600) scale(-1, 1) translate(-188.358241, -88.332600) "></path>
                <polygon id="Keyboard" fill="#9BC3D3" transform="translate(140.896349, 146.700515) scale(-1, 1) translate(-140.896349, -146.700515) " points="74.6860995 141.744487 107.595863 164.467012 207.106599 146.446974 169.015508 128.934017"></polygon>
            </g>
        </g>
    </g>
</svg>