<?xml version="1.0" encoding="UTF-8"?>
<svg width="571px" height="301px" viewBox="0 0 571 301" version="1.1" xmlns="http://www.w3.org/2000/svg" xmlns:xlink="http://www.w3.org/1999/xlink">
    <title>E8781420-CF76-42D5-BCCE-07C07F652EE4</title>
    <g id="MVP-1" stroke="none" stroke-width="1" fill="none" fill-rule="evenodd">
        <g id="Employee_VDR_00B" transform="translate(-689.000000, -198.000000)">
            <g id="Group-8" transform="translate(210.000000, 198.000000)">
                <g id="Group-3" transform="translate(479.000000, 0.000000)">
                    <path d="M351.5,0 C472.726503,0 571,67.3811452 571,150.5 C571,233.618855 472.726503,301 351.5,301 C340.824593,301 330.327183,300.477469 320.059207,299.467674 C303.995202,300.473939 287.429218,301 270.5,301 C121.106975,301 0,260.034055 0,209.5 C0,175.818021 53.8017081,146.38667 133.920725,130.502887 C148.183167,56.8380864 240.160798,0 351.5,0 Z" id="Combined-Shape" fill="#DEEDF2"></path>
                    <g id="Objects/Devices/Laptop_04" transform="translate(10.000000, 56.000000)">
                        <g id="Laptop">
                            <path d="M44.501279,150.856694 L127.259848,202.351754 C129.522983,203.760709 132.208986,204.292227 134.833373,203.846107 C159.080429,199.737661 291.425769,176.566307 334.919853,169.018025 C344.242133,167.395461 347.765658,165.701618 338.835895,162.489738 C311.48978,152.64049 250.987384,130.849853 241.29769,127.386333 C240.3415,127.044741 239.332822,126.930877 238.330991,127.039959 L44.9481095,148.906657 C43.9451371,149.015739 43.6455005,150.325176 44.501279,150.856694" id="Shadow" fill="#C3DEE7"></path>
                            <path d="M332,157.713052 L322.704009,159.53166 C293.855168,148.96986 238.588184,128.745799 229.369793,125.395949 C228.418055,125.051385 227.410628,124.931707 226.407309,125.036914 L47.4570827,144.394741 L39.0315779,139.192745 L39.0315779,146.022001 C38.9316112,146.43341 39.0646719,146.902476 39.4926116,147.175141 L122.137465,199.328785 C124.395845,200.750226 127.077601,201.290962 129.70709,200.850609 C153.966592,196.768446 279.385101,175.127999 322.902573,167.619263 C328.546812,166.642999 332.070753,165.633427 331.984024,164.26459 C331.988588,164.26459 332,164.255171 332,164.255171 L332,157.713052 Z" id="Shadow" fill="#9BC3D3"></path>
                            <path d="M39.4997124,140.173103 L122.145139,192.322167 C124.398976,193.748209 127.08555,194.293771 129.715066,193.848822 C153.969781,189.761816 279.39019,168.126091 322.912649,160.61732 C332.231554,159.009348 335.769223,157.310411 326.845167,154.041863 C299.522951,144.040046 239.063046,121.911133 229.378962,118.393809 C228.42265,118.049243 227.419322,117.929564 226.415993,118.039595 L39.9513929,138.206323 C38.9480643,138.316354 38.6438248,139.632365 39.4997124,140.173103" id="Base" fill="#FFFFFF"></path>
                            <path d="M0.149847469,6.9412441 L28.8158178,130.085134 C29.8406191,133.987548 33.009988,136.465123 38.1672437,135.926748 L218.608112,117.777995 C224.718888,117.182215 226.882358,111.807619 225.681974,107.633731 L192.68451,4.08241638 C191.934811,1.74275177 189.766559,0.15095649 187.318422,0.15095649 L5.64392122,0 C2.01453041,-0.00685080006 -0.67568693,3.38669206 0.149847469,6.9412441" id="Cover" fill="#9BC3D3"></path>
                            <path d="M9.19084054,11.5322067 L35.429898,124.86002 C36.0376329,127.4905 38.5166716,129.25519 41.1951732,128.969789 L216.96483,111.802825 C220.683274,111.374724 221.642748,108.711136 220.612151,105.271944 L190.744921,9.71979822 C190.032554,7.50805716 187.976148,6.00479473 185.658503,6 L13.4841936,6.90871575 C10.0504686,6.90392101 8.41213744,8.17383985 9.19084054,11.5322067" id="Screen" fill="#DEEDF2"></path>
                            <polygon id="Keyboard" fill="#C3DEE7" points="78 142.863022 127.207888 171 276 148.686045 219.0448 127"></polygon>
                        </g>
                    </g>
                    <g id="Objects/Food-&amp;-Drinks/Cup-of-Coffee-02" transform="translate(378.000000, 57.000000)">
                        <g id="Group-7" transform="translate(0.239928, 0.000000)">
                            <path d="M63.4505514,156.930435 C63.4505514,160.009906 51.7233084,162.506205 37.2570416,162.506205 C22.7907748,162.506205 11.0634797,160.009906 11.0634797,156.930435 C11.0634797,153.850963 22.7907748,151.354664 37.2570416,151.354664 C51.7233084,151.354664 63.4505514,153.850963 63.4505514,156.930435" id="Fill-1" fill="#9BC3D3"></path>
                            <path d="M51.1383955,133.469136 C48.7314009,138.070357 44.5596008,140.902343 40.7491624,140.918516 C39.5998173,140.923962 38.4879621,140.670423 37.4623686,140.136367 C37.0091912,139.899085 36.588297,139.613206 36.2050662,139.28409 C32.8642937,136.452104 32.3083661,130.491529 35.1095261,125.113609 C37.111768,121.278365 40.3444096,118.678299 43.5718444,117.912322 C45.3852479,117.475461 47.1932709,117.61572 48.7853795,118.446551 C52.8707443,120.582604 54.0851762,126.494581 51.7698237,132.109783 C51.5863659,132.5629 51.3758319,133.02138 51.1383955,133.469136 M51.3003313,113.629494 C49.1307731,112.496699 46.6751804,112.248522 44.2032726,112.755599 C39.4000444,113.726516 34.5319029,117.550865 31.5528392,123.258074 C27.0356455,131.910203 28.5574604,141.625257 34.9475903,144.953251 C35.3577236,145.169087 35.7786178,145.347049 36.2050662,145.498203 C37.4517811,145.940425 38.7686161,146.123921 40.1125273,146.069962 C45.5039661,145.854126 51.3164728,141.808579 54.6950824,135.324844 C55.25101,134.262092 55.7095678,133.188618 56.0874181,132.109783 C58.7643057,124.385335 56.9076846,116.553141 51.3003313,113.629494" id="Fill-2" fill="#C3DEE7"></path>
                            <path d="M45.3366498,103.520816 C45.3366498,103.547796 45.3312693,103.569414 45.3258888,103.596393 L45.3258888,103.607289 L44.2032726,112.755772 L43.5718444,117.912495 L41.828561,132.109956 L40.7491624,140.9186 L40.1123537,146.069875 L39.7940361,148.686198 C39.4269469,151.658271 38.1316339,154.306934 36.2050662,156.356514 C33.7007018,159.04288 30.128047,160.698836 26.2098249,160.698836 L19.9871849,160.698836 C13.6727292,160.698836 8.25421427,156.399751 6.72684531,150.412197 C6.59719251,149.932099 6.50016987,149.435918 6.42987618,148.934202 L1.62126744,114.951145 L0.0130173491,103.607289 C0.00763684479,103.580137 0.00225634051,103.547796 0.00225634051,103.520816 L45.3366498,103.520816 Z" id="Fill-3" fill="#C3DEE7"></path>
                            <path d="M45.3366498,103.520816 C45.3366498,103.547796 45.3312693,103.569414 45.3258888,103.596393 L45.3258888,103.607289 L44.2032726,112.755772 L43.5718444,117.912495 L41.828561,132.109956 L40.7491624,140.9186 L40.1123537,146.069875 L39.7940361,148.686198 C39.4269469,151.658271 38.1316339,154.306934 36.2050662,156.356514 C33.7007018,159.04288 30.128047,160.698836 26.2098249,160.698836 L22.879987,160.698836 C24.4667151,159.960011 25.8913337,158.918878 27.073309,157.651186 C29.0000503,155.601433 30.2951897,152.952942 30.662279,149.980697 L30.9807701,147.364547 L31.6175788,142.213272 L32.6969774,133.404627 L34.4402608,119.207167 L35.071689,114.050271 L36.1943052,104.901788 L36.1943052,104.890892 C36.1996857,104.864086 36.2050662,104.842467 36.2050662,104.815488" id="Fill-4" fill="#FFFFFF"></path>
                            <path d="M45.3356084,103.521681 C45.3356084,104.186657 42.9980396,104.791967 39.1855184,105.242318 C35.0524233,105.727777 29.1805575,106.033891 22.6677174,106.033891 C16.1550509,106.033891 10.2830115,105.727777 6.15008996,105.242318 C2.3373952,104.791967 0,104.186657 0,103.521681 C0,102.135348 10.1491932,101.009471 22.6677174,101.009471 C35.1862417,101.009471 45.3356084,102.135348 45.3356084,103.521681" id="Fill-5" fill="#990000"></path>
                            <path d="M43.9939536,60.7620603 L29.1135616,80.4887688 C26.0215072,84.5849884 24.5109741,89.6548924 24.8577562,94.7692435 L25.2831632,101.02642 L25.5452458,104.87083 L25.6238706,106.011926 C24.6559005,106.025762 23.669359,106.033372 22.6675439,106.033372 C21.7735123,106.033372 20.8919774,106.027319 20.0257163,106.016423 C19.4862773,106.008813 18.9529131,105.999647 18.4273594,105.988925 L17.9139551,104.87083 L16.1891043,101.11393 L9.8510438,87.3126884 C5.86964419,78.6519122 8.13101807,68.410758 15.3893184,62.2042547 C20.2645412,58.0359168 22.866449,52.0613336 22.866449,45.9809077 C22.866449,42.6311219 22.0756884,39.2444987 20.4401886,36.114354 L6.11645313,8.71750236 C4.50421106,5.64114375 5.86513151,1.84913572 9.06965573,0.482172689 C9.82952178,0.156515884 10.6296548,-2.31024422e-14 11.4247545,-2.31024422e-14 C13.1420032,-2.31024422e-14 14.8219355,0.743320739 15.9858601,2.10872726 L19.7188539,6.49670627 L43.2063172,34.1085294 C49.6830559,41.7219462 50.0114402,52.7816526 43.9939536,60.7620603" id="Fill-6" fill="#C3DEE7"></path>
                        </g>
                    </g>
                </g>
            </g>
        </g>
    </g>
</svg>