<svg width="92" height="92" viewBox="0 0 92 92" fill="none" xmlns="http://www.w3.org/2000/svg">
<mask id="mask0_103_10114" style="mask-type:alpha" maskUnits="userSpaceOnUse" x="-6" y="-3" width="102" height="93">
<rect x="-6" y="-3" width="102" height="92.314" fill="#D9D9D9"/>
</mask>
<g mask="url(#mask0_103_10114)">
<path fill-rule="evenodd" clip-rule="evenodd" d="M78.2464 47.575C77.1367 43.5936 80.6646 43.44 80.7423 38.31C80.7739 36.2119 79.6246 34.075 76.859 33.0947C75.4998 32.6132 74.1451 32.2821 72.9357 31.5161C70.1797 29.7707 70.2296 26.4493 69.4776 23.618C67.8266 17.3996 61.4722 12.4593 55.0401 12.62C50.4032 12.7357 46.2111 12.8778 41.9839 16.8135C39.0913 19.5066 37.2114 22.8202 34.526 25.5966C31.6821 28.5366 28.2166 29.9472 24.3254 30.8919C20.6453 31.7852 16.642 32.848 13.8253 35.5269C11.1783 38.0443 11.5641 40.6773 12.699 43.7684C13.9507 47.1769 11.2368 49.4958 8.40709 50.8232C6.02452 51.9406 2.03624 54.2137 1.90577 58.405C1.50232 71.387 9.74831 71.439 12.8227 72.6729C41.1048 84.0238 51.9585 75.2688 63.9506 75.4459C75.9052 75.6222 82.758 61.1651 82.3427 56.9076C81.8157 51.5018 79.0215 50.3551 78.2464 47.575Z" fill="#CEDEE7"/>
<path fill-rule="evenodd" clip-rule="evenodd" d="M31.2051 69.0624C28.0989 69.8938 27.1317 71.7513 23.9226 72.0479C17.4773 72.6435 4.27909 70.5347 2.08946 73.419C-0.0691825 76.2625 2.10467 81.8021 13.5698 81.0114C13.3039 81.2007 18.916 84.6625 28.2433 86.1722C31.934 86.7696 38.1877 86.8688 40.6286 86.2979C44.3805 85.4204 48.2378 85.0774 52.0867 85.259C65.776 85.9053 76.6023 85.1028 76.8919 82.7651C76.9889 81.9838 76.2758 80.8414 75.0838 80.1227C74.3412 79.6749 75.4953 79.422 75.7645 79.3458C79.071 78.4105 80.9709 77.241 81.1087 76.2165C81.5412 73.0018 69.8602 68.9686 55.9878 67.2493C46.5371 66.078 36.3899 67.6745 31.2051 69.0624Z" fill="#DEEDF2"/>
<path fill-rule="evenodd" clip-rule="evenodd" d="M66.718 80.6211L67.0767 83.9534C67.6849 89.6051 65.6049 95.2144 61.4602 99.1013L56.028 104.195L63.4016 128.621L58.2212 133.99L45.6292 106.673C44.8893 103.658 45.1857 100.48 46.4708 97.6537L53.0956 83.0825L66.718 80.6211Z" fill="#9BC3D3"/>
<path fill-rule="evenodd" clip-rule="evenodd" d="M60.3643 138.313L63.4685 135.136L45.9475 104.178L55.9629 82.5402L43.482 84.883L38.7229 91.9292C34.0682 98.6127 33.3908 102.357 36.3241 106.687L54.2394 132.64L56.3123 136.8L60.3643 138.313Z" fill="#CEDEE7"/>
<rect width="71.4452" height="8.17746" transform="matrix(-1 0 0 1 91.5078 81.4817)" fill="white"/>
<path fill-rule="evenodd" clip-rule="evenodd" d="M42.7227 39.8234C43.1616 38.8872 43.7978 38.0093 44.6721 37.2621C47.22 35.0859 50.9782 34.8145 53.7979 36.6282C57.5705 39.055 58.4282 44.1069 55.7779 47.6197C55.4707 48.0268 55.1293 48.3928 54.7622 48.7207L59.0131 58.2996L49.4435 59.6892L46.3069 53.8293L45.1816 53.3402C43.2657 52.5076 41.9183 50.7478 41.6192 48.6874L41.5989 48.5496L40.6828 48.3829L41.5832 43.8961L42.7227 39.8234Z" fill="#F4A48D"/>
<path fill-rule="evenodd" clip-rule="evenodd" d="M46.0791 53.7673C46.0784 53.8246 46.0781 53.8825 46.0779 53.9411C46.0777 54.052 46.0777 54.1649 46.0777 54.1258C46.0777 54.0635 46.0777 54.0019 46.0779 53.9411C46.078 53.8671 46.0782 53.7939 46.0786 53.7673L46.0791 53.7673ZM52.4331 50.1219C52.446 50.1581 52.4588 50.2176 52.4742 50.3299C51.8715 52.2617 49.2875 54.0448 46.1004 53.7668C48.9141 53.6999 51.3819 51.7375 52.4331 50.1219ZM41.5913 48.5091L42.8534 45.1808L42.7667 47.6204C42.7454 48.2224 42.1764 48.6526 41.5913 48.5091Z" fill="#A66555"/>
<path d="M57.2162 40.6795C56.1512 37.624 53.236 35.4297 49.8058 35.4297C46.9988 35.4297 44.536 36.8995 43.1502 39.1084C43.5139 41.8708 45.3259 44.1797 47.8023 45.2522C48.0812 44.481 48.6072 43.9763 49.0951 44.0719C49.6161 44.174 49.9191 44.9263 49.8357 45.8217C50.112 45.86 50.393 45.8839 50.6778 45.8927L51.4182 53.5019C51.4182 53.5019 61.3274 57.4226 64.178 52.4202L57.2719 40.6632L57.2162 40.6795Z" fill="#723846"/>
<path d="M34.8374 81.8685L28.6599 81.86L32.0451 75.3659L32.916 70.0626C33.5557 66.1655 35.871 62.7855 39.1871 60.7672C39.7928 60.4009 45.3778 60.076 46.0464 59.8035L58.6878 54.658C59.0334 54.5168 59.3792 54.4012 59.7289 54.3053C63.5857 53.2641 67.7336 54.9233 69.7764 58.4622L77.0051 70.9829C79.3905 75.1152 77.618 80.0667 73.6166 81.8734L73.4567 81.9219L39.0466 81.8743L40.7052 75.1649L34.8178 81.8684L34.8374 81.8685Z" fill="#FFCC33"/>
<path fill-rule="evenodd" clip-rule="evenodd" d="M70.3299 79.3636L70.1937 79.3702L66.632 79.591C65.7011 79.6486 64.9148 80.2924 64.6706 81.1896L64.6561 81.246L64.4818 81.96L66.0792 81.9519L67.1294 85.1306C67.1926 85.3275 67.3692 85.4617 67.5728 85.4761L67.609 85.4773H67.9228C68.1621 85.4773 68.3657 85.3128 68.4169 85.0825L68.4231 85.0491L68.5006 84.5405L68.5727 85.044C68.6054 85.2828 68.8031 85.4612 69.0406 85.4763L69.0732 85.4773H69.588C69.8189 85.4773 70.0171 85.321 70.0766 85.1011L70.0844 85.0677L70.1587 84.6736L70.2411 85.076C70.2874 85.298 70.4768 85.4612 70.7024 85.4762L70.7365 85.4773H70.9273C71.1244 85.4773 71.3005 85.3631 71.3833 85.1879L71.3978 85.1544L72.7092 81.7546C73.1198 80.6919 72.4109 79.5301 71.276 79.4001C70.9645 79.3649 70.6476 79.3518 70.3299 79.3636ZM39.1638 48.1336C39.0245 47.8778 38.7356 47.7282 38.4343 47.7755C38.1062 47.8272 37.8627 48.113 37.8627 48.4463L37.8637 51.0263C37.8631 51.0399 37.8626 51.0519 37.8625 51.0625C37.8625 51.0657 37.8626 51.0687 37.8627 51.0717C37.8628 51.0762 37.8632 51.0803 37.8637 51.0842V51.1124L37.2819 51.5662L36.3409 52.2998C36.0943 52.4929 35.9839 52.8148 36.0613 53.118L37.7658 60.1569L37.7659 60.1571L29.0104 74.4085C28.3563 75.0813 27.7594 75.9626 27.3043 76.9902C26.0404 79.8421 26.3479 82.7455 27.9895 83.4719C29.631 84.1993 31.9855 82.4742 33.2485 79.6223C33.3608 79.3687 33.4607 79.1146 33.5483 78.8617L41.309 62.2789L42.4862 60.0609C42.8711 59.3387 42.9041 58.4824 42.578 57.7333L42.0064 56.426L42.4986 55.7068L42.5172 56.0092C42.5326 56.23 42.7029 56.4075 42.9216 56.4331L42.9608 56.4383C43.2239 56.4703 43.4592 56.2702 43.4736 56.007L43.5149 55.2106L44.0463 55.3922C44.2144 55.4499 44.4012 55.3797 44.491 55.2261C44.5611 55.1094 44.558 54.9681 44.4971 54.8557C44.4776 54.8206 44.4538 54.7875 44.4239 54.7597L43.5923 53.9878L42.5708 52.92C42.3995 52.7406 42.1385 52.6805 41.9064 52.7653L39.9862 53.469L41.831 52.4681C41.9033 52.4361 41.9786 52.4175 42.057 52.4102L44.8562 52.1595C45.1895 52.1307 45.4175 51.8047 45.3267 51.4786C45.2597 51.2402 45.0265 51.0855 44.7809 51.0855L41.246 51.0814C41.1408 51.0814 41.0366 51.104 40.9406 51.1483L39.2671 51.9316L40.7105 50.7141C40.7827 50.651 40.8684 50.6067 40.9592 50.5808L43.9235 49.7452C44.2134 49.6648 44.3713 49.3532 44.2681 49.0725C44.1814 48.8373 43.941 48.699 43.6955 48.7413L40.9581 49.2232L40.2545 49.348C40.1461 49.3665 40.044 49.4108 39.9573 49.479L39.5508 49.7958L39.5507 49.7954L39.398 49.0917L39.3979 49.0919L39.2329 48.3234C39.2184 48.2554 39.1957 48.1915 39.1638 48.1336ZM66.0614 81.898L66.1367 81.9517L66.0792 81.9519L66.0614 81.898ZM59.7296 54.3053C59.4308 54.3866 59.1318 54.4839 58.8362 54.5991L58.6887 54.6582L56.7082 55.4641C56.6914 55.3897 56.6989 55.3318 56.7025 55.3115L56.7041 55.3038L48.1083 55.9599C48.2255 57.2612 47.9785 58.3025 47.5766 59.1219L47.5397 59.1958L46.0461 59.8038C45.3765 60.0771 44.7368 60.4011 44.1312 60.7674C45.5313 64.9471 49.7729 67.4977 54.0228 66.5515C58.5751 65.5373 61.4157 60.8911 60.3653 56.1727C60.2187 55.5155 60.0031 54.8904 59.7296 54.3053Z" fill="#F4A48D"/>
<path fill-rule="evenodd" clip-rule="evenodd" d="M60.611 82.4642L60.5168 84.0024L47.437 83.2003L47.5313 81.6621C51.8912 81.9295 56.2512 82.1968 60.611 82.4642Z" fill="#EC0000"/>
<path fill-rule="evenodd" clip-rule="evenodd" d="M50.3565 83.5684L24.6912 83.6179C24.2037 83.6188 23.7818 83.2775 23.6797 82.7991L19.853 64.8717C19.7156 64.2281 20.2041 63.6205 20.8605 63.6197L46.5244 63.5701C47.0119 63.5692 47.4339 63.9105 47.536 64.3889L51.364 82.316C51.5015 82.9595 51.013 83.567 50.3565 83.5684Z" fill="white"/>
<path fill-rule="evenodd" clip-rule="evenodd" d="M46.6986 64.3911L50.5263 82.3187C50.6635 82.9611 50.1753 83.5678 49.5191 83.5703L38.7723 83.59L25.1452 83.6178L23.8544 83.6197C23.367 83.6208 22.9439 83.2789 22.8423 82.7996L19.0152 64.8742C18.9496 64.5602 19.03 64.2545 19.2077 64.0256C19.3938 63.7822 19.686 63.6215 20.024 63.6217L30.5088 63.6001L45.686 63.5712C46.1738 63.5703 46.597 63.9118 46.6986 64.3911Z" fill="#EC0000"/>
<path d="M30.5089 63.6001L25.1454 83.6177L23.8548 83.6198C23.3671 83.6205 22.9438 83.2789 22.8423 82.7996L19.0152 64.874C18.9493 64.5602 19.0302 64.2545 19.2079 64.0255C19.3939 63.7824 19.6864 63.6216 20.024 63.6216L30.5089 63.6001Z" fill="#EC0000"/>
<path fill-rule="evenodd" clip-rule="evenodd" d="M29.0667 19.6661C29.3913 17.0295 31.6384 14.9883 34.362 14.9883C37.3085 14.9883 39.6972 17.3776 39.6972 20.3251C39.6972 20.8087 39.633 21.2773 39.5124 21.7227C39.5577 21.7233 39.6026 21.7249 39.6473 21.7275L39.6975 21.7234V21.7308C41.2257 21.8457 42.4302 23.1226 42.4302 24.6807C42.4302 26.2389 41.2257 27.5158 39.6975 27.6306V27.6394H20.2724V27.6391H20.2723C19.0816 27.6391 18.1163 26.6734 18.1163 25.4822C18.1163 24.2911 19.0816 23.3254 20.2723 23.3254H20.2724V23.3253L25.1938 22.9195C25.1713 22.7724 25.1597 22.6218 25.1597 22.4685C25.1597 20.8347 26.4837 19.5102 28.117 19.5102C28.4492 19.5102 28.7686 19.565 29.0667 19.6661Z" fill="#DEEDF2"/>
<path fill-rule="evenodd" clip-rule="evenodd" d="M41.1521 26.5283C41.3896 24.5921 43.0338 23.093 45.0266 23.093C47.1826 23.093 48.9305 24.8477 48.9305 27.0123C48.9305 27.3674 48.8835 27.7115 48.7952 28.0386C48.8284 28.039 48.8612 28.0402 48.8939 28.0421L48.9307 28.0391V28.0446C50.0488 28.1289 50.9302 29.0666 50.9302 30.2109C50.9302 31.3552 50.0488 32.2929 48.9307 32.3772V32.3837H34.7171V32.3835H34.7171C33.8459 32.3835 33.1395 31.6743 33.1395 30.7995C33.1395 29.9247 33.8459 29.2156 34.7171 29.2156H34.7171V29.2155L38.3182 28.9175C38.3018 28.8095 38.2932 28.6989 38.2932 28.5863C38.2932 27.3865 39.262 26.4138 40.4571 26.4138C40.7002 26.4138 40.9339 26.4541 41.1521 26.5283Z" fill="#EFF6F9"/>
<path fill-rule="evenodd" clip-rule="evenodd" d="M71.6891 26.799C71.449 24.8216 69.7865 23.2906 67.7715 23.2906C65.5916 23.2906 63.8243 25.0827 63.8243 27.2933C63.8243 27.656 63.8718 28.0074 63.961 28.3414C63.9275 28.3419 63.8943 28.3431 63.8613 28.3451L63.8241 28.342V28.3476C62.6935 28.4337 61.8023 29.3914 61.8023 30.56C61.8023 31.7286 62.6935 32.6863 63.8241 32.7724V32.779H78.1955V32.7788H78.1956C79.0765 32.7788 79.7907 32.0545 79.7907 31.1611C79.7907 30.2677 79.0765 29.5435 78.1956 29.5435H78.1955V29.5434L74.5545 29.239C74.5711 29.1288 74.5797 29.0158 74.5797 28.9008C74.5797 27.6755 73.6002 26.6821 72.3918 26.6821C72.146 26.6821 71.9097 26.7232 71.6891 26.799Z" fill="#EFF6F9"/>
</g>
</svg>
