<?xml version="1.0" encoding="UTF-8"?>
<svg width="298px" height="229px" viewBox="0 0 298 229" version="1.1" xmlns="http://www.w3.org/2000/svg" xmlns:xlink="http://www.w3.org/1999/xlink">
    <title>Group 9</title>
    <g id="V2_Communication-Framework_desktop" stroke="none" stroke-width="1" fill="none" fill-rule="evenodd">
        <g id="V2_CommFramework_Empty-state_Employee" transform="translate(-700.000000, -189.000000)">
            <g id="Group-12" transform="translate(606.000000, 189.000000)">
                <g id="Group-9" transform="translate(94.000000, 0.000000)">
                    <g id="a.-backgrounds-/-shapes-/-curve-A" transform="translate(149.000000, 114.500000) rotate(180.000000) translate(-149.000000, -114.500000) " fill="#DEEDF2">
                        <path d="M115.583873,197.667172 C114.800346,196.883137 114.031802,196.090103 113.278242,195.288159 C98.1030264,179.14456 77.9981135,168.608216 56.2098958,164.648077 C42.985213,162.244451 30.3311211,155.926915 20.1060508,145.695027 C-6.67570116,118.896336 -6.70610799,75.6795848 20.0395083,48.8440166 C31.8379782,37.0063004 46.882312,30.3913655 62.3088905,28.9974475 C75.5156817,27.8037949 87.9240511,22.0366797 97.086821,12.4415834 C97.204923,12.3180717 97.3239062,12.1954422 97.4428895,12.0736949 C113.073767,-3.88666614 138.359035,-4.0445847 154.179404,11.7260977 C154.270184,11.8160848 154.360083,11.9069541 154.4491,11.9978235 C158.675209,16.290738 164.775085,18.1654695 170.68547,17.0168105 C204.383296,10.4671603 240.622959,20.2536998 266.722601,46.3781933 C308.4258,88.1216263 308.4258,155.923915 266.722601,197.667789 C224.985912,239.444306 157.319681,239.444041 115.583873,197.667172" id="Primary-color" transform="translate(149.000000, 114.500000) scale(-1, 1) rotate(-180.000000) translate(-149.000000, -114.500000) "></path>
                    </g>
                    <g id="Group-3" transform="translate(7.989276, 4.195715)">
                        <g id="Laptop" transform="translate(0.000000, 39.229750)">
                            <path d="M34.2272759,115.186965 L97.7232578,154.870689 C99.4596334,155.956474 101.520452,156.366079 103.533997,156.022285 C122.137395,152.856186 223.678509,134.999607 257.049067,129.182662 C264.201526,127.932263 266.904928,126.626933 260.053625,124.151757 C239.072493,116.561614 192.652418,99.769059 185.218062,97.0999611 C184.484431,96.8367192 183.71053,96.7489718 182.941881,96.8330338 L34.5701037,113.684204 C33.8005796,113.768266 33.5706853,114.77736 34.2272759,115.186965" id="Shadow" fill="#C3DEE7"></path>
                            <path d="M254.765882,120.726277 L247.634434,122.115668 C225.502955,114.046601 183.104716,98.5957019 176.032798,96.0364636 C175.302669,95.7732217 174.529818,95.681789 173.760119,95.7621655 L36.4778932,110.551274 L30.0142408,106.577022 L30.0142408,111.794478 C29.937551,112.108789 30.039629,112.467149 30.3679242,112.675461 L93.7691821,152.520114 C95.5017056,153.606075 97.5590227,154.019189 99.5762439,153.682766 C118.186996,150.564051 214.402198,134.031052 247.786763,128.294483 C252.116758,127.548631 254.820161,126.777332 254.753626,125.73156 C254.757128,125.73156 254.765882,125.724365 254.765882,125.724365 L254.765882,120.726277 Z" id="Shadow" fill="#9BC3D3"></path>
                            <path d="M30.3695001,107.585415 L93.7705828,147.426382 C95.4996046,148.515853 97.5605985,148.932653 99.5778197,148.592719 C118.18472,145.470319 214.400447,128.941006 247.788514,123.204437 C254.937471,121.975975 257.651379,120.678016 250.805328,118.180903 C229.845207,110.539691 183.463652,93.6335911 176.034549,90.9464172 C175.300918,90.6831753 174.531219,90.5917426 173.76152,90.6758045 L30.7160048,106.08283 C29.9463056,106.166891 29.7129095,107.1723 30.3695001,107.585415" id="Base" fill="#C3DEE7"></path>
                            <path d="M0.115208786,5.32627015 L22.1547645,99.819075 C22.9426732,102.81354 25.379412,104.714673 29.3445185,104.301559 L168.074745,90.3753577 C172.772957,89.9181942 174.43632,85.7940702 173.513416,82.5912931 L148.143633,3.13258721 C147.567234,1.33727709 145.900195,0.115834429 144.017968,0.115834429 L4.33927458,0 C1.54885234,-0.00525686913 -0.519495401,2.59873253 0.115208786,5.32627015" id="Cover" fill="#9BC3D3"></path>
                            <path d="M6.70877852,9.02517057 L26.8626062,96.1326347 C27.3293983,98.1545084 29.2335109,99.5109064 31.2908279,99.2915381 L166.296873,86.0964475 C169.152955,85.7673951 169.889912,83.7200746 169.098326,81.076599 L146.157753,7.63209416 C145.610594,5.93207763 144.0311,4.77662095 142.250952,4.77293556 L10.0064388,5.47140421 C7.36904596,5.46771882 6.11066831,6.44381998 6.70877852,9.02517057" id="Screen" fill="#F5F9FB"></path>
                            <g id="Group" transform="translate(52.729223, 11.209790)">
                                <g id="Group" transform="translate(0.284618, 0.000000)">
                                    <path d="M38.6486494,74.487527 C38.3540889,74.4911064 38.0595284,74.4913791 37.7649679,74.4882429 L37.706464,74.487527 L37.7102055,74.1824274 C37.9823168,74.1857682 38.2551084,74.1862454 38.5279,74.1837569 L38.6449078,74.1824274 C38.6459283,74.2841159 38.6472888,74.3858044 38.6486494,74.487527 Z M40.5299589,74.4172007 C40.2357386,74.4355749 39.9411781,74.4503356 39.6466176,74.4620282 L39.5894742,74.464244 L39.5779095,74.1593489 C39.879953,74.1477927 40.1823367,74.1328274 40.4847204,74.1143169 L40.5109111,74.1126806 C40.5170336,74.2141987 40.5234963,74.3156827 40.5299589,74.4172007 Z M35.8819576,74.1150328 C36.1649534,74.1322479 36.4482893,74.1464632 36.7316252,74.1576445 L36.7738025,74.1592126 L36.7622377,74.4641077 C36.462235,74.4527559 36.1625724,74.4377566 35.86325,74.4195529 L35.8220932,74.4169962 L35.8411409,74.1124761 C35.8547465,74.1133283 35.8683521,74.1141806 35.8819576,74.1150328 Z M42.4054861,74.2521742 C42.1122862,74.2854113 41.818406,74.315035 41.5245258,74.3415906 L41.4687429,74.3465335 L41.4418719,74.0425929 C41.7398338,74.0162078 42.0377957,73.9863455 42.3354175,73.9530743 L42.3714722,73.9489836 C42.3826968,74.0500585 42.3942615,74.1510993 42.4054861,74.2521742 Z M34.0309205,73.9543356 C34.3098346,73.9854592 34.5894289,74.0135829 34.8690233,74.0387068 L34.90984,74.0423202 L34.882969,74.3462267 C34.587048,74.3200802 34.2918072,74.2904225 33.9970426,74.2575603 L33.9463619,74.2518333 L33.9804438,73.9486427 C33.9972807,73.9505517 34.0142537,73.9524607 34.0309205,73.9543356 Z M44.2708091,73.9923453 C43.9728473,74.0417407 43.6745452,74.0869432 43.3755629,74.1291117 L43.3398483,74.1340887 L43.2980112,73.8319208 C43.6041364,73.7891728 43.9089011,73.7426408 44.2136658,73.6925977 C44.2136658,73.6925977 44.2510811,73.8727598 44.2708091,73.9923453 Z M32.1524681,73.6944044 C32.4453959,73.7424363 32.7387659,73.7871274 33.0326801,73.8285119 L33.0539728,73.8314777 L33.0121017,74.1336797 C32.7264529,74.0939315 32.4423006,74.050638 32.1583525,74.0045152 L32.0811409,73.9918339 L32.1307672,73.6907909 C32.1380122,73.6920182 32.1452571,73.6932113 32.1524681,73.6944044 Z M46.1201456,73.6379525 C45.8136803,73.7046653 45.5061945,73.7675942 45.1983686,73.8268415 C45.1983686,73.8268415 45.1405449,73.5272644 45.1405449,73.5272644 C45.4296632,73.4721078 45.7184413,73.412656 46.0065391,73.350477 L46.0555192,73.3398071 C46.0772881,73.4391775 46.0987168,73.538582 46.1201456,73.6379525 Z M30.3054446,73.3411025 C30.5931682,73.4036564 30.8815042,73.4628696 31.1705544,73.5188443 L31.2114051,73.5266848 L31.1540917,73.8263302 C30.8486127,73.7676624 30.5443583,73.7052448 30.2407161,73.6392478 L30.2964989,73.3391594 C30.2994921,73.3398071 30.3024853,73.3404548 30.3054446,73.3411025 Z M28.4922649,72.8969524 C28.7744103,72.9735512 29.057372,73.0469455 29.3411501,73.1171355 L29.3866607,73.1283168 L29.3141431,73.4246554 C29.0129499,73.3506134 28.7121988,73.2727533 28.4124682,73.1913821 C28.4124682,73.1913821 28.4824689,72.8942935 28.4824689,72.8942935 C28.4857342,72.8951798 28.4889995,72.8960661 28.4922649,72.8969524 Z M47.9494139,73.1895412 C47.6483907,73.2713557 47.3463472,73.3494203 47.0436234,73.4239737 L46.9653914,73.1290327 C47.2517885,73.0590472 47.536485,72.9851416 47.8205011,72.9084405 L47.8698213,72.8950775 C47.8963522,72.9932548 47.922883,73.091398 47.9494139,73.1895412 Z M49.7535119,72.6481002 C49.4722168,72.7405505 49.1899013,72.8291487 48.9062253,72.9148834 L48.8548643,72.93036 L48.7674485,72.6381461 C49.0623491,72.5494457 49.3569096,72.4569613 49.6501096,72.3610339 C49.6501096,72.3610339 49.7157564,72.5332191 49.7535119,72.6481002 Z M26.715446,72.3644087 C26.991605,72.4547114 27.2687844,72.5418437 27.5469162,72.625874 L27.5845015,72.6371916 L27.4970518,72.9294396 C27.2216751,72.8466366 26.9468087,72.7604928 26.6729967,72.6714514 L26.5986083,72.6471116 L26.693371,72.3571818 C26.700718,72.3596021 26.708099,72.3620225 26.715446,72.3644087 Z M51.5273374,72.0151634 C51.2623691,72.1173973 50.9960401,72.2164269 50.7290309,72.3127634 L50.6443362,72.3429665 L50.5422945,72.0555593 C50.8079432,71.9607227 51.0732517,71.8624432 51.3371997,71.7614705 L51.4181528,71.7304151 C51.4545477,71.8253199 51.4909426,71.9202587 51.5273374,72.0151634 Z M24.9773691,71.7459599 C25.2472355,71.8495233 25.5181903,71.9500528 25.7903016,72.0475483 L25.8096895,72.0544684 L25.7076138,72.3419098 C25.649552,72.3211834 25.5915583,72.3002867 25.5335986,72.2793217 C25.3281886,72.2046661 25.1234248,72.12834 24.9192733,72.0503777 L24.8247146,72.0140044 L24.9339673,71.729222 C24.9484573,71.7348127 24.9629132,71.7403692 24.9773691,71.7459599 Z M23.2312988,71.022175 C23.4942264,71.1389991 23.7584465,71.2528575 24.0238911,71.3638524 L24.0670207,71.3818175 L23.9502509,71.6635659 C23.6676974,71.5459236 23.3870826,71.425111 23.1077263,71.3009917 L23.0852091,71.2909694 L23.2089857,71.0122209 C23.2164008,71.0155275 23.2238498,71.0188683 23.2312988,71.022175 Z M53.2671491,71.2922648 C52.9824527,71.419384 52.6957154,71.5423783 52.4079577,71.6622705 C52.4079577,71.6622705 52.2851674,71.3829766 52.2851674,71.3829766 C52.3538755,71.3545461 52.4222435,71.3258087 52.4906115,71.2969692 C52.7055794,71.2058143 52.9202072,71.1127163 53.1338146,71.0178115 C53.1338146,71.0178115 53.2181691,71.1820881 53.2671491,71.2922648 Z M54.9671645,70.4816544 C54.7106996,70.6119097 54.4528741,70.7392334 54.193348,70.8637959 L54.1222589,70.897817 L53.9916455,70.6222729 C54.2409675,70.5034034 54.4896092,70.3810567 54.7372305,70.2563579 L54.8297483,70.209485 C54.8756671,70.3002309 54.9215859,70.3909426 54.9671645,70.4816544 Z M21.5316236,70.2126554 C21.8032247,70.3504445 22.0764244,70.4850292 22.3511888,70.6163754 L22.2299292,70.8964194 C22.1614592,70.8637959 22.0931253,70.8308656 22.0248593,70.7978671 C21.8136329,70.6953264 21.6033249,70.5909789 21.3939353,70.4847565 L21.5226099,70.2080874 C21.5256031,70.2095873 21.5285964,70.2111213 21.5316236,70.2126554 Z M56.6246625,69.5854115 C56.3780616,69.72678 56.1301002,69.8653531 55.8804381,70.0013014 L55.8015258,70.0440154 L55.6569667,69.7755618 C55.7144502,69.7444382 55.7719337,69.7131442 55.8294172,69.681782 C56.0175142,69.5785595 56.2042506,69.4740416 56.3903067,69.3680237 L56.4733006,69.3206055 C56.5236412,69.4088628 56.5739818,69.4971201 56.6246625,69.5854115 Z M19.8810304,69.3200941 C20.1444342,69.4711099 20.4095726,69.6190236 20.6764458,69.7638351 L20.6951874,69.7739596 L20.5506283,70.0424814 C20.4808998,70.0047785 20.4113753,69.966803 20.3418849,69.9286911 C20.136815,69.8158554 19.9327656,69.701247 19.7297025,69.5848319 C19.7297025,69.5848319 19.8623228,69.309356 19.8810304,69.3200941 Z M58.2342009,68.6060588 C57.9964437,68.7588813 57.7573258,68.9089766 57.5165073,69.0566176 L57.4355542,69.1058767 L57.2777297,68.8451273 C57.5178679,68.6989181 57.7556251,68.5502886 57.9920218,68.3992046 L58.0695736,68.3492978 C58.1246761,68.4348962 58.1794385,68.5204604 58.2342009,68.6060588 Z M18.3271728,68.3760921 C18.567175,68.5299373 18.8088438,68.6810894 19.0521453,68.8296167 L19.0747646,68.8433888 L18.91677,69.1041722 C18.6793529,68.9597016 18.4430242,68.8119925 18.2083282,68.6621016 L18.1182593,68.6042861 L18.2826146,68.3474911 C18.2974786,68.357002 18.3123087,68.366547 18.3271728,68.3760921 Z M59.7923783,67.5463575 C59.5627844,67.7109408 59.3314898,67.8728993 59.0984945,68.0324374 L59.0199223,68.0860258 L58.8488323,67.8336283 C58.904275,67.7958914 58.9597177,67.7580182 59.0151604,67.7200427 C59.1910123,67.5988551 59.3655037,67.4764402 59.5393148,67.3526277 L59.6151658,67.2982552 C59.67435,67.380956 59.7331941,67.4636567 59.7923783,67.5463575 Z M16.7379067,67.2966871 C16.9836232,67.4728268 17.2313125,67.6460688 17.4810427,67.8164814 L17.5034579,67.8317193 L17.3324699,68.0841509 C17.0723995,67.9072272 16.8156285,67.7275082 16.5606262,67.5447212 C16.5606262,67.5447212 16.7296073,67.2907556 16.7379067,67.2966871 Z M61.295113,66.4091711 C61.0733423,66.5857198 60.8498709,66.75978 60.6243586,66.9315221 L60.5508886,66.98719 L60.3675536,66.7437921 C60.419935,66.7039076 60.4726566,66.6639208 60.525038,66.6238317 C60.6944273,66.4940877 60.862456,66.3631846 61.0294643,66.2309861 L61.1056555,66.1703071 C61.1689214,66.2499398 61.2318471,66.3295725 61.295113,66.4091711 Z M15.2507504,66.1712616 C15.486977,66.3592643 15.7253125,66.544574 15.9657569,66.7270883 L15.9851108,66.7417467 L15.8016737,66.9852128 C15.5521477,66.7963919 15.3057169,66.6046053 15.0612589,66.4100233 C15.0612589,66.4100233 15.2249678,66.1506716 15.2507504,66.1712616 Z M62.7386635,65.1974995 C62.524716,65.386184 62.3087276,65.5725164 62.0910386,65.7565306 L62.0243713,65.812369 L61.8291314,65.5785161 C61.8781115,65.5372339 61.9270915,65.4958154 61.9760715,65.4543286 C62.138658,65.316335 62.299884,65.1772845 62.4597494,65.0369728 L62.5376412,64.9684873 C62.6046487,65.0448474 62.6716561,65.1211735 62.7386635,65.1974995 Z M13.8234925,64.9735666 C14.0497871,65.1730575 14.2782926,65.3699234 14.509111,65.5641645 L14.5236009,65.5763344 L14.328157,65.8102554 C14.2684626,65.7601441 14.2089382,65.7097942 14.1495159,65.6593419 C13.9724735,65.5085648 13.7967236,65.3562877 13.6222662,65.2025107 C13.6222662,65.2025107 13.8153632,64.9663738 13.8153632,64.9663738 C13.8180843,64.9687941 13.8208055,64.9711804 13.8234925,64.9735666 Z M64.1196284,63.9143767 C63.901259,64.1280146 63.6798285,64.3385504 63.4563571,64.5468022 L63.4373093,64.5646309 L63.2301645,64.3409366 C63.4570373,64.1300259 63.6818693,63.9157403 63.9039802,63.6990002 C63.9039802,63.6990002 64.0345936,63.8272102 64.1196284,63.9143767 Z M12.4588203,63.7063635 C12.6747406,63.9168993 12.8930079,64.1248784 13.1136902,64.330403 C13.1136902,64.330403 12.9156272,64.5624151 12.9156272,64.5624151 C12.6894347,64.3523566 12.4668476,64.1398777 12.2463694,63.9249103 L12.2332401,63.9120586 L12.445827,63.6936823 C12.4501468,63.6979094 12.4545006,63.7021364 12.4588203,63.7063635 Z M65.4342661,62.5633479 C65.2250806,62.7895307 65.0128337,63.0128159 64.7985461,63.2338511 L64.7852807,63.2472142 L64.5675916,63.0341558 C64.7818793,62.8140409 64.9937859,62.5904148 65.2029715,62.364607 L65.2111349,62.3559483 C65.2852852,62.4250815 65.3597757,62.4942147 65.4342661,62.5633479 Z M11.1594208,62.3723453 C11.3645247,62.5934488 11.5721116,62.8121319 11.7822156,63.0284629 L11.5675537,63.244862 C11.3540824,63.0257016 11.1441145,62.8039164 10.9363235,62.5799494 L10.9187043,62.5608934 L11.1419376,62.3534598 C11.147788,62.3597663 11.1536044,62.3660729 11.1594208,62.3723453 Z M9.92798108,60.974205 C10.1104657,61.1918314 10.2952293,61.4074806 10.4823058,61.6211526 L10.5157415,61.6591963 L10.287236,61.8608006 C10.0992751,61.6467536 9.91304897,61.4300136 9.72927179,61.2114327 L9.67369306,61.1450949 L9.90706252,60.9491834 C9.91403537,60.9575353 9.92100822,60.9658531 9.92798108,60.974205 Z M66.6795155,61.1476516 C66.480194,61.3859702 66.2781513,61.6215275 66.0730474,61.8549032 L65.837331,61.6615825 C66.0390335,61.4327748 66.2376748,61.2004219 66.433935,60.9661258 L66.4458399,60.9518083 C66.5237318,61.0170894 66.6016236,61.0823705 66.6795155,61.1476516 Z M8.76722226,59.5146357 C8.9386864,59.741398 9.11256553,59.9662854 9.28889366,60.1892979 L9.31654697,60.2241713 L9.07824549,60.4140149 C8.90198539,60.1917864 8.72827633,59.9676149 8.55688022,59.7416026 L8.50147156,59.6682423 L8.74436491,59.4843303 C8.75198403,59.4944208 8.75960315,59.5045112 8.76722226,59.5146357 Z M67.851635,59.6709354 C67.663538,59.9206057 67.4720397,60.1677194 67.2781604,60.4127536 C67.2781604,60.4127536 67.0366616,60.2266939 67.0366616,60.2266939 C67.2261191,59.9885799 67.4114949,59.7484205 67.5944898,59.5062157 L67.6087756,59.4870575 C67.6897287,59.5483501 67.7706818,59.6096427 67.851635,59.6709354 Z M68.9482435,58.1367445 C68.7720515,58.396778 68.5927981,58.6544594 68.4101434,58.9100613 C68.4101434,58.9100613 68.162182,58.7330012 68.162182,58.7330012 C68.3383741,58.4869784 68.5111647,58.2381262 68.6812343,57.9876378 L68.6965406,57.9653774 C68.7805549,58.0225112 68.8642292,58.0796108 68.9482435,58.1367445 Z M7.67979745,57.9963646 C7.83990094,58.2318538 8.00252146,58.4655703 8.167625,58.6975483 L8.1910946,58.7304104 L7.94354133,58.9079818 C7.77908406,58.6776742 7.617586,58.445969 7.45836687,58.2124911 L7.40506707,58.1339492 L7.65690609,57.962548 C7.66455922,57.9738316 7.67217833,57.9850811 7.67979745,57.9963646 Z M69.96628,56.5489312 C69.8125371,56.8025559 69.6557329,57.0541693 69.4962077,57.3041464 L69.4672958,57.3492126 L69.2111711,57.1844929 C69.3744379,56.9291978 69.5349835,56.6720278 69.692468,56.413051 L69.7057334,56.3905862 C69.7924689,56.4433906 69.8792043,56.4961609 69.96628,56.5489312 Z M6.66846176,56.4220847 C6.81676242,56.6658917 6.96764814,56.9080283 7.12118695,57.1485286 L7.14237762,57.1815953 L6.88618482,57.3463831 C6.73353037,57.1080305 6.58376711,56.8682119 6.43645285,56.6267912 L6.3874388,56.5460677 L6.64761123,56.3876545 C6.65455007,56.3991426 6.66152292,56.4105966 6.66846176,56.4220847 Z M70.9023429,54.9114837 C70.7537021,55.1876074 70.6013197,55.4616516 70.4458761,55.7339913 C70.4458761,55.7339913 70.1805676,55.5844073 70.1805676,55.5844073 C70.2162822,55.5216829 70.2519968,55.4587881 70.2877114,55.3958592 C70.4016581,55.1932662 70.513904,54.9897187 70.6244492,54.7851486 L70.6343132,54.766604 C70.7237698,54.8148745 70.8128863,54.8631791 70.9023429,54.9114837 Z M5.73590229,54.7944891 C5.87195795,55.0461707 6.01076873,55.2963183 6.15226661,55.5449659 L6.17318516,55.581612 L5.9089991,55.7331732 C5.76807945,55.4864345 5.62964283,55.2375142 5.49385928,54.9872643 L5.4513759,54.9085179 L5.71923547,54.76357 C5.72477974,54.773865 5.73035802,54.7841941 5.73590229,54.7944891 Z M4.88477213,53.1163049 C5.00820863,53.375452 5.13446827,53.6332015 5.26358509,53.8895875 L5.28623835,53.9344491 L5.01467127,54.0723064 C4.87650675,53.7989439 4.74164159,53.5240475 4.60993971,53.2475488 L4.59942941,53.2254248 L4.87436388,53.0943854 C4.8778333,53.1017146 4.88130271,53.1090097 4.88477213,53.1163049 Z M71.7543914,53.2284588 C71.6210569,53.5094572 71.4839808,53.7885126 71.3438435,54.066068 L71.0676505,53.9373126 C71.2067674,53.6625525 71.3424829,53.3852698 71.4751372,53.1066917 C71.4751372,53.1066917 71.6455469,53.1766771 71.7543914,53.2284588 Z M72.5200446,51.504288 C72.4026966,51.7871614 72.2819472,52.0685348 72.1581365,52.3485106 L72.1479324,52.3712823 L71.8700387,52.2471971 C71.9826248,51.9934019 72.0928298,51.7372205 72.1999737,51.480221 L72.2387495,51.3872934 C72.3322878,51.4262916 72.4261662,51.4652898 72.5200446,51.504288 Z M4.1177924,51.3902251 C4.23510639,51.6730303 4.35568571,51.9544378 4.47963241,52.2344136 L4.20585442,52.3682142 C4.17490176,52.2986038 4.14428924,52.2288229 4.11374474,52.159042 C4.01945817,51.9425406 3.92707638,51.7252552 3.83659937,51.5071175 L4.1153434,51.3843276 C4.11615973,51.3862707 4.11697606,51.3882479 4.1177924,51.3902251 Z M73.1965813,49.7430622 C73.1027029,50.0074591 73.0057633,50.2706629 72.9057624,50.5329463 L72.8697076,50.6279192 L72.5853513,50.5184243 C72.6105216,50.4532114 72.6353518,50.3879644 72.6601819,50.3226492 C72.7431759,50.1021252 72.824129,49.8814649 72.9030413,49.6599865 L72.909844,49.6407601 C73.0054231,49.6748494 73.1010022,49.7089728 73.1965813,49.7430622 Z M3.45581361,49.6701451 C3.55319545,49.9427916 3.65357051,50.2143132 3.7569728,50.484744 L3.76867359,50.5151858 L3.48455537,50.624783 C3.3826837,50.3595338 3.28373722,50.0923757 3.18754588,49.8243312 L3.15744356,49.7398919 L3.44421487,49.6375216 C3.44809245,49.6483961 3.45197004,49.6592706 3.45581361,49.6701451 Z M73.7829812,47.949656 C73.7003274,48.2258478 73.6142722,48.5010511 73.5254959,48.7753339 L73.501346,48.850126 L73.2118876,48.755119 C73.2993033,48.4884721 73.3833177,48.2203935 73.4642708,47.9518036 L73.491482,47.8620123 C73.5884216,47.8912268 73.6857014,47.9204414 73.7829812,47.949656 Z M2.87829138,47.9098737 C2.96223771,48.1885882 3.0492453,48.4663141 3.13938218,48.7430854 L2.85298502,48.8469216 C2.76084133,48.5653436 2.67237114,48.2819589 2.58675812,47.9978242 L2.57138383,47.9464175 L2.8629511,47.8587056 C2.86805319,47.8757844 2.87315527,47.892829 2.87829138,47.9098737 Z M2.3745113,46.0584475 C2.44423983,46.3429912 2.51713164,46.6266827 2.59322077,46.9095902 L2.60655422,46.9589515 L2.31274204,47.0388228 C2.23121068,46.7374049 2.15321678,46.4345893 2.07882835,46.1309896 C2.07882835,46.1309896 2.36563367,46.0219378 2.3745113,46.0584475 Z M74.2772034,46.1285692 C74.203053,46.4306349 74.1255013,46.7317461 74.0445482,47.032005 L73.7479469,46.9620877 C73.8254986,46.6766577 73.8993088,46.3892504 73.9703979,46.1012637 L73.9812823,46.0558908 C74.0799227,46.0800942 74.178563,46.1043317 74.2772034,46.1285692 Z M1.97586824,44.2242022 C2.03144697,44.5143707 2.09022301,44.8033802 2.15216235,45.0916055 L2.16284272,45.1408646 L1.86535703,45.2056003 C1.79882582,44.8985235 1.73600212,44.5903559 1.67685192,44.2815064 C1.67685192,44.2815064 1.95416736,44.110037 1.97586824,44.2242022 Z M74.6778873,44.2845404 C74.6193833,44.5903559 74.5571379,44.8953873 74.4911509,45.1997028 C74.4911509,45.1997028 74.1918284,45.1440009 74.1918284,45.1440009 C74.2550943,44.8532529 74.3146187,44.5607322 74.3710818,44.2678025 L74.378905,44.2270657 C74.4785657,44.2462239 74.5782265,44.2653822 74.6778873,44.2845404 Z M74.9846928,42.42241 C74.9448965,42.7080446 74.9016988,42.9931679 74.85578,43.277848 L74.8431949,43.3554353 L74.542852,43.305699 C74.5530562,43.2434178 74.5629202,43.1811365 74.5731244,43.1188553 C74.6078186,42.8984677 74.6411522,42.6778415 74.672445,42.4569085 L74.6829893,42.380412 C74.7836705,42.3944227 74.8840116,42.4083993 74.9846928,42.42241 Z M1.67678389,42.4125923 C1.71814481,42.7071242 1.7628391,43.0011448 1.81083273,43.294654 L1.51174839,43.3520946 C1.49912922,43.2756322 1.48688422,43.1991016 1.47470723,43.122571 C1.43974093,42.9002744 1.40657737,42.6777392 1.37528457,42.4548972 L1.37031853,42.4190693 L1.67185188,42.376969 C1.67348454,42.3888661 1.67515123,42.4007292 1.67678389,42.4125923 Z M75.1965994,40.5472917 C75.1707489,40.8435281 75.1411568,41.1394236 75.1081633,41.4349782 L75.1023809,41.4861122 L74.7999972,41.4520228 C74.8333308,41.1551047 74.8632631,40.8581865 74.8897939,40.5612683 L74.8935355,40.5203611 C74.9945568,40.5295652 75.0955781,40.5384285 75.1965994,40.5472917 Z M1.46650988,40.5725178 C1.49168018,40.8527322 1.5198437,41.1326057 1.55093241,41.4121383 L1.55501408,41.4486139 L1.25252835,41.4827032 C1.2193988,41.189194 1.18977268,40.8943212 1.16330986,40.5994484 L1.15837784,40.5438828 L1.46164589,40.5169522 C1.46327856,40.5353604 1.46491123,40.5541096 1.46650988,40.5725178 Z M75.3142876,38.6638555 C75.303063,38.9641826 75.2880969,39.2645098 75.2697294,39.5648369 L75.2673484,39.606085 L74.9636041,39.5873358 C74.9819716,39.2904177 74.9969378,38.9924768 75.0085025,38.694536 L75.0102032,38.6522652 C75.1115647,38.656015 75.2129261,38.6601057 75.3142876,38.6638555 Z M1.34735914,38.7057854 C1.35858373,38.9897497 1.37280155,39.2737139 1.39008062,39.5573372 L1.39171329,39.5839269 L1.08790101,39.602676 C1.0695335,39.308485 1.05483949,39.0129304 1.0431387,38.7177167 L1.04096181,38.6604466 L1.34518225,38.6488562 C1.34589654,38.6679463 1.34661084,38.6870363 1.34735914,38.7057854 Z M1.32201878,36.7773514 C1.31868541,37.0497252 1.31820922,37.3231217 1.32065822,37.5961773 L1.32201878,37.7134447 L1.01759425,37.7171945 C1.01398878,37.4219808 1.01375068,37.127108 1.01687996,36.8322352 L1.01759425,36.7736015 C1.11905775,36.7746242 1.22055527,36.7759878 1.32201878,36.7773514 Z M75.3384375,36.8322352 C75.3414987,37.127108 75.3411586,37.4219808 75.3377572,37.7171945 L75.0333327,37.7134447 C75.0363939,37.4400482 75.0370742,37.1673334 75.0346932,36.8942778 L75.0333327,36.7773514 L75.3377572,36.7736015 C75.3377572,36.7930324 75.3380973,36.8128043 75.3384375,36.8322352 Z M75.2690491,34.9140279 C75.2863962,35.2000375 75.300682,35.4860471 75.3122467,35.7723975 L75.3142876,35.8296676 L75.0102032,35.841258 C74.9986385,35.5388856 74.9836723,35.2358313 74.9653048,34.932777 L74.9636041,34.9065283 L75.2673484,34.8874382 C75.2680287,34.8963015 75.2683688,34.9051647 75.2690491,34.9140279 Z M1.39161124,34.9034602 C1.3731757,35.2003784 1.35827761,35.4979783 1.34657682,35.7959192 L1.34494415,35.8385309 L1.04075773,35.8269405 C1.05211837,35.5259316 1.06705048,35.2256045 1.08521391,34.9256183 L1.08776495,34.8843702 C1.18905839,34.8908472 1.29031781,34.8973241 1.39161124,34.9034602 Z M75.1068027,33.0438866 C75.1380955,33.3258055 75.1666672,33.6080652 75.1918375,33.8906659 L75.1969396,33.9462315 L74.8935355,33.9731621 C74.8673448,33.6748803 74.8374125,33.3762577 74.804419,33.0779759 L74.8003373,33.0418412 L75.102721,33.007411 C75.1040816,33.0196832 75.1054422,33.0319553 75.1068027,33.0438866 Z M1.55511613,33.0387732 C1.5218165,33.3346687 1.49188426,33.6315869 1.46525137,33.9291868 L1.46164589,33.970094 L1.15837784,33.9435043 C1.18450052,33.6465862 1.21412664,33.3510316 1.24691606,33.055477 L1.25259638,33.0046839 C1.35344763,33.0159333 1.45426487,33.0275237 1.55511613,33.0387732 Z M74.8445554,31.1461329 C74.8931953,31.4420284 74.9380937,31.7382648 74.9799308,32.035183 L74.9850329,32.0713177 L74.6833295,32.1132476 C74.6408121,31.8064435 74.594213,31.5006621 74.5442126,31.1955625 L74.843535,31.1382924 C74.8438752,31.1406786 74.8442153,31.1434058 74.8445554,31.1461329 Z M1.81239737,31.1849948 C1.80215918,31.2470374 1.79212508,31.3094209 1.782159,31.3714635 C1.7471927,31.5920215 1.71406314,31.8125796 1.68277034,32.0334785 L1.67202195,32.1101795 L1.37052262,32.0682496 C1.41011481,31.7825809 1.4533465,31.4972531 1.49940134,31.2126071 L1.51205451,31.1352243 C1.61215746,31.1519281 1.71229442,31.168291 1.81239737,31.1849948 Z M74.5006748,29.3342844 C74.5629202,29.6250665 74.6224446,29.9165304 74.6782274,30.208676 C74.6782274,30.208676 74.3792451,30.266287 74.3792451,30.266287 C74.3244827,29.9768685 74.2649583,29.68745 74.203053,29.3987132 L74.1921686,29.3492837 L74.4897903,29.284514 C74.4935318,29.3012177 74.4969332,29.3175806 74.5006748,29.3342844 Z M2.1632849,29.3465566 C2.14695822,29.4215531 2.1310057,29.4965497 2.1151212,29.5715462 C2.0696446,29.7883544 2.02593672,30.0051626 1.98403158,30.2226526 L1.97617436,30.2635599 L1.67719206,30.2062898 C1.73576402,29.8998266 1.7980435,29.5950679 1.86389443,29.29065 C1.86389443,29.29065 2.04539268,29.3209895 2.1632849,29.3465566 Z M74.0557728,27.5009596 C74.1326442,27.7862874 74.2061143,28.0722969 74.2761829,28.3593292 C74.2761829,28.3593292 73.9819626,28.4373938 73.9819626,28.4373938 C73.9122341,28.1507024 73.8384239,27.8653746 73.7618926,27.5807286 L73.7486271,27.5312991 L74.0425074,27.45153 C74.0469292,27.4678929 74.051351,27.4845967 74.0557728,27.5009596 Z M2.60720048,27.5285719 C2.58713228,27.6025458 2.56740421,27.6765197 2.54777818,27.7501527 C2.49172325,27.9628702 2.43740303,28.1759285 2.38485153,28.3889869 L2.37366095,28.4350075 L2.07801202,28.3620564 C2.15192425,28.0600248 2.22957802,27.758675 2.31076923,27.4583479 C2.31076923,27.4583479 2.49104297,27.4968689 2.60720048,27.5285719 Z M73.5050875,25.6522945 C73.5959047,25.9314863 73.6836606,26.2113598 73.7683552,26.4925968 L73.7836615,26.5437308 L73.4921622,26.6316813 C73.4037261,26.3361268 73.3115484,26.040913 73.2156291,25.7470629 C73.2156291,25.7470629 73.5020263,25.6434313 73.5020263,25.6434313 C73.5030467,25.6461585 73.5040671,25.6492265 73.5050875,25.6522945 Z M3.14308969,25.7354725 C3.12376979,25.794788 3.10461996,25.8541035 3.08553815,25.913078 C3.01890489,26.121023 2.95397233,26.3296498 2.89077448,26.5386174 L2.86373342,26.6286133 L2.57213214,26.5410037 C2.65481996,26.26488 2.74073911,25.9894381 2.82954944,25.7150189 L2.85380136,25.6407042 C2.9502308,25.6724073 3.04666025,25.7037695 3.14308969,25.7354725 Z M72.8822928,23.8960116 C72.9867155,24.1687264 73.0877368,24.4424638 73.186037,24.7175648 L73.1976017,24.7502906 L72.9108645,24.8528995 C72.8163058,24.5863208 72.7183457,24.3207648 72.6176645,24.0562316 L72.5863717,23.9750989 L72.870728,23.8653312 C72.8744696,23.875558 72.8785512,23.8857848 72.8822928,23.8960116 Z M3.76965999,23.9723718 C3.66050934,24.2566769 3.55462403,24.5430274 3.4521061,24.8304005 L3.44516726,24.8498314 L3.15836194,24.7475634 C3.1790424,24.6892706 3.19989293,24.6313188 3.2208455,24.573026 C3.29533597,24.3671264 3.37145911,24.1619085 3.44928294,23.9573725 L3.48554177,23.862945 C3.58023651,23.8994206 3.67496526,23.9358962 3.76965999,23.9723718 Z M72.1537147,22.1318882 C72.2785458,22.4141479 72.4003156,22.6981122 72.518684,22.9830991 L72.2397699,23.1058207 C72.2115384,23.0373011 72.1826266,22.9687815 72.1540549,22.900262 C72.0628976,22.6848173 71.9700396,22.4697136 71.8754809,22.2559734 L72.1492929,22.1220023 C72.1506535,22.1254112 72.1523542,22.1284793 72.1537147,22.1318882 Z M4.48510865,22.2433603 C4.36510756,22.5136888 4.24826977,22.7864036 4.13428915,23.060141 L4.1163298,23.1034344 L3.8352048,22.986508 C3.94540988,22.7206111 4.05877826,22.455396 4.1750038,22.1915445 L4.20697688,22.1192751 C4.29966479,22.1608641 4.39238672,22.2021122 4.48510865,22.2433603 Z M71.3632314,20.462874 C71.4935047,20.7216121 71.6207167,20.9813729 71.7452076,21.2428381 L71.7557519,21.2649962 L71.4805794,21.3958993 C71.3615307,21.1450017 71.240101,20.8961495 71.1156101,20.6486609 L71.069011,20.5559379 L71.3404421,20.4178761 C71.3479251,20.4328754 71.3557483,20.4478747 71.3632314,20.462874 Z M5.28746286,20.5532108 C5.25355098,20.6203668 5.21991122,20.6875228 5.18640752,20.7543379 C5.08259705,20.9629646 4.98045327,21.172955 4.88011223,21.3836271 L4.60065391,21.2622691 C4.7340905,20.9806911 4.8712346,20.7018403 5.01143995,20.424353 C5.01143995,20.424353 5.18014896,20.4986678 5.28746286,20.5532108 Z M70.4669648,18.7938598 C70.6098232,19.0447574 70.7496204,19.2966776 70.8870366,19.5506432 L70.9037034,19.5816645 L70.6360139,19.7265442 C70.5033597,19.4807601 70.3676441,19.2353168 70.2292075,18.9919189 L70.1819282,18.9087409 L70.4462163,18.7570433 C70.4530191,18.7693155 70.460162,18.7815876 70.4669648,18.7938598 Z M6.17451171,18.9063546 C6.13866104,18.9687381 6.1031165,19.0318034 6.06763999,19.0945278 C5.95372739,19.2966776 5.84137944,19.5005319 5.7308002,19.7050679 L5.72063004,19.724158 L5.45270245,19.5792782 C5.49032184,19.5093951 5.52824735,19.4395119 5.5662749,19.3699697 C5.67886096,19.164411 5.79324975,18.9598749 5.90937325,18.7563615 C5.90937325,18.7563615 6.06900055,18.8456756 6.17451171,18.9063546 Z M69.4900852,17.1770023 C69.6451886,17.4197184 69.7972308,17.6637981 69.9465519,17.9095823 L69.9676405,17.9443534 L69.7074341,18.1025279 C69.5615144,17.8621981 69.4135539,17.6235727 69.2625321,17.3866518 L69.2128718,17.3085872 L69.4689965,17.1439356 C69.4761395,17.1548442 69.4832824,17.1660937 69.4900852,17.1770023 Z M7.14394226,17.3062009 C6.9805054,17.5615301 6.82026585,17.8185637 6.66291749,18.0773018 L6.64910784,18.1001417 L6.3889014,17.9416263 C6.42152075,17.8877651 6.45427614,17.8342448 6.48709957,17.7803837 C6.59999175,17.5966421 6.71431251,17.4135823 6.83006186,17.2315453 L6.88768143,17.1415494 C6.97309037,17.1964332 7.05853332,17.2513171 7.14394226,17.3062009 Z M68.4349736,15.6153695 C68.6016417,15.8492224 68.7655888,16.0847798 68.9268148,16.3223825 L68.9499442,16.3564718 L68.6982413,16.5276003 C68.6604858,16.4723756 68.6227304,16.41681 68.5849749,16.3615852 C68.4642255,16.1853433 68.3421156,16.010465 68.2183049,15.8362685 L68.1638827,15.7599084 L68.411504,15.5823029 C68.4193272,15.5932115 68.4271504,15.604461 68.4349736,15.6153695 Z M8.19265924,15.7575221 C8.01612703,16.0043289 7.84367648,16.2524994 7.673811,16.5027151 L7.65853875,16.5252141 L7.40666572,16.3540856 C7.5826197,16.0939839 7.76238323,15.8362685 7.94496992,15.5802575 C7.94496992,15.5802575 8.09367875,15.6866163 8.19265924,15.7575221 Z M67.3046912,14.1113478 C67.482584,14.3359965 67.6577556,14.5630316 67.8305463,14.7914301 L67.8536758,14.8221106 L67.6108164,15.0058521 C67.4424476,14.7825669 67.2720379,14.5620089 67.0992472,14.3428144 L67.0387024,14.2661134 L67.2767998,14.0762357 C67.2859836,14.0878261 67.2955075,14.0997574 67.3046912,14.1113478 Z M9.31821365,14.264068 C9.27307719,14.3206563 9.22817882,14.3779264 9.18334848,14.4348556 C9.0411023,14.6165518 8.90014864,14.7996116 8.76079363,14.9840349 L8.74609962,15.0034659 L8.50317225,14.8197243 C8.69167736,14.5695085 8.88300563,14.3227017 9.07715704,14.0775993 C9.07715704,14.0775993 9.22317877,14.1880488 9.31821365,14.264068 Z M66.101279,12.6676641 C66.2900562,12.8831088 66.4764524,13.1005988 66.6604677,13.3197932 L66.6815563,13.3450194 L66.4478807,13.5410331 C66.269988,13.3279747 66.0900544,13.1176434 65.9077398,12.9090167 L65.8393718,12.8309521 L66.0679453,12.6294841 C66.0791699,12.6420971 66.0903945,12.6550511 66.101279,12.6676641 Z M10.5175102,12.8289067 C10.4682581,12.8848132 10.419244,12.9410607 10.370298,12.9973081 C10.2192422,13.1715046 10.0694109,13.3470647 9.92114428,13.5243293 L9.90893328,13.5386468 L9.67552981,13.342974 C9.72553026,13.2829768 9.77580283,13.2233204 9.82617743,13.1636641 C9.97658696,12.9863995 10.1285271,12.8101576 10.2819979,12.6352793 C10.2819979,12.6352793 10.4273734,12.7491377 10.5175102,12.8289067 Z M64.7907229,11.2488657 C65.0026296,11.4670375 65.2118151,11.6872547 65.4186197,11.910199 L65.436307,11.929289 L65.2131757,12.1368931 C65.0022894,11.9088354 64.788682,11.6841866 64.5726937,11.4619241 C64.5726937,11.4619241 64.7679336,11.2253441 64.7907229,11.2488657 Z M11.7874197,11.4564698 C11.5727579,11.6770279 11.3613274,11.8999721 11.1521758,12.1256436 L10.9206091,11.9272436 C11.1294545,11.7012313 11.3419735,11.4776052 11.5567713,11.2563654 L11.5694925,11.2434114 C11.6421463,11.3143173 11.714766,11.3852231 11.7874197,11.4564698 Z M63.4485339,9.93608515 C63.6709848,10.1433483 63.8910549,10.3529978 64.1087439,10.5653744 L64.1220093,10.5783284 L63.9094224,10.7965001 C63.6890122,10.5810555 63.4665612,10.3693607 63.2413891,10.1597112 L63.4393501,9.92790371 C63.4424113,9.93063085 63.4454726,9.933358 63.4485339,9.93608515 Z M13.1246427,10.1494844 C13.0143696,10.2520934 12.9048448,10.3553841 12.7958982,10.4586748 C12.6803529,10.5691242 12.5654539,10.6799146 12.4512012,10.7913867 C12.4512012,10.7913867 12.2352469,10.576283 12.2352469,10.576283 C12.4540244,10.3622019 12.6752509,10.1518707 12.8987563,9.9435848 L12.917668,9.92585835 C12.9866482,10.000514 13.0556625,10.0751697 13.1246427,10.1494844 Z M62.0417184,8.69216505 C62.2743736,8.88817877 62.5046478,9.08657874 62.7328811,9.28770586 L62.5396821,9.523945 C62.3107684,9.32145431 62.0794738,9.12271345 61.8461384,8.92601794 L61.8315124,8.91408667 L62.0270924,8.67989289 C62.0318544,8.68398361 62.0366163,8.68807433 62.0417184,8.69216505 Z M14.5258118,8.91204131 C14.3132589,9.09032857 14.1034271,9.27100208 13.895398,9.45338006 L13.81737,9.52189964 L13.6162118,9.29316016 C13.8301933,9.1043052 14.0462157,8.9178365 14.2642108,8.73375405 L14.3302999,8.67818842 C14.3954705,8.75625302 14.4606412,8.83397672 14.5258118,8.91204131 Z M60.5729976,7.51983258 C60.8155168,7.70391503 61.055655,7.89072462 61.2937524,8.08026136 L61.1080365,8.3219548 C60.8706193,8.13241806 60.6308213,7.94663114 60.3893225,7.76323048 L60.3699345,7.74857206 L60.5532695,7.50517416 C60.5600723,7.50994667 60.566535,7.51471918 60.5729976,7.51983258 Z M15.9874237,7.7468676 C15.9348722,7.78641123 15.8824568,7.82629576 15.8300753,7.86652119 C15.6607541,7.99606069 15.4927594,8.12696376 15.3257851,8.25923041 L15.2491857,8.32025033 L15.0597963,8.08128404 C15.281567,7.90470125 15.5052425,7.73050471 15.7307547,7.55869443 L15.8038846,7.5031288 C15.8650757,7.58426144 15.9262327,7.66573496 15.9874237,7.7468676 Z M59.0450926,6.42147398 C59.2971357,6.59328426 59.5467978,6.76782169 59.7944191,6.94542716 C59.7944191,6.94542716 59.6175468,7.19393847 59.6175468,7.19393847 C59.3723065,7.01735568 59.1240049,6.84418182 58.8740026,6.67373511 L58.8515534,6.6583949 L59.0226434,6.40613377 C59.0301265,6.41124717 59.0376095,6.41636057 59.0450926,6.42147398 Z M17.5058048,6.65669044 C17.4504982,6.69452961 17.3952596,6.73236878 17.340089,6.77020795 C17.1641691,6.891566 16.9895416,7.01394674 16.8159006,7.13769105 L16.7396754,7.192234 L16.5624969,6.94406359 C16.7920569,6.77941207 17.0234535,6.61748769 17.2564828,6.45794957 L17.3347829,6.4044293 C17.3917902,6.48862998 17.4487975,6.57283065 17.5058048,6.65669044 Z M57.4610647,5.39981639 C57.706305,5.5498095 57.9501847,5.70218886 58.1920237,5.85729536 L58.236922,5.88593041 L58.0726348,6.14262316 C57.8178706,5.97933521 57.5614057,5.81843351 57.3029,5.66059986 L57.2804508,5.64696412 L57.4382753,5.38618066 C57.4460985,5.39061227 57.4535816,5.39538478 57.4610647,5.39981639 Z M19.0772136,5.64525966 C19.0201383,5.68003078 18.9631309,5.71514281 18.9061916,5.74991394 C18.7240131,5.86240876 18.5430931,5.97592627 18.3630575,6.09114825 L18.2850636,6.14125958 L18.1206063,5.88422594 C18.3582955,5.73150569 18.5977195,5.58117169 18.838674,5.43356484 L18.9191509,5.38447619 C18.9718385,5.47140401 19.0245261,5.55833183 19.0772136,5.64525966 Z M55.8232947,4.45792787 C56.0923448,4.60417115 56.3596941,4.75314157 56.6253428,4.90552093 C56.6253428,4.90552093 56.4760217,5.17107691 56.4760217,5.17107691 C56.2120738,5.01937933 55.9460849,4.87143159 55.6787356,4.72655189 L55.6600279,4.71632508 L55.8045871,4.44770107 C55.8107096,4.45111 55.8171722,4.45451893 55.8232947,4.45792787 Z M20.6977045,4.71496151 C20.4515798,4.84790994 20.2074619,4.98392642 19.9645686,5.12232915 L19.8814726,5.16971333 L19.7302467,4.90518004 C19.9768136,4.76370927 20.2249791,4.62496565 20.4745732,4.48894917 L20.5530773,4.44633749 C20.601275,4.53599246 20.6495068,4.62530654 20.6977045,4.71496151 Z M54.1348441,3.59853555 C54.4117173,3.7308022 54.68723,3.86647778 54.961042,4.0055623 L54.8324694,4.28202686 C54.5586574,4.14260145 54.2817842,4.00692587 54.0038905,3.87397744 L54.1253202,3.59376305 C54.1283814,3.59546751 54.1314427,3.59683109 54.1348441,3.59853555 Z M22.3631957,3.86818225 C22.3073789,3.89477194 22.2516301,3.92136162 22.1959493,3.9482922 C22.0021721,4.0420379 21.8095853,4.13714716 21.6177468,4.23396089 L21.5249909,4.28100418 L21.3874386,4.00863034 C21.6601962,3.87022761 21.9345184,3.73523382 22.2104052,3.60296717 L22.2324463,3.59274037 C22.2760181,3.6844407 22.3196239,3.77614103 22.3631957,3.86818225 Z M52.4480941,2.8448202 C52.7157836,2.95663324 52.9821125,3.07151432 53.247421,3.18912256 L53.2698702,3.19934936 L53.1460596,3.47820018 C52.8919757,3.36468267 52.6372114,3.25457409 52.3810867,3.14719266 L52.2882287,3.10833081 L52.4048964,2.82675285 C52.4191823,2.83254804 52.4338082,2.83868412 52.4480941,2.8448202 Z M24.0695037,3.10730813 C24.0010677,3.13594318 23.9327338,3.16457823 23.8644678,3.19321328 C23.6493639,3.28457271 23.4349061,3.37763662 23.2212988,3.47240499 L23.0877601,3.19798578 C23.1572506,3.16696448 23.226843,3.13628407 23.2965035,3.10594456 C23.5125259,3.01117619 23.7293306,2.91879407 23.9469856,2.82811642 C23.9469856,2.82811642 24.0231087,2.9951542 24.0695037,3.10730813 Z M50.6671256,2.15519281 C50.9412777,2.25371101 51.2147496,2.35495635 51.4868609,2.45926974 L51.5303987,2.47631441 L51.421214,2.76096042 C51.1371979,2.65153363 50.851481,2.54551578 50.5647437,2.44256596 L50.5453558,2.43574809 L50.6473975,2.14837494 C50.6538601,2.15076119 50.6606629,2.15314745 50.6671256,2.15519281 Z M25.8124107,2.43472541 C25.5458436,2.52983468 25.2811473,2.62801198 25.0176416,2.72891644 L24.9366884,2.75993774 L24.8273337,2.47529173 C25.0924382,2.3730237 25.3587331,2.27382372 25.6260484,2.17769177 L25.7102669,2.14735226 C25.7443148,2.24314331 25.7783627,2.33893436 25.8124107,2.43472541 Z M48.895681,1.57226506 C49.1762957,1.65680663 49.45555,1.74475713 49.7341239,1.83577567 L49.7565731,1.84327533 L49.6616743,2.13303474 C49.6024901,2.11360381 49.543646,2.09451378 49.4844618,2.07542375 C49.2769769,2.00860864 49.0688118,1.94349799 48.8603065,1.88009182 L48.7705098,1.85316124 L48.8579255,1.56067468 C48.8705107,1.5647654 48.8830958,1.56851523 48.895681,1.57226506 Z M27.5872907,1.85213856 C27.2921179,1.94111174 26.9977955,2.03349386 26.7049017,2.12928491 L26.6012613,1.84225265 C26.8822503,1.74987053 27.1649739,1.66123824 27.4485139,1.5753331 L27.4997389,1.5599929 C27.5289228,1.65748841 27.5581067,1.75464304 27.5872907,1.85213856 Z M47.0864809,1.07694692 C47.372878,1.14751186 47.6579146,1.22148573 47.9426111,1.29886853 L47.8725424,1.5961276 C47.5868256,1.518063 47.3007686,1.44408913 47.0136911,1.3731833 L46.9684526,1.36193382 L47.0409023,1.06569743 C47.0562085,1.06944726 47.0715148,1.07319709 47.0864809,1.07694692 Z M29.3892458,1.36125203 C29.3162859,1.37897849 29.2433941,1.39738673 29.1705363,1.41579498 C28.9582555,1.46931525 28.7460427,1.52453998 28.5343061,1.58181007 L28.4850199,1.59510492 L28.4053933,1.30091389 C28.7061103,1.21909947 29.0082559,1.14103488 29.3112179,1.06637922 C29.3112179,1.06637922 29.360504,1.24330291 29.3892458,1.36125203 Z M45.2419064,0.671965533 C45.5334056,0.728212947 45.8242246,0.787869296 46.1143632,0.850934579 L46.0585804,1.15126168 C45.7674213,1.08751461 45.4762622,1.02785826 45.1844229,0.971269957 L45.1436062,0.963429408 L45.2010897,0.663784091 C45.2146952,0.666511238 45.2283008,0.669238385 45.2419064,0.671965533 Z M31.2140242,0.963088514 C31.069329,0.990700882 30.9247359,1.01967682 30.7801087,1.04899366 C30.5768416,1.09058265 30.299118,1.1505799 30.299118,1.1505799 L30.2345255,0.852298153 C30.5409569,0.785823935 30.8484427,0.722758652 31.1565747,0.663443197 C31.1565747,0.663443197 31.1912349,0.84309403 31.2140242,0.963088514 Z M43.3643383,0.359707159 C43.6605995,0.401296156 43.9565206,0.446294088 44.2517613,0.494700954 L44.2738704,0.498450781 L44.2242101,0.799459672 C43.9422347,0.752757274 43.6602594,0.709804702 43.3776038,0.669579279 L43.3010725,0.658670689 L43.3429096,0.356639118 C43.3500525,0.357661798 43.3571954,0.358684479 43.3643383,0.359707159 Z M33.056864,0.658329796 C32.9898226,0.667874812 32.9228152,0.677419827 32.8558078,0.686964843 C32.6172682,0.721735972 32.3790688,0.758552462 32.1412435,0.797755205 L32.08393,0.498109888 C32.1602233,0.485496831 32.2365845,0.473224668 32.3129457,0.460952505 C32.5347505,0.425840483 32.7568273,0.392773821 32.9791422,0.361411626 L33.0148909,0.356298225 C33.0289046,0.456861784 33.0428843,0.557766237 33.056864,0.658329796 Z M41.512961,0.147671451 C41.7949364,0.172897564 42.0765716,0.201191718 42.3578666,0.232553913 L42.4088875,0.238349101 L42.3745335,0.541744246 C42.0782723,0.507995797 41.7823512,0.478338069 41.48609,0.451407489 L41.4452733,0.447998555 L41.4721443,0.143921623 C41.4857499,0.145285197 41.4993555,0.146307877 41.512961,0.147671451 Z M34.9125611,0.447657662 C34.6142591,0.474247348 34.3166373,0.503905076 34.0193557,0.537312631 L33.983335,0.541403352 L33.949151,0.238349101 C34.2421469,0.204941546 34.5363672,0.175283818 34.8302474,0.148694131 L34.8860303,0.143921623 C34.8948739,0.245166969 34.9037175,0.346412315 34.9125611,0.447657662 Z M39.6350529,0.0276769666 C39.9207697,0.0389264495 40.2064866,0.0532439732 40.4918633,0.0706295376 L40.5330202,0.073356685 L40.5139724,0.37777451 C40.2166908,0.359366265 39.9204296,0.344366955 39.6234881,0.332776579 L39.5813109,0.331072111 L39.5928756,0.0259724995 C39.6068213,0.0266542863 39.6211072,0.0273360731 39.6350529,0.0276769666 Z M36.7768637,0.331072111 C36.4737997,0.342662488 36.1717562,0.357661798 35.8700528,0.376070043 L35.8438621,0.37777451 L35.8248143,0.073356685 C36.1186945,0.0549484403 36.413255,0.0399491297 36.7081556,0.0283587534 L36.765299,0.0263133929 C36.7690405,0.127899632 36.772782,0.229485872 36.7768637,0.331072111 Z M38.2364007,6.4599435e-05 C38.3738169,0.000405492856 38.510893,0.0010872797 38.6483092,0.0027917468 L38.645248,0.307891359 C38.5673561,0.306868679 38.4891241,0.306186892 38.4112323,0.305845998 C38.1775567,0.304482425 37.9435409,0.305164211 37.7098654,0.307891359 L37.7068041,0.0027917468 C37.8829962,0.000746386277 38.0598685,-0.000276293986 38.2364007,6.4599435e-05 Z" id="Circle-color" fill="#9BC3D3"></path>
                                    <path d="M38.5836828,72.9278715 L40.2959432,74.3379089 L38.8894679,76.0533869 L37.1772075,74.6433494 L38.5836828,72.9278715 Z M23.5691931,2.03042582 C24.2845057,2.03042582 24.8641028,2.61130821 24.8641028,3.32820707 C24.8641028,4.05124202 24.2743015,4.63587424 23.5508256,4.62598833 C22.8630642,4.61644331 22.2841474,4.03590181 22.2742834,3.34661532 C22.2644193,2.62153501 22.847758,2.03042582 23.5691931,2.03042582 Z" id="Yellow-color" fill="#FFCC33"></path>
                                    <path d="M6.02791174,54.3685087 L7.74000208,55.7782393 L6.33335668,57.4941604 L4.62126635,56.0844298 L6.02791174,54.3685087 Z M56.1141137,3.54160635 C56.8192221,3.54160635 57.3913361,4.11089837 57.3913361,4.81313881 C57.3913361,5.51537926 56.8192221,6.08467128 56.1141137,6.08467128 C55.4086651,6.08467128 54.8365511,5.51537926 54.8365511,4.81313881 C54.8365511,4.11089837 55.4086651,3.54160635 56.1141137,3.54160635 Z" id="Turquoise-color" fill="#1BB3BC"></path>
                                    <polygon id="Red-color" fill="#EC0000" points="1.86770399 26.9289404 4.00071651 26.9289404 4.00071651 24.7911978 1.86770399 24.7911978"></polygon>
                                    <polygon id="Purple-color" fill="#9E3667" points="71.0264936 52.9882653 73.1595062 52.9882653 73.1595062 50.8505226 71.0264936 50.8505226"></polygon>
                                    <polygon id="Grey-color" fill="#767676" points="71.4472458 19.9488067 73.1595062 21.3590828 71.7526907 23.0744585 70.0407704 21.6645233"></polygon>
                                    <path d="M2.5544449,39.7219887 C2.5544449,40.4242292 1.98267102,40.9935212 1.27722245,40.9935212 C0.571773886,40.9935212 0,40.4242292 0,39.7219887 C0,39.0197483 0.571773886,38.4504563 1.27722245,38.4504563 C1.98267102,38.4504563 2.5544449,39.0197483 2.5544449,39.7219887" id="Dark-yellow-color" fill="#D39E00"></path>
                                </g>
                            </g>
                            <g id="B.-chanels/CHAN010---|-chat" transform="translate(55.924933, 17.615385)">
                                <g id="CHAN010---|-chat" transform="translate(5.749534, 11.519550)">
                                    <path d="M31.6067409,14.3995208 C36.3784811,14.3995208 40.2467409,18.2677805 40.2467409,23.0395208 L40.2467409,28.7986204 C40.2467409,33.5703606 36.3784811,37.4386204 31.6067409,37.4386204 L19.284,37.4385208 L11.0839887,45.6630416 C10.8475902,45.9001163 10.5371381,46.0463393 10.2068902,46.0791908 L10.0643016,46.0862632 C9.31579335,46.0862632 8.70067089,45.5151706 8.63089353,44.7849448 L8.62430162,44.6462632 L8.624,37.4385208 L8.38063709,37.4348019 C3.72887453,37.2976577 5.73744738e-16,33.4836017 0,28.7986204 L0,23.0395208 C-5.84369641e-16,18.2677805 3.86825976,14.3995208 8.64,14.3995208 L31.6067409,14.3995208 Z M12.9338923,25.9190706 L10.0642453,25.9190706 C9.26898638,25.9190706 8.62430162,26.5637553 8.62430162,27.3590143 C8.62430162,28.1542733 9.26898638,28.798958 10.0642453,28.798958 L10.0642453,28.798958 L12.9338923,28.798958 C13.7291513,28.798958 14.373836,28.1542733 14.373836,27.3590143 C14.373836,26.5637553 13.7291513,25.9190706 12.9338923,25.9190706 L12.9338923,25.9190706 Z M21.5581939,25.9190706 L18.688547,25.9190706 C17.893288,25.9190706 17.2486032,26.5637553 17.2486032,27.3590143 C17.2486032,28.1542733 17.893288,28.798958 18.688547,28.798958 L18.688547,28.798958 L21.5581939,28.798958 C22.3534529,28.798958 22.9981377,28.1542733 22.9981377,27.3590143 C22.9981377,26.5637553 22.3534529,25.9190706 21.5581939,25.9190706 L21.5581939,25.9190706 Z M30.1824955,25.9190706 L27.3128486,25.9190706 C26.5175896,25.9190706 25.8729049,26.5637553 25.8729049,27.3590143 C25.8729049,28.1542733 26.5175896,28.798958 27.3128486,28.798958 L27.3128486,28.798958 L30.1824955,28.798958 C30.9777545,28.798958 31.6224393,28.1542733 31.6224393,27.3590143 C31.6224393,26.5637553 30.9777545,25.9190706 30.1824955,25.9190706 L30.1824955,25.9190706 Z" id="Combined-Shape" fill="#34466B"></path>
                                    <path d="M28.7476721,37.4386204 C33.4631116,37.4386204 37.2946589,33.6474871 37.3708183,28.9418306 L37.3719737,28.798958 L37.3719737,23.0391831 C37.3719737,18.3153449 33.5875808,14.4769733 28.8902907,14.4006783 L28.7476721,14.3995208 L31.6224393,14.3995208 C36.3855095,14.3995208 40.2467409,18.2676294 40.2467409,23.0391831 L40.2467409,28.798958 C40.2467409,33.5705118 36.3855095,37.4386204 31.6224393,37.4386204 L28.7476721,37.4386204 Z M19.2842978,37.4386204 L11.0786162,45.6684295 C10.8282676,45.9194942 10.494943,46.0684204 10.1431634,46.0884146 L10.0616852,46.0907278 C9.44511714,46.0907278 8.91922005,45.7018277 8.71508715,45.1555324 L16.4095306,37.4386204 L19.2842978,37.4386204 Z" id="Shape" fill-opacity="0.15" fill="#000000"></path>
                                    <path d="M17.089,14.3994464 L10.45,25.9184464 L10.0642453,25.9190706 C9.26898638,25.9190706 8.62430162,26.5637553 8.62430162,27.3590143 C8.62430162,27.752576 8.78219206,28.1092603 9.03808535,28.3691798 L4.4380327,36.3497869 C1.7905788,34.8734126 3.97581849e-16,32.0451225 0,28.7986204 L0,23.0395208 C-5.84369641e-16,18.2677805 3.86825976,14.3995208 8.64,14.3995208 L17.089,14.3994464 Z" id="Combined-Shape" fill-opacity="0.2" fill="#FFFFFF"></path>
                                    <path d="M48.8553441,8.35468124e-05 C53.6270844,8.35468124e-05 57.4953441,3.86834331 57.4953441,8.64008355 L57.4953441,14.3901358 C57.4953441,19.161876 53.6270844,23.0301358 48.8553441,23.0301358 L36.5326032,23.0300835 L28.3323922,31.2515274 C28.0960078,31.488495 27.785623,31.6346451 27.4554574,31.66748 L27.3129049,31.6745488 C26.5643966,31.6745488 25.9492741,31.1034563 25.8794968,30.3732305 L25.8729049,30.2345488 L25.8726032,23.0300835 L25.6292403,23.0263173 C20.9774778,22.8891731 17.2486032,19.0751171 17.2486032,14.3901358 L17.2486032,8.64008355 C17.2486032,3.86834331 21.116863,8.35468124e-05 25.8886032,8.35468124e-05 L48.8553441,8.35468124e-05 Z M30.1824955,11.5196333 L27.3128486,11.5196333 C26.5175896,11.5196333 25.8729049,12.1643181 25.8729049,12.9595771 C25.8729049,13.754836 26.5175896,14.3995208 27.3128486,14.3995208 L27.3128486,14.3995208 L30.1824955,14.3995208 C30.9777545,14.3995208 31.6224393,13.754836 31.6224393,12.9595771 C31.6224393,12.1643181 30.9777545,11.5196333 30.1824955,11.5196333 L30.1824955,11.5196333 Z M38.8067972,11.5196333 L35.9371502,11.5196333 C35.1418912,11.5196333 34.4972065,12.1643181 34.4972065,12.9595771 C34.4972065,13.754836 35.1418912,14.3995208 35.9371502,14.3995208 L35.9371502,14.3995208 L38.8067972,14.3995208 C39.6020561,14.3995208 40.2467409,13.754836 40.2467409,12.9595771 C40.2467409,12.1643181 39.6020561,11.5196333 38.8067972,11.5196333 L38.8067972,11.5196333 Z M47.4310988,11.5196333 L44.5614518,11.5196333 C43.7661929,11.5196333 43.1215081,12.1643181 43.1215081,12.9595771 C43.1215081,13.754836 43.7661929,14.3995208 44.5614518,14.3995208 L44.5614518,14.3995208 L47.4310988,14.3995208 C48.2263577,14.3995208 48.8710425,13.754836 48.8710425,12.9595771 C48.8710425,12.1643181 48.2263577,11.5196333 47.4310988,11.5196333 L47.4310988,11.5196333 Z" id="Combined-Shape" fill="#CC0000" transform="translate(37.371974, 15.839153) scale(-1, 1) translate(-37.371974, -15.839153) "></path>
                                    <path d="M48.8710425,8.35468113e-05 C53.5864821,8.35468113e-05 57.4180293,3.79121677 57.4941887,8.49687328 L57.4953441,8.63974589 L57.4953441,14.3904734 C57.4953441,19.0670732 53.7862607,22.8758273 49.1543031,23.0255637 L49.0136611,23.0289783 L48.8714019,23.0298235 L48.8710425,30.2390675 L48.8692834,30.3109353 C48.833108,31.0482298 48.2433784,31.6397393 47.5076983,31.677134 L47.4336589,31.6790113 L47.3522015,31.6766993 C47.0275639,31.6582525 46.7186393,31.5300018 46.4761393,31.3130002 L46.4169275,31.2569131 L45.9054898,30.7438159 C45.9562181,30.6080581 45.9870757,30.4625803 45.9945162,30.3109353 L45.9962753,30.2390675 L45.9966346,23.0298235 L46.1388939,23.0289783 C50.8361841,22.9526832 54.6205769,19.1143116 54.6205769,14.3904734 L54.6205769,8.63974589 C54.6205769,3.86819213 50.7593456,8.35468113e-05 45.9962753,8.35468113e-05 L48.8710425,8.35468113e-05 Z" id="Shape" fill-opacity="0.15" fill="#000000"></path>
                                    <path d="M36.9376032,11.519 L35.9371502,11.5196333 C35.1418912,11.5196333 34.4972065,12.1643181 34.4972065,12.9595771 C34.4972065,13.5458856 34.8476215,14.0503504 35.3504462,14.2749659 L30.3036032,23.03 L25.8886032,23.0301358 C21.2036219,23.0301358 17.3895659,19.3012612 17.2524217,14.6494987 L17.2486032,14.3901358 L17.2486032,8.64008355 C17.2486032,3.86834331 21.116863,8.35468124e-05 25.8886032,8.35468124e-05 L25.8886032,8.35468124e-05 L43.5766032,0 L36.9376032,11.519 Z M30.1824955,11.5196333 L27.3128486,11.5196333 C26.5175896,11.5196333 25.8729049,12.1643181 25.8729049,12.9595771 C25.8729049,13.754836 26.5175896,14.3995208 27.3128486,14.3995208 L27.3128486,14.3995208 L30.1824955,14.3995208 L30.3211717,14.3929291 C31.051369,14.3231545 31.6224393,13.7080561 31.6224393,12.9595771 C31.6224393,12.1643181 30.9777545,11.5196333 30.1824955,11.5196333 L30.1824955,11.5196333 Z" id="Combined-Shape" fill-opacity="0.2" fill="#FFFFFF"></path>
                                </g>
                            </g>
                            <polygon id="Keyboard" fill="#9BC3D3" points="59.9929392 109.217164 97.7834891 131.000435 212.052479 113.72527 168.312169 96.9362246"></polygon>
                        </g>
                        <g id="Objects/Food-&amp;-Drinks/Cup-of-Coffee-02" transform="translate(229.793979, 0.000000)">
                            <g id="Group-7" transform="translate(0.000000, -0.000000)">
                                <path d="M54.6242519,135.896797 C54.6242519,138.563522 44.5283289,140.725238 32.0743946,140.725238 C19.6204602,140.725238 9.52449251,138.563522 9.52449251,135.896797 C9.52449251,133.230072 19.6204602,131.068356 32.0743946,131.068356 C44.5283289,131.068356 54.6242519,133.230072 54.6242519,135.896797" id="Fill-1" fill="#9BC3D3"></path>
                                <path d="M44.0247805,115.580054 C41.9526112,119.564566 38.3611301,122.016976 35.0807434,122.030981 C34.0912781,122.035697 33.1340877,121.816141 32.2511595,121.353665 C31.8610215,121.148187 31.4986758,120.900624 31.1687544,120.61562 C28.2927007,118.16321 27.8141055,113.001541 30.2256096,108.344431 C31.9493293,105.023231 34.7322938,102.771656 37.5107757,102.108344 C39.0719254,101.730037 40.6284431,101.851496 41.9990811,102.57097 C45.5161506,104.420724 46.5616487,109.540309 44.5683738,114.402897 C44.4104358,114.795282 44.2291883,115.192311 44.0247805,115.580054 M44.1641902,98.3995507 C42.2964288,97.4185864 40.1824217,97.2036729 38.054369,97.6427854 C33.9192946,98.4835691 29.7283368,101.795334 27.1636762,106.737597 C23.2748475,114.230067 24.5849701,122.642996 30.0861999,125.524935 C30.4392815,125.711842 30.8016272,125.865951 31.1687544,125.996846 C32.2420449,126.379796 33.3757013,126.538697 34.5326675,126.491971 C39.1741293,126.305063 44.1780863,122.801748 47.0867138,117.187038 C47.565309,116.266729 47.9600791,115.337134 48.2853684,114.402897 C50.5898872,107.713769 48.9915317,100.931337 44.1641902,98.3995507" id="Fill-2" fill="#C3DEE7"></path>
                                <path d="M39.0300876,89.6457552 C39.0300876,89.6691186 39.0254555,89.6878393 39.0208235,89.7112027 L39.0208235,89.7206379 L38.054369,97.6429352 L37.5107757,102.108494 L36.0099921,114.403046 L35.0807434,122.031054 L34.5325181,126.491896 L34.2584801,128.757549 C33.9424549,131.331269 32.8273266,133.624929 31.1687544,135.3998 C29.0127601,137.726108 25.93708,139.160113 22.5639028,139.160113 L17.2068642,139.160113 C11.7707819,139.160113 7.10601041,135.437241 5.79110637,130.252209 C5.67948895,129.83646 5.59596266,129.406782 5.53544719,128.972312 L1.39574076,99.5440589 L0.0112065686,89.7206379 C0.00657452022,89.6971247 0.00194247188,89.6691186 0.00194247188,89.6457552 L39.0300876,89.6457552 Z" id="Fill-3" fill="#F5F9FB"></path>
                                <path d="M39.0300876,89.6457552 C39.0300876,89.6691186 39.0254555,89.6878393 39.0208235,89.7112027 L39.0208235,89.7206379 L38.054369,97.6429352 L37.5107757,102.108494 L36.0099921,114.403046 L35.0807434,122.031054 L34.5325181,126.491896 L34.2584801,128.757549 C33.9424549,131.331269 32.8273266,133.624929 31.1687544,135.3998 C29.0127601,137.726108 25.93708,139.160113 22.5639028,139.160113 L19.6972626,139.160113 C21.0632686,138.520315 22.2897154,137.618726 23.3072719,136.520945 C24.9659934,134.745924 26.0809723,132.452414 26.3969975,129.878544 L26.6711849,127.613041 L27.2194102,123.152199 L28.1486589,115.524191 L29.6494426,103.229639 L30.1930359,98.7639302 L31.1594903,90.841633 L31.1594903,90.8321977 C31.1641224,90.8089841 31.1687544,90.7902634 31.1687544,90.7669" id="Fill-4" fill="#C3DEE7"></path>
                                <path d="M39.029191,89.646504 C39.029191,90.2223525 37.0167902,90.7465318 33.7346104,91.1365213 C30.1764501,91.5569131 25.1213912,91.8219981 19.5145208,91.8219981 C13.9077998,91.8219981 8.85259148,91.5569131 5.29458067,91.1365213 C2.01225145,90.7465318 0,90.2223525 0,89.646504 C0,88.4459835 8.73738796,87.4710098 19.5145208,87.4710098 C30.2916537,87.4710098 39.029191,88.4459835 39.029191,89.646504" id="Fill-5" fill="#9BC3D3"></path>
                                <path d="M37.8741674,52.6180239 L25.0637147,69.7007301 C22.4017811,73.2479268 21.1013709,77.6383034 21.3999139,82.0671698 L21.7661446,87.4856869 L21.9917701,90.8148249 L22.0594578,91.8029779 C21.2261374,91.8149592 20.3768289,91.8215488 19.5143714,91.8215488 C18.7447043,91.8215488 17.9857954,91.8163071 17.2400357,91.8068718 C16.7756355,91.8002821 16.316465,91.7923446 15.8640185,91.7830591 L15.4220314,90.8148249 L13.9371162,87.5614682 L8.48071271,75.6100288 C5.05314636,68.1100703 6.99995145,59.2415544 13.2485847,53.8669187 C17.4456388,50.2572698 19.6856078,45.0834696 19.6856078,39.8180129 C19.6856078,36.9172043 19.0048461,33.9844956 17.5968528,31.2738892 L5.2656229,7.54908154 C3.87765203,4.88505221 5.04926142,1.6012931 7.80801975,0.417546311 C8.46218452,0.135537809 9.15101493,-2.00059848e-14 9.83551214,-2.00059848e-14 C11.3138827,-2.00059848e-14 12.7601277,0.643692268 13.7621443,1.82609116 L16.9758595,5.62594231 L37.1960953,29.5369085 C42.7718861,36.1298869 43.0545905,45.7072431 37.8741674,52.6180239" id="Fill-6" fill="#C3DEE7"></path>
                            </g>
                        </g>
                    </g>
                </g>
            </g>
        </g>
    </g>
</svg>