<?xml version="1.0" encoding="UTF-8"?>
<svg width="57px" height="92px" viewBox="0 0 57 92" version="1.1" xmlns="http://www.w3.org/2000/svg" xmlns:xlink="http://www.w3.org/1999/xlink">
    <title>b. characters / male / executive 2</title>
    <g id="Costs-&amp;-Charges-Reporting" stroke="none" stroke-width="1" fill="none" fill-rule="evenodd">
        <g id="Special_CCR_feed_-04-E" transform="translate(-1012.000000, -237.000000)">
            <g id="Group-23" transform="translate(970.000000, 237.000000)">
                <g id="b.-characters-/-male-/-executive" transform="translate(47.000000, 0.000000)">
                    <g id="Group" transform="translate(-4.030000, 3.154286)">
                        <g id="Adult" transform="translate(9.190480, 0.000000)">
                            <g id="Group" transform="translate(0.000000, 46.262857)">
                                <g id="Group-5" transform="translate(6.695921, 0.000000)">
                                    <path d="M19.9431695,35.8571061 C20.0300476,36.4148684 21.8330909,37.0641848 21.8330909,37.0641848 L21.8330909,37.0641848 L25.3931604,37.7744189 L24.3974134,38.2228447 L15.0812171,38.2228447 L15.0812171,35.8571061 Z M1.9678797,28.1027406 L6.0582667,30.8167422 L5.76074135,31.5216666 C5.60456697,31.8918915 5.49144495,32.2713429 5.42270296,32.6561171 L5.42270296,32.6561171 L5.56833338,38.0143442 L4.83421325,38.2228447 C4.83421325,38.2228447 -0.0451276419,29.9782324 0.000309358299,29.8233948 C0.0752642963,29.5684339 1.9678797,28.1027406 1.9678797,28.1027406 L1.9678797,28.1027406 Z" id="Shoes/Feet" fill="#34466B"></path>
                                    <polygon id="Left-Leg" fill="#9BC3D3" points="23.1089361 0 22.1075175 22.1540908 20.1155078 35.988536 15.0772212 35.988536 15.3422382 25.8955196 15.3976649 21.6969775 15.679052 0"></polygon>
                                    <path d="M18.9319545,0 L18.8828439,2.38164165 L18.7090877,4.40907965 L18.5634315,6.10859999 L18.3373421,8.74666142 L18.1184711,11.3003448 L18.0174141,12.4792712 L17.9840291,12.8705381 L17.234222,21.6174624 C17.199677,22.0174037 17.0152221,22.3885618 16.7191404,22.6531302 L15.3530657,23.8749028 L5.50166667,32.6016526 C5.50166667,32.6016526 2.66169303,32.1353392 1.79595383,28.2804995 L11.6416168,18.8775428 L7.62147996,0 L18.9319545,0 Z" id="Right-Leg" fill="#CEDEE7"></path>
                                </g>
                            </g>
                            <g id="Group" transform="translate(13.360414, 2.234286)">
                                <g id="b.-characters-/-body-parts-/-head-/-male-/-model-B.02" transform="translate(10.377021, 10.514286) rotate(14.000000) translate(-10.377021, -10.514286) ">
                                    <g id="b.-characters-/-body-parts-/-head-/-templates-/-model-B">
                                        <path d="M7.43466503,10.7516422 C6.28267735,9.89399893 5.53441113,8.51156663 5.53441113,6.95344762 C5.53441113,4.35375543 7.61750814,2.24304762 10.1833026,2.24304762 C12.552418,2.24304762 14.5100084,4.04253257 14.796179,6.364928 C14.8462239,6.60689676 14.8826126,6.85152914 14.907642,7.09611947 L14.9077112,7.09652602 L14.9084999,7.10190933 L14.9086659,7.1038019 C14.9160958,7.17698133 14.9225157,7.2501187 14.927981,7.3231299 L15.2481743,10.9579185 L14.5193754,11.2050743 L14.5117794,11.2068267 L14.5117379,11.2068407 C14.4936404,11.2701647 14.4836231,11.3043992 14.4836231,11.3043992 L14.4638099,11.7960893 L14.4280161,12.715108 C14.4156329,13.0192091 14.3528726,13.317212 14.2435819,13.5973967 C14.1672208,13.7951634 14.0663008,13.9845608 13.9429942,14.1603596 C13.7982001,14.3666499 13.6252221,14.5517574 13.4321127,14.7080698 C13.3314971,14.7901093 13.2245723,14.8632887 13.1128463,14.9284632 C13.053725,14.9630763 12.9947558,14.9948715 12.9334899,15.02469 L12.9330748,15.0249003 L13.2461426,20.766205 C13.2461426,20.766205 11.592004,21.2712131 9.78063273,20.8705067 C8.68576017,20.6303323 7.53233355,20.0568832 6.6524452,18.8430019 C6.6524452,18.8430019 7.69392452,14.2693437 7.43466503,10.7516422 Z" id="Base-color" fill="#FFC4B8"></path>
                                        <path d="M9.79796927,20.8025143 C8.7030137,20.56234 7.54965626,19.9888908 6.66978174,18.7750095 C6.66978174,18.7750095 7.79622811,13.8742589 7.41439525,10.3127479 C7.41439525,10.3127479 9.9768276,16.6425301 9.79796927,20.8025143 Z M14.5185868,11.2256122 C14.2634781,11.3014412 14.0122988,11.0983753 14.0289436,10.8298124 L14.1362281,9.09848808 L14.5185868,11.2256122 Z" id="Shadows" fill="#F4A48D"></path>
                                    </g>
                                    <g id="Hair" fill="#EC0000">
                                        <path d="M8.51794781,8.16193264 C8.17711596,7.72259884 7.71792943,7.49855095 7.32526118,7.63217469 C6.76653661,7.82229354 6.55277861,8.66505593 6.84818653,9.51296218 C6.95107588,9.80828284 7.10224721,10.0655332 7.2791989,10.2673638 C7.29084867,10.5207054 7.29521552,10.7698913 7.29321344,11.0143112 C6.59167404,10.4354978 5.91685801,9.66971868 5.59952879,8.75892385 C4.61009651,5.91902715 5.72040782,3.27433503 9.0737128,2.13321507 C11.590991,1.27659045 14.3008749,2.34623421 15.5023387,4.5466957 L15.231449,4.97423063 L15.2303319,4.97026376 L15.1870986,4.95866831 L10.6739382,3.71410475 L9.52420915,6.86235609 L9.94429715,7.62612994 L11.8080858,11.008092 C11.9374084,11.2448978 12.1283601,11.4374288 12.3558425,11.5706602 C12.52879,11.6725926 12.7218164,11.7414823 12.926536,11.7698316 L12.9278562,11.7693812 C12.9927351,11.7780124 13.0581508,11.7834904 13.1248287,11.7843041 C13.2311999,11.7860623 13.3365121,11.7765302 13.4400543,11.7574079 L14.2936209,11.5941853 C14.3741683,11.5784922 14.4565871,11.5679865 14.5385127,11.5605323 C14.6880156,11.5476727 14.8380553,11.5493147 14.9867894,11.5644846 C14.9899085,11.5649351 14.9926505,11.5640051 14.9948847,11.5661847 L14.9863831,11.5675651 C14.9622712,11.6327786 14.9489675,11.6680736 14.9489675,11.6680736 L14.8937073,12.1812811 L13.7397275,12.357436 C13.7095077,12.3618969 13.6816527,12.3684212 13.6533335,12.3780695 C13.5061808,12.4281421 13.3899443,12.545259 13.3441432,12.695346 C13.2898259,12.8732155 13.3473349,13.0642788 13.4901497,13.1839096 L14.429356,13.9685349 L14.5296194,14.0528998 C14.4327218,14.255515 14.309507,14.4480604 14.1629346,14.6252615 C13.9907705,14.8329334 13.7891265,15.0171674 13.5676504,15.1700296 C13.4521683,15.2502969 13.3304043,15.321003 13.2039978,15.3829907 L13.1511313,15.3571261 C13.1001799,15.3320608 13.047415,15.30608 12.9972761,15.2792855 C11.5640645,14.545808 10.3839707,13.4467688 9.57025692,12.1118973 C9.27548735,11.630105 9.02885466,11.1173479 8.83710501,10.5799468 C8.81621377,10.5242218 8.79661373,10.4679883 8.77789866,10.4100256 L8.77771006,10.4095751 C9.0339324,10.0465417 9.08629106,9.43660368 8.87285224,8.82397751 L8.86511958,8.80213796 L8.86247916,8.79482905 L8.85718381,8.7803856 L8.85403562,8.77188518 L8.84903042,8.75858964 L8.84572265,8.74991485 L8.84052885,8.73651761 L8.83732263,8.72838045 L8.83098272,8.71249846 L8.82883556,8.70709307 L8.82039202,8.68653222 L8.81715678,8.67887457 L8.81155677,8.66563716 L8.80777023,8.656788 L8.80254742,8.6447857 L8.79857228,8.63571858 L8.79326242,8.62384705 L8.7893163,8.61505601 L8.78338261,8.60212375 L8.77994426,8.59464047 L8.77081885,8.57522754 L8.76713387,8.56756989 L8.76115665,8.55518979 L8.75680431,8.54631157 L8.75133487,8.53525376 L8.74676491,8.52614305 L8.74128096,8.51533225 L8.73669649,8.50638138 L8.73080632,8.49507655 L8.72652652,8.48686674 L8.71671925,8.46845642 L8.71284566,8.46135094 L8.70627363,8.4493341 L8.70150056,8.44071743 L8.69566842,8.4303135 L8.69066323,8.42146434 L8.68487461,8.41135102 L8.6798259,8.40261811 L8.67373262,8.39224323 L8.66890152,8.38403342 L8.66106731,8.37097038 L8.65815124,8.36611715 L8.65500304,8.3609733 L8.64722686,8.34831712 L8.64225068,8.34032527 L8.63589627,8.33022647 L8.63061542,8.32194401 L8.62439158,8.31222301 L8.61906721,8.30402774 L8.61256772,8.29413237 L8.60743195,8.28638754 L8.59969929,8.27487928 L8.59572415,8.26896531 L8.58435003,8.25241491 L8.57951894,8.24551286 L8.57233757,8.23529782 L8.56702772,8.22784361 L8.56013651,8.21826792 L8.55475411,8.21084276 L8.54764529,8.20116536 L8.542466,8.19417612 L8.53424008,8.18322002 L8.53010535,8.1777565 L8.51794781,8.16193264 Z" id="Hair-color"></path>
                                    </g>
                                </g>
                            </g>
                            <g id="Group" transform="translate(4.799372, 12.748571)">
                                <g id="Group-11" transform="translate(6.226213, 1.971429)">
                                    <path d="M18.6397237,8.46413143 L20.3355884,18.53248 L22.5778032,17.6960686 C22.5778032,17.6960686 23.6379456,18.2145543 23.7646749,19.6142686 C23.8842701,20.9390686 23.0076712,22.1487371 21.7405073,22.4976274 L18.4218063,23.4105829 L18.6397237,8.46413143 Z" id="Left-arm" fill="#FFC4B8"></path>
                                    <path d="M23.2375223,18.6328914 L24.7213065,18.3169371 L25.3243412,18.3169371 C25.9450167,18.3169371 26.4058862,17.7332629 26.2699472,17.1196229 L25.922317,15.5511543 C25.8709507,15.31984 25.540702,14.98496 25.540702,14.98496 L25.3611796,14.8623371 C25.1077208,14.6885886 24.7969291,14.6216914 24.4949578,14.67584 L22.89534,14.9624857 L19.1371722,17.9835029 L22.182309,19.57852 L23.2375223,18.6328914 Z" id="Left-hand" fill="#F4A48D"></path>
                                    <polygon id="f.-objects-/-Clothes-&amp;-Accesories" fill="#FFFFFF" points="20.929154 18.0979771 23.7994379 15.6754857 26.3370087 15.6754857 23.2375223 18.6328914"></polygon>
                                    <path d="M18.994099,31.496568 L13.6741895,32.8772514 L8.85979665,3.63071429 L8.9601165,3.62256571 C9.83872588,4.41639429 10.9968663,4.90031429 12.2669358,4.90031429 C12.9778914,4.90031429 13.6533058,4.74930286 14.2652906,4.47645714 L15.8283294,5.89483429 L18.5196097,16.5518514 L18.994099,31.496568 Z" id="Shirt" fill="#DEEDF2"></path>
                                    <path d="M7.03476405,1.13745717e-13 L7.08142133,0.0472098637 C7.72543004,0.702290472 14.8419405,8.05120675 16.2681853,14.3445086 C16.6045305,15.8264971 16.8525413,17.5798857 17.0057321,19.42304 C17.1058703,20.6085257 17.1667056,21.8300229 17.1862923,23.0424251 C17.2706055,28.3252491 16.579496,33.4040171 14.962367,34.3033829 C12.3994893,35.7279503 1.49493957,35.5507977 1.75876235,34.9263149 C1.794822,34.8412902 1.99366608,34.1867592 2.26809773,33.1070904 L2.36225487,32.7316529 C2.87808132,30.6474547 3.60218124,27.2703084 4.04462548,23.4113714 C4.05906251,23.2815069 4.07377194,23.1519051 4.08949313,23.0210023 C4.69758655,17.6040686 5.11174642,11.4242971 5.35467248,7.09937714 C5.38112091,6.63188571 5.40557177,6.18594857 5.42802505,5.76511429 L3.59152584,6.40096571 L2.54890764,2.41197714 L5.65031381,1.5778 L7.03476405,1.13745717e-13 Z M13.9939315,3.98320571 L17.2899327,6.07738857 C18.1051775,6.59456 18.6115761,7.48998286 18.6397237,8.46439429 L18.9244432,18.2648914 L20.681662,33.4808371 C20.7855619,34.3749851 19.9402239,35.0781149 19.094367,34.8014051 L18.5948431,34.6370537 L17.5393704,17.19572 C17.428466,17.0259143 14.7274572,7.55714286 13.8923664,4.62234286 L13.7882071,4.65809143 L13.7882071,4.65809143 L13.9017057,4.28785714 L13.9939315,3.98320571 Z" id="Jacket" fill="#9E3667"></path>
                                    <path d="M15.7524474,22.3437509 L15.5456853,23.8927023 L4.08949313,22.3225909 L4.12360758,22.0098171 L16.6424066,22.0098171 L16.6424066,18.7248914 L17.0057321,18.7248914 C17.1058703,19.9109029 17.1668353,21.1306914 17.1865517,22.3437509 L15.7524474,22.3437509 Z M7.15566931,6.54553714 L8.30406827,6.63766857 L7.49947298,11.2124343 L6.79862197,15.2031314 L6.9909341,10.5374171 L7.15566931,6.54553714 Z M6.75475311,4.09584 L2.67053929,2.37925143 L5.93245203,1.50196571 L6.75475311,4.09584 Z" id="Shadows" fill="#732645"></path>
                                    <path d="M15.8617953,17.5069429 L17.7962017,17.1959829 L19.2548217,16.2109257 C19.3994514,16.1131429 19.5722288,16.0681943 19.7457845,16.0831771 L22.7534342,16.3455086 C23.0089684,16.3674571 23.1162408,16.6872229 22.9267305,16.8625486 C22.7037543,17.0695486 22.396335,17.2618286 22.0391061,17.2406686 C21.2918308,17.1959829 20.1403707,17.1959829 20.1403707,17.1959829 L20.4689331,17.9361886 L23.3179442,17.9361886 C23.8352387,17.9361886 24.1770318,18.4755714 23.9678051,18.95476 C23.7772571,19.3918914 23.2119688,20.0341829 22.8885949,20.3814171 C22.7408521,20.5400514 22.5574383,20.6588629 22.3530109,20.7273371 L20.7328986,21.2698743 C20.5112195,21.3442629 20.2726777,21.3542514 20.0449021,21.2982629 L15.5757786,20.2000457 L15.8617953,17.5069429 Z" id="Right-hand" fill="#FFC4B8"></path>
                                    <path d="M0.105521331,6.77382857 C0.0365789986,6.49230857 0,6.19790857 0,5.89483429 C0,3.88516 1.60789344,2.25597143 3.59126641,2.25597143 C5.57471721,2.25597143 7.18224746,3.88489714 7.18253282,5.89430857 L7.18253282,5.89483429 C7.18253282,5.99879429 7.17822636,6.10183429 7.16976909,6.20369143 L6.9909341,10.5374171 L6.74955163,16.3938743 L9.67135751,16.5970629 L16.6424066,17.0619257 L16.6424066,22.0098171 L3.97035196,22.0098171 C3.71453245,22.0098171 3.48089382,21.9522514 3.27510453,21.8321257 C2.86636665,21.5925314 2.61441258,21.1331886 2.50894313,20.5170514 L2.49939628,20.4605371 L0.105521331,6.77382857 Z" id="Right-arm" fill="#9E3667"></path>
                                </g>
                            </g>
                        </g>
                        <g transform="translate(3.510000, 17.480000)" id="f.-objects-/-clothes-&amp;-accesories-/-Messenger-Bag">
                            <g transform="translate(18.200000, 18.400000) rotate(12.000000) translate(-18.200000, -18.400000) ">
                                <g id="Group-6" transform="translate(12.239500, 0.092000)">
                                    <g id="Strap" transform="translate(1.125294, 0.045725)">
                                        <polygon id="Fill-1" fill="#723846" points="9.44669365 23.0967598 7.73883617 23.2642769 5.80370754 3.09847186 7.51158683 2.9309988"></polygon>
                                        <polygon id="Fill-2" fill="#9BC3D3" points="9.4536903 27.6910965 8.60149437 27.7744584 8.16580599 23.2222764 9.01800192 23.1389145"></polygon>
                                        <path d="M0.26827018,5.55724072 L-8.66435812e-14,23.2274989 L1.15470826,23.2451056 L1.71341557,23.2547794 L1.79619832,17.8134256 L1.98179473,5.58412455 C1.99648551,4.63547784 2.30322635,3.75117605 2.82873772,3.03082156 C3.07712958,2.68662036 3.37617629,2.38076168 3.71681054,2.12183952 C4.12704072,1.8102515 4.59710204,1.56675449 5.11293581,1.41360479 L6.00977078,1.14542754 L3.96060335,0.0231377246 L3.94841916,1.69961822e-14 C3.94257772,0.000881437126 3.93808766,0.00396646707 3.93128719,0.00705149701 C2.88540838,0.461432335 2.00919281,1.19126228 1.37740216,2.0987018 C0.688221557,3.08436886 0.28786515,4.27893653 0.26827018,5.55724072" id="Fill-3" fill="#723846"></path>
                                        <polygon id="Fill-4" fill="#9BC3D3" points="1.21294826 28.0859143 0.354409581 28.0729131 0.426054371 23.2351234 1.28459305 23.2481246"></polygon>
                                    </g>
                                    <path d="M1.04804754,36.5288479 L10.9519644,36.5478223 C11.5253407,36.5487904 11.9913261,36.0796896 11.9923069,35.4999904 L12.0081984,27.0459066 C12.0092863,26.4657887 11.5451537,25.9951013 10.9713414,25.9940216 L1.06731557,25.9755081 C0.494026467,25.974079 0.028477006,26.4433121 0.0270602395,27.022879 L0.0116047472,35.4770731 C0.0105385629,36.0572129 0.474649461,36.5278783 1.04804754,36.5288479" id="Bag" fill="#CEDEE7"></path>
                                </g>
                            </g>
                        </g>
                    </g>
                    <path d="M16.0965927,24.6183883 C16.0269411,24.3370514 15.99,24.042873 15.99,23.7400257 C15.99,21.7344518 17.6102259,20.1085714 19.6088247,20.1085714 C21.6074236,20.1085714 23.2276495,21.7344518 23.2276495,23.7400257 C23.2276495,23.8465245 23.2230879,23.9519297 23.2141261,24.0559575 L23.0346078,28.3733148 L22.7913479,34.2181555 L25.7354553,34.4209044 L32.76,34.8850597 L32.76,39.8228571 L19.9907824,39.8228571 C19.7328687,39.8228571 19.4976421,39.765496 19.29031,39.645467 C18.8782295,39.4067053 18.6243526,38.9478567 18.5180223,38.3329664 C18.5140258,38.3142916 18.5114019,38.2956169 18.5086972,38.2769421 L16.0965927,24.6183883 Z" id="Primary-color" fill="#9E3667"></path>
                </g>
            </g>
        </g>
    </g>
</svg>