<?xml version="1.0" encoding="UTF-8"?>
<svg width="362px" height="227px" viewBox="0 0 362 227" version="1.1" xmlns="http://www.w3.org/2000/svg" xmlns:xlink="http://www.w3.org/1999/xlink">
    <title>3D548A55-1A3F-4AC4-BA50-FD4FB32292BF</title>
    <g id="MVP-1" stroke="none" stroke-width="1" fill="none" fill-rule="evenodd">
        <g id="Employee_VDR_00D" transform="translate(-299.000000, -367.000000)">
            <g id="Group-4" transform="translate(299.000000, 367.000000)">
                <g id="Group-3" transform="translate(0.000000, 83.258964)">
                    <g id="g.-illustration/Objects/Furniture/Table" transform="translate(89.816733, 26.139442)">
                        <g id="Group" transform="translate(0.000000, 0.156514)">
                            <path d="M108.680859,91.4123679 C102.021851,89.8378723 98.0327022,87.0951719 98.0327022,84.1637347 L98.0327022,10.7489197 C98.0327022,9.52656387 95.5021656,8.47521122 92.2124681,8.41821017 C88.7009932,8.35593125 85.8008277,9.394617 85.8008277,10.6855852 L85.8008277,84.1637347 C85.8008277,87.0951719 81.8116785,89.8378723 75.152671,91.4123679 C63.0686481,94.2686481 45.477154,95.7505698 45.477154,95.7505698 L138.356376,95.7505698 C138.356376,95.7505698 120.764882,94.2686481 108.680859,91.4123679" id="Fill-2" fill="#9BC3D3"></path>
                            <path d="M183.972852,6.27644861 C183.972852,9.74190115 142.790501,12.5518417 91.9864258,12.5518417 C41.1851934,12.5518417 7.33755686e-14,9.74190115 7.33755686e-14,6.27644861 C7.33755686e-14,2.8099405 41.1851934,-4.00097485e-14 91.9864258,-4.00097485e-14 C142.790501,-4.00097485e-14 183.972852,2.8099405 183.972852,6.27644861" id="Fill-13" fill="#DEEDF2"></path>
                        </g>
                    </g>
                    <g id="g.-illustration/Objects/Furniture/Chair-01" transform="translate(259.884462, 0.000000)">
                        <g id="Group-7" transform="translate(0.262201, 0.293665)">
                            <polygon id="Fill-1" fill="#9BC3D3" points="14.9149729 80.4691247 69.6088926 80.4691247 66.7233999 71.949539 17.7997489 71.949539"></polygon>
                            <polygon id="Fill-2" fill="#9BC3D3" points="81.9333725 122.056056 84.5235788 122.056056 68.2942948 76.5884021 64.1330502 76.5884021"></polygon>
                            <polygon id="Fill-3" fill="#9BC3D3" points="2.59020634 122.056056 0 122.056056 16.229284 76.5884021 20.3905286 76.5884021"></polygon>
                            <path d="M97.003299,35.948251 L82.9850794,60.226956 C78.2726813,68.3896179 69.563883,73.4166536 60.1390868,73.4166536 L20.0245741,73.4166536 L55.4940599,11.9827503 C59.7757125,4.56762175 67.6868076,-2.18980212e-15 76.2486794,-2.18980212e-15 C94.6969116,-2.18980212e-15 106.227415,19.9712506 97.003299,35.948251" id="Fill-4" fill="#DEEDF2"></path>
                            <path d="M17.9253173,73.4153635 L42.799612,73.4153635 L61.1446373,41.6448415 L30.3954335,41.6448415 C25.5604772,41.6448415 21.0924788,44.2242971 18.6750007,48.4113435 L11.0821269,61.5637719 C8.04110708,66.8309071 11.8432777,73.4153635 17.9253173,73.4153635" id="Fill-5" fill="#DEEDF2"></path>
                            <path d="M36.8308133,73.4153635 L60.1598715,73.4153635 C69.583951,73.4153635 78.2927493,68.3876111 83.0058641,60.2263826 L93.7350807,41.6448415 L62.9858769,41.6448415 C58.1509207,41.6448415 53.6829222,44.2242971 51.2661608,48.4113435 L36.8308133,73.4153635 Z" id="Fill-6" fill="#C3DEE7"></path>
                        </g>
                    </g>
                    <g id="g.-illustration/Objects/Furniture/Chair-01-Copy" transform="translate(51.402390, 62.000000) scale(-1, 1) translate(-51.402390, -62.000000) translate(0.402390, 0.000000)">
                        <g id="Group-7" transform="translate(0.262201, 0.293665)">
                            <polygon id="Fill-1" fill="#9BC3D3" points="14.9149729 80.4691247 69.6088926 80.4691247 66.7233999 71.949539 17.7997489 71.949539"></polygon>
                            <polygon id="Fill-2" fill="#9BC3D3" points="81.9333725 122.056056 84.5235788 122.056056 68.2942948 76.5884021 64.1330502 76.5884021"></polygon>
                            <polygon id="Fill-3" fill="#9BC3D3" points="2.59020634 122.056056 0 122.056056 16.229284 76.5884021 20.3905286 76.5884021"></polygon>
                            <path d="M97.003299,35.948251 L82.9850794,60.226956 C78.2726813,68.3896179 69.563883,73.4166536 60.1390868,73.4166536 L20.0245741,73.4166536 L55.4940599,11.9827503 C59.7757125,4.56762175 67.6868076,-2.18980212e-15 76.2486794,-2.18980212e-15 C94.6969116,-2.18980212e-15 106.227415,19.9712506 97.003299,35.948251" id="Fill-4" fill="#DEEDF2"></path>
                            <path d="M17.9253173,73.4153635 L42.799612,73.4153635 L61.1446373,41.6448415 L30.3954335,41.6448415 C25.5604772,41.6448415 21.0924788,44.2242971 18.6750007,48.4113435 L11.0821269,61.5637719 C8.04110708,66.8309071 11.8432777,73.4153635 17.9253173,73.4153635" id="Fill-5" fill="#DEEDF2"></path>
                            <path d="M36.8308133,73.4153635 L60.1598715,73.4153635 C69.583951,73.4153635 78.2927493,68.3876111 83.0058641,60.2263826 L93.7350807,41.6448415 L62.9858769,41.6448415 C58.1509207,41.6448415 53.6829222,44.2242971 51.2661608,48.4113435 L36.8308133,73.4153635 Z" id="Fill-6" fill="#C3DEE7"></path>
                        </g>
                    </g>
                </g>
                <g id="Group-2" transform="translate(119.505976, 0.000000)">
                    <g id="g.-illustration/Characters/Female/Executive-C" transform="translate(97.442231, 115.484064) scale(-1, 1) translate(-97.442231, -115.484064) translate(56.442231, 4.984064)">
                        <g id="Group" transform="translate(0.000000, 0.000000)">
                            <g id="Group-8" transform="translate(14.199203, 106.996016)">
                                <path d="M9.68929586,110.371384 L24.2218432,110.371384 L29.9003839,104.315843 L28.887322,110.371384 L30.77944,110.371384 L33.0780948,103.291967 L31.0838105,96.2807991 L20.5535065,105.04231 C19.8822819,105.601798 19.0066664,105.851672 18.1832711,105.626175 C17.4734426,105.434818 16.9203624,104.928967 17.5518167,103.679562 L16.3490882,104.376801 C15.24631,105.014271 14.09586,105.557925 12.9124335,105.999156 L9.92666345,107.110809 C8.59220331,107.605677 8.40026241,109.582738 9.62908654,110.334803 L9.68929586,110.371384 Z" id="Back-shoe" fill="#823645" transform="translate(20.943002, 103.326092) scale(-1, 1) translate(-20.943002, -103.326092) "></path>
                                <path d="M11.8033302,88.5018263 L19.6794966,89.9547607 L19.6794966,89.9559812 C18.5097155,94.1087826 19.6306586,98.6212033 22.5687276,101.586811 L25.9781205,105.022908 L21.8895723,107.213262 L16.0808403,102.568646 C16.5445834,103.345144 17.1001706,104.067611 17.7426497,104.716112 L21.1520425,108.152209 L17.0634944,110.342563 L5.84041868,101.36776 L6.97725229,91.6311273 L11.3434187,92.4368263 L11.8033302,88.5018263 Z" id="Skin-tone" fill="#FFC4B8"></path>
                                <path d="M4.8632179,113.500685 L19.3957652,113.500685 L25.074306,107.445144 L24.0612441,113.500685 L25.9533621,113.500685 L28.2520169,106.421268 L26.2577326,99.4101001 L15.7274285,108.171611 C15.0562039,108.731099 14.1805884,108.980973 13.3571931,108.755476 C12.6473646,108.564119 12.0942844,108.058268 12.7257388,106.808863 L11.5230102,107.506102 C10.420232,108.143572 9.26978209,108.687226 8.0863555,109.128457 L5.1005855,110.24011 C3.76612536,110.734978 3.57418446,112.712039 4.80300858,113.464104 L4.8632179,113.500685 Z" id="Front-shoe" fill="#823645" transform="translate(16.116924, 106.455393) scale(-1, 1) translate(-16.116924, -106.455393) "></path>
                                <path d="M4.95669952,0 L7.83458841,49.8851257 L16.6159064,95.05165 C17.4824541,95.0793353 25.7084177,93.4289107 25.7084177,93.4289107 C25.7084177,93.4289107 23.6720889,67.3932517 22.7896215,54.7849852 C22.5261583,51.0038508 22.7351269,47.2045665 23.4154194,43.4844535 L31.2506784,0.547314741 L4.95669952,0 Z" id="Front-leg" fill="#000000" fill-rule="nonzero" transform="translate(18.103689, 47.525825) scale(-1, 1) translate(-18.103689, -47.525825) "></path>
                                <path d="M0.130621565,7.11520665e-14 L3.00851046,49.8851257 L11.7898285,98.180951 C12.6563762,98.2086363 20.8823398,96.5582117 20.8823398,96.5582117 C20.8823398,96.5582117 18.846011,67.3932517 17.9635435,54.7849852 C17.7000804,51.0038508 17.909049,47.2045665 18.5893414,43.4844535 L26.4246004,0.547314741 L0.130621565,7.11520665e-14 Z" id="Front-leg-Copy" fill="#000000" fill-rule="nonzero" transform="translate(13.277611, 49.090476) scale(-1, 1) translate(-13.277611, -49.090476) "></path>
                            </g>
                            <g id="Head/Woman/Student-02">
                                <g id="Characters/Body-parts/Head/Female/Model-B-00" transform="translate(15.167331, 3.729084)">
                                    <path d="M4.43211992,19.5862195 C1.74524343,17.6119817 -2.75158382e-14,14.4297143 -2.75158382e-14,10.8430279 C-2.75158382e-14,4.85870916 4.85858008,0 10.8429956,0 C16.3686801,0 20.9345307,4.14229482 21.60199,9.48829482 C21.7187139,10.0452908 21.8035865,10.6084183 21.8619645,11.171449 L21.8621259,11.1723849 L21.8639653,11.1847769 L21.8643526,11.1891335 C21.8816821,11.3575876 21.8966558,11.525945 21.9094028,11.694012 L22.6562163,20.0610538 L20.9563781,20.62999 L20.9386614,20.6340239 L20.9385645,20.6340562 C20.8963542,20.7798239 20.87299,20.8586295 20.87299,20.8586295 L20.8267781,21.9904673 L20.7432932,24.1059873 C20.7144108,24.806008 20.5680299,25.4919908 20.3131219,26.1369574 C20.1350187,26.5922032 19.8996347,27.0281833 19.6120363,27.4328606 C19.2743211,27.9077271 18.8708701,28.3338323 18.4204649,28.693653 C18.1857908,28.8825024 17.9364012,29.0509566 17.6758135,29.2009841 C17.5379199,29.280661 17.4003813,29.3538514 17.2574857,29.4224916 L17.2565175,29.4229757 L17.9867116,42.6390777 C17.9867116,42.6390777 14.1286267,43.8015729 9.90381514,42.8791733 C7.35015299,42.326308 4.65992032,41.0062661 2.60768367,38.211992 C2.60768367,38.211992 5.03681235,27.6837347 4.43211992,19.5862195 Z" id="Skin-tone" fill="#FFC4B8"></path>
                                    <path d="M9.9442506,42.7226594 C7.39039482,42.169794 4.70032351,40.8497522 2.64811912,38.0554781 C2.64811912,38.0554781 5.27542351,26.7742757 4.38484303,18.5759139 C4.38484303,18.5759139 10.3614167,33.1466522 9.9442506,42.7226594 Z M20.9545386,20.6772669 C20.3595275,20.8518203 19.7736813,20.3843761 19.8125032,19.7661622 L20.0627319,15.7807685 L20.9545386,20.6772669 Z" id="Shadows" fill="#F4A48D"></path>
                                </g>
                                <g id="Hair" transform="translate(0.000000, 0.179283)" fill="#FFE699">
                                    <path d="M25.4004886,60.8493707 C12.8545245,61.1303858 0.0527810768,58.2129014 4.61852778e-14,47.2642508 C-0.0610384451,34.4560532 8.18440657,15.1799571 11.1510074,8.9029412 C13.2126671,4.54055873 19.3644396,-1.64254884 29.0401962,0.403427255 C30.5858118,0.730331637 32.8301572,1.90241132 33.8818663,2.97961451 C33.9451173,3.04415634 34.0083683,3.10708463 34.0722647,3.16839937 C38.6373086,3.8422161 42.3013484,7.57305674 42.6798863,12.3401165 C42.7202249,12.8493516 42.7215157,13.3531006 42.6866631,13.8481364 C42.7718584,20.5437061 43.0074361,47.5312281 41.3583922,53.6680914 C40.4896592,56.9009918 30.8787026,60.7266767 25.4004886,60.8493707 Z M29.5554014,46.6339998 C30.9031317,46.493589 32.112097,46.2983822 33.1396353,46.0315663 L32.4096671,32.8154643 L32.4106353,32.8149802 C32.5532727,32.74634 32.6910695,32.6731496 32.8288663,32.5934727 C33.0892926,32.4434452 33.3387468,32.274991 33.5733564,32.0861416 C34.0238584,31.7263209 34.4272448,31.3002157 34.7651213,30.8253492 C35.0526552,30.4206719 35.2879102,29.9846918 35.4660456,29.529446 C35.7209859,28.8844794 35.8674958,28.1983675 35.8962169,27.4984113 L35.9797986,25.3830528 L36.025946,24.250989 C36.025946,24.250989 36.0495038,24.172248 36.091456,24.0267061 L36.1095277,24.0225109 L37.8092369,23.4535747 L37.0624878,15.0863715 C37.0495795,14.9185627 37.0347349,14.7501085 37.0173086,14.5816543 L37.0169859,14.5771364 L37.0150496,14.5648735 L37.0150496,14.5639053 C36.9566392,14.0007779 36.8717667,13.4376504 36.754946,12.8806543 C36.6223126,11.8189412 36.3360695,10.8046663 35.9191293,9.86106471 C34.9635875,8.40112845 33.7886034,7.13384957 29.6082934,7.15833879 C24.4644707,7.18935554 22.5525803,9.93722407 21.7130201,11.7679532 C20.9431974,13.4463635 20.6668938,15.4271524 20.6668938,15.4271524 L20.6653771,15.4313476 L20.6130337,15.7330806 L20.6048691,15.7805189 L20.5967369,15.8260209 C19.6947647,14.6165069 18.4620803,14.0236902 17.6461102,14.4825826 C16.8683488,14.920499 16.7108667,16.1777739 17.1877018,17.5060448 C17.2562452,17.7567898 17.3493145,18.0104392 17.4677488,18.2621524 L17.4885958,18.3057181 L17.4946305,18.317981 L17.5109273,18.3512201 L17.5164779,18.3625149 L17.5378735,18.4047898 L17.5419074,18.4125348 L17.5600759,18.4477101 L17.5668205,18.4606185 L17.5846663,18.4938575 L17.5894424,18.5028934 C18.0500129,19.3535547 18.7176982,19.9654113 19.3795747,20.2045388 C19.4230114,20.2268057 19.4664157,20.2474591 19.5097556,20.2668217 C19.5097556,20.2668217 19.5945958,22.8607579 19.6181536,23.0447022 C20.5280321,30.1485958 17.9845353,40.6150866 17.796654,41.6429798 C19.6433894,44.061201 22.053091,45.7976022 26.1711827,46.4969452 C27.4099986,46.6610751 28.6064428,46.6723699 29.5554014,46.6339998 Z" id="Hair-color"></path>
                                </g>
                            </g>
                            <g id="Group-11" transform="translate(10.972112, 32.450199)">
                                <path d="M54.9702789,51.9726335 L51.9297131,59.1616255 C51.8277371,59.4028829 51.5498845,59.5122167 51.3136614,59.4003657 C48.2892311,57.9711514 28.5479498,50.888008 21.4964319,40.2537729 L28.299141,27.990502 C28.299141,27.990502 33.4139522,42.2887769 54.9702789,51.9726335 Z" id="Back-arm" fill="#732645"></path>
                                <path d="M17.0021259,76.9107586 L19.8076948,80.0229335 C19.8780454,80.1033849 19.938392,80.1964219 19.9822805,80.294461 L21.8752924,84.5581912 C21.935639,84.6926964 21.9395116,84.8447892 21.8878781,84.9830701 C21.7245873,85.4116924 21.1450016,85.4695219 20.902647,85.0798506 C20.5292725,84.4789984 20.0326231,83.6820681 19.5876072,82.9693649 L21.4693243,88.413404 C21.59389,88.7729343 21.5725912,89.1650904 21.414141,89.5082594 L20.8510135,90.7250343 C20.4134199,91.6703139 19.1603402,91.8626163 18.4639339,91.0908251 L14.5772247,86.7944044 C13.9198661,86.0691155 13.476141,85.1766311 13.2902606,84.213796 L12.5435116,80.333412 L12.5222127,79.5855012 L12.2304837,78.6809474 L17.0021259,76.9107586 Z M70.2583028,63.6246287 C70.5580996,64.4762904 69.1149442,65.761157 67.037988,66.492061 C64.9607092,67.2229972 63.0309084,67.1249904 62.7314343,66.2733287 C62.4316375,65.4216992 63.8747928,64.1368327 65.951749,63.4058964 C68.0290279,62.6749602 69.9588287,62.7729992 70.2583028,63.6246287 Z M56.0658765,53.5335777 L58.654004,54.6301434 L63.6495418,54.009251 L67.8754183,58.598498 C67.8754183,58.598498 67.2771155,59.5777267 65.6329124,59.2761873 L63.2371195,57.6958805 L56.8781355,62.060296 L53.4696813,59.1929283 L56.0658765,53.5335777 Z" id="Skin-tone" fill="#FFC4B8"></path>
                                <path d="M20.7709817,9.3395259 L29.7574637,24.0489323 C31.5723801,27.0191474 32.3654701,30.5463586 31.8024717,33.9880518 C31.7082406,34.5563426 31.3096948,36.3273705 31.1954558,36.9395498 C30.6332964,39.966239 29.7484279,46.3946056 31.1060653,53.9327689 C32.2158622,60.0871876 34.6244343,72.9764498 34.0258088,77.8083741 C34.0258088,77.8083741 16.0662048,81.2889861 1.28515697,75.490451 C1.1241251,72.7099566 1.31387809,61.8960048 2.64376255,53.343502 C3.30499363,49.1072988 3.20947171,44.7846096 2.32202151,40.5897131 C1.26353546,35.5932072 -0.546540239,25.9748606 0.158901992,15.7917729 C0.831105179,6.03885657 7.39145976,3.0005498 7.39145976,3.0005498 L20.7709817,9.3395259 Z" id="Suit" fill="#9E3667"></path>
                                <path d="M6.64439941,9.70860479 C7.67419662,7.88078009 9.75134642,7.1524255 12.3313416,7.51095538 C14.9417361,7.87238965 16.2828508,9.69601913 16.5977181,11.5006088 C17.1788851,14.8199952 20.2739564,23.7445171 16.8357484,35.109043 C15.8880161,44.9403132 19.4889018,54.3480275 20.0327636,72.6504777 C20.0382173,72.8339379 20.0317954,73.0152359 19.8155803,73.0837793 L11.6833094,75.6138514 C9.66799065,56.2602729 5.90061933,34.5430112 5.60947112,18.0570908 C5.57526395,16.1198677 5.43524045,15.7419753 5.5055265,13.9615889 C5.54767232,12.8937442 5.78496037,11.2337283 6.64439941,9.70860479 Z" id="Shadow" fill="#732645"></path>
                                <path d="M15.4236263,37.0628247 C14.4267777,46.8586614 17.0291044,56.3772908 16.9943163,74.6877442 C16.9939614,74.8712689 16.9843124,75.0522765 16.8119857,75.1138494 L10.3323084,77.3814944 C3.96109363,54.5510797 5.15840916,39.7993984 5.09548088,38.8315936 C3.78592709,18.7045458 7.03131633,11.7672669 7.40824064,10.9792112 C8.26696972,9.18559363 10.4765594,8.38237052 12.5028502,8.82351394 C14.5530215,9.26852988 15.6315155,11.6452829 15.8341769,13.4592311 C16.2085195,16.7953984 18.4240793,25.8144741 15.4236263,37.0628247 Z" id="Front-Arm" fill="#9E3667"></path>
                                <path d="M16.7143339,75.1480243 L17.3786629,76.77109 L11.3914398,78.9922004 L10.6486924,77.2707729 L16.7143339,75.1480243 Z M54.7376056,52.5228526 L56.1843108,53.2754104 L53.3447928,59.464843 L52.080741,58.8043865 L54.7376056,52.5228526 Z M8.09980637,1.50102153e-13 L22.6872287,6.90339442 L22.6872287,12.547255 L7.39081434,3.00022709 L8.09980637,1.50102153e-13 Z" id="Blouse" fill="#FFFFFF"></path>
                            </g>
                        </g>
                    </g>
                    <g id="Group">
                        <g id="Group" transform="translate(2.904382, 118.078505)">
                            <path d="M29.0439861,99.9745309 C29.2367402,101.237789 33.2361394,102.708404 33.2361394,102.708404 L33.2361394,102.708404 L40.3589761,104.316999 L39.6990359,105.332652 L30.0452721,105.332531 L32.7369084,105.881415 L31.7929518,107.02769 L6.92027211,107.02769 L6.92027211,100.98034 L18.2582721,100.979531 L18.2590458,99.9745309 Z" id="Shoes/Feet" fill="#34466B"></path>
                            <polygon id="Left-Leg" fill="#444444" points="32.7549801 -1.14584027e-13 34.5773187 51.6863694 30.0545498 101.058451 20.4171311 101.529574 17.8302299 101.529574 17.7133446 98.9201754 17.2017215 95.431358 12.8336594 47.4885002 6.85876375 -1.14584027e-13"></polygon>
                            <polygon id="Right-Leg" fill="#767676" points="-2.98088247e-14 1.8142471e-13 6.46851155 50.9778215 6.02226932 101.954198 19.9812801 101.954198 27.8023303 50.9778215 29.0291414 1.8142471e-13"></polygon>
                        </g>
                        <g id="Characters/Body-parts/Head/Male/Model-B-08" transform="translate(8.713147, 0.000000)">
                            <g id="Characters/Body-parts/Head/Male/Model-B-07" transform="translate(0.000000, 0.645418)">
                                <path d="M4.40801935,20.1505394 C1.77488039,18.1312866 0.0645418327,14.8764597 0.0645418327,11.2079925 C0.0645418327,5.08722411 4.82595031,0.117730524 10.6906775,0.117730524 C16.1058483,0.117730524 20.5803819,4.35447466 21.2344921,9.8223699 C21.3488815,10.3920661 21.4320566,10.9680336 21.4892671,11.543902 L21.4894252,11.5448592 L21.4912279,11.5575338 L21.4916074,11.5619897 C21.5085903,11.7342849 21.5232645,11.906481 21.5357566,12.07838 L22.2676338,20.6362005 L20.6017924,21.2181092 L20.58443,21.222235 L20.5843351,21.222268 C20.5429689,21.3713594 20.5200721,21.4519619 20.5200721,21.4519619 L20.4747844,22.609607 L20.3929692,24.7733633 C20.3646644,25.4893454 20.2212111,26.1909695 19.9714013,26.850642 C19.7968602,27.316268 19.5661838,27.7621889 19.2843374,28.1760934 C18.9533765,28.6617874 18.5579945,29.0976083 18.1165975,29.4656334 C17.8866169,29.6587888 17.642215,29.8310839 17.3868391,29.9845322 C17.2517034,30.0660258 17.1169155,30.1408851 16.9768778,30.2110904 L16.975929,30.2115855 L17.6915192,43.7290306 C17.6915192,43.7290306 13.910596,44.9180321 9.77028067,43.9746006 C7.26769176,43.4091293 4.63126375,42.0589889 2.62007182,39.201002 C2.62007182,39.201002 5.00061794,28.4326877 4.40801935,20.1505394 Z" id="Skin-tone" fill="#F4A48D"></path>
                                <path d="M9.80990742,43.814518 C7.30712876,43.2490467 4.67085887,41.8989063 2.65969857,39.0409194 C2.65969857,39.0409194 5.23445687,27.502492 4.361688,19.1171977 C4.361688,19.1171977 10.2187302,34.0201663 9.80990742,43.814518 Z M20.5999897,21.2664641 C20.0168788,21.4449975 19.4427495,20.966895 19.480795,20.334585 L19.7260191,16.2583196 L20.5999897,21.2664641 Z" id="Shadows" fill="#A66555"></path>
                            </g>
                            <g id="Hair" fill="#000000">
                                <path d="M6.88944171,14.527278 C6.17053012,13.5180292 5.20197478,13.0033407 4.37372547,13.3103046 C3.195216,13.7470504 2.74433943,15.6830656 3.36743898,17.6308973 C3.58446196,18.3093155 3.9033254,18.9002776 4.27656699,19.3639278 C4.30113967,19.9459107 4.3103506,20.5183469 4.30612765,21.0798343 C2.82638097,19.7501695 1.40300151,17.9910024 0.733663706,15.8987013 C-1.35333115,9.37481854 0.988632051,3.29936463 8.06170856,0.677954879 C13.3713662,-1.28990496 19.087284,1.16730784 21.6215139,6.22226388 L21.0501302,7.20440796 L21.047774,7.19529518 L20.9565827,7.16865782 L11.4370402,4.3096148 L9.01193384,11.5418577 L9.89801923,13.2964184 L13.829281,21.0655476 C14.1020592,21.6095439 14.5048309,22.0518309 14.9846561,22.3578934 C15.3494518,22.5920552 15.7565994,22.7503104 16.1884115,22.8154351 L16.1911962,22.8144003 C16.3280443,22.8342281 16.4660246,22.8468124 16.6066673,22.8486817 C16.8310345,22.8527207 17.0531679,22.8308234 17.2715679,22.7868951 L19.0719835,22.4119359 C19.2418808,22.3758853 19.4157256,22.3517515 19.58853,22.3346275 C19.9038743,22.305086 20.2203509,22.308858 20.5340733,22.3437069 C20.5406526,22.3447416 20.5464362,22.3426053 20.5511488,22.3476123 L20.5332165,22.3507835 C20.4823575,22.5005936 20.4542963,22.5816739 20.4542963,22.5816739 L20.3377367,23.7606274 L17.9036642,24.1652949 C17.8399221,24.1755426 17.781168,24.1905303 17.7214346,24.2126947 C17.4110477,24.3277227 17.1658717,24.5967667 17.0692641,24.9415502 C16.9546935,25.3501566 17.0759963,25.7890722 17.3772335,26.0638909 L19.3582874,27.8663521 L19.5697715,28.0601573 C19.3653868,28.5256101 19.1054917,28.9679304 18.7963288,29.3750013 C18.4331856,29.8520704 18.0078609,30.2752973 17.5407046,30.6264564 C17.2971198,30.8108483 17.0402848,30.9732761 16.7736575,31.1156759 L16.6621471,31.0562592 C16.554676,30.9986784 16.4433798,30.9389947 16.3376224,30.8774417 C13.3145706,29.1924786 10.8254161,26.6677378 9.10906173,23.6012372 C8.48730863,22.4944516 7.96708997,21.316533 7.56263526,20.0820016 C7.51856968,19.9539887 7.47722759,19.8248075 7.43775218,19.6916541 C7.97780035,18.8566497 8.08823971,17.4554847 7.63803636,16.0481443 L7.62172598,15.9979739 L7.61615658,15.9811837 L7.60498718,15.9480038 L7.59834674,15.9284764 L7.58778936,15.8979336 L7.58081231,15.8780057 L7.56985712,15.8472292 L7.56309427,15.8285363 L7.54972159,15.7920518 L7.54519263,15.7796344 L7.52738279,15.7324014 L7.52055875,15.7148101 L7.50874673,15.6844008 L7.50075984,15.6640723 L7.48974344,15.6365003 L7.48135874,15.6156711 L7.47015874,15.5883995 L7.46183524,15.5682045 L7.44931939,15.5384962 L7.44206693,15.5213054 L7.42281884,15.4767095 L7.41504616,15.4591182 L7.40243851,15.4306783 L7.39325818,15.410283 L7.38172157,15.3848807 L7.37208222,15.3639514 L7.36051501,15.3391165 L7.35084506,15.3185544 L7.33842102,15.2925846 L7.32939369,15.2737248 L7.30870735,15.2314322 L7.30053686,15.2151093 L7.28667456,15.1875039 L7.2766068,15.1677095 L7.26430516,15.1438093 L7.25374778,15.1234808 L7.24153794,15.1002482 L7.23088876,15.0801867 L7.2180363,15.0563533 L7.20784613,15.0374935 L7.19132154,15.0074848 L7.18517072,14.9963358 L7.17853028,14.9845192 L7.16212809,14.9554451 L7.15163192,14.9370861 L7.13822863,14.9138868 L7.12708984,14.8948602 L7.11396196,14.8725288 L7.10273136,14.8537024 L7.08902207,14.8309706 L7.07818928,14.8131789 L7.0618789,14.7867419 L7.0534942,14.7731561 L7.02950293,14.7351362 L7.01931277,14.7192806 L7.00416523,14.6958143 L6.99296522,14.6786903 L6.9784297,14.6566928 L6.9670767,14.6396356 L6.95208216,14.6174044 L6.94115757,14.6013485 L6.92380674,14.5761799 L6.91508543,14.563629 L6.88944171,14.527278 Z" id="Hair-color"></path>
                            </g>
                        </g>
                        <g id="Body/Man/Polo-03" transform="translate(0.000000, 29.638698)">
                            <path d="M11.1490207,5.41406685 L25.3128873,11.7951439 L35.0181394,36.9506522 L35.2833589,41.4125459 C40.1095878,48.3167402 46.824409,54.9542834 56.5136537,59.3306648 L56.5136537,59.3306648 L56.5123628,59.3345717 L51.5110162,69.8966923 C45.9427943,67.3168773 40.9146431,64.0435485 36.4126186,60.4094257 L38.2726614,91.6542586 L0.265912351,91.6542586 L0.265912351,91.6542586 L0.265208747,91.6083435 C0.251976682,90.7407439 0.056019356,77.7145148 0.00974123362,64.1955208 L0.00543704335,62.7711528 C0.00481660336,62.5336227 0.0042458225,62.296067 0.00372649568,62.0585486 L0.0012423425,60.63439 C0.000936011474,60.3972728 0.000684724303,60.1603189 0.000490275896,59.9235913 L0.000323349418,57.8008538 C0.00553097689,50.287161 0.0744554582,43.1987053 0.265912351,38.5996416 C0.86424741,24.2279041 2.30227171,17.9451737 4.90424343,12.9193936 C8.02916534,6.88455044 11.1490207,5.41406685 11.1490207,5.41406685 L11.1490207,5.41406685 Z" id="Primary-color" fill="#6F7779"></path>
                            <polygon id="Secondary-color" fill="#444444" points="35.0181394 36.950989 27.1845681 26.0345175 27.8733908 22.2656876 24.4644203 17.8666985 25.3128873 11.7941334"></polygon>
                            <path d="M57.1524382,62.3991121 L62.3903307,61.5345714 L64.602502,62.1275475 L65.6067729,65.3049843 L71.9660797,69.8598797 C71.9660797,69.8598797 72.8635339,71.7450693 70.6184462,73.786401 C68.3746494,75.8276989 65.5315817,74.3360978 65.5315817,74.3360978 L54.2009402,69.152761 L57.1524382,62.3991121 Z" id="Skin-tone" fill="#F4A48D"></path>
                            <path d="M55.991008,59.811519 L58.4829681,61.0296358 L54.1254263,70.7396438 L51.6334661,69.5215607 L55.991008,59.811519 Z M12.7856402,0.197319157 L26.2267351,7.894287 L25.5856733,12.5017574 L10.7405032,6.71614875 L12.7856402,0.197319157 Z" id="Tertiary-color-(Shirt)" fill="#FFFFFF"></path>
                            <path d="M26.0971351,8.82723239 L27.6118351,10.7399388 L27.8921402,12.5017574 C27.8921402,12.5017574 31.5349135,18.7319464 34.2310518,34.9102972 L27.9587474,18.6517872 L27.184439,12.9190568 L25.6496343,12.0453888 L26.0971351,8.82723239 Z" id="Tie" fill="#EC0000"></path>
                        </g>
                    </g>
                </g>
            </g>
        </g>
    </g>
</svg>