<?xml version="1.0" encoding="UTF-8"?>
<svg width="80px" height="100px" viewBox="0 0 80 100" version="1.1" xmlns="http://www.w3.org/2000/svg" xmlns:xlink="http://www.w3.org/1999/xlink">
    <title>E4C61BFA-7F01-4444-8B54-AEDCC4F3F1BA</title>
    <g id="Empty-dashboard" stroke="none" stroke-width="1" fill="none" fill-rule="evenodd">
        <g id="Empleado_Empty-dashboard_01" transform="translate(-64.000000, -509.000000)">
            <g id="01" transform="translate(48.000000, 488.000000)">
                <g id="svg" transform="translate(16.000000, 21.000000)">
                    <g id="Group-3">
                        <path d="M28.9278238,80.490666 C49.8773004,80.490666 75.8647656,62.5324555 75.8647656,41.5484944 C75.8647656,20.5645334 58.8818594,0.462590034 37.9323828,0.462590034 C16.9829063,0.462590034 0,20.5645334 0,41.5484944 C0,62.5324555 7.97834727,80.490666 28.9278238,80.490666 Z" id="Oval" fill="#F0F4F5"></path>
                        <g id="Group-2" transform="translate(4.163310, 0.000000)">
                            <g id="atoms/ico/24/password-24">
                                <path d="M21.2791416,0.185036014 C27.7172734,0.185036014 32.9364104,5.34418298 32.9364104,11.7083133 L32.9364104,11.7083133 L32.936259,21.834036 L35.808027,21.8342496 C38.9816833,21.8342496 41.5672252,25.0792075 41.6758115,29.134982 L41.6793621,29.4006136 L41.6793621,37.6548288 C41.6793621,46.3922934 36.1830181,53.475408 29.4029343,53.475408 L29.4029343,53.475408 L12.3226868,53.475408 C5.54260296,53.475408 0.0462590034,46.3922934 0.0462590034,37.6548288 L0.0462590034,37.6548288 L0.0462590034,29.4006136 C0.0462590034,25.2218262 2.67494524,21.8342496 5.91759406,21.8342496 L5.91759406,21.8342496 L9.621259,21.834036 L9.62187272,11.7083133 L9.63112902,11.2448531 C9.87718993,5.09558637 14.9980374,0.185036014 21.2791416,0.185036014 Z M21.2791416,3.93680071 C16.9371457,3.93680071 13.4172626,7.4162254 13.4172626,11.7083133 L13.4172626,11.7083133 L13.417259,21.834036 L29.140259,21.834036 L29.1410206,11.7083133 L29.130123,11.2955764 C28.9130759,7.19536702 25.4810731,3.93680071 21.2791416,3.93680071 Z" id="Combined-Shape" fill="#DCDCDC"></path>
                                <path d="M21.2791416,31.8261944 C23.1186078,31.8261944 24.6097898,33.3173764 24.6097898,35.1568426 C24.6097898,36.3896938 23.9399541,37.4660964 22.9443662,38.041967 L22.9444657,41.8181391 C22.9444657,42.7378722 22.1988747,43.4834632 21.2791416,43.4834632 C20.3594085,43.4834632 19.6138175,42.7378722 19.6138175,41.8181391 L19.613812,38.0419063 C18.618282,37.4660208 17.9484933,36.3896504 17.9484933,35.1568426 C17.9484933,33.3173764 19.4396753,31.8261944 21.2791416,31.8261944 Z" id="Combined-Shape" fill="#7F7F7F"></path>
                            </g>
                            <path d="M62.9055518,33.0752097 C65.460366,33.0752097 67.5314521,35.1462958 67.5314521,37.70111 C67.5314521,40.2559243 65.460366,42.3270104 62.9055518,42.3270104 C60.7992201,42.3270104 59.0216918,40.9192361 58.4625307,38.9932516 L34.5330091,38.9922097 L34.5331265,41.761155 C34.5331265,42.1443772 34.2224636,42.4550401 33.8392415,42.4550401 L33.3766514,42.4550401 C32.9934293,42.4550401 32.6827664,42.1443772 32.6827664,41.761155 L32.6820091,38.9922097 L31.1650091,38.9922097 L31.1658787,41.7055895 C31.1658787,42.0888116 30.8552157,42.3994745 30.4719936,42.3994745 L30.0094036,42.3994745 C29.6261814,42.3994745 29.3155185,42.0888116 29.3155185,41.7055895 L29.3150091,38.9922097 L27.9038941,38.9931004 C27.520672,38.9931004 27.2100091,38.6824375 27.2100091,38.2992154 L27.2100091,37.8366254 C27.2100091,37.4534032 27.520672,37.1427403 27.9038941,37.1427403 L58.313058,37.142315 C58.5889438,34.8510046 60.5398682,33.0752097 62.9055518,33.0752097 Z M62.9055518,34.9799922 C61.5941635,34.9799922 60.4994428,35.907657 60.2418141,37.1425623 L61.2103766,37.1427403 C61.5935987,37.1427403 61.9042617,37.4534032 61.9042617,37.8366254 L61.9042617,38.2992154 C61.9042617,38.6824375 61.5935987,38.9931004 61.2103766,38.9931004 L60.5101792,38.9932126 C60.9701611,39.8441592 61.8703489,40.4222279 62.9055518,40.4222279 C64.4083837,40.4222279 65.6266696,39.2039419 65.6266696,37.70111 C65.6266696,36.1982781 64.4083837,34.9799922 62.9055518,34.9799922 Z" id="Combined-Shape" fill="#7F7F7F" fill-rule="nonzero" transform="translate(47.370731, 37.765125) rotate(6.000000) translate(-47.370731, -37.765125) "></path>
                            <g id="Group" transform="translate(54.976996, 68.007203) scale(-1, 1) translate(-54.976996, -68.007203) translate(35.476996, 37.007203)">
                                <path d="M27.3557408,8.50853064 C27.0535757,10.3560383 27.8423938,12.1512643 27.8318489,15.6046398 C27.8317413,15.6392528 27.8288165,15.6733911 27.7765807,15.6850038 L25.8124587,16.1126846 C23.8812138,11.8068385 24.2441445,9.02465204 24.2250697,8.84212278 C23.8281173,5.04613517 24.8118608,3.73775527 24.9261142,3.58912692 C25.1864125,3.2508483 25.8561841,3.09935937 26.4703941,3.1825596 C27.0918427,3.26649018 27.4187562,3.71474892 27.480187,4.05686193 C27.5936579,4.68606746 28.2652391,6.38707697 27.3557408,8.50853064 Z" id="Front-Arm-Copy" fill="#C3DEE7" transform="translate(25.981594, 9.636424) rotate(196.000000) translate(-25.981594, -9.636424) "></path>
                                <g id="Characters/Body-parts/Head/Female/Model-A-05" transform="translate(16.099749, 2.775540)">
                                    <g id="Characters/Body-parts/Head/Female/Model-A-00">
                                        <path d="M3.17887644,10.9667755 C3.16972212,10.9599249 5.25577384,8.74106689 5.35090657,7.58840989 C5.11547556,7.45529177 4.89405744,7.28854446 4.69365423,7.08814125 C3.49636618,5.89086211 3.50004534,3.9431221 4.70185886,2.74129077 C5.90367237,1.53945944 7.85143911,1.53580699 9.04872716,2.73309505 C9.53492053,3.21922606 9.82308033,3.82918375 9.9133758,4.46273086 L9.91397267,4.46297139 L10.5104074,6.49962607 L9.96682616,6.61709214 L9.96449217,8.17385167 C9.96388639,8.5795399 9.70929342,8.94235203 9.32766677,9.08142096 L8.4673476,9.39491623 L8.46706253,9.39502313 L8.46711598,9.39504985 C8.46711598,9.39504985 8.42182571,9.52747312 8.34193524,9.73965323 L7.25513799,12.3887243 L7.25326723,12.3886263 C6.91747425,12.8313824 6.25738013,13.2038423 5.63514668,13.2038423 C4.18764859,13.2038423 3.35786739,12.1246973 3.17887644,10.9667755 Z" id="Skin-tone" fill="#FFC4B8"></path>
                                        <path d="M8.263773,9.94352181 C7.86846305,9.81524094 7.29592061,9.49649863 6.68129493,8.71504547 L8.46717834,9.39497859 C8.46717834,9.39497859 8.39175988,9.61542568 8.263773,9.94352181 Z M9.96682616,6.61708323 C9.80340169,6.6679947 9.63954961,6.54165586 9.64743354,6.37084633 L9.69822029,5.26968875 L9.96682616,6.61708323 Z" id="Shadows" fill="#F4A48D"></path>
                                    </g>
                                    <g id="Hair" transform="translate(1.387770, 0.462590)" fill="#9BC3D3" fill-rule="nonzero">
                                        <path d="M7.03105452,9.06197848 C7.07930238,9.05964448 7.12784422,9.05847748 7.17666221,9.05847748 C8.8237974,9.05847748 10.1590141,10.3936942 10.1590141,12.0407581 C10.1590141,12.4570651 9.54388955,13.117667 8.8188176,12.7091014 C8.13148162,12.3217734 8.07617831,11.2929341 7.10282945,10.807008 C6.88229327,10.6969092 6.65344555,10.612422 6.4319918,10.5439253 L6.95172528,9.27706273 C6.98408947,9.19111455 7.01077011,9.1182528 7.03105452,9.06197848 Z M2.18622486,10.0476031 C1.03192872,9.63526922 0.21467272,8.53547462 0.21574068,7.23709413 C0.216356406,6.38352752 0.575542822,5.61394034 1.15084686,5.07085796 C1.23984171,4.98668255 1.28217439,4.8655284 1.26564041,4.74417827 L1.26705685,4.74523837 L1.26543552,4.74205807 L1.26148019,4.71218823 C1.2525718,4.64248005 1.24572125,4.57281642 1.24055438,4.50352694 C1.23921812,4.48466787 1.23797094,4.46601369 1.23690194,4.44735952 C1.15681548,2.96183149 1.99285928,1.51813728 3.4348698,0.896687772 C3.67332967,0.793973998 3.91666243,0.718787159 4.1613849,0.669612829 C4.18566918,0.658477337 4.21013163,0.647609097 4.23477225,0.637008109 C5.06810789,0.277999862 5.96103178,0.254659872 6.76472029,0.50721282 C7.08497703,0.607432244 7.39067745,0.75165913 7.67287753,0.935706535 C7.62620646,1.19191192 7.55689916,1.44027793 7.46710256,1.67857745 C7.78272693,1.9959835 8.04520383,2.37708456 8.23312638,2.81332858 C8.35821804,3.1037422 8.4428745,3.40137162 8.48960793,3.69980279 L7.46736981,2.40594775 L7.2421389,2.17682388 C6.60207976,3.38319849 5.40635067,4.24968227 3.99609857,4.43498576 C4.01010257,4.64680953 4.0117328,4.86986679 3.99276683,5.09320912 C3.82686583,4.90303274 3.61829362,4.81608682 3.46669058,4.89375019 C3.28250955,4.98819698 3.24661763,5.29290857 3.37381167,5.59844864 L3.37774027,5.60777573 L3.38175796,5.61705827 L3.38268443,5.61916065 L3.38588255,5.62633191 L3.38717426,5.62921823 L3.39033674,5.63614005 L3.39145029,5.63855423 L3.39575304,5.64772096 L3.39650135,5.64929775 L3.40017161,5.65692333 L3.40159695,5.65983638 L3.40486633,5.66645531 L3.40623822,5.66922582 L3.41087059,5.67837474 L3.41479919,5.68596469 L3.41610872,5.68845904 L3.41878124,5.69351901 L3.42034912,5.69645878 L3.42280784,5.70101988 L3.42449152,5.70412 L3.42688788,5.70848511 L3.42862502,5.71162978 L3.43102137,5.71591471 L3.43278524,5.71904156 L3.43521723,5.7233265 L3.43696327,5.72638207 L3.43950216,5.73074719 L3.44118585,5.73365132 L3.44393854,5.73831932 L3.44544406,5.74085821 L3.44973791,5.74800275 L3.45406739,5.75509383 L3.45845032,5.76212255 L3.460134,5.76479507 L3.46286888,5.76911564 L3.4646951,5.77196632 L3.46733198,5.77605528 L3.46922947,5.77896832 L3.47184854,5.78295037 L3.47377275,5.78586342 L3.47833385,5.79267834 L3.48105982,5.79668711 L3.48293058,5.79942199 L3.48583472,5.80362675 L3.48754513,5.80609438 L3.49219531,5.81270441 L3.49687222,5.81924317 L3.50159366,5.82573738 L3.50334862,5.82811593 L3.50635075,5.83216924 L3.51114346,5.83855656 L3.51598072,5.84489043 L3.51805638,5.84757186 L3.52293818,5.85382555 L3.52581559,5.85746017 L3.52783779,5.85999907 L3.53087555,5.86375841 L3.53276413,5.86611022 L3.5377172,5.87214121 L3.54268808,5.87810983 L3.5476946,5.88401609 L3.54946737,5.88608284 L3.55273675,5.88986891 L3.55475896,5.892194 L3.55780563,5.89565936 L3.55994364,5.89807354 L3.56291014,5.90139637 L3.56509269,5.90382836 L3.56805028,5.90708883 L3.57024174,5.90948519 L3.57325278,5.91274566 L3.57540861,5.91506184 L3.57853546,5.91839358 L3.58058439,5.92056723 L3.58577798,5.92600135 L3.59098939,5.9313642 L3.59621862,5.93665579 L3.60148348,5.94188502 L3.60355913,5.94391613 L3.60677506,5.94705188 L3.60898435,5.94918099 L3.61209337,5.95215639 L3.61435611,5.95431222 L3.61743841,5.95720745 L3.61971896,5.95933656 L3.6228369,5.96222288 L3.62508181,5.96428962 L3.62829774,5.96720267 L3.63046248,5.96915361 L3.63392785,5.97224482 L3.63584315,5.97394632 L3.64124164,5.97866777 L3.64664903,5.98330904 L3.65208315,5.98788796 L3.65753509,5.99239561 L3.6597711,5.99422183 L3.66301375,5.99684089 L3.66532102,5.99869384 L3.66851023,6.00123273 L3.67405125,6.00556221 L3.67635852,6.00733498 L3.67964572,6.00984715 L3.68187282,6.01153974 L3.68738711,6.01565542 L3.69291032,6.01969092 L3.69846025,6.02367297 L3.70401018,6.02756594 L3.70956901,6.03137873 L3.71176048,6.03286644 L3.71514567,6.03512917 L3.71743512,6.03664359 L3.72074905,6.03881724 L3.72306523,6.04031385 L3.72637915,6.04244296 L3.72867752,6.04389503 L3.7320538,6.04601522 L3.7342809,6.04738712 L3.73987537,6.05079903 L3.74396432,6.05323102 C3.84511022,6.11303307 3.94839413,6.13485863 4.03719299,6.10846306 C4.57660511,6.79093507 5.35460182,7.97179604 4.95261057,8.69086373 C4.95206716,8.69188819 4.95145248,8.69291266 4.9508378,8.69393712 C4.86806992,8.84077417 4.69594195,8.90868285 4.53627681,8.86736572 L4.53526126,8.87067074 L3.70533753,8.53291791 C3.56888767,8.47723155 3.51126818,8.4652943 3.40616696,8.43073864 C3.33618262,8.55377246 3.28135146,8.62381916 3.19991093,8.74238096 C2.85796225,9.24014635 2.46906635,9.71613961 2.18622486,10.0476031 Z" id="Hair-color"></path>
                                    </g>
                                </g>
                                <g id="Characters/Body-parts/Lower-body/Female/Skirt" transform="translate(0.000000, 31.664187)">
                                    <g id="Group" transform="translate(0.321349, 0.000000)">
                                        <path d="M0.141241464,28.0099276 C0.141241464,27.2438225 8.42557549,26.6221575 18.6448094,26.6221575 C28.8641102,26.6221575 37.1484442,27.2438225 37.1484442,28.0099276 C37.1484442,28.776669 28.8641102,29.3976977 18.6448094,29.3976977 C8.42557549,29.3976977 0.141241464,28.776669 0.141241464,28.0099276 Z" id="Shadow" fill="#DEEDF2" transform="translate(18.644843, 28.009928) scale(1, -1) translate(-18.644843, -28.009928) "></path>
                                        <path d="M25.4278488,7.99477206 C25.4525842,9.05693074 25.2691142,10.157361 25.1522544,11.2120212 C24.8012853,14.3785337 24.395392,17.5386189 24.0592252,20.7068842 C23.8677698,22.5113951 23.6763144,24.3157113 23.484859,26.1202221 L21.4155632,26.1202221 C21.2957429,24.8304789 21.1123898,23.5473577 21.0074301,22.2560563 C20.9578621,21.6466322 20.8277581,21.0325337 20.8510911,20.4207724 C20.8809099,19.6387852 20.9616211,18.8597195 21.0635618,18.0839648 C21.1604776,17.3465792 21.3698905,16.5725774 21.3698905,15.8283749 C21.4350398,14.4359898 21.5001892,13.0437994 21.5653386,11.651609 C21.590405,11.1156118 21.603357,10.5794199 21.6293388,10.0434227 C21.6472963,9.6725874 21.6674741,9.30175213 21.6963384,8.93169593 C21.7127767,8.7207639 21.6805818,8.15448053 21.8364339,7.99574589 C21.9678039,7.86194136 22.6280815,7.96419373 22.8199265,7.96633617 C23.2051744,7.97042626 23.5904224,7.97471112 23.9756704,7.97899598 C24.4592754,7.98425468 24.9450229,7.99730403 25.4278488,7.99301916 L25.4278488,7.99477206 Z" id="Back-leg" fill="#F4A48D"></path>
                                        <path d="M11.6426905,23.4337176 C12.171345,22.8350057 12.3211399,23.0213971 12.3211399,23.0213971 L12.3211399,23.0213971 L13.9360067,23.7848815 L13.7221922,24.2854312 C13.6099483,24.5481711 13.4695217,25.0781305 13.4201289,25.3513878 C13.3980424,25.4764279 13.4333341,25.6373049 13.4391576,25.7633188 C13.454213,26.0887735 13.469249,26.414423 13.4843044,26.7400724 L13.4843044,26.7400724 L13.5384106,27.8705006 C13.5446431,28.0011889 13.6467007,28.8803645 13.5436303,28.9064632 C13.4479026,28.930809 13.0859487,29.0829216 13.0058218,29.0295556 C12.988546,29.0180644 12.9781065,28.9989773 12.9683682,28.9806692 L12.9683682,28.9806692 L12.6519507,28.3948118 C12.2461743,27.6447663 11.8421314,26.8939379 11.4446715,26.1396075 C11.2726928,25.8129842 11.1010646,25.486361 10.9361754,25.1562319 C10.8960924,25.0759881 10.7090388,24.8097424 10.7378447,24.7129435 C10.7680725,24.6112754 11.1840741,23.9531597 11.6426905,23.4337176 Z M23.3896182,25.8939036 L23.484859,26.1202221 C23.7503257,26.5319623 24.3048257,26.6961504 24.7432449,26.8433938 C25.4816044,27.0913314 26.2443097,27.2420806 27.007015,27.3914665 C27.120369,27.4136698 27.3762921,27.4187338 27.2508625,27.5907125 C27.1149156,27.7769092 26.9651402,27.9584315 26.7263566,27.9845302 C26.6304666,27.9949827 26.5343169,27.9990295 26.4380518,27.9999384 L25.8602303,27.993879 L25.8602303,27.993879 L23.1882298,28.0330271 C22.9171149,28.0369224 22.6458053,28.0410125 22.3746904,28.0449078 C22.2662055,28.0464659 22.1575259,28.0552304 22.0490994,28.0595153 C21.9221896,28.0643845 21.6732197,28.1483288 21.6259888,27.9816087 C21.533728,27.656154 21.4353125,27.3322575 21.3375592,27.0081662 C21.286024,26.837356 21.2613276,26.7454263 21.3008652,26.5699417 C21.334852,26.4189977 21.3785381,26.270391 21.4155632,26.1202221 L21.4155632,26.1202221 L23.3896182,25.8939036 Z" id="Shoes/Feet" fill="#9BC3D3"></path>
                                        <path d="M23.0123557,7.28242001 L21.8403098,17.2678023 C21.8155745,17.5507979 21.6825685,17.813343 21.4690266,18.0007083 L13.4719952,25.018532 C13.4719952,25.018532 12.4204318,25.7004093 11.6426905,23.4337176 L17.7974068,16.4630274 L19.1158392,6.85782921 L20.9064827,5.86510476 L23.0123557,7.28242001 Z" id="Front-Leg" fill="#FFC4B8"></path>
                                        <path d="M15.4375779,0 L10.9398954,10.9901822 C10.9398954,10.9901822 20.0534447,16.2531605 30.470741,10.1618406 L25.9087271,0.0872553568 L22.9963848,0.00934878822 C22.9963848,0.00934878822 18.7875604,0.331297683 15.4375779,0 Z" id="Skirt" fill="#9BC3D3"></path>
                                    </g>
                                </g>
                                <path d="M30.0173375,10.6109778 C29.7151724,13.2502744 30.5039906,15.814883 30.4934456,20.7482766 C30.493338,20.7977237 30.4904132,20.8464927 30.4381775,20.8630823 L28.4740554,21.4740549 C26.5428106,15.3228461 26.9057413,11.3482941 26.8866664,11.087538 C26.489714,5.66469853 27.4734576,3.79558439 27.587711,3.58325817 C27.8480092,3.100003 28.5177808,2.88359024 29.1319908,3.00244771 C29.7534395,3.12234855 30.080353,3.76271817 30.1417838,4.25145104 C30.2552546,5.15031609 30.9268359,7.58032967 30.0173375,10.6109778 Z" id="Front-Arm" fill="#DEEDF2" transform="translate(28.643190, 12.222254) scale(-1, -1) rotate(38.000000) translate(-28.643190, -12.222254) "></path>
                                <path d="M32.4652851,0.668326769 L32.5204834,2.16948707 C32.5224678,2.20777295 32.5301486,2.24702574 32.5432933,2.28367885 L33.1189821,3.87397354 C33.1369817,3.92429191 33.1738354,3.96580295 33.2214815,3.99035924 C33.3699995,4.06569939 33.5329705,3.94257701 33.498135,3.78065845 C33.4443377,3.53106602 33.3733512,3.19968133 33.3100869,2.90311559 L34.1823762,4.80567026 C34.2399075,4.93138758 34.3429508,5.03094107 34.4689639,5.08463555 L34.9161048,5.27470698 C35.263506,5.42234086 35.6325938,5.17409862 35.619072,4.8016689 L35.546347,2.72604397 C35.5343864,2.37535785 35.426055,2.03112687 35.2341173,1.72976266 L34.4599668,0.515784183 L34.2793187,0.311115939 L34.1290186,2.30926389e-14 L32.4652851,0.668326769 Z" id="Skin-tone" fill="#FFC4B8" transform="translate(34.042359, 2.658978) scale(1, -1) translate(-34.042359, -2.658978) "></path>
                            </g>
                            <path d="M53.429149,49.9597237 C55.2248018,50.235978 56.6422201,51.6302668 56.9479775,53.4211319 L59.6741144,69.3885052 L59.6741144,69.3885052 L47.3335856,69.3885052 L49.955514,52.5033182 C50.2134261,50.8423679 51.7678391,49.7041376 53.429149,49.9597237 Z" id="Rectangle" fill="#DEEDF2"></path>
                        </g>
                    </g>
                    <path d="M51.3320815,37.8271004 L51.8671697,37.7058805 L53.4713125,37.5037733 L54.8283055,38.9976234 C54.8283055,38.9976234 54.6361814,39.3163731 54.1082028,39.2182187 L53.1881445,38.4993904 L51.3177059,40.4092621 L50.0025405,39.3422702 L51.3320815,37.8271004 Z" id="Fill-3" fill="#FFC4B8" transform="translate(52.415423, 38.956518) scale(-1, 1) rotate(-128.000000) translate(-52.415423, -38.956518) "></path>
                    <path d="M49.8914002,37.3834309 C49.7637614,37.0927775 50.3781862,36.6542641 51.2624523,36.4048021 C52.1468558,36.1553402 52.9684703,36.1888 53.0959717,36.4794535 C53.2236105,36.770118 52.6091857,37.2086314 51.7249196,37.4580823 C50.8405161,37.7075443 50.0189016,37.6740954 49.8914002,37.3834309 Z" id="Fill-4" fill="#FFC4B8" transform="translate(51.493686, 36.931444) scale(1, -1) rotate(18.000000) translate(-51.493686, -36.931444) "></path>
                </g>
            </g>
        </g>
    </g>
</svg>