<?xml version="1.0" encoding="UTF-8"?>
<svg width="94px" height="98px" viewBox="0 0 94 98" version="1.1" xmlns="http://www.w3.org/2000/svg" xmlns:xlink="http://www.w3.org/1999/xlink">
    <title>626A4C60-6746-48DD-97C1-230B9813651A</title>
    <g id="Empty-dashboard" stroke="none" stroke-width="1" fill="none" fill-rule="evenodd">
        <g id="Empleado_Empty-dashboard_01" transform="translate(-506.000000, -510.000000)">
            <g id="02" transform="translate(490.000000, 488.000000)">
                <g id="svg" transform="translate(16.000000, 22.000000)">
                    <g id="Man-PC" transform="translate(0.021739, 2.996260)">
                        <g id="Group-3">
                            <g id="Group-2" transform="translate(0.179596, 0.000000)">
                                <g id="g.-illustration/Backgrounds/Scenarios/Indoors/Cafeteria" transform="translate(42.987598, 59.081530) scale(-1, 1) translate(-42.987598, -59.081530) translate(0.987598, 32.081530)">
                                    <g id="Group" transform="translate(0.000000, 0.067299)">
                                        <path d="M0,45.2823044 C0,49.5095391 18.7534412,52.9363588 41.8869861,52.9363588 C65.0203023,52.9363588 83.7738807,49.5095391 83.7738807,45.2823044 C83.7738807,41.0551154 65.0203023,37.6282499 41.8869861,37.6282499 C18.7534412,37.6282499 0,41.0551154 0,45.2823044" id="Fill-1" fill="#F5F9FB"></path>
                                        <g id="Objects/Furniture/Table" transform="translate(32.317616, 0.209600)">
                                            <g id="Group">
                                                <path d="M21.255493,41.3732778 C20.174875,40.6846341 19.5275193,39.4850478 19.5275193,38.2029128 L19.5275193,6.09316785 C19.5275193,5.55854098 19.116866,5.09870647 18.5830167,5.07377569 C18.0131776,5.04653649 17.5425412,5.50083083 17.5425412,6.06546697 L17.5425412,38.2029128 C17.5425412,39.4850478 16.8951855,40.6846341 15.8145675,41.3732778 C13.8535826,42.6225411 10.99885,43.2706954 10.99885,43.2706954 L26.0712105,43.2706954 C26.0712105,43.2706954 23.2164779,42.6225411 21.255493,41.3732778" id="Secondary-color" fill="#9BC3D3"></path>
                                                <path d="M36.9189906,4.13712137 C36.9189906,6.2891029 28.6935471,8.03402365 18.5463347,8.03402365 C8.39969028,8.03402365 0.173678909,6.2891029 0.173678909,4.13712137 C0.173678909,1.98448435 8.39969028,0.239563602 18.5463347,0.239563602 C28.6935471,0.239563602 36.9189906,1.98448435 36.9189906,4.13712137" id="Primary-color" fill="#DEEDF2"></path>
                                            </g>
                                        </g>
                                    </g>
                                </g>
                                <g id="g.-illustration/Objects/Devices/Laptop-04" transform="translate(23.050975, 23.997973)">
                                    <g id="Laptop" transform="translate(0.000000, 0.135992)">
                                        <path d="M3.24341531,10.890129 L9.26036607,14.6419504 C9.42490698,14.7446038 9.62019249,14.7833291 9.81099822,14.7508258 C11.5738772,14.4514931 21.1960275,12.7632772 24.3582592,12.2133253 C25.0360343,12.0951087 25.2922117,11.9716989 24.6429745,11.7376881 C22.6547788,11.0200926 18.2559602,9.43247284 17.5514722,9.18012812 C17.4819526,9.15524041 17.4086168,9.14694451 17.3357788,9.15489198 L3.27590205,10.7480534 C3.20298108,10.7560009 3.18119605,10.8514038 3.24341531,10.890129" id="Shadow" fill="#C3DEE7"></path>
                                        <path d="M24.1419021,11.4138327 L23.4661179,11.54519 C21.3689141,10.7823155 17.3512092,9.32154005 16.6810663,9.07958179 C16.6118785,9.05469409 16.5386422,9.04604976 16.4657047,9.05364881 L3.45668633,10.4518566 L2.84418336,10.0761186 L2.84418336,10.5693929 C2.83691615,10.5991088 2.84658917,10.6329893 2.8776988,10.6526838 L8.8856734,14.4197198 C9.04984928,14.5223898 9.24480296,14.5614469 9.43595712,14.5296404 C11.199533,14.2347875 20.3169939,12.671707 23.4805528,12.1293542 C23.8908681,12.058839 24.1470455,11.985918 24.1407406,11.8870475 C24.1410725,11.8870475 24.1419021,11.8863672 24.1419021,11.8863672 L24.1419021,11.4138327 Z" id="Shadow" fill="#9BC3D3"></path>
                                        <path d="M2.87784812,10.1714551 L8.88580613,13.9381427 C9.04965018,14.0411446 9.24495229,14.0805501 9.43610644,14.0484118 C11.1993173,13.7532105 20.3168279,12.1904784 23.4807187,11.6481255 C24.158162,11.5319829 24.415335,11.4092699 23.7665955,11.1731852 C21.7803908,10.4507615 17.3852224,8.85240684 16.6812322,8.59835316 C16.6117125,8.57346545 16.538775,8.56482112 16.4658374,8.5727686 L2.9106833,10.0293961 C2.83774574,10.0373436 2.81562886,10.132398 2.87784812,10.1714551" id="Base" fill="#FFFFFF"></path>
                                        <path d="M0.010917406,0.503561202 L2.09941053,9.4372015 C2.17407364,9.72030743 2.40498176,9.90004642 2.78071971,9.86098932 L15.9269523,8.54436343 C16.3721601,8.50114179 16.5297822,8.11123443 16.4423268,7.80843404 L14.0382576,0.296163673 C13.9836374,0.126429534 13.8256669,0.0109505896 13.647305,0.0109505896 L0.411194638,-7.53501288e-07 C0.146771084,-0.000497754071 -0.0492278777,0.24569141 0.010917406,0.503561202" id="Cover" fill="#9BC3D3"></path>
                                        <path d="M0.6357315,0.853266621 L2.54553091,9.0886741 C2.58976466,9.27982826 2.77020051,9.4080663 2.96515419,9.38732654 L15.7584791,8.13982211 C16.0291246,8.10871248 16.0989595,7.91515251 16.0239479,7.66523019 L13.8500734,0.721560894 C13.798224,0.560836104 13.6485494,0.451595677 13.4798605,0.451247249 L0.948221506,0.517282623 C0.698299187,0.516934195 0.579053903,0.6092178 0.6357315,0.853266621" id="Screen" fill="#FFFFFF"></path>
                                        <polygon id="Keyboard" fill="#C3DEE7" points="5.68499858 10.3257257 9.26607365 12.3851832 20.0943319 10.7519359 15.9494508 9.16464796"></polygon>
                                    </g>
                                </g>
                                <g id="g.-illustration/Characters/Body-parts/Lower-body/Male/Walking-A" transform="translate(65.429856, 58.092255) scale(-1, 1) translate(-65.429856, -58.092255) translate(54.429856, 37.092255)">
                                    <g id="Group-5" transform="translate(0.111349, 0.000000)">
                                        <path d="M16.1375007,38.9470325 C16.1995297,39.4815853 17.3427085,40.0935597 17.6108332,40.230155 L17.6667766,40.2581292 L20.5474934,41.0295666 L19.7417605,41.5166347 L12.2033337,41.5166347 L12.2033337,38.9470325 Z M1.59235773,30.5244475 L4.90219386,33.4723237 L4.66144399,34.2379938 C4.53507169,34.6401222 4.44353626,35.0522722 4.38791201,35.4702037 L4.38791201,35.4702037 L4.5057524,41.2901671 L3.91172124,41.5166347 C3.91172124,41.5166347 -0.0365161292,32.5615567 0.000250324793,32.3933763 C0.0609019361,32.1164445 1.59235773,30.5244475 1.59235773,30.5244475 L1.59235773,30.5244475 Z" id="Shoes/Feet" fill="#9BC3D3"></path>
                                        <polygon id="Left-Leg" fill="#1D2D4F" points="18.6991577 0 17.8888355 24.0631827 16.2769525 39.0897882 12.2001003 39.0897882 12.4145452 28.1270229 12.4593951 23.5666784 12.6870863 0"></polygon>
                                        <path d="M15.3192515,0 L15.2795125,2.58687565 L15.1389134,4.78902475 L15.0210521,6.63499843 L14.8381064,9.50039041 L14.6610016,12.2741332 L14.5792289,13.5546517 L14.5522146,13.9796353 L13.9454899,23.4803113 C13.917537,23.9147168 13.7682808,24.3178588 13.5286991,24.605226 L12.4233066,25.9322828 L4.45180741,35.4110457 C4.45180741,35.4110457 2.15377366,34.9045486 1.45323973,30.7175245 L9.42009745,20.5042836 L6.1671059,0 L15.3192515,0 Z" id="Right-Leg" fill="#34466B"></path>
                                    </g>
                                </g>
                                <g id="g.-illustration/Characters/Body-parts/Head/Male/Model-B-07" transform="translate(61.619705, 10.002269) scale(-1, 1) rotate(10.000000) translate(-61.619705, -10.002269) translate(56.619705, 1.502269)">
                                    <g id="Characters/Body-parts/Head/Male/Model-B-00" transform="translate(0.055675, 1.000000)">
                                        <path d="M1.98326137,7.53973292 C1.05616602,6.85853051 0.453977173,5.76050266 0.453977173,4.52293169 C0.453977173,2.45806788 2.13040964,0.781590869 4.19530686,0.781590869 C6.10192087,0.781590869 7.67734827,2.21087214 7.9076523,4.05548679 C7.94792739,4.24767591 7.97721229,4.44198066 7.9973554,4.63625201 L7.99741107,4.63657492 L7.99804576,4.64085074 L7.99817938,4.64235396 C8.00415885,4.70047836 8.00932546,4.75856936 8.01372376,4.81656014 L8.27140861,7.70357247 L7.68488663,7.89988151 L7.67877355,7.90127338 L7.67874014,7.90128452 C7.66417564,7.95158105 7.65611394,7.97877258 7.65611394,7.97877258 L7.6401687,8.36930844 L7.6113626,9.09925962 C7.60139683,9.3407988 7.55088873,9.57749428 7.46293381,9.80003725 C7.40148006,9.95711789 7.32026179,10.107551 7.22102718,10.2471832 C7.1045,10.4110338 6.96529094,10.5580596 6.80988054,10.6822142 C6.72890724,10.7473759 6.6428564,10.8055003 6.55294174,10.8572667 C6.50536212,10.8847589 6.457905,10.9100129 6.40859947,10.9336969 L6.40826542,10.933864 L6.66021578,15.4940239 C6.66021578,15.4940239 5.32899994,15.895138 3.87124662,15.5768679 C2.99011632,15.3861041 2.06186293,14.9306292 1.35374737,13.9664768 C1.35374737,13.9664768 2.19190793,10.3337462 1.98326137,7.53973292 Z" id="Skin-tone" fill="#FFC4B8"></path>
                                        <path d="M3.8851987,15.5228634 C3.00400159,15.3320996 2.07580388,14.8766248 1.36769946,13.9124723 C1.36769946,13.9124723 2.2742397,10.0199412 1.96694868,7.19113126 C1.96694868,7.19113126 4.02914011,12.2187027 3.8851987,15.5228634 Z M7.68425194,7.9161942 C7.47894586,7.97642311 7.27680211,7.81513346 7.29019744,7.60182136 L7.37653779,6.22667818 L7.68425194,7.9161942 Z" id="Shadows" fill="#F4A48D"></path>
                                    </g>
                                    <g id="Hair" transform="translate(0.000000, 0.000000)" fill="#9BC3D3">
                                        <path d="M3.03935124,2.0268831 C4.68396347,1.9691677 4.48202468,0.556747147 4.48202468,0.556747147 C6.24199647,0.614462537 6.9922386,1.27741602 6.9922386,1.27741602 C8.40613172,2.40137863 7.84551097,4.65633679 7.84551097,4.65633679 C7.62976573,2.95473237 5.02325207,3.68019698 4.00288465,3.85103454 C3.58596302,4.25990941 3.74688746,5.25795726 3.53551406,6.09916205 C3.53169019,6.11440606 3.07825709,7.25292246 3.07825709,7.25292246 L3.07770912,7.25429097 L3.05214514,7.37258967 C3.04466416,7.35322824 3.03683772,7.33386681 3.02866582,7.31451728 C2.75438311,6.66523698 2.19566834,6.28119759 1.78109345,6.45583127 C1.36623266,6.63073865 1.25252893,7.29864257 1.52681164,7.94792286 C1.62234898,8.1740958 1.86372211,8.36811471 2.01014918,8.51754402 C2.12388865,9.47088327 2.1025893,10.3563564 2.02233555,11.1165454 L1.59695177,11.1349429 L0.0674251116,3.87156218 C-0.0462905343,2.899278 0.387201227,2.455524 1.08099056,2.24286956 C1.62109818,2.07722044 2.31898537,2.05211127 3.03935124,2.0268831 Z" id="Hair-color"></path>
                                    </g>
                                </g>
                                <g id="g.-illustration/Characters/Body-parts/Upper-body/Male/Polo-shirt-A" transform="translate(60.482012, 26.975733) scale(-1, 1) rotate(30.000000) translate(-60.482012, -26.975733) translate(48.482012, 12.475733)">
                                    <path d="M7.07350727,5.10344194 L7.16103268,5.46944048 C8.51017034,5.81065447 9.75752218,6.4775007 10.791732,7.41026807 C11.273385,7.8444195 11.708984,8.33636128 12.0866813,8.88063729 C12.2220822,9.07538744 12.3503567,9.27726395 12.4705028,9.48582143 L13.380673,11.0627521 L13.5789863,11.4065991 L15.2851936,14.3622583 L16.6835198,16.7857787 L18.2006557,19.4136697 L21.8553667,25.7463679 L22.7554042,27.3055494 L23.4996637,28.5949424 L9.04196475,28.5949424 L1.36735009,15.2980389 C0.52668417,13.8412544 0.102821433,12.2110987 0.102821433,10.5768231 C0.102821433,9.5901645 0.257169651,8.60202966 0.567714841,7.64979914 L0.0107243196,6.07151388 C0.0107243196,6.07151388 5.75146663,4.23825688 7.07350727,5.10344194 Z" id="Shirt" fill="#EC0000"></path>
                                    <path d="M12.3626052,19.2119825 L16.140914,13.7682091 L15.442085,6.3312921 L14.0558959,2.54129158 L15.1762939,0.903564169 C15.276063,0.757807766 15.4852886,0.742330195 15.6052119,0.871940931 L17.0166773,2.39731676 C17.5695272,2.99492915 17.8201747,3.81201126 17.697245,4.61695629 L17.3496121,6.89327267 L18.384271,9.8826708 C19.1717341,12.1582077 19.6789308,14.5212653 19.8942806,16.9196207 L19.8942806,16.9196207 C20.0619728,18.7857592 18.4085451,20.2997328 16.5652667,19.9680674 L12.3626052,19.2119825 Z" id="Skin-tone" fill="#FFC4B8"></path>
                                </g>
                            </g>
                            <g id="Group-4-Copy" transform="translate(1.197152, 45.198290)">
                                <circle id="Oval-Copy" fill="#CEDEE7" cx="8.01715891" cy="8.01715891" r="8.01715891"></circle>
                                <g id="b.-icons-/-04.-functional-/-FUNC057---|-password-typing" transform="translate(3.507507, 3.507507)" fill="#FFFFFF">
                                    <g id="Group">
                                        <path d="M4.53529318,0.752771297 L4.7120504,0.762435044 C5.75762319,0.862074563 6.57657567,1.8012184 6.57657567,2.90037262 L6.57657567,2.90037262 L6.57657567,4.50855089 L6.76117485,4.50855089 C7.17734879,4.50855089 7.51608648,4.84728858 7.51608648,5.26346252 L7.51608648,5.26346252 L7.51608648,6.77365276 C7.51608648,7.59682571 6.84631802,8.26659413 6.02296156,8.26659413 L6.02296156,8.26659413 L2.99634218,8.26659413 C2.17298576,8.26659413 1.5032173,7.59682571 1.5032173,6.77365276 L1.5032173,6.77365276 L1.5032173,5.26346252 C1.5032173,4.84728858 1.84195499,4.50855089 2.25812893,4.50855089 L2.25812893,4.50855089 L2.44272811,4.50855089 L2.44272811,2.81963342 C2.44272811,2.23867808 2.68934969,1.68102704 3.11946947,1.28999239 C3.55546122,0.893636263 4.11971819,0.705917607 4.7120504,0.762435044 Z M6.76117489,4.88435522 L2.25812893,4.88435522 C2.04912445,4.88435522 1.87902162,5.05427458 1.87902162,5.26346252 L1.87902162,5.26346252 L1.87902162,6.77365276 C1.87902162,7.3894727 2.38033873,7.89078981 2.99634218,7.89078981 L2.99634218,7.89078981 L6.0229616,7.89078981 C6.63896505,7.89078981 7.14028216,7.38947274 7.14028216,6.77365276 L7.14028216,6.77365276 L7.14028216,5.26346252 C7.14028216,5.05427458 6.97017933,4.88435522 6.76117489,4.88435522 L6.76117489,4.88435522 Z M3.57014108,6.38867351 C3.67400107,6.38867351 3.75804324,6.47271568 3.75804324,6.57657567 C3.75804324,6.68043566 3.67400107,6.76447783 3.57014108,6.76447783 L3.57014108,6.76447783 L3.19433675,6.76447783 C3.09047676,6.76447783 3.00643459,6.68043566 3.00643459,6.57657567 C3.00643459,6.47271568 3.09047676,6.38867351 3.19433675,6.38867351 L3.19433675,6.38867351 Z M4.69755405,6.38867351 C4.80141404,6.38867351 4.88545621,6.47271568 4.88545621,6.57657567 C4.88545621,6.68043566 4.80141404,6.76447783 4.69755405,6.76447783 L4.69755405,6.76447783 L4.32174973,6.76447783 C4.21788974,6.76447783 4.13384756,6.68043566 4.13384756,6.57657567 C4.13384756,6.47271568 4.21788974,6.38867351 4.32174973,6.38867351 L4.32174973,6.38867351 Z M5.82496702,6.38867351 C5.92882701,6.38867351 6.01286918,6.47271568 6.01286918,6.57657567 C6.01286918,6.68043566 5.92882701,6.76447783 5.82496702,6.76447783 L5.82496702,6.76447783 L5.4491627,6.76447783 C5.34530271,6.76447783 5.26126054,6.68043566 5.26126054,6.57657567 C5.26126054,6.47271568 5.34530271,6.38867351 5.4491627,6.38867351 L5.4491627,6.38867351 Z M4.67645173,1.13640439 C4.19275049,1.09199781 3.72941751,1.24356736 3.37233001,1.56799217 C3.02038046,1.88801304 2.81853243,2.34418958 2.81853243,2.81963342 L2.81853243,2.81963342 L2.81853243,4.50855089 L3.19433675,4.50855089 L3.19433675,2.81743144 C3.19433675,2.09224653 3.78446698,1.5021163 4.50965189,1.5021163 C5.23483679,1.5021163 5.82496702,2.09224653 5.82496702,2.81743144 L5.82496702,2.81743144 L5.82496702,4.50855089 L6.20077135,4.50855089 L6.20077135,2.90037262 C6.20077135,1.99279052 5.53118639,1.21806107 4.67645173,1.13640439 Z M4.50965189,1.87792063 C3.99163644,1.87792063 3.57014108,2.29941599 3.57014108,2.81743144 L3.57014108,2.81743144 L3.57014108,4.50855089 L5.4491627,4.50855089 L5.4491627,2.81743144 C5.4491627,2.29941599 5.02766733,1.87792063 4.50965189,1.87792063 Z" id="🌈-Color"></path>
                                    </g>
                                </g>
                            </g>
                            <g id="Group-3-Copy" transform="translate(11.374251, 55.375388)">
                                <circle id="Oval-Copy-2" fill="#9BC3D3" cx="6.01286918" cy="6.01286918" r="6.01286918"></circle>
                                <g id="b.-icons-/-02.-chanels-/-CHAN017---|-help-us-to-improve" transform="translate(2.405148, 2.405148)" fill="#FFFFFF">
                                    <g id="Group">
                                        <path d="M4.30371112,0.601377111 C4.63974165,0.601377111 4.91552056,0.863092816 4.91552054,1.18958149 L4.91552054,1.18958149 L4.91634638,2.81929657 L5.80091554,2.81929657 C6.31327983,2.81929657 6.70101938,3.26967464 6.59730136,3.75537567 L6.59730136,3.75537567 L6.11957232,5.98714658 C6.04163337,6.35087567 5.70860942,6.60970316 5.32379438,6.61007004 L5.32379438,6.61007004 L4.44351033,6.61037049 C3.95168851,6.61037049 3.47905978,6.51210977 3.04190083,6.34844523 C2.88887979,6.29115687 2.75099246,6.22969034 2.63025143,6.16802824 L2.70528692,6.20437711 L2.70579113,6.46402146 C2.70579113,6.54698835 2.6384898,6.61424629 2.5554694,6.61424629 L1.42174292,6.61424629 C0.968630421,6.61424629 0.601286918,6.24713958 0.601286918,5.79431915 L0.601286918,2.7084006 C0.601286918,2.62543371 0.668588249,2.55817576 0.751608648,2.55817576 L2.5554694,2.55817576 C2.6384898,2.55817576 2.70579113,2.62543371 2.70579113,2.7084006 L2.70528842,2.94354372 C2.77958817,2.88644401 3.08170952,2.66036698 3.20607654,2.54681379 C3.5167099,2.2631903 3.69199187,1.97311731 3.69199187,1.66677164 L3.69199187,1.66677164 L3.69199187,1.18965756 L3.69199187,1.18965756 L3.69995952,1.09383048 C3.74765998,0.813366832 4.00128364,0.601377111 4.30371112,0.601377111 Z M2.40514767,2.85862543 L0.901930378,2.85862543 L0.901930378,5.79431915 C0.901930378,6.08120581 1.13467122,6.31379663 1.42174292,6.31379663 L2.40514767,6.31379663 L2.40514767,2.85862543 Z M4.30371112,0.901826781 C4.13034496,0.901826781 3.99254514,1.03259958 3.99254514,1.18965756 L3.99263533,1.18965756 L3.99263533,1.66677164 C3.99263533,2.07471305 3.77574326,2.43364633 3.40886316,2.76862584 C3.25294396,2.91098771 2.89127006,3.17877186 2.89592412,3.17435038 C2.77947441,3.28475096 2.71459999,3.43372134 2.71459999,3.58874817 C2.71459999,3.60613171 2.71164544,3.62282562 2.70621082,3.63835575 L2.70508965,5.86796009 C2.72304202,5.87767255 2.74373117,5.88857447 2.76705966,5.90048827 C2.87796677,5.95712822 3.00546541,6.01396375 3.14737091,6.06709065 C3.5528592,6.21889825 3.99067281,6.30992083 4.44351033,6.30992083 L4.44351033,6.30992083 L5.32365094,6.30962044 C5.56901668,6.30938647 5.77784136,6.14708712 5.82558701,5.92426552 L5.82558701,5.92426552 L6.303294,3.69259774 C6.3661254,3.39836455 6.12625729,3.11974624 5.80091554,3.11974624 L5.80091554,3.11974624 L4.76610076,3.11974624 C4.68311009,3.11974624 4.61582108,3.05253465 4.61577905,2.96959748 L4.61577905,2.96959748 L4.6148771,1.18965756 C4.6148771,1.03259958 4.47707727,0.901826781 4.30371112,0.901826781 Z" id="🌈-Color"></path>
                                    </g>
                                </g>
                            </g>
                        </g>
                        <g id="g.-illustration/Backgrounds/Shapes/Graph-01" transform="translate(26.639898, 24.544767)">
                            <g id="Group-7" transform="translate(0.000000, 0.514841)">
                                <path d="M0.1,8.49261812 L0.0776233968,8.53250812 L0,8.48637812 L0.0223766032,8.44648812 C0.0482510688,8.46185812 0.0741255344,8.47723812 0.1,8.49261812 Z M0.158881898,8.32039973 L0.11247417,8.39690596 L0.0588818975,8.36745544 L0.105289625,8.29094281 C0.123153716,8.30076391 0.141017807,8.31058501 0.158881898,8.32039973 Z M0.247233479,8.16738725 L0.200825751,8.24389349 L0.147233479,8.21443658 L0.193641207,8.13793034 C0.211505298,8.14774505 0.229369388,8.15756615 0.247233479,8.16738725 Z M0.335585061,8.01436839 L0.289177333,8.09087463 L0.235585061,8.0614241 L0.281992789,7.98491148 C0.299856879,7.99473258 0.31772097,8.00455368 0.335585061,8.01436839 Z M0.423930257,7.86135592 L0.377522529,7.93786215 L0.323930257,7.90840524 L0.370337985,7.831899 C0.388202075,7.84171372 0.406066166,7.85153482 0.423930257,7.86135592 Z M0.512281838,7.70833706 L0.46587411,7.78484329 L0.412281838,7.75539277 L0.458689566,7.67888014 C0.476553657,7.68870124 0.494417748,7.69852234 0.512281838,7.70833706 Z M0.60063342,7.55532458 L0.554225692,7.63183082 L0.50063342,7.60237391 L0.547041148,7.52586767 C0.564905238,7.53568238 0.582769329,7.54550348 0.60063342,7.55532458 Z M0.688985001,7.40230572 L0.642580869,7.47881196 L0.588985001,7.44936143 L0.635395843,7.37284881 C0.653261132,7.38266991 0.671119712,7.39249101 0.688985001,7.40230572 Z M0.777330197,7.24929325 L0.73092247,7.32579948 L0.677330197,7.29634257 L0.723737925,7.21983633 C0.741602016,7.22965105 0.759466107,7.23947215 0.777330197,7.24929325 Z M0.865681779,7.09627439 L0.819274051,7.17278062 L0.765681779,7.1433301 L0.812089507,7.06681747 C0.829953598,7.07663857 0.847817688,7.08645967 0.865681779,7.09627439 Z M0.954033361,6.94326191 L0.907625633,7.01976815 L0.854033361,6.99031124 L0.900441089,6.913805 C0.918305179,6.92361971 0.93616927,6.93344081 0.954033361,6.94326191 Z M1.04238494,6.79024305 L0.99598081,6.86674929 L0.942384942,6.83729876 L0.988789075,6.76078614 C1.00665436,6.77060724 1.02451965,6.78042834 1.04238494,6.79024305 Z M1.13073014,6.63723058 L1.08432241,6.71373681 L1.03073014,6.6842799 L1.07713787,6.60777366 C1.09500196,6.61758838 1.11286605,6.62740948 1.13073014,6.63723058 Z M1.21908172,6.48421172 L1.17267399,6.56071795 L1.11908172,6.53126743 L1.16548945,6.4547548 C1.18335354,6.4645759 1.20121763,6.474397 1.21908172,6.48421172 Z M1.3074333,6.33119924 L1.26102557,6.40770548 L1.2074333,6.37824857 L1.25384103,6.30174233 C1.27170512,6.31155704 1.28956921,6.32137814 1.3074333,6.33119924 Z M1.39578488,6.17818038 L1.34937404,6.25468662 L1.29578488,6.22523609 L1.34218902,6.14872347 C1.3600543,6.15854457 1.37791959,6.16836567 1.39578488,6.17818038 Z M1.48413008,6.02516791 L1.43772235,6.10167414 L1.38413008,6.07221723 L1.43053781,5.99571099 C1.4484019,6.00552571 1.46626599,6.01534681 1.48413008,6.02516791 Z M1.57248166,5.87214905 L1.52607393,5.94865528 L1.47248166,5.91920476 L1.51888939,5.84269213 C1.53675348,5.85251323 1.55461757,5.86233433 1.57248166,5.87214905 Z M1.66083324,5.71913657 L1.61442551,5.79564281 L1.56083324,5.7661859 L1.60724097,5.68967966 C1.62510506,5.69949437 1.64296915,5.70931547 1.66083324,5.71913657 Z M1.74917844,5.56611771 L1.70277071,5.64262395 L1.64917844,5.61317342 L1.69558617,5.5366608 C1.71345026,5.5464819 1.73131435,5.556303 1.74917844,5.56611771 Z M1.83753002,5.41310524 L1.79112229,5.48961148 L1.73753002,5.46015456 L1.78393775,5.38364833 C1.80180184,5.39346304 1.81966593,5.40328414 1.83753002,5.41310524 Z M1.9258816,5.26008638 L1.87947387,5.33659262 L1.8258816,5.30714209 L1.87228933,5.23062946 C1.89015342,5.24045056 1.90801751,5.25027166 1.9258816,5.26008638 Z M2.01423318,5.1070739 L1.96782905,5.18358014 L1.91423318,5.15412323 L1.96064402,5.07761699 C1.9785026,5.0874317 1.99636789,5.0972528 2.01423318,5.1070739 Z M3.26121166,5.07361211 L3.36121166,5.07361211 L3.36121166,4.98136211 L3.26121166,4.98136211 L3.26121166,5.07361211 Z M3.18452127,5.07365339 L3.08452127,5.07365339 L3.08452127,4.98140339 C3.15797989,4.98140339 3.18452127,4.97201339 3.18452127,5.07365339 Z M3.61459245,5.07361211 L3.71459245,5.07361211 L3.71459245,4.98136211 L3.61459245,4.98136211 L3.61459245,5.07361211 Z M3.53790206,5.07365339 L3.43790206,5.07365339 L3.43790206,4.98140339 C3.51136068,4.98140339 3.53790206,4.97201339 3.53790206,5.07365339 Z M2.90783088,5.07361211 L3.00783088,5.07361211 L3.00783088,4.98136211 L2.90783088,4.98136211 L2.90783088,5.07361211 Z M2.83114049,5.07365339 L2.73114049,5.07365339 L2.73114049,4.98140339 C2.80459911,4.98140339 2.83114049,4.97201339 2.83114049,5.07365339 Z M2.6544501,5.07365339 L2.5544501,5.07365339 L2.5544501,4.98140339 C2.62790872,4.98140339 2.6544501,4.97201339 2.6544501,5.07365339 Z M2.4777597,5.07365339 L2.3777597,5.07365339 L2.3777597,4.98140339 C2.45121832,4.98140339 2.4777597,4.97201339 2.4777597,5.07365339 Z M2.30106931,5.07365339 L2.20106931,5.07365339 L2.20106931,4.98140339 C2.27452793,4.98140339 2.30106931,4.97201339 2.30106931,5.07365339 Z M2.11272412,5.07361211 L2.03179264,5.07361211 L2.04988951,5.05725211 L2.00257838,5.01448211 L2.0147877,4.98136211 L2.11272412,4.98136211 L2.11272412,5.07361211 Z M3.84608535,4.91352545 L3.79968792,4.99003807 L3.74608535,4.96058754 L3.79248948,4.88407492 C3.81035477,4.89389602 3.82822006,4.90371073 3.84608535,4.91352545 Z M3.93441777,4.7605002 L3.88802035,4.83701282 L3.83441777,4.8075623 L3.88082191,4.73104967 C3.8986872,4.74087077 3.91655248,4.75068549 3.93441777,4.7605002 Z M4.0227502,4.60747496 L3.97635277,4.68398758 L3.9227502,4.65453705 L3.96915433,4.57802443 C3.98701962,4.58784553 4.00488491,4.59766024 4.0227502,4.60747496 Z M4.11108262,4.45444971 L4.0646852,4.53096233 L4.01108262,4.50151181 L4.05748676,4.42499918 C4.07535204,4.4348139 4.09321733,4.444635 4.11108262,4.45444971 Z M4.19942143,4.30142446 L4.1530173,4.37793709 L4.09942143,4.34848656 L4.14581886,4.27197394 C4.16368415,4.28178865 4.18154944,4.29160975 4.19942143,4.30142446 Z M4.28775386,4.14839922 L4.24134973,4.22491184 L4.18775386,4.19546131 L4.23415128,4.11894869 C4.25201657,4.1287634 4.26988857,4.1385845 4.28775386,4.14839922 Z M4.37608628,3.99537397 L4.32968215,4.0718866 L4.27608628,4.04243607 L4.32248371,3.96592344 C4.3403557,3.97573816 4.35822099,3.98555926 4.37608628,3.99537397 Z M4.46441871,3.84234873 L4.41801457,3.91886135 L4.36441871,3.88941082 L4.41081613,3.8128982 C4.42868813,3.82271291 4.44655342,3.83253401 4.46441871,3.84234873 Z M4.55275113,3.68932348 L4.506347,3.7658361 L4.45275113,3.73638558 L4.49915526,3.65987295 C4.51702055,3.66968767 4.53488584,3.67950877 4.55275113,3.68932348 Z M4.64108356,3.53629823 L4.59468613,3.61281086 L4.54108356,3.58336033 L4.58748769,3.50684771 C4.60535298,3.51666242 4.62321827,3.52648352 4.64108356,3.53629823 Z M4.72941598,3.38327299 L4.68301856,3.45978561 L4.62941598,3.43033508 L4.67582011,3.35382246 C4.6936854,3.36363718 4.71155069,3.37345827 4.72941598,3.38327299 Z M4.81774841,3.23024774 L4.77135098,3.30676037 L4.71774841,3.27730984 L4.76415254,3.20079722 C4.78201783,3.21061193 4.79988312,3.22043303 4.81774841,3.23024774 Z M6.42094289,3.20169012 L6.52094289,3.20169012 L6.52094289,3.10944012 L6.42094289,3.10944012 L6.42094289,3.20169012 Z M5.18409738,3.20169012 L5.28409738,3.20169012 L5.28409738,3.10944012 L5.18409738,3.10944012 L5.18409738,3.20169012 Z M6.24423973,3.20169012 L6.34423973,3.20169012 L6.34423973,3.10944012 L6.24423973,3.10944012 L6.24423973,3.20169012 Z M6.59763328,3.20169012 L6.69763328,3.20169012 L6.69763328,3.10944012 L6.59763328,3.10944012 L6.59763328,3.20169012 Z M6.06754934,3.20169012 L6.16754934,3.20169012 L6.16754934,3.10944012 L6.06754934,3.10944012 L6.06754934,3.20169012 Z M5.99085894,3.2017315 L5.89085894,3.2017315 L5.89085894,3.1094815 C5.96431034,3.1094815 5.99085894,3.1000815 5.99085894,3.2017315 Z M5.81416855,3.2017315 L5.71416855,3.2017315 L5.71416855,3.1094815 C5.78761994,3.1094815 5.81416855,3.1000815 5.81416855,3.2017315 Z M5.63747816,3.2017315 L5.53747816,3.2017315 L5.53747816,3.1094815 C5.61092955,3.1094815 5.63747816,3.1000815 5.63747816,3.2017315 Z M5.00740698,3.20169012 L5.10740698,3.20169012 L5.10740698,3.10944012 L5.00740698,3.10944012 L5.00740698,3.20169012 Z M7.48108524,3.20169012 L7.58108524,3.20169012 L7.58108524,3.10944012 L7.48108524,3.10944012 L7.48108524,3.20169012 Z M7.40439485,3.2017315 L7.30439485,3.2017315 L7.30439485,3.1094815 C7.37785834,3.1094815 7.40439485,3.1000815 7.40439485,3.2017315 Z M7.22770446,3.2017315 L7.12770446,3.2017315 L7.12770446,3.1094815 C7.20116794,3.1094815 7.22770446,3.1000815 7.22770446,3.2017315 Z M7.05101407,3.2017315 L6.95101407,3.2017315 L6.95101407,3.1094815 C7.02447755,3.1094815 7.05101407,3.1000815 7.05101407,3.2017315 Z M6.87432368,3.2017315 L6.77432368,3.2017315 L6.77432368,3.1094815 C6.84778716,3.1094815 6.87432368,3.1000815 6.87432368,3.2017315 Z M5.36078777,3.20169012 L5.46078777,3.20169012 L5.46078777,3.10944012 L5.36078777,3.10944012 L5.36078777,3.20169012 Z M4.91906179,3.20169012 L4.83246626,3.20169012 L4.85622719,3.18021012 L4.80608722,3.13488012 L4.81546132,3.10944012 L4.91906179,3.10944012 L4.91906179,3.20169012 Z M7.72412336,3.06160325 L7.67774752,3.13811587 L7.62412336,3.10865896 L7.67056632,3.03215272 C7.68841866,3.04196743 7.70627101,3.05178853 7.72412336,3.06160325 Z M7.81243663,2.90859077 L7.76602483,2.98509701 L7.71243663,2.9556401 L7.75884843,2.87913386 C7.77668881,2.88894857 7.79459626,2.89876967 7.81243663,2.90859077 Z M7.90081375,2.75557191 L7.85440195,2.83207815 L7.80081375,2.80262762 L7.84722556,2.726115 C7.86506593,2.7359361 7.88290631,2.74575081 7.90081375,2.75557191 Z M7.98912702,2.60255305 L7.94271522,2.67906567 L7.88912702,2.64960876 L7.93553883,2.57310252 C7.95344627,2.58291724 7.97128665,2.59273834 7.98912702,2.60255305 Z M8.07750415,2.44954058 L8.03109234,2.52604681 L7.97750415,2.4965899 L8.02391595,2.42008366 C8.04175633,2.42989838 8.0595967,2.43971948 8.07750415,2.44954058 Z M8.16588127,2.29652172 L8.11943832,2.37302795 L8.06588127,2.34357743 L8.11225711,2.2670648 C8.13017657,2.2768859 8.14802892,2.28670062 8.16588127,2.29652172 Z M8.25419454,2.14350286 L8.20778273,2.22000909 L8.15419454,2.19055857 L8.20060634,2.11405233 C8.21844672,2.12386704 8.23628709,2.13368814 8.25419454,2.14350286 Z M8.34257166,1.99046484 L8.29619582,2.06696469 L8.24257166,2.03752693 L8.2889475,1.96102708 C8.30686696,1.97086095 8.32471931,1.98069482 8.34257166,1.99046484 Z M8.43088493,1.83746513 L8.38447313,1.91396499 L8.33088493,1.88452723 L8.37729673,1.80802738 C8.39513711,1.81786125 8.41304456,1.82763126 8.43088493,1.83746513 Z M8.51926205,1.68446543 L8.47288622,1.76096528 L8.41926205,1.73152753 L8.46563789,1.65502768 C8.48355736,1.66479769 8.50140971,1.67463156 8.51926205,1.68446543 Z M8.60757532,1.53146573 L8.56116352,1.60796558 L8.50757532,1.57846397 L8.55398713,1.50196412 C8.5718275,1.51179799 8.58973495,1.52163186 8.60757532,1.53146573 Z M8.69595245,1.37840217 L8.64957661,1.45490202 L8.59595245,1.42546426 L8.6423954,1.34896441 C8.66024775,1.35879828 8.6781001,1.36863215 8.69595245,1.37840217 Z M8.78426571,1.22540247 L8.73785391,1.30190232 L8.68426571,1.27246456 L8.73067752,1.19596471 C8.74851789,1.20573472 8.76642534,1.21556859 8.78426571,1.22540247 Z M8.87264284,1.07240276 L8.82623103,1.14890261 L8.77264284,1.11946486 L8.81905464,1.04290115 C8.83689502,1.05273502 8.85473539,1.06256889 8.87264284,1.07240276 Z M8.96095611,0.919339202 L8.9145443,0.99590291 L8.86095611,0.966401298 L8.90736791,0.889901446 C8.92520829,0.899735317 8.94311573,0.909569188 8.96095611,0.919339202 Z M9.04933323,0.766339499 L9.00292143,0.842839351 L8.94933323,0.813401595 L8.99574503,0.736901743 C9.01358541,0.746735614 9.03142579,0.756505628 9.04933323,0.766339499 Z M9.1376465,0.613339796 L9.09123469,0.689839647 L9.0376465,0.660401891 L9.0840583,0.58390204 C9.10196575,0.593672054 9.11980612,0.603505925 9.1376465,0.613339796 Z M9.22602362,0.460340092 L9.17961182,0.536839944 L9.12602362,0.507402188 L9.17243543,0.43083848 C9.1902758,0.440672351 9.20811618,0.450506222 9.22602362,0.460340092 Z M9.31440075,0.307276533 L9.26795779,0.383840241 L9.21440075,0.354338628 L9.26077659,0.277838777 C9.27869605,0.287672648 9.2965484,0.297506518 9.31440075,0.307276533 Z" id="Fill-1" fill="#C3DEE7"></path>
                                <path d="M2.33095942,5.0010022 C2.33095942,5.16248202 2.19986881,5.29359178 2.03839538,5.29359178 C1.87692194,5.29359178 1.74582495,5.16248202 1.74582495,5.0010022 C1.74582495,4.83951599 1.87692194,4.70841261 2.03839538,4.70841261 C2.19986881,4.70841261 2.33095942,4.83951599 2.33095942,5.0010022 Z" id="Fill-2" fill="#DEEDF2"></path>
                                <path d="M4.04751903,5.0010022 C4.04751903,5.16248202 3.91642204,5.29359178 3.75495499,5.29359178 C3.59348155,5.29359178 3.46238456,5.16248202 3.46238456,5.0010022 C3.46238456,4.83951599 3.59348155,4.70841261 3.75495499,4.70841261 C3.91642204,4.70841261 4.04751903,4.83951599 4.04751903,5.0010022 Z" id="Fill-3" fill="#DEEDF2"></path>
                                <path d="M5.12661393,3.13675573 C5.12661393,3.29824193 4.99551694,3.42934531 4.83404351,3.42934531 C4.67257007,3.42934531 4.54147308,3.29824193 4.54147308,3.13675573 C4.54147308,2.97526952 4.67257007,2.84416615 4.83404351,2.84416615 C4.99551694,2.84416615 5.12661393,2.97526952 5.12661393,3.13675573 Z" id="Fill-4" fill="#DEEDF2"></path>
                                <path d="M7.93644454,3.13675573 C7.93644454,3.29824193 7.80534755,3.42934531 7.64385496,3.42934531 C7.48236237,3.42934531 7.35132923,3.29824193 7.35132923,3.13675573 C7.35132923,2.97526952 7.48236237,2.84416615 7.64385496,2.84416615 C7.80534755,2.84416615 7.93644454,2.97526952 7.93644454,3.13675573 Z" id="Fill-5" fill="#DEEDF2"></path>
                                <path d="M9.5765937,0.292589583 C9.5765937,0.454082175 9.44549671,0.585179166 9.28400412,0.585179166 C9.12257538,0.585179166 8.99147839,0.454082175 8.99147839,0.292589583 C8.99147839,0.131096991 9.12257538,0 9.28400412,0 C9.44549671,0 9.5765937,0.131096991 9.5765937,0.292589583 Z" id="Fill-6" fill="#9BC3D3"></path>
                            </g>
                        </g>
                    </g>
                    <rect id="Rectangle-Copy" x="0.919565193" y="0" width="92.5844491" height="97.0788399"></rect>
                </g>
            </g>
        </g>
    </g>
</svg>