<?xml version="1.0" encoding="UTF-8"?>
<svg width="264px" height="180px" viewBox="0 0 264 180" version="1.1" xmlns="http://www.w3.org/2000/svg" xmlns:xlink="http://www.w3.org/1999/xlink">
    <title>06EE4B5B-3492-43D6-BBCB-8D48AC5A50FF</title>
    <defs>
        <path d="M23.4580625,112.940089 L43.8339538,151 L217,151 L136.160616,0 L83.9215205,0 C30.1759587,0 -3.41491635,62.7445559 23.4580625,112.940089" id="path-1"></path>
        <filter x="-13.8%" y="-9.3%" width="127.6%" height="137.1%" filterUnits="objectBoundingBox" id="filter-2">
            <feOffset dx="0" dy="14" in="SourceAlpha" result="shadowOffsetOuter1"></feOffset>
            <feGaussianBlur stdDeviation="7" in="shadowOffsetOuter1" result="shadowBlurOuter1"></feGaussianBlur>
            <feColorMatrix values="0 0 0 0 0   0 0 0 0 0   0 0 0 0 0  0 0 0 0.12 0" type="matrix" in="shadowBlurOuter1"></feColorMatrix>
        </filter>
        <path d="M17.28,46 C23.3047363,46 28.5669813,49.264613 31.3942461,54.1213501 C34.2611863,53.009578 37.3794059,52.4 40.64,52.4 C54.7784896,52.4 66.24,63.8615104 66.24,78 C66.24,92.1384896 54.7784896,103.6 40.64,103.6 C26.6643376,103.6 15.30435,92.4009644 15.0445471,78.4874029 C7.08911512,77.3986204 0.96,70.575076 0.96,62.32 C0.96,53.3067129 8.26671288,46 17.28,46 Z" id="path-3"></path>
        <filter x="-39.8%" y="-22.6%" width="179.7%" height="190.3%" filterUnits="objectBoundingBox" id="filter-4">
            <feOffset dx="0" dy="13" in="SourceAlpha" result="shadowOffsetOuter1"></feOffset>
            <feGaussianBlur stdDeviation="6.5" in="shadowOffsetOuter1" result="shadowBlurOuter1"></feGaussianBlur>
            <feColorMatrix values="0 0 0 0 0   0 0 0 0 0   0 0 0 0 0  0 0 0 0.12 0" type="matrix" in="shadowBlurOuter1"></feColorMatrix>
        </filter>
        <circle id="path-5" cx="198.52" cy="48" r="14.72"></circle>
        <filter x="-88.3%" y="-44.2%" width="276.6%" height="276.6%" filterUnits="objectBoundingBox" id="filter-6">
            <feOffset dx="0" dy="13" in="SourceAlpha" result="shadowOffsetOuter1"></feOffset>
            <feGaussianBlur stdDeviation="6.5" in="shadowOffsetOuter1" result="shadowBlurOuter1"></feGaussianBlur>
            <feColorMatrix values="0 0 0 0 0   0 0 0 0 0   0 0 0 0 0  0 0 0 0.12 0" type="matrix" in="shadowBlurOuter1"></feColorMatrix>
        </filter>
        <filter id="filter-7">
            <feColorMatrix in="SourceGraphic" type="matrix" values="0 0 0 0 0.203922 0 0 0 0 0.274510 0 0 0 0 0.419608 0 0 0 1.000000 0"></feColorMatrix>
        </filter>
        <filter id="filter-8">
            <feColorMatrix in="SourceGraphic" type="matrix" values="0 0 0 0 0.203922 0 0 0 0 0.274510 0 0 0 0 0.419608 0 0 0 1.000000 0"></feColorMatrix>
        </filter>
    </defs>
    <g id="Profile" stroke="none" stroke-width="1" fill="none" fill-rule="evenodd">
        <g id="SCIB_WizardSign_01A" transform="translate(-810.000000, -252.000000)">
            <g id="Group-6-Copy" transform="translate(290.000000, 100.000000)">
                <g id="Group-5" transform="translate(520.000000, 152.000000)">
                    <g id="Backgrounds/Shapes/Polygon-Copy" transform="translate(125.500000, 76.500000) scale(-1, 1) translate(-125.500000, -76.500000) translate(0.000000, 1.000000)">
                        <g id="Fill-1">
                            <use fill="black" fill-opacity="1" filter="url(#filter-2)" xlink:href="#path-1"></use>
                            <use fill="#9BC3D3" fill-rule="evenodd" xlink:href="#path-1"></use>
                        </g>
                        <circle id="Oval-Copy-7" fill="#CEDEE7" fill-rule="nonzero" cx="56.36" cy="120.64" r="16.64"></circle>
                        <circle id="Oval-Copy-6" fill="#CEDEE7" fill-rule="nonzero" cx="18.56" cy="134.64" r="7.36"></circle>
                        <g id="Combined-Shape" transform="translate(33.600000, 74.800000) scale(-1, 1) translate(-33.600000, -74.800000) ">
                            <use fill="black" fill-opacity="1" filter="url(#filter-4)" xlink:href="#path-3"></use>
                            <use fill="#F0F4F5" fill-rule="evenodd" xlink:href="#path-3"></use>
                        </g>
                        <circle id="Oval-Copy-3" fill="#CEDEE7" fill-rule="nonzero" cx="226.36" cy="61.76" r="24.64"></circle>
                        <g id="Oval-Copy-4">
                            <use fill="black" fill-opacity="1" filter="url(#filter-6)" xlink:href="#path-5"></use>
                            <use fill="#F0F4F5" fill-rule="evenodd" xlink:href="#path-5"></use>
                        </g>
                        <circle id="Oval-Copy-5" fill="#9BC3D3" cx="215.8" cy="22.4" r="6.4"></circle>
                    </g>
                    <g id="Objects/Devices/Mobile_Phone_01" transform="translate(40.000000, 0.000000)">
                        <g id="Group" transform="translate(41.800000, 0.200000)">
                            <path d="M65.7513002,159.676804 L13.6713002,159.676804 C7.88728132,159.67478 3.198487,154.986043 3.198487,149.201513 L3.20434988,10.4728132 C3.20453901,4.68898345 7.89314421,-2.27373675e-14 13.678487,-2.27373675e-14 L65.7571631,0.00208037825 C71.542695,0.00283687943 76.230922,4.69163121 76.2299765,10.475461 L76.22487,149.204917 C76.22487,154.98939 71.5360757,159.676804 65.7513002,159.676804 Z" id="Bezel" fill="#9BC3D3"></path>
                            <path d="M62.5530024,159.677466 L10.4726241,159.674818 C4.68898345,159.675442 5.68434189e-13,154.985191 5.68434189e-13,149.20208 L0.00510638298,10.4728132 C0.00605200946,4.68898345 4.69465721,-6.82121026e-14 10.4792435,-6.82121026e-14 L62.5588652,0.00264775414 C68.3432624,0.00208037825 73.032435,4.69144208 73.0314895,10.475461 L73.0261939,149.203972 C73.0261939,154.98852 68.336643,159.677466 62.5530024,159.677466 Z" id="Body" fill="#DEEDF2"></path>
                            <path d="M73.0335697,16.3687943 L73.0284634,144.610307 C73.0280851,148.59669 68.5677541,151.827253 64.5838298,151.827253 L7.21588652,151.824719 C3.22950355,151.82434 0.00189125296,148.594043 0.00189125296,144.606903 L0.00718676123,16.3663357 C0.00737588653,12.3790071 3.2351773,9.14572104 7.22231678,9.14572104 L64.588747,9.14836879 C68.5728605,9.14836879 73.0335697,12.381844 73.0335697,16.3687943 Z" id="Screen" fill="#FFFFFF"></path>
                            <path d="M52.6384871,4.65475177 C52.6388652,5.6179669 51.8573995,6.3992435 50.8939953,6.39886556 C49.9300236,6.39943262 49.1495035,5.61777778 49.1491253,4.65456265 C49.1495035,3.69040189 49.9309693,2.9098818 50.8943735,2.90950355 C51.8575887,2.9098818 52.6388652,3.69059102 52.6384871,4.65475177 Z M26.031773,4.65361702 C26.0315839,5.15612293 25.6245863,5.56293144 25.1228369,5.56274238 C24.620331,5.56274238 24.2125768,5.15574468 24.2135208,4.65323877 C24.212766,4.15092199 24.6199527,3.74392435 25.1224586,3.74392435 C25.6247754,3.74411348 26.031773,4.15111111 26.031773,4.65361702 Z M22.5060994,4.6534279 C22.5059102,5.1551773 22.0991017,5.56293144 21.5973522,5.56274238 C21.0946572,5.56179669 20.6878487,5.15555556 20.6880378,4.65304965 C20.6880378,4.15054374 21.0952246,3.74373522 21.5967849,3.74392428 C22.0992908,3.74392428 22.5062884,4.15111111 22.5060994,4.6534279 Z M40.7356974,5.13815714 L32.3027896,5.13777778 C32.0342317,5.13815714 31.8178723,4.92104019 31.8176832,4.6534279 C31.8182506,4.38543735 32.0353664,4.16926714 32.3022222,4.16907801 L40.73513,4.16964539 C41.0029314,4.16945626 41.2200473,4.38619385 41.2202365,4.65399527 C41.2204255,4.92179669 41.0034988,5.1387234 40.7356974,5.13815714 Z" id="Camera" fill="#C3DEE7"></path>
                        </g>
                        <path d="M114.9406,16.968 C114.9406,12.6576 111.441,9.158 107.1306,9.158 L49.61064,9.158 C45.30018,9.158 41.80064,12.6576 41.80064,16.968 L41.80064,29.398 L114.9406,29.398 L114.9406,16.968 Z" id="Card-01" fill="#9BC3D3"></path>
                        <polygon id="Card-02" fill="#DEEDF2" points="41.80064 38 114.9406 38 114.9406 29 41.80064 29"></polygon>
                        <polygon id="Card-02-Copy" fill="#DEEDF2" points="51 48 83 48 83 46 51 46"></polygon>
                        <polygon id="Card-02-Copy-2" fill="#DEEDF2" points="51 53 107 53 107 51 51 51"></polygon>
                        <polygon id="Card-02-Copy-3" fill="#DEEDF2" points="51 58 107 58 107 56 51 56"></polygon>
                        <polygon id="Card-02-Copy-4" fill="#DEEDF2" points="51 63 107 63 107 61 51 61"></polygon>
                        <path d="M95.2724,127.7048 L63.4688,127.7048 C63.0396,127.7048 62.69176,127.357 62.69176,126.9278 L62.69176,121.4884 C62.69176,121.0592 63.0396,120.7112 63.4688,120.7112 L95.2724,120.7112 C95.7016,120.7112 96.0496,121.0592 96.0496,121.4884 L96.0496,126.9278 C96.0496,127.357 95.7016,127.7048 95.2724,127.7048" id="Skeleton-Text" fill="#9BC3D3"></path>
                        <g filter="url(#filter-7)" id="Group-7">
                            <g transform="translate(61.000000, 75.000000)">
                                <path d="M17.5599701,0.358795659 C20.8812117,0.358795659 23.9825041,1.30050863 26.6113978,2.93148511 C26.2990963,3.07000502 25.9997999,3.23117548 25.7145514,3.41247438 C23.3158647,2.02519214 20.5306032,1.23152288 17.5599701,1.23152288 C8.54622056,1.23152288 1.23915074,8.53846652 1.23915074,17.5520455 C1.23915074,26.5656593 8.54625526,33.8727428 17.5599701,33.8727428 C26.4755392,33.8727428 33.7214438,26.7236436 33.8779101,17.8453556 L33.8804928,17.5520455 L33.8779101,17.2587366 C33.8636615,16.4502337 33.7906209,15.6560716 33.6628812,14.8803434 C33.9335613,14.6758592 34.1893286,14.4513757 34.4275969,14.2096002 C34.6229027,15.1959759 34.7329246,16.2131436 34.7506681,17.2527899 L34.75322,17.5520455 L34.7506681,17.8513022 C34.5909637,27.2088548 26.9555562,34.74547 17.5599701,34.74547 C8.06426189,34.74547 0.366423522,27.0476538 0.366423522,17.5520455 C0.366423522,8.05646921 8.06423,0.358795659 17.5599701,0.358795659 Z" id="Combined-Shape" stroke="#979797" stroke-width="1.36363636" fill="#34466B" fill-rule="nonzero"></path>
                                <path d="M32.8242782,4.00420135 C33.316601,3.4106549 34.2095343,3.31836346 34.8187004,3.79806265 C35.3810075,4.24086191 35.5049702,5.01625711 35.1334889,5.59976893 L35.0302638,5.74134579 L18.98399,25.0867992 C18.4896996,25.6827177 17.6032196,25.7659013 17.0034107,25.3039548 L16.8703911,25.1876601 L7.38939364,15.8043501 C6.83990093,15.2605191 6.84691286,14.3856269 7.40505521,13.8502238 C7.92026354,13.3560055 8.72498282,13.3238101 9.27792811,13.7495192 L9.4106059,13.8654838 L17.7755992,22.1454998 L32.8242782,4.00420135 Z" id="Path-3" fill="#EC0000"></path>
                            </g>
                        </g>
                        <g filter="url(#filter-8)" id="Atoms/ico/normal-size/check-24">
                            <g transform="translate(66.000000, 76.000000)"></g>
                        </g>
                        <path d="M114.9406,141.33808 L41.80062,141.33808 L41.80062,144.01308 C41.80062,148.4422 45.3965,152.03808 49.82562,152.03808 L106.9156,152.03808 C111.3448,152.03808 114.9406,148.4422 114.9406,144.01308 L114.9406,141.33808 Z" id="Dock" fill="#9BC3D3"></path>
                    </g>
                    <g id="Objects/Supplies/Pencil_02" transform="translate(198.142790, 118.594899) rotate(-35.000000) translate(-198.142790, -118.594899) translate(143.142790, 89.594899)">
                        <g id="Group-5" transform="translate(0.000000, 0.340000)">
                            <polygon id="Fill-1" fill="#34466B" points="8.40510102 45.6353328 96.5443881 1.51720969 100.405101 9.39910375 12.2659414 53.5172097"></polygon>
                            <polygon id="Fill-2" fill="#9BC3D3" points="109.193511 0.413203417 97.1935105 1.75415482 100.975121 9.41320342"></polygon>
                            <polygon id="Fill-3" fill="#DEEDF2" points="8.00246484 55.0396408 4.11536028 47.098779 8.2282471 45.0396408 12.1153603 52.9805026"></polygon>
                            <path d="M2.9570343,48.1159979 C0.797834773,49.1165931 -0.13303272,51.660243 0.877780452,53.7974398 C1.8886769,55.9346366 4.45851408,56.8559359 6.61771361,55.8554232 L8.46953866,54.9971814 L4.80969213,47.2595201 L2.95736741,48.1178113" id="Fill-4" fill="#34466B"></path>
                        </g>
                    </g>
                </g>
            </g>
        </g>
    </g>
</svg>