<?xml version="1.0" encoding="UTF-8"?>
<svg width="45px" height="45px" viewBox="0 0 45 45" version="1.1" xmlns="http://www.w3.org/2000/svg" xmlns:xlink="http://www.w3.org/1999/xlink">
    <title>08E0991F-E287-45A2-8372-188862EB77DD</title>
    <defs>
        <path d="M20.5318731,0.422053576 L31.5915593,3.38548755 C36.7001017,4.75431736 39.7317377,10.005265 38.3629079,15.1138074 L35.3994739,26.1734936 C34.0306441,31.2820359 28.7796965,34.313672 23.6711541,32.9448422 L12.6114679,29.9814082 C7.50292554,28.6125784 4.47128949,23.3616307 5.8401193,18.2530884 L8.80355328,7.1934022 C10.1723831,2.08485981 15.4233307,-0.946776231 20.5318731,0.422053576 Z" id="path-1"></path>
        <filter x="-21.5%" y="-18.5%" width="143.0%" height="143.0%" filterUnits="objectBoundingBox" id="filter-2">
            <feMorphology radius="0.634563061" operator="dilate" in="SourceAlpha" result="shadowSpreadOuter1"></feMorphology>
            <feOffset dx="0" dy="1" in="shadowSpreadOuter1" result="shadowOffsetOuter1"></feOffset>
            <feGaussianBlur stdDeviation="2" in="shadowOffsetOuter1" result="shadowBlurOuter1"></feGaussianBlur>
            <feComposite in="shadowBlurOuter1" in2="SourceAlpha" operator="out" result="shadowBlurOuter1"></feComposite>
            <feColorMatrix values="0 0 0 0 0   0 0 0 0 0   0 0 0 0 0  0 0 0 0.16 0" type="matrix" in="shadowBlurOuter1"></feColorMatrix>
        </filter>
    </defs>
    <g id="Costs-&amp;-Charges-Reporting" stroke="none" stroke-width="1" fill="none" fill-rule="evenodd">
        <g id="Special_CCR_feed_-04-B" transform="translate(-1060.000000, -301.000000)">
            <g id="card-copy" transform="translate(940.000000, 160.000000)">
                <g id="Group" transform="translate(55.000000, 145.961586)">
                    <g id="SSIs" transform="translate(66.000000, 0.000000)">
                        <g transform="translate(0.000000, 0.219535)">
                            <g id="Rectangle">
                                <use fill="black" fill-opacity="1" filter="url(#filter-2)" xlink:href="#path-1"></use>
                                <use stroke="#EFEFEF" stroke-width="1.26912612" fill="#FFFFFF" fill-rule="evenodd" xlink:href="#path-1"></use>
                            </g>
                            <path d="M8.345376,3.64922191 L23.104224,3.64922191 C27.7132479,3.64922191 31.4496,7.38557401 31.4496,11.9945979 L31.4496,26.7534459 C31.4496,31.3624698 27.7132479,35.0988219 23.104224,35.0988219 L8.345376,35.0988219 C3.7363521,35.0988219 2.34079948e-15,31.3624698 0,26.7534459 L0,11.9945979 C1.2119142e-15,7.38557401 3.7363521,3.64922191 8.345376,3.64922191 Z" id="Rectangle-Copy" stroke="#137E84" stroke-width="1.59744006" fill="#1BB3BC"></path>
                        </g>
                        <g id="atoms/ico/24/mobile-24-" transform="translate(2.246400, 5.875200)" fill="#FFFFFF">
                            <path d="M20.7018064,5.616 C21.052756,5.616 21.3407649,5.88242338 21.3734339,6.22354847 L21.3765201,6.28833803 L21.3763614,8.93782445 L24.0356862,8.93814085 C24.3647015,8.93814085 24.6383978,9.17230202 24.6982431,9.48265058 L24.7073138,9.54568932 L24.7104,9.61047887 L24.7104,21.791662 C24.7104,22.1413759 24.4430352,22.4283706 24.1007047,22.4609247 L24.0356862,22.464 L6.25499364,22.464 C5.90404401,22.464 5.61603511,22.1975766 5.58336607,21.8564515 L5.58027986,21.791662 L5.57996235,19.1415428 L2.92111378,19.1418592 C2.59209851,19.1418592 2.31840223,18.907698 2.25855695,18.5973494 L2.24948621,18.5343107 L2.2464,18.4695211 L2.2464,6.28833803 C2.2464,5.93862414 2.51376481,5.65162935 2.85609528,5.61907534 L2.92111378,5.616 L20.7018064,5.616 Z M20.1004379,10.2823423 L10.1897657,10.2823423 L10.1856472,10.3080463 C9.90049467,11.90507 8.66830478,13.1674705 7.08422429,13.5021968 L6.92923115,13.5313961 L6.92923115,17.870112 L6.95502596,17.8748487 C8.55769282,18.1589972 9.82455415,19.3868484 10.1604632,20.9653511 L10.1897657,21.1191657 L20.1004379,21.1191657 L20.1050326,21.0940946 C20.3901852,19.4970709 21.6223751,18.2346703 23.2064556,17.8999441 L23.3604962,17.870112 L23.3604962,13.5313961 L23.3356539,13.5272921 C21.732987,13.2431436 20.4661257,12.0152924 20.1302167,10.4367897 L20.1004379,10.2823423 Z M6.92923115,19.2288676 L6.92923115,21.1191657 L8.82668506,21.1191657 L8.80578403,21.0430265 C8.5511712,20.1829614 7.86943164,19.5036134 7.0062893,19.2499162 L6.92923115,19.2288676 Z M23.3604962,19.2288676 L23.2843906,19.2499162 C22.4212482,19.5036134 21.7395087,20.1829614 21.4848958,21.0430265 L21.4635185,21.1191657 L23.3604962,21.1191657 L23.3604962,19.2288676 Z M20.0266163,6.96020146 L3.59535129,6.96020146 L3.59535129,17.7970249 L5.57996235,17.7970249 L5.58027986,9.61047887 C5.58027986,9.26076498 5.84764467,8.9737702 6.18997514,8.94121619 L6.25499364,8.93814085 L20.0266163,8.93782445 L20.0266163,6.96020146 Z M8.82668506,10.2823423 L6.92923115,10.2823423 L6.92923115,12.1726405 L7.0062893,12.1522246 C7.86943164,11.8985275 8.5511712,11.2191794 8.80578403,10.3591144 L8.82668506,10.2823423 Z M23.3604962,10.2823423 L21.4635185,10.2823423 L21.4848958,10.3591144 C21.7395087,11.2191794 22.4212482,11.8985275 23.2843906,12.1522246 L23.3604962,12.1726405 L23.3604962,10.2823423 Z" id="🌈-Color"></path>
                        </g>
                    </g>
                </g>
            </g>
        </g>
    </g>
</svg>