<?xml version="1.0" encoding="UTF-8"?>
<svg width="108px" height="105px" viewBox="0 0 108 105" version="1.1" xmlns="http://www.w3.org/2000/svg" xmlns:xlink="http://www.w3.org/1999/xlink">
    <title>381F4925-D5B0-4D6B-82AB-E12554C63CFD</title>
    <g id="Gloval-Overview" stroke="none" stroke-width="1" fill="none" fill-rule="evenodd">
        <g id="ISM-Contact-list-Global-Overview-no-favs" transform="translate(-1226.000000, -557.000000)">
            <g id="card-copy" transform="translate(968.000000, 488.000000)">
                <g id="ilustracion" transform="translate(258.000000, 69.000000)">
                    <circle id="Oval" fill="#CEDEE7" cx="49.3737374" cy="49.3737374" r="49.3737374"></circle>
                    <g id="Man-new" transform="translate(10.000000, 16.000000)">
                        <path d="M95.1277297,68.4627136 L86.0427657,84.1978507 L35.1052251,84.1978507 C28.0327266,84.1978507 23.6123981,76.5415399 27.1485388,70.4167626 L39.6055642,48.8396337 C45.3701921,38.852023 57.1048695,33.9559066 68.2597249,36.8847407 L83.6374951,40.9219143 C95.612272,44.0636348 101.318198,57.7385172 95.1277297,68.4627136 Z" id="Shirt" fill="#EC0000" transform="translate(61.778653, 60.120775) scale(-1, 1) translate(-61.778653, -60.120775) "></path>
                        <g id="Characters/Body-parts/Upper-body/Hands-&amp;-Arms/Hand-02-Copy-2" transform="translate(66.204018, 69.092775) scale(-1, 1) translate(-66.204018, -69.092775) translate(42.204018, 56.592775)" fill="#FFC4B8">
                            <path d="M39.9688694,0.361249721 C40.8414217,0.158116829 41.758821,0.372226215 42.4513755,0.940632429 L42.4513755,0.940632429 L46.9809921,4.65847929 C47.57552,5.14652673 47.6322224,6.03623254 47.1044231,6.59583045 C46.6249258,7.10420473 45.833464,7.15373446 45.2943513,6.70911871 L45.2943513,6.70911871 L42.084199,4.06168326 L47.4254654,10.0992969 C47.8908718,10.6253555 47.8496152,11.4271139 47.3327906,11.9026264 C46.8292439,12.3660106 46.0513988,12.3551697 45.5609946,11.8778954 L45.5609946,11.8778954 L43.216,9.59614495 L42.948,9.88514495 L44.7485319,13.3675818 C44.9678668,13.7918538 44.8971719,14.303007 44.5831489,14.6510017 L44.4915084,14.7416762 C43.9998848,15.1761963 43.2435825,15.1053912 42.841111,14.5871245 C42.4961907,14.1430529 42.0638913,13.5875227 41.6170617,13.0159655 L41.3178221,12.6336002 C41.176696,12.453472 41.0357332,12.273854 40.8971855,12.0976958 L40.276,12.7651449 L40.666437,14.7365268 C40.7401501,15.1095446 40.5859197,15.4862945 40.2821707,15.7020466 L40.1754909,15.7677751 C39.8092628,15.9617609 39.3597764,15.8977314 39.062106,15.6093613 L39.062106,15.6093613 L38.312,14.8831449 L38.2087255,14.995694 L36.7081795,16.1407049 C36.2089007,16.5221719 35.6920083,16.8793145 35.1602121,17.2111841 C34.5064754,17.6197536 33.8290279,17.9910572 33.1319345,18.3217071 L28.7759476,20.3909795 C21.5408092,23.6981564 13.5110249,24.8669497 5.6336663,23.7591369 L0,22.9677453 C0.402880034,16.0799194 4.88655681,14.8519232 6.2359979,14.6379258 L6.36825895,14.618666 C6.52773955,14.5975953 6.6179974,14.5938323 6.6179974,14.5938323 L8.13480217,14.7619353 C13.8693946,15.3995205 19.6730866,14.9129637 25.2213133,13.3302482 L28.2265378,12.4723878 L31.2354882,5.96576616 C31.9243168,4.47607978 33.1395897,3.29373523 34.6475876,2.64618985 L34.6475876,2.64618985 Z" id="Skin-tone"></path>
                        </g>
                        <g id="Characters/Body-parts/Upper-body/Hands-&amp;-Arms/Hand-Holding-Tablet" transform="translate(21.379664, 76.070263) scale(-1, 1) translate(-21.379664, -76.070263) translate(0.379664, 63.570263)">
                            <g id="Group" transform="translate(0.000000, 0.208580)">
                                <path d="M32.2741536,22.5585869 C32.1844141,22.5585869 32.0953545,22.5572272 32.0062948,22.553828 L26.8666693,22.3661909 L29.9123733,18.4033764 L37.0303468,19.6508914 L36.3110711,21.4014913 L35.6108311,21.7577299 C34.5761076,22.2846095 33.4326089,22.5585869 32.2741536,22.5585869 Z" id="Shadow" fill="#F4A48D"></path>
                                <path d="M29.3950116,23.1656882 L41.4486571,2.288203 C42.0176871,1.3027002 41.3065696,0.0707537195 40.1685096,0.0707537195 L13.534236,0.0707537195 C13.0059967,0.0707537195 12.5180042,0.35248134 12.2539525,0.809880818 L0.200239001,21.6877059 C-0.368722982,22.6728008 0.342530486,23.9046793 1.48052244,23.9046793 L28.1148641,23.9046793 C28.6431034,23.9046793 29.1312318,23.6232236 29.3950116,23.1656882 Z" id="Tablet" fill="#DEEDF2"></path>
                                <path d="M28.5914352,18.1640711 L28.5914352,18.0002286 L27.7593053,18.0131456 C26.9387328,18.0260627 26.2507301,17.3972064 26.1902239,16.5793533 L26.176627,16.3957952 C26.11952,15.63097 26.6321229,14.939568 27.379952,14.7709665 L27.3704342,14.0544102 C27.3554776,12.9361338 28.1801292,11.9829236 29.2896356,11.8374369 L32.9390417,11.3588262 L32.8792154,11.1446752 C32.535214,9.91687573 33.2340943,8.63924369 34.4530557,8.26668882 L38.1310152,7.14263369 C38.6939266,6.97063299 39.2989883,7.22713838 39.5661673,7.75116263 L39.8394648,8.2851806 C40.1426755,8.87922885 39.9101687,9.60693456 39.318024,9.91415635 L38.0208804,10.5878824 L38.3166128,11.1589519 C38.8128994,12.1182127 38.8380537,13.2528734 38.3852771,14.2338892 L38.2044385,14.6241201 C38.7585118,15.4378941 38.8203777,16.4896138 38.3662415,17.3625343 L38.1677269,17.7432473 L38.0739083,19.0451498 C37.9970858,20.107747 37.3084032,21.0282566 36.3110711,21.4014913 L29.2719597,19.1029366 C28.8660924,18.9703669 28.5914352,18.5916934 28.5914352,18.1640711 Z" id="Skin-tone" fill="#FFC4B8"></path>
                            </g>
                        </g>
                        <g id="Characters/Body-parts/Head/Male/Model-A-00" transform="translate(40.443905, 26.527964) scale(-1, 1) rotate(10.000000) translate(-40.443905, -26.527964) translate(25.943905, 2.527964)">
                            <path d="M3.32173083,21.8237554 C2.25662556,20.4509714 1.44249514,18.8472135 0.966766681,17.0631716 C0.563103707,15.5494527 0.434712351,14.022709 0.552793909,12.5452805 C0.809542255,9.30869115 2.24432253,6.28757656 4.52756485,4.04347711 C6.12778303,2.46848357 8.14468889,1.27529624 10.4677614,0.656364674 C17.6237237,-1.25232267 24.9691802,2.99978185 26.8762523,10.153751 C27.0197303,10.6891732 27.2437279,14.2442666 27.2766161,14.770135 L27.3542146,16.0383777 L28.9841249,27.3092211 L27.2550687,27.1978066 C27.2118019,27.3247889 27.1660264,27.4512901 27.1173298,27.5773102 C26.7830174,28.457389 26.3251248,29.292139 25.7532747,30.0561982 L24.6816742,31.5006009 L24.0054889,32.4088254 L23.9402623,32.4946373 L23.9073053,32.540619 C23.1755158,33.5243456 22.2906258,34.6145037 21.3096485,35.6414971 C20.07316,36.9356861 18.3845868,37.4894597 16.7636803,37.3304826 C16.6159066,37.8359033 16.4773772,38.3916702 16.3685745,38.9791912 C16.2189106,39.7830806 16.1804551,40.6034312 16.2182233,41.4196923 C16.2182233,41.4196923 16.1773965,42.6476237 16.1394908,42.6700303 C14.9836249,45.7364049 12.0230632,47.9175115 8.55708082,47.9175115 C4.47859331,47.9175115 1.09993491,44.8973592 0.538910047,40.9720409 C0.519871286,40.9621435 0.50963022,40.9531396 0.51053029,40.9453041 C0.986389664,37.3570475 0.766722226,39.3636436 1.93513168,35.2165616 C2.43144537,33.4509055 3.31152413,32.1486405 3.87856304,27.1825824 C3.97605937,26.3203396 4.04812486,23.5682077 4.09551557,23.021754 C4.09805865,22.9928522 4.09970822,22.9541904 4.100533,22.9067997 L3.32173083,21.8237554 Z" id="Base-color" fill="#FFC4B8"></path>
                            <path d="M8.85115064,29.515518 L12.8809072,35.1231892 C13.8511279,36.4399566 15.275186,37.1825027 16.7563948,37.3297266 C16.7592471,37.3311699 16.7608623,37.3313418 16.7612747,37.3302077 C16.4153123,38.5095455 16.2992927,39.4053639 16.2992927,39.4053639 C13.5757876,38.2510102 11.7836697,35.9369759 8.85115064,29.515518 Z M26.886459,27.1828574 L25.4242547,27.0860484 C24.9539904,26.6796361 24.6752822,26.056993 24.7411961,25.3739345 L25.232733,20.1964225 L26.886459,27.1828574 Z" id="Shadows" fill="#CC0000"></path>
                        </g>
                        <path d="M27.6007248,16.5700507 C26.6644166,16.9153241 26.1130171,18.4425704 26.34993,20.1671157 C26.3824461,20.4038606 26.4282434,20.6330387 26.4857014,20.8524778 C25.972983,21.1893436 25.1750883,22.0376736 25.1750883,22.0376736 L25.175969,22.0392851 C24.2617139,20.5070293 23.6338681,18.7727801 23.374902,16.898649 C23.1544408,15.303441 23.2188037,13.7309337 23.5309299,12.2392797 C24.2114073,8.97189893 26.0753223,6.07413865 28.7113094,4.07690578 C30.5594067,2.6753536 32.7871637,1.71646323 35.2556735,1.38131401 C39.8014434,0.763843541 44.1332693,2.39933807 47.1050916,5.42527969 L51.3027667,5.5132095 C52.1457541,5.53097063 52.5484885,6.54860933 51.9425198,7.12985692 L52.3719575,7.48385324 C53.3022064,8.25020886 53.6391337,9.51776441 53.2106471,10.6394125 L50.7029277,17.0678526 C50.6742867,16.8170249 50.6260939,16.5700507 50.5593003,16.329067 L50.5591594,16.329067 C50.4318429,15.8692046 50.236852,15.4309217 49.981127,15.0284764 L49.9808099,15.028021 L49.9523099,14.9837058 L49.9235633,14.9400562 L49.9228939,14.9390403 L49.8938655,14.8960212 L49.8929143,14.8946199 L49.8633574,14.8518111 L49.8339767,14.8102634 L49.8316868,14.8070404 L49.8019538,14.7659832 L49.8007913,14.7643717 L49.7699662,14.7227189 L49.7395638,14.6826075 L49.7361114,14.6780884 L49.7054272,14.6385375 L49.7046874,14.6375916 L49.6738271,14.5986363 L49.6713258,14.5955184 L49.6405359,14.5575089 L49.636238,14.5522892 L49.6046027,14.5141045 L49.5726855,14.4765154 L49.5684228,14.4715409 L49.5369283,14.4351779 L49.5322782,14.4299231 L49.4996564,14.3931047 L49.466788,14.3568468 L49.4612923,14.3508564 L49.4289172,14.3158596 L49.4243374,14.3110252 L49.3924907,14.2773947 L49.3897781,14.2745571 L49.3564165,14.2401209 L49.3500753,14.233675 L49.3165376,14.1997642 L49.3126625,14.1959458 L49.2804634,14.1641019 L49.2756371,14.1593726 L49.241571,14.1265127 L49.2348071,14.1200318 L49.1998954,14.0870319 L49.1977112,14.0850001 L49.1636803,14.0535415 L49.1574096,14.0478313 L49.122498,14.0162326 L49.1156636,14.0101371 L49.0796599,13.9783282 L49.0791315,13.9778728 L49.0424584,13.946169 L49.0352013,13.9399684 L48.9991975,13.9095258 L48.9927507,13.9041659 L48.9578391,13.8753347 L48.95414,13.872322 L48.9169385,13.8422297 L48.9090825,13.835959 L48.8717754,13.8064973 L48.8663501,13.8022934 L48.8309805,13.7750037 L48.825203,13.7706247 L48.7872265,13.7419687 L48.7791239,13.7359082 L48.7403019,13.7073573 L48.7368142,13.7047999 L48.6995775,13.6780357 L48.6923908,13.672921 L48.6534984,13.6455612 L48.6455015,13.6400262 L48.6048828,13.6121759 L48.5312196,13.5625008 L48.5202987,13.5551441 L48.4498061,13.5083066 L48.4364896,13.4995486 L48.3656447,13.4530965 L48.3550056,13.4462302 L48.2813777,13.3986571 L48.280039,13.3977813 L48.2056712,13.3504533 L48.1942219,13.3431667 L48.1227781,13.2983961 L48.1093207,13.2899534 L48.037278,13.245428 L48.026956,13.2391223 L47.9530462,13.1940714 L47.9504393,13.1924599 L47.8754022,13.147409 L47.8634597,13.1402976 L47.7910999,13.0974887 L47.7775017,13.0895014 L47.7043317,13.0468677 L47.6944324,13.0411225 L47.6200646,12.9984538 L47.6163304,12.9962818 L47.5405887,12.9534379 L47.5282586,12.9465367 L47.454983,12.9056896 L47.4413494,12.8981578 L47.3669817,12.8574158 L47.3575404,12.8522661 L47.2826442,12.8118044 L47.2778178,12.809212 L47.201442,12.7686102 L47.1887597,12.7619191 L47.1145681,12.7230688 L47.1009346,12.7160274 L47.0254043,12.6771071 L47.0165618,12.672623 L46.9408906,12.6342632 L46.9352188,12.6313556 L46.8581384,12.5929257 L46.8451743,12.5865149 L46.7700314,12.5496264 L46.7565389,12.5430755 L46.6797403,12.5060468 L46.6717082,12.5021934 L46.5950505,12.4657953 L46.5886389,12.4627475 L46.5107835,12.4264196 L46.4977136,12.4203591 L46.4215844,12.3854324 L46.4083032,12.3794069 L46.3302012,12.3441999 L46.3231555,12.341012 L46.2453,12.3065057 L46.23836,12.3034229 L46.1596943,12.2691618 L46.146554,12.2634867 L46.0693327,12.2304517 L46.0564742,12.2250218 L45.9769983,12.1915664 L45.9711856,12.1891842 L45.8918153,12.1563945 L45.8844878,12.1534168 L45.8049061,12.1211525 L45.791942,12.1159327 L45.7135581,12.0847544 L45.7013338,12.0799551 L45.6202725,12.0483214 L45.6160451,12.0466749 L45.5347373,12.0155316 L45.5272688,12.012694 L45.4466655,11.9824266 L45.4340889,11.9777323 L45.3544016,11.9484107 L45.3429523,11.9442419 L45.2602353,11.9143948 L45.2579102,11.913554 L45.1742773,11.8839872 L45.1669497,11.8813949 L45.0851839,11.8530541 L45.0731357,11.8489554 L44.9920392,11.8214204 L44.981682,11.8179523 L44.8970627,11.7898217 L44.8106467,11.7617613 L44.8036714,11.7594842 L44.7205669,11.7330702 L44.7093642,11.729567 L44.626612,11.7038537 L44.6176991,11.7011212 L44.5316002,11.6749174 L44.4439512,11.6488888 L44.4376453,11.6470672 L44.3530259,11.6225099 L44.3429153,11.6196373 L44.2583664,11.5957105 L44.2511798,11.5937137 L44.1634251,11.5694717 L44.0744022,11.54551 L44.0691179,11.5441087 L43.9827371,11.5214431 L43.9741061,11.5192011 L43.8874083,11.497026 L43.882441,11.4957999 L43.7927136,11.4734846 L43.7022463,11.4515897 L43.6983007,11.4506439 L43.6098766,11.42987 L43.6030423,11.4282936 L43.5139841,11.4079401 L43.5117295,11.4074146 L43.4197474,11.3870261 L43.3275186,11.3672332 L43.3253345,11.3667427 L43.2346558,11.3478606 L43.2300408,11.3469147 C43.1370723,11.3278574 43.0438924,11.3096759 42.9505012,11.2924052 C42.6574336,14.5474198 40.0877117,17.2223778 36.738555,17.5667404 C32.7837817,17.9734245 29.3996429,17.2177536 29.2737355,17.1891677 L29.2619691,17.1756454 L29.2538665,17.166397 L29.24284,17.1539958 L29.2339623,17.1440818 L29.2235346,17.1326264 L29.2139172,17.1220818 L29.2041236,17.1115022 L29.1937664,17.1003971 L29.1845365,17.0906232 L29.1735451,17.0790627 L29.1648084,17.0700946 L29.1532182,17.0581137 L29.1449042,17.0497762 L29.1327151,17.037445 L29.1249295,17.029773 L29.1121415,17.0171616 L29.1047787,17.0100851 L29.0914975,16.9972635 L29.084487,16.9906425 L29.0707126,16.9776457 L29.0640896,16.9715502 L29.0498219,16.9584132 L29.043516,16.9527381 L29.0288609,16.9395311 L29.0228368,16.9342413 L29.0077941,16.9210343 L29.0020518,16.9160598 L28.9866217,16.9028528 L28.9810908,16.8982286 L28.9653788,16.8850566 L28.9600592,16.8807127 L28.9440302,16.8676458 L28.9388516,16.8635471 L28.9225759,16.8505503 L28.9175734,16.8466968 L28.9010864,16.8339102 L28.8961192,16.8301618 L28.879456,16.8175504 L28.8746296,16.8139771 L28.8577903,16.8016109 L28.8529992,16.7982128 L28.836019,16.7860568 L28.8312279,16.7827288 L28.8141772,16.770853 L28.8093861,16.7676301 L28.7922297,16.7560345 L28.7874386,16.7528817 L28.7702118,16.7416365 L28.7653855,16.7385537 L28.7481234,16.7275887 L28.7432266,16.7245409 L28.7259998,16.7139613 L28.7209621,16.7109486 L28.7037705,16.7007193 L28.6986271,16.6977766 L28.6814707,16.6878627 L28.6762216,16.68492 L28.6591357,16.6753563 L28.6537105,16.6724837 L28.636695,16.6633404 L28.6311641,16.6604328 L28.6142191,16.6516398 L28.6084769,16.6488022 L28.591708,16.6404296 L28.5857544,16.637522 L28.569056,16.6295697 L28.5629262,16.6266971 L28.5464391,16.6190952 L28.5400275,16.6162927 L28.5236814,16.6090761 L28.5170584,16.6062736 L28.5009589,16.5994774 L28.4940893,16.5967099 L28.4781307,16.5902641 L28.4710145,16.5875316 L28.455232,16.5814711 L28.4478692,16.5787736 L28.4322982,16.5731335 L28.4246888,16.5704711 L28.4093643,16.5651813 L28.4014731,16.5625889 L28.3863599,16.5576495 L28.3782221,16.5551622 L28.3633204,16.550573 L28.3548655,16.5481558 L28.3402456,16.543952 L28.3315441,16.5415699 L28.3171003,16.5376813 L28.308117,16.5354743 L28.2939198,16.5319361 L28.2846899,16.5297992 L28.2707041,16.5265763 L28.2612276,16.5245794 L28.2474884,16.5216718 L28.2376948,16.5197801 L28.2242375,16.5171877 L28.2141973,16.5154361 L28.2009161,16.5131941 L28.1906645,16.5116177 L28.1776299,16.5096209 L28.1670613,16.5082196 L28.1542733,16.506468 L28.1435285,16.5052419 L28.1309167,16.5038056 L28.1198901,16.5027897 L28.1075601,16.5015986 L28.0962516,16.5007578 L28.084133,16.499847 L28.0726132,16.4991814 L28.0606707,16.4985158 L28.0489395,16.4981304 L28.0372436,16.4977101 L28.0252658,16.4975349 L28.0137813,16.4973247 L28.0015569,16.4973948 L27.9903542,16.4974298 L27.9778128,16.4977451 L27.9668566,16.4979903 L27.9539982,16.4985508 L27.9433591,16.4990413 L27.9300779,16.499882 L27.9198968,16.5005476 L27.9058405,16.5017387 L27.8963993,16.5025444 L27.8807577,16.5041909 L27.8728665,16.5049967 L27.8494042,16.5079393 L27.8268578,16.5112674 L27.8210451,16.5122132 L27.8002249,16.5157164 L27.7985339,16.5159966 L27.7763751,16.5202355 L27.770668,16.5214266 L27.7512218,16.5255954 L27.7482626,16.526261 L27.7265969,16.5314106 L27.7208547,16.5328469 L27.7027119,16.5375762 L27.6985197,16.5386973 L27.6774881,16.5446877 L27.6715697,16.5464393 L27.6547656,16.551589 L27.6493757,16.5532705 L27.6291544,16.5599616 L27.6226018,16.5622386 L27.607524,16.5675985 L27.6007248,16.5700507 Z" id="Hair-color" fill="#3B101C" transform="translate(38.319600, 11.645682) scale(-1, 1) translate(-38.319600, -11.645682) "></path>
                        <path d="M59.7734706,51.7580664 C59.7734706,51.7580664 56.0917637,36.2134888 51.7065204,34.1144842 L47.4710509,36.4383191 L49.1952477,47.8829497 L59.7734706,51.7580664 Z" id="Shirt" fill="#EC0000" transform="translate(53.622261, 42.936275) scale(-1, 1) translate(-53.622261, -42.936275) "></path>
                    </g>
                </g>
            </g>
        </g>
    </g>
</svg>