<?xml version="1.0" encoding="UTF-8"?>
<svg width="159px" height="100px" viewBox="0 0 159 100" version="1.1" xmlns="http://www.w3.org/2000/svg" xmlns:xlink="http://www.w3.org/1999/xlink">
    <title>8BBBFB42-FD1D-49EB-815D-4F0E0645E83C</title>
    <defs>
        <filter id="filter-1">
            <feColorMatrix in="SourceGraphic" type="matrix" values="0 0 0 0 0.266667 0 0 0 0 0.266667 0 0 0 0 0.266667 0 0 0 1.000000 0"></feColorMatrix>
        </filter>
    </defs>
    <g id="dis" stroke="none" stroke-width="1" fill="none" fill-rule="evenodd">
        <g id="IBOR_mobile" transform="translate(-87.000000, -216.000000)">
            <g id="Group-7" transform="translate(25.000000, 216.000000)">
                <g id="gotodesk" transform="translate(62.000000, 0.000000)">
                    <g id="noun_desktop_1333782" filter="url(#filter-1)">
                        <g>
                            <path d="M154.2495,0.0354545455 C156.586673,0.0354545455 158.4966,1.86471783 158.614735,4.16756515 L158.6205,4.37818182 L158.6205,78.9772727 C158.6205,81.3134372 156.776959,83.2202824 154.461279,83.3304289 L154.2495,83.3354545 L109.036,83.3354545 L111.4385,95.3436364 L124.04,95.3436364 C125.324062,95.3436364 126.365,96.3815217 126.365,97.6618182 C126.365,98.888769 125.409,99.8930887 124.199184,99.9746519 L124.04,99.98 L71.96,99.98 C70.675938,99.98 69.635,98.9421146 69.635,97.6618182 C69.635,96.4348674 70.5910003,95.4305477 71.8008162,95.3489845 L71.96,95.3436364 L84.5615,95.3436364 L86.964,83.3354545 L41.7505,83.3354545 C39.4074644,83.3354545 37.4950109,81.4973201 37.3845405,79.1884306 L37.3795,78.9772727 L37.379,51.9994545 L42.029,51.9994545 L42.0295,65.8718182 L153.9705,65.8718182 L153.9705,4.67181818 L42.0295,4.67181818 L42.029,15.9994545 L37.379,15.9994545 L37.3795,4.39363636 C37.3795,2.05747187 39.2230407,0.150626688 41.5387211,0.0404802274 L41.7505,0.0354545455 L154.2495,0.0354545455 Z M20.5761718,56 C22.7881645,56 24.6420046,57.6365035 24.9548055,59.8011996 L24.9888804,60.1139154 L25,60.4248046 L25,92.5751954 C25,94.7874292 23.3640724,96.6418675 21.1997322,96.9547858 L20.8870657,96.9888741 L20.576172,97 L4.4238282,97 C2.21183545,97 0.357995426,95.3634965 0.0451945066,93.1988002 L0.011119648,92.8860844 L0,92.5751952 L0,60.4248046 C0,58.2125708 1.6359276,56.3581325 3.80026792,56.0452142 L4.11293446,56.0111259 L4.4238282,56 L20.5761718,56 Z M104.293,83.32 L91.707,83.32 L89.3045,95.3281818 L106.6955,95.3281818 L104.293,83.32 Z M20.576172,59 L4.4238282,59 C3.77342041,59 3.215447,59.4421868 3.0517025,60.0289553 L3.01213605,60.2294914 L3,60.4248046 L3,92.5751954 C3,93.2262617 3.44205465,93.7844995 4.02836455,93.9482908 L4.22873547,93.9878651 L4.4238282,94 L20.5761718,94 C21.2265796,94 21.784553,93.5578132 21.9482975,92.9710447 L21.9878639,92.7705086 L22,92.5751954 L22,60.4248046 C22,59.6395356 21.3606884,59 20.576172,59 Z M13.5,90 C14.3288768,90 15,90.6711232 15,91.5 C15,92.1556371 14.5773665,92.722476 13.9433242,92.9273885 L13.7244366,92.9819133 L13.5,93 L11.5,93 C10.6711232,93 10,92.3288768 10,91.5 C10,90.8443629 10.4226335,90.277524 11.0566758,90.0726115 L11.2755634,90.0180867 L11.5,90 L13.5,90 Z M153.9705,70.5081818 L42.0295,70.5081818 L42.0295,78.6836364 L153.9705,78.6836364 L153.9705,70.5081818 Z M52.647,72.8418182 C53.4773601,72.8418182 54.1505,73.512984 54.1505,74.3409091 C54.1505,75.1688341 53.4773601,75.84 52.647,75.84 C51.8166399,75.84 51.1435,75.1688341 51.1435,74.3409091 C51.1435,73.512984 51.8166399,72.8418182 52.647,72.8418182 Z M58.847,72.8418182 C59.6773601,72.8418182 60.3505,73.512984 60.3505,74.3409091 C60.3505,75.1688341 59.6773601,75.84 58.847,75.84 C58.0166399,75.84 57.3435,75.1688341 57.3435,74.3409091 C57.3435,73.512984 58.0166399,72.8418182 58.847,72.8418182 Z M65.047,72.8418182 C65.8773601,72.8418182 66.5505,73.512984 66.5505,74.3409091 C66.5505,75.1688341 65.8773601,75.84 65.047,75.84 C64.2166399,75.84 63.5435,75.1688341 63.5435,74.3409091 C63.5435,73.512984 64.2166399,72.8418182 65.047,72.8418182 Z M15.5,60 C16.3288768,60 17,60.6711232 17,61.5 C17,62.1556371 16.5773665,62.722476 15.9433242,62.9273885 L15.7244366,62.9819133 L15.5,63 L9.5,63 C8.67112323,63 8,62.3288768 8,61.5 C8,60.8443629 8.42263346,60.277524 9.05667577,60.0726115 L9.27556342,60.0180867 L9.5,60 L15.5,60 Z M38.1711988,28.8903911 C38.6291732,28.8903911 39.0249945,29.1840847 39.1681728,29.6253719 L39.2062805,29.7777337 L39.2189142,29.9338694 L39.2189142,36.930739 L39.2058624,37.0393974 L39.1987282,37.0643971 L39.1834233,37.1667377 L39.1751585,37.2027108 L39.1535075,37.2715263 L39.1194933,37.3543161 L39.0744195,37.4376358 C39.0360763,37.5067121 39.0044492,37.5556618 38.9499781,37.6191844 L38.8601041,37.7034856 C38.8424251,37.7179975 38.8221502,37.7339252 38.7974102,37.7530461 L38.7566721,37.7917761 L38.7146715,37.8217302 L38.5559335,37.8913628 L38.3574951,37.9471111 L38.2988377,37.9582123 L38.2826795,37.9588578 L38.258944,37.9636808 L38.1711988,37.9742172 L31.1317118,37.9742172 C30.553745,37.9742172 30.0839963,37.5073124 30.0839963,36.930739 C30.0839963,36.4737101 30.3797673,36.0797628 30.8224061,35.9375974 L30.9751877,35.899793 L31.1317118,35.8872607 L36.0760968,35.8872607 L36.0557573,35.8662267 C33.9368876,33.5875385 30.5506002,32.0151625 27.2028734,31.7822698 L26.7665394,31.7595409 L26.348668,31.7523042 C20.0246051,31.7523042 14.8795624,36.8670348 14.8795624,43.1512607 C14.8795624,43.7278341 14.4098137,44.194739 13.831847,44.194739 C13.2538803,44.194739 12.7841316,43.7278341 12.7841316,43.1512607 C12.7841316,35.7139121 18.8686477,29.6653477 26.348668,29.6653477 C29.9573885,29.6653477 33.7372095,31.0944465 36.4577016,33.3941795 L36.8064397,33.6990363 L37.123749,33.9936955 L37.1234833,29.9338694 C37.1234833,29.4533915 37.4496977,29.0490724 37.8929073,28.927646 L38.0291708,28.8999116 L38.1711988,28.8903911 Z" id="Combined-Shape" fill="#444444"></path>
                        </g>
                    </g>
                    <g id="Group-3" transform="translate(0.000000, 28.000000)"></g>
                </g>
            </g>
        </g>
    </g>
</svg>