<?xml version="1.0" encoding="UTF-8"?>
<svg width="45px" height="44px" viewBox="0 0 45 44" version="1.1" xmlns="http://www.w3.org/2000/svg" xmlns:xlink="http://www.w3.org/1999/xlink">
    <title>A3249089-F454-41CE-9610-3492B88F76A2</title>
    <defs>
        <path d="M19.0603086,0.391283772 L33.0631238,4.14332681 C37.3589436,5.29438823 39.9082739,9.70995786 38.7572124,14.0057776 L35.0051694,28.0085928 C33.854108,32.3044126 29.4385384,34.8537429 25.1427186,33.7026814 L11.1399034,29.9506384 C6.84408365,28.799577 4.29475334,24.3840074 5.44581477,20.0881876 L9.19785781,6.08537239 C10.3489192,1.78955265 14.7644889,-0.759777657 19.0603086,0.391283772 Z" id="path-1"></path>
        <filter x="-21.1%" y="-18.1%" width="142.1%" height="142.1%" filterUnits="objectBoundingBox" id="filter-2">
            <feMorphology radius="0.634563061" operator="dilate" in="SourceAlpha" result="shadowSpreadOuter1"></feMorphology>
            <feOffset dx="0" dy="1" in="shadowSpreadOuter1" result="shadowOffsetOuter1"></feOffset>
            <feGaussianBlur stdDeviation="2" in="shadowOffsetOuter1" result="shadowBlurOuter1"></feGaussianBlur>
            <feComposite in="shadowBlurOuter1" in2="SourceAlpha" operator="out" result="shadowBlurOuter1"></feComposite>
            <feColorMatrix values="0 0 0 0 0   0 0 0 0 0   0 0 0 0 0  0 0 0 0.16 0" type="matrix" in="shadowBlurOuter1"></feColorMatrix>
        </filter>
    </defs>
    <g id="Costs-&amp;-Charges-Reporting" stroke="none" stroke-width="1" fill="none" fill-rule="evenodd">
        <g id="Special_CCR_feed_-04-B" transform="translate(-994.000000, -303.000000)">
            <g id="card-copy" transform="translate(940.000000, 160.000000)">
                <g id="Group" transform="translate(55.000000, 145.961586)">
                    <g id="VDR" transform="translate(0.000000, 1.000000)">
                        <g id="Rectangle">
                            <use fill="black" fill-opacity="1" filter="url(#filter-2)" xlink:href="#path-1"></use>
                            <use stroke="#EFEFEF" stroke-width="1.26912612" fill="#FFFFFF" fill-rule="evenodd" xlink:href="#path-1"></use>
                        </g>
                        <path d="M8.35090391,4.01275663 L23.0986961,4.01275663 C27.710773,4.01275663 31.4496,7.75158367 31.4496,12.3636605 L31.4496,27.1114527 C31.4496,31.7235296 27.710773,35.4623566 23.0986961,35.4623566 L8.35090391,35.4623566 C3.73882703,35.4623566 2.34117336e-15,31.7235296 0,27.1114527 L0,12.3636605 C1.21154032e-15,7.75158367 3.73882703,4.01275663 8.35090391,4.01275663 Z" id="Rectangle-Copy" stroke="#137E84" stroke-width="1.34330187" fill="#1BB3BC"></path>
                        <path d="M23.4399332,18.6054218 C24.7279774,18.6054218 25.6455405,19.3357788 25.8075428,20.48566 L25.8261283,20.6612498 L25.8323236,20.8417777 L25.8323236,22.3130552 C25.8323236,23.6911657 25.6147733,25.05165 25.1848596,26.354737 L25.0136975,26.8406264 L24.8349729,27.288612 L24.5677536,27.8160192 L25.4137468,27.9508064 L26.0803944,28.0636756 C26.5401691,28.1433455 26.8541133,28.5631628 26.7605138,29.0095452 C26.6689108,29.4464061 26.2243953,29.7211081 25.772974,29.6428856 C22.1444162,29.014128 19.0360238,28.7116259 16.0065575,28.7116259 C13.018926,28.7116259 9.96950923,29.0062742 6.33824376,29.6266611 C5.88657239,29.7038273 5.44273333,29.4280155 5.35235382,28.9908477 C5.26003015,28.544276 5.5750852,28.125307 6.03500303,28.0467319 L6.72412001,27.9317161 L7.5894624,27.7946784 L7.35990228,27.3738524 C6.84018165,26.194956 6.50246909,24.9250215 6.3592622,23.6184726 L6.31470148,23.1269068 L6.28852212,22.6325461 L6.28098545,22.1890324 L6.28098545,20.8485327 C6.28098545,19.6374689 7.06736617,18.7788686 8.29122704,18.6284617 L8.47804366,18.6112566 L8.71551102,18.6081181 L8.86115517,18.6295117 L9.49205451,18.7797619 L9.69243477,18.8206016 L9.89456395,18.8543893 C9.90821561,18.8560241 9.91848269,18.8568949 9.9249163,18.856944 L10.0051727,18.8480206 L10.2537983,18.8039 L10.5109082,18.7492738 L11.0498253,18.6214879 L11.196197,18.6054218 C11.7227402,18.6054218 12.1902853,18.7274481 12.5688834,18.9602993 L12.7256067,19.0668452 L12.759552,19.0954944 L12.7929807,19.0691114 C13.0433053,18.882199 13.3418163,18.749429 13.6802189,18.6749207 L13.887981,18.6372401 L14.104919,18.6137401 L14.3818801,18.6081242 L14.5296635,18.6298241 L14.8452948,18.707905 L15.2744568,18.8024383 L15.5178735,18.8458993 L15.5954393,18.8548123 L15.7179967,18.8372103 L16.129012,18.750275 L16.6399665,18.6232631 L16.794988,18.6054218 C17.5955988,18.6054218 18.2531252,18.8826743 18.6811078,19.3694483 L18.7920742,19.5073487 L18.875376,19.6312608 L18.9064843,19.5813983 C19.2095853,19.1120248 19.6988689,18.7879019 20.3246266,18.6625879 L20.5381989,18.6282534 L20.7236029,18.6112088 L20.9599657,18.6080893 L21.1052163,18.629304 L21.7533313,18.7814307 L22.0401178,18.8362474 L22.1908345,18.8560333 L22.2704269,18.8463548 L22.7569273,18.7491779 L23.2934378,18.6214817 L23.4399332,18.6054218 Z M23.5231776,20.3444928 L22.9986432,20.4680448 L22.9987964,23.0996643 C22.9987964,23.5397172 22.708107,23.9203994 22.3077384,23.9807905 L22.1959636,23.9891236 C21.8324674,23.9891236 21.5338828,23.7274231 21.4292142,23.3536329 L21.4016837,23.2250899 L21.3931309,23.0996643 L21.3924672,20.4736608 L21.078204,20.4029761 L20.9220272,20.3603306 C20.9020338,20.3539037 20.885673,20.3479094 20.8738665,20.3424861 C20.432528,20.3508391 20.2357941,20.4635114 20.1815826,20.6722018 L20.1686506,20.7453101 L20.1635183,20.8417777 L20.1635183,27.0409326 C20.1635183,27.0847078 20.1604929,27.1279375 20.1546209,27.1703372 L20.1299904,27.2824992 L20.2170937,27.2892881 C20.9448578,27.3499519 21.6884262,27.4272428 22.4535065,27.5213909 L22.8818304,27.5756544 L22.8904399,27.5437105 L22.9386133,27.4267496 L23.3998316,26.5147103 C23.8357534,25.4662664 24.1045088,24.3379113 24.1944274,23.1875801 L24.2197411,22.755289 L24.228409,22.3130552 L24.228409,20.8417777 C24.228409,20.5517807 24.0580463,20.3849472 23.6227724,20.3492571 L23.5231776,20.3444928 Z M11.2791744,20.3478624 L10.7198208,20.4781536 L10.7201782,23.0996643 C10.7201782,23.5397172 10.4294888,23.9203994 10.0291202,23.9807905 L9.91734545,23.9891236 C9.55384922,23.9891236 9.25526459,23.7274231 9.15059597,23.3536329 L9.12306547,23.2250899 L9.11451273,23.0996643 L9.1136448,20.4725376 L8.83024828,20.4066889 L8.67634402,20.3640895 C8.65669637,20.357678 8.64066749,20.3517035 8.62918321,20.3463057 C8.17923931,20.354965 7.96343456,20.4781562 7.90434994,20.6839728 L7.89035332,20.7555947 L7.88490007,20.8485327 L7.88490007,22.1890324 C7.88490007,23.4258476 8.08919898,24.6568047 8.47673859,25.786601 L8.63061423,26.2053465 L8.77300183,26.5527594 L9.23401062,27.3967777 C9.25332541,27.4321394 9.27015885,27.4686063 9.28450209,27.5059079 L9.300096,27.5576832 L9.87952118,27.4855282 C10.4836619,27.4134903 11.0776522,27.3519052 11.6642287,27.3005543 L11.9766816,27.27576 L11.9603406,27.2054704 L11.9497908,27.0697474 L11.9487739,20.8281809 L11.9459478,20.7688006 C11.9209073,20.5216963 11.7658645,20.3847015 11.3782886,20.3529812 L11.2791744,20.3478624 Z M16.9823193,20.344275 L16.8828192,20.3388768 L16.3199177,20.4768408 L16.1608278,20.5110591 L15.8928185,20.5599303 C16.1049171,20.647554 16.2716441,20.8267901 16.3479153,21.0612242 L16.3783041,21.1828725 L16.3872327,21.2972727 L16.3872327,22.2417818 C16.3872327,22.6851741 16.0277923,23.0446145 15.5844,23.0446145 C15.2336784,23.0446145 14.9302222,22.8182922 14.8199122,22.4748505 L14.7904959,22.356182 L14.7815673,22.2417818 L14.7815673,21.2972727 C14.7815673,20.9643086 14.9842634,20.6786868 15.2729932,20.5570697 L15.0123761,20.5111495 L14.5900505,20.419969 L14.4097415,20.3750189 C14.3580261,20.3608473 14.3171502,20.3478556 14.2944692,20.337148 C13.8478639,20.3456697 13.6416797,20.461457 13.5799389,20.6702932 L13.5645767,20.743332 L13.5568191,20.8280146 L13.5537055,27.0696603 L13.545792,27.1724256 L13.9888839,27.1491985 C14.3265495,27.1347865 14.6631807,27.1239878 14.9992891,27.1167921 L16.0065575,27.1060036 C16.7995285,27.1060036 17.5962561,27.1260164 18.4025758,27.1660094 L18.5709888,27.1757952 L18.5680263,27.1621657 L18.5596036,27.0409326 L18.5586336,23.973552 L18.5275286,23.9810619 L18.4163705,23.9891236 C18.0558974,23.9891236 17.7551232,23.7370221 17.648731,23.3716167 L17.620651,23.2458089 L17.6119809,23.1234329 L17.6124126,20.8564215 C17.6032239,20.5541986 17.4235828,20.3814599 16.9823193,20.344275 Z M15.5844,23.3279673 C15.9351216,23.3279673 16.2385778,23.5542896 16.3488878,23.8977313 L16.3783041,24.0163998 L16.3872327,24.1308 L16.3872327,25.0753091 C16.3872327,25.5187014 16.0277923,25.8781418 15.5844,25.8781418 C15.2336784,25.8781418 14.9302222,25.6518195 14.8199122,25.3083778 L14.7904959,25.1897093 L14.7815673,25.0753091 L14.7815673,24.1308 C14.7815673,23.6874077 15.1410077,23.3279673 15.5844,23.3279673 Z M9.9147351,11.9938582 C11.3688787,11.9938582 12.6106855,13.0170834 12.607788,14.3007684 L12.6008626,14.4625304 L12.3460088,16.3589469 C12.1541289,17.5264696 11.1609584,18.3220691 9.9147351,18.3220691 C8.8140174,18.3220691 7.90818901,17.7005919 7.57901737,16.7227192 L7.52414859,16.5352563 L7.48409942,16.3369877 L7.25605276,14.6462423 C7.0070103,13.2174324 8.31931392,11.9938582 9.9147351,11.9938582 Z M22.1964899,11.9938582 C23.727165,11.9938582 25.0032196,13.1220656 24.8811819,14.4559611 L24.6241934,16.3570435 C24.4351164,17.5256047 23.4433091,18.3220691 22.1964899,18.3220691 C21.0136268,18.3220691 20.0617133,17.6060101 19.7991278,16.5207822 L19.7618249,16.3365521 L19.5349431,14.6469839 C19.2844761,13.2181966 20.5996031,11.9938582 22.1964899,11.9938582 Z M15.5818938,11.0493491 C17.0354933,11.0493491 18.2776245,12.072818 18.2748416,13.3562985 L18.2679298,13.5180326 L18.0130913,15.4144359 C17.8212187,16.5819573 16.8280802,17.37756 15.5818938,17.37756 C14.4810065,17.37756 13.574581,16.7559181 13.2452701,15.7780017 L13.1903808,15.5905321 L13.1502942,15.3920405 L12.9234254,13.7024716 C12.6729449,12.2735245 13.9858106,11.0493491 15.5818938,11.0493491 Z M9.9147351,13.5898635 C9.37514089,13.5898635 8.93541714,13.9032921 8.87661128,14.2242702 L8.87000825,14.304495 L8.88006776,14.4089396 L9.10953034,16.108085 C9.17203543,16.4913782 9.46732927,16.7260637 9.9147351,16.7260637 C10.2785403,16.7260637 10.5447743,16.570167 10.6604704,16.3258176 L10.6966965,16.2301721 L10.7206928,16.1293959 L10.9570154,14.378853 C11.0226653,14.0043455 10.5399104,13.5898635 9.9147351,13.5898635 Z M22.1964899,13.5898635 C21.6134547,13.5898635 21.1580717,13.9490833 21.1521495,14.3229855 L21.1589079,14.4093744 L21.3871793,16.1071319 C21.4501192,16.4900916 21.7479172,16.7260637 22.1964899,16.7260637 C22.5982204,16.7260637 22.8787571,16.5366904 22.9738592,16.2339693 L22.9986039,16.1289685 L23.235726,14.3795922 C23.3012089,14.0039112 22.8201067,13.5898635 22.1964899,13.5898635 Z M15.5818938,12.6453544 C15.042046,12.6453544 14.6022534,12.9588322 14.5436595,13.2797161 L14.5371154,13.3599143 L14.5473346,13.4648648 L14.7757492,15.1635778 C14.8381959,15.5465269 15.1341656,15.7815547 15.5818938,15.7815547 C15.9456789,15.7815547 16.2118987,15.6256604 16.3275898,15.3813111 L16.3638145,15.2856655 L16.3878101,15.1848884 L16.6241241,13.4343459 C16.6897105,13.0601867 16.2065108,12.6453544 15.5818938,12.6453544 Z" id="🌈-Color" fill="#FFFFFF" fill-rule="nonzero"></path>
                    </g>
                </g>
            </g>
        </g>
    </g>
</svg>