<?xml version="1.0" encoding="UTF-8"?>
<svg width="94px" height="85px" viewBox="0 0 94 85" version="1.1" xmlns="http://www.w3.org/2000/svg" xmlns:xlink="http://www.w3.org/1999/xlink">
    <title>5B40B3D0-6C9F-48BF-AFC2-D24163F1A505</title>
    <defs>
        <polygon id="path-1" points="0 0 93.1004105 0 93.1004105 84.4800017 0 84.4800017"></polygon>
    </defs>
    <g id="Empty-dashboard" stroke="none" stroke-width="1" fill="none" fill-rule="evenodd">
        <g id="Empleado_Empty-dashboard_01" transform="translate(-949.000000, -517.000000)">
            <g id="03" transform="translate(933.000000, 488.000000)">
                <g id="svg" transform="translate(16.000000, 29.000000)">
                    <mask id="mask-2" fill="white">
                        <use xlink:href="#path-1"></use>
                    </mask>
                    <g id="Rectangle"></g>
                    <path d="M69.3994301,57.6123345 L64.3530704,66.3526181 L36.0591606,66.3526181 C32.1306506,66.3526181 29.6753225,62.0998221 31.6395172,58.6977361 L38.5589316,46.7124433 C41.7609681,41.1646969 48.279145,38.4450863 54.4752524,40.0719447 L63.017032,42.3144446 C69.6685753,44.0595535 72.8380053,51.6554422 69.3994301,57.6123345 Z" id="Shirt" fill="#EC0000" mask="url(#mask-2)" transform="translate(50.875258, 52.978698) scale(-1, 1) translate(-50.875258, -52.978698) "></path>
                    <polygon id="Rectangle" fill="#1BB3BC" mask="url(#mask-2)" transform="translate(46.507577, 68.101226) scale(-1, 1) translate(-46.507577, -68.101226) " points="7.47102444 65.8599198 82.9126383 65.8599198 91.2910726 70.3425321 1.72408578 70.3425321"></polygon>
                    <polygon id="Rectangle" fill="#137E84" mask="url(#mask-2)" transform="translate(46.507577, 71.376981) scale(-1, 1) translate(-46.507577, -71.376981) " points="1.72408578 70.3425321 91.2910726 70.3425321 90.9384449 72.4114301 2.04667623 72.4114301"></polygon>
                    <g id="Characters/Body-parts/Upper-body/Hands-&amp;-Arms/Hand-02-Copy-2" mask="url(#mask-2)" fill="#FFC4B8">
                        <g transform="translate(53.164491, 57.846780) scale(-1, 1) translate(-53.164491, -57.846780) translate(39.664491, 50.846780)" id="Skin-tone">
                            <path d="M22.2012208,0.372905789 C22.6858911,0.26007302 23.1954723,0.379002823 23.5801606,0.69473134 L23.5801606,0.69473134 L26.0961943,2.75985703 C26.4264324,3.03094924 26.4579284,3.52514773 26.1647556,3.83598357 C25.8984126,4.11836658 25.458785,4.1458785 25.159328,3.89891098 L25.159328,3.89891098 L23.3762077,2.42835903 L26.3430826,5.78202891 C26.6015986,6.07423492 26.5786821,6.51958187 26.2916052,6.78371141 C26.0119038,7.04110411 25.5798397,7.03508235 25.3074384,6.76997427 L25.3074384,6.76997427 L24.005,5.50218788 L23.856,5.66318788 L24.8561456,7.59743966 C24.9724402,7.82239482 24.9419466,8.09132178 24.7872269,8.28342415 L24.7133786,8.36069801 C24.4403,8.60205777 24.0202022,8.56272813 23.7966442,8.27485027 C23.5022916,7.89588259 23.0933742,7.37077903 22.7166362,6.89177316 L22.372,7.26218788 L22.5886937,8.35783768 C22.6285012,8.55927973 22.548631,8.76268122 22.3891149,8.88395614 L22.3159913,8.9306578 C22.1125653,9.03840971 21.8628923,9.00284367 21.6975475,8.8426648 L21.6975475,8.8426648 L21.281,8.43918788 L21.2235263,8.50179543 L20.3900288,9.13780642 C20.112698,9.34969717 19.8255835,9.5480766 19.5301905,9.7324178 C19.167064,9.95936296 18.7907672,10.1656083 18.4035577,10.3492721 L15.9839689,11.4986759 C11.9651186,13.3356897 7.50487196,13.984911 3.12929215,13.3695621 L0,12.9299735 C0.263746464,8.42084036 3.67605148,8.27857623 3.67605148,8.27857623 L4.51858013,8.37195118 C7.70393299,8.72610607 10.9276681,8.45584185 14.0095017,7.57670222 L15.6787922,7.10019265 L17.3501523,3.48600628 C17.7327709,2.65854089 18.4078099,2.00179245 19.2454467,1.64210507 L19.2454467,1.64210507 Z"></path>
                        </g>
                    </g>
                    <g id="Characters/Body-parts/Upper-body/Hands-&amp;-Arms/Hand-Holding-Tablet" mask="url(#mask-2)">
                        <g transform="translate(31.860637, 61.567332) scale(-1, 1) translate(-31.860637, -61.567332) translate(19.860637, 54.067332)" id="Group">
                            <g transform="translate(0.000000, 0.943287)">
                                <path d="M17.9270923,12.5304562 C17.8772454,12.5304562 17.827776,12.529701 17.7783067,12.5278128 L14.9234358,12.4235874 L16.6152112,10.2223913 L20.5689807,10.9153395 L20.1694499,11.8877327 L19.7804926,12.08561 C19.2057421,12.378272 18.5705711,12.5304562 17.9270923,12.5304562 Z" id="Shadow" fill="#F4A48D"></path>
                                <path d="M16.3278359,12.8676784 L23.0231879,1.27101168 C23.3392628,0.723601524 22.9442635,0.0393010604 22.3121135,0.0393010604 L7.51776485,0.0393010604 C7.22434757,0.0393010604 6.95328588,0.195790278 6.80661501,0.449858681 L0.11122532,12.0467142 C-0.204811907,12.5938978 0.190262949,13.2781605 0.822375164,13.2781605 L15.6167616,13.2781605 C15.9101789,13.2781605 16.1813161,13.1218223 16.3278359,12.8676784 Z" id="Tablet" fill="#DEEDF2"></path>
                                <path d="M15.8814791,10.0894661 L15.8814791,9.99845767 L15.419262,10.0056326 C14.9634644,10.0128076 14.5813045,9.66350126 14.5476956,9.20921427 L14.540143,9.1072546 C14.5084222,8.68242262 14.793154,8.29837452 15.2085453,8.20472267 L15.2032585,7.80670231 C15.1949507,7.18554132 15.6530139,6.65606851 16.2693035,6.57525603 L18.2964129,6.30940562 L18.2631816,6.19045266 C18.0721016,5.50845573 18.4603036,4.79877864 19.1373914,4.59183826 L21.1803612,3.96746743 C21.4930375,3.87192744 21.8291268,4.01440664 21.9775348,4.30548263 L22.1293414,4.60210976 C22.2977637,4.93208147 22.1686147,5.33629494 21.8397004,5.50694522 L21.1191854,5.88117499 L21.2834537,6.19838286 C21.5591225,6.73121656 21.5730947,7.3614784 21.3215942,7.90639621 L21.221145,8.12315493 C21.5289122,8.57517615 21.5632764,9.15936732 21.3110206,9.64424221 L21.2007531,9.85571413 L21.1486404,10.5788726 C21.1059684,11.1691058 20.7234308,11.6804147 20.1694499,11.8877327 L16.2594852,10.610971 C16.034041,10.5373334 15.8814791,10.3269944 15.8814791,10.0894661 Z" id="Skin-tone" fill="#FFC4B8"></path>
                            </g>
                        </g>
                    </g>
                    <g id="Characters/Body-parts/Head/Male/Model-A-00" mask="url(#mask-2)">
                        <g transform="translate(39.082278, 34.762856) scale(-1, 1) rotate(10.000000) translate(-39.082278, -34.762856) translate(30.582278, 21.262856)">
                            <path d="M2.05179197,12.1567337 C1.46016559,11.3942032 1.00794642,10.5033753 0.743696945,9.5124064 C0.519477173,8.6715918 0.448160548,7.82354245 0.513750463,7.00288587 C0.656364623,5.20508081 1.45333172,3.52696399 2.72158793,2.28045019 C3.61044963,1.40559984 4.73076584,0.742828641 6.02114624,0.399035171 C9.99601724,-0.661169678 14.0761452,1.70071628 15.1354528,5.67448011 C15.2151495,5.97188724 15.3395718,7.94660944 15.3578401,8.23870981 L15.4009431,8.94317146 L16.3062977,15.2037059 L15.3458712,15.1418193 C15.3218381,15.2123532 15.2964115,15.28262 15.2693624,15.3526194 C15.0836643,15.8414705 14.829322,16.3051431 14.5116805,16.7295495 L13.9164463,17.5318615 L13.5408505,18.0363465 L13.5046195,18.0840118 L13.4863132,18.1095529 C13.0798313,18.6559765 12.5883078,19.2615188 12.0434114,19.8319754 C11.356588,20.5508493 10.4186484,20.8584499 9.51829512,20.7701441 C9.43621228,21.0508865 9.35926439,21.3595943 9.29882851,21.6859404 C9.21569578,22.132471 9.19433515,22.5881453 9.215314,23.041548 C9.215314,23.041548 9.19263623,23.7236182 9.17158102,23.7360643 C8.52954052,25.4393213 6.88505857,26.6508449 4.95983422,26.6508449 C2.69438606,26.6508449 0.817666945,24.9732626 0.506038494,22.7928943 C0.49546317,22.7873966 0.489774639,22.7823953 0.490274594,22.778043 C0.754596783,20.7848999 0.632579689,21.8994894 1.28158769,19.5959395 C1.5572715,18.6151832 2.04612252,17.8918234 2.36109156,15.1333628 C2.41524714,14.654419 2.45527684,13.125712 2.48160062,12.8221773 C2.4830132,12.8061235 2.48392948,12.7846483 2.48438761,12.7583245 L2.05179197,12.1567337 Z" id="Base-color" fill="#FFC4B8"></path>
                            <path d="M5.12317907,16.4292218 L7.36155899,19.5440746 C7.90048055,20.27549 8.69149186,20.6879467 9.51424824,20.7697241 C9.51583263,20.7705258 9.51672982,20.7706213 9.51695888,20.7699913 C9.3247896,21.4250697 9.26034502,21.9226635 9.26034502,21.9226635 C7.74753922,21.2814629 6.75208437,19.9961029 5.12317907,16.4292218 Z M15.1411223,15.1335155 L14.3289221,15.0797417 C14.0677078,14.8539948 13.9128958,14.5081398 13.9495085,14.1287261 L14.2225389,11.2528107 L15.1411223,15.1335155 Z" id="Shadows" fill="#F4A48D"></path>
                        </g>
                    </g>
                    <g id="Characters/Body-parts/Hair/Male/Model-A-04" mask="url(#mask-2)" fill="#420716">
                        <g transform="translate(37.844252, 26.278665) scale(-1, 1) translate(-37.844252, -26.278665) translate(28.844252, 19.778665)" id="Hair-color">
                            <path d="M2.77589279,9.27902102 C2.25580837,9.47080755 1.94952644,10.3191361 2.08112278,11.2770569 C2.09918426,11.4085599 2.12462296,11.5358597 2.15653874,11.6577501 C1.87174272,11.8448665 1.42854188,12.3160822 1.42854188,12.3160822 L1.42903109,12.3169774 C0.921196387,11.4658662 0.572451393,10.5025553 0.428605335,9.46154513 C0.306147352,8.57546643 0.341898508,7.70199706 0.515273025,6.87343875 C0.893252955,5.05853022 1.92858843,3.44893213 3.39278124,2.33954353 C4.41933058,1.56103341 5.65676673,1.02840546 7.02793217,0.842242535 C9.55293829,0.499260646 11.9591065,1.40771704 13.6098433,3.0885151 L15.9414957,3.13735685 C16.4097439,3.14722249 16.6334479,3.71248295 16.2968548,4.03534438 L16.5353915,4.23197617 C17.0521102,4.65765822 17.2392607,5.36173819 17.0012524,5.98477201 L15.6083075,9.55553143 C15.5923985,9.41620599 15.5656292,9.27902102 15.5285278,9.14516351 L15.5284495,9.14516351 C15.4577299,8.88972704 15.3494198,8.64627722 15.207374,8.42273383 L15.2071979,8.42248086 L15.1913672,8.3978654 L15.1753995,8.37361966 L15.1750277,8.37305535 L15.1589035,8.34915987 L15.1583752,8.34838152 L15.1419574,8.32460279 L15.1256375,8.30152458 L15.1243656,8.29973436 L15.10785,8.27692858 L15.1072042,8.27603347 L15.090082,8.25289688 L15.0731947,8.23061649 L15.071277,8.2281063 L15.054233,8.20613724 L15.0538221,8.20561185 L15.0366803,8.1839736 L15.035291,8.18224176 L15.0181884,8.16112889 L15.015801,8.15822952 L14.9982288,8.13701937 L14.9805,8.11614001 L14.9781322,8.11337685 L14.9606382,8.09317855 L14.9580552,8.09025972 L14.939935,8.06980846 L14.9216779,8.04966854 L14.9186252,8.04634107 L14.900642,8.02690167 L14.8980981,8.02421635 L14.8804085,8.00553584 L14.8789017,8.00395967 L14.8603706,7.98483161 L14.8568483,7.98125118 L14.8382194,7.962415 L14.8360668,7.96029399 L14.8181815,7.94260588 L14.8155006,7.93997894 L14.7965782,7.92172652 L14.7928211,7.91812664 L14.7734289,7.89979639 L14.7722157,7.89866777 L14.7533128,7.88119372 L14.7498297,7.87802192 L14.7304375,7.86047003 L14.7266413,7.85708419 L14.7066426,7.83941554 L14.7063491,7.83916258 L14.6859785,7.82155231 L14.6819475,7.81810809 L14.6619487,7.80119834 L14.6583678,7.79822113 L14.6389756,7.78220649 L14.636921,7.78053303 L14.6162569,7.76381787 L14.6118932,7.76033473 L14.5911705,7.74396983 L14.5881569,7.74163476 L14.5685104,7.72647631 L14.5653013,7.72404395 L14.5442067,7.7081266 L14.539706,7.70476022 L14.5181418,7.68890125 L14.5162046,7.68748075 L14.4955209,7.67261418 L14.491529,7.66977319 L14.4699257,7.65457582 L14.4654837,7.65150132 L14.4429215,7.63603152 L14.4020044,7.60843886 L14.3959382,7.6043525 L14.3567822,7.578336 L14.3493854,7.57347128 L14.3100337,7.54766883 L14.3041241,7.5438549 L14.2632265,7.51742976 L14.2624829,7.51694329 L14.2211744,7.49065437 L14.2148147,7.48660693 L14.1751303,7.4617385 L14.1676552,7.45704892 L14.1276382,7.4323167 L14.1219047,7.42881411 L14.0808506,7.40379001 L14.0794025,7.40289491 L14.0377222,7.37787081 L14.0310886,7.37392066 L13.9908954,7.35014193 L13.9833421,7.34570531 L13.9426989,7.32202388 L13.9372002,7.31883263 L13.8958917,7.29513173 L13.8938174,7.29392528 L13.8517457,7.2701271 L13.8448969,7.2662937 L13.8041949,7.24360467 L13.796622,7.23942101 L13.7553135,7.21679036 L13.7500692,7.2139299 L13.7084672,7.19145492 L13.7057863,7.19001496 L13.6633624,7.16746214 L13.6563178,7.1637455 L13.6151071,7.14216562 L13.6075342,7.13825439 L13.56558,7.1166356 L13.5606683,7.11414486 L13.5186358,7.09283741 L13.5154853,7.09122233 L13.47267,7.06987595 L13.4654689,7.06631498 L13.4237299,7.0458248 L13.4162352,7.042186 L13.3735765,7.02161798 L13.3691149,7.0194775 L13.3265345,6.99925975 L13.322973,6.99756683 L13.2797272,6.97738799 L13.2724674,6.9740216 L13.2301805,6.95462112 L13.2228033,6.9512742 L13.1794205,6.93171804 L13.1755069,6.92994728 L13.1322611,6.9107803 L13.1284061,6.90906793 L13.0847103,6.89003716 L13.0774113,6.88688482 L13.0345178,6.86853512 L13.0273754,6.86551899 L12.9832294,6.84693578 L12.9800007,6.84561258 L12.9359134,6.82739908 L12.9318433,6.82574508 L12.8876386,6.80782347 L12.8804375,6.8049241 L12.8368982,6.78760571 L12.830108,6.78493985 L12.7850815,6.7673685 L12.7827333,6.76645393 L12.7375699,6.749155 L12.7334214,6.74757884 L12.6886493,6.73076638 L12.6816634,6.72815889 L12.6374001,6.71187183 L12.6310404,6.70955622 L12.5850942,6.69297727 L12.5838027,6.69251026 L12.5373477,6.67608698 L12.5332775,6.67464702 L12.4878597,6.6589048 L12.4811674,6.65662812 L12.4361213,6.64133345 L12.4303682,6.63940703 L12.3833653,6.62378156 L12.3353645,6.60819501 L12.33149,6.60693019 L12.2853285,6.5922582 L12.2791058,6.59031232 L12.23314,6.57602951 L12.2281893,6.57451172 L12.1803645,6.5599565 L12.1316788,6.54549856 L12.1281761,6.5444867 L12.0811732,6.53084604 L12.0755571,6.52925041 L12.0285933,6.51596001 L12.0246014,6.51485085 L11.975857,6.50138532 L11.926408,6.48807546 L11.9234728,6.48729711 L11.8754915,6.47470722 L11.8706973,6.47346186 L11.8225399,6.4611444 L11.8197808,6.46046334 L11.7699405,6.44806804 L11.7196893,6.43590625 L11.7174976,6.43538087 L11.6683814,6.42384176 L11.6645851,6.42296611 L11.6151166,6.41166051 L11.6138643,6.41136863 L11.5627716,6.40004357 L11.511542,6.38904932 L11.5103288,6.38877689 L11.4599601,6.37828857 L11.4573967,6.37776318 C11.4057561,6.36717756 11.3539982,6.35707841 11.3021228,6.34748519 C11.1393347,8.15552474 9.71194973,9.64136447 7.85161768,9.83264508 C5.65488818,10.058543 3.77512488,9.6387959 3.70518803,9.62291747 L3.69865224,9.61540635 L3.69415155,9.61026921 L3.68802669,9.60338077 L3.6830955,9.59787392 L3.6773033,9.59151087 L3.67196117,9.58565375 L3.6665212,9.57977718 L3.66076815,9.57360872 L3.65564127,9.56817969 L3.64953598,9.56175827 L3.64468306,9.5567768 L3.63824511,9.55012187 L3.63362701,9.54549066 L3.6268564,9.53864114 L3.62253182,9.53437965 L3.61542856,9.52737446 L3.6113388,9.52344377 L3.60396157,9.51632183 L3.6000675,9.5126441 L3.59241632,9.50542487 L3.58873749,9.50203902 L3.58081236,9.49474195 L3.57730964,9.49158962 L3.56916926,9.48425363 L3.56582309,9.48131534 L3.55746746,9.47397935 L3.55427784,9.47121619 L3.54570695,9.4638802 L3.54263474,9.46131163 L3.53390731,9.4539951 L3.53095251,9.4515822 L3.52204896,9.44432404 L3.51917243,9.44204736 L3.51013191,9.43482812 L3.50735322,9.43268764 L3.49819529,9.42558516 L3.49543617,9.42350306 L3.4861804,9.41649787 L3.48349955,9.41451307 L3.47414594,9.40764409 L3.47148466,9.40575658 L3.46205277,9.39900435 L3.45939149,9.39715576 L3.44992047,9.39055921 L3.44725919,9.38876899 L3.43772946,9.38232811 L3.43506818,9.38057681 L3.42549932,9.37433052 L3.42281847,9.37261814 L3.41323004,9.36652751 L3.41051005,9.36483459 L3.40094119,9.35895802 L3.39814293,9.35728456 L3.38859364,9.35160257 L3.38573667,9.34996802 L3.37620695,9.34446117 L3.37329128,9.34282662 L3.36380069,9.33751435 L3.36078718,9.33591873 L3.35133573,9.33083996 L3.34826351,9.32922488 L3.33885119,9.3243407 L3.33566157,9.32276454 L3.3263471,9.31811387 L3.32304006,9.31649878 L3.31376472,9.31208162 L3.31035985,9.31048599 L3.30120192,9.30626342 L3.2976405,9.30470671 L3.28856084,9.30069819 L3.28488202,9.29914148 L3.27593934,9.29536646 L3.27212353,9.29382921 L3.26325912,9.29024878 L3.25930634,9.28873099 L3.25053977,9.2853646 L3.24645001,9.28386627 L3.23780086,9.2807334 L3.23357412,9.27925452 L3.22506194,9.27631623 L3.22067865,9.27487628 L3.21228388,9.27213258 L3.20776362,9.270751 L3.19948626,9.26820189 L3.19478989,9.26685923 L3.18666907,9.26452416 L3.18183572,9.26320096 L3.17381274,9.26104103 L3.16882284,9.25981512 L3.16093685,9.25784977 L3.15580997,9.25666278 L3.14804138,9.25487257 L3.14277753,9.25376341 L3.13514592,9.25214833 L3.12970595,9.25109755 L3.12223089,9.24965759 L3.11665394,9.24868465 L3.10927672,9.24743928 L3.10358237,9.24656364 L3.09634212,9.24545448 L3.09047165,9.24467613 L3.08336838,9.24370318 L3.07740007,9.24302212 L3.07039465,9.24222431 L3.06426979,9.24166 L3.05742091,9.2409984 L3.05113951,9.24053139 L3.04440804,9.24002546 L3.03800923,9.23965574 L3.0313756,9.23928602 L3.02485938,9.23907197 L3.01836272,9.23883847 L3.01170953,9.23874117 L3.00533028,9.23862442 L2.99854011,9.23866334 L2.99231741,9.2386828 L2.98535112,9.23885793 L2.9792654,9.23899414 L2.972123,9.23930548 L2.96621339,9.2395779 L2.95883617,9.24004492 L2.95318095,9.24041463 L2.94537323,9.24107624 L2.94012894,9.24152379 L2.93144065,9.24243836 L2.92705736,9.24288591 L2.91402492,9.24452045 L2.90150126,9.24636905 L2.8982725,9.24689444 L2.88670767,9.24884032 L2.8857684,9.24899599 L2.87345998,9.25135052 L2.87028993,9.25201212 L2.85948827,9.25432772 L2.85784453,9.25469744 L2.84581007,9.25755789 L2.84262045,9.25835571 L2.83254281,9.26098265 L2.83021419,9.26160533 L2.81853196,9.2649328 L2.8152445,9.26590574 L2.80591045,9.2687662 L2.80291651,9.26970022 L2.79168435,9.27341686 L2.78804466,9.27468169 L2.77966946,9.2776589 L2.77589279,9.27902102 Z"></path>
                        </g>
                    </g>
                    <path d="M50.03125,48.6033204 C50.03125,48.6033204 47.9861987,39.9688855 45.5503591,38.8029665 L43.1977132,40.0937704 L44.1554405,46.4508371 L50.03125,48.6033204 Z" id="Shirt" fill="#EC0000" mask="url(#mask-2)" transform="translate(46.614482, 43.703143) scale(-1, 1) translate(-46.614482, -43.703143) "></path>
                    <g id="g.-illustration/Nature/Plants/Plant-Pot-04" mask="url(#mask-2)">
                        <g transform="translate(65.515101, 47.124897)" id="Group-2">
                            <g transform="translate(0.055171, 0.000000)">
                                <g id="Group" transform="translate(1.034449, 11.269480)">
                                    <path d="M4.84179609,0.595905661 L0.0887488516,2.19220231 L0.0887488516,8.17359876 C0.0887488516,9.38426226 1.7000212,10.3656597 3.68734744,10.3656597 C5.67493289,10.3656597 7.28620524,9.38426226 7.28620524,8.17359876 L7.28620524,2.19220231 L4.84179609,0.595905661 Z" id="Primary-color-pot" fill="#FFCC33"></path>
                                    <path d="M7.28620524,2.19229657 C7.28620524,3.40320751 5.67518032,4.38460493 3.68734744,4.38460493 C1.7000212,4.38460493 0.0887488516,3.40320751 0.0887488516,2.19229657 C0.0887488516,0.981633068 1.7000212,0 3.68734744,0 C5.67518032,0 7.28620524,0.981633068 7.28620524,2.19229657" id="Soil" fill="#3B101C"></path>
                                    <path d="M0.623844446,3.34245636 C1.25765477,3.96767716 2.39246181,4.3844871 3.68732387,4.3844871 C4.98243336,4.3844871 6.1172404,3.96767716 6.75105073,3.34245636 C6.79498809,3.21529839 6.81830589,3.08373374 6.81830589,2.94871677 C6.81830589,1.89541007 5.41642235,1.04140627 3.68732387,1.04140627 C1.95847282,1.04140627 0.556836725,1.89541007 0.556836725,2.94871677 C0.556836725,3.08373374 0.579907082,3.21529839 0.623844446,3.34245636" id="Secondary-color-pot" fill="#9C1552"></path>
                                    <path d="M3.68745348,7.0695679e-05 C1.69986803,7.0695679e-05 0.0888431125,0.981715547 0.0888431125,2.19237905 C0.0888431125,3.40304255 1.69986803,4.38442819 3.68745348,4.38442819 C5.67502715,4.38442819 7.2862995,3.40304255 7.2862995,2.19237905 C7.2862995,0.981715547 5.67502715,7.0695679e-05 3.68745348,7.0695679e-05 M3.68745348,0.252171487 C5.50148104,0.252171487 7.03395127,1.14053339 7.03395127,2.19237905 C7.03395127,3.24397728 5.50148104,4.13233918 3.68745348,4.13233918 C1.87341414,4.13233918 0.340943904,3.24397728 0.340943904,2.19237905 C0.340943904,1.14053339 1.87341414,0.252171487 3.68745348,0.252171487" id="Tertiary" fill="#D39E00"></path>
                                </g>
                                <g id="Group" transform="translate(0.341472, 0.000000)">
                                    <path d="M7.68924791,3.38932018 C7.3858624,4.03414199 7.38189828,4.77391272 7.3836311,5.48626695 C7.38536391,6.28716104 7.38709673,7.08781775 7.38907879,7.8882371 C7.39104898,8.80010273 7.39129822,9.72561728 7.14329166,10.6029334 C6.89479848,11.4802139 6.36071084,12.3184347 5.54424513,12.7237005 C5.1394779,12.9244818 4.63110955,13.0026129 4.24858411,12.7625227 C4.07896975,12.6562036 3.94940008,12.4967132 3.84159746,12.3278347 C2.92128137,10.8855488 3.77260521,8.94727355 4.43428045,7.56208758 C5.20080303,5.95804436 6.31422148,4.51778802 7.68924791,3.38932018" id="Back-leave" fill="#1BB3BC"></path>
                                    <path d="M0.807303142,9.97331525 C0.580078522,6.98242446 0.733373544,3.93515775 -7.84021571e-16,1.02687251 C1.99837793,3.45780208 2.97234015,6.70481757 2.64200101,9.83445247 C3.30441211,7.76729592 3.97375448,5.65741236 3.96138738,3.48664281 C3.95570232,2.44896987 4.59388958,1.0976302e-14 4.59388958,1.0976302e-14 C4.59388958,1.0976302e-14 4.96973298,2.34310183 5.31515713,3.48201405 C5.55104584,4.25917092 5.59876954,5.07929216 5.64524703,5.8900372 C5.71275571,7.07321936 5.78025252,8.25616414 5.8477612,9.43922761 C6.83187109,6.46471551 9.46697643,2.36482139 9.46697643,2.36482139 C9.46697643,2.36482139 8.49718009,10.1813721 7.98262819,11.9695212 C7.39908403,13.9980692 5.50035499,15.3775463 3.32568067,14.8978644 C1.34708772,14.4614436 0.932172833,11.6169284 0.807303142,9.97331525" id="Primary-color-leaves" fill="#137E84"></path>
                                    <path d="M2.35149294,12.9212179 C1.93757502,11.7842996 2.32230802,10.5348787 2.58045038,9.35270541 C2.88829849,7.94354484 3.01068764,6.46934426 2.69666785,5.06172661 C3.73715365,7.25943792 4.65350563,9.51589886 5.43881623,11.8171876 C5.64206624,12.4118526 5.83715066,13.0591906 5.64403643,13.6573213 C5.46230421,14.2213297 4.44258848,15.218044 3.76632671,15.0511357 C3.23447037,14.9198451 2.53297592,13.419949 2.35149294,12.9212179" id="Front-leave" fill="#63BA68"></path>
                                </g>
                            </g>
                        </g>
                    </g>
                </g>
            </g>
        </g>
    </g>
</svg>