<svg width="159" height="137" viewBox="0 0 159 137" fill="none" xmlns="http://www.w3.org/2000/svg">
<path fill-rule="evenodd" clip-rule="evenodd" d="M81.6941 136.391C42.5448 136.391 10.8081 133.659 10.8081 130.289C10.8081 126.919 42.5448 124.188 81.6941 124.188C120.843 124.188 152.58 126.919 152.58 130.289C152.58 133.659 120.843 136.391 81.6941 136.391Z" fill="#9BC3D3"/>
<path fill-rule="evenodd" clip-rule="evenodd" d="M60.5174 18.1591C52.4534 26.7365 41.7697 32.3347 30.1915 34.4388C23.164 35.7159 16.4396 39.0726 11.0061 44.509C-3.22567 58.7477 -3.24182 81.7097 10.9707 95.968C17.2404 102.258 25.2349 105.772 33.4325 106.513C40.4505 107.147 47.0443 110.211 51.9134 115.309C51.9761 115.375 52.0393 115.44 52.1026 115.505C60.4088 123.985 73.8453 124.069 82.2521 115.69C82.3004 115.642 82.3482 115.593 82.3955 115.545C84.6412 113.264 87.8827 112.268 91.0234 112.879C108.93 116.358 128.188 111.159 142.057 97.2782C164.218 75.099 164.218 39.0742 142.057 16.8947C119.878 -5.30204 83.9209 -5.3019 61.7426 16.8951C61.3263 17.3116 60.9179 17.733 60.5174 18.1591Z" fill="#DEEDF2"/>
<path fill-rule="evenodd" clip-rule="evenodd" d="M88.2966 125.247C86.6728 122.808 86.5247 119.52 86.5247 119.52H75.7044C75.7044 119.52 75.5568 122.808 73.9325 125.247C72.3078 127.686 68.9116 129.21 68.9116 129.21H93.3179C93.3179 129.21 89.9213 127.686 88.2966 125.247" fill="#34466B"/>
<path fill-rule="evenodd" clip-rule="evenodd" d="M131.376 121.674H30.4939C28.5193 121.674 26.9185 120.073 26.9185 118.099V51.6696C26.9185 49.6956 28.5193 48.0957 30.4939 48.0957H131.376C133.351 48.0957 134.952 49.6956 134.952 51.6696V118.099C134.952 120.073 133.351 121.674 131.376 121.674Z" fill="#34466B"/>
<path fill-rule="evenodd" clip-rule="evenodd" d="M26.9185 111.266V118.029C26.9185 120.042 28.5193 121.674 30.4939 121.674H131.376C133.351 121.674 134.952 120.042 134.952 118.029V111.266H26.9185" fill="#CEDEE7"/>
<path fill-rule="evenodd" clip-rule="evenodd" d="M93.9936 130.287H68.2361C68.0147 130.287 67.835 130.1 67.835 129.87V127.833C67.835 127.603 68.0147 127.416 68.2361 127.416H93.9936C94.2151 127.416 94.3948 127.603 94.3948 127.833V129.87C94.3948 130.1 94.2151 130.287 93.9936 130.287" fill="#CEDEE7"/>
<path fill-rule="evenodd" clip-rule="evenodd" d="M32.4317 107.677C31.5672 107.677 30.8667 106.976 30.8667 106.112V53.2501C30.8667 52.3861 31.5672 51.6855 32.4317 51.6855H129.08C129.944 51.6855 130.645 52.3861 130.645 53.2501V106.112C130.645 106.976 129.944 107.677 129.08 107.677H32.4317Z" fill="#CEDEE7"/>
<path fill-rule="evenodd" clip-rule="evenodd" d="M127.774 58.782C67.4558 59.738 36.8719 59.738 36.0224 58.782C34.748 57.3482 34.8146 61.5766 34.8146 68.7383C34.8146 73.5127 34.8146 85.6543 34.8146 105.163H127.741V68.7383C127.774 58.782 127.774 58.782 127.774 58.782Z" fill="#EFF6F9"/>
<path fill-rule="evenodd" clip-rule="evenodd" d="M127.774 57.4996C127.774 56.6669 127.074 55.9922 126.21 55.9922H36.378C35.5143 55.9922 34.8145 56.6669 34.8145 57.4996V61.7349H127.774V57.4996" fill="#DEEDF2"/>
<path fill-rule="evenodd" clip-rule="evenodd" d="M81.3967 119.161H80.8333C79.4032 119.161 78.2437 118.001 78.2437 116.571V116.008C78.2437 114.577 79.4032 113.418 80.8333 113.418H81.3967C82.8267 113.418 83.9863 114.577 83.9863 116.008V116.571C83.9863 118.001 82.8267 119.161 81.3967 119.161" fill="#34466B"/>
<path fill-rule="evenodd" clip-rule="evenodd" d="M116.289 58.504C116.289 59.0988 115.807 59.5812 115.212 59.5812C114.617 59.5812 114.135 59.0988 114.135 58.504C114.135 57.9097 114.617 57.4277 115.212 57.4277C115.807 57.4277 116.289 57.9097 116.289 58.504" fill="#34466B"/>
<path fill-rule="evenodd" clip-rule="evenodd" d="M120.596 58.504C120.596 59.0988 120.114 59.5812 119.519 59.5812C118.924 59.5812 118.442 59.0988 118.442 58.504C118.442 57.9097 118.924 57.4277 119.519 57.4277C120.114 57.4277 120.596 57.9097 120.596 58.504" fill="#34466B"/>
<path fill-rule="evenodd" clip-rule="evenodd" d="M125.261 58.504C125.261 59.0988 124.779 59.5812 124.184 59.5812C123.59 59.5812 123.108 59.0988 123.108 58.504C123.108 57.9097 123.59 57.4277 124.184 57.4277C124.779 57.4277 125.261 57.9097 125.261 58.504" fill="#34466B"/>
<path fill-rule="evenodd" clip-rule="evenodd" d="M43 92H66V91H43V92Z" fill="#34466B"/>
<path fill-rule="evenodd" clip-rule="evenodd" d="M69 92H92V91H69V92Z" fill="#34466B"/>
<path fill-rule="evenodd" clip-rule="evenodd" d="M97 92H120V91H97V92Z" fill="#34466B"/>
<path fill-rule="evenodd" clip-rule="evenodd" d="M43 97H66V96H43V97Z" fill="#34466B"/>
<path fill-rule="evenodd" clip-rule="evenodd" d="M69 97H92V96H69V97Z" fill="#34466B"/>
<rect x="43" y="68" width="24" height="14" fill="#34466B"/>
<rect x="70" y="68" width="24" height="14" fill="#34466B"/>
<rect x="97" y="68" width="24" height="14" fill="#34466B"/>
<path fill-rule="evenodd" clip-rule="evenodd" d="M62.3878 17.4935C61.7984 12.7063 57.7184 9 52.7733 9C47.4233 9 43.0861 13.3383 43.0861 18.6901C43.0861 19.5681 43.2027 20.4189 43.4217 21.2276C43.3394 21.2287 43.2579 21.2316 43.1768 21.2364L43.0856 21.2288V21.2424C40.3109 21.4509 38.1238 23.7694 38.1238 26.5985C38.1238 29.4277 40.3109 31.7461 43.0856 31.9546V31.9707H78.3557V31.9701H78.3558C80.5177 31.9701 82.2705 30.2166 82.2705 28.0538C82.2705 25.891 80.5177 24.1377 78.3558 24.1377H78.3557V24.1376L69.4199 23.4006C69.4607 23.1336 69.4819 22.8602 69.4819 22.5819C69.4819 19.6154 67.0779 17.2105 64.1123 17.2105C63.5091 17.2105 62.929 17.31 62.3878 17.4935Z" fill="#CEDEE7"/>
<path fill-rule="evenodd" clip-rule="evenodd" d="M31.7344 40.7686C31.0364 40.813 30.417 41.2516 29.7408 41.4415C29.3256 41.5583 28.881 41.5839 28.5005 41.7968C28.3782 41.865 28.2489 42.0059 28.3078 42.1404C28.3281 42.1875 28.3691 42.2206 28.4097 42.2497C28.6865 42.4441 29.0278 42.5096 29.3585 42.4976C29.6889 42.4859 30.0134 42.4011 30.3347 42.3171C30.7187 42.2169 31.1055 42.1148 31.4642 41.9362C31.5753 41.8804 31.6867 41.8145 31.7596 41.7086C31.8577 41.5658 31.8682 41.3703 31.8265 41.1985C31.7852 41.0263 31.6972 40.8722 31.6103 40.7207" fill="#FFC4B8"/>
<path fill-rule="evenodd" clip-rule="evenodd" d="M27.9359 60.672C27.9441 61.0619 27.9209 61.4523 27.866 61.8386C27.8406 62.0169 27.807 62.1984 27.7169 62.3562C27.6261 62.5143 27.4842 62.639 27.3422 62.7576C26.7193 63.2784 26.0505 63.7485 25.3455 64.1608C25.1015 64.3035 24.8515 64.44 24.5817 64.5303C24.5399 64.5443 24.4932 64.5576 24.4517 64.5421C24.3553 64.5065 24.3736 64.371 24.4121 64.279C24.9236 63.0689 25.9687 62.0255 26.0333 60.7209C26.0386 60.6134 26.0397 60.4977 26.1062 60.411C26.2059 60.2809 26.4025 60.2759 26.571 60.2835C27.0317 60.3039 27.5174 60.3313 27.9052 60.5721" fill="#FFC4B8"/>
<path fill-rule="evenodd" clip-rule="evenodd" d="M20.0438 59.9862C19.6962 60.8828 19.2603 61.7434 18.7447 62.5511C18.6977 62.6248 18.6466 62.7014 18.5691 62.7403C18.4971 62.7759 18.4127 62.7733 18.3323 62.7688C17.546 62.7225 16.7668 62.54 16.0384 62.2322C15.5728 62.0352 15.1057 61.7667 14.8494 61.3227C14.777 61.1975 14.735 61.0124 14.8498 60.9268C14.8921 60.8954 14.9461 60.8872 14.9975 60.8809C15.4569 60.8272 15.9214 60.8939 16.3834 60.8776C16.8454 60.8613 17.3345 60.7443 17.651 60.3995C17.9529 60.071 18.0442 59.5966 18.2791 59.2148C18.8903 59.4715 19.5021 59.7281 20.1133 59.9844" fill="#FFC4B8"/>
<path fill-rule="evenodd" clip-rule="evenodd" d="M40.163 42.1445C40.163 42.1445 25.2798 42.2185 23.5026 43.4754C21.7256 44.7319 16.9124 59.6635 16.9124 59.6635L20.0228 60.994C20.0228 60.994 24.3912 51.8281 25.8721 49.3147C27.3531 46.8016 31.9437 47.245 33.4991 47.171C35.0541 47.0971 40.3853 47.0231 40.3853 47.0231L40.163 42.1445Z" fill="#9BC3D3"/>
<path fill-rule="evenodd" clip-rule="evenodd" d="M41.8592 42.5193C41.8592 42.5193 29.3407 42.5193 27.5156 43.4684C25.6908 44.4178 25.18 47.3384 25.1069 50.2597C25.0339 53.1803 25.2526 60.9941 25.2526 60.9941H27.8804C27.8804 60.9941 29.3407 53.1803 29.7785 51.2088C30.2164 49.2372 30.2164 48.6531 30.2164 48.6531C30.2164 48.6531 39.5596 50.6247 42.4798 49.8944C45.3994 49.1642 46.7866 47.1926 46.7866 44.8558C46.7866 42.5193 45.1806 41.7891 45.1806 41.7891L41.8592 42.5193Z" fill="#CEDEE7"/>
<path fill-rule="evenodd" clip-rule="evenodd" d="M38.817 16.8952C39.564 16.3645 40.6427 16.4521 41.3976 16.971C42.1527 17.4907 42.6055 18.3691 42.7716 19.27C42.8797 19.8558 42.8804 20.4664 43.0805 21.0279C43.4595 22.0897 44.4634 22.7754 45.2043 23.6258C46.0612 24.6101 46.5941 25.9388 46.3862 27.227C46.1678 28.5825 45.1843 29.6938 44.0973 30.5339C42.6678 31.639 40.9484 32.4262 39.1441 32.5306C38.108 32.5907 37.0156 32.4055 36.191 31.7753C35.3667 31.1455 34.8882 30.001 35.2454 29.0271C35.4755 28.3994 36.0013 27.9245 36.2951 27.3236C36.6903 26.5157 36.628 25.5539 36.3889 24.687C36.1498 23.8201 35.7475 23.0068 35.473 22.1505C35.2536 21.466 35.1165 20.755 35.0664 20.0379C35.0159 19.3258 35.0664 18.5615 35.4834 17.9818C35.8474 17.4757 36.449 17.181 37.0611 17.0604C37.6735 16.9399 38.3037 16.9743 38.9272 17.0093" fill="black"/>
<path fill-rule="evenodd" clip-rule="evenodd" d="M37.8158 27.5625C37.8158 27.5625 36.6144 28.9205 36.47 30.9946C36.3261 33.0686 36.3018 35.4145 34.8599 37.6862C33.4183 39.9579 31.3515 40.8469 31.1594 40.9951C30.967 41.1433 32.1333 41.7885 32.1333 41.7885C32.1333 41.7885 34.0911 41.5876 35.2925 40.9951C36.4943 40.4022 37.5995 40.5014 37.984 38.7234C38.3686 36.9454 38.2246 29.3899 38.2246 29.3899L37.8158 27.5625Z" fill="#EC0000"/>
<path fill-rule="evenodd" clip-rule="evenodd" d="M36.5033 40.0098C34.7239 40.3663 33.0262 41.1043 31.5669 42.1561C31.5332 42.1802 31.4973 42.2095 31.4941 42.2499C31.4892 42.3078 31.5537 42.3461 31.6098 42.3668C31.9047 42.4754 32.2257 42.4912 32.5412 42.4971C33.0514 42.5061 33.5662 42.4912 34.0651 42.3868C34.6558 42.2623 35.21 42.0154 35.7589 41.7698C36.113 41.6119 36.4862 41.4384 36.6984 41.1208C36.9102 40.8029 36.8719 40.297 36.5221 40.1308" fill="#FFC4B8"/>
<path fill-rule="evenodd" clip-rule="evenodd" d="M42.2219 26.1387L41.3751 26.1757C41.3751 26.1757 39.2401 26.5808 38.7985 27.0599C38.3569 27.5391 37.5837 29.4923 37.2894 31.3348C36.9951 33.1776 37.3997 40.3271 37.51 40.8796C37.6203 41.4325 37.8783 42.28 37.8783 42.28C37.8783 42.28 42.4796 43.312 42.8108 43.2016C43.1421 43.0908 42.0746 35.3151 42.0376 32.8089C42.001 30.3028 42.2219 26.3228 42.2219 26.1387" fill="#EC0000"/>
<path fill-rule="evenodd" clip-rule="evenodd" d="M38.9624 26.4961C38.9624 26.4961 37.5656 28.1552 37.3494 32.154C37.2132 34.6783 37.921 39.3593 37.921 40.1018C37.921 40.845 38.1114 42.1073 38.1114 42.1073L36.5116 42.1447C36.5116 42.1447 35.5972 35.1253 35.7876 32.8225C35.978 30.5197 36.4354 28.5512 37.1973 27.697C37.9589 26.8426 38.9624 26.4961 38.9624 26.4961" fill="#9E3667"/>
<path fill-rule="evenodd" clip-rule="evenodd" d="M39.5239 17.7121C39.9003 18.5468 40.2784 19.3867 40.5125 20.2756C40.7469 21.1645 40.8321 22.1134 40.6173 23.0078C40.4021 23.9018 39.8596 24.7347 39.0687 25.1554C38.2777 25.5761 37.2376 25.5201 36.5683 24.9135C36.2266 24.6036 35.9999 24.1815 35.8036 23.7572C35.2138 22.4807 34.8368 21.0192 35.1823 19.6501C35.2881 19.2305 35.4665 18.8197 35.7637 18.5142C35.9722 18.2984 36.2322 18.1433 36.501 18.0172C37.4714 17.5628 38.5984 17.4788 39.6217 17.7847" fill="#FFC4B8"/>
<path fill-rule="evenodd" clip-rule="evenodd" d="M37.9138 24.9077C38.095 25.2036 38.8756 26.2232 38.8872 26.461C38.7217 26.7506 38.6311 27.0703 38.5569 27.2813C38.4451 27.5995 38.3128 27.949 38.4154 28.2704C38.5183 28.5919 38.9121 28.6776 39.2352 28.6066C39.3549 28.5803 39.4609 28.5132 39.5628 28.4443C40.2698 27.9651 40.8822 27.3404 41.3527 26.6181C41.3988 26.5471 41.445 26.4712 41.4515 26.3858C41.458 26.2931 41.4166 26.2046 41.3742 26.1228C40.8843 25.1759 40.2589 24.0105 40.2784 22.9395C39.4954 23.3956 38.5873 24.2119 37.8957 24.8027" fill="#FFC4B8"/>
<path d="M39.0714 16.8926C38.9145 17.5489 38.9271 18.2407 39.1076 18.8916C39.2352 19.3527 39.4505 19.7991 39.788 20.1535C40.1255 20.5079 40.593 20.7637 41.0962 20.8047C41.0379 20.3224 40.98 19.8401 40.9213 19.3581C40.8981 19.1622 40.8741 18.966 40.8272 18.7741" fill="black"/>
<mask id="mask0_1301_30173" style="mask-type:luminance" maskUnits="userSpaceOnUse" x="34" y="16" width="6" height="7">
<path fill-rule="evenodd" clip-rule="evenodd" d="M39.188 16.6172H34.6457V22.0079H39.188V16.6172Z" fill="white"/>
</mask>
<g mask="url(#mask0_1301_30173)">
<path d="M39.1735 16.9999C39.2713 17.4896 38.8531 18.0106 38.5429 18.4025C38.0713 18.9983 37.5528 19.3144 36.8981 19.6996C36.4318 19.9738 35.9236 20.1911 35.526 20.5574C35.1283 20.9237 34.8573 21.4981 35.0369 22.0081C34.7126 20.7808 34.3971 19.4314 34.9381 18.2831C35.2891 17.5376 35.9855 16.9739 36.7754 16.7392C37.5653 16.5041 38.3975 16.625 39.1497 16.9629" fill="black"/>
</g>
<path fill-rule="evenodd" clip-rule="evenodd" d="M39.7442 20.7633C39.8102 20.7117 39.8762 20.6597 39.9422 20.608C40.007 20.5568 40.0718 20.5059 40.1366 20.4547C40.4724 20.1907 41.0585 19.8441 41.3629 20.3604C41.5782 20.7246 41.3794 21.1846 41.0294 21.3743C40.6068 21.6039 40.0459 21.5511 39.6739 21.2456" fill="#FFC4B8"/>
<path fill-rule="evenodd" clip-rule="evenodd" d="M45.0551 27.1351C45.0551 27.1351 44.3621 26.4775 43.4506 26.1487C42.5391 25.8199 41.7369 25.7832 41.7369 25.7832C41.7369 25.7832 40.461 28.2678 40.388 31.1539C40.315 34.0403 41.6273 45.3295 41.6273 45.3295C41.6273 45.3295 44.1073 45.4026 45.5654 45.22C47.024 45.0374 47.498 44.9643 47.498 44.9643C47.498 44.9643 46.4406 41.749 46.1491 39.6667C45.8569 37.5841 45.0184 31.0444 45.0184 29.7656C45.0184 28.4871 45.0551 27.1351 45.0551 27.1351" fill="#9E3667"/>
<path fill-rule="evenodd" clip-rule="evenodd" d="M35.7618 39.3443C35.7618 39.3443 36.1541 40.032 36.1541 40.7197C36.1541 41.4075 36.105 42.1443 36.105 42.1443C36.105 42.1443 39.7918 42.1194 43.6523 41.3583C46.6416 40.7689 46.691 40.8672 47.0338 39.3443C47.3767 37.8215 46.8381 31.3864 46.3968 29.4707C45.9555 27.5546 45.1226 27.1618 44.6817 27.211C44.2404 27.2601 43.0643 28.0461 43.0152 30.6986C42.9658 33.3512 43.799 38.3617 43.799 38.3617C43.799 38.3617 40.3688 38.6566 38.6043 38.8532C36.8398 39.0494 35.7618 39.3443 35.7618 39.3443" fill="#EC0000"/>
<path fill-rule="evenodd" clip-rule="evenodd" d="M27.6759 61.7051C27.6759 61.7051 27.8151 61.9406 27.9142 62.5661C28.013 63.1921 27.7656 63.392 27.7656 63.392C27.7656 63.392 23.8045 66.6954 23.1608 66.2948C22.5172 65.8946 23.5816 64.6435 23.9531 64.293C24.3243 63.9428 24.572 63.6674 24.572 63.6674C24.572 63.6674 25.4878 63.417 26.5027 62.7664C27.3194 62.2428 27.6759 61.7051 27.6759 61.7051" fill="black"/>
<path fill-rule="evenodd" clip-rule="evenodd" d="M19.0459 61.9917C19.0459 61.9917 18.729 63.5953 17.6802 63.4755C16.6313 63.3561 14.0459 62.0635 13.5342 61.6563C13.0218 61.2492 12.8025 60.9621 13.217 60.7466C13.6314 60.5314 15.168 60.6987 15.168 60.6987C15.168 60.6987 15.7532 61.2974 16.9482 61.6806C18.0398 62.0302 19.0459 61.9917 19.0459 61.9917" fill="black"/>
<path fill-rule="evenodd" clip-rule="evenodd" d="M36.1172 42.8558H29.3598V42.1445H36.1172V42.8558Z" fill="#D39E00"/>
<path fill-rule="evenodd" clip-rule="evenodd" d="M29.4904 42.4376L26.2222 36.4531H25.4478L28.861 42.8548H30.0713L29.4904 42.4376Z" fill="#D39E00"/>
<path fill-rule="evenodd" clip-rule="evenodd" d="M25.4489 36.4531L19.4019 36.7658L22.6916 42.8548L29.0044 42.7344L25.4489 36.4531Z" fill="#FFCC33"/>
<circle cx="45" cy="69" r="6" fill="#EC0000"/>
<path d="M44.0065 67.8842L44.6021 65.9648C44.7256 65.5664 45.274 65.5664 45.3975 65.9648L45.9931 67.8842H47.9153C48.3207 67.8842 48.4851 68.4143 48.1636 68.6585L46.602 69.8469L47.1991 71.7721C47.3209 72.1644 46.8829 72.4979 46.5537 72.2475L45 71.0653L43.4461 72.2476C43.1166 72.4977 42.6787 72.1645 42.8004 71.7721L43.3979 69.8469L41.8361 68.6585C41.5148 68.4142 41.6792 67.8842 42.0843 67.8842H44.0065Z" fill="white"/>
<circle cx="74" cy="69" r="6" fill="#EC0000"/>
<path d="M73.0065 67.8842L73.6021 65.9648C73.7256 65.5664 74.274 65.5664 74.3975 65.9648L74.9931 67.8842H76.9153C77.3207 67.8842 77.4851 68.4143 77.1636 68.6585L75.602 69.8469L76.1991 71.7721C76.3209 72.1644 75.8829 72.4979 75.5537 72.2475L74 71.0653L72.4461 72.2476C72.1166 72.4977 71.6787 72.1645 71.8004 71.7721L72.3979 69.8469L70.8361 68.6585C70.5148 68.4142 70.6792 67.8842 71.0843 67.8842H73.0065Z" fill="white"/>
<circle cx="101" cy="69" r="6" fill="#EC0000"/>
<path d="M100.007 67.8842L100.602 65.9648C100.726 65.5664 101.274 65.5664 101.397 65.9648L101.993 67.8842H103.915C104.321 67.8842 104.485 68.4143 104.164 68.6585L102.602 69.8469L103.199 71.7721C103.321 72.1644 102.883 72.4979 102.554 72.2475L101 71.0653L99.4461 72.2476C99.1166 72.4977 98.6787 72.1645 98.8004 71.7721L99.3979 69.8469L97.8361 68.6585C97.5148 68.4142 97.6792 67.8842 98.0843 67.8842H100.007Z" fill="white"/>
</svg>
