<?xml version="1.0" encoding="UTF-8"?>
<svg width="412px" height="327px" viewBox="0 0 412 327" version="1.1" xmlns="http://www.w3.org/2000/svg" xmlns:xlink="http://www.w3.org/1999/xlink">
    <title>457DE027-43A5-4D95-A0D9-896AA7D4C438</title>
    <g id="Profile" stroke="none" stroke-width="1" fill="none" fill-rule="evenodd">
        <g id="SCIB_GP_01_Envelopes_A1_no-sent-envelopes" transform="translate(-700.000000, -318.000000)">
            <g id="c.-concepts-/-mail/-inbox" transform="translate(700.000000, 318.000000)">
                <path d="M123.040978,129.733032 C120.934115,121.664723 119.816396,113.227691 119.816396,104.544842 C119.816396,46.8450903 169.175194,0 229.971116,0 C290.767037,0 340.125835,46.8450903 340.125835,104.544842 C340.125835,110.266888 339.640314,115.882325 338.705942,121.355471 C379.109993,122.52596 411.532659,154.024743 411.532659,192.654387 C411.532659,232.024122 377.855809,263.987225 336.37535,263.987225 C331.737374,263.987225 325.040344,263.991483 316.284261,264 L69.4475664,264 L69.4475664,263.7837 C30.6295809,261.009241 0,230.199887 0,192.654387 C0,155.108888 30.6295809,124.299534 69.4475664,121.525075 L69.4475664,121.34666 L70.2482578,121.471771 C71.8728492,121.372211 73.5104372,121.32155 75.1605579,121.32155 C85.3495306,121.32155 95.0673718,123.249751 103.930678,126.742714 L123.040978,129.733032 Z" id="Primary-color" fill="#DEEDF2"></path>
                <rect id="Rectangle" fill="#A66555" x="224.864402" y="213.570862" width="32.9595767" height="78.7522299"></rect>
                <rect id="Rectangle" fill-opacity="0.403053977" fill="#F4A48D" x="247.658875" y="213.570862" width="10.1651031" height="78.7522299"></rect>
                <path d="M152.32253,211.302279 C125.188045,211.302279 103.191198,234.566175 103.191198,263.263644 L103.191198,327 L201.453861,327 L201.453861,263.263644 C201.453861,234.566175 179.457015,211.302279 152.32253,211.302279 Z M153.04993,216.749492 C177.007608,217.160304 196.309219,237.82807 196.309219,263.263644 L196.309219,321.558665 L108.33584,321.558665 L108.33584,263.263644 C108.33584,237.571145 128.029352,216.74326 152.32253,216.74326 L153.04993,216.749492 Z" id="Oval" fill="#CC0000" fill-rule="nonzero" transform="translate(152.322530, 269.151140) scale(1, -1) translate(-152.322530, -269.151140) "></path>
                <path d="M199.297627,135.178269 C199.297627,107.594753 178.059293,85.2338949 151.86048,85.2338949 C125.661666,85.2338949 104.423332,107.594753 104.423332,135.178269 C104.423332,153.56728 104.423332,179.806172 104.423332,213.894945 L199.297627,213.894945 C199.297627,179.806172 199.297627,153.56728 199.297627,135.178269 Z" id="Oval-Copy-13" fill="#990000"></path>
                <g id="sobre-copy" transform="translate(89.637727, 135.142716)">
                    <rect id="Primary-" fill="#FFE699" x="0" y="0" width="124.753538" height="75.1873142"></rect>
                    <polygon id="Rectangle-Copy" fill="#FFEBAE" points="62.376769 34.0777035 124.753538 75.1873142 0 75.1873142"></polygon>
                    <polygon id="Rectangle-Copy-2" fill="#FFCC33" transform="translate(62.376769, 27.045796) scale(1, -1) translate(-62.376769, -27.045796) " points="62.376769 0 124.753538 54.0915929 0 54.0915929"></polygon>
                    <polygon id="Rectangle" fill="#D39E00" points="124.238028 -1.19279136e-13 68.7676174 54.0915929 64.438811 51.0824566"></polygon>
                    <polygon id="Path" fill="#FFCC33" points="8.69944051e-14 75.1873142 48.9734963 43.2732743 5.20159291 75.1873142"></polygon>
                    <polygon id="Path-Copy-2" fill="#FFCC33" transform="translate(100.266790, 59.230294) scale(-1, 1) translate(-100.266790, -59.230294) " points="75.7800417 75.1873142 124.753538 43.2732743 80.9816346 75.1873142"></polygon>
                </g>
                <path d="M201.568359,213.894945 L314.502129,213.894945 L314.502129,126.443987 C313.538298,115.787718 309.738707,106.260041 303.103356,97.8609571 C296.468005,89.4618732 286.958724,84.3886304 274.575511,82.6412289 L151.552446,82.6412289 C167.470723,84.686994 179.037531,89.7602367 186.252872,97.8609571 C193.468213,105.961677 197.713995,115.489354 198.990219,126.443987 L198.990219,213.894945 L201.568359,213.894945 Z" id="Path-7" fill="#CC0000"></path>
                <path d="M301.85479,95.9281156 C302.391429,96.5266703 302.911513,97.1443676 303.415042,97.7812075 C310.048267,106.170601 313.84664,115.687285 314.810163,126.33126 L314.798896,126.21668 L314.798922,132.225966 L199.334896,132.22568 L199.335268,126.33126 C198.086032,115.617224 193.990593,106.269729 187.048951,98.2887742 L186.602002,97.7812075 C186.034849,97.1449905 185.440801,96.5274694 184.819859,95.9286442 Z" id="Combined-Shape" fill="#EC0000"></path>
                <polygon id="Path-6" fill="#EC0000" fill-rule="nonzero" points="201.453861 133.522299 201.453861 214.219029 102.575131 214.219029 102.575131 208.803141 196.303928 208.803141 196.303928 133.522299"></polygon>
                <path d="M151.706463,82.6412289 C179.074866,82.6412289 201.31316,105.679181 201.755189,134.274507 L201.761895,135.142716 L196.601541,135.142716 C196.601541,109.1362 176.50133,88.0537533 151.706463,88.0537533 C127.159545,88.0537533 107.213858,108.716659 106.817399,134.364013 L106.811385,135.142716 L101.651031,135.142716 C101.651031,106.146945 124.061611,82.6412289 151.706463,82.6412289 Z" id="Oval" fill="#EC0000" fill-rule="nonzero"></path>
                <g id="Group-5" transform="translate(207.306496, 62.548067)">
                    <path d="M28.0058614,0 L28.0058614,12.9704514 L13.0205532,12.9704514 L13.0213404,101.57703 C15.7019807,103.294645 17.514606,106.581628 17.514606,110.354302 C17.514606,115.902875 13.5938279,120.400883 8.75730301,120.400883 C3.92077811,120.400883 0,115.902875 0,110.354302 C0,107.014768 1.42030362,104.055803 3.60572821,102.229046 L3.6059483,0 L28.0058614,0 Z" id="Combined-Shape" fill="#732645"></path>
                    <ellipse id="Oval" fill="#FFFFFF" cx="8.75730301" cy="110.082773" rx="5.66649018" ry="6.51670104"></ellipse>
                </g>
                <path d="M197.141393,263.360118 C197.141393,235.862271 175.972015,213.570862 149.858262,213.570862 C123.74451,213.570862 102.575131,235.862271 102.575131,263.360118 C102.575131,281.692016 102.575131,302.257143 102.575131,325.0555 L197.141393,325.0555 C197.141393,302.257143 197.141393,281.692016 197.141393,263.360118 Z" id="Oval" fill="#EC0000" transform="translate(149.858262, 269.313181) scale(1, -1) translate(-149.858262, -269.313181) "></path>
                <polygon id="Rectangle" fill-opacity="0.196809" fill="#79650C" points="168.186251 135.142716 196.525327 135.142716 196.525327 209.033697 181.582905 209.033697"></polygon>
                <g id="Group-6" transform="translate(284.622887, 183.107037)" fill="#FFFFFF">
                    <rect id="Rectangle" x="0" y="0" width="4.59618298" height="4.83566324"></rect>
                    <rect id="Rectangle-Copy-5" x="7.66030497" y="0" width="4.59618298" height="4.83566324"></rect>
                    <rect id="Rectangle-Copy-14" x="14.8099229" y="0" width="4.59618298" height="4.83566324"></rect>
                    <rect id="Rectangle" x="0" y="8.05943874" width="4.59618298" height="4.83566324"></rect>
                    <rect id="Rectangle-Copy-5" x="7.66030497" y="8.05943874" width="4.59618298" height="4.83566324"></rect>
                    <rect id="Rectangle-Copy-14" x="14.8099229" y="8.05943874" width="4.59618298" height="4.83566324"></rect>
                    <rect id="Rectangle" x="0" y="15.5815816" width="4.59618298" height="4.83566324"></rect>
                    <rect id="Rectangle-Copy-5" x="7.66030497" y="15.5815816" width="4.59618298" height="4.83566324"></rect>
                    <rect id="Rectangle-Copy-14" x="14.8099229" y="15.5815816" width="4.59618298" height="4.83566324"></rect>
                </g>
            </g>
        </g>
    </g>
</svg>