<?xml version="1.0" encoding="UTF-8"?>
<svg width="276px" height="200px" viewBox="0 0 276 200" version="1.1" xmlns="http://www.w3.org/2000/svg" xmlns:xlink="http://www.w3.org/1999/xlink">
    <title>2AFCBE38-85B3-4E93-A4D2-061E9F0EBCFB</title>
    <defs>
        <rect id="path-1" x="0" y="0.856284008" width="275.9904" height="198.3681"></rect>
    </defs>
    <g id="Contract-Reviewer" stroke="none" stroke-width="1" fill="none" fill-rule="evenodd">
        <g id="Employee_empty-state-filter" transform="translate(-258.000000, -400.000000)">
            <g id="Group" transform="translate(258.000000, 400.000000)">
                <g id="Group-9" transform="translate(138.000000, 100.000000) scale(-1, 1) translate(-138.000000, -100.000000) ">
                    <mask id="mask-2" fill="white">
                        <use xlink:href="#path-1"></use>
                    </mask>
                    <g id="Mask"></g>
                    <g mask="url(#mask-2)">
                        <g transform="translate(-18.974340, -8.185257)">
                            <g id="g.-illustration/Objects/Supplies/Magnifying-Glass" transform="translate(149.238194, 141.315505) rotate(-23.000000) translate(-149.238194, -141.315505) translate(31.738194, 38.315505)">
                                <g id="Group-6" transform="translate(0.000000, 0.469863)">
                                    <path d="M17.9372152,27.2855698 C-3.34688918,53.7318803 0.83824453,92.4250854 27.284555,113.708581 C53.7308655,134.992584 92.4240706,130.807551 113.707972,104.361241 C134.991873,77.9151335 130.80674,39.2219284 104.360429,17.938027 C77.9141187,-3.34587435 39.221015,0.839259354 17.9372152,27.2855698" id="Fill-1"></path>
                                    <polygon id="Fill-2" fill="#CC0000" points="120.534692 95.8785311 228.981817 183.156734 215.328377 200.121596 106.881252 112.843748"></polygon>
                                    <path d="M164.829725,160.456951 L216.193007,201.793853 C220.922086,205.599869 227.905089,204.844454 231.711693,200.115162 L232.493108,199.143681 C236.299712,194.414389 235.544683,187.430665 230.814589,183.62467 L179.451308,142.287747 L164.829725,160.456951 Z" id="Fill-3" fill="#EC0000"></path>
                                    <path d="M65.9359494,0.0202774498 C77.4026474,0.0416077793 88.7088004,3.05563472 98.6216001,8.7690932 C108.616601,14.5302484 117.057906,22.934005 122.811957,32.8975459 C127.313716,40.6913934 130.178564,49.4229381 131.198462,58.3554179 C132.497436,69.7315937 130.77731,81.4538244 126.231914,91.9481182 C121.867156,102.026334 114.944027,110.967034 106.295698,117.721905 C96.5483149,125.335926 84.6007933,130.103974 72.2113159,131.313441 C60.3864865,132.467905 48.2331586,130.3659 37.4733868,125.219728 C26.0373364,119.75003 16.2516942,110.933241 9.65473001,100.132673 C4.75191285,92.1064307 1.61783224,83.0399941 0.492494032,73.6833179 C-0.890203513,62.1863781 0.805465718,50.3362796 5.41296913,39.6978808 C9.77935038,29.6166203 16.7071471,20.6760219 25.348474,13.9243985 C35.7755865,5.77840721 48.6901338,0.932623151 61.8918762,0.139030872 C63.2369238,0.0588597854 64.5829862,0.0202774498 65.9359494,0.0202774498 Z M65.7546004,8.68882067 C55.6079852,8.71530753 45.5098787,11.4543172 36.7795517,16.6035336 C26.5141007,22.6589877 18.2452142,32.0217529 13.4730049,42.900665 C9.41096931,52.1609329 7.89532983,62.5090921 9.08866124,72.5629523 C10.43584,83.9137575 15.2447859,94.8078919 22.7963949,103.4274 C29.4971755,111.07562 38.2240521,116.894823 47.8919748,120.087053 C58.7435881,123.670092 70.672031,123.875391 81.6354779,120.729538 C90.8236933,118.093026 99.3218286,113.110951 106.117089,106.334262 C112.728667,99.739936 117.724645,91.5046402 120.456551,82.591442 C123.624831,72.2514014 123.780099,60.9442337 120.845228,50.4235544 C118.099115,40.5757034 112.650525,31.5244892 105.297112,24.5161154 C101.498626,20.8952238 97.23941,17.8060999 92.5722349,15.3268852 C85.3020366,11.4644654 77.2006975,9.22576395 69.0150265,8.77518214 C67.929165,8.71530753 66.8329522,8.68689247 65.7546004,8.68882067 Z" id="Fill-4" fill="#EC0000"></path>
                                    <path d="M65.9580726,17.2834656 C70.4043204,17.2966583 74.8676174,17.9238195 79.1349518,19.1345044 L79.6910753,19.3181875 C80.1700722,19.5211523 80.2969252,19.5576859 80.7485218,19.8184957 C82.6076792,20.894209 83.9249206,22.8578932 84.2171898,24.9829344 C84.56223,27.4925939 83.461146,30.1402694 81.3888757,31.6594608 C79.9731964,32.6976256 78.1617357,33.1827114 76.414209,32.9868504 C75.8591003,32.9249462 75.7474697,32.8975459 75.1466939,32.7280703 C70.5887139,31.4514219 65.7235468,31.1226189 61.0063409,31.7893582 C55.9899649,32.4977053 51.1243918,34.3294624 46.9040437,37.1110947 C46.8199148,37.16691 46.7361918,37.2227253 46.6524689,37.2785406 L46.153277,37.5840026 C45.6890966,37.8184269 45.5784808,37.8925091 45.0877119,38.0670588 C42.8887915,38.8515177 40.310327,38.4689291 38.4248857,37.0370126 C36.7172415,35.7410824 35.6514735,33.6393822 35.6255955,31.4818666 C35.6021531,29.5323899 36.420507,27.590017 37.8484657,26.2433457 C38.2276039,25.8861277 38.3434968,25.821179 38.7628221,25.5136873 C46.6336946,20.2355883 55.9055316,17.4072741 65.2214119,17.2875249 C65.4671008,17.2844804 65.7129926,17.2834656 65.9580726,17.2834656 Z" id="Fill-5" fill="#FFFFFF"></path>
                                </g>
                            </g>
                            <g id="Group-5" transform="translate(212.671333, 107.907149) scale(-1, 1) translate(-212.671333, -107.907149) translate(151.671333, 10.407149)">
                                <g id="Group-6" transform="translate(0.000000, 95.742408)">
                                    <polygon id="Back-leg" fill="#83AAB9" points="57.2481965 0 72.7945101 44.2611379 80.6262529 84.4984825 79.0019937 92.545834 107.265455 92.545834 107.474838 91.4993012 91.021982 83.1573454 80.6262529 0"></polygon>
                                    <ellipse id="Oval" fill="#CCCCCC" cx="60.6412429" cy="93.0728039" rx="60.3729" ry="5.606055"></ellipse>
                                    <polygon id="Front-leg" fill="#9BC3D3" points="47.5458097 0 45.5423413 34.9537301 24.8362809 72.1330565 20.8452313 79.2992965 40.3379574 97.4071001 34.5984872 76.8405891 58.988747 43.3319829 78.1098404 0.214375203"></polygon>
                                    <path d="M24.8362809,72.1330565 L34.5984872,76.8405891 L40.3379574,97.4071001 L20.8452313,79.2992965 L24.8362809,72.1330565 Z M91.021982,83.1573454 L107.474838,91.4993012 L107.265455,92.545834 L79.0019937,92.545834 L80.6262529,84.4984825 L91.021982,83.1573454 Z" id="Shoes/Feet" fill="#34466B"></path>
                                </g>
                                <g id="g.-illustration/Characters/Body-parts/Head/Male/Model-D-01" transform="translate(51.371924, 0.000000)">
                                    <g id="Characters/Body-parts/Head/Male/Model-D-00" transform="translate(3.279255, 4.337672)">
                                        <path d="M4.45586202,21.9586283 C0.401410227,20.2768401 -1.75275486e-13,15.5954609 -1.75275486e-13,10.5189093 C-1.75275486e-13,3.98419512 2.36833804,0 8.26582925,0 C12.9324838,0 16.83603,2.34755531 18.2906392,6.97189274 L18.3086996,6.97659138 L21.0999822,16.2034763 L20.8434074,16.3138649 L20.7093494,16.3715406 L19.0593945,16.7280789 L19.052141,21.5742212 L18.9715888,21.867974 C18.8411136,22.2751694 18.660686,22.6700309 18.4301886,23.0411643 C18.1615148,23.4751713 17.8287047,23.8715892 17.4513749,24.2135911 C17.2545609,24.3929909 17.0435922,24.5555049 16.820965,24.7019554 C16.7029705,24.7809512 16.5850348,24.8530753 16.4639862,24.9212936 C16.3694262,24.9757096 16.274132,25.0263374 16.1764885,25.0730888 L15.8787126,25.2190108 L16.8271907,35.9048805 C16.8271907,35.9048805 11.9559694,37.0642686 9.70088908,36.5981934 L9.39982407,36.5311792 L9.39351028,36.5298283 C7.2412126,36.0658675 5.10342196,35.335641 3.29670886,33.1084882 C3.29670886,33.1084882 3.3016718,33.0837029 3.31101033,33.0356887 L3.29670886,33.0187442 C3.29670886,33.0187442 3.46585971,32.2094338 3.6770046,30.8877666 C3.99924283,28.7793424 4.41571806,25.4251634 4.45586202,21.9586283 Z" id="Base-color" fill="#F4A48D"></path>
                                        <path d="M16.041902,27.636517 C14.6694602,27.22198 11.7735743,25.5918181 9.59866441,22.9400556 L15.8059425,25.1590739 C15.8059425,25.1590739 15.9247592,26.4252678 16.041902,27.636517 Z M19.3404022,16.6257074 C18.7803544,16.8128305 18.2063281,16.3886613 18.2214812,15.799012 L18.3189485,11.9976404 L19.3404022,16.6257074 Z" id="Shadows" fill="#A66555"></path>
                                    </g>
                                    <g id="Hair" transform="translate(0.661375, 0.066461)" fill="#6F7779">
                                        <path d="M8.08123036,4.1121584 C12.4186077,3.95994414 11.8860295,0.23493173 11.8860295,0.23493173 C16.5276475,0.387145987 18.50628,2.13556996 18.50628,2.13556996 C22.2351761,5.09982493 20.7566368,11.046883 20.7566368,11.046883 C20.1876464,6.55919873 13.3134221,8.47248487 10.6223814,8.92303907 C9.52282343,10.0013751 9.94723351,12.6335519 9.38977312,14.8520825 C9.37968831,14.8922859 8.18383775,17.894924 8.18383775,17.894924 L8.18239258,17.8985332 L8.11497204,18.2105254 C8.09524227,18.159463 8.0746014,18.1084006 8.05304945,18.0573696 C7.32967673,16.3450062 5.85616415,15.3321694 4.76279532,15.7927353 C3.66867249,16.2540229 3.36879876,18.0155028 4.09217148,19.7278661 C4.34413453,20.3243577 4.98071398,20.8360487 5.36688977,21.2301424 C5.66685775,23.7444081 5.61068444,26.0796886 5.3990292,28.0845544 L4.27715382,28.1330746 L0.243294533,8.97717713 C-0.0566106117,6.41294751 1.08664816,5.24262387 2.91639628,4.68178495 C4.34083576,4.24491434 6.18139127,4.17869329 8.08123036,4.1121584 Z" id="Hair-color"></path>
                                    </g>
                                </g>
                                <g id="g.-illustration/Characters/Body-parts/Upper-body/Male/Polo-shirt-A" transform="translate(74.175026, 64.210255) rotate(-330.000000) translate(-74.175026, -64.210255) translate(43.175026, 23.710255)">
                                    <path d="M18.6268559,19.0277515 L18.8589413,19.9933255 C22.4165756,20.8933137 25.7057962,22.65188 28.4330237,25.1116023 C29.7032996,26.2566008 30.8521157,27.5540113 31.8482263,28.9894442 C32.2053225,29.5030637 32.5436242,30.0354777 32.8604884,30.5855116 L35.2609033,34.7443905 L35.7839201,35.651227 L40.2837437,43.4462618 L43.9715845,49.8378732 L47.9727655,56.7684767 L57.6114271,73.4698614 L59.9851185,77.5819302 L61.9479731,80.9824789 L23.8183185,80.9824789 L3.57786341,45.9142196 C1.36075394,42.0722049 0.242890042,37.7729542 0.242890042,33.462838 C0.242890042,30.8601178 0.650138103,28.2535027 1.46951326,25.7416432 L-1.49213975e-13,21.5808721 C-1.49213975e-13,21.5808721 3.88400258,20.340549 8.1705969,19.4128134 L8.83277969,19.2727604 C12.8192999,18.4497529 16.9967332,17.9609479 18.6268559,19.0277515 Z" id="Shirt" fill="#9E3667"></path>
                                    <path d="M16.5972412,50.2849592 L26.5618706,35.9279582 L24.7188311,16.314389 L21.0629998,6.31892494 L24.0178536,1.99970509 C24.2809771,1.61529805 24.832773,1.57447866 25.1490499,1.91630433 L28.8715431,5.93921653 C30.3295882,7.51531477 30.9906273,9.67022606 30.6664215,11.7931279 L29.7496005,17.7965146 L32.4783325,25.6805298 C34.555129,31.6818608 35.8927715,37.9140123 36.460719,44.2392554 L36.460719,44.2392554 C36.902978,49.1608696 32.5423514,53.1537105 27.6810266,52.279001 L16.5972412,50.2849592 Z" id="Skin-tone" fill="#F4A48D" transform="translate(26.544468, 27.041798) rotate(-31.000000) translate(-26.544468, -27.041798) "></path>
                                </g>
                            </g>
                        </g>
                    </g>
                </g>
            </g>
        </g>
    </g>
</svg>