<?xml version="1.0" encoding="UTF-8"?>
<svg width="55px" height="54px" viewBox="0 0 55 54" version="1.1" xmlns="http://www.w3.org/2000/svg" xmlns:xlink="http://www.w3.org/1999/xlink">
    <title>Group 12</title>
    <g id="v2_MVP-1" stroke="none" stroke-width="1" fill="none" fill-rule="evenodd">
        <g id="v2_Client_CR_01" transform="translate(-972.000000, -285.000000)" fill-rule="nonzero">
            <g id="Group-31" transform="translate(940.000000, 160.000000)">
                <g id="Group-12" transform="translate(32.000000, 125.000000)">
                    <g id="DOC003-|-document-t&amp;cs" transform="translate(9.166667, 4.500000)">
                        <path d="M2.79034431,44.9103593 C2.17791944,44.9103593 1.67793716,44.4376885 1.64819757,43.8436416 L1.64679807,43.7876048 L1.64679807,1.12293413 C1.64679807,0.521644257 2.12822202,0.030752561 2.73326982,0.00155369776 L2.79034431,0.000179640719 L21.0321939,0.000179640719 C21.3138179,0.000179640719 21.5847311,0.102174474 21.7937021,0.285329134 L21.8408032,0.329026818 L33.3128591,11.5924999 C33.5098829,11.7859414 33.627667,12.0427879 33.6454413,12.3143677 L33.6477583,12.3772794 L33.656853,13.5090719 L33.6660928,13.5093096 L33.6660928,43.7876048 C33.6660928,44.407685 33.1541105,44.9103593 32.5225474,44.9103593 L2.79034431,44.9103593 Z" id="Path" fill="#C3DEE7"></path>
                        <path d="M1.14363772,44.9103593 C0.531212852,44.9103593 0.0312305692,44.4376885 0.00149098625,43.8436416 L9.14837064e-05,43.7876048 L9.14837064e-05,1.12293413 C9.14837064e-05,0.521644257 0.481515437,0.030752561 1.08656323,0.00155369776 L1.14363772,0.000179640719 L21.0321939,0.000179640719 L31.6661525,11.5924999 C31.8631763,11.7859414 31.9809604,12.0427879 31.9987347,12.3143677 L32.0010517,12.3772794 L32.0101464,13.5090719 L32.0193862,13.5093096 L32.0193862,43.7876048 C32.0193862,44.407685 31.5074039,44.9103593 30.8758408,44.9103593 L1.14363772,44.9103593 Z" id="Path" fill="#DEEDF2"></path>
                        <path d="M19.902,-9.9720631e-15 L4.46896161e-14,33.844 L9.14837064e-05,1.12293413 C9.14837064e-05,0.521644257 0.481515437,0.030752561 1.08656323,0.00155369776 L1.14363772,0.000179640719 L19.902,-9.9720631e-15 Z" id="Combined-Shape" fill-opacity="0.2" fill="#FFFFFF"></path>
                        <path d="M32.0192033,18.5655537 L32.0192033,30.7058531 L22.4606053,40.0909432 C22.2614671,40.2864607 21.9964457,40.4024211 21.7167727,40.4179893 L21.651996,40.4197904 L17.0618014,40.4197904 C16.4493765,40.4197904 15.9493942,39.9471196 15.9196547,39.3530727 L15.9182552,39.2970359 L15.9182552,34.7902994 C15.9182552,34.5138227 16.0221187,34.2478589 16.2086328,34.0426945 L16.2531321,33.996451 L31.6556473,18.8717377 C31.7705972,18.7592049 31.8921739,18.6571432 32.0192033,18.5655537 Z" id="Path" fill="#C3DEE7"></path>
                        <path d="M21.0585976,0.000478595064 C21.3313392,0.00665631414 21.5924723,0.108373305 21.7951023,0.286558431 L21.8408032,0.329026818 L33.3128591,11.5924999 C33.5098829,11.7859414 33.627667,12.0427879 33.6454413,12.3143677 L33.6477583,12.3772794 L33.6497201,12.5767647 C33.5605664,13.0893415 33.1176946,13.482994 32.5771475,13.5080426 L32.5188696,13.5093045 L21.1382974,13.4732277 C20.5293439,13.4713053 20.0324049,13.0022048 20.0000981,12.4115843 L19.9984413,12.3558682 L19.943485,1.12832329 C19.9405196,0.508250251 20.4500393,0.00316892522 21.0815952,0.000192574627 L21.0585976,0.000478595064 Z" id="Path" fill="#C3DEE7"></path>
                        <path d="M13.7226464,34.7902994 L19.4563872,40.4197904 C19.7596745,40.4197904 20.05054,40.3015006 20.2649965,40.0909432 L35.6685644,24.9674402 C36.9017113,23.7567142 36.9017113,21.7914744 35.6697371,20.5783835 L33.9326612,18.8728891 C32.6961273,17.6623549 30.695398,17.6623549 29.4600385,18.8717377 L14.0575233,33.996451 C13.8431035,34.2070035 13.7226464,34.4925553 13.7226464,34.7902994 Z" id="Path" fill="#EC0000"></path>
                        <path d="M29.4600385,18.8717377 C30.6740987,17.6832063 32.6273641,17.6627144 33.8680289,18.8113548 L33.9326612,18.8728891 L34.8004907,19.7249642 L16.5892881,37.6047846 L13.7226464,34.7902994 C13.7226464,34.5138227 13.8265099,34.2478589 14.013024,34.0426945 L14.0575233,33.996451 L29.4600385,18.8717377 Z" id="Path" fill="#F46666"></path>
                        <path d="M13.6311627,34.8359442 L13.6311627,39.3426807 C13.6311627,39.9627609 14.1431458,40.4654352 14.7747089,40.4654352 L19.3649035,40.4654352 C19.6582787,40.3461247 19.799386,40.0115768 19.6800754,39.7182017 C19.6505691,39.6456478 19.6065125,39.5799076 19.5506226,39.5250349 L14.5808452,34.6457115 C14.3500968,34.4191629 13.9793844,34.4225675 13.7528358,34.6533159 C13.7011306,34.7059796 13.6598479,34.7679438 13.6311627,34.8359442 L13.6311627,34.8359442 L13.6311627,34.8359442 Z" id="Path" fill="#FAB2B2"></path>
                        <path d="M13.7579231,34.6496737 C13.9748591,34.4366779 14.3198457,34.4260249 14.5495905,34.6177171 L14.5848729,34.6496658 L17.091991,37.1111874 L13.9888785,40.1583434 C13.7814762,39.9656601 13.6475223,39.6975458 13.6325622,39.3987175 L13.6311627,39.3426807 L13.6311627,34.8359442 C13.6605481,34.766284 13.7036215,34.702989 13.7579231,34.6496737 Z" id="Path" fill="#FCCCCC"></path>
                        <path d="M13.6312148,37.9220485 C14.7478711,38.4825123 15.6633587,39.3743045 16.2431753,40.4653683 L14.7747089,40.4654352 C14.162284,40.4654352 13.6623018,39.9927644 13.6325622,39.3987175 L13.6311627,39.3426807 L13.6312148,37.9220485 Z" id="Path" fill="#777C81"></path>
                        <path d="M13.6312148,37.9220485 C14.1970816,38.2060642 14.711289,38.5751639 15.1563339,39.0121628 L13.9888785,40.1583434 C13.7814762,39.9656601 13.6475223,39.6975458 13.6325622,39.3987175 L13.6311627,39.3426807 L13.6312148,37.9220485 Z" id="Path" fill="#8E9296"></path>
                        <path d="M21.0321939,0.000179640719 L21.0995544,0.00212742381 L21.1589579,0.00709556572 L21.2260172,0.0164195509 L21.2910659,0.029322296 L21.3364957,0.0406584897 L21.386541,0.0554403881 L21.4274001,0.0693600046 L21.4878047,0.0931397622 L21.545153,0.119473011 L21.6081966,0.153006165 L21.6340151,0.168236191 C21.6768949,0.194295868 21.7180578,0.223151127 21.7572733,0.254723713 L21.7951023,0.286558431 L21.8408032,0.329026818 L27.7960915,6.1765537 L5.01909148,44.9095537 L1.14363772,44.9103593 C0.531212852,44.9103593 0.0312305692,44.4376885 0.00149098625,43.8436416 L9.14837067e-05,43.7876048 L9.14837067e-05,1.12293413 C9.14837067e-05,0.521644257 0.481515437,0.030752561 1.08656323,0.00155369776 L1.14363772,0.000179640719 L21.0321939,0.000179640719 Z" id="Combined-Shape" fill-opacity="0.15" fill="#FFFFFF"></path>
                    </g>
                </g>
            </g>
        </g>
    </g>
</svg>