<?xml version="1.0" encoding="UTF-8"?>
<svg width="140px" height="111px" viewBox="0 0 140 111" version="1.1" xmlns="http://www.w3.org/2000/svg" xmlns:xlink="http://www.w3.org/1999/xlink">
    <title>c. concepts  / investments / portal trade</title>
    <g id="v2_-Help-&amp;-FAQs_MVP-02" stroke="none" stroke-width="1" fill="none" fill-rule="evenodd">
        <g id="v2_Help&amp;FAQs_01C" transform="translate(-628.000000, -150.000000)">
            <g id="Group-28" transform="translate(450.000000, 100.000000)">
                <g id="Group" transform="translate(178.000000, 50.000000)">
                    <g id="portal-trade" transform="translate(0.000000, -0.000000)">
                        <path d="M54.3011484,92.4448145 C53.9330487,92.0781378 53.5719877,91.7072527 53.2179658,91.3321999 C46.0886702,83.7821752 36.6434091,78.8545467 26.4073336,77.0024725 C20.1943954,75.8783468 14.24952,72.9237667 9.44579568,68.1385264 C-3.13623544,55.6053371 -3.15052053,35.3937637 9.41453412,22.8433283 C14.9574394,17.307075 22.0252472,14.2134079 29.2726331,13.5615015 C35.4771658,13.0032551 41.3066011,10.3060956 45.6112584,5.81866916 C45.6667422,5.7609053 45.7226404,5.70355403 45.7785388,5.64661536 C53.1219037,-1.81771271 65.000889,-1.89156793 72.4332772,5.48405137 C72.4759253,5.52613647 72.5181595,5.56863416 72.5599798,5.61113185 C74.5454005,7.61883848 77.411114,8.49561131 80.1878045,7.95840745 C96.0189984,4.89527263 113.044343,9.47223308 125.30592,21.6901139 C144.898027,41.2126471 144.898027,72.9223638 125.30592,92.4451032 C105.698079,111.983109 73.9085751,111.982985 54.3011484,92.4448145" id="Primary-color" fill="#DEEDF2" transform="translate(70.000000, 53.549262) rotate(180.000000) translate(-70.000000, -53.549262) "></path>
                        <polyline id="Fill-141-Copy" fill="#6AA5CD" fill-rule="nonzero" points="95.7321281 32.7151258 93.9130892 32.5824362 95.7324484 32.7151258"></polyline>
                        <polyline id="Fill-149-Copy" fill="#6AA5CD" fill-rule="nonzero" points="109.789794 33.7390051 104.773501 33.3734706 109.789794 33.7390051"></polyline>
                        <path d="M130.06865,104.939829 C130.06865,108.286802 102.959904,111 69.5194507,111 C36.0789972,111 8.97025164,108.286802 8.97025164,104.939829 C8.97025164,101.592508 36.0789972,98.8793105 69.5194507,98.8793105 C102.959904,98.8793105 130.06865,101.592508 130.06865,104.939829" id="Fill-1" fill="#CEDEE7"></path>
                        <g id="Group-30" transform="translate(35.881007, 98.560345)">
                            <polygon id="Fill-85" fill="#34466B" points="59.5056769 0 67.6851932 3.91516138 0 3.91516138 9.26308174 0"></polygon>
                            <polyline id="Fill-88" fill="#9BC3D3" points="15.0518158 1.44186703 12.4672762 1.43966234 14.1431857 0.709910069 16.5192055 0.709910069 15.0518158 1.44186703"></polyline>
                            <polyline id="Fill-89" fill="#9BC3D3" points="11.8996591 1.43892745 9.31475039 1.43672276 11.2449435 0.709910069 13.6213324 0.709910069 11.8996591 1.43892745"></polyline>
                            <polyline id="Fill-90" fill="#9BC3D3" points="21.3576055 1.44737876 18.7726968 1.44517407 19.9404082 0.709910069 22.316428 0.709910069 21.3576055 1.44737876"></polyline>
                            <polyline id="Fill-91" fill="#9BC3D3" points="18.2054488 1.44480662 15.62054 1.44223448 17.042166 0.709910069 19.4185549 0.709910069 18.2054488 1.44480662"></polyline>
                            <polyline id="Fill-92" fill="#9BC3D3" points="27.7135876 1.45289048 25.1286788 1.45031834 25.7833944 0.709910069 28.1594142 0.709910069 27.7135876 1.45289048"></polyline>
                            <polyline id="Fill-93" fill="#9BC3D3" points="24.5610618 1.4499509 21.976153 1.44811366 22.8855213 0.709910069 25.2615411 0.709910069 24.5610618 1.4499509"></polyline>
                            <polyline id="Fill-94" fill="#9BC3D3" points="34.0190081 1.45840221 31.4344685 1.45619752 31.5802479 0.709910069 33.9566367 0.709910069 34.0190081 1.45840221"></polyline>
                            <polyline id="Fill-95" fill="#9BC3D3" points="30.8668514 1.45583007 28.2823118 1.45362538 28.6823747 0.709910069 31.0587636 0.709910069 30.8668514 1.45583007"></polyline>
                            <polyline id="Fill-96" fill="#9BC3D3" points="40.3473106 1.46428138 37.7627709 1.46207669 37.3981378 0.709910069 39.7745267 0.709910069 40.3473106 1.46428138"></polyline>
                            <polyline id="Fill-97" fill="#9BC3D3" points="37.1947848 1.46170924 34.6102451 1.4591371 34.4998957 0.709910069 36.8762845 0.709910069 37.1947848 1.46170924"></polyline>
                            <polyline id="Fill-98" fill="#9BC3D3" points="46.6527312 1.46942566 44.0681915 1.46722097 43.1949913 0.709910069 45.5713801 0.709910069 46.6527312 1.46942566"></polyline>
                            <polyline id="Fill-99" fill="#9BC3D3" points="43.5009435 1.46685352 40.9160348 1.46464883 40.2971182 0.709910069 42.6731379 0.709910069 43.5009435 1.46685352"></polyline>
                            <polyline id="Fill-100" fill="#9BC3D3" points="53.0087132 1.47530483 50.4241735 1.47310014 49.0379775 0.709910069 51.4143663 0.709910069 53.0087132 1.47530483"></polyline>
                            <polyline id="Fill-101" fill="#9BC3D3" points="49.8565565 1.47236524 47.2720168 1.47016055 46.1401043 0.709910069 48.5164932 0.709910069 49.8565565 1.47236524"></polyline>
                            <polyline id="Fill-102" fill="#9BC3D3" points="59.3145029 1.48081655 56.7299632 1.47861186 54.8348309 0.709910069 57.2112198 0.709910069 59.3145029 1.48081655"></polyline>
                            <polyline id="Fill-103" fill="#9BC3D3" points="56.1623462 1.47824441 53.5774374 1.47603972 51.9369578 0.709910069 54.3133466 0.709910069 56.1623462 1.47824441"></polyline>
                            <polyline id="Fill-104" fill="#9BC3D3" points="13.3814422 2.32190566 10.5459405 2.31676138 12.215207 1.58737655 14.8421887 1.58958124 13.3814422 2.32190566"></polyline>
                            <polyline id="Fill-105" fill="#9BC3D3" points="9.92370233 2.31565903 7.08820064 2.31051476 9.01175066 1.58333462 11.6387324 1.58627421 9.92370233 2.31565903"></polyline>
                            <polyline id="Fill-106" fill="#9BC3D3" points="20.2987672 2.33403145 17.4632655 2.32888717 18.6235958 1.59362317 21.2505776 1.59619531 20.2987672 2.33403145"></polyline>
                            <polyline id="Fill-107" fill="#9BC3D3" points="16.8406583 2.32778483 14.0055257 2.32264055 15.4201395 1.58994869 18.0471213 1.59325572 16.8406583 2.32778483"></polyline>
                            <polyline id="Fill-108" fill="#9BC3D3" points="27.2707134 2.34615724 24.4352117 2.34138041 25.0832842 1.60023724 27.7098969 1.60280938 27.2707134 2.34615724"></polyline>
                            <polyline id="Fill-109" fill="#9BC3D3" points="23.8126045 2.34027807 20.9774719 2.33513379 21.8794589 1.59729766 24.5064406 1.59986979 23.8126045 2.34027807"></polyline>
                            <polyline id="Fill-110" fill="#9BC3D3" points="34.1876694 2.35865048 31.3521677 2.35350621 31.491304 1.60685131 34.1182858 1.60942345 34.1876694 2.35865048"></polyline>
                            <polyline id="Fill-111" fill="#9BC3D3" points="30.7299295 2.35277131 27.8944278 2.34725959 28.2878477 1.60354428 30.9148295 1.60611641 30.7299295 2.35277131"></polyline>
                            <polyline id="Fill-112" fill="#9BC3D3" points="41.1297216 2.37040883 38.2942199 2.365632 37.9225746 1.61383283 40.5495564 1.61677241 41.1297216 2.37040883"></polyline>
                            <polyline id="Fill-113" fill="#9BC3D3" points="37.6716126 2.3648971 34.8361109 2.35975283 34.7191184 1.61015834 37.3461001 1.61309793 37.6716126 2.3648971"></polyline>
                            <polyline id="Fill-114" fill="#9BC3D3" points="48.0470466 2.38326952 45.2115449 2.37812524 44.3309635 1.62007945 46.9583143 1.62301903 48.0470466 2.38326952"></polyline>
                            <polyline id="Fill-115" fill="#9BC3D3" points="44.5889377 2.3770229 41.7530669 2.37187862 41.1275072 1.61713986 43.754489 1.619712 44.5889377 2.3770229"></polyline>
                            <polyline id="Fill-116" fill="#9BC3D3" points="55.0186237 2.39539531 52.1834911 2.39025103 50.7902828 1.62706097 53.4172646 1.63000055 55.0186237 2.39539531"></polyline>
                            <polyline id="Fill-117" fill="#9BC3D3" points="51.5608838 2.38914869 48.7257512 2.38437186 47.5868265 1.62375393 50.2134393 1.62632607 51.5608838 2.38914869"></polyline>
                            <polyline id="Fill-118" fill="#9BC3D3" points="61.9359487 2.40788855 59.100447 2.40274428 57.1990407 1.63367503 59.8256535 1.63624717 61.9359487 2.40788855"></polyline>
                            <polyline id="Fill-119" fill="#9BC3D3" points="58.4778398 2.40127448 55.6427072 2.39649766 53.9952154 1.630368 56.6218281 1.63330759 58.4778398 2.40127448"></polyline>
                            <polyline id="Fill-120" fill="#9BC3D3" points="11.6712099 3.17916248 8.59138929 3.17144607 10.2606557 2.44169379 13.1315874 2.44683807 11.6712099 3.17916248"></polyline>
                            <polyline id="Fill-121" fill="#9BC3D3" points="7.91563716 3.16960883 4.83581657 3.16225986 6.75936659 2.43471228 9.63029822 2.44059145 7.91563716 3.16960883"></polyline>
                            <polyline id="Fill-122" fill="#9BC3D3" points="19.1838316 3.19790234 16.104011 3.19018593 17.2650794 2.45455448 20.136011 2.46006621 19.1838316 3.19790234"></polyline>
                            <polyline id="Fill-123" fill="#9BC3D3" points="15.4282589 3.18834869 12.3484383 3.18063228 13.7634211 2.44830786 16.6347218 2.45345214 15.4282589 3.18834869"></polyline>
                            <polyline id="Fill-124" fill="#9BC3D3" points="34.16774 3.23538207 23.6767897 3.20929324 24.3244932 2.46815007 34.1049995 2.48652248 34.16774 3.23538207"></polyline>
                            <polyline id="Fill-125" fill="#9BC3D3" points="23.0006686 3.207456 19.920848 3.19937214 20.823204 2.46116855 23.6941357 2.46668028 23.0006686 3.207456"></polyline>
                            <polyline id="Fill-126" fill="#9BC3D3" points="41.8084262 3.25448938 38.7293437 3.24640552 38.3576985 2.4942389 41.2289992 2.50011807 41.8084262 3.25448938"></polyline>
                            <polyline id="Fill-127" fill="#9BC3D3" points="38.0532225 3.24493572 34.9734019 3.23721931 34.8564093 2.48799228 37.727341 2.49313655 38.0532225 3.24493572"></polyline>
                            <polyline id="Fill-128" fill="#9BC3D3" points="49.321786 3.27286179 46.2423345 3.26514538 45.361753 2.50746703 48.2330537 2.51297876 49.321786 3.27286179"></polyline>
                            <polyline id="Fill-129" fill="#9BC3D3" points="45.5662133 3.26367559 42.4860236 3.25595917 41.8604639 2.50122041 44.7313955 2.50599724 45.5662133 3.26367559"></polyline>
                            <polyline id="Fill-130" fill="#9BC3D3" points="56.8941957 3.2919691 53.8147442 3.28425269 52.4211669 2.52106262 55.2928366 2.52657434 56.8941957 3.2919691"></polyline>
                            <polyline id="Fill-131" fill="#9BC3D3" points="53.1382539 3.2827829 50.0588024 3.27469903 48.9198777 2.5140811 51.7911784 2.51996028 53.1382539 3.2827829"></polyline>
                            <polyline id="Fill-132" fill="#9BC3D3" points="64.4068174 3.31070897 61.3273659 3.3026251 59.4255905 2.53392331 62.2965221 2.53943503 64.4068174 3.31070897"></polyline>
                            <polyline id="Fill-133" fill="#9BC3D3" points="60.6512447 3.30152276 57.5714241 3.2934389 55.9243013 2.52767669 58.795602 2.53282097 60.6512447 3.30152276"></polyline>
                            <polygon id="Fill-86" fill="#9BC3D3" points="0 4.98664055 67.6851932 4.98664055 67.6851932 3.91516138 0 3.91516138"></polygon>
                        </g>
                        <g id="Group-83" transform="translate(7.368421, 0.637931)">
                            <path d="M71.0216892,89.2104078 C69.1246838,86.4003554 68.951648,82.612069 68.951648,82.612069 L56.3109775,82.612069 C56.3109775,82.612069 56.1384741,86.4003554 54.2409362,89.2104078 C52.3428655,92.019918 48.375286,93.7758621 48.375286,93.7758621 L76.8878719,93.7758621 C76.8878719,93.7758621 72.9197599,92.019918 71.0216892,89.2104078" id="Fill-54" fill="#34466B"></path>
                            <path d="M120.80717,0 C123.091386,0 124.942792,1.84489059 124.942792,4.12119196 L124.942792,80.7231057 C124.942792,82.999407 123.091386,84.8448276 120.80717,84.8448276 L4.13509043,84.8448276 C1.85140606,84.8448276 0,82.999407 0,80.7231057 L0,4.12119196 C0,1.84489059 1.85140606,0 4.13509043,0 L120.80717,0 Z M118.2135,4.14292151 L6.34220891,4.14292151 C5.34153511,4.14292151 4.53068093,4.95115423 4.53068093,5.94806294 L4.53068093,5.94806294 L4.53068093,66.9386301 C4.53068093,67.9355389 5.34153511,68.7437714 6.34220891,68.7437714 L6.34220891,68.7437714 L118.2135,68.7437714 C119.214173,68.7437714 120.025559,67.9355389 120.025559,66.9386301 L120.025559,66.9386301 L120.025559,5.94806294 C120.025559,4.95115423 119.214173,4.14292151 118.2135,4.14292151 L118.2135,4.14292151 Z" id="Combined-Shape" fill="#34466B"></path>
                            <path d="M0,73.0431034 L0,80.7121783 C0,82.9945144 1.85140606,84.8448276 4.13509043,84.8448276 L120.80717,84.8448276 C123.091386,84.8448276 124.942792,82.9945144 124.942792,80.7121783 L124.942792,73.0431034 L0,73.0431034" id="Fill-56" fill="#9BC3D3"></path>
                            <path d="M77.7048132,95.0517241 L47.8787108,95.0517241 C47.622294,95.0517241 47.4141876,94.8439911 47.4141876,94.5880344 L47.4141876,92.3257587 C47.4141876,92.069802 47.622294,91.862069 47.8787108,91.862069 L77.7048132,91.862069 C77.9612301,91.862069 78.1693364,92.069802 78.1693364,92.3257587 L78.1693364,94.5880344 C78.1693364,94.8439911 77.9612301,95.0517241 77.7048132,95.0517241" id="Fill-80" fill="#9BC3D3"></path>
                            <path d="M62.9616317,81.9741379 L62.3015262,81.9741379 C60.6262049,81.9741379 59.2677346,80.6211784 59.2677346,78.9533154 L59.2677346,78.2966846 C59.2677346,76.6282851 60.6262049,75.2758621 62.3015262,75.2758621 L62.9616317,75.2758621 C64.636953,75.2758621 65.9954233,76.6282851 65.9954233,78.2966846 L65.9954233,78.9533154 C65.9954233,80.6211784 64.636953,81.9741379 62.9616317,81.9741379" id="Fill-87" fill="#34466B"></path>
                        </g>
                        <g id="Group-86" transform="translate(34.989025, 17.543104)">
                            <g id="Fill-24-+-Fill-27-Mask" transform="translate(25.496101, 0.000000)">
                                <g id="Mask" fill="#34466B">
                                    <path d="M44.2105263,22.0086207 C44.2105263,9.85358387 34.3136156,0 22.1051324,0 C9.89691069,0 0,9.85358387 0,22.0086207 C0,34.1636575 9.89691069,44.0172414 22.1051324,44.0172414 C34.3136156,44.0172414 44.2105263,34.1636575 44.2105263,22.0086207" id="Fill-8"></path>
                                </g>
                                <path d="M40.1163894,8.96790441 C39.3066066,9.30802509 38.201974,10.130169 38.2885942,11.1269029 C38.4333187,12.7877116 39.4931497,12.445881 39.3004393,13.3739068 C39.1077288,14.302088 37.9514656,14.302088 37.6624764,15.27908 C37.3733341,16.256072 36.7470632,18.4056098 37.6141838,19.4314126 C38.4813047,20.4573707 39.6377211,19.5780002 40.1675602,20.3595938 C40.6975524,21.1411874 40.8902629,22.1181794 41.8538157,21.9715918 C42.3020937,21.9035054 43.2685903,21.3837389 44.2105267,20.8603448 C44.2106333,18.9740548 43.7428363,17.0885644 43.1533181,15.3103448 C42.3636851,12.9284993 41.1948507,10.7365071 40.1163894,8.96790441 Z M17.4818012,15.3949886 C16.9326735,15.5763692 16.8218463,16.1496472 17.4818012,16.3508789 C18.1417561,16.5519504 19.0047865,16.3508789 18.954058,15.9986835 C18.9033295,15.6464881 17.9386806,15.2440249 17.4818012,15.3949886 Z M12.527497,14.5038586 C12.4796045,15.0200712 16.1702255,16.2072124 16.1702255,15.6394278 C16.1702255,15.0716432 14.0612774,14.1942624 13.6299398,14.1426904 C12.8618294,14.0507148 12.5753895,13.9878102 12.527497,14.5038586 Z M24.5191827,5.77052469 C24.6171349,5.43982775 23.8830384,5.06175948 23.6872897,4.96716723 C22.9815354,4.62639449 22.8552409,5.53442 23.2468941,5.9597092 C23.6383914,6.38499839 24.4213862,6.10152238 24.5191827,5.77052469 Z M26.4863962,22.1543941 C24.5901206,21.8635535 24.0552459,22.3483392 24.0552459,22.3483392 L20.5057634,19.2452169 C20.5057634,19.2452169 15.0601602,20.4573355 14.3793824,20.311838 C13.6986046,20.1664949 11.9482321,20.0694452 11.8996494,19.0997194 C11.8509119,18.1299937 12.774913,17.1118203 11.5592605,16.3358854 C10.3437627,15.5601048 7.66954385,16.1419403 7.32915496,15.6571545 C6.98876607,15.1722145 7.08608635,12.6993754 8.20441856,11.8266994 C9.32259606,10.9538691 11.6078433,10.6144265 12.288621,11.2448639 C12.9692441,11.8751471 12.3857866,13.1843154 13.1151471,13.2812108 C13.8445077,13.3782605 13.1638846,10.7114762 14.0389935,10.0811931 C14.9142571,9.45075562 15.4491318,9.59625305 15.9838518,9.06286532 C16.5187265,8.52963191 16.1297549,7.80229905 16.956281,7.46270218 C17.7829618,7.1234139 21.235124,7.02636418 21.4783473,6.10524044 C21.7214159,5.18396244 19.3388485,5.08691272 19.4847515,4.69902242 C19.6306546,4.31113216 22.6938451,5.32930559 22.8395934,4.21423672 C22.9856512,3.09901356 19.5820718,1.20800983 18.4150021,1.59590012 C17.2480871,1.98379041 16.4701438,4.6019727 15.5462974,4.31113216 C14.622451,4.02013727 12.9692441,2.51717813 13.8445077,1.88674069 C14.7197713,1.25645754 16.4701438,2.12928784 16.8105326,1.35335296 C16.9695871,0.990766578 16.9102987,1.03225968 16.6270023,0.669827586 C13.390562,1.35366126 9.82995475,3.36295596 7.20823799,5.74137931 C5.40351391,7.37862631 4.03661327,9.09051724 2.97940503,10.9086207 C2.89956837,12.7801836 2.74318834,15.0838052 3.24479778,14.9298217 C3.87683803,14.7358765 3.7310897,10.2265362 4.21722692,10.9538691 C4.70351887,11.6812019 4.12006138,14.3479862 4.70351887,15.3661597 C5.28697637,16.3844874 5.77326829,16.0934926 5.77326829,16.0934926 C5.77326829,16.0934926 6.84286301,17.2571634 7.52364078,16.8208254 C7.32915496,17.2087157 8.5932355,19.0512717 9.80888798,19.6331072 C11.0243858,20.2149426 12.8720785,19.8755 13.6986046,20.9907232 C14.5252854,22.1059463 14.1848966,23.1727218 14.1848966,23.1727218 C14.1848966,23.1727218 12.8234957,24.5303378 13.0665644,26.2273964 C13.0178268,26.2758441 12.0941352,25.7910584 12.3372038,27.3424653 C12.5802724,28.8941807 17.0536013,31.1730747 17.2966699,32.5306906 C17.5397385,33.8883067 17.0536013,40.7251431 17.2966699,41.9372618 C17.4371491,42.6377943 17.6842105,43.5387931 17.97254,43.6344828 C18.2608696,43.7301724 18.7607817,43.7854753 19.1258581,43.8258621 C19.3191813,43.8472484 19.6063561,43.910475 19.7025172,43.8258621 C20.0366108,43.5318904 19.7278201,42.6645944 19.7278201,42.6645944 L23.3258854,38.8341394 C23.3258854,38.8341394 25.2707437,38.3976469 26.8266303,36.797484 C28.3826717,35.1974751 33.5852065,28.7486833 32.807263,26.7607841 C32.0293197,24.7727306 29.2091978,24.9182281 29.2091978,24.9182281 C29.2091978,24.9182281 28.3826717,22.4453889 26.4863962,22.1543941 Z" id="Fill-24" fill="#9BC3D3"></path>
                                <path d="M26.4734025,22.0088968 C24.5781587,21.7171681 24.043575,22.2034341 24.043575,22.2034341 L20.4960238,19.090837 C20.4960238,19.090837 15.0533835,20.3066565 14.3729762,20.1607149 C13.6925688,20.014928 11.9431487,19.9175819 11.8945924,18.9448953 C11.8458814,17.9722087 12.7693798,16.9509265 11.5543887,16.1726225 C10.3395523,15.3944733 7.66678848,15.9780852 7.32658482,15.4918193 C6.98638114,15.0053986 7.08364846,12.5250092 8.20137216,11.6496686 C9.31894126,10.7741733 11.6029451,10.4336943 12.2833524,11.0660567 C12.9636051,11.6982643 12.3804651,13.0114298 13.1094288,13.1086211 C13.8383925,13.2059671 13.1581398,10.5310403 14.0327725,9.89883277 C14.9075599,9.26647042 15.4421436,9.41241211 15.9765726,8.87739581 C16.5111563,8.34253424 16.1223963,7.61298061 16.9484727,7.27234687 C17.7747037,6.93202263 21.2249875,6.83467659 21.4680785,5.91074043 C21.7110149,4.98664948 19.3297437,4.88930344 19.4755674,4.50022882 C19.6213911,4.11115417 22.6829149,5.1324364 22.828584,4.01396289 C22.9583253,3.01852614 20.2804584,1.40852479 18.8667575,1.33965517 C18.7022226,1.35791723 18.5383063,1.37803644 18.3748539,1.40016758 C17.2262026,1.82561156 16.4542495,4.40025179 15.5392562,4.11115417 C14.9409617,3.92203359 3.73047729,10.0446197 4.21635001,10.7741733 C4.70237735,11.5037269 4.11923733,14.1786537 4.70237735,15.1999359 C5.28551739,16.2213729 5.77154472,15.9294896 5.77154472,15.9294896 C5.77154472,15.9294896 6.84055746,17.0967135 7.52096483,16.6590432 C7.32658482,17.0481178 8.58997757,18.8962997 9.80496859,19.4799116 C11.019805,20.0635236 12.8664924,19.7230446 13.6925688,20.8416729 C14.5187998,21.9603011 14.1785962,23.0303337 14.1785962,23.0303337 C14.1785962,23.0303337 12.8179361,24.392095 13.0608724,26.0943351 C13.0121615,26.1429308 12.0889724,25.6566649 12.3319087,27.2128086 C12.5748451,28.7692619 17.04574,31.0551141 17.2886763,32.4168754 C17.5316127,33.7786365 17.04574,40.6363476 17.2886763,41.8521672 C17.4215104,42.5164107 17.7066422,42.998314 18.0686499,43.4431034 C18.5624091,43.5176993 19.1022873,43.7857783 19.6064073,43.8258621 C19.9991879,43.3659058 19.7185038,42.5817208 19.7185038,42.5817208 L23.3146113,38.7395703 C23.3146113,38.7395703 25.2584114,38.3017452 26.8134515,36.6966963 C28.3686462,35.0918022 33.5683501,28.6233202 32.7908301,26.6293515 C32.0133101,24.6352279 29.1947226,24.7811696 29.1947226,24.7811696 C29.1947226,24.7811696 28.3686462,22.3007801 26.4734025,22.0088968 Z" id="Fill-27" fill="#9BC3D3"></path>
                            </g>
                            <path d="M30.8303379,8.93269448 C30.6548866,9.19230102 30.4798667,9.43843159 30.3056109,9.67160655 L30.1180095,9.38684195 C30.2894568,9.15765007 30.4618963,8.91528167 30.6348682,8.65923427 L30.8303379,8.93269448 Z M29.5111699,10.2960405 C29.3179881,10.501352 29.1260932,10.6925296 28.935576,10.8702174 L28.778088,10.6031642 C28.9647272,10.4293024 29.1528452,10.2417723 29.3423966,10.040252 L29.5111699,10.2960405 Z M27.798997,11.7097118 C27.5910241,11.9009231 27.3846714,12.0728692 27.1800172,12.2261045 L27.0480381,11.890191 C27.2469609,11.7411506 27.4480252,11.5739031 27.6509268,11.3871714 L27.798997,11.7097118 Z M26.0820389,12.6509889 C25.8478873,12.780932 25.6166364,12.8881418 25.3886829,12.9736609 L25.301795,12.6240051 C25.5212235,12.541692 25.7444175,12.4383548 25.9709044,12.3124124 L26.0820389,12.6509889 Z M24.2173455,13.2574833 C24.1591597,13.2680451 24.1013077,13.2773501 24.0436642,13.285416 C23.8425383,13.3135588 23.6446656,13.326726 23.4505416,13.3257125 L23.4296398,12.984814 C23.6146991,12.9858859 23.8034536,12.9733031 23.9958076,12.9463877 C24.050945,12.9386725 24.1063146,12.9298877 24.1619941,12.9196766 L24.2173455,13.2574833 Z M22.0617815,13.3195206 C21.8056558,13.2750728 21.5581265,13.2072793 21.3202977,13.118697 L21.3809609,12.835005 C21.6060893,12.9187366 21.8403771,12.9831109 22.0835286,13.0251564 L22.0617815,13.3195206 Z M20.2443488,12.8104987 C19.9928976,12.6357063 19.7539563,12.4359147 19.528628,12.2152132 L19.6663347,11.9250777 C19.8796138,12.1339956 20.1057568,12.3232156 20.343635,12.4884674 L20.2443488,12.8104987 Z M18.7601669,11.5381782 C18.5295689,11.3122013 18.3188176,11.0700485 18.1288826,10.815253 L18.376457,10.6255689 C18.5567093,10.8673635 18.7567667,11.0971354 18.9753519,11.3113946 L18.7601669,11.5381782 Z M17.4863738,9.74131302 C17.3216798,9.40598881 17.1822594,9.06064603 17.0697546,8.70987024 L17.3793427,8.59672886 C17.4858277,8.928345 17.6179191,9.25582252 17.7740094,9.57364503 L17.4863738,9.74131302 Z M17.1642118,7.83610803 L16.8549188,7.8845993 L16.8423813,7.80026013 C16.801075,7.50763526 16.7850946,7.21525788 16.7960283,6.92653913 L17.1089785,6.93867038 C17.0987655,7.20785808 17.1135825,7.48191577 17.152396,7.75688092 C17.1561134,7.7832156 17.1600076,7.80968352 17.1642118,7.83610803 Z M16.855697,5.83156174 C16.9450836,5.519646 17.0727987,5.21828301 17.2412664,4.93406725 L17.5267206,5.0848004 C17.3724916,5.34527731 17.2548918,5.62190258 17.1724313,5.9099996 L16.855697,5.83156174 Z M17.9012024,4.21368586 C18.0692855,3.99087221 18.265332,3.78991376 18.4899173,3.61578574 L18.6324829,3.8938001 C18.4241277,4.05521939 18.2438599,4.24027056 18.0897006,4.44482703 L17.9012024,4.21368586 Z M19.6414856,3.25969694 C19.8668636,3.17027389 20.110939,3.09804533 20.3742705,3.04518111 L20.4262202,3.31849389 C20.1752835,3.36892126 19.9441699,3.43736909 19.7323014,3.52152973 L19.6414856,3.25969694 Z M21.5639148,2.75187436 C21.8036976,2.73842713 22.0562656,2.73862341 22.3218796,2.75341777 L22.3175214,3.03294511 C22.0597805,3.01846492 21.8155613,3.01837467 21.5846876,3.03142477 L21.5639148,2.75187436 Z M23.4956846,3.00820305 C23.7722288,3.11465198 24.015856,3.27271918 24.2250647,3.47455112 L24.0633307,3.70181479 C23.8805315,3.52565112 23.6686967,3.38778258 23.4230013,3.29299215 L23.4956846,3.00820305 Z M25.0470534,4.10616453 C25.2118887,4.36952556 25.3363405,4.66451976 25.4244865,4.98500892 L25.0852339,5.0671226 C25.0031785,4.76851589 24.8882531,4.49848045 24.7400611,4.26171158 L25.0470534,4.10616453 Z M25.5868667,6.22859254 C25.6122691,6.53026834 25.620022,6.84573021 25.6109872,7.17202852 L25.3292235,7.15361496 C25.3378537,6.83853259 25.3304705,6.53574998 25.3062343,6.24837095 L25.5868667,6.22859254 Z M25.5222038,8.03491528 C25.4884354,8.38737929 25.4417836,8.74737088 25.3828275,9.11240826 L25.0798927,9.02681858 C25.1376941,8.67006835 25.1831418,8.31910957 25.2159346,7.97620036 L25.5222038,8.03491528 Z M25.2993518,10.0488455 C25.1987159,10.3425111 25.0865752,10.6388714 24.963585,10.9362849 L24.634687,10.8406546 C24.755254,10.5486945 24.8653408,10.257891 24.9639444,9.96993407 L25.2993518,10.0488455 Z M24.414175,11.9127644 C24.2939659,12.200888 24.165299,12.4883001 24.0285159,12.7740054 L23.7406328,12.6416834 C23.8750334,12.3607332 24.0016331,12.0780321 24.1198186,11.7949292 L24.414175,11.9127644 Z M23.6039357,13.951654 C23.4684671,14.2337619 23.3261283,14.5126051 23.1774475,14.7866469 L22.9216251,14.6184554 C23.0678213,14.3489874 23.207698,14.0748773 23.3409969,13.7974615 L23.6039357,13.951654 Z M22.5688955,15.4657148 C22.4194802,15.7409651 22.2640936,16.0095853 22.1031435,16.2705002 L21.8765515,16.0614372 C22.0343187,15.8057186 22.1867732,15.5420899 22.3334171,15.2719783 L22.5688955,15.4657148 Z M21.1814922,17.1400654 C21.0173162,17.4062033 20.8476408,17.6614795 20.6728879,17.9041993 L20.4759444,17.6422484 C20.6463959,17.4055826 20.8121589,17.156306 20.9727862,16.895935 L21.1814922,17.1400654 Z M19.9676315,18.2770806 C19.779183,18.4846257 19.5859175,18.6777195 19.3877868,18.8542313 L19.2343868,18.583052 C19.4256722,18.4125946 19.6129816,18.2255954 19.7959691,18.0240754 L19.9676315,18.2770806 Z M18.0484872,19.7307272 C17.8302966,19.8770544 17.6073234,20.0026779 17.3801317,20.1054452 L17.2829625,19.8080179 C17.499087,19.7103082 17.7120542,19.5902318 17.9214216,19.4499242 L18.0484872,19.7307272 Z M16.3672091,20.3083224 C16.2766683,20.329193 16.1854477,20.3461452 16.0937717,20.3589731 C15.9314417,20.3816873 15.7674244,20.3915501 15.6019965,20.3878246 L15.5833806,20.0438701 C15.7386399,20.0474479 15.8927095,20.0381045 16.0454614,20.0167305 C16.1317886,20.0046511 16.2177088,19.9887895 16.3031978,19.9689748 L16.3672091,20.3083224 Z M14.3534427,20.3125511 C14.1061792,20.2343528 13.8562486,20.1214063 13.6046387,19.9719012 L13.6746264,19.634495 C13.9118979,19.775786 14.1466434,19.8815659 14.3786904,19.9550178 L14.3534427,20.3125511 Z M12.5537671,19.797752 C12.3207855,19.6195683 12.0873131,19.4140834 11.853788,19.1796364 L12.0065958,18.9080152 C12.2305736,19.1329568 12.4535999,19.3292398 12.6752612,19.4986994 L12.5537671,19.797752 Z M10.9829011,18.350886 C10.7365549,18.110994 10.5367069,17.8537842 10.3758165,17.5814085 L10.672715,17.4279887 C10.8207981,17.6784964 11.0033825,17.9136784 11.2303255,18.1345056 L10.9829011,18.350886 Z M9.99386085,16.6225295 C9.91057405,16.3409416 9.8510933,16.04808 9.80830273,15.7449403 L9.79977878,15.6833862 L10.1235564,15.640464 L10.1317505,15.6996814 C10.1728919,15.9911379 10.2296368,16.2692914 10.3078512,16.5336387 L9.99386085,16.6225295 Z M9.78433051,14.79349 C9.7672104,14.4910783 9.75709,14.1799606 9.74914876,13.8603382 L10.040568,13.8585094 C10.0484351,14.1765653 10.0583634,14.4842409 10.07513,14.7810253 L9.78433051,14.79349 Z M9.91648689,12.6474798 C9.90889081,12.3466525 9.89916924,12.039036 9.88410934,11.7246074 L10.1731482,11.7155019 C10.1884234,12.0335224 10.1982076,12.3436498 10.2058568,12.645887 L9.91648689,12.6474798 Z M9.34520897,10.8312013 C9.32145831,10.525244 9.28909998,10.2138937 9.24494171,9.89727516 L9.59473181,9.84865215 C9.63982561,10.1718983 9.67285549,10.4892694 9.69679434,10.8003496 L9.34520897,10.8312013 Z M9.31539586,8.60021554 C9.25544366,8.30666513 9.18479246,8.00876881 9.10147961,7.70648542 L9.38800201,7.62375549 C9.4735669,7.93346176 9.54585781,8.2387087 9.60721468,8.53901093 L9.31539586,8.60021554 Z" id="Shape" fill="#34466B"></path>
                            <g id="Group-3" transform="translate(0.000000, 0.610290)">
                                <polygon id="Fill-4" fill="#EC0000" transform="translate(8.484614, 1.454043) rotate(3.000000) translate(-8.484614, -1.454043) " points="3.89307496 2.4738646 16.8815036 0.434220477 0.0878730585 0.546090543"></polygon>
                                <polygon id="Fill-5" fill="#990000" transform="translate(9.989629, 4.828797) rotate(3.000000) translate(-9.989629, -4.828797) " points="3.319145 9.14286227 16.660112 0.514731104 3.31919388 7.34727886"></polygon>
                                <polyline id="Fill-6" fill="#990000" transform="translate(8.484711, 2.316832) rotate(3.000000) translate(-8.484711, -2.316832) " points="0.0878959968 0.544553733 3.23663992 3.02867209 3.23660804 4.19943997 3.89308274 3.02865422 16.8815265 0.434224359 3.8930986 2.44566782 0.0878959968 0.544553733"></polyline>
                                <polyline id="Fill-26" fill="#EC0000" transform="translate(8.563134, 4.669897) rotate(3.000000) translate(-8.563134, -4.669897) " points="16.7246387 0.434224754 0.401629914 8.90556858 3.67094466 3.05198273 16.7246387 0.434224754"></polyline>
                            </g>
                        </g>
                        <g id="Group-84" transform="translate(11.853547, 4.465517)">
                            <path d="M115.652174,1.25189628 C115.652174,0.560358621 114.781467,0 113.706929,0 L1.94524537,0 C0.870707129,0 0,0.560358621 0,1.25189628 L0,4.76911117 L115.652174,4.76911117 L115.652174,1.25189628" id="Fill-82" fill="#CCCCCC"></path>
                            <path d="M105.883826,2.42001434 C105.883826,2.9083531 105.486347,3.30446234 104.995863,3.30446234 C104.50538,3.30446234 104.107901,2.9083531 104.107901,2.42001434 C104.107901,1.93204303 104.50538,1.53630124 104.995863,1.53630124 C105.486347,1.53630124 105.883826,1.93204303 105.883826,2.42001434" id="Fill-157" fill="#34466B"></path>
                            <path d="M109.503584,2.42001434 C109.503584,2.9083531 109.106105,3.30446234 108.615621,3.30446234 C108.124769,3.30446234 107.72729,2.9083531 107.72729,2.42001434 C107.72729,1.93204303 108.124769,1.53630124 108.615621,1.53630124 C109.106105,1.53630124 109.503584,1.93204303 109.503584,2.42001434" id="Fill-158" fill="#34466B"></path>
                            <path d="M112.234641,3.30446234 C111.744527,3.30446234 111.347048,2.9083531 111.347048,2.42001434 C111.347048,1.93204303 111.744527,1.53630124 112.234641,1.53630124 C112.725124,1.53630124 113.122973,1.93204303 113.122973,2.42001434 C113.122973,2.9083531 112.725124,3.30446234 112.234641,3.30446234 Z" id="Fill-159" fill="#34466B"></path>
                        </g>
                    </g>
                </g>
            </g>
        </g>
    </g>
</svg>