<svg width="338" height="338" viewBox="0 0 338 338" fill="none" xmlns="http://www.w3.org/2000/svg">
<path fill-rule="evenodd" clip-rule="evenodd" d="M130.812 238.56C129.926 237.9 129.057 237.232 128.205 236.557C111.044 222.97 88.3075 214.102 63.6678 210.769C48.7124 208.746 34.4022 203.429 22.8389 194.817C-7.44781 172.262 -7.48219 135.888 22.7637 113.301C36.1063 103.338 53.1195 97.7706 70.565 96.5974C85.5002 95.5927 99.5325 90.7388 109.894 82.663C110.028 82.559 110.162 82.4558 110.297 82.3533C127.974 68.9202 156.568 68.7872 174.459 82.0608C174.561 82.1365 174.663 82.213 174.764 82.2895C179.543 85.9026 186.441 87.4805 193.125 86.5138C231.233 81.0012 272.215 89.2381 301.731 111.226C348.892 146.36 348.892 203.426 301.731 238.56C254.532 273.722 178.01 273.722 130.812 238.56Z" fill="white"/>
<path d="M222.065 120.324L218.941 120.095L222.066 120.324" fill="#9BC3D3"/>
<path d="M246.209 122.093L237.594 121.461L246.209 122.093Z" fill="#9BC3D3"/>
<path fill-rule="evenodd" clip-rule="evenodd" d="M308.819 242.374C308.819 249.693 249.91 255.626 177.242 255.626C104.573 255.626 45.6641 249.693 45.6641 242.374C45.6641 235.054 104.573 229.121 177.242 229.121C249.91 229.121 308.819 235.054 308.819 242.374Z" fill="#CEDEE7"/>
<path fill-rule="evenodd" clip-rule="evenodd" d="M235.713 234.127L254.298 243.08H100.504L121.552 234.127H235.713Z" fill="#34466B"/>
<path fill-rule="evenodd" clip-rule="evenodd" d="M134.705 237.424L128.832 237.419L132.64 235.75H138.039L134.705 237.424Z" fill="#9BC3D3"/>
<path fill-rule="evenodd" clip-rule="evenodd" d="M127.541 237.417L121.668 237.412L126.054 235.75H131.453L127.541 237.417Z" fill="#9BC3D3"/>
<path fill-rule="evenodd" clip-rule="evenodd" d="M149.034 237.436L143.16 237.431L145.813 235.75H151.212L149.034 237.436Z" fill="#9BC3D3"/>
<path fill-rule="evenodd" clip-rule="evenodd" d="M141.87 237.43L135.996 237.425L139.226 235.75H144.626L141.87 237.43Z" fill="#9BC3D3"/>
<path fill-rule="evenodd" clip-rule="evenodd" d="M163.475 237.449L157.602 237.443L159.089 235.75H164.488L163.475 237.449Z" fill="#9BC3D3"/>
<path fill-rule="evenodd" clip-rule="evenodd" d="M156.311 237.442L150.438 237.438L152.504 235.75H157.903L156.311 237.442Z" fill="#9BC3D3"/>
<path fill-rule="evenodd" clip-rule="evenodd" d="M177.802 237.462L171.93 237.457L172.261 235.75H177.661L177.802 237.462Z" fill="#9BC3D3"/>
<path fill-rule="evenodd" clip-rule="evenodd" d="M170.638 237.456L164.766 237.451L165.675 235.75H171.074L170.638 237.456Z" fill="#9BC3D3"/>
<path fill-rule="evenodd" clip-rule="evenodd" d="M192.182 237.475L186.309 237.47L185.48 235.75H190.88L192.182 237.475Z" fill="#9BC3D3"/>
<path fill-rule="evenodd" clip-rule="evenodd" d="M185.018 237.469L179.145 237.463L178.895 235.75H184.294L185.018 237.469Z" fill="#9BC3D3"/>
<path fill-rule="evenodd" clip-rule="evenodd" d="M206.509 237.487L200.636 237.482L198.652 235.75H204.052L206.509 237.487Z" fill="#9BC3D3"/>
<path fill-rule="evenodd" clip-rule="evenodd" d="M199.346 237.481L193.473 237.476L192.066 235.75H197.465L199.346 237.481Z" fill="#9BC3D3"/>
<path fill-rule="evenodd" clip-rule="evenodd" d="M220.948 237.5L215.076 237.495L211.926 235.75H217.325L220.948 237.5Z" fill="#9BC3D3"/>
<path fill-rule="evenodd" clip-rule="evenodd" d="M213.788 237.493L207.916 237.488L205.344 235.75H210.743L213.788 237.493Z" fill="#9BC3D3"/>
<path fill-rule="evenodd" clip-rule="evenodd" d="M235.276 237.513L229.404 237.508L225.098 235.75H230.497L235.276 237.513Z" fill="#9BC3D3"/>
<path fill-rule="evenodd" clip-rule="evenodd" d="M228.117 237.507L222.243 237.502L218.516 235.75H223.915L228.117 237.507Z" fill="#9BC3D3"/>
<path fill-rule="evenodd" clip-rule="evenodd" d="M130.912 239.435L124.469 239.424L128.262 237.756L134.231 237.761L130.912 239.435Z" fill="#9BC3D3"/>
<path fill-rule="evenodd" clip-rule="evenodd" d="M123.052 239.423L116.609 239.411L120.98 237.748L126.949 237.755L123.052 239.423Z" fill="#9BC3D3"/>
<path fill-rule="evenodd" clip-rule="evenodd" d="M146.626 239.463L140.184 239.451L142.82 237.77L148.789 237.775L146.626 239.463Z" fill="#9BC3D3"/>
<path fill-rule="evenodd" clip-rule="evenodd" d="M138.77 239.449L132.328 239.437L135.542 237.762L141.511 237.769L138.77 239.449Z" fill="#9BC3D3"/>
<path fill-rule="evenodd" clip-rule="evenodd" d="M162.466 239.491L156.023 239.48L157.496 237.785L163.464 237.791L162.466 239.491Z" fill="#9BC3D3"/>
<path fill-rule="evenodd" clip-rule="evenodd" d="M154.61 239.478L148.168 239.466L150.217 237.779L156.187 237.785L154.61 239.478Z" fill="#9BC3D3"/>
<path fill-rule="evenodd" clip-rule="evenodd" d="M178.185 239.52L171.742 239.508L172.058 237.801L178.027 237.807L178.185 239.52Z" fill="#9BC3D3"/>
<path fill-rule="evenodd" clip-rule="evenodd" d="M170.33 239.506L163.887 239.494L164.781 237.793L170.75 237.799L170.33 239.506Z" fill="#9BC3D3"/>
<path fill-rule="evenodd" clip-rule="evenodd" d="M193.959 239.546L187.516 239.536L186.672 237.816L192.641 237.823L193.959 239.546Z" fill="#9BC3D3"/>
<path fill-rule="evenodd" clip-rule="evenodd" d="M186.103 239.534L179.66 239.523L179.395 237.809L185.364 237.815L186.103 239.534Z" fill="#9BC3D3"/>
<path fill-rule="evenodd" clip-rule="evenodd" d="M209.678 239.575L203.235 239.563L201.234 237.83L207.204 237.837L209.678 239.575Z" fill="#9BC3D3"/>
<path fill-rule="evenodd" clip-rule="evenodd" d="M201.818 239.562L195.375 239.55L193.953 237.824L199.922 237.83L201.818 239.562Z" fill="#9BC3D3"/>
<path fill-rule="evenodd" clip-rule="evenodd" d="M225.518 239.605L219.076 239.593L215.91 237.848L221.879 237.854L225.518 239.605Z" fill="#9BC3D3"/>
<path fill-rule="evenodd" clip-rule="evenodd" d="M217.663 239.59L211.221 239.579L208.633 237.84L214.601 237.846L217.663 239.59Z" fill="#9BC3D3"/>
<path fill-rule="evenodd" clip-rule="evenodd" d="M241.236 239.634L234.793 239.622L230.473 237.863L236.441 237.869L241.236 239.634Z" fill="#9BC3D3"/>
<path fill-rule="evenodd" clip-rule="evenodd" d="M233.377 239.618L226.935 239.607L223.191 237.855L229.16 237.862L233.377 239.618Z" fill="#9BC3D3"/>
<path fill-rule="evenodd" clip-rule="evenodd" d="M127.025 241.395L120.027 241.378L123.82 239.709L130.344 239.721L127.025 241.395Z" fill="#9BC3D3"/>
<path fill-rule="evenodd" clip-rule="evenodd" d="M118.49 241.374L111.492 241.357L115.863 239.693L122.386 239.707L118.49 241.374Z" fill="#9BC3D3"/>
<path fill-rule="evenodd" clip-rule="evenodd" d="M144.092 241.44L137.094 241.422L139.732 239.74L146.255 239.753L144.092 241.44Z" fill="#9BC3D3"/>
<path fill-rule="evenodd" clip-rule="evenodd" d="M135.56 241.417L128.562 241.399L131.778 239.725L138.302 239.736L135.56 241.417Z" fill="#9BC3D3"/>
<path fill-rule="evenodd" clip-rule="evenodd" d="M178.138 241.524L154.301 241.464L155.772 239.77L177.996 239.812L178.138 241.524Z" fill="#9BC3D3"/>
<path fill-rule="evenodd" clip-rule="evenodd" d="M152.768 241.46L145.77 241.442L147.82 239.754L154.343 239.767L152.768 241.46Z" fill="#9BC3D3"/>
<path fill-rule="evenodd" clip-rule="evenodd" d="M195.501 241.569L188.505 241.55L187.66 239.83L194.184 239.844L195.501 241.569Z" fill="#9BC3D3"/>
<path fill-rule="evenodd" clip-rule="evenodd" d="M186.967 241.547L179.969 241.53L179.703 239.816L186.226 239.828L186.967 241.547Z" fill="#9BC3D3"/>
<path fill-rule="evenodd" clip-rule="evenodd" d="M212.576 241.61L205.579 241.592L203.578 239.859L210.102 239.872L212.576 241.61Z" fill="#9BC3D3"/>
<path fill-rule="evenodd" clip-rule="evenodd" d="M204.041 241.589L197.042 241.572L195.621 239.846L202.144 239.857L204.041 241.589Z" fill="#9BC3D3"/>
<path fill-rule="evenodd" clip-rule="evenodd" d="M229.781 241.653L222.784 241.636L219.617 239.891L226.142 239.903L229.781 241.653Z" fill="#9BC3D3"/>
<path fill-rule="evenodd" clip-rule="evenodd" d="M221.245 241.633L214.248 241.614L211.66 239.875L218.184 239.888L221.245 241.633Z" fill="#9BC3D3"/>
<path fill-rule="evenodd" clip-rule="evenodd" d="M246.85 241.696L239.852 241.678L235.531 239.92L242.055 239.933L246.85 241.696Z" fill="#9BC3D3"/>
<path fill-rule="evenodd" clip-rule="evenodd" d="M238.319 241.676L231.321 241.657L227.578 239.906L234.102 239.918L238.319 241.676Z" fill="#9BC3D3"/>
<path fill-rule="evenodd" clip-rule="evenodd" d="M100.504 245.53H254.298V243.08H100.504V245.53Z" fill="#9BC3D3"/>
<path fill-rule="evenodd" clip-rule="evenodd" d="M192.284 219.068C189.026 214.211 188.729 207.664 188.729 207.664H167.019C167.019 207.664 166.723 214.211 163.464 219.068C160.205 223.924 153.391 226.959 153.391 226.959H202.358C202.358 226.959 195.543 223.924 192.284 219.068Z" fill="#34466B"/>
<path fill-rule="evenodd" clip-rule="evenodd" d="M277.783 64.8848C281.706 64.8848 284.886 68.0733 284.886 72.0075V204.401C284.886 208.335 281.706 211.525 277.783 211.525H77.4102C73.4882 211.525 70.3086 208.335 70.3086 204.401V72.0075C70.3086 68.0733 73.4882 64.8848 77.4102 64.8848H277.783ZM273.329 72.0454H81.2005C79.4819 72.0454 78.0894 73.4423 78.0894 75.1653V180.577C78.0894 182.3 79.4819 183.697 81.2005 183.697H273.329C275.047 183.697 276.441 182.3 276.441 180.577V75.1653C276.441 73.4423 275.047 72.0454 273.329 72.0454Z" fill="#34466B"/>
<path fill-rule="evenodd" clip-rule="evenodd" d="M70.3086 191.127V204.382C70.3086 208.326 73.4882 211.524 77.4102 211.524H277.783C281.706 211.524 284.886 208.326 284.886 204.382V191.127H70.3086Z" fill="#9BC3D3"/>
<path fill-rule="evenodd" clip-rule="evenodd" d="M203.76 229.165H152.536C152.096 229.165 151.738 228.806 151.738 228.364V224.454C151.738 224.011 152.096 223.652 152.536 223.652H203.76C204.2 223.652 204.557 224.011 204.557 224.454V228.364C204.557 228.806 204.2 229.165 203.76 229.165Z" fill="#9BC3D3"/>
<path fill-rule="evenodd" clip-rule="evenodd" d="M178.438 206.561H177.304C174.427 206.561 172.094 204.223 172.094 201.34V200.205C172.094 197.322 174.427 194.984 177.304 194.984H178.438C181.315 194.984 183.648 197.322 183.648 200.205V201.34C183.648 204.223 181.315 206.561 178.438 206.561Z" fill="#34466B"/>
<path fill-rule="evenodd" clip-rule="evenodd" d="M237.459 132.136C237.459 111.128 220.462 94.0977 199.495 94.0977C178.528 94.0977 161.531 111.128 161.531 132.136C161.531 153.144 178.528 170.174 199.495 170.174C220.462 170.174 237.459 153.144 237.459 132.136Z" fill="#34466B"/>
<path fill-rule="evenodd" clip-rule="evenodd" d="M230.424 109.597C229.033 110.185 227.136 111.606 227.285 113.328C227.533 116.199 229.353 115.608 229.023 117.212C228.692 118.816 226.706 118.816 226.209 120.505C225.713 122.193 224.637 125.908 226.127 127.681C227.616 129.455 229.602 127.935 230.512 129.286C231.422 130.636 231.753 132.325 233.408 132.072C234.178 131.954 235.837 131.056 237.455 130.151C237.455 126.891 236.652 123.632 235.639 120.559C234.283 116.442 232.276 112.654 230.424 109.597ZM191.553 120.706C190.61 121.019 190.419 122.01 191.553 122.358C192.686 122.705 194.168 122.358 194.081 121.749C193.994 121.141 192.337 120.445 191.553 120.706ZM183.044 119.165C182.962 120.057 189.3 122.109 189.3 121.128C189.3 120.146 185.678 118.63 184.937 118.541C183.618 118.382 183.126 118.273 183.044 119.165ZM203.64 104.071C203.808 103.499 202.547 102.846 202.211 102.682C200.999 102.094 200.782 103.663 201.455 104.398C202.127 105.133 203.472 104.643 203.64 104.071ZM207.017 132.388C203.76 131.886 202.842 132.723 202.842 132.723L196.746 127.36C196.746 127.36 187.394 129.455 186.224 129.204C185.055 128.953 182.049 128.785 181.966 127.109C181.882 125.433 183.469 123.673 181.381 122.332C179.294 120.991 174.701 121.997 174.116 121.159C173.532 120.321 173.699 116.047 175.62 114.539C177.54 113.03 181.465 112.443 182.634 113.533C183.803 114.622 182.801 116.885 184.053 117.052C185.306 117.22 184.137 112.611 185.64 111.522C187.143 110.432 188.062 110.684 188.98 109.762C189.899 108.84 189.231 107.583 190.65 106.996C192.07 106.41 197.999 106.242 198.416 104.65C198.834 103.058 194.742 102.89 194.992 102.22C195.243 101.549 200.504 103.309 200.754 101.382C201.005 99.4543 195.16 96.186 193.155 96.8564C191.151 97.5268 189.815 102.052 188.229 101.549C186.642 101.046 183.803 98.4487 185.306 97.3591C186.809 96.2697 189.815 97.7783 190.4 96.4372C190.673 95.8105 190.571 95.8823 190.085 95.2559C184.526 96.4377 178.411 99.9105 173.909 104.021C170.809 106.851 168.462 109.81 166.646 112.952C166.509 116.187 166.24 120.168 167.102 119.902C168.187 119.567 167.937 111.773 168.772 113.03C169.607 114.287 168.605 118.896 169.607 120.656C170.609 122.416 171.444 121.913 171.444 121.913C171.444 121.913 173.281 123.924 174.45 123.17C174.116 123.84 176.287 127.025 178.375 128.031C180.463 129.036 183.636 128.45 185.055 130.377C186.475 132.305 185.89 134.148 185.89 134.148C185.89 134.148 183.552 136.495 183.97 139.428C183.886 139.511 182.3 138.674 182.717 141.355C183.135 144.037 190.817 147.976 191.235 150.322C191.652 152.668 190.817 164.485 191.235 166.58C191.476 167.79 191.9 169.348 192.395 169.513C192.891 169.678 193.749 169.774 194.376 169.844C194.708 169.881 195.201 169.99 195.366 169.844C195.94 169.336 195.41 167.837 195.41 167.837L201.589 161.216C201.589 161.216 204.929 160.462 207.601 157.696C210.274 154.931 219.209 143.785 217.873 140.35C216.537 136.914 211.693 137.165 211.693 137.165C211.693 137.165 210.274 132.891 207.017 132.388Z" fill="#9BC3D3"/>
<path fill-rule="evenodd" clip-rule="evenodd" d="M206.993 132.137C203.738 131.633 202.82 132.474 202.82 132.474L196.727 127.094C196.727 127.094 187.38 129.195 186.212 128.943C185.043 128.691 182.039 128.523 181.955 126.842C181.872 125.161 183.458 123.395 181.371 122.05C179.285 120.705 174.694 121.714 174.11 120.874C173.526 120.033 173.693 115.746 175.612 114.233C177.532 112.72 181.454 112.132 182.623 113.224C183.791 114.317 182.79 116.587 184.042 116.755C185.293 116.923 184.125 112.3 185.627 111.207C187.13 110.114 188.048 110.366 188.966 109.442C189.884 108.517 189.216 107.256 190.635 106.668C192.054 106.08 197.979 105.911 198.397 104.314C198.814 102.717 194.724 102.549 194.975 101.877C195.225 101.204 200.483 102.969 200.733 101.036C200.956 99.3157 196.357 96.5331 193.929 96.4141C193.647 96.4456 193.365 96.4804 193.084 96.5186C191.112 97.254 189.786 101.704 188.215 101.204C187.187 100.877 167.934 111.459 168.769 112.72C169.603 113.981 168.602 118.604 169.603 120.369C170.605 122.135 171.439 121.63 171.439 121.63C171.439 121.63 173.275 123.647 174.444 122.891C174.11 123.563 176.28 126.758 178.366 127.766C180.453 128.775 183.624 128.187 185.043 130.12C186.462 132.053 185.878 133.903 185.878 133.903C185.878 133.903 183.541 136.256 183.958 139.198C183.875 139.282 182.289 138.442 182.706 141.131C183.123 143.821 190.802 147.772 191.219 150.126C191.636 152.479 190.802 164.332 191.219 166.433C191.447 167.581 191.937 168.414 192.559 169.183C193.407 169.312 194.334 169.775 195.2 169.844C195.874 169.049 195.392 167.694 195.392 167.694L201.568 161.053C201.568 161.053 204.906 160.297 207.577 157.523C210.248 154.749 219.178 143.569 217.842 140.123C216.507 136.676 211.667 136.929 211.667 136.929C211.667 136.929 210.248 132.642 206.993 132.137Z" fill="#9BC3D3"/>
<path fill-rule="evenodd" clip-rule="evenodd" d="M170.687 109.539C170.386 109.987 170.086 110.413 169.786 110.816L169.464 110.324C169.759 109.928 170.055 109.509 170.352 109.066L170.687 109.539ZM168.422 111.896C168.09 112.251 167.76 112.581 167.433 112.888L167.163 112.427C167.483 112.126 167.806 111.802 168.132 111.454L168.422 111.896ZM165.484 114.339C165.127 114.669 164.772 114.966 164.421 115.231L164.194 114.651C164.536 114.393 164.881 114.104 165.229 113.781L165.484 114.339ZM162.535 115.966C162.133 116.191 161.736 116.376 161.344 116.524L161.195 115.919C161.572 115.777 161.955 115.598 162.344 115.381L162.535 115.966ZM159.331 117.014C159.231 117.032 159.131 117.048 159.032 117.062C158.687 117.111 158.347 117.133 158.014 117.132L157.978 116.543C158.296 116.544 158.62 116.523 158.95 116.476C159.045 116.463 159.14 116.448 159.236 116.43L159.331 117.014ZM155.628 117.122C155.188 117.045 154.763 116.928 154.354 116.775L154.459 116.284C154.845 116.429 155.248 116.54 155.665 116.613L155.628 117.122ZM152.509 116.241C152.077 115.939 151.667 115.594 151.28 115.212L151.516 114.711C151.882 115.072 152.271 115.399 152.679 115.684L152.509 116.241ZM149.959 114.043C149.563 113.652 149.201 113.234 148.875 112.793L149.3 112.465C149.61 112.883 149.953 113.28 150.329 113.651L149.959 114.043ZM147.771 110.937C147.488 110.357 147.249 109.76 147.056 109.154L147.587 108.958C147.77 109.532 147.997 110.098 148.265 110.647L147.771 110.937ZM147.218 107.644L146.686 107.728L146.665 107.582C146.594 107.076 146.567 106.571 146.585 106.072L147.123 106.093C147.105 106.558 147.131 107.032 147.197 107.507C147.204 107.552 147.21 107.598 147.218 107.644ZM146.689 104.18C146.842 103.641 147.062 103.12 147.351 102.629L147.841 102.889C147.576 103.339 147.374 103.817 147.233 104.315L146.689 104.18ZM148.484 101.383C148.773 100.998 149.109 100.651 149.495 100.35L149.74 100.83C149.382 101.109 149.072 101.429 148.808 101.783L148.484 101.383ZM151.474 99.7352C151.861 99.5806 152.28 99.4558 152.732 99.3644L152.821 99.8368C152.39 99.924 151.994 100.042 151.63 100.188L151.474 99.7352ZM154.773 98.8568C155.185 98.8336 155.618 98.8339 156.075 98.8595L156.067 99.3426C155.624 99.3176 155.205 99.3174 154.808 99.34L154.773 98.8568ZM158.091 99.2992C158.566 99.4832 158.984 99.7564 159.343 100.105L159.065 100.498C158.752 100.194 158.388 99.9553 157.966 99.7914L158.091 99.2992ZM160.755 101.197C161.038 101.653 161.252 102.162 161.403 102.716L160.821 102.858C160.68 102.342 160.482 101.875 160.228 101.466L160.755 101.197ZM161.684 104.866C161.728 105.388 161.741 105.933 161.726 106.497L161.242 106.465C161.257 105.921 161.244 105.397 161.202 104.901L161.684 104.866ZM161.573 107.988C161.515 108.597 161.435 109.219 161.333 109.85L160.813 109.702C160.912 109.086 160.99 108.479 161.047 107.887L161.573 107.988ZM161.19 111.469C161.018 111.977 160.825 112.489 160.614 113.003L160.049 112.838C160.256 112.333 160.445 111.83 160.614 111.333L161.19 111.469ZM159.668 114.69C159.462 115.188 159.241 115.685 159.006 116.178L158.512 115.95C158.742 115.464 158.96 114.976 159.163 114.486L159.668 114.69ZM158.276 118.214C158.044 118.702 157.799 119.184 157.544 119.657L157.105 119.367C157.356 118.901 157.596 118.427 157.825 117.948L158.276 118.214ZM156.502 120.831C156.245 121.307 155.978 121.771 155.702 122.222L155.313 121.861C155.583 121.419 155.845 120.963 156.097 120.496L156.502 120.831ZM154.117 123.725C153.835 124.185 153.543 124.626 153.243 125.045L152.905 124.592C153.198 124.183 153.482 123.753 153.758 123.303L154.117 123.725ZM152.032 125.69C151.709 126.048 151.377 126.382 151.037 126.687L150.773 126.218C151.102 125.924 151.423 125.601 151.738 125.252L152.032 125.69ZM148.737 128.201C148.363 128.454 147.98 128.671 147.589 128.849L147.423 128.335C147.794 128.166 148.16 127.959 148.519 127.716L148.737 128.201ZM145.849 129.2C145.693 129.236 145.537 129.265 145.379 129.288C145.1 129.327 144.819 129.344 144.534 129.337L144.503 128.743C144.769 128.749 145.034 128.733 145.296 128.696C145.444 128.675 145.592 128.648 145.739 128.614L145.849 129.2ZM142.389 129.208C141.965 129.073 141.535 128.877 141.103 128.619L141.224 128.036C141.631 128.28 142.034 128.463 142.433 128.59L142.389 129.208ZM139.301 128.318C138.9 128.01 138.499 127.655 138.098 127.25L138.361 126.781C138.745 127.169 139.129 127.509 139.509 127.801L139.301 128.318ZM136.603 125.816C136.18 125.402 135.837 124.957 135.56 124.487L136.07 124.221C136.325 124.654 136.638 125.061 137.028 125.442L136.603 125.816ZM134.905 122.83C134.762 122.344 134.66 121.838 134.587 121.314L134.572 121.207L135.128 121.133L135.142 121.235C135.213 121.739 135.31 122.22 135.444 122.677L134.905 122.83ZM134.544 119.668C134.515 119.146 134.498 118.608 134.484 118.055L134.984 118.052C134.998 118.602 135.015 119.134 135.044 119.647L134.544 119.668ZM134.77 115.959C134.757 115.439 134.74 114.908 134.714 114.364L135.211 114.348C135.237 114.898 135.254 115.434 135.267 115.956L134.77 115.959ZM133.789 112.82C133.748 112.291 133.693 111.753 133.617 111.206L134.217 111.122C134.295 111.681 134.352 112.229 134.393 112.767L133.789 112.82ZM133.738 108.965C133.636 108.457 133.514 107.943 133.371 107.42L133.863 107.277C134.01 107.812 134.134 108.34 134.24 108.859L133.738 108.965Z" fill="#34466B"/>
<path fill-rule="evenodd" clip-rule="evenodd" d="M124.347 99.0122L146.806 96.6667L117.994 95.3408L124.347 99.0122Z" fill="#EC0000"/>
<path fill-rule="evenodd" clip-rule="evenodd" d="M123.07 110.341L146.726 96.6564L123.231 107.242L123.07 110.341Z" fill="#990000"/>
<path fill-rule="evenodd" clip-rule="evenodd" d="M118.072 95.34L123.249 99.9124L123.144 101.933L124.375 99.9717L146.884 96.6687L124.428 98.9655L118.072 95.34Z" fill="#990000"/>
<path fill-rule="evenodd" clip-rule="evenodd" d="M146.824 96.6535L118.068 109.798L124.201 99.9909L146.824 96.6535Z" fill="#EC0000"/>
<path fill-rule="evenodd" clip-rule="evenodd" d="M276.633 73.6637C276.633 72.4685 275.138 71.5 273.293 71.5H81.3525C79.5071 71.5 78.0117 72.4685 78.0117 73.6637V79.7426H276.633V73.6637Z" fill="#CCCCCC"/>
<path fill-rule="evenodd" clip-rule="evenodd" d="M259.855 75.6816C259.855 76.5257 259.172 77.2103 258.33 77.2103C257.487 77.2103 256.805 76.5257 256.805 75.6816C256.805 74.8383 257.487 74.1543 258.33 74.1543C259.172 74.1543 259.855 74.8383 259.855 75.6816Z" fill="#34466B"/>
<path fill-rule="evenodd" clip-rule="evenodd" d="M266.074 75.6816C266.074 76.5257 265.391 77.2103 264.549 77.2103C263.706 77.2103 263.023 76.5257 263.023 75.6816C263.023 74.8383 263.706 74.1543 264.549 74.1543C265.391 74.1543 266.074 74.8383 266.074 75.6816Z" fill="#34466B"/>
<path fill-rule="evenodd" clip-rule="evenodd" d="M270.763 77.2103C269.921 77.2103 269.238 76.5257 269.238 75.6816C269.238 74.8383 269.921 74.1543 270.763 74.1543C271.605 74.1543 272.288 74.8383 272.288 75.6816C272.288 76.5257 271.605 77.2103 270.763 77.2103Z" fill="#34466B"/>
<path d="M72.6304 146.294C74.6451 143.681 75.7083 140.306 75.9881 138.945C75.9881 138.945 75.9881 138.537 76.268 138.537C76.4918 138.537 77.4805 139.354 77.9468 139.762L79.066 143.028C79.6256 144.661 79.9055 147.519 79.6256 149.152C79.3458 150.784 78.2266 153.642 75.9881 160.174C73.7497 166.706 63.3968 166.298 61.4381 166.706C59.4795 167.114 57.241 163.032 58.6401 156.908C60.0391 150.784 70.1122 149.56 72.6304 146.294Z" fill="#9E3667"/>
<g clip-path="url(#clip0_20025_128354)">
<path fill-rule="evenodd" clip-rule="evenodd" d="M78.9499 145.507C77.3949 142.883 77.0587 139.579 78.3306 136.562C80.4528 131.527 86.2536 129.183 91.2764 131.33C95.9141 133.312 98.2773 138.435 96.9417 143.172C96.8421 143.682 96.7137 144.187 96.563 144.681L96.5628 144.682L96.56 144.693L96.5587 144.697C96.5135 144.845 96.4664 144.992 96.4175 145.138L94.0772 152.445L92.4487 152.314L92.4324 152.311L92.4323 152.311C92.3452 152.418 92.2976 152.476 92.2976 152.476L91.8575 153.412L91.0372 155.162C90.7647 155.74 90.3986 156.265 89.9559 156.716C89.645 157.035 89.2928 157.318 88.9079 157.555C88.4561 157.833 87.9664 158.047 87.4607 158.188C87.1968 158.263 86.9278 158.315 86.6558 158.348C86.5118 158.365 86.3705 158.378 86.2262 158.384L86.2252 158.384L82.1513 169.765C82.1513 169.765 78.5009 169.359 75.2821 167.067C73.3349 165.686 71.5451 163.61 70.8135 160.523C70.8135 160.523 76.5859 152.537 78.9499 145.507Z" fill="#FFC4B8"/>
<path fill-rule="evenodd" clip-rule="evenodd" d="M75.3632 166.953C73.4163 165.572 71.6272 163.496 70.8959 160.41C70.8959 160.41 77.0999 151.863 79.2592 144.648C79.2592 144.648 79.1082 159.048 75.3632 166.953ZM92.4173 152.359C91.8562 152.292 91.5304 151.689 91.7821 151.183L93.405 147.92L92.4173 152.359Z" fill="#F4A48D"/>
<path fill-rule="evenodd" clip-rule="evenodd" d="M77.4174 132.592C77.6385 131.757 77.962 130.976 78.3706 130.26C80.5229 126.495 85.048 124.521 89.4891 125.737C93.9772 126.966 99.5111 129.234 99.4148 136.551L99.4146 136.557L99.4429 139.502L99.4639 141.561L99.4724 142.443L99.4724 142.443L101.661 145.094C102.084 145.665 101.64 146.456 100.933 146.389L87.4829 144.266C87.1202 144.232 86.7625 144.16 86.4135 144.053C85.8693 143.886 84.9571 143.597 83.8773 143.223C83.5484 145.27 83.0587 147.286 82.4132 149.255L80.3292 155.604C80.321 155.63 80.3122 155.654 80.3017 155.679C80.1611 156.013 79.8417 156.242 79.4708 156.266C79.1697 156.285 78.8856 156.168 78.687 155.963C78.562 155.833 78.4715 155.67 78.4302 155.486L77.0595 149.301C77.2437 148.669 77.4119 148.016 77.5608 147.346L77.7004 147.357L77.9518 148.241L79.5912 154.006L81.1808 149.055C81.8386 147.008 82.3272 144.91 82.6428 142.783C80.806 142.108 78.7384 141.256 77.2062 140.363C73.7196 138.332 74.924 137.477 74.924 137.477C74.924 137.477 75.3067 137.693 75.9753 138.044L77.4168 132.592L77.4174 132.592Z" fill="#FFCC33"/>
<path fill-rule="evenodd" clip-rule="evenodd" d="M83.4118 141.844C83.4118 141.844 78.8722 140.391 75.6285 138.972L77.2133 132.981C77.4332 132.151 77.7548 131.375 78.1605 130.664C78.8181 131.104 79.5523 131.646 80.2721 132.282C82.1381 133.927 83.9054 136.197 83.9701 138.947C83.9915 139.861 83.8259 140.83 83.4118 141.844Z" fill="#34466B"/>
<path fill-rule="evenodd" clip-rule="evenodd" d="M26.922 230.315C28.4366 229.515 29.6868 229.5 31.5454 230.513C33.0995 231.361 33.2745 233.159 32.9793 236.372C32.5197 241.41 32.4261 243.553 36.1157 246.987C36.7164 247.544 36.8771 248.379 36.521 249.853C36.521 249.853 29.4976 250.481 27.7308 249.534C26.4178 248.831 23.8106 244.051 23.8521 240.195C23.8684 238.727 24.645 231.517 26.922 230.315ZM75.1664 237.753L84.8451 238.632C89.3645 245.14 89.0671 244.559 95.6487 245.436C97.7007 245.709 98.3628 246.148 98.3115 248.298C95.912 248.479 91.7814 248.568 87.5819 248.608L86.5868 248.617L85.9244 248.622C84.2709 248.633 82.6408 248.637 81.1361 248.638L80.2493 248.638C76.7685 248.636 74.1288 248.614 73.7433 248.611L73.6947 248.611C73.2927 244.979 73.8697 241.385 75.1664 237.753Z" fill="black"/>
<path fill-rule="evenodd" clip-rule="evenodd" d="M97.7413 208.148C97.7736 205.068 96.7443 202.249 91.66 202.702L71.1941 205.279L65.291 204.589L50.7827 208.217L49.9219 226.533C55.5874 228.284 69.6117 224.972 75.1638 222.493C76.4614 221.914 77.7164 221.388 78.9597 220.901L74.4388 238.212L87.2953 241.324L97.5457 210.732H97.5469C97.7703 209.836 97.8405 208.961 97.7413 208.148Z" fill="#732645"/>
<path fill-rule="evenodd" clip-rule="evenodd" d="M68.5902 159.557C63.6218 161.432 61.1341 162.715 58.7888 165.844C52.9779 173.602 52.4746 181.033 50.0811 188.782C47.6871 196.53 48.969 195.859 46.0544 201.464C46.0625 201.514 46.0711 201.563 46.0798 201.612C44.4441 204.525 43.1789 207.198 42.2706 210.969C40.4752 218.435 43.2777 223.224 46.8974 229.803L42.1332 228.755L30.0764 229.518C27.2168 233.432 27.1389 236.432 29.9554 240.346L58.0497 248.57C64.2905 250.577 73.7774 251.109 72.1486 244.069L72.0799 243.926C72.0352 242.929 71.66 242.159 71.2321 240.841L65.0554 221.819L68.609 217.504L69.837 209.259C74.9387 204.288 73.8728 201.428 75.1152 195.132C75.7439 194.302 76.3042 193.508 76.806 192.74C75.0779 191.442 75.4344 189.478 76.8442 183.677C78.4022 177.257 77.2426 168.809 73.8147 163.507C72.6387 161.687 70.8865 160.146 68.5902 159.557ZM53.2563 184.241L57.8841 170.158C67.6576 154.419 76.5147 166.682 72.9053 178.158L67.6729 189.193C65.1033 194.534 60.8032 205.108 53.7088 201.534C47.2887 198.296 51.3944 189.903 53.2563 184.241Z" fill="#9E3667"/>
<path fill-rule="evenodd" clip-rule="evenodd" d="M77.4293 194.689C88.1518 197.552 95.1892 196.86 106.438 198.357C106.992 194.837 107.051 196.056 107.868 194.411C107.868 194.411 89.8247 187.66 80.871 184.558C79.2639 183.999 74.0386 176.249 73.0628 176.305C68.6003 176.562 64.0075 181.452 66.8827 186.568C67.7863 188.176 76.9953 194.532 77.4293 194.689Z" fill="#F4A48D"/>
<path fill-rule="evenodd" clip-rule="evenodd" d="M115.964 193.147C115.957 193.144 115.95 193.14 115.942 193.137C114.695 192.673 113.293 192.195 112.222 192.129C110.741 192.037 109.238 192.759 107.895 193.304L107.819 193.275L100.429 190.674L96.2344 198.027L105.048 199.224C105.497 199.78 105.975 200.789 106.744 200.98L111.38 202.138C112.021 202.298 113.265 202.254 113.415 201.605L113.872 199.629C113.91 199.467 113.235 198.64 113.131 197.833L114.408 198.203L117.025 201.422C117.32 201.782 120.154 202.35 120.578 202.161C120.595 202.153 120.612 202.145 120.629 202.136C121.162 203.296 122.914 202.5 122.398 201.315L120.376 196.684C120.353 196.635 120.328 196.591 120.302 196.547C120.233 196.382 120.06 196.164 119.8 195.97L116.047 193.175L115.964 193.147Z" fill="#D39E00"/>
</g>
<path fill-rule="evenodd" clip-rule="evenodd" d="M74.3767 153.25C65.5682 156.477 62.0401 157.652 58.7594 162.039C52.1986 170.811 51.6309 179.214 48.9282 187.976C46.2254 196.737 47.6727 195.978 44.3828 202.317C52.3211 207.713 59.0078 210.444 67.306 211.722C73.5301 205.728 75.7398 202.521 77.191 195.157C85.7286 183.86 83.3598 178.302 83.9356 164.612L74.3767 153.25Z" fill="#FFCC33"/>
<path fill-rule="evenodd" clip-rule="evenodd" d="M75.9099 150.333C78.4431 156.211 81.8559 159.464 85.8881 162.657L83.0359 168.599C76.5943 163.787 74.3089 157.217 73.3521 152.778L75.9099 150.333Z" fill="#D39E00"/>
<path fill-rule="evenodd" clip-rule="evenodd" d="M75.7487 200.114C73.7721 190.42 74.8561 185.736 73.7567 174.525C72.9774 166.561 70.5275 162.654 64.9253 163.321C54.9052 164.516 58.6151 184.261 59.6042 189.884C60.6127 195.606 63.9058 205.761 67.192 209.781C67.5101 210.24 67.909 210.641 68.3941 210.961C68.6565 211.152 68.9172 211.294 69.1748 211.382C69.1977 211.389 69.2206 211.395 69.2435 211.401C69.6124 211.546 70.0174 211.653 70.4602 211.715C80.9809 213.014 91.5957 209.819 102.435 209.755C102.5 206.352 102.009 205.683 102.564 204.021C102.564 204.021 85.685 201.834 75.7487 200.114Z" fill="#FFC4B8"/>
<path fill-rule="evenodd" clip-rule="evenodd" d="M101.924 203.753C103.41 203.605 108.081 201.511 110.159 201.213C111.647 201.001 111.694 201.119 113.054 201.53C114.138 201.859 115.768 202.154 115.942 202.214C116.201 202.302 118.192 204.11 118.192 204.11C118.96 205.906 119.645 206.689 118.809 207.204C118.301 207.518 117.638 206.854 116.41 205.347L115.561 204.778C116.209 205.471 116.738 205.984 116.906 206.806C117.056 207.532 116.963 208.559 115.574 208.798C115.242 208.854 115.255 208.563 115.12 208.231L114.758 207.348C113.708 207.051 112.781 206.748 111.752 206.392C113.135 206.979 113.958 207.395 114.345 207.828C114.896 208.436 114.438 208.998 113.98 209.549C113.338 210.324 112.372 209.037 110.218 208.459C110.928 208.767 111.992 209.116 112.439 209.789C112.866 210.432 112.039 210.831 111.419 210.886C109.14 211.082 105.572 211.041 103.218 210.662C102.126 210.487 101.38 209.68 100.647 209.746L96.7969 210.17L96.9898 203.126L101.924 203.753Z" fill="#FFCC33"/>
<path fill-rule="evenodd" clip-rule="evenodd" d="M58.0019 189.853L73.723 187.112C73.6205 183.44 73.5846 179.519 73.0363 174.118C72.2073 165.962 69.6057 161.957 63.6547 162.639C53.0105 163.864 56.9504 184.092 58.0019 189.853Z" fill="#D39E00"/>
<path fill-rule="evenodd" clip-rule="evenodd" d="M59.6038 189.85L74.4003 187.178C74.3034 183.599 74.2698 179.775 73.753 174.508C72.9739 166.555 70.5247 162.651 64.9237 163.317C54.9059 164.511 58.6149 184.233 59.6038 189.85Z" fill="#FFCC33"/>
<path fill-rule="evenodd" clip-rule="evenodd" d="M259.872 261.426C259.695 262.507 256.035 263.765 256.035 263.765L249.517 265.142L250.121 266.011L258.957 266.011L256.492 266.48L257.356 267.461H280.117V262.286L269.741 262.286L269.741 261.426H259.872Z" fill="#34466B"/>
<path fill-rule="evenodd" clip-rule="evenodd" d="M256.474 175.877L254.807 220.106L258.945 262.354L267.765 262.757H270.132L270.239 260.524L270.707 257.539L274.704 216.514L280.172 175.877H256.474Z" fill="#9BC3D3"/>
<path fill-rule="evenodd" clip-rule="evenodd" d="M286.449 175.877L280.53 219.499L280.938 263.121H268.164L261.007 219.499L259.885 175.877H286.449Z" fill="#CEDEE7"/>
<path fill-rule="evenodd" clip-rule="evenodd" d="M277.103 92.8379C279.513 91.1143 281.078 88.336 281.078 85.2047C281.078 79.9801 276.721 75.7383 271.354 75.7383C266.399 75.7383 262.304 79.3547 261.705 84.022C261.601 84.5083 261.525 84.9999 261.472 85.4914L261.472 85.4923L261.471 85.5031L261.47 85.5069C261.455 85.6539 261.441 85.8009 261.43 85.9477L260.76 93.2525L262.284 93.7492L262.3 93.7527L262.3 93.7527C262.338 93.88 262.359 93.9488 262.359 93.9488L262.401 94.9369L262.476 96.7839C262.501 97.395 262.633 97.9939 262.861 98.557C263.021 98.9544 263.232 99.3351 263.49 99.6884C263.793 100.103 264.155 100.475 264.559 100.789C264.769 100.954 264.993 101.101 265.226 101.232C265.35 101.302 265.473 101.365 265.602 101.425L265.602 101.426L264.948 112.964C264.948 112.964 268.408 113.979 272.196 113.174C274.487 112.691 276.899 111.539 278.74 109.099C278.74 109.099 276.561 99.9074 277.103 92.8379Z" fill="#A66555"/>
<path fill-rule="evenodd" clip-rule="evenodd" d="M272.16 113.037C274.45 112.554 276.863 111.402 278.703 108.962C278.703 108.962 276.347 99.1134 277.146 91.9559C277.146 91.9559 271.786 104.677 272.16 113.037ZM262.286 93.7905C262.82 93.9429 263.345 93.5348 263.31 92.995L263.086 89.5156L262.286 93.7905Z" fill="#723846"/>
<path fill-rule="evenodd" clip-rule="evenodd" d="M262.072 84.2048L262.606 84.1178C265.523 83.4613 266.314 82.1795 268.881 80.5831C269.132 82.5642 270.157 84.3343 271.718 85.9586L271.687 86.0021C270.369 88.0232 268.762 91.6087 269.042 92.9761C269.093 93.2242 270.083 94.3883 271.185 94.9328C273.07 95.864 274.107 92.4021 274.11 92.3923C273.56 91.8147 273.308 90.7737 273.512 89.6514L273.518 89.6166L273.525 89.5839L273.527 89.5745L273.532 89.5501L273.534 89.5404L273.54 89.5075L273.548 89.471L273.551 89.459L273.557 89.4346L273.56 89.4204L273.565 89.3985L273.569 89.3834L273.574 89.3624L273.578 89.347L273.583 89.3264L273.587 89.311L273.593 89.2906L273.597 89.2752L273.602 89.2547L273.607 89.2397L273.613 89.2187L273.617 89.2044L273.623 89.1821L273.627 89.1694L273.635 89.1421L273.637 89.1345L273.648 89.0998L273.651 89.0904L273.659 89.0653L273.663 89.0524L273.671 89.031L273.675 89.017L273.682 88.9968L273.687 88.9824L273.694 88.9628L273.699 88.9482L273.706 88.9289L273.711 88.9144L273.718 88.8951L273.724 88.8808L273.731 88.8613L273.736 88.8475L273.744 88.8271L273.749 88.8144L273.758 88.7915L273.762 88.7816L273.776 88.749L273.778 88.7441L273.789 88.7166L273.794 88.7053L273.803 88.6843L273.808 88.6715L273.817 88.6523L273.823 88.6389L273.831 88.6205L273.837 88.6068L273.846 88.5888L273.852 88.5752L273.86 88.5572L273.867 88.5438L273.875 88.5257L273.882 88.5127L273.891 88.4942L273.897 88.4819L273.907 88.4619L273.912 88.4513L273.926 88.4249L273.928 88.421L273.944 88.3909L273.949 88.3816L273.96 88.361L273.966 88.3495L273.976 88.3314L273.983 88.3191L273.992 88.3019L274 88.2894L274.009 88.2727L274.016 88.2601L274.026 88.2437L274.033 88.2312L274.043 88.2147L274.05 88.2025L274.061 88.1858L274.068 88.1742L274.079 88.1567L274.085 88.1461L274.098 88.1258L274.103 88.1183L274.121 88.0908L274.125 88.0844L274.139 88.0636L274.145 88.0536L274.157 88.0366L274.164 88.0256L274.175 88.0098L274.183 87.9984L274.194 87.9832L274.202 87.9718L274.212 87.9569L274.221 87.9455L274.231 87.9308L274.24 87.9196L274.251 87.9048L274.259 87.894L274.27 87.8787L274.278 87.8687L274.291 87.852L274.297 87.8437L274.317 87.819L274.318 87.8172L274.337 87.7946L274.343 87.7862L274.356 87.7704L274.365 87.7608L274.376 87.7465L274.385 87.7364L274.397 87.7229L274.406 87.7127L274.417 87.6995L274.426 87.6894L274.438 87.6764L274.447 87.6664L274.458 87.6535L274.467 87.6438L274.48 87.6308L274.488 87.6215L274.501 87.6078L274.509 87.5995L274.525 87.5831L274.53 87.5778L274.551 87.5566L274.558 87.5499L274.573 87.5355L274.581 87.5272L274.594 87.5148L274.603 87.506L274.616 87.4943L274.625 87.4854L274.637 87.4742L274.647 87.4652L274.659 87.4543L274.669 87.4455L274.681 87.4347L274.691 87.426L274.704 87.4153L274.713 87.407L274.726 87.396L274.736 87.3883L274.75 87.3763L274.758 87.3699L274.78 87.352L274.786 87.3473L274.803 87.3343L274.812 87.3274L274.825 87.317L274.835 87.3095L274.848 87.2999L274.858 87.2923L274.871 87.2832L274.881 87.2756L274.894 87.2668L274.904 87.2593L274.917 87.2507L274.928 87.2434L274.94 87.2349L274.951 87.2278L274.964 87.2194L274.974 87.2126L274.988 87.2039L274.997 87.1978L275.014 87.1874L275.021 87.1833L275.024 87.1816L275.044 87.1695L275.054 87.1638L275.067 87.1557L275.078 87.1496L275.091 87.1423L275.102 87.1361L275.115 87.1292L275.126 87.1231L275.139 87.1166L275.15 87.1106L275.162 87.1042L275.174 87.0984L275.186 87.0922L275.201 87.0853L275.202 87.0844L275.224 87.0744L275.226 87.0735L275.247 87.0636L275.248 87.0631C275.271 87.053 275.293 87.0434 275.316 87.0343L275.317 87.0338L275.339 87.0252L275.34 87.0246L275.362 87.0163L275.364 87.0158L275.386 87.0077L275.386 87.0076C275.409 86.9994 275.432 86.9918 275.456 86.9847L275.456 86.9844L275.479 86.9777L275.48 86.9773L275.503 86.9709L275.503 86.9707C275.534 86.9621 275.565 86.9545 275.597 86.9479L275.597 86.9477L275.62 86.9431L275.621 86.9429L275.644 86.9385L275.644 86.9385C275.676 86.9328 275.707 86.9281 275.738 86.9244L275.739 86.9243L275.762 86.9218L275.763 86.9218C275.802 86.9178 275.841 86.9154 275.881 86.9146C275.978 86.9127 276.076 86.9207 276.172 86.9391C277.275 87.1496 277.886 88.6422 277.536 90.2702C277.414 90.837 277.192 91.3459 276.907 91.7597C276.947 92.2272 277 92.6852 277.064 93.1329C278.247 91.898 279.769 90.6108 280.346 88.6083C282.253 81.9942 278.396 77.0554 272.88 76.0026C267.913 75.0546 262.92 78.1317 261.451 82.3299C260.985 83.6612 260.883 87.4295 261.396 89.6785L262.072 84.2048Z" fill="#9BC3D3"/>
<path fill-rule="evenodd" clip-rule="evenodd" d="M283.391 82.0717C283.51 81.2535 283.514 80.4447 283.418 79.6605C282.907 75.5372 279.571 72.0973 275.096 71.496C270.574 70.8889 264.712 70.8028 262.013 77.2789L262.011 77.2841L260.865 79.8655L260.062 81.6693L259.719 82.4424V82.4423L256.733 83.9517C256.133 84.295 256.233 85.1589 256.897 85.3658L269.855 88.5588C270.196 88.665 270.546 88.7368 270.902 88.7737C271.457 88.8312 272.391 88.9205 273.509 88.9974C273.027 90.9224 272.702 92.8816 272.536 94.8571L272.001 101.229C271.999 101.255 271.997 101.28 271.997 101.306C271.997 101.652 272.199 101.974 272.525 102.135C272.789 102.265 273.091 102.269 273.348 102.163C273.51 102.096 273.654 101.987 273.762 101.84L277.354 96.9123C277.428 96.2864 277.525 95.6487 277.646 95.0028L277.515 94.9605L276.951 95.644L273.276 100.101L273.725 95.145C273.91 93.096 274.267 91.0658 274.792 89.0744C276.708 89.1717 278.9 89.1999 280.624 88.991C284.547 88.5152 283.784 87.3097 283.784 87.3097C283.784 87.3097 283.356 87.3558 282.619 87.413L283.392 82.0722L283.391 82.0717Z" fill="#FFCC33"/>
<path fill-rule="evenodd" clip-rule="evenodd" d="M274.47 87.9573C274.47 87.9573 279.125 88.3867 282.596 88.3586L283.446 82.4881C283.563 81.6748 283.568 80.8711 283.472 80.0918C282.71 80.2318 281.841 80.4326 280.948 80.7217C278.636 81.4673 276.174 82.8008 275.069 85.197C274.702 85.9939 274.483 86.9084 274.47 87.9573Z" fill="#34466B"/>
<path fill-rule="evenodd" clip-rule="evenodd" d="M278.903 105.008L265.081 110.531L257.061 131.927L256.819 135.734C252.403 141.628 246.258 147.294 237.39 151.03L237.391 151.033L241.968 160.049C247.064 157.847 251.665 155.053 255.785 151.951L254.083 178.621H288.863C288.863 178.621 289.06 166.734 289.099 154.575L289.104 152.75C289.105 152.345 289.105 151.94 289.105 151.536L289.105 149.124C289.097 142.935 289.032 137.137 288.863 133.334C288.315 121.067 286.999 115.704 284.618 111.414C281.758 106.263 278.903 105.008 278.903 105.008Z" fill="#FFCC33"/>
<path fill-rule="evenodd" clip-rule="evenodd" d="M236.807 153.65L232.014 152.912L229.989 153.418L229.07 156.13L223.251 160.018C223.251 160.018 222.43 161.628 224.484 163.37C226.537 165.112 229.139 163.839 229.139 163.839L239.508 159.415L236.807 153.65Z" fill="#A66555"/>
<path fill-rule="evenodd" clip-rule="evenodd" d="M237.869 151.44L235.588 152.48L239.576 160.768L241.856 159.729L237.869 151.44ZM277.406 100.555L265.106 107.125V110.839L279.598 105.283L277.406 100.555Z" fill="#D39E00"/>
<defs>
<clipPath id="clip0_20025_128354">
<rect width="99.9713" height="175.847" fill="white" transform="translate(22.3164 97.8574)"/>
</clipPath>
</defs>
</svg>
