<svg width="226" height="179" viewBox="0 0 226 179" fill="none" xmlns="http://www.w3.org/2000/svg">
<path fill-rule="evenodd" clip-rule="evenodd" d="M138.541 23.7034C139.132 24.294 139.713 24.8915 140.282 25.4957C151.739 37.6579 166.919 45.5957 183.37 48.5792C193.355 50.39 202.91 55.1495 210.63 62.8579C230.851 83.0474 230.874 115.606 210.68 135.823C201.772 144.741 190.413 149.725 178.765 150.775C168.794 151.674 159.425 156.019 152.507 163.248C152.418 163.341 152.328 163.433 152.238 163.525C140.436 175.549 121.345 175.668 109.4 163.787C109.331 163.719 109.263 163.651 109.196 163.582C106.005 160.348 101.4 158.936 96.9373 159.801C71.4943 164.735 44.1321 157.362 24.426 137.681C-7.06129 106.232 -7.06129 55.1517 24.426 23.7029C55.9386 -7.77052 107.029 -7.77034 138.541 23.7034Z" fill="#DEEDF2"/>
<rect x="104.588" y="31.0859" width="57.4004" height="62.7578" rx="5" fill="#34466B"/>
<rect x="111.404" y="54.5703" width="42.8066" height="13.998" rx="4" fill="#9BC3D3"/>
<circle cx="146.729" cy="62.3154" r="2.12793" fill="#34466B"/>
<circle cx="141.343" cy="62.3154" r="2.12793" fill="#34466B"/>
<rect x="111.404" y="35.5703" width="42.8066" height="13.998" rx="4" fill="#9BC3D3"/>
<rect x="111.404" y="78.8711" width="3.80664" height="7.48633" rx="1.90332" fill="#9BC3D3"/>
<rect x="118.195" y="78.8711" width="3.80664" height="7.48633" rx="1.90332" fill="#9BC3D3"/>
<rect x="124.986" y="78.8711" width="3.80664" height="7.48633" rx="1.90332" fill="#9BC3D3"/>
<path fill-rule="evenodd" clip-rule="evenodd" d="M63.2368 30.5156C73.7823 30.5156 82.3301 39.0458 82.3301 49.5696C82.3301 60.0934 73.7823 68.6236 63.2368 68.6236C52.6913 68.6236 44.1436 60.0934 44.1436 49.5696C44.1436 39.0458 52.6913 30.5156 63.2368 30.5156ZM76.0323 38.125L50.8213 61.4286C53.9494 64.6899 58.3553 66.7207 63.2367 66.7207C72.7277 66.7207 80.4206 59.0436 80.4206 49.5721C80.4206 45.1728 78.7609 41.1606 76.0323 38.125ZM46.0527 49.5705C46.0527 40.099 53.7457 32.4219 63.2367 32.4219C67.6323 32.4219 71.6422 34.0686 74.6808 36.7776L49.5785 59.9789C47.3667 57.0927 46.0527 53.4848 46.0527 49.5705Z" fill="#990000"/>
<path d="M154.666 52.7974L151.742 52.5836L154.666 52.7974" fill="#9BC3D3"/>
<path d="M177.258 54.4443L169.196 53.8555L177.258 54.4443Z" fill="#9BC3D3"/>
<path fill-rule="evenodd" clip-rule="evenodd" d="M209.849 169.142C209.849 174.533 166.281 178.904 112.538 178.904C58.7942 178.904 15.2266 174.533 15.2266 169.142C15.2266 163.75 58.7942 159.379 112.538 159.379C166.281 159.379 209.849 163.75 209.849 169.142Z" fill="#CEDEE7"/>
<path fill-rule="evenodd" clip-rule="evenodd" d="M154.111 158.867L167.256 165.174H58.4766L73.3637 158.867H154.111Z" fill="#34466B"/>
<path fill-rule="evenodd" clip-rule="evenodd" d="M82.6674 161.191L78.5137 161.187L81.2071 160.012H85.0257L82.6674 161.191Z" fill="#9BC3D3"/>
<path fill-rule="evenodd" clip-rule="evenodd" d="M77.6006 161.186L73.4463 161.183L76.5484 160.012H80.3676L77.6006 161.186Z" fill="#9BC3D3"/>
<path fill-rule="evenodd" clip-rule="evenodd" d="M92.8008 161.2L88.6465 161.196L90.5232 160.012H94.3418L92.8008 161.2Z" fill="#9BC3D3"/>
<path fill-rule="evenodd" clip-rule="evenodd" d="M87.7354 161.196L83.5811 161.191L85.8658 160.012H89.685L87.7354 161.196Z" fill="#9BC3D3"/>
<path fill-rule="evenodd" clip-rule="evenodd" d="M103.017 161.209L98.8623 161.204L99.9145 160.012H103.733L103.017 161.209Z" fill="#9BC3D3"/>
<path fill-rule="evenodd" clip-rule="evenodd" d="M97.9492 161.204L93.7949 161.201L95.2564 160.012H99.075L97.9492 161.204Z" fill="#9BC3D3"/>
<path fill-rule="evenodd" clip-rule="evenodd" d="M113.15 161.217L108.996 161.214L109.23 160.012H113.05L113.15 161.217Z" fill="#9BC3D3"/>
<path fill-rule="evenodd" clip-rule="evenodd" d="M108.084 161.213L103.931 161.21L104.574 160.012H108.393L108.084 161.213Z" fill="#9BC3D3"/>
<path fill-rule="evenodd" clip-rule="evenodd" d="M123.321 161.227L119.167 161.223L118.581 160.012H122.4L123.321 161.227Z" fill="#9BC3D3"/>
<path fill-rule="evenodd" clip-rule="evenodd" d="M118.254 161.223L114.1 161.219L113.923 160.012H117.742L118.254 161.223Z" fill="#9BC3D3"/>
<path fill-rule="evenodd" clip-rule="evenodd" d="M133.455 161.235L129.301 161.232L127.897 160.012H131.717L133.455 161.235Z" fill="#9BC3D3"/>
<path fill-rule="evenodd" clip-rule="evenodd" d="M128.389 161.231L124.235 161.228L123.24 160.012H127.059L128.389 161.231Z" fill="#9BC3D3"/>
<path fill-rule="evenodd" clip-rule="evenodd" d="M143.669 161.245L139.515 161.241L137.287 160.012H141.106L143.669 161.245Z" fill="#9BC3D3"/>
<path fill-rule="evenodd" clip-rule="evenodd" d="M138.603 161.24L134.449 161.236L132.63 160.012H136.449L138.603 161.24Z" fill="#9BC3D3"/>
<path fill-rule="evenodd" clip-rule="evenodd" d="M153.803 161.254L149.649 161.25L146.604 160.012H150.423L153.803 161.254Z" fill="#9BC3D3"/>
<path fill-rule="evenodd" clip-rule="evenodd" d="M148.737 161.249L144.583 161.246L141.946 160.012H145.765L148.737 161.249Z" fill="#9BC3D3"/>
<path fill-rule="evenodd" clip-rule="evenodd" d="M79.9828 162.605L75.4258 162.597L78.1085 161.422L82.3305 161.425L79.9828 162.605Z" fill="#9BC3D3"/>
<path fill-rule="evenodd" clip-rule="evenodd" d="M74.4255 162.598L69.8684 162.589L72.9598 161.418L77.1818 161.423L74.4255 162.598Z" fill="#9BC3D3"/>
<path fill-rule="evenodd" clip-rule="evenodd" d="M91.1 162.626L86.543 162.618L88.4078 161.434L92.6297 161.438L91.1 162.626Z" fill="#9BC3D3"/>
<path fill-rule="evenodd" clip-rule="evenodd" d="M85.5418 162.618L80.9854 162.61L83.2588 161.43L87.4808 161.435L85.5418 162.618Z" fill="#9BC3D3"/>
<path fill-rule="evenodd" clip-rule="evenodd" d="M102.304 162.647L97.7471 162.639L98.7886 161.445L103.01 161.449L102.304 162.647Z" fill="#9BC3D3"/>
<path fill-rule="evenodd" clip-rule="evenodd" d="M96.7469 162.634L92.1904 162.626L93.6401 161.438L97.862 161.442L96.7469 162.634Z" fill="#9BC3D3"/>
<path fill-rule="evenodd" clip-rule="evenodd" d="M113.421 162.664L108.864 162.656L109.088 161.453L113.31 161.457L113.421 162.664Z" fill="#9BC3D3"/>
<path fill-rule="evenodd" clip-rule="evenodd" d="M107.864 162.66L103.307 162.651L103.939 161.453L108.161 161.457L107.864 162.66Z" fill="#9BC3D3"/>
<path fill-rule="evenodd" clip-rule="evenodd" d="M124.578 162.688L120.021 162.68L119.424 161.469L123.646 161.473L124.578 162.688Z" fill="#9BC3D3"/>
<path fill-rule="evenodd" clip-rule="evenodd" d="M119.02 162.677L114.463 162.668L114.275 161.461L118.497 161.466L119.02 162.677Z" fill="#9BC3D3"/>
<path fill-rule="evenodd" clip-rule="evenodd" d="M135.695 162.706L131.138 162.698L129.723 161.477L133.945 161.481L135.695 162.706Z" fill="#9BC3D3"/>
<path fill-rule="evenodd" clip-rule="evenodd" d="M130.137 162.697L125.58 162.688L124.574 161.473L128.796 161.477L130.137 162.697Z" fill="#9BC3D3"/>
<path fill-rule="evenodd" clip-rule="evenodd" d="M146.899 162.726L142.343 162.718L140.104 161.488L144.325 161.493L146.899 162.726Z" fill="#9BC3D3"/>
<path fill-rule="evenodd" clip-rule="evenodd" d="M141.342 162.717L136.785 162.71L134.955 161.484L139.176 161.489L141.342 162.717Z" fill="#9BC3D3"/>
<path fill-rule="evenodd" clip-rule="evenodd" d="M158.016 162.747L153.459 162.739L150.403 161.5L154.625 161.504L158.016 162.747Z" fill="#9BC3D3"/>
<path fill-rule="evenodd" clip-rule="evenodd" d="M152.459 162.734L147.903 162.726L145.255 161.492L149.476 161.497L152.459 162.734Z" fill="#9BC3D3"/>
<path fill-rule="evenodd" clip-rule="evenodd" d="M77.2339 163.989L72.2842 163.976L74.9669 162.801L79.5809 162.809L77.2339 163.989Z" fill="#9BC3D3"/>
<path fill-rule="evenodd" clip-rule="evenodd" d="M71.1978 163.973L66.248 163.961L69.3395 162.789L73.9535 162.799L71.1978 163.973Z" fill="#9BC3D3"/>
<path fill-rule="evenodd" clip-rule="evenodd" d="M89.3081 164.018L84.3584 164.005L86.2244 162.82L90.8384 162.829L89.3081 164.018Z" fill="#9BC3D3"/>
<path fill-rule="evenodd" clip-rule="evenodd" d="M83.272 164.005L78.3223 163.992L80.5963 162.812L85.2109 162.821L83.272 164.005Z" fill="#9BC3D3"/>
<path fill-rule="evenodd" clip-rule="evenodd" d="M113.389 164.08L96.5283 164.038L97.5693 162.844L113.288 162.873L113.389 164.08Z" fill="#9BC3D3"/>
<path fill-rule="evenodd" clip-rule="evenodd" d="M95.4419 164.034L90.4922 164.021L91.9424 162.832L96.5564 162.841L95.4419 164.034Z" fill="#9BC3D3"/>
<path fill-rule="evenodd" clip-rule="evenodd" d="M125.669 164.107L120.72 164.094L120.123 162.883L124.738 162.892L125.669 164.107Z" fill="#9BC3D3"/>
<path fill-rule="evenodd" clip-rule="evenodd" d="M119.634 164.094L114.684 164.082L114.496 162.875L119.11 162.883L119.634 164.094Z" fill="#9BC3D3"/>
<path fill-rule="evenodd" clip-rule="evenodd" d="M137.743 164.139L132.794 164.127L131.379 162.906L135.993 162.915L137.743 164.139Z" fill="#9BC3D3"/>
<path fill-rule="evenodd" clip-rule="evenodd" d="M131.708 164.127L126.757 164.114L125.752 162.898L130.366 162.906L131.708 164.127Z" fill="#9BC3D3"/>
<path fill-rule="evenodd" clip-rule="evenodd" d="M149.913 164.172L144.964 164.159L142.725 162.93L147.34 162.939L149.913 164.172Z" fill="#9BC3D3"/>
<path fill-rule="evenodd" clip-rule="evenodd" d="M143.877 164.156L138.928 164.143L137.098 162.918L141.712 162.927L143.877 164.156Z" fill="#9BC3D3"/>
<path fill-rule="evenodd" clip-rule="evenodd" d="M161.988 164.201L157.039 164.188L153.982 162.949L158.596 162.958L161.988 164.201Z" fill="#9BC3D3"/>
<path fill-rule="evenodd" clip-rule="evenodd" d="M155.951 164.184L151.002 164.171L148.354 162.938L152.969 162.946L155.951 164.184Z" fill="#9BC3D3"/>
<path fill-rule="evenodd" clip-rule="evenodd" d="M58.4766 166.902H167.256V165.176H58.4766V166.902Z" fill="#9BC3D3"/>
<path fill-rule="evenodd" clip-rule="evenodd" d="M126.794 144.832C123.746 140.306 123.468 134.203 123.468 134.203H103.152C103.152 134.203 102.875 140.306 99.8254 144.832C96.7749 149.358 90.3984 152.187 90.3984 152.187H136.222C136.222 152.187 129.845 149.358 126.794 144.832Z" fill="#34466B"/>
<path fill-rule="evenodd" clip-rule="evenodd" d="M206.807 1.125C210.478 1.125 213.453 4.0969 213.453 7.76376V131.16C213.453 134.827 210.478 137.8 206.807 137.8H19.298C15.6278 137.8 12.6523 134.827 12.6523 131.16V7.76376C12.6523 4.0969 15.6278 1.125 19.298 1.125H206.807ZM202.638 7.79688H22.8452C21.237 7.79688 19.9338 9.09884 19.9338 10.7047V108.953C19.9338 110.559 21.237 111.861 22.8452 111.861H202.638C204.247 111.861 205.551 110.559 205.551 108.953V10.7047C205.551 9.09884 204.247 7.79688 202.638 7.79688Z" fill="#34466B"/>
<path fill-rule="evenodd" clip-rule="evenodd" d="M12.6523 118.789V131.143C12.6523 134.82 15.6278 137.8 19.298 137.8H206.807C210.478 137.8 213.453 134.82 213.453 131.143V118.789H12.6523Z" fill="#9BC3D3"/>
<path fill-rule="evenodd" clip-rule="evenodd" d="M137.535 154.24H89.6001C89.188 154.24 88.8535 153.905 88.8535 153.493V149.849C88.8535 149.436 89.188 149.102 89.6001 149.102H137.535C137.947 149.102 138.281 149.436 138.281 149.849V153.493C138.281 153.905 137.947 154.24 137.535 154.24Z" fill="#9BC3D3"/>
<path fill-rule="evenodd" clip-rule="evenodd" d="M113.841 133.173H112.78C110.088 133.173 107.904 130.993 107.904 128.307V127.249C107.904 124.561 110.088 122.383 112.78 122.383H113.841C116.533 122.383 118.717 124.561 118.717 127.249V128.307C118.717 130.993 116.533 133.173 113.841 133.173Z" fill="#34466B"/>
<path fill-rule="evenodd" clip-rule="evenodd" d="M205.731 9.30572C205.731 8.19173 204.332 7.28906 202.605 7.28906H22.9876C21.2607 7.28906 19.8613 8.19173 19.8613 9.30572V14.9715H205.731V9.30572Z" fill="#CCCCCC"/>
<path fill-rule="evenodd" clip-rule="evenodd" d="M190.032 11.1892C190.032 11.9758 189.393 12.6139 188.605 12.6139C187.816 12.6139 187.177 11.9758 187.177 11.1892C187.177 10.4031 187.816 9.76562 188.605 9.76562C189.393 9.76562 190.032 10.4031 190.032 11.1892Z" fill="#34466B"/>
<path fill-rule="evenodd" clip-rule="evenodd" d="M195.849 11.1892C195.849 11.9758 195.21 12.6139 194.422 12.6139C193.633 12.6139 192.994 11.9758 192.994 11.1892C192.994 10.4031 193.633 9.76562 194.422 9.76562C195.21 9.76562 195.849 10.4031 195.849 11.1892Z" fill="#34466B"/>
<path fill-rule="evenodd" clip-rule="evenodd" d="M200.238 12.6139C199.45 12.6139 198.812 11.9758 198.812 11.1892C198.812 10.4031 199.45 9.76562 200.238 9.76562C201.026 9.76562 201.666 10.4031 201.666 11.1892C201.666 11.9758 201.026 12.6139 200.238 12.6139Z" fill="#34466B"/>
<circle cx="146.729" cy="43.3154" r="2.12793" fill="#34466B"/>
<circle cx="141.343" cy="43.3154" r="2.12793" fill="#34466B"/>
</svg>
