<svg width="41" height="41" viewBox="0 0 41 41" fill="none" xmlns="http://www.w3.org/2000/svg">
<path fill-rule="evenodd" clip-rule="evenodd" d="M20.145 0.758789C31.185 0.758789 40.145 9.71879 40.145 20.7588C40.145 31.7988 31.185 40.7588 20.145 40.7588C9.10502 40.7588 0.14502 31.7988 0.14502 20.7588C0.14502 9.70522 9.10502 0.758789 20.145 0.758789Z" fill="#1BB3BC"/>
<path d="M23.8679 16.7458C24.2643 16.0672 24.5414 15.3372 24.6864 14.5937L24.8971 14.9722C26.1779 17.163 26.1779 19.8758 24.9107 22.0665L19.7107 30.9608C19.315 31.6394 19.0379 32.3694 18.8921 33.1122L18.6814 32.7337C17.3879 30.5301 17.3879 27.818 18.6814 25.6137L23.8679 16.7458ZM20.1564 9.33867C20.5521 8.66009 20.8293 7.92938 20.9736 7.18652L21.185 7.56509C22.4779 9.76867 22.4779 12.4815 21.185 14.6851L15.9979 23.553C15.6021 24.2315 15.325 24.9615 15.18 25.7051L14.9686 25.3265C13.6886 23.1358 13.6886 20.4237 14.955 18.2322L20.1564 9.33867Z" fill="white"/>
</svg>
