<svg width="153" height="155" viewBox="0 0 153 155" fill="none" xmlns="http://www.w3.org/2000/svg">
<path fill-rule="evenodd" clip-rule="evenodd" d="M91.4504 114.299C90.9991 114.286 90.5494 114.267 90.1012 114.24C81.0782 113.715 72.3175 116.131 65.0183 120.888C60.588 123.776 55.1664 125.386 49.2767 125.218C33.8504 124.776 21.1234 112.392 20.7551 97.4634C20.5927 90.878 22.8812 84.9125 26.8138 80.3407C30.1804 76.4267 31.9763 71.4171 31.732 66.1876C31.7289 66.1203 31.7263 66.0529 31.724 65.9859C31.4273 57.1819 38.499 50.2982 47.5939 50.542C47.646 50.5432 47.698 50.545 47.7498 50.5469C50.2029 50.635 52.4719 49.5229 53.7977 47.5951C61.3566 36.6035 74.4388 29.6089 89.4746 30.0416C113.5 30.7331 133.454 50.1756 133.999 73.4243C134.544 96.6914 115.495 114.991 91.4504 114.299Z" fill="#CEDEE7"/>
<path fill-rule="evenodd" clip-rule="evenodd" d="M37.7167 23.3501C37.7576 21.9611 37.8563 17.6477 37.5724 16.8521C37.2305 15.8944 36.1049 12.2759 36.2912 10.7346C36.375 10.0419 36.4356 9.50502 36.4769 9.12457C36.5242 8.69072 36.1846 8.29899 35.7342 8.28894C35.3877 8.2812 35.1487 8.28556 34.8349 8.64077C34.3661 9.17096 34.0286 12.7427 34.116 13.6631C34.2033 14.5831 32.3768 12.1214 32.0201 10.7864C31.7129 9.63651 29.5713 4.64984 28.9823 3.28687C28.8476 2.97521 28.5253 2.76248 28.1771 2.79425C28.0073 2.8096 27.786 2.86519 27.7459 3.07769C27.6072 3.80747 29.9915 12.144 29.9915 12.144C29.9915 12.144 30.2243 12.8917 29.6544 12.886C29.3464 12.8831 28.9631 12.373 28.7255 12.057C28.6726 11.9865 28.6269 11.9257 28.5909 11.8822C27.9639 11.1268 27.3834 10.335 26.81 9.54101C25.6838 7.98277 24.5917 6.39865 23.531 4.79723C23.3989 4.59804 23.2805 4.42344 23.0385 4.33623C22.8272 4.26049 22.5834 4.27488 22.3829 4.37345C22.2104 4.45868 22.0658 4.61864 22.0537 4.80562C22.0466 4.91694 22.0859 5.02558 22.1263 5.12977C22.8203 6.92197 23.8406 8.63158 24.8403 10.3067C25.0822 10.7121 25.3229 11.1155 25.5575 11.5175C26.0291 12.3257 26.5043 13.1316 26.9862 13.9338C26.9862 13.9338 27.3711 14.5042 26.897 14.6004C26.4579 14.6896 21.1342 10.2491 19.8476 9.15658C19.6434 8.98329 19.3602 8.91773 19.1008 8.99617C18.8603 9.06908 18.6205 9.21933 18.6261 9.53024C18.6366 10.0983 23.8633 15.5851 24.7286 16.4895C24.8734 16.6412 24.9984 16.8079 25.0894 16.9945C25.1969 17.2149 25.279 17.4978 25.1789 17.7472C24.8337 18.6049 22.8464 18.3466 22.233 18.2668C22.2146 18.2644 22.1974 18.2622 22.1816 18.2602C21.7257 18.2017 18.6725 17.404 17.6905 17.1461C17.4301 17.0777 17.1426 17.1297 16.9478 17.3109C16.7655 17.4807 16.658 17.744 16.9579 18.1203C17.5133 18.8175 24.1241 20.8877 25.0965 21.1892C25.1773 21.2141 25.2501 21.2506 25.3184 21.2986C26.0862 21.8427 30.9155 25.2686 31.2518 25.5759C31.2523 25.5763 31.2527 25.5767 31.2532 25.5771L36.7936 45.1412C36.7936 45.1412 38.5808 46.7732 41.0671 46.4621C43.5538 46.151 47.1681 43.8433 47.1681 43.8433L37.7168 23.3503C37.7168 23.3503 37.7167 23.3502 37.7167 23.3501Z" fill="#723846"/>
<path fill-rule="evenodd" clip-rule="evenodd" d="M62.133 74.8953C59.7774 70.7308 57.9565 67.8181 57.9565 67.8181C57.9565 67.8181 46.3996 41.2332 46.2089 41.7632C46.0183 42.2928 45.0436 43.6023 42.7957 44.3924C40.5476 45.1817 36.7934 45.1406 36.7934 45.1406L45.5586 69.7775L47.2956 75.7567C47.2956 75.7567 49.849 85.5499 50.5822 87.1479C50.778 87.5748 51.1913 88.2326 51.6655 88.9336L51.4931 88.9871C51.4154 88.9544 51.3747 89.0237 51.3747 89.0237L51.4931 88.9871C51.7308 89.0873 52.3145 90.1454 53.1344 97.0894C54.2221 106.301 55.3272 117.791 54.974 119.443C54.9613 119.502 54.9478 119.573 54.9337 119.654C53.8764 125.707 58.3941 131.434 63.6816 130.814C67.2378 130.397 71.2123 129.942 75.2136 129.484C88.3106 127.986 101.696 126.455 101.647 126.09C101.62 125.891 101.79 125.336 102.02 124.585C102.557 122.828 103.422 119.999 102.872 118.143C102.088 115.493 101.776 113.16 100.967 107.11C100.159 101.06 98.5202 92.0236 95.7469 87.376C93.103 82.9463 90.3323 82.4465 89.0588 82.2168C88.9963 82.2055 88.9374 82.1949 88.8823 82.1845C88.507 82.1136 87.1694 81.7116 85.4753 81.2025C81.8531 80.1141 76.6011 78.5359 75.6392 78.6563C75.3486 78.6926 75.0412 78.7231 74.7171 78.7553C73.4674 78.8793 71.9673 79.0282 70.2056 79.6339C68.9889 80.0523 66.506 80.6396 64.5111 81.0846C64.3536 79.9408 63.8233 77.8834 62.133 74.8953Z" fill="#137E84"/>
<path fill-rule="evenodd" clip-rule="evenodd" d="M84.3437 80.0933C83.5237 89.0064 76.7104 89.6839 73.0665 86.2358C71.9287 85.1561 71.106 83.6773 70.8661 81.9214C72.4068 82.2752 74.2481 82.3738 76.4328 82.1307C79.6621 81.7723 82.2768 81.0632 84.3437 80.0933Z" fill="#CEDEE7"/>
<path fill-rule="evenodd" clip-rule="evenodd" d="M81.1528 92.8228C81.3073 93.9792 80.7368 95.004 79.8779 95.1114C79.0194 95.2188 78.1977 94.3683 78.0431 93.2119C77.8885 92.0552 78.4596 91.0304 79.3181 90.923C80.177 90.8156 80.9982 91.6662 81.1528 92.8228Z" fill="#FFCC33"/>
<path fill-rule="evenodd" clip-rule="evenodd" d="M92.0886 26.2929C91.5955 24.9918 90.0847 20.9255 90.0931 20.0832C90.1033 19.07 89.9839 15.2929 89.3018 13.8884C88.9952 13.2572 88.7617 12.7667 88.5977 12.4186C88.4105 12.0217 88.6041 11.546 89.028 11.3981C89.354 11.2844 89.5821 11.2152 89.9962 11.4557C90.6146 11.8146 92.1061 15.0982 92.3251 15.9978C92.544 16.8971 93.4687 14.0019 93.3692 12.6264C93.2834 11.4416 93.679 6.05516 93.7905 4.58183C93.816 4.24493 94.0519 3.94423 94.3925 3.86748C94.5586 3.8299 94.7867 3.81469 94.8945 4.00388C95.2653 4.65338 95.7382 13.2911 95.7382 13.2911C95.7382 13.2911 95.7627 14.0716 96.3013 13.8913C96.5923 13.794 96.7886 13.1926 96.9102 12.8199C96.9373 12.7368 96.9607 12.6651 96.9806 12.6129C97.3274 11.704 97.6183 10.7749 97.9016 9.84594C98.4586 8.02248 98.9747 6.18496 99.4554 4.34069C99.5154 4.11121 99.5704 3.9093 99.7714 3.75229C99.9469 3.61561 100.183 3.55442 100.405 3.58634C100.597 3.61422 100.786 3.72151 100.859 3.89513C100.902 3.9985 100.901 4.1136 100.897 4.2248C100.826 6.13744 100.419 8.07191 100.021 9.96736C99.9242 10.4261 99.8282 10.8825 99.7376 11.3358C99.5554 12.247 99.3691 13.1571 99.1752 14.0658C99.1752 14.0658 98.9972 14.7249 99.4784 14.6706C99.924 14.6203 103.516 8.77509 104.378 7.34402C104.515 7.117 104.762 6.96789 105.034 6.96262C105.286 6.95796 105.562 7.02682 105.659 7.32339C105.836 7.86533 102.678 14.6731 102.154 15.7964C102.067 15.9847 102.003 16.1811 101.978 16.3861C101.948 16.6281 101.963 16.9215 102.14 17.1274C102.748 17.8348 104.548 16.9797 105.104 16.7158C105.12 16.7079 105.136 16.7005 105.15 16.6937C105.563 16.4983 108.197 14.8045 109.044 14.2585C109.269 14.1136 109.558 14.0748 109.802 14.1868C110.031 14.2918 110.219 14.5086 110.058 14.9575C109.76 15.7891 104.17 19.7817 103.347 20.3662C103.278 20.4146 103.221 20.4715 103.172 20.5381C102.623 21.2894 99.1688 26.0178 98.9483 26.4154L100.111 46.6737C100.111 46.6737 98.951 48.77 96.491 49.2382C94.0309 49.7066 89.8464 48.6276 89.8464 48.6276L92.0886 26.2929Z" fill="#723846"/>
<path fill-rule="evenodd" clip-rule="evenodd" d="M87.4774 74.678C87.4774 74.678 86.7058 77.9992 85.8377 82.6717C84.8225 88.1356 85.9182 90.3093 85.9182 90.3093L99.2053 96.5783C99.2053 96.5783 100.665 92.2214 100.81 90.7452C100.981 89.0048 100.191 78.9337 100.191 78.9337L99.8772 72.7302L100.11 46.6756C100.11 46.6756 96.563 47.8671 94.1722 47.8087C91.7814 47.7495 90.4276 46.8069 90.0732 46.3632C89.7185 45.9192 87.4774 74.678 87.4774 74.678Z" fill="#137E84"/>
<path fill-rule="evenodd" clip-rule="evenodd" d="M54.4538 129.077L54.6365 131.929L80.0076 130.442L79.8246 127.59C71.3677 128.086 62.9105 128.582 54.4538 129.077Z" fill="#FFCC33"/>
<path fill-rule="evenodd" clip-rule="evenodd" d="M74.3445 131.124L124.128 131.216C125.073 131.218 125.892 130.585 126.09 129.698L133.513 96.4646C133.779 95.2715 132.831 94.1452 131.558 94.1436L81.7777 94.0516C80.832 94.0501 80.0136 94.6827 79.8156 95.5696L72.3904 128.802C72.1235 129.995 73.0711 131.122 74.3445 131.124Z" fill="white"/>
<path fill-rule="evenodd" clip-rule="evenodd" d="M81.4396 95.5737L74.0151 128.808C73.7488 129.998 74.6959 131.123 75.9687 131.128L96.8143 131.164L123.247 131.216L125.751 131.219C126.696 131.221 127.517 130.588 127.714 129.699L135.137 96.4693C135.265 95.8871 135.109 95.3205 134.764 94.8962C134.403 94.445 133.836 94.1469 133.181 94.1473L112.843 94.1074L83.4037 94.0537C82.4576 94.052 81.6368 94.6853 81.4396 95.5737Z" fill="#FFCC33"/>
<path fill-rule="evenodd" clip-rule="evenodd" d="M112.843 94.1073L123.247 131.216L125.75 131.22C126.696 131.221 127.517 130.588 127.714 129.699L135.138 96.4688C135.265 95.8871 135.108 95.3204 134.764 94.896C134.403 94.4453 133.836 94.1472 133.181 94.1472L112.843 94.1073Z" fill="#D39E00"/>
<path fill-rule="evenodd" clip-rule="evenodd" d="M68.6292 57.4147C70.3563 53.453 73.7315 50.6015 77.881 50.1475C81.6648 49.7336 85.2809 51.4019 87.8586 54.3442C87.8586 54.3442 88.1644 54.6882 88.4974 55.1167C88.7893 55.4922 89.179 56.1923 89.2793 56.8054L90.1679 61.5997C90.1878 61.7073 90.2115 61.8124 90.2398 61.9184C90.3905 62.482 91.0516 64.2834 91.276 65.0149C91.5532 65.9185 94.2506 77.0204 86.9298 80.862C85.5933 81.5634 84.2247 81.9416 82.8723 82.0712L82.8844 82.1739C82.8995 82.3037 82.912 82.4341 82.925 82.5671C82.9401 82.7633 82.9604 82.9611 82.9888 83.158C83.215 84.6688 82.8599 86.0658 82.147 87.1825C79.956 90.5972 74.4114 91.3331 71.9989 84.3602C71.3023 82.3435 70.9072 80.2433 70.9607 78.1445C70.9688 77.8114 70.9882 77.4781 71.0195 77.1453C70.5379 76.5799 70.1838 76.0303 69.9831 75.5369C69.8061 75.1018 69.6115 74.5013 69.4068 73.7864C67.9431 74.1758 66.1425 73.0666 65.245 71.1549C64.2787 69.0993 64.7215 66.8943 66.2336 66.2292C66.6581 66.0425 67.1218 65.9971 67.5909 66.074L67.5739 65.9943C66.9622 63.0669 67.3532 60.0632 68.6292 57.4147Z" fill="#723846"/>
<path fill-rule="evenodd" clip-rule="evenodd" d="M82.9296 82.0881C82.9421 82.1845 82.9541 82.2819 82.966 82.3806C82.9881 82.5675 83.0104 82.7576 83.0027 82.6919C82.9904 82.5868 82.9783 82.4831 82.966 82.3806C82.9512 82.256 82.9364 82.1329 82.9306 82.0881L82.9296 82.0881ZM71.1483 77.1575C71.133 77.2208 71.1223 77.3235 71.118 77.5156C72.5474 80.6551 77.3978 83.1667 82.8923 82.0914C77.9801 82.5147 73.2967 79.6789 71.1483 77.1575ZM85.4798 70.8769L82.6269 65.5104L83.2582 69.6038C83.4139 70.6138 84.4894 71.23 85.4798 70.8769Z" fill="#3B101C"/>
<path fill-rule="evenodd" clip-rule="evenodd" d="M90.0343 56.7603C90.0136 55.8814 89.8975 55.0094 89.6907 54.159C89.6635 54.0472 89.6356 53.9355 89.6043 53.8251C89.1227 52.0559 88.2444 50.3914 87.0132 48.9636C85.9965 47.7837 84.7378 46.7656 83.2608 45.9843C76.951 42.6476 69.0408 44.8907 65.5918 50.994C64.9306 52.163 64.4822 53.3902 64.2341 54.6315C64.1238 55.1727 64.0536 55.7163 64.0186 56.26C63.9505 57.3522 64.0299 58.4448 64.25 59.5055C64.43 60.3732 64.7034 61.2213 65.066 62.0345C65.0613 62.0982 65.057 62.1617 65.0538 62.225C64.5649 63.962 64.0546 65.5407 63.5915 66.5213C60.0077 74.1072 61.2725 82.7101 70.7259 84.6508C70.7226 84.6429 70.7196 84.6349 70.7167 84.6267C70.7196 84.6349 70.723 84.6428 70.7259 84.6508C71.2286 84.7546 71.7545 84.8395 72.3041 84.9043C72.1469 84.5548 71.9986 84.1809 71.8604 83.7818C71.1638 81.765 70.7687 79.6648 70.8222 77.566C70.8303 77.2329 70.8497 76.8996 70.8809 76.5668C70.3994 76.0014 70.0453 75.4518 69.8445 74.9584C69.7767 74.7908 69.7056 74.5987 69.6328 74.385C69.594 74.2719 69.555 74.1528 69.5153 74.0281C69.5002 74.0029 69.4868 73.9783 69.476 73.9557C69.4868 73.9783 69.5002 74.0028 69.5153 74.0279C69.4967 73.9696 69.478 73.91 69.4591 73.8491C69.3967 73.6479 69.3327 73.4337 69.2682 73.2079C67.8049 73.5973 66.004 72.4881 65.1064 70.5764C64.1666 68.5766 64.56 66.4354 65.9745 65.7083C68.4439 68.1667 80.9556 51.8276 80.9556 51.8276L81.5652 53.076C83.2219 56.5487 87.8739 57.2201 89.3483 57.3468L89.3976 57.6124L90.0294 61.0212C90.0492 61.1289 90.073 61.234 90.1013 61.3399C90.2519 61.9035 90.913 63.7049 91.1374 64.4364C91.3904 65.2611 93.6594 74.5808 88.4882 79.1226L88.4428 79.1621L88.438 79.1662L88.3946 79.2036L88.3541 79.2378L88.3458 79.2449L88.3073 79.2769L88.2874 79.2934L88.2513 79.3231L88.2302 79.3401L88.2017 79.3631L88.1693 79.3889L88.14 79.412L88.1092 79.4362L88.0626 79.4723L88.0544 79.4786L88.0302 79.4971L87.9917 79.5262L87.9646 79.5465L87.9195 79.5798L87.9024 79.5924L87.8954 79.5975L87.8409 79.637L87.817 79.6541L87.7703 79.6871L87.7507 79.7009L87.6871 79.7449L87.667 79.7586L87.6169 79.7924L87.5965 79.8061L87.53 79.85L87.5162 79.859L87.4596 79.8955L87.4391 79.9087L87.3734 79.95L87.3688 79.9529L87.2984 79.9963L87.2785 80.0083L87.2193 80.044L87.2052 80.0524L87.1333 80.0946L87.1153 80.1049L87.0564 80.1387L87.038 80.1491L86.9643 80.1903L86.9512 80.1975L86.8878 80.232L86.8673 80.2431L86.7913 80.2835L86.7064 80.3276C85.8402 80.7729 84.961 81.0833 84.0817 81.2792C83.6317 81.3795 83.1818 81.4497 82.7338 81.4926L82.7458 81.5955C82.761 81.7253 82.7734 81.8556 82.7865 81.9886C82.8016 82.1848 82.8219 82.3826 82.8502 82.5795C82.918 83.0318 82.9336 83.474 82.9031 83.9014C83.407 83.7216 83.8754 83.5226 84.31 83.3067C84.3041 83.2376 84.3043 83.2376 84.3102 83.3067C85.405 82.7611 86.286 82.1063 86.9828 81.3741C87.0712 81.6593 87.1699 81.9422 87.2789 82.2226C87.4096 82.5537 87.5541 82.885 87.7136 83.2112C88.2331 84.2788 88.9126 85.2972 89.75 86.2345C94.7059 91.7822 103.356 92.4044 109.072 87.6245C110.082 86.7804 110.933 85.8244 111.62 84.7896C114.832 79.9765 114.53 73.4942 110.45 68.9261C107.726 65.8765 103.884 64.3161 100.029 64.3244C100.017 64.3246 100.006 64.3244 99.9949 64.3246C98.1613 64.3314 96.5057 63.3348 95.6916 61.7455C95.3054 60.9926 94.816 60.2734 94.2215 59.6075C93.0471 58.2927 91.6009 57.34 90.0343 56.7603Z" fill="#1BB3BC"/>
</svg>
