<svg width="24" height="25" viewBox="0 0 24 25" fill="none" xmlns="http://www.w3.org/2000/svg"><path d="M12.006 3.741 C 11.896 3.881,11.702 4.359,11.606 4.728 C 11.409 5.479,11.401 6.237,11.581 6.951 C 11.709 7.456,11.979 7.997,13.042 9.880 C 14.028 11.625,14.627 12.737,14.810 13.160 L 14.940 13.460 14.952 14.523 L 14.965 15.587 14.802 15.996 C 14.644 16.392,14.414 16.880,14.385 16.880 C 14.377 16.880,14.321 16.741,14.260 16.570 C 14.060 16.006,13.951 15.803,12.113 12.570 C 10.678 10.046,10.105 9.008,9.856 8.480 C 9.624 7.990,9.624 7.989,9.579 7.990 C 9.516 7.990,9.323 8.420,9.154 8.932 C 8.963 9.515,8.907 9.995,8.959 10.623 C 9.023 11.407,9.251 11.938,10.364 13.900 C 11.658 16.182,12.191 17.189,12.366 17.686 C 12.448 17.921,12.455 18.011,12.457 18.900 C 12.459 19.857,12.458 19.861,12.344 20.177 C 12.209 20.553,12.031 20.950,11.951 21.055 C 11.899 21.123,11.869 21.076,11.585 20.497 C 11.256 19.823,10.923 19.217,9.588 16.860 C 8.600 15.116,8.082 14.131,7.919 13.684 C 7.844 13.479,7.778 13.180,7.739 12.870 C 7.705 12.600,7.669 12.356,7.658 12.326 C 7.632 12.251,7.398 12.294,6.840 12.479 C 5.931 12.780,5.091 13.180,4.340 13.670 C 3.153 14.445,2.423 15.315,2.119 16.316 C 2.039 16.579,2.031 16.670,2.049 17.195 C 2.066 17.714,2.081 17.811,2.178 18.053 C 2.686 19.315,3.744 20.317,5.420 21.124 C 6.361 21.576,7.400 21.914,8.607 22.159 C 9.466 22.333,9.983 22.393,11.090 22.447 C 12.596 22.521,13.998 22.435,15.200 22.197 C 17.446 21.751,19.176 21.009,20.429 19.954 C 21.101 19.389,21.654 18.601,21.856 17.923 C 21.954 17.592,21.947 16.490,21.845 16.193 C 21.631 15.573,21.343 15.137,20.763 14.557 C 20.419 14.214,20.166 14.006,19.780 13.750 C 19.148 13.330,18.278 12.884,17.580 12.622 C 17.294 12.515,16.920 12.375,16.750 12.310 C 16.579 12.246,16.422 12.161,16.401 12.121 C 16.379 12.081,16.297 11.808,16.218 11.514 C 16.003 10.715,15.903 10.518,13.990 7.140 C 12.896 5.209,12.476 4.429,12.294 3.990 C 12.214 3.797,12.134 3.640,12.117 3.640 C 12.100 3.640,12.050 3.686,12.006 3.741 " fill="#EC0000" stroke="none" fill-rule="evenodd"></path></svg>