<svg width="24" height="25" viewBox="0 0 24 25" fill="none" xmlns="http://www.w3.org/2000/svg"><path d="M17.321 2.565 C 17.267 2.586,16.497 3.327,15.611 4.210 L 14.000 5.817 14.000 6.010 C 14.000 6.198,14.009 6.212,14.395 6.631 C 15.043 7.334,17.187 9.437,17.300 9.480 C 17.549 9.575,17.799 9.471,17.916 9.226 C 18.067 8.908,18.061 8.900,16.603 7.430 L 15.701 6.520 18.672 6.520 C 21.634 6.520,21.644 6.520,21.758 6.435 C 21.820 6.389,21.903 6.281,21.942 6.196 C 22.008 6.049,22.008 6.033,21.941 5.857 C 21.814 5.524,21.989 5.542,18.646 5.527 L 15.712 5.515 16.788 4.427 C 17.424 3.784,17.892 3.278,17.934 3.188 C 18.017 3.011,17.978 2.827,17.829 2.691 C 17.644 2.522,17.510 2.489,17.321 2.565 M9.252 5.622 C 6.566 6.014,4.140 7.768,2.921 10.200 C 2.508 11.023,2.194 12.020,2.075 12.880 C 2.007 13.379,2.007 14.677,2.075 15.160 C 2.438 17.718,3.913 19.957,6.120 21.302 C 7.385 22.073,8.988 22.519,10.500 22.520 C 13.954 22.522,17.114 20.387,18.374 17.200 C 18.880 15.919,19.045 14.872,18.962 13.464 C 18.904 12.479,18.814 12.203,18.525 12.117 C 18.322 12.056,18.120 12.120,17.976 12.291 C 17.871 12.416,17.871 12.422,17.905 12.799 C 17.924 13.008,17.940 13.594,17.940 14.100 C 17.940 15.141,17.891 15.505,17.652 16.260 C 17.490 16.771,17.093 17.622,16.820 18.045 C 15.810 19.610,14.395 20.673,12.600 21.213 C 11.168 21.644,9.590 21.617,8.139 21.137 C 6.193 20.494,4.631 19.099,3.720 17.191 C 3.226 16.158,2.947 14.782,3.019 13.740 C 3.106 12.493,3.308 11.712,3.806 10.703 C 4.511 9.272,5.706 8.064,7.111 7.362 C 8.107 6.863,8.908 6.642,10.013 6.560 C 10.494 6.525,10.677 6.532,11.782 6.626 C 12.001 6.645,12.092 6.636,12.191 6.584 C 12.368 6.493,12.454 6.312,12.428 6.085 C 12.405 5.873,12.284 5.745,12.049 5.684 C 11.564 5.557,9.945 5.521,9.252 5.622 M10.199 8.998 C 8.291 9.243,6.671 10.427,6.012 12.060 L 5.883 12.380 5.412 12.405 C 5.152 12.418,4.919 12.432,4.893 12.435 C 4.787 12.447,4.602 12.651,4.577 12.782 C 4.541 12.971,4.580 13.094,4.726 13.261 L 4.851 13.403 7.895 13.391 C 10.278 13.382,10.959 13.369,11.030 13.329 C 11.315 13.166,11.301 12.595,11.008 12.471 C 10.934 12.439,10.281 12.416,8.960 12.399 C 7.893 12.385,7.015 12.371,7.010 12.367 C 6.914 12.300,7.365 11.598,7.743 11.226 C 8.423 10.555,9.373 10.108,10.356 9.995 C 10.905 9.932,11.695 9.976,12.168 10.096 C 12.664 10.222,13.027 10.376,13.541 10.681 C 14.001 10.953,14.197 11.005,14.388 10.906 C 14.546 10.824,14.656 10.594,14.626 10.408 C 14.584 10.152,14.288 9.919,13.524 9.540 C 13.031 9.295,12.613 9.149,12.150 9.059 C 11.768 8.985,10.589 8.948,10.199 8.998 M5.186 14.707 C 4.990 14.717,4.835 14.748,4.774 14.788 C 4.562 14.927,4.499 15.239,4.637 15.466 C 4.728 15.615,4.959 15.680,5.397 15.680 C 5.804 15.680,5.909 15.710,5.940 15.834 C 5.997 16.062,6.326 16.682,6.551 16.983 C 7.321 18.016,8.456 18.711,9.856 19.006 C 10.352 19.111,11.356 19.130,11.880 19.045 C 13.091 18.848,14.559 18.109,14.723 17.612 C 14.759 17.503,14.753 17.453,14.693 17.330 C 14.597 17.133,14.379 16.987,14.220 17.013 C 14.154 17.024,13.863 17.176,13.574 17.351 C 12.833 17.800,12.290 17.992,11.508 18.083 C 10.273 18.227,8.933 17.839,7.998 17.068 C 7.659 16.788,7.406 16.489,7.156 16.074 L 6.955 15.740 7.068 15.715 C 7.129 15.701,8.022 15.687,9.052 15.685 C 10.890 15.680,10.925 15.679,11.038 15.595 C 11.100 15.549,11.184 15.439,11.224 15.351 C 11.296 15.192,11.295 15.190,11.198 15.006 C 11.144 14.904,11.052 14.797,10.993 14.769 C 10.911 14.731,10.261 14.715,8.193 14.704 C 6.712 14.696,5.359 14.697,5.186 14.707 " fill="#EC0000" stroke="none" fill-rule="evenodd"></path></svg>