<svg width="25" height="24" viewBox="0 0 25 24" fill="none" xmlns="http://www.w3.org/2000/svg"><path d="M18.801 2.063 C 18.650 2.128,18.542 2.328,18.542 2.539 C 18.542 2.689,18.634 2.804,19.306 3.487 L 19.806 3.995 17.351 4.009 C 15.537 4.019,14.865 4.036,14.779 4.074 C 14.631 4.138,14.525 4.380,14.557 4.579 C 14.571 4.663,14.635 4.779,14.708 4.852 L 14.835 4.979 17.316 4.991 L 19.798 5.004 19.194 5.625 C 18.571 6.266,18.506 6.369,18.562 6.622 C 18.621 6.893,18.968 7.073,19.201 6.953 C 19.377 6.863,21.435 4.787,21.495 4.639 C 21.542 4.525,21.539 4.485,21.474 4.349 C 21.393 4.178,20.230 2.967,19.574 2.369 C 19.138 1.973,19.070 1.946,18.801 2.063 M16.595 6.244 C 16.440 6.378,15.926 6.882,15.453 7.363 C 14.824 8.003,14.585 8.273,14.564 8.369 C 14.499 8.662,14.540 8.718,15.620 9.798 C 16.615 10.794,16.853 11.000,17.015 11.000 C 17.184 11.000,17.382 10.862,17.469 10.685 C 17.546 10.525,17.549 10.493,17.498 10.369 C 17.466 10.294,17.170 9.954,16.840 9.616 L 16.239 9.000 18.717 9.000 L 21.196 9.000 21.342 8.857 C 21.681 8.529,21.516 8.085,21.034 8.027 C 20.912 8.013,19.783 8.001,18.525 8.000 L 16.237 8.000 16.822 7.403 C 17.144 7.074,17.439 6.744,17.478 6.669 C 17.591 6.450,17.483 6.186,17.231 6.066 C 16.994 5.954,16.900 5.980,16.595 6.244 M10.021 7.070 C 8.770 7.227,7.342 7.858,6.268 8.731 C 5.159 9.631,4.396 10.747,3.918 12.167 C 3.438 13.594,3.416 15.272,3.860 16.677 C 4.114 17.482,4.540 18.331,5.010 18.971 C 5.331 19.409,6.176 20.243,6.612 20.553 C 8.481 21.882,10.723 22.310,12.889 21.752 C 15.679 21.032,17.759 18.836,18.377 15.958 C 18.550 15.152,18.536 13.492,18.353 13.053 C 18.239 12.780,17.859 12.667,17.621 12.836 C 17.417 12.981,17.412 13.014,17.461 13.896 C 17.494 14.481,17.494 14.852,17.462 15.204 C 17.158 18.533,14.116 21.153,10.750 20.984 C 9.271 20.910,7.859 20.350,6.813 19.423 C 5.872 18.589,5.229 17.626,4.857 16.492 C 4.607 15.729,4.573 15.450,4.594 14.337 C 4.612 13.391,4.618 13.336,4.744 12.878 C 5.401 10.503,7.166 8.782,9.563 8.181 C 9.907 8.095,10.117 8.073,10.777 8.054 C 11.289 8.039,11.717 8.048,11.972 8.080 C 12.401 8.134,12.513 8.110,12.681 7.924 C 12.792 7.802,12.816 7.542,12.731 7.378 C 12.642 7.207,12.490 7.145,12.021 7.088 C 11.675 7.046,10.312 7.033,10.021 7.070 M10.786 9.084 C 10.703 9.128,10.622 9.197,10.606 9.238 C 10.590 9.279,10.562 9.552,10.544 9.845 C 10.526 10.138,10.504 10.383,10.495 10.390 C 10.486 10.396,10.320 10.435,10.125 10.476 C 8.927 10.725,8.184 11.511,8.194 12.521 C 8.199 13.081,8.435 13.568,8.922 14.021 C 9.267 14.341,9.712 14.590,10.646 14.984 C 11.765 15.456,12.034 15.578,12.348 15.760 C 12.892 16.075,13.079 16.364,13.026 16.810 C 12.942 17.524,12.105 17.922,10.813 17.862 C 10.047 17.827,9.451 17.643,8.919 17.276 C 8.780 17.181,8.651 17.125,8.568 17.125 C 8.278 17.126,7.997 17.439,8.060 17.694 C 8.165 18.117,9.231 18.670,10.198 18.804 L 10.542 18.852 10.542 19.365 C 10.542 19.734,10.559 19.912,10.602 19.996 C 10.683 20.153,10.926 20.266,11.116 20.235 C 11.434 20.184,11.542 19.937,11.542 19.257 L 11.542 18.843 11.773 18.814 C 13.206 18.635,14.096 17.758,14.032 16.587 C 13.975 15.550,13.413 15.047,11.375 14.209 C 9.990 13.639,9.485 13.314,9.293 12.868 C 9.185 12.617,9.191 12.276,9.308 12.050 C 9.521 11.638,10.368 11.327,11.083 11.398 C 11.663 11.456,11.988 11.550,12.792 11.890 C 13.187 12.057,13.282 12.070,13.460 11.978 C 13.698 11.855,13.774 11.546,13.626 11.304 C 13.486 11.073,12.326 10.568,11.740 10.482 L 11.542 10.453 11.541 9.966 C 11.540 9.381,11.472 9.181,11.239 9.070 C 11.053 8.982,10.975 8.984,10.786 9.084 " fill="#EC0000" stroke="none" fill-rule="evenodd"></path></svg>