<svg width="24" height="25" viewBox="0 0 24 25" fill="none" xmlns="http://www.w3.org/2000/svg"><path d="M7.322 2.562 C 6.783 2.635,6.336 2.969,6.155 3.434 C 6.021 3.777,6.005 4.370,6.118 4.781 C 6.363 5.676,7.054 6.427,8.120 6.960 C 8.263 7.031,8.387 7.095,8.395 7.103 C 8.403 7.110,8.139 7.383,7.809 7.708 C 7.479 8.034,7.064 8.484,6.887 8.708 C 5.403 10.594,4.379 13.087,4.072 15.560 C 3.994 16.195,4.007 17.567,4.096 18.060 C 4.477 20.158,5.859 21.478,8.349 22.122 C 9.500 22.420,10.223 22.493,12.000 22.493 C 13.489 22.493,13.870 22.469,14.751 22.316 C 17.942 21.764,19.664 20.231,19.962 17.678 C 20.093 16.561,19.870 14.672,19.441 13.252 C 18.757 10.990,17.586 9.020,16.073 7.585 C 15.805 7.330,15.593 7.114,15.602 7.106 C 15.612 7.097,15.737 7.031,15.880 6.960 C 16.782 6.510,17.504 5.785,17.808 5.025 C 17.931 4.717,17.938 4.672,17.938 4.180 C 17.939 3.547,17.860 3.295,17.564 3.001 C 17.209 2.647,16.838 2.541,16.062 2.570 C 15.500 2.591,15.238 2.642,14.120 2.950 C 11.900 3.561,12.048 3.554,10.500 3.119 C 8.722 2.619,7.929 2.480,7.322 2.562 M8.514 3.639 C 8.726 3.682,9.359 3.846,9.920 4.002 C 11.570 4.463,11.924 4.509,12.669 4.363 C 12.884 4.321,13.519 4.159,14.080 4.002 C 15.358 3.645,15.775 3.560,16.238 3.560 C 16.870 3.560,16.997 3.685,16.944 4.256 C 16.872 5.051,16.241 5.711,15.047 6.241 C 14.806 6.348,14.584 6.414,14.374 6.442 C 14.179 6.468,13.195 6.479,11.780 6.472 L 9.500 6.460 9.076 6.289 C 8.179 5.928,7.497 5.388,7.214 4.816 C 7.077 4.538,7.063 4.479,7.061 4.181 C 7.060 3.812,7.115 3.664,7.276 3.604 C 7.459 3.537,8.104 3.555,8.514 3.639 M14.747 7.773 C 16.751 9.268,18.319 12.056,18.821 15.022 C 19.075 16.523,19.030 17.786,18.691 18.640 C 18.067 20.212,16.557 21.094,13.917 21.427 C 13.234 21.513,10.931 21.527,10.260 21.448 C 7.777 21.157,6.365 20.472,5.580 19.176 C 5.173 18.505,5.028 17.899,5.029 16.880 C 5.031 15.600,5.251 14.286,5.673 13.040 C 6.432 10.796,7.838 8.760,9.377 7.677 L 9.655 7.480 12.005 7.480 L 14.354 7.480 14.747 7.773 M11.765 10.544 C 11.110 10.654,10.356 10.966,9.773 11.368 C 9.173 11.782,8.512 12.592,8.292 13.185 L 8.186 13.470 7.783 13.488 C 7.310 13.510,7.142 13.578,7.057 13.781 C 6.983 13.958,6.985 14.057,7.065 14.226 C 7.201 14.511,7.082 14.500,9.980 14.500 C 12.392 14.500,12.589 14.495,12.710 14.429 C 12.894 14.329,12.981 14.177,12.976 13.965 C 12.973 13.815,12.950 13.766,12.834 13.660 L 12.696 13.533 12.058 13.507 C 11.707 13.492,10.988 13.480,10.460 13.480 C 9.471 13.479,9.320 13.466,9.320 13.382 C 9.320 13.287,9.637 12.843,9.870 12.610 C 10.593 11.887,11.430 11.534,12.520 11.492 C 13.410 11.457,14.106 11.626,14.800 12.046 C 15.315 12.356,15.352 12.372,15.508 12.346 C 15.801 12.299,15.993 12.048,15.942 11.778 C 15.883 11.462,15.011 10.921,14.160 10.673 C 13.511 10.484,12.463 10.427,11.765 10.544 M7.505 15.548 C 7.222 15.568,7.099 15.641,7.038 15.826 C 6.943 16.115,7.092 16.395,7.385 16.477 C 7.470 16.500,7.686 16.520,7.864 16.520 L 8.187 16.520 8.303 16.810 C 8.645 17.665,9.542 18.567,10.499 19.017 C 11.594 19.532,12.791 19.643,13.986 19.339 C 14.985 19.086,15.948 18.503,16.022 18.106 C 16.072 17.838,15.889 17.589,15.620 17.560 C 15.438 17.540,15.355 17.570,15.055 17.767 C 14.189 18.334,13.260 18.579,12.333 18.483 C 11.321 18.378,10.535 18.022,9.900 17.379 C 9.621 17.097,9.289 16.618,9.338 16.569 C 9.352 16.554,10.088 16.531,10.972 16.516 C 12.093 16.498,12.620 16.475,12.711 16.441 C 12.847 16.390,13.000 16.159,13.000 16.006 C 13.000 15.857,12.878 15.637,12.769 15.590 C 12.689 15.555,12.001 15.541,10.200 15.537 C 8.847 15.535,7.634 15.540,7.505 15.548 " fill="#EC0000" stroke="none" fill-rule="evenodd"></path></svg>