<svg width="24" height="25" viewBox="0 0 24 25" fill="none" xmlns="http://www.w3.org/2000/svg"><path d="M5.600 2.620 C 3.845 3.012,2.460 4.389,2.099 6.100 C 1.683 8.071,2.664 10.127,4.447 11.019 C 4.833 11.213,4.961 11.234,5.183 11.141 C 5.439 11.034,5.516 10.629,5.320 10.420 C 5.274 10.371,5.142 10.280,5.028 10.219 C 4.125 9.734,3.469 8.986,3.171 8.100 C 3.070 7.800,3.063 7.735,3.062 7.040 C 3.060 6.371,3.069 6.273,3.153 6.020 C 3.369 5.364,3.766 4.764,4.251 4.359 C 4.586 4.078,5.285 3.719,5.683 3.623 C 6.033 3.539,6.973 3.537,7.302 3.620 C 8.428 3.905,9.348 4.717,9.771 5.800 C 9.934 6.215,9.970 6.491,9.952 7.166 C 9.937 7.727,9.925 7.810,9.812 8.133 C 9.743 8.327,9.600 8.631,9.494 8.808 C 9.305 9.123,8.613 9.906,8.566 9.859 C 8.553 9.846,8.531 9.508,8.518 9.108 C 8.501 8.598,8.477 8.354,8.439 8.293 C 8.369 8.182,8.118 8.040,7.991 8.040 C 7.832 8.040,7.568 8.256,7.540 8.409 C 7.526 8.481,7.521 9.144,7.527 9.882 C 7.539 11.083,7.547 11.235,7.611 11.331 C 7.649 11.390,7.730 11.453,7.791 11.469 C 7.851 11.486,8.523 11.500,9.284 11.500 C 10.807 11.500,10.825 11.497,10.938 11.258 C 11.016 11.094,11.017 10.948,10.939 10.799 C 10.830 10.587,10.688 10.547,9.989 10.528 L 9.358 10.510 9.699 10.157 C 10.281 9.552,10.654 8.894,10.870 8.087 C 10.962 7.743,10.973 7.625,10.973 7.020 C 10.973 6.409,10.963 6.301,10.867 5.952 C 10.729 5.446,10.505 4.933,10.258 4.560 C 10.022 4.202,9.443 3.608,9.078 3.350 C 8.734 3.106,8.149 2.829,7.700 2.696 C 7.379 2.601,7.260 2.588,6.600 2.576 C 6.055 2.565,5.791 2.577,5.600 2.620 M13.108 4.752 L 12.960 4.903 12.960 8.422 L 12.960 11.940 12.110 12.479 C 9.770 13.963,9.472 14.203,9.244 14.797 C 8.988 15.459,8.723 16.713,8.573 17.960 C 8.517 18.426,8.503 18.889,8.502 20.320 C 8.500 22.030,8.503 22.105,8.580 22.236 C 8.624 22.311,8.728 22.408,8.812 22.451 C 8.956 22.526,8.971 22.526,9.137 22.463 C 9.232 22.427,9.341 22.363,9.379 22.322 C 9.482 22.207,9.517 21.807,9.520 20.700 C 9.524 19.275,9.586 17.803,9.660 17.360 C 9.842 16.269,10.084 15.332,10.272 14.986 C 10.388 14.772,10.434 14.739,12.110 13.667 L 12.960 13.123 12.960 14.573 L 12.960 16.022 12.699 16.281 C 12.536 16.442,12.421 16.595,12.394 16.685 C 12.308 16.971,12.499 17.256,12.811 17.306 C 13.005 17.338,13.165 17.198,14.906 15.474 C 15.887 14.503,16.470 13.954,16.540 13.936 C 16.692 13.898,16.911 14.009,16.944 14.142 C 16.993 14.338,16.926 14.494,15.623 17.188 L 15.116 18.236 14.995 18.868 C 14.857 19.582,14.718 19.982,14.473 20.360 C 14.252 20.700,13.782 21.167,13.368 21.456 C 12.990 21.721,12.902 21.832,12.902 22.045 C 12.902 22.332,13.194 22.560,13.491 22.504 C 13.810 22.444,14.699 21.723,15.098 21.200 C 15.533 20.629,15.799 20.009,15.964 19.180 C 16.078 18.611,16.142 18.388,16.258 18.165 L 16.322 18.040 19.013 18.040 L 21.704 18.040 21.852 17.888 L 22.000 17.737 22.000 11.316 L 22.000 4.896 21.848 4.748 L 21.697 4.600 17.476 4.600 L 13.256 4.600 13.108 4.752 M21.000 11.320 L 21.000 17.040 18.970 17.039 C 17.854 17.039,16.919 17.025,16.893 17.009 C 16.860 16.988,16.946 16.770,17.182 16.279 C 17.889 14.810,17.987 14.528,17.947 14.092 C 17.905 13.647,17.644 13.285,17.203 13.061 C 17.029 12.973,16.951 12.960,16.611 12.960 C 16.247 12.961,16.205 12.969,16.004 13.085 C 15.867 13.163,15.449 13.543,14.874 14.111 L 13.960 15.012 13.960 10.306 L 13.960 5.600 17.480 5.600 L 21.000 5.600 21.000 11.320 M17.440 6.763 C 17.261 6.786,17.068 6.853,16.817 6.976 C 16.228 7.269,15.843 7.698,15.674 8.250 L 15.592 8.520 15.392 8.520 C 15.024 8.520,14.800 8.704,14.800 9.008 C 14.800 9.164,14.918 9.374,15.048 9.447 C 15.172 9.518,17.861 9.546,18.182 9.480 C 18.526 9.408,18.672 9.141,18.542 8.817 C 18.437 8.554,18.400 8.544,17.471 8.527 L 16.642 8.512 16.703 8.394 C 16.817 8.173,17.037 7.972,17.290 7.857 C 17.510 7.757,17.587 7.743,17.940 7.742 L 18.340 7.741 18.772 7.970 C 19.010 8.097,19.250 8.200,19.306 8.200 C 19.454 8.200,19.630 8.082,19.699 7.936 C 19.835 7.650,19.746 7.435,19.395 7.197 C 19.004 6.931,18.688 6.806,18.292 6.761 C 17.897 6.716,17.810 6.716,17.440 6.763 M15.280 10.147 C 15.018 10.174,14.958 10.202,14.879 10.331 C 14.646 10.712,14.938 11.117,15.447 11.119 L 15.634 11.120 15.699 11.317 C 15.792 11.596,16.033 11.953,16.264 12.153 C 16.523 12.378,17.032 12.627,17.380 12.700 C 17.739 12.775,18.152 12.775,18.474 12.699 C 18.899 12.599,19.558 12.231,19.700 12.015 C 19.834 11.810,19.728 11.451,19.501 11.343 C 19.288 11.242,19.163 11.266,18.805 11.477 C 18.620 11.586,18.379 11.696,18.269 11.723 C 18.030 11.780,17.618 11.751,17.350 11.658 C 17.148 11.588,16.747 11.260,16.772 11.185 C 16.782 11.155,17.031 11.133,17.523 11.120 C 18.208 11.101,18.269 11.094,18.387 11.009 C 18.634 10.833,18.653 10.509,18.432 10.257 L 18.312 10.120 16.866 10.126 C 16.071 10.130,15.357 10.139,15.280 10.147 " fill="#EC0000" stroke="none" fill-rule="evenodd"></path></svg>