<svg width="24" height="25" viewBox="0 0 24 25" fill="none" xmlns="http://www.w3.org/2000/svg"><path d="M8.160 2.563 C 5.770 2.591,5.204 2.621,5.103 2.721 C 5.054 2.770,5.015 19.985,5.061 21.421 C 5.082 22.056,5.102 22.282,5.146 22.341 C 5.197 22.412,5.270 22.423,5.832 22.446 C 6.177 22.460,9.201 22.486,12.552 22.503 L 18.644 22.533 18.822 22.358 L 19.000 22.183 19.000 15.002 L 19.000 7.820 16.350 5.170 L 13.700 2.520 12.180 2.527 C 11.344 2.531,9.535 2.547,8.160 2.563 M13.001 5.250 C 13.002 7.039,13.044 8.077,13.123 8.251 C 13.148 8.306,13.216 8.373,13.274 8.400 C 13.421 8.468,14.718 8.515,16.510 8.518 L 18.000 8.520 18.000 15.020 L 18.000 21.520 12.000 21.520 L 6.000 21.520 6.000 12.520 L 6.000 3.520 9.500 3.520 L 13.000 3.520 13.001 5.250 M14.896 5.142 C 15.769 5.972,17.080 7.337,17.080 7.416 C 17.080 7.491,16.555 7.520,15.194 7.520 L 14.040 7.520 14.040 6.650 C 14.040 6.171,14.028 5.470,14.014 5.090 C 13.990 4.472,13.994 4.400,14.052 4.400 C 14.087 4.400,14.467 4.734,14.896 5.142 M11.780 10.600 C 11.315 10.670,10.837 10.864,10.395 11.162 C 10.074 11.379,9.623 11.827,9.412 12.140 C 9.232 12.408,8.877 13.100,8.802 13.330 C 8.747 13.500,8.740 13.503,8.232 13.558 C 7.839 13.601,7.662 13.674,7.626 13.808 C 7.557 14.066,7.639 14.309,7.827 14.398 C 8.049 14.503,11.522 14.563,12.647 14.481 C 13.382 14.427,13.520 14.347,13.520 13.975 C 13.520 13.598,13.530 13.600,11.220 13.518 C 10.582 13.495,10.029 13.467,9.990 13.455 C 9.887 13.425,9.903 13.337,10.064 13.043 C 10.399 12.434,10.767 12.081,11.396 11.767 L 11.772 11.580 12.604 11.567 L 13.436 11.554 14.132 11.917 C 14.949 12.343,15.116 12.386,15.312 12.221 C 15.460 12.096,15.523 11.908,15.470 11.750 C 15.341 11.372,14.112 10.677,13.433 10.599 C 13.051 10.555,12.075 10.556,11.780 10.600 M7.707 15.688 C 7.584 15.849,7.561 16.127,7.660 16.267 C 7.735 16.375,8.017 16.472,8.356 16.505 C 8.501 16.519,8.650 16.546,8.686 16.565 C 8.722 16.583,8.842 16.783,8.953 17.009 C 9.554 18.235,10.345 18.976,11.420 19.320 C 11.659 19.397,11.817 19.413,12.502 19.430 C 13.224 19.448,13.337 19.441,13.635 19.366 C 14.270 19.205,15.260 18.610,15.503 18.243 C 15.597 18.101,15.604 18.068,15.563 17.953 C 15.538 17.881,15.470 17.772,15.412 17.711 C 15.226 17.517,15.069 17.551,14.422 17.921 C 14.115 18.097,13.764 18.278,13.643 18.323 C 13.320 18.444,12.839 18.487,12.331 18.442 C 11.563 18.373,11.156 18.195,10.678 17.718 C 10.371 17.411,9.864 16.707,9.892 16.625 C 9.902 16.595,10.184 16.570,10.743 16.551 C 13.307 16.461,13.368 16.453,13.502 16.171 C 13.566 16.035,13.566 16.019,13.494 15.844 L 13.418 15.660 13.139 15.635 C 12.985 15.621,11.724 15.595,10.337 15.579 L 7.813 15.548 7.707 15.688 " fill="#EC0000" stroke="none" fill-rule="evenodd"></path></svg>