<svg width="25" height="24" viewBox="0 0 25 24" fill="none" xmlns="http://www.w3.org/2000/svg"><path d="M8.208 3.038 L 6.979 3.063 6.639 3.243 C 6.044 3.557,5.670 4.070,5.569 4.709 L 5.524 4.995 5.316 5.023 C 4.439 5.144,3.718 5.813,3.585 6.631 C 3.562 6.777,3.542 7.144,3.542 7.448 L 3.542 8.000 3.302 8.000 C 2.985 8.001,2.787 8.060,2.664 8.191 L 2.563 8.298 2.563 9.999 C 2.563 11.641,2.565 11.703,2.646 11.793 C 2.772 11.935,2.969 12.000,3.269 12.000 L 3.542 12.000 3.542 12.552 C 3.542 12.856,3.562 13.224,3.586 13.371 C 3.695 14.044,4.202 14.627,4.899 14.881 C 5.118 14.961,5.255 14.973,6.110 14.990 C 6.964 15.007,7.091 15.000,7.226 14.936 C 7.480 14.816,7.573 14.513,7.437 14.249 C 7.331 14.043,7.260 14.029,6.229 14.009 C 5.152 13.987,5.095 13.973,4.824 13.673 C 4.585 13.409,4.573 13.367,4.551 12.659 L 4.530 12.000 5.311 12.000 C 6.185 12.000,6.322 11.968,6.450 11.734 C 6.513 11.618,6.521 11.437,6.521 10.063 C 6.521 9.215,6.506 8.451,6.488 8.366 C 6.466 8.262,6.412 8.181,6.321 8.116 C 6.194 8.026,6.145 8.020,5.359 8.007 L 4.530 7.994 4.551 7.327 C 4.572 6.673,4.575 6.656,4.694 6.487 C 4.760 6.393,4.892 6.256,4.986 6.184 L 5.158 6.053 6.402 6.027 C 7.086 6.013,9.418 5.997,11.583 5.990 L 15.521 5.979 15.542 6.839 C 15.564 7.781,15.570 7.801,15.842 7.942 C 16.022 8.035,16.154 8.012,16.320 7.861 C 16.444 7.747,16.477 7.682,16.504 7.496 C 16.550 7.169,16.548 4.606,16.501 4.320 C 16.415 3.795,16.113 3.375,15.667 3.161 L 15.438 3.051 12.438 3.032 C 10.787 3.022,8.884 3.024,8.208 3.038 M15.333 4.104 C 15.457 4.216,15.550 4.449,15.522 4.578 C 15.508 4.641,15.440 4.762,15.370 4.847 L 15.244 5.000 10.893 5.000 L 6.542 5.000 6.543 4.885 C 6.545 4.611,6.801 4.272,7.146 4.086 L 7.313 3.997 11.284 4.015 C 14.943 4.032,15.261 4.038,15.333 4.104 M5.542 10.000 L 5.542 11.000 4.542 11.000 L 3.542 11.000 3.542 10.000 L 3.542 9.000 4.542 9.000 L 5.542 9.000 5.542 10.000 M9.958 9.040 C 9.663 9.059,9.516 9.090,9.379 9.162 C 9.105 9.306,8.807 9.606,8.678 9.870 L 8.563 10.104 8.551 14.579 C 8.544 17.170,8.555 19.172,8.578 19.333 C 8.694 20.174,9.411 20.855,10.292 20.961 C 10.520 20.988,12.299 20.999,15.292 20.991 L 19.938 20.979 20.214 20.871 C 20.737 20.668,21.097 20.330,21.336 19.820 C 21.489 19.493,21.538 19.171,21.540 18.490 L 21.542 18.000 21.814 18.000 C 22.137 18.000,22.341 17.925,22.445 17.766 C 22.515 17.658,22.521 17.529,22.521 16.044 C 22.521 15.160,22.507 14.387,22.489 14.326 C 22.435 14.132,22.237 14.030,21.875 14.009 L 21.554 13.990 21.531 13.297 C 21.506 12.524,21.449 12.298,21.177 11.885 C 20.896 11.458,20.388 11.138,19.834 11.039 L 19.548 10.988 19.519 10.775 C 19.426 10.093,18.992 9.501,18.350 9.185 C 18.174 9.098,18.043 9.073,17.579 9.041 C 16.967 8.999,10.595 8.998,9.958 9.040 M16.099 10.028 L 17.886 10.055 18.078 10.184 C 18.271 10.313,18.457 10.609,18.518 10.887 L 18.544 11.003 14.220 10.991 C 9.416 10.978,9.703 10.996,9.590 10.700 C 9.515 10.501,9.554 10.291,9.693 10.152 C 9.791 10.054,9.835 10.043,10.202 10.031 C 11.033 10.003,14.378 10.001,16.099 10.028 M17.402 12.018 C 20.075 12.037,19.944 12.024,20.241 12.306 C 20.429 12.485,20.497 12.749,20.528 13.423 L 20.554 13.991 19.725 14.009 C 19.248 14.020,18.848 14.047,18.784 14.074 C 18.564 14.166,18.563 14.179,18.563 16.002 C 18.563 17.901,18.558 17.871,18.864 17.956 C 18.950 17.980,19.366 18.000,19.788 18.000 L 20.555 18.000 20.528 18.594 C 20.513 18.920,20.480 19.262,20.455 19.354 C 20.400 19.550,20.075 19.887,19.892 19.938 C 19.825 19.957,17.639 19.979,15.033 19.988 C 10.387 20.003,10.292 20.002,10.134 19.921 C 9.972 19.839,9.714 19.583,9.625 19.418 C 9.568 19.311,9.511 13.126,9.560 12.410 L 9.591 11.965 12.285 11.983 C 13.767 11.992,16.069 12.008,17.402 12.018 M21.542 16.000 L 21.542 17.000 20.542 17.000 L 19.542 17.000 19.542 16.000 L 19.542 15.000 20.542 15.000 L 21.542 15.000 21.542 16.000 " fill="#EC0000" stroke="none" fill-rule="evenodd"></path></svg>