<svg width="24" height="25" viewBox="0 0 24 25" fill="none" xmlns="http://www.w3.org/2000/svg"><path d="M3.340 4.636 C 3.171 4.678,3.082 4.731,2.848 4.928 C 2.585 5.148,2.269 5.546,2.118 5.844 L 2.000 6.078 2.000 12.530 L 2.000 18.982 2.186 19.301 C 2.415 19.693,2.898 20.187,3.180 20.317 C 3.339 20.391,3.500 20.418,3.980 20.453 C 4.804 20.513,18.424 20.507,19.116 20.447 C 19.516 20.412,19.655 20.382,19.832 20.296 C 20.076 20.177,20.666 19.621,20.777 19.406 C 20.922 19.125,20.965 18.770,20.988 17.635 L 21.011 16.530 21.235 16.510 C 21.556 16.481,21.799 16.399,21.865 16.298 C 21.897 16.249,21.939 16.026,21.960 15.795 C 22.035 14.962,21.990 11.988,21.898 11.750 C 21.863 11.657,21.614 11.570,21.292 11.538 L 21.010 11.511 20.989 10.405 C 20.960 8.861,20.911 8.667,20.422 8.176 C 20.092 7.844,19.680 7.620,19.274 7.551 L 19.012 7.506 18.988 6.901 C 18.958 6.118,18.883 5.788,18.663 5.467 C 18.467 5.180,18.113 4.875,17.800 4.725 L 17.580 4.620 10.520 4.613 C 6.637 4.609,3.406 4.619,3.340 4.636 M17.526 5.699 C 17.848 5.950,17.938 6.218,17.986 7.069 L 18.012 7.520 10.868 7.520 L 3.724 7.520 3.486 7.322 C 3.091 6.993,3.064 6.937,3.096 6.506 C 3.127 6.069,3.233 5.824,3.442 5.701 C 3.576 5.622,3.658 5.619,6.540 5.598 C 8.168 5.586,11.266 5.573,13.423 5.568 L 17.347 5.560 17.526 5.699 M3.800 8.442 C 4.009 8.461,7.591 8.496,11.760 8.520 L 19.340 8.564 19.500 8.677 C 19.588 8.739,19.711 8.861,19.773 8.948 C 19.916 9.149,19.943 9.366,19.980 10.585 L 20.008 11.509 18.574 11.538 C 16.760 11.575,16.213 11.609,16.129 11.694 C 16.039 11.784,15.988 13.301,16.021 14.900 C 16.050 16.307,16.061 16.366,16.307 16.442 C 16.410 16.473,17.041 16.495,18.230 16.509 L 20.000 16.530 20.000 16.915 C 19.999 17.354,19.932 18.584,19.896 18.812 C 19.879 18.922,19.813 19.028,19.663 19.189 L 19.455 19.413 19.117 19.448 C 18.932 19.467,15.400 19.493,11.269 19.505 L 3.758 19.528 3.542 19.365 C 3.422 19.275,3.276 19.137,3.216 19.058 L 3.107 18.916 3.077 17.468 C 3.061 16.672,3.034 14.270,3.018 12.132 L 2.988 8.243 3.204 8.326 C 3.323 8.371,3.591 8.424,3.800 8.442 M21.000 14.020 L 21.000 15.520 19.000 15.520 L 17.000 15.520 17.000 14.020 L 17.000 12.520 19.000 12.520 L 21.000 12.520 21.000 14.020 " fill="#EC0000" stroke="none" fill-rule="evenodd"></path></svg>