<svg width="24" height="24" viewBox="0 0 24 24" fill="none" xmlns="http://www.w3.org/2000/svg"><path d="M16.996 3.043 C 16.515 3.094,16.055 3.228,15.580 3.456 C 13.602 4.405,12.590 6.595,13.167 8.680 C 13.379 9.447,13.740 10.055,14.343 10.657 C 14.966 11.281,15.557 11.625,16.403 11.856 C 16.744 11.950,16.850 11.960,17.501 11.960 C 18.103 11.960,18.271 11.947,18.521 11.878 C 19.930 11.492,20.963 10.655,21.561 9.415 C 22.349 7.781,22.029 5.775,20.766 4.430 C 20.042 3.659,19.011 3.150,17.957 3.042 C 17.510 2.996,17.439 2.996,16.996 3.043 M18.360 4.125 C 19.508 4.415,20.415 5.274,20.846 6.481 C 20.929 6.716,20.938 6.810,20.939 7.480 C 20.940 8.151,20.931 8.246,20.846 8.500 C 20.472 9.619,19.691 10.428,18.613 10.814 C 18.262 10.939,18.255 10.940,17.480 10.939 L 16.700 10.938 16.355 10.807 C 15.280 10.399,14.523 9.605,14.154 8.500 C 14.069 8.248,14.060 8.149,14.060 7.500 C 14.060 6.852,14.069 6.752,14.153 6.500 C 14.496 5.474,15.226 4.665,16.155 4.282 C 16.437 4.166,16.876 4.052,17.140 4.025 C 17.430 3.997,18.055 4.047,18.360 4.125 M4.318 5.038 L 3.455 5.060 3.143 5.214 C 2.516 5.525,2.100 6.110,2.037 6.770 C 1.991 7.246,1.993 18.605,2.039 19.158 C 2.071 19.548,2.096 19.656,2.205 19.878 C 2.377 20.228,2.774 20.624,3.126 20.797 C 3.364 20.913,3.445 20.930,3.906 20.962 C 4.577 21.008,18.423 21.008,19.094 20.962 C 19.555 20.930,19.636 20.913,19.872 20.797 C 20.221 20.625,20.625 20.222,20.793 19.878 C 20.966 19.524,20.998 19.234,20.999 18.030 L 21.000 17.000 21.281 17.000 C 21.611 17.000,21.805 16.930,21.907 16.775 C 21.975 16.670,21.980 16.528,21.980 14.495 C 21.980 12.356,21.979 12.324,21.896 12.213 C 21.771 12.044,21.602 12.005,20.986 12.002 C 20.361 12.000,20.206 12.043,20.075 12.257 C 19.980 12.414,19.980 12.586,20.075 12.743 C 20.184 12.921,20.380 13.000,20.716 13.000 L 21.000 13.000 21.000 14.500 L 21.000 16.000 19.002 16.000 L 17.005 16.000 16.992 14.668 C 16.979 13.178,16.978 13.173,16.690 13.053 C 16.401 12.932,16.097 13.094,16.038 13.401 C 15.993 13.633,15.993 16.366,16.038 16.598 C 16.063 16.727,16.109 16.806,16.206 16.887 L 16.340 16.998 18.176 16.999 L 20.012 17.000 19.989 18.164 L 19.967 19.328 19.852 19.513 C 19.679 19.793,19.469 19.921,19.115 19.962 C 18.730 20.007,4.270 20.007,3.885 19.962 C 3.531 19.921,3.321 19.793,3.147 19.512 L 3.032 19.326 3.010 14.493 C 2.998 11.835,3.002 9.465,3.018 9.226 C 3.047 8.807,3.051 8.794,3.134 8.820 C 3.638 8.980,3.456 8.973,7.401 8.990 C 11.488 9.008,11.715 8.999,11.868 8.822 C 11.999 8.671,12.023 8.474,11.934 8.292 C 11.794 8.005,12.051 8.023,7.700 7.997 C 4.667 7.979,3.744 7.962,3.620 7.922 C 3.439 7.864,3.238 7.668,3.110 7.426 C 2.989 7.196,2.989 6.804,3.110 6.574 C 3.238 6.332,3.439 6.136,3.620 6.078 C 3.743 6.039,4.690 6.022,7.700 6.004 C 12.051 5.977,11.794 5.995,11.934 5.708 C 12.024 5.525,11.999 5.329,11.865 5.174 C 11.782 5.078,11.737 5.065,11.377 5.036 C 10.945 5.001,5.713 5.003,4.318 5.038 M17.287 5.066 C 17.035 5.193,17.021 5.246,17.007 6.165 L 16.994 6.994 16.167 7.007 C 15.379 7.019,15.334 7.024,15.211 7.112 C 14.949 7.299,14.950 7.700,15.213 7.896 C 15.318 7.974,15.385 7.981,16.163 7.993 L 17.000 8.006 17.000 8.794 C 17.000 9.681,17.027 9.790,17.282 9.927 C 17.454 10.019,17.546 10.019,17.718 9.927 C 17.973 9.790,18.000 9.681,18.000 8.794 L 18.000 8.006 18.837 7.993 C 19.615 7.981,19.682 7.974,19.787 7.896 C 20.050 7.700,20.051 7.299,19.789 7.112 C 19.666 7.024,19.621 7.019,18.830 7.007 L 18.000 6.993 18.000 6.215 C 18.000 5.371,17.972 5.222,17.788 5.101 C 17.637 5.002,17.439 4.988,17.287 5.066 " fill="#EC0000" stroke="none" fill-rule="evenodd"></path></svg>