<svg width="24" height="25" viewBox="0 0 24 25" fill="none" xmlns="http://www.w3.org/2000/svg"><path d="M3.533 5.639 C 2.782 5.650,2.152 5.675,2.134 5.693 C 2.060 5.766,2.044 6.460,2.018 10.700 C 1.988 15.668,2.018 17.137,2.152 17.317 C 2.201 17.382,2.286 17.430,2.384 17.448 C 2.470 17.464,3.091 17.489,3.765 17.504 L 4.991 17.533 5.008 18.796 C 5.028 20.192,5.048 20.317,5.268 20.405 C 5.483 20.491,7.427 20.515,14.522 20.517 L 21.663 20.520 21.832 20.348 L 22.000 20.177 21.996 16.518 C 21.991 12.435,21.949 8.854,21.905 8.755 C 21.844 8.621,21.669 8.592,20.720 8.558 C 20.203 8.539,19.607 8.523,19.395 8.522 L 19.010 8.520 18.991 7.190 C 18.980 6.459,18.958 5.830,18.943 5.793 C 18.927 5.756,18.884 5.713,18.847 5.697 C 18.699 5.633,16.181 5.607,10.680 5.612 C 7.501 5.615,4.285 5.627,3.533 5.639 M18.000 7.515 L 18.000 8.510 13.730 8.538 C 8.879 8.570,5.166 8.621,5.131 8.656 C 5.067 8.720,5.042 9.666,5.015 12.950 L 4.987 16.520 3.993 16.520 L 3.000 16.520 3.000 11.520 L 3.000 6.520 10.500 6.520 L 18.000 6.520 18.000 7.515 M7.873 9.579 C 7.914 9.620,7.764 9.967,7.571 10.277 C 7.294 10.721,6.999 10.990,6.521 11.234 C 6.298 11.347,6.090 11.440,6.058 11.440 C 6.009 11.440,6.000 11.292,6.000 10.474 L 6.000 9.507 6.925 9.532 C 7.433 9.545,7.860 9.566,7.873 9.579 M21.000 10.480 C 21.000 11.233,20.989 11.440,20.949 11.440 C 20.859 11.440,20.319 11.165,20.081 10.997 C 19.696 10.728,19.159 9.988,19.146 9.711 C 19.140 9.585,19.147 9.579,19.320 9.556 C 19.419 9.543,19.838 9.529,20.250 9.526 L 21.000 9.520 21.000 10.480 M18.134 9.837 C 18.338 10.631,19.015 11.543,19.698 11.947 C 19.991 12.119,20.508 12.333,20.790 12.399 L 21.000 12.448 21.000 14.078 C 21.000 14.974,20.988 15.897,20.974 16.128 L 20.949 16.549 20.724 16.618 C 20.381 16.724,19.780 17.019,19.503 17.217 C 19.141 17.475,18.689 17.975,18.476 18.353 C 18.375 18.532,18.232 18.857,18.158 19.074 L 18.025 19.469 17.546 19.494 C 17.283 19.508,15.247 19.520,13.022 19.520 L 8.976 19.520 8.864 19.173 C 8.556 18.229,8.139 17.645,7.442 17.181 C 7.104 16.956,6.493 16.667,6.210 16.597 L 6.000 16.545 6.000 14.497 L 6.000 12.449 6.147 12.421 C 6.341 12.385,6.836 12.187,7.160 12.016 C 7.941 11.605,8.746 10.538,8.901 9.710 L 8.929 9.560 13.496 9.560 L 18.062 9.560 18.134 9.837 M20.934 17.618 C 20.946 17.650,20.969 18.091,20.984 18.598 L 21.012 19.520 20.156 19.519 C 19.685 19.519,19.259 19.508,19.210 19.495 C 19.082 19.460,19.094 19.329,19.258 19.004 C 19.423 18.677,19.716 18.302,19.974 18.089 C 20.137 17.955,20.812 17.564,20.886 17.561 C 20.900 17.560,20.922 17.586,20.934 17.618 M6.305 17.664 C 6.603 17.788,6.984 18.035,7.187 18.235 C 7.414 18.458,7.709 18.906,7.845 19.234 C 7.920 19.414,7.925 19.453,7.877 19.483 C 7.846 19.503,7.408 19.519,6.904 19.519 L 5.987 19.520 6.011 18.600 C 6.025 18.094,6.047 17.662,6.060 17.640 C 6.093 17.586,6.124 17.589,6.305 17.664 " fill="#EC0000" stroke="none" fill-rule="evenodd"></path></svg>