<svg width="20" height="20" viewBox="0 0 20 20" fill="none" xmlns="http://www.w3.org/2000/svg"><path d="M8.350 1.730 C 8.246 1.796,6.757 3.288,6.339 3.745 C 6.129 3.975,6.100 4.022,6.100 4.136 C 6.100 4.380,6.370 4.581,6.616 4.520 C 6.661 4.509,7.021 4.183,7.416 3.796 L 8.133 3.092 8.133 4.354 C 8.133 5.049,8.123 5.963,8.111 6.385 L 8.090 7.154 7.870 7.217 C 7.044 7.453,6.320 8.218,6.146 9.038 C 6.063 9.430,6.095 9.974,6.224 10.342 C 6.364 10.744,6.504 10.965,6.820 11.280 C 7.135 11.596,7.356 11.736,7.758 11.876 C 8.000 11.961,8.116 11.981,8.436 11.993 C 8.905 12.011,9.236 11.940,9.667 11.728 C 10.053 11.538,10.489 11.107,10.690 10.717 C 10.913 10.282,10.972 10.047,10.972 9.583 C 10.972 9.084,10.939 8.942,10.714 8.480 C 10.578 8.201,10.485 8.061,10.336 7.908 C 10.006 7.570,9.556 7.302,9.142 7.198 L 8.967 7.154 8.967 5.136 L 8.967 3.117 9.525 3.670 C 10.315 4.451,10.414 4.533,10.562 4.533 C 10.808 4.533,11.031 4.285,10.983 4.065 C 10.953 3.928,10.548 3.485,9.601 2.555 C 8.676 1.646,8.582 1.584,8.350 1.730 M1.858 5.151 C 1.790 5.197,1.723 5.276,1.709 5.326 C 1.695 5.376,1.683 7.300,1.683 9.601 C 1.683 13.577,1.686 13.791,1.743 13.878 C 1.776 13.928,1.844 13.988,1.893 14.010 C 1.961 14.040,2.791 14.053,5.233 14.061 C 7.021 14.066,8.578 14.061,8.694 14.049 C 8.862 14.032,8.927 14.007,9.018 13.928 C 9.206 13.762,9.203 13.529,9.008 13.325 L 8.921 13.233 6.882 13.233 L 4.844 13.233 4.802 13.042 C 4.662 12.402,4.186 11.708,3.643 11.347 C 3.387 11.177,3.011 11.010,2.736 10.944 L 2.500 10.887 2.500 9.560 C 2.500 8.408,2.507 8.233,2.550 8.233 C 2.679 8.233,3.244 8.019,3.481 7.880 C 3.785 7.701,4.221 7.284,4.418 6.983 C 4.569 6.751,4.749 6.327,4.801 6.075 L 4.838 5.900 5.195 5.900 C 5.611 5.900,5.742 5.851,5.844 5.655 C 5.978 5.395,5.812 5.127,5.494 5.089 C 5.396 5.077,4.566 5.067,3.649 5.067 L 1.982 5.067 1.858 5.151 M11.650 5.088 C 11.540 5.095,11.415 5.119,11.372 5.141 C 11.218 5.220,11.151 5.490,11.238 5.681 C 11.313 5.844,11.417 5.881,11.841 5.894 L 12.233 5.907 12.268 6.045 C 12.443 6.725,12.720 7.172,13.253 7.634 C 13.526 7.870,13.911 8.070,14.292 8.171 L 14.567 8.244 14.567 8.724 C 14.567 9.270,14.605 9.473,14.724 9.567 C 14.904 9.708,15.215 9.677,15.326 9.507 C 15.378 9.427,15.384 9.239,15.393 7.368 L 15.403 5.316 15.290 5.207 L 15.177 5.097 13.514 5.085 C 12.599 5.079,11.760 5.080,11.650 5.088 M3.923 5.921 L 3.996 5.940 3.926 6.128 C 3.722 6.678,3.247 7.151,2.718 7.333 L 2.540 7.394 2.520 7.322 C 2.510 7.282,2.501 6.946,2.500 6.575 L 2.500 5.900 3.175 5.900 C 3.546 5.901,3.883 5.910,3.923 5.921 M14.567 6.652 L 14.567 7.404 14.492 7.383 C 14.450 7.371,14.293 7.304,14.143 7.233 C 13.723 7.035,13.305 6.573,13.150 6.133 C 13.063 5.885,13.020 5.900,13.833 5.900 L 14.567 5.900 14.567 6.652 M8.837 7.983 C 9.087 8.015,9.447 8.208,9.670 8.431 C 10.158 8.920,10.282 9.646,9.981 10.260 C 9.676 10.882,9.001 11.256,8.353 11.165 C 7.729 11.076,7.237 10.684,7.023 10.106 C 6.968 9.955,6.953 9.839,6.953 9.533 C 6.952 9.157,6.954 9.145,7.076 8.900 C 7.286 8.478,7.582 8.198,7.975 8.051 C 8.142 7.988,8.462 7.938,8.600 7.954 C 8.646 7.960,8.753 7.973,8.837 7.983 M14.186 10.834 C 12.694 11.018,11.509 11.981,11.028 13.400 C 10.575 14.734,10.929 16.222,11.939 17.229 C 12.345 17.634,12.930 18.005,13.244 18.055 C 13.392 18.079,13.540 18.001,13.634 17.849 C 13.776 17.620,13.668 17.401,13.323 17.215 C 12.399 16.720,11.825 15.919,11.698 14.950 C 11.621 14.368,11.721 13.803,11.999 13.250 C 12.360 12.534,12.924 12.051,13.717 11.781 C 14.073 11.659,14.742 11.629,15.170 11.715 C 15.469 11.775,15.941 11.980,16.243 12.180 C 16.451 12.318,16.748 12.612,16.921 12.851 C 17.111 13.112,17.356 13.655,17.414 13.940 C 17.482 14.271,17.482 14.864,17.414 15.193 C 17.354 15.486,17.142 15.959,16.932 16.268 C 16.793 16.473,16.386 16.900,16.329 16.900 C 16.284 16.900,16.271 16.779,16.257 16.233 C 16.249 15.911,16.229 15.688,16.204 15.640 C 16.100 15.447,15.778 15.373,15.599 15.500 C 15.407 15.637,15.393 15.743,15.406 16.937 C 15.416 17.954,15.421 18.023,15.485 18.133 C 15.537 18.223,15.587 18.259,15.702 18.289 C 15.883 18.337,17.819 18.347,18.017 18.301 C 18.346 18.225,18.432 17.789,18.156 17.592 C 18.058 17.522,18.009 17.516,17.497 17.506 L 16.944 17.495 17.140 17.308 C 17.916 16.567,18.382 15.411,18.319 14.381 C 18.229 12.908,17.320 11.636,15.963 11.084 C 15.459 10.880,14.691 10.771,14.186 10.834 M2.928 11.901 C 3.377 12.125,3.610 12.356,3.815 12.777 C 3.896 12.946,3.972 13.117,3.984 13.158 L 4.004 13.233 3.252 13.233 L 2.500 13.233 2.500 12.483 C 2.500 11.860,2.508 11.733,2.547 11.733 C 2.573 11.733,2.744 11.809,2.928 11.901 " fill="#127277" stroke="none" fill-rule="evenodd"></path></svg>