<svg width="24" height="25" viewBox="0 0 24 25" fill="none" xmlns="http://www.w3.org/2000/svg"><path d="M15.349 2.602 C 15.222 2.646,14.720 2.862,14.233 3.083 L 13.348 3.485 12.466 3.099 C 11.981 2.886,11.490 2.693,11.375 2.669 C 11.089 2.609,10.937 2.649,9.988 3.040 C 9.552 3.219,9.134 3.376,9.060 3.388 C 8.953 3.405,8.743 3.335,8.013 3.039 C 7.511 2.836,7.042 2.656,6.970 2.639 C 6.768 2.591,6.580 2.653,5.596 3.087 L 4.678 3.492 4.229 3.281 C 3.142 2.769,2.623 2.560,2.438 2.560 C 2.162 2.560,2.107 2.621,2.070 2.966 C 2.053 3.128,2.029 6.923,2.017 11.400 C 1.994 19.552,2.018 22.071,2.119 22.286 C 2.147 22.344,2.235 22.422,2.316 22.458 C 2.458 22.522,2.471 22.521,2.809 22.402 C 3.000 22.334,3.485 22.132,3.888 21.953 C 4.291 21.774,4.647 21.629,4.680 21.631 C 4.713 21.633,4.965 21.737,5.240 21.861 C 5.966 22.190,6.492 22.397,6.692 22.435 C 6.932 22.479,7.129 22.423,8.055 22.045 C 8.482 21.871,8.886 21.716,8.953 21.702 C 9.081 21.673,9.145 21.696,10.508 22.255 C 10.864 22.401,11.190 22.520,11.232 22.520 C 11.419 22.520,11.711 22.128,11.664 21.941 C 11.651 21.891,11.579 21.803,11.504 21.746 C 11.209 21.521,9.936 20.901,9.396 20.719 C 8.977 20.577,8.910 20.591,7.916 21.021 C 7.423 21.235,6.975 21.427,6.920 21.448 C 6.835 21.481,6.700 21.434,6.040 21.139 C 5.012 20.679,4.767 20.589,4.620 20.613 C 4.554 20.623,4.188 20.752,3.806 20.899 C 3.424 21.045,3.102 21.156,3.090 21.144 C 3.079 21.132,3.053 20.577,3.033 19.911 C 2.974 17.964,3.061 4.006,3.132 3.935 C 3.143 3.924,3.442 4.034,3.796 4.178 C 4.150 4.323,4.517 4.452,4.611 4.465 C 4.813 4.493,5.093 4.393,6.150 3.917 L 6.840 3.606 7.715 3.999 C 8.196 4.216,8.686 4.423,8.805 4.460 L 9.021 4.528 9.360 4.398 C 9.744 4.251,10.666 3.849,10.957 3.701 L 11.151 3.603 12.065 3.998 C 12.568 4.214,13.073 4.419,13.187 4.453 L 13.394 4.514 14.125 4.217 C 14.527 4.054,14.878 3.920,14.904 3.920 C 14.967 3.920,14.989 4.512,15.043 7.700 C 15.090 10.513,15.071 10.331,15.335 10.468 C 15.495 10.551,15.674 10.507,15.873 10.336 L 16.040 10.194 16.040 6.524 L 16.040 2.855 15.930 2.754 C 15.810 2.643,15.635 2.519,15.601 2.521 C 15.589 2.522,15.476 2.558,15.349 2.602 M5.165 7.679 C 5.026 7.871,5.008 8.022,5.101 8.201 C 5.235 8.461,5.183 8.456,7.720 8.490 C 9.927 8.519,12.127 8.503,12.533 8.455 C 12.798 8.423,12.922 8.309,12.949 8.069 C 12.973 7.857,12.908 7.658,12.795 7.598 C 12.750 7.573,11.317 7.548,9.006 7.533 L 5.290 7.507 5.165 7.679 M5.165 10.679 C 5.026 10.871,5.008 11.022,5.101 11.201 C 5.235 11.461,5.183 11.456,7.720 11.490 C 9.927 11.519,12.127 11.503,12.533 11.455 C 12.798 11.423,12.922 11.309,12.949 11.069 C 12.973 10.857,12.908 10.658,12.795 10.598 C 12.750 10.573,11.317 10.548,9.006 10.533 L 5.290 10.507 5.165 10.679 M15.453 11.638 C 14.914 11.723,14.064 12.082,13.500 12.462 C 12.313 13.261,11.600 14.256,11.183 15.695 C 11.086 16.030,11.080 16.099,11.080 16.981 L 11.080 17.914 11.217 18.388 C 11.510 19.409,11.928 20.133,12.619 20.820 C 13.285 21.482,14.038 21.951,14.886 22.231 C 15.405 22.403,15.688 22.438,16.567 22.439 C 17.392 22.440,17.633 22.405,18.220 22.198 C 19.174 21.863,19.567 21.604,20.403 20.766 L 21.067 20.100 21.352 19.520 C 21.509 19.201,21.710 18.726,21.799 18.466 L 21.960 17.991 21.960 17.143 C 21.960 16.676,21.941 16.188,21.918 16.057 C 21.860 15.730,21.659 15.127,21.473 14.722 C 20.832 13.326,19.403 12.107,17.971 11.734 C 17.615 11.642,17.493 11.631,16.620 11.618 C 16.092 11.611,15.567 11.619,15.453 11.638 M16.945 12.604 C 17.572 12.657,17.959 12.752,18.394 12.960 C 19.324 13.405,20.095 14.173,20.539 15.097 C 20.850 15.743,20.853 15.759,20.871 16.771 C 20.895 18.112,20.843 18.390,20.431 19.107 C 19.337 21.013,17.299 21.878,15.280 21.293 C 14.529 21.076,13.897 20.693,13.351 20.127 C 12.867 19.625,12.652 19.288,12.288 18.460 L 12.147 18.140 12.143 17.100 C 12.139 15.893,12.151 15.822,12.462 15.180 C 12.809 14.461,13.168 13.992,13.705 13.552 C 14.379 13.001,15.081 12.695,15.880 12.604 C 16.312 12.555,16.381 12.555,16.945 12.604 M5.182 13.653 C 5.126 13.727,5.069 13.844,5.055 13.915 C 5.021 14.084,5.134 14.335,5.274 14.402 C 5.510 14.514,9.291 14.555,9.660 14.449 C 9.827 14.401,9.960 14.191,9.960 13.975 C 9.960 13.839,9.934 13.773,9.836 13.661 L 9.712 13.520 7.498 13.520 L 5.284 13.520 5.182 13.653 M14.965 15.380 C 14.752 15.573,14.695 15.717,14.774 15.868 C 14.849 16.014,15.110 16.314,15.573 16.787 L 15.933 17.154 15.421 17.687 C 15.140 17.980,14.876 18.274,14.835 18.340 C 14.685 18.581,14.785 18.887,15.057 19.016 C 15.201 19.084,15.206 19.084,15.378 18.983 C 15.571 18.870,15.860 18.621,16.330 18.164 L 16.640 17.862 16.990 18.204 C 17.481 18.683,17.751 18.914,17.931 19.005 C 18.082 19.083,18.088 19.083,18.212 19.010 C 18.392 18.905,18.576 18.633,18.541 18.523 C 18.505 18.409,18.200 18.046,17.731 17.557 L 17.352 17.162 17.843 16.643 C 18.322 16.137,18.560 15.837,18.560 15.740 C 18.560 15.642,18.376 15.425,18.229 15.349 C 18.097 15.281,18.062 15.278,17.954 15.323 C 17.781 15.394,17.510 15.615,17.041 16.065 L 16.641 16.449 16.190 16.017 C 15.688 15.536,15.310 15.240,15.196 15.240 C 15.154 15.240,15.050 15.303,14.965 15.380 " fill="#EC0000" stroke="none" fill-rule="evenodd"></path></svg>