<svg width="24" height="25" viewBox="0 0 24 25" fill="none" xmlns="http://www.w3.org/2000/svg"><path d="M3.246 2.623 C 3.029 2.778,3.037 2.619,3.015 7.354 C 3.004 9.766,3.010 13.405,3.029 15.440 C 3.067 19.514,3.059 19.388,3.308 19.483 C 3.471 19.546,3.905 19.391,5.360 18.749 C 6.715 18.152,6.865 18.092,6.907 18.133 C 6.923 18.149,6.950 18.796,6.968 19.571 C 7.007 21.300,7.056 22.201,7.117 22.314 C 7.184 22.440,7.387 22.531,7.535 22.504 C 7.604 22.491,8.118 22.283,8.676 22.042 L 9.690 21.604 9.880 21.700 C 10.149 21.836,11.163 22.270,11.529 22.405 L 11.839 22.519 12.129 22.414 C 12.289 22.357,12.783 22.151,13.226 21.958 L 14.032 21.606 14.818 21.964 C 15.251 22.161,15.742 22.368,15.909 22.424 L 16.213 22.526 16.576 22.377 C 16.776 22.294,17.259 22.088,17.648 21.917 L 18.357 21.607 19.150 21.960 C 20.486 22.555,20.645 22.586,20.950 22.308 L 21.040 22.226 21.039 14.863 C 21.038 7.727,21.015 6.043,20.918 5.769 C 20.865 5.619,20.776 5.560,20.604 5.560 C 20.435 5.560,20.214 5.641,19.404 5.997 C 19.017 6.168,18.607 6.338,18.494 6.375 C 18.291 6.443,18.284 6.442,18.054 6.348 C 17.925 6.296,17.654 6.175,17.450 6.081 L 17.080 5.908 17.079 5.404 C 17.078 4.612,17.007 3.156,16.958 2.928 C 16.909 2.699,16.778 2.560,16.612 2.560 C 16.444 2.560,15.970 2.740,15.141 3.118 L 14.343 3.482 13.521 3.122 C 12.504 2.677,12.258 2.590,12.101 2.623 C 12.034 2.636,11.552 2.818,11.028 3.028 C 10.210 3.355,10.055 3.404,9.928 3.381 C 9.847 3.367,9.438 3.208,9.020 3.029 C 8.284 2.714,8.249 2.703,7.894 2.688 L 7.529 2.673 6.761 2.997 C 6.338 3.175,5.915 3.340,5.821 3.364 C 5.634 3.411,5.698 3.432,4.160 2.807 C 3.564 2.564,3.379 2.527,3.246 2.623 M12.424 3.726 C 12.576 3.795,13.069 4.011,13.520 4.207 L 14.340 4.563 14.520 4.496 C 14.619 4.459,14.992 4.288,15.350 4.117 L 16.000 3.806 16.000 4.698 L 16.000 5.590 15.050 6.022 C 14.527 6.259,14.058 6.450,14.007 6.447 C 13.955 6.443,13.493 6.259,12.980 6.038 C 12.466 5.817,11.982 5.626,11.905 5.613 C 11.742 5.587,11.611 5.635,10.449 6.149 L 9.677 6.490 8.874 6.121 C 7.606 5.540,7.392 5.477,7.202 5.630 C 7.155 5.669,7.099 5.772,7.078 5.860 C 7.035 6.043,6.963 11.523,6.961 14.746 L 6.960 16.911 5.799 17.438 C 4.699 17.937,4.167 18.160,4.079 18.160 C 3.996 18.160,4.043 4.024,4.127 3.940 C 4.136 3.930,4.440 4.042,4.802 4.188 C 5.689 4.547,5.635 4.549,6.737 4.103 C 7.897 3.634,7.799 3.634,8.936 4.095 C 9.417 4.290,9.877 4.458,9.958 4.469 C 10.132 4.492,10.660 4.296,11.560 3.874 C 11.879 3.725,12.142 3.602,12.144 3.601 C 12.147 3.601,12.273 3.657,12.424 3.726 M17.006 6.976 C 17.433 7.160,17.919 7.360,18.086 7.419 L 18.390 7.527 18.665 7.417 C 18.816 7.357,19.181 7.194,19.476 7.054 L 20.011 6.800 19.980 13.570 C 19.963 17.294,19.938 20.520,19.925 20.740 C 19.895 21.227,19.947 21.218,19.126 20.873 C 18.712 20.699,18.487 20.626,18.360 20.625 C 18.167 20.623,17.865 20.736,16.783 21.217 L 16.185 21.482 15.257 21.082 C 14.746 20.862,14.247 20.660,14.147 20.633 C 13.934 20.576,13.865 20.599,12.610 21.150 L 11.840 21.488 11.286 21.244 C 10.495 20.895,10.004 20.699,9.773 20.639 L 9.572 20.588 8.829 20.887 L 8.086 21.187 8.058 21.043 C 8.043 20.965,8.033 18.299,8.037 15.120 C 8.043 9.773,8.074 6.993,8.128 6.938 C 8.140 6.926,8.445 7.037,8.805 7.185 C 9.304 7.390,9.508 7.454,9.660 7.455 C 9.864 7.457,10.092 7.378,11.160 6.938 C 11.412 6.833,11.692 6.740,11.781 6.730 C 11.952 6.711,12.224 6.803,13.274 7.236 C 13.546 7.349,13.834 7.451,13.914 7.463 C 14.101 7.492,14.555 7.334,15.420 6.938 C 15.772 6.777,16.098 6.644,16.145 6.643 C 16.192 6.641,16.579 6.791,17.006 6.976 M10.160 9.686 C 10.019 9.881,10.007 10.045,10.120 10.231 C 10.226 10.405,10.324 10.436,10.896 10.481 C 11.454 10.524,14.787 10.527,16.514 10.485 L 17.689 10.457 17.823 10.311 C 17.996 10.122,18.024 10.004,17.939 9.824 C 17.888 9.715,17.836 9.672,17.726 9.643 C 17.582 9.606,13.018 9.520,11.210 9.520 L 10.281 9.520 10.160 9.686 M10.160 12.686 C 10.019 12.881,10.007 13.045,10.120 13.231 C 10.226 13.405,10.324 13.436,10.896 13.481 C 11.454 13.524,14.787 13.527,16.514 13.485 L 17.689 13.457 17.823 13.311 C 17.996 13.122,18.024 13.004,17.939 12.824 C 17.888 12.715,17.836 12.672,17.726 12.643 C 17.582 12.606,13.018 12.520,11.210 12.520 L 10.281 12.520 10.160 12.686 M10.160 15.686 C 10.019 15.881,10.007 16.045,10.120 16.231 C 10.226 16.405,10.324 16.436,10.896 16.481 C 11.454 16.524,14.787 16.527,16.514 16.485 L 17.689 16.457 17.823 16.311 C 17.996 16.122,18.024 16.004,17.939 15.824 C 17.888 15.715,17.836 15.672,17.726 15.643 C 17.582 15.606,13.018 15.520,11.210 15.520 L 10.281 15.520 10.160 15.686 " fill="#EC0000" stroke="none" fill-rule="evenodd"></path></svg>