<svg width="24" height="25" viewBox="0 0 24 25" fill="none" xmlns="http://www.w3.org/2000/svg"><path d="M19.333 4.144 C 19.082 4.268,18.327 4.994,14.824 8.481 L 11.260 12.029 6.820 12.056 C 3.884 12.074,2.335 12.098,2.248 12.126 C 2.165 12.152,2.099 12.207,2.072 12.274 C 2.042 12.346,2.023 13.457,2.011 15.720 C 1.993 19.063,2.025 20.663,2.113 20.827 C 2.220 21.028,1.863 21.020,11.000 21.020 C 20.137 21.020,19.780 21.028,19.887 20.827 C 19.977 20.659,20.007 19.073,19.985 15.710 C 19.970 13.368,19.949 12.295,19.919 12.238 C 19.895 12.193,19.827 12.138,19.768 12.115 C 19.706 12.091,19.092 12.064,18.340 12.051 C 17.614 12.039,16.986 12.016,16.944 12.001 C 16.851 11.968,16.921 11.892,19.175 9.580 C 21.962 6.721,21.981 6.698,21.979 6.100 C 21.978 5.630,21.830 5.335,21.368 4.880 C 20.958 4.476,20.563 4.186,20.340 4.124 C 20.097 4.058,19.485 4.070,19.333 4.144 M20.162 5.156 C 20.390 5.304,20.811 5.710,20.917 5.885 C 21.066 6.129,21.039 6.194,20.593 6.668 C 20.369 6.905,18.978 8.333,17.501 9.840 C 16.025 11.347,14.496 12.909,14.103 13.310 L 13.389 14.040 12.695 14.040 L 12.000 14.040 12.000 13.390 L 12.000 12.740 15.850 8.890 C 19.513 5.227,19.707 5.040,19.842 5.040 C 19.931 5.040,20.051 5.083,20.162 5.156 M11.006 13.852 C 11.027 15.078,10.951 15.020,12.541 15.020 L 13.706 15.020 13.863 14.901 C 13.949 14.836,14.418 14.390,14.904 13.911 L 15.788 13.040 17.394 13.040 L 19.000 13.040 19.000 16.540 L 19.000 20.040 11.000 20.040 L 3.000 20.040 3.000 16.540 L 3.000 13.040 6.996 13.040 L 10.992 13.040 11.006 13.852 M4.420 14.066 C 4.264 14.092,4.055 14.294,4.024 14.448 C 3.990 14.619,4.124 14.907,4.268 14.969 C 4.351 15.005,4.930 15.018,6.528 15.019 L 8.675 15.020 8.817 14.883 C 8.992 14.714,9.036 14.525,8.947 14.338 C 8.820 14.072,8.909 14.083,6.618 14.063 C 5.475 14.054,4.486 14.055,4.420 14.066 M4.162 16.175 C 4.043 16.300,4.025 16.347,4.025 16.518 C 4.025 16.736,4.090 16.839,4.300 16.954 C 4.410 17.014,4.913 17.021,10.100 17.031 C 16.099 17.042,17.646 17.018,17.812 16.909 C 17.871 16.870,17.928 16.773,17.961 16.657 C 18.009 16.486,18.007 16.454,17.937 16.324 C 17.895 16.245,17.809 16.156,17.746 16.126 C 17.651 16.081,16.492 16.068,10.966 16.051 L 4.300 16.030 4.162 16.175 M14.756 18.075 C 14.220 18.102,14.162 18.122,14.057 18.325 C 13.980 18.474,13.985 18.574,14.079 18.758 C 14.210 19.015,14.249 19.020,16.020 19.019 C 17.824 19.018,17.821 19.018,17.940 18.706 C 18.024 18.485,17.998 18.352,17.841 18.195 L 17.726 18.080 17.173 18.080 C 16.869 18.080,16.314 18.073,15.940 18.065 C 15.566 18.056,15.033 18.061,14.756 18.075 " fill="#EC0000" stroke="none" fill-rule="evenodd"></path></svg>