<svg width="24" height="25" viewBox="0 0 24 25" fill="none" xmlns="http://www.w3.org/2000/svg"><path d="M8.278 4.610 C 8.205 4.660,8.109 4.760,8.066 4.834 C 7.994 4.958,7.993 4.976,8.052 5.100 C 8.145 5.294,8.487 5.679,9.413 6.626 C 9.868 7.091,10.240 7.482,10.240 7.496 C 10.240 7.509,9.803 7.521,9.270 7.521 C 7.719 7.523,4.516 7.598,4.322 7.637 C 4.106 7.680,4.040 7.762,4.040 7.990 C 4.040 8.422,4.115 8.445,5.640 8.484 C 6.311 8.501,7.611 8.516,8.530 8.517 C 9.449 8.519,10.200 8.534,10.200 8.551 C 10.200 8.568,10.045 8.734,9.856 8.921 C 9.228 9.540,8.227 10.617,8.113 10.798 C 8.051 10.896,8.000 11.008,8.000 11.048 C 8.000 11.143,8.290 11.431,8.418 11.463 C 8.630 11.516,8.957 11.242,10.490 9.723 C 10.925 9.293,11.280 8.926,11.280 8.908 C 11.280 8.859,11.026 9.049,9.888 9.950 C 9.323 10.398,8.825 10.783,8.782 10.808 C 8.619 10.899,9.140 10.349,10.220 9.289 C 11.463 8.069,11.737 7.821,11.798 7.859 C 11.821 7.873,11.840 7.942,11.841 8.012 C 11.841 8.083,11.857 8.165,11.876 8.195 C 11.932 8.283,12.011 8.100,11.979 7.957 C 11.943 7.791,11.407 7.212,10.074 5.899 C 8.990 4.832,8.630 4.520,8.479 4.520 C 8.442 4.520,8.352 4.561,8.278 4.610 M16.434 6.839 C 14.990 6.980,13.650 7.817,13.270 8.816 C 13.176 9.064,13.122 9.964,13.121 11.324 C 13.119 12.930,13.076 13.960,13.011 13.960 C 12.980 13.960,12.725 13.861,12.443 13.740 C 12.161 13.618,11.791 13.484,11.621 13.440 C 10.753 13.218,8.935 13.253,8.229 13.506 C 7.068 13.921,6.193 14.666,6.011 15.394 C 5.935 15.701,5.892 18.506,5.954 19.171 C 6.003 19.703,6.111 19.990,6.402 20.357 C 6.875 20.956,7.893 21.504,8.909 21.707 C 9.419 21.809,10.690 21.808,11.159 21.705 C 12.061 21.508,12.951 21.091,13.464 20.628 L 13.668 20.443 13.784 20.566 C 14.101 20.901,14.908 21.356,15.551 21.562 C 16.058 21.724,16.602 21.774,17.560 21.747 C 18.131 21.731,18.431 21.704,18.680 21.646 C 19.570 21.439,20.173 21.106,20.763 20.494 C 21.195 20.045,21.274 19.883,21.332 19.330 C 21.396 18.715,21.393 9.546,21.328 9.087 C 21.270 8.674,21.155 8.452,20.815 8.103 C 20.198 7.467,19.378 7.055,18.422 6.899 C 17.976 6.826,16.900 6.794,16.434 6.839 M17.630 7.920 C 18.482 7.967,18.748 8.026,19.271 8.285 C 19.916 8.603,20.319 9.040,20.319 9.420 C 20.319 9.830,19.833 10.344,19.147 10.660 C 18.513 10.952,18.411 10.967,17.193 10.952 C 15.969 10.937,15.933 10.930,15.260 10.593 C 14.833 10.379,14.552 10.157,14.392 9.908 C 14.211 9.626,14.207 9.320,14.379 9.007 C 14.640 8.533,15.477 8.073,16.320 7.941 C 16.747 7.874,16.793 7.873,17.630 7.920 M20.347 11.850 C 20.318 12.564,20.266 12.912,20.160 13.120 C 20.005 13.425,19.467 13.798,18.914 13.985 C 17.958 14.308,17.002 14.340,15.982 14.082 C 15.348 13.922,14.989 13.740,14.619 13.389 C 14.268 13.056,14.266 13.050,14.202 12.263 C 14.144 11.554,14.147 11.266,14.210 11.293 C 14.238 11.305,14.478 11.414,14.745 11.536 C 15.277 11.779,15.757 11.931,16.275 12.021 C 16.741 12.103,17.944 12.100,18.352 12.017 C 18.829 11.920,19.479 11.691,19.930 11.462 C 20.155 11.347,20.347 11.250,20.356 11.247 C 20.365 11.243,20.361 11.514,20.347 11.850 M10.858 14.402 C 11.485 14.474,12.164 14.747,12.632 15.117 C 12.846 15.286,13.080 15.684,13.080 15.876 C 13.078 16.508,12.237 17.145,11.080 17.390 C 10.864 17.436,10.560 17.454,10.000 17.454 C 9.283 17.454,9.188 17.446,8.820 17.348 C 7.799 17.077,7.000 16.440,7.000 15.898 C 7.000 15.420,7.638 14.851,8.516 14.547 C 9.016 14.374,10.056 14.310,10.858 14.402 M14.629 14.717 C 15.033 14.912,15.429 15.056,15.920 15.186 C 16.231 15.268,16.429 15.290,17.007 15.308 C 18.140 15.344,18.641 15.253,19.675 14.823 C 19.969 14.700,20.234 14.600,20.264 14.600 C 20.357 14.600,20.371 14.781,20.330 15.452 C 20.283 16.218,20.247 16.323,19.938 16.620 C 19.499 17.042,18.683 17.376,17.914 17.450 C 17.216 17.516,16.242 17.446,15.840 17.299 C 15.225 17.075,14.625 16.717,14.415 16.449 C 14.288 16.287,14.249 16.095,14.201 15.391 C 14.157 14.753,14.170 14.560,14.256 14.560 C 14.283 14.560,14.450 14.631,14.629 14.717 M15.186 18.196 C 16.045 18.502,16.237 18.534,17.220 18.537 C 18.213 18.540,18.416 18.512,19.106 18.275 C 19.675 18.080,19.950 17.958,20.185 17.796 L 20.373 17.667 20.347 18.244 C 20.293 19.416,20.237 19.627,19.907 19.896 C 19.283 20.404,18.214 20.740,17.240 20.734 C 16.056 20.726,14.666 20.161,14.361 19.562 C 14.267 19.378,14.205 18.937,14.173 18.229 L 14.147 17.679 14.450 17.860 C 14.616 17.960,14.947 18.111,15.186 18.196 M7.404 17.955 C 7.865 18.172,8.571 18.411,8.940 18.475 C 9.670 18.602,10.855 18.560,11.531 18.382 C 11.886 18.289,12.089 18.214,12.819 17.906 C 12.995 17.831,13.066 17.817,13.089 17.852 C 13.155 17.957,13.093 19.042,12.997 19.448 C 12.896 19.877,12.160 20.342,11.161 20.608 C 10.911 20.675,10.725 20.689,10.060 20.692 C 9.310 20.695,9.235 20.689,8.868 20.588 C 8.070 20.370,7.764 20.211,7.355 19.803 C 7.062 19.510,7.067 19.524,7.000 18.820 C 6.963 18.427,6.946 17.760,6.974 17.760 C 6.982 17.760,7.175 17.848,7.404 17.955 " fill="#EC0000" stroke="none" fill-rule="evenodd"></path></svg>