<svg width="24" height="25" viewBox="0 0 24 25" fill="none" xmlns="http://www.w3.org/2000/svg"><path d="M16.164 2.670 C 16.058 2.759,16.000 3.058,16.000 3.525 L 16.000 3.879 15.841 3.979 C 15.753 4.035,15.636 4.080,15.581 4.080 C 15.526 4.080,15.305 4.001,15.090 3.905 C 14.876 3.809,14.643 3.718,14.573 3.702 C 14.322 3.648,14.165 3.802,13.675 4.580 C 13.356 5.087,13.000 5.784,13.000 5.901 C 13.000 6.020,13.382 6.372,13.733 6.575 L 14.000 6.731 14.000 7.002 L 14.000 7.274 13.755 7.423 C 13.431 7.620,13.053 7.937,13.020 8.039 C 12.988 8.142,13.289 8.783,13.675 9.433 C 13.982 9.950,14.190 10.212,14.362 10.301 C 14.467 10.356,14.498 10.353,14.728 10.266 C 14.867 10.214,15.111 10.105,15.271 10.024 L 15.562 9.878 15.741 9.983 C 15.938 10.098,15.935 10.091,15.999 10.640 C 16.055 11.120,16.113 11.313,16.220 11.384 C 16.484 11.557,18.516 11.557,18.780 11.384 C 18.887 11.313,18.945 11.120,19.001 10.640 C 19.065 10.091,19.062 10.098,19.257 9.984 L 19.434 9.880 19.855 10.085 C 20.093 10.201,20.355 10.298,20.459 10.310 C 20.635 10.330,20.651 10.323,20.812 10.155 C 20.904 10.058,21.087 9.809,21.218 9.600 C 21.506 9.138,22.000 8.187,22.000 8.093 C 22.000 7.995,21.643 7.672,21.295 7.456 L 21.000 7.272 21.000 7.000 L 21.000 6.728 21.210 6.609 C 21.579 6.399,21.903 6.137,21.959 6.002 C 22.010 5.879,22.002 5.853,21.750 5.347 C 21.455 4.757,20.902 3.894,20.731 3.760 C 20.585 3.645,20.486 3.663,19.882 3.919 L 19.397 4.125 19.208 4.009 L 19.020 3.893 18.992 3.395 C 18.960 2.825,18.923 2.694,18.778 2.639 C 18.719 2.617,18.159 2.600,17.462 2.600 C 16.365 2.600,16.241 2.607,16.164 2.670 M18.000 3.790 C 18.000 3.939,18.020 4.132,18.044 4.220 C 18.106 4.448,18.403 4.712,18.854 4.940 C 19.355 5.194,19.509 5.206,19.960 5.025 C 20.147 4.950,20.313 4.901,20.329 4.915 C 20.368 4.951,20.720 5.607,20.720 5.643 C 20.720 5.660,20.577 5.792,20.403 5.938 C 20.004 6.271,19.979 6.334,19.983 7.020 C 19.986 7.661,20.021 7.755,20.366 8.040 C 20.506 8.155,20.636 8.283,20.655 8.323 C 20.681 8.376,20.652 8.477,20.550 8.688 C 20.319 9.167,20.366 9.147,19.883 8.973 L 19.468 8.824 19.225 8.913 C 18.900 9.031,18.423 9.307,18.244 9.481 C 18.066 9.653,18.000 9.858,18.000 10.235 L 18.000 10.520 17.506 10.520 L 17.012 10.520 16.986 10.093 C 16.966 9.770,16.943 9.647,16.890 9.588 C 16.788 9.474,16.300 9.151,16.004 9.002 C 15.681 8.839,15.519 8.836,15.066 8.984 L 14.712 9.099 14.616 8.980 C 14.564 8.914,14.464 8.753,14.394 8.623 L 14.268 8.386 14.589 8.083 C 14.988 7.706,15.021 7.622,15.018 6.980 C 15.016 6.336,14.988 6.265,14.597 5.935 C 14.423 5.788,14.280 5.654,14.280 5.637 C 14.280 5.620,14.354 5.468,14.445 5.300 C 14.660 4.901,14.721 4.873,15.049 5.021 C 15.187 5.083,15.390 5.142,15.500 5.151 C 15.679 5.166,15.743 5.146,16.111 4.959 C 16.599 4.710,16.892 4.453,16.956 4.220 C 16.980 4.132,17.000 3.939,17.000 3.790 L 17.000 3.520 17.500 3.520 L 18.000 3.520 18.000 3.790 M16.918 6.269 C 16.663 6.499,16.562 6.706,16.562 7.000 C 16.562 7.284,16.660 7.496,16.890 7.707 C 17.286 8.070,17.813 8.040,18.180 7.632 C 18.556 7.214,18.550 6.739,18.166 6.355 C 17.952 6.141,17.782 6.081,17.394 6.080 C 17.134 6.080,17.125 6.084,16.918 6.269 M5.160 8.587 C 4.657 8.639,3.935 8.868,3.390 9.148 C 2.983 9.358,2.482 9.825,2.181 10.278 L 2.000 10.551 2.000 15.445 L 2.001 20.340 2.102 20.557 C 2.489 21.388,3.234 21.930,4.500 22.300 C 5.180 22.499,6.700 22.510,7.420 22.322 C 8.150 22.132,8.664 21.880,9.214 21.442 L 9.511 21.206 9.625 21.326 C 9.799 21.508,10.227 21.779,10.687 21.999 C 12.148 22.697,14.360 22.620,15.694 21.823 C 16.263 21.484,16.743 20.987,16.877 20.600 C 16.953 20.379,16.998 19.412,16.999 17.969 L 17.000 16.637 16.895 16.430 C 16.563 15.775,15.940 15.237,15.157 14.928 C 14.506 14.670,13.943 14.581,13.000 14.583 C 11.956 14.586,11.420 14.690,10.533 15.062 C 10.299 15.160,10.104 15.240,10.099 15.240 C 10.054 15.240,10.030 14.671,9.999 12.945 C 9.963 10.924,9.934 10.506,9.812 10.250 C 9.776 10.173,9.626 9.988,9.480 9.840 C 8.872 9.223,8.237 8.879,7.380 8.701 C 6.939 8.609,5.608 8.541,5.160 8.587 M6.660 9.616 C 7.555 9.656,8.512 10.111,8.843 10.655 C 8.966 10.856,8.948 11.180,8.802 11.411 C 8.594 11.739,8.073 12.066,7.380 12.304 C 7.080 12.408,7.008 12.415,6.233 12.431 C 5.779 12.440,5.254 12.428,5.067 12.405 C 4.037 12.279,2.963 11.491,3.054 10.928 C 3.131 10.458,3.771 9.959,4.612 9.716 C 4.902 9.632,5.619 9.568,6.040 9.588 C 6.161 9.594,6.440 9.606,6.660 9.616 M8.964 13.571 C 8.932 14.033,8.904 14.207,8.840 14.340 C 8.483 15.077,7.036 15.562,5.540 15.447 C 4.448 15.363,3.426 14.891,3.165 14.349 C 3.043 14.096,2.940 12.842,3.036 12.782 C 3.056 12.770,3.218 12.822,3.396 12.898 C 3.574 12.975,3.982 13.128,4.303 13.238 L 4.887 13.440 5.893 13.439 C 6.606 13.439,6.978 13.422,7.167 13.382 C 7.565 13.298,8.283 13.046,8.653 12.860 L 8.980 12.696 8.993 12.835 C 9.000 12.912,8.987 13.243,8.964 13.571 M13.660 15.616 C 14.555 15.656,15.512 16.111,15.843 16.655 C 15.966 16.856,15.948 17.180,15.802 17.411 C 15.594 17.739,15.073 18.066,14.380 18.304 C 14.080 18.408,14.008 18.415,13.233 18.431 C 12.779 18.440,12.254 18.428,12.067 18.405 C 11.037 18.279,9.963 17.491,10.054 16.928 C 10.131 16.458,10.771 15.959,11.612 15.716 C 11.902 15.632,12.619 15.568,13.040 15.588 C 13.161 15.594,13.440 15.606,13.660 15.616 M8.964 16.571 C 8.932 17.033,8.904 17.207,8.840 17.340 C 8.483 18.077,7.036 18.562,5.540 18.447 C 4.448 18.363,3.426 17.891,3.165 17.349 C 3.043 17.096,2.940 15.842,3.036 15.782 C 3.056 15.770,3.218 15.822,3.396 15.898 C 3.574 15.975,3.982 16.128,4.303 16.238 L 4.887 16.440 5.893 16.439 C 6.606 16.439,6.978 16.422,7.167 16.382 C 7.565 16.298,8.283 16.046,8.653 15.860 L 8.980 15.696 8.993 15.835 C 9.000 15.912,8.987 16.243,8.964 16.571 M8.964 19.571 C 8.932 20.033,8.904 20.207,8.840 20.340 C 8.483 21.077,7.036 21.562,5.540 21.447 C 4.448 21.363,3.426 20.891,3.165 20.349 C 3.043 20.096,2.940 18.842,3.036 18.782 C 3.056 18.770,3.218 18.822,3.396 18.898 C 3.574 18.975,3.982 19.128,4.303 19.238 L 4.887 19.440 5.893 19.439 C 6.606 19.439,6.978 19.422,7.167 19.382 C 7.565 19.298,8.283 19.046,8.653 18.860 L 8.980 18.696 8.993 18.835 C 9.000 18.912,8.987 19.243,8.964 19.571 M15.964 19.571 C 15.932 20.033,15.904 20.207,15.840 20.340 C 15.483 21.077,14.036 21.562,12.540 21.447 C 11.448 21.363,10.426 20.891,10.165 20.349 C 10.043 20.096,9.940 18.842,10.036 18.782 C 10.056 18.770,10.218 18.822,10.396 18.898 C 10.574 18.975,10.982 19.128,11.303 19.238 L 11.887 19.440 12.893 19.439 C 13.606 19.439,13.978 19.422,14.167 19.382 C 14.565 19.298,15.283 19.046,15.653 18.860 L 15.980 18.696 15.993 18.835 C 16.000 18.912,15.987 19.243,15.964 19.571 " fill="#EC0000" stroke="none" fill-rule="evenodd"></path></svg>