<svg width="24" height="25" viewBox="0 0 24 25" fill="none" xmlns="http://www.w3.org/2000/svg"><path d="M8.720 4.636 L 8.141 4.660 8.081 4.780 C 8.033 4.877,8.019 5.152,8.007 6.210 L 7.992 7.520 7.066 7.521 C 5.629 7.523,2.436 7.597,2.280 7.632 C 2.153 7.660,2.135 7.682,2.089 7.861 C 2.050 8.015,2.032 9.215,2.013 13.100 L 1.988 18.140 2.119 18.400 C 2.601 19.358,3.134 19.903,3.984 20.309 L 4.300 20.460 11.800 20.460 C 17.713 20.460,19.363 20.449,19.595 20.409 C 20.153 20.312,20.544 20.091,21.056 19.582 C 21.436 19.204,21.626 18.931,21.825 18.473 L 21.970 18.140 21.972 13.260 C 21.973 10.576,21.960 8.224,21.943 8.033 C 21.920 7.765,21.898 7.680,21.847 7.660 C 21.735 7.617,20.122 7.565,18.016 7.535 L 16.012 7.507 15.986 6.224 C 15.971 5.518,15.948 4.890,15.935 4.829 C 15.921 4.768,15.872 4.696,15.825 4.670 C 15.761 4.634,14.939 4.621,12.520 4.617 C 10.749 4.615,9.039 4.623,8.720 4.636 M15.000 6.520 L 15.000 7.520 12.000 7.520 L 9.000 7.520 9.000 6.520 L 9.000 5.520 12.000 5.520 L 15.000 5.520 15.000 6.520 M20.981 9.870 C 20.941 11.778,20.924 11.937,20.724 12.342 C 20.522 12.748,20.154 13.114,19.742 13.316 C 19.489 13.440,19.419 13.456,18.962 13.484 C 18.686 13.502,17.459 13.517,16.236 13.518 L 14.012 13.520 13.990 12.704 C 13.975 12.136,13.952 11.854,13.914 11.774 L 13.859 11.660 12.000 11.660 L 10.141 11.660 10.085 11.777 C 10.045 11.860,10.023 12.128,10.009 12.707 L 9.989 13.520 7.310 13.520 L 4.632 13.520 4.306 13.351 C 3.873 13.126,3.422 12.686,3.249 12.320 C 3.140 12.089,3.122 11.995,3.083 11.475 C 3.060 11.153,3.028 10.357,3.014 9.705 L 2.987 8.520 11.998 8.520 L 21.010 8.520 20.981 9.870 M13.000 14.020 L 13.000 15.520 12.000 15.520 L 11.000 15.520 11.000 14.020 L 11.000 12.520 12.000 12.520 L 13.000 12.520 13.000 14.020 M3.953 14.290 L 4.371 14.487 7.180 14.510 L 9.988 14.532 10.013 15.296 C 10.040 16.116,10.077 16.334,10.204 16.402 C 10.462 16.540,13.204 16.556,13.633 16.422 C 13.944 16.325,13.968 16.248,13.991 15.290 L 14.010 14.520 15.955 14.519 C 18.168 14.518,19.431 14.471,19.760 14.376 C 19.881 14.341,20.186 14.215,20.437 14.096 C 20.725 13.959,20.909 13.893,20.933 13.917 C 20.956 13.940,20.963 14.735,20.952 15.987 C 20.934 17.949,20.931 18.026,20.851 18.181 C 20.611 18.646,20.069 19.183,19.656 19.366 C 19.487 19.441,19.351 19.457,18.660 19.484 C 18.220 19.501,14.876 19.516,11.228 19.518 L 4.597 19.520 4.428 19.435 C 3.930 19.184,3.446 18.722,3.237 18.300 C 3.140 18.103,3.112 17.980,3.082 17.620 C 3.025 16.925,2.988 15.027,3.020 14.389 L 3.049 13.808 3.292 13.950 C 3.426 14.029,3.723 14.181,3.953 14.290 " fill="#EC0000" stroke="none" fill-rule="evenodd"></path></svg>