<svg width="24" height="25" viewBox="0 0 24 25" fill="none" xmlns="http://www.w3.org/2000/svg"><path d="M8.480 2.599 L 4.180 2.621 3.840 2.795 C 2.961 3.245,2.527 3.717,2.158 4.626 L 2.000 5.013 2.001 10.277 L 2.002 15.540 2.157 15.911 C 2.376 16.436,2.535 16.681,2.897 17.047 C 3.486 17.643,3.970 17.881,4.754 17.960 C 5.238 18.009,7.584 18.080,8.708 18.080 C 9.174 18.080,9.601 18.098,9.657 18.119 C 9.733 18.148,9.760 18.187,9.760 18.269 C 9.760 18.389,9.490 19.728,9.246 20.819 L 9.095 21.497 8.707 21.546 C 8.281 21.599,8.124 21.677,8.043 21.874 C 7.985 22.013,8.044 22.184,8.221 22.394 L 8.334 22.528 11.817 22.507 C 13.860 22.494,15.398 22.469,15.536 22.445 C 15.818 22.397,15.918 22.311,15.948 22.088 C 15.998 21.714,15.884 21.620,15.288 21.545 L 14.905 21.497 14.794 20.999 C 14.560 19.945,14.231 18.240,14.252 18.186 C 14.280 18.114,14.699 18.093,17.120 18.039 C 18.971 17.997,19.567 17.957,19.877 17.853 C 20.730 17.566,21.463 16.851,21.827 15.950 C 21.924 15.711,21.929 15.649,21.962 14.520 C 22.005 13.004,22.004 9.004,21.960 6.720 C 21.923 4.763,21.916 4.704,21.659 4.203 C 21.350 3.599,20.879 3.162,20.142 2.797 L 19.663 2.560 16.222 2.568 C 14.329 2.573,10.845 2.586,8.480 2.599 M19.735 3.678 C 20.143 3.911,20.613 4.382,20.838 4.780 L 20.950 4.980 20.978 9.250 L 21.006 13.520 12.000 13.520 L 2.995 13.520 3.023 9.250 L 3.051 4.980 3.153 4.800 C 3.396 4.370,3.791 3.954,4.180 3.717 L 4.340 3.620 8.320 3.598 C 10.509 3.586,13.927 3.573,15.915 3.568 L 19.530 3.560 19.735 3.678 M11.949 4.708 C 11.915 4.793,11.856 5.012,11.816 5.195 C 11.708 5.699,11.731 5.771,12.522 7.340 C 13.125 8.539,13.209 8.728,13.228 8.940 C 13.252 9.219,13.151 9.866,13.070 9.947 C 13.006 10.011,12.943 9.911,12.079 8.360 C 11.343 7.040,11.050 6.538,10.981 6.481 C 10.938 6.445,10.916 6.452,10.882 6.517 C 10.820 6.631,10.763 7.116,10.761 7.528 L 10.760 7.877 11.166 8.608 C 12.085 10.263,12.257 10.718,12.165 11.245 C 12.097 11.637,12.000 11.936,11.956 11.892 C 11.935 11.871,11.777 11.585,11.605 11.257 C 11.433 10.929,11.121 10.344,10.911 9.957 C 10.502 9.204,10.285 8.737,10.200 8.426 L 10.147 8.231 9.988 8.253 C 9.901 8.264,9.570 8.402,9.254 8.558 C 8.737 8.812,8.647 8.873,8.369 9.151 C 7.979 9.543,7.826 9.834,7.828 10.180 C 7.833 11.114,8.940 12.004,10.520 12.343 C 10.949 12.435,11.838 12.476,12.559 12.439 C 13.037 12.414,13.287 12.379,13.642 12.288 C 14.702 12.017,15.527 11.540,15.894 10.986 C 16.285 10.398,16.224 9.778,15.723 9.231 C 15.436 8.918,15.052 8.672,14.388 8.379 L 13.827 8.131 13.777 7.935 C 13.749 7.828,13.670 7.615,13.601 7.462 C 13.456 7.139,12.131 4.685,12.059 4.607 C 12.020 4.564,11.999 4.584,11.949 4.708 M21.000 14.590 C 20.999 14.801,20.910 15.407,20.854 15.580 C 20.763 15.864,20.557 16.190,20.333 16.404 C 20.091 16.634,19.969 16.717,19.606 16.900 L 19.316 17.045 13.188 17.019 C 9.818 17.004,6.475 16.979,5.760 16.964 L 4.460 16.936 4.200 16.798 C 3.885 16.631,3.424 16.183,3.268 15.891 C 3.145 15.661,3.061 15.303,3.018 14.830 L 2.991 14.520 11.995 14.520 C 20.545 14.520,21.000 14.524,21.000 14.590 M12.843 18.065 L 13.107 18.090 13.490 19.775 C 13.701 20.702,13.858 21.476,13.840 21.495 C 13.801 21.536,10.258 21.511,10.216 21.470 C 10.184 21.437,10.258 21.045,10.626 19.310 L 10.895 18.040 11.737 18.040 C 12.201 18.040,12.699 18.052,12.843 18.065 " fill="#EC0000" stroke="none" fill-rule="evenodd"></path></svg>