<svg width="24" height="25" viewBox="0 0 24 25" fill="none" xmlns="http://www.w3.org/2000/svg"><path d="M11.000 2.638 C 10.624 2.678,10.197 2.821,9.625 3.099 C 8.958 3.422,8.711 3.602,8.138 4.180 C 7.419 4.904,7.104 5.400,6.820 6.254 C 6.571 7.005,6.453 7.876,6.492 8.680 C 6.524 9.343,6.616 9.608,6.928 9.943 C 7.304 10.344,7.453 10.415,7.950 10.434 C 8.334 10.448,8.375 10.442,8.588 10.338 C 8.715 10.276,8.924 10.118,9.065 9.977 C 9.377 9.665,9.420 9.533,9.504 8.640 C 9.616 7.448,9.657 7.223,9.823 6.885 C 10.031 6.464,10.501 5.996,10.920 5.791 C 11.566 5.475,12.408 5.480,13.065 5.804 C 13.611 6.072,13.965 6.453,14.309 7.141 L 14.429 7.380 14.456 9.944 L 14.484 12.507 10.792 12.534 C 8.761 12.549,6.697 12.572,6.205 12.587 L 5.309 12.612 5.094 12.757 C 4.665 13.045,4.290 13.472,4.141 13.840 C 4.046 14.073,4.007 15.097,4.003 17.447 L 4.000 19.154 4.123 19.507 C 4.532 20.676,5.257 21.566,6.180 22.030 C 6.507 22.194,7.141 22.392,7.513 22.446 C 7.984 22.515,15.801 22.517,16.372 22.448 C 18.110 22.239,19.247 21.284,19.879 19.500 L 20.006 19.140 19.987 16.720 C 19.975 15.143,19.953 14.230,19.924 14.100 C 19.804 13.564,19.348 13.015,18.799 12.745 C 18.533 12.614,18.443 12.592,18.009 12.551 L 17.520 12.505 17.520 10.683 C 17.519 7.493,17.427 6.764,16.882 5.676 C 16.175 4.264,15.077 3.303,13.558 2.768 C 13.224 2.651,13.195 2.648,12.258 2.627 C 11.731 2.616,11.165 2.620,11.000 2.638 M12.547 3.603 C 13.477 3.707,14.273 4.082,14.954 4.737 C 15.607 5.366,16.123 6.233,16.295 6.991 C 16.382 7.375,16.431 8.429,16.463 10.650 L 16.490 12.520 16.005 12.520 L 15.520 12.520 15.518 11.030 C 15.515 8.916,15.463 7.485,15.378 7.160 C 15.122 6.178,14.404 5.323,13.439 4.851 C 12.967 4.621,12.705 4.583,11.780 4.612 C 11.043 4.634,11.011 4.639,10.748 4.756 C 9.944 5.117,9.121 5.895,8.818 6.581 C 8.652 6.955,8.564 7.408,8.478 8.318 C 8.388 9.284,8.352 9.398,8.121 9.445 C 7.901 9.490,7.713 9.406,7.620 9.220 C 7.550 9.079,7.541 8.987,7.546 8.460 C 7.556 7.362,7.662 6.766,7.960 6.140 C 8.295 5.435,8.823 4.788,9.374 4.407 C 9.734 4.158,10.461 3.789,10.765 3.702 C 11.209 3.574,11.930 3.534,12.547 3.603 M18.560 13.724 C 18.918 14.026,18.898 13.870,18.913 16.477 C 18.921 17.945,18.911 18.891,18.883 19.097 C 18.781 19.873,18.123 20.740,17.316 21.160 C 16.858 21.398,16.655 21.436,15.580 21.486 C 14.413 21.539,8.215 21.504,7.633 21.440 C 6.907 21.361,6.513 21.157,5.896 20.542 C 5.561 20.208,5.464 20.082,5.324 19.799 L 5.156 19.458 5.119 18.559 C 5.099 18.064,5.082 16.849,5.082 15.859 L 5.080 14.057 5.300 13.840 L 5.521 13.622 8.950 13.599 C 10.837 13.586,13.727 13.572,15.373 13.567 L 18.366 13.560 18.560 13.724 M11.681 15.673 C 11.595 15.759,11.559 15.844,11.534 16.023 C 11.483 16.380,11.499 18.907,11.554 19.103 C 11.656 19.468,12.010 19.576,12.311 19.332 C 12.459 19.212,12.460 19.210,12.492 18.816 C 12.533 18.322,12.495 16.117,12.443 15.900 C 12.389 15.676,12.233 15.560,11.987 15.560 C 11.828 15.560,11.774 15.580,11.681 15.673 " fill="#EC0000" stroke="none" fill-rule="evenodd"></path></svg>