<svg width="24" height="25" viewBox="0 0 24 25" fill="none" xmlns="http://www.w3.org/2000/svg"><path d="M5.595 3.550 C 5.149 3.565,5.104 3.593,5.038 3.903 C 5.012 4.027,4.987 5.384,4.973 7.544 L 4.949 10.988 3.985 11.016 C 2.657 11.054,2.249 11.093,2.152 11.191 C 2.080 11.263,2.072 11.367,2.039 12.764 C 2.019 13.587,2.002 15.818,2.002 17.722 L 2.000 21.183 2.172 21.352 L 2.343 21.520 10.500 21.520 L 18.657 21.520 18.828 21.352 L 19.000 21.183 19.000 17.598 L 19.000 14.012 20.310 13.988 C 21.031 13.974,21.659 13.952,21.707 13.938 C 21.755 13.924,21.824 13.851,21.859 13.776 C 21.965 13.553,22.006 11.678,21.992 7.600 C 21.980 3.993,21.978 3.896,21.900 3.740 L 21.820 3.580 21.380 3.555 C 20.940 3.530,6.321 3.525,5.595 3.550 M21.000 8.760 L 21.000 13.000 20.570 13.000 C 19.915 13.000,18.439 13.079,18.274 13.122 C 18.194 13.144,18.115 13.192,18.099 13.230 C 18.041 13.371,18.005 15.047,18.003 17.750 L 18.000 20.520 10.500 20.520 L 3.000 20.520 3.000 16.260 L 3.000 12.000 4.830 11.996 C 5.837 11.995,7.014 11.981,7.446 11.966 C 8.331 11.935,8.363 11.924,8.442 11.631 C 8.503 11.406,8.431 11.209,8.261 11.138 C 8.120 11.079,7.068 11.000,6.410 11.000 L 6.000 11.000 6.000 7.760 L 6.000 4.520 13.500 4.520 L 21.000 4.520 21.000 8.760 M11.040 8.546 C 10.728 8.572,10.678 8.595,10.617 8.740 C 10.486 9.054,10.581 9.366,10.830 9.442 C 10.927 9.472,11.561 9.495,12.615 9.509 L 14.249 9.530 12.951 10.835 C 11.190 12.604,10.290 13.545,10.154 13.758 C 9.998 14.002,10.005 14.137,10.183 14.305 C 10.347 14.460,10.488 14.507,10.613 14.450 C 10.773 14.377,11.366 13.821,13.138 12.085 C 14.105 11.138,14.905 10.371,14.914 10.381 C 14.924 10.391,14.957 11.096,14.987 11.947 C 15.016 12.798,15.059 13.563,15.082 13.647 C 15.107 13.739,15.166 13.828,15.230 13.870 C 15.367 13.960,15.633 13.960,15.770 13.870 C 15.971 13.739,15.978 13.641,15.975 11.320 C 15.972 9.248,15.956 8.803,15.881 8.682 C 15.854 8.638,15.704 8.617,15.253 8.596 C 14.548 8.563,11.298 8.525,11.040 8.546 " fill="#EC0000" stroke="none" fill-rule="evenodd"></path></svg>