<svg width="24" height="25" viewBox="0 0 24 25" fill="none" xmlns="http://www.w3.org/2000/svg"><path d="M8.120 6.598 L 3.300 6.620 3.088 6.737 C 2.795 6.900,2.333 7.396,2.149 7.747 L 1.999 8.034 2.009 12.487 L 2.020 16.940 2.166 17.246 C 2.367 17.667,2.766 18.083,3.208 18.332 L 3.540 18.520 10.580 18.518 C 17.743 18.515,20.328 18.485,20.620 18.399 C 20.969 18.296,21.617 17.719,21.794 17.353 C 21.840 17.258,21.896 17.054,21.919 16.900 C 21.944 16.730,21.971 14.942,21.987 12.348 L 22.013 8.077 21.841 7.737 C 21.641 7.343,21.395 7.075,20.952 6.770 L 20.647 6.560 16.793 6.568 C 14.674 6.573,10.771 6.586,8.120 6.598 M20.585 7.730 C 20.673 7.824,20.794 7.960,20.853 8.033 L 20.960 8.166 20.960 12.542 L 20.960 16.917 20.830 17.068 C 20.647 17.281,20.567 17.345,20.342 17.459 L 20.144 17.560 12.000 17.560 L 3.856 17.560 3.658 17.459 C 3.431 17.344,3.354 17.281,3.164 17.061 L 3.027 16.902 3.054 12.901 C 3.069 10.701,3.093 8.705,3.107 8.467 C 3.136 7.980,3.193 7.847,3.440 7.702 C 3.577 7.622,3.648 7.619,6.360 7.599 C 7.889 7.587,11.679 7.573,14.782 7.569 L 20.423 7.560 20.585 7.730 M7.945 11.154 C 7.860 11.249,7.814 11.408,7.779 11.732 C 7.764 11.873,7.740 12.008,7.725 12.033 C 7.707 12.062,7.564 12.008,7.306 11.875 C 6.944 11.688,6.905 11.677,6.795 11.722 C 6.618 11.795,6.574 11.906,6.670 12.035 C 6.742 12.132,7.054 12.411,7.339 12.633 L 7.458 12.726 7.179 12.972 C 6.811 13.296,6.600 13.521,6.600 13.588 C 6.600 13.665,6.782 13.840,6.863 13.840 C 6.899 13.840,7.107 13.756,7.325 13.654 C 7.543 13.551,7.732 13.479,7.747 13.493 C 7.761 13.507,7.786 13.683,7.802 13.883 C 7.827 14.181,7.849 14.264,7.923 14.343 C 8.028 14.455,8.107 14.464,8.227 14.381 C 8.314 14.320,8.375 14.118,8.422 13.730 C 8.453 13.471,8.470 13.469,8.920 13.680 C 9.107 13.768,9.287 13.839,9.321 13.840 C 9.438 13.840,9.560 13.719,9.560 13.603 C 9.560 13.481,9.427 13.341,8.970 12.984 C 8.832 12.876,8.720 12.774,8.720 12.756 C 8.720 12.738,8.862 12.615,9.036 12.483 C 9.398 12.207,9.520 12.069,9.520 11.935 C 9.520 11.840,9.395 11.680,9.320 11.680 C 9.298 11.680,9.118 11.753,8.919 11.843 C 8.720 11.932,8.527 11.999,8.489 11.992 C 8.432 11.982,8.416 11.920,8.400 11.646 C 8.381 11.332,8.373 11.307,8.249 11.197 C 8.097 11.061,8.037 11.052,7.945 11.154 M12.071 11.197 C 11.941 11.312,11.940 11.317,11.927 11.731 L 11.913 12.149 11.507 11.914 C 11.284 11.786,11.060 11.680,11.009 11.680 C 10.915 11.680,10.720 11.841,10.720 11.918 C 10.720 11.984,10.981 12.255,11.282 12.502 C 11.435 12.627,11.560 12.742,11.560 12.759 C 11.560 12.775,11.447 12.875,11.310 12.981 C 10.753 13.409,10.654 13.574,10.840 13.760 C 10.951 13.871,11.003 13.863,11.408 13.676 C 11.603 13.586,11.787 13.522,11.817 13.533 C 11.848 13.545,11.882 13.651,11.898 13.787 C 11.950 14.221,11.999 14.358,12.112 14.387 C 12.179 14.403,12.265 14.386,12.357 14.336 C 12.517 14.250,12.548 14.164,12.555 13.772 C 12.558 13.636,12.577 13.514,12.598 13.501 C 12.619 13.488,12.759 13.538,12.908 13.613 C 13.335 13.826,13.464 13.859,13.578 13.785 C 13.707 13.701,13.738 13.584,13.663 13.470 C 13.629 13.418,13.439 13.243,13.240 13.080 C 13.041 12.917,12.883 12.772,12.889 12.756 C 12.895 12.741,13.067 12.590,13.272 12.421 C 13.701 12.067,13.763 11.972,13.665 11.822 C 13.570 11.677,13.418 11.690,12.990 11.880 C 12.792 11.968,12.625 12.040,12.620 12.040 C 12.615 12.040,12.598 11.928,12.583 11.790 C 12.545 11.440,12.489 11.249,12.398 11.158 C 12.292 11.052,12.224 11.060,12.071 11.197 M16.213 11.163 C 16.079 11.248,16.070 11.277,16.018 11.790 C 16.004 11.928,15.983 12.040,15.972 12.040 C 15.960 12.040,15.771 11.955,15.551 11.852 C 15.178 11.676,15.145 11.668,15.050 11.722 C 14.776 11.877,14.829 12.010,15.328 12.421 C 15.533 12.590,15.704 12.740,15.708 12.754 C 15.713 12.768,15.549 12.911,15.344 13.072 C 14.920 13.404,14.844 13.508,14.913 13.660 C 14.938 13.716,15.004 13.782,15.058 13.807 C 15.145 13.846,15.208 13.828,15.546 13.664 C 15.759 13.561,15.946 13.491,15.961 13.509 C 15.977 13.526,16.012 13.684,16.039 13.860 C 16.097 14.233,16.163 14.381,16.285 14.413 C 16.386 14.439,16.469 14.403,16.577 14.283 C 16.635 14.219,16.657 14.122,16.669 13.870 C 16.678 13.688,16.693 13.517,16.702 13.488 C 16.714 13.452,16.822 13.490,17.069 13.618 C 17.516 13.849,17.644 13.876,17.756 13.764 C 17.932 13.588,17.829 13.426,17.277 13.013 L 16.923 12.749 17.151 12.590 C 17.498 12.348,17.792 12.087,17.821 11.996 C 17.857 11.884,17.700 11.720,17.559 11.720 C 17.499 11.720,17.297 11.792,17.110 11.880 C 16.922 11.968,16.759 12.040,16.748 12.040 C 16.737 12.040,16.716 11.928,16.702 11.790 C 16.649 11.269,16.640 11.239,16.506 11.157 C 16.353 11.064,16.368 11.063,16.213 11.163 " fill="#EC0000" stroke="none" fill-rule="evenodd"></path></svg>