<svg width="24" height="25" viewBox="0 0 24 25" fill="none" xmlns="http://www.w3.org/2000/svg"><path d="M11.360 2.585 C 10.162 2.698,9.073 3.240,8.119 4.198 C 7.334 4.985,6.892 5.788,6.619 6.920 C 6.541 7.247,6.485 8.912,6.482 11.010 L 6.480 12.520 6.250 12.520 C 5.332 12.522,4.537 12.994,4.176 13.752 C 4.033 14.055,4.001 14.546,4.001 16.524 C 4.000 19.250,4.076 19.749,4.621 20.588 C 4.902 21.021,5.562 21.687,5.912 21.891 C 6.561 22.271,6.961 22.388,7.780 22.439 C 8.703 22.495,13.018 22.523,14.940 22.485 C 16.637 22.452,16.665 22.450,17.011 22.345 C 17.483 22.203,17.826 22.044,18.218 21.782 C 18.996 21.265,19.483 20.593,19.860 19.517 L 20.006 19.100 19.988 16.680 C 19.969 14.099,19.965 14.044,19.764 13.628 C 19.650 13.393,19.191 12.932,18.931 12.790 C 18.689 12.658,18.335 12.573,17.870 12.537 L 17.520 12.509 17.520 10.684 C 17.519 7.573,17.435 6.863,16.936 5.768 C 16.597 5.024,15.746 4.017,15.040 3.522 C 14.437 3.100,13.729 2.802,12.997 2.661 C 12.663 2.597,11.708 2.552,11.360 2.585 M13.255 3.727 C 13.385 3.770,13.637 3.878,13.815 3.967 C 14.522 4.321,14.963 4.676,15.451 5.280 C 15.742 5.641,16.207 6.565,16.297 6.961 C 16.378 7.316,16.430 8.491,16.464 10.710 L 16.491 12.520 16.011 12.520 L 15.531 12.520 15.508 10.230 C 15.481 7.643,15.454 7.248,15.276 6.804 C 14.929 5.937,14.069 5.087,13.180 4.732 C 12.903 4.622,12.891 4.621,12.000 4.621 C 11.109 4.621,11.097 4.622,10.820 4.732 C 10.258 4.956,9.623 5.432,9.238 5.915 C 9.010 6.202,8.814 6.571,8.615 7.087 L 8.480 7.437 8.480 9.978 L 8.480 12.520 7.998 12.520 L 7.517 12.520 7.544 9.810 L 7.571 7.100 7.682 6.800 C 8.250 5.264,9.159 4.306,10.559 3.769 C 10.894 3.641,11.300 3.608,12.260 3.631 C 12.867 3.646,13.067 3.665,13.255 3.727 M13.000 5.764 C 13.525 6.014,14.032 6.517,14.265 7.022 C 14.348 7.202,14.363 7.317,14.398 8.062 C 14.419 8.523,14.449 9.715,14.464 10.710 L 14.491 12.520 12.000 12.520 L 9.510 12.520 9.538 10.570 C 9.575 8.026,9.607 7.409,9.718 7.115 C 9.942 6.517,10.568 5.900,11.179 5.673 C 11.351 5.609,11.475 5.600,12.040 5.610 L 12.700 5.622 13.000 5.764 M18.545 13.710 C 18.644 13.793,18.764 13.923,18.813 14.000 L 18.900 14.140 18.899 16.640 C 18.897 19.371,18.906 19.267,18.653 19.786 C 18.293 20.526,17.389 21.267,16.682 21.400 C 16.091 21.511,10.853 21.562,8.556 21.479 C 7.318 21.434,7.158 21.406,6.671 21.153 C 6.115 20.864,5.636 20.347,5.219 19.586 L 5.068 19.312 5.093 16.786 C 5.106 15.378,5.134 14.191,5.156 14.103 C 5.179 14.008,5.258 13.883,5.358 13.783 L 5.521 13.620 8.931 13.598 C 10.806 13.586,13.696 13.573,15.352 13.568 L 18.365 13.560 18.545 13.710 M8.411 17.595 C 8.204 17.632,8.089 17.731,8.058 17.899 C 8.027 18.062,8.121 18.293,8.255 18.380 C 8.430 18.495,8.832 18.540,9.260 18.494 C 9.679 18.449,9.804 18.388,9.933 18.166 C 9.995 18.062,9.999 18.019,9.962 17.907 C 9.938 17.832,9.873 17.730,9.818 17.678 C 9.725 17.590,9.684 17.584,9.149 17.575 C 8.836 17.570,8.504 17.579,8.411 17.595 M11.411 17.595 C 11.204 17.632,11.089 17.731,11.058 17.899 C 11.027 18.062,11.121 18.293,11.255 18.380 C 11.430 18.495,11.832 18.540,12.260 18.494 C 12.679 18.449,12.804 18.388,12.933 18.166 C 12.995 18.062,12.999 18.019,12.962 17.907 C 12.938 17.832,12.873 17.730,12.818 17.678 C 12.725 17.590,12.684 17.584,12.149 17.575 C 11.836 17.570,11.504 17.579,11.411 17.595 M14.411 17.595 C 14.204 17.632,14.089 17.731,14.058 17.899 C 14.027 18.062,14.121 18.293,14.255 18.380 C 14.430 18.495,14.832 18.540,15.260 18.494 C 15.679 18.449,15.804 18.388,15.933 18.166 C 15.995 18.062,15.999 18.019,15.962 17.907 C 15.938 17.832,15.873 17.730,15.818 17.678 C 15.725 17.590,15.684 17.584,15.149 17.575 C 14.836 17.570,14.504 17.579,14.411 17.595 " fill="#EC0000" stroke="none" fill-rule="evenodd"></path></svg>