<svg width="24" height="25" viewBox="0 0 24 25" fill="none" xmlns="http://www.w3.org/2000/svg"><path d="M10.730 2.680 C 10.037 2.862,9.151 3.290,8.660 3.681 C 8.405 3.884,7.976 4.318,7.674 4.680 C 7.214 5.229,6.789 6.134,6.615 6.934 C 6.535 7.298,6.485 8.808,6.482 10.924 L 6.480 12.508 6.128 12.533 C 5.187 12.600,4.574 12.977,4.210 13.712 L 4.064 14.009 4.035 14.874 C 4.019 15.350,4.005 16.508,4.003 17.447 L 4.000 19.154 4.122 19.498 C 4.419 20.341,4.704 20.814,5.212 21.309 C 5.743 21.827,6.338 22.164,7.072 22.362 C 7.344 22.436,7.565 22.450,8.940 22.485 C 10.954 22.536,15.924 22.508,16.435 22.443 C 18.123 22.226,19.256 21.258,19.879 19.500 L 20.006 19.140 19.987 16.720 C 19.975 15.143,19.953 14.230,19.924 14.100 C 19.804 13.564,19.348 13.015,18.799 12.745 C 18.533 12.614,18.443 12.592,18.009 12.551 L 17.520 12.505 17.519 10.883 C 17.519 9.188,17.468 7.646,17.397 7.201 C 17.294 6.550,16.818 5.430,16.397 4.852 C 16.093 4.432,15.385 3.743,14.983 3.473 C 14.566 3.194,13.936 2.883,13.546 2.764 C 13.151 2.643,12.688 2.600,11.800 2.603 C 11.167 2.604,10.965 2.619,10.730 2.680 M12.411 3.601 C 13.012 3.650,13.404 3.744,13.813 3.938 C 14.743 4.379,15.452 5.097,15.957 6.107 C 16.210 6.613,16.306 6.906,16.358 7.323 C 16.399 7.661,16.478 10.598,16.479 11.850 L 16.480 12.520 16.000 12.520 L 15.520 12.520 15.520 9.996 L 15.520 7.472 15.319 6.961 C 14.901 5.901,14.315 5.260,13.381 4.840 C 13.029 4.682,12.879 4.646,12.401 4.600 C 11.602 4.524,10.837 4.678,10.251 5.034 C 9.669 5.388,9.131 5.947,8.879 6.462 C 8.531 7.171,8.482 7.682,8.481 10.550 L 8.480 12.520 7.993 12.520 L 7.507 12.520 7.534 10.676 C 7.568 8.376,7.623 7.096,7.702 6.780 C 7.778 6.478,8.055 5.909,8.310 5.529 C 9.029 4.458,10.182 3.725,11.340 3.601 C 11.757 3.556,11.862 3.556,12.411 3.601 M12.598 5.643 C 13.251 5.748,14.019 6.423,14.286 7.125 C 14.395 7.412,14.433 8.125,14.464 10.450 L 14.492 12.520 12.006 12.520 L 9.520 12.520 9.521 11.850 C 9.523 10.590,9.599 7.740,9.639 7.426 C 9.685 7.068,9.794 6.837,10.075 6.507 C 10.411 6.113,10.915 5.747,11.274 5.639 C 11.430 5.592,12.300 5.594,12.598 5.643 M18.560 13.724 C 18.922 14.029,18.900 13.836,18.900 16.720 L 18.900 19.260 18.794 19.511 C 18.628 19.906,18.443 20.186,18.127 20.525 C 17.634 21.052,17.090 21.351,16.459 21.441 C 16.041 21.502,10.347 21.537,8.620 21.490 L 7.340 21.455 6.940 21.284 C 6.297 21.008,5.938 20.713,5.551 20.145 C 5.296 19.771,5.161 19.432,5.112 19.046 C 5.085 18.830,5.071 17.837,5.074 16.404 C 5.078 14.516,5.089 14.093,5.135 14.024 C 5.253 13.845,5.396 13.724,5.545 13.678 C 5.713 13.625,9.455 13.583,15.273 13.568 L 18.366 13.560 18.560 13.724 M11.800 15.589 C 11.636 15.672,11.570 15.794,11.518 16.110 C 11.476 16.365,11.474 18.144,11.514 18.794 C 11.540 19.206,11.541 19.210,11.678 19.324 C 11.882 19.494,12.047 19.513,12.237 19.387 C 12.495 19.216,12.500 19.176,12.498 17.460 C 12.497 15.794,12.494 15.770,12.260 15.635 C 12.067 15.523,11.952 15.512,11.800 15.589 " fill="#EC0000" stroke="none" fill-rule="evenodd"></path></svg>