<svg width="24" height="25" viewBox="0 0 24 25" fill="none" xmlns="http://www.w3.org/2000/svg"><path d="M11.580 2.803 C 10.310 3.521,9.110 4.007,7.999 4.255 C 7.439 4.380,6.531 4.496,5.460 4.580 C 4.591 4.647,4.211 4.716,4.135 4.820 C 4.037 4.955,4.020 5.668,4.024 9.620 C 4.029 13.715,4.057 14.733,4.181 15.327 C 4.363 16.195,4.954 17.591,5.479 18.395 C 6.189 19.484,7.160 20.447,8.240 21.136 C 8.858 21.530,9.924 21.992,10.848 22.267 C 11.308 22.404,11.376 22.413,11.900 22.416 C 12.348 22.418,12.544 22.400,12.880 22.326 C 14.189 22.035,15.606 21.342,16.660 20.478 C 17.015 20.186,17.850 19.334,18.087 19.020 C 18.908 17.936,19.561 16.510,19.847 15.180 C 19.931 14.786,19.933 14.706,19.949 9.994 C 19.960 6.649,19.952 5.160,19.922 5.048 C 19.827 4.693,19.827 4.693,18.320 4.560 C 16.699 4.417,15.902 4.272,14.884 3.937 C 14.205 3.713,13.301 3.299,12.507 2.847 C 12.269 2.711,12.044 2.600,12.007 2.600 C 11.970 2.600,11.778 2.692,11.580 2.803 M12.293 3.888 C 13.012 4.308,14.094 4.756,15.060 5.035 C 16.141 5.347,17.122 5.500,18.336 5.547 L 19.013 5.573 18.985 8.497 C 18.947 12.476,18.895 14.465,18.817 14.993 C 18.734 15.551,18.465 16.358,18.144 17.013 C 17.388 18.552,16.202 19.778,14.680 20.592 C 13.546 21.198,12.342 21.518,11.616 21.405 C 10.647 21.255,9.257 20.669,8.460 20.075 C 7.980 19.716,7.164 18.942,6.801 18.500 C 6.046 17.579,5.418 16.253,5.197 15.113 C 5.097 14.597,5.052 13.027,5.014 8.717 L 4.987 5.573 5.623 5.547 C 7.592 5.465,9.315 5.051,10.980 4.261 C 11.222 4.146,11.546 3.977,11.700 3.887 C 11.854 3.796,11.986 3.721,11.993 3.721 C 12.000 3.720,12.135 3.795,12.293 3.888 M11.360 7.114 C 11.155 7.158,10.738 7.381,10.479 7.584 C 10.210 7.796,9.963 8.090,9.779 8.420 C 9.533 8.859,9.516 8.989,9.491 10.564 L 9.469 11.987 9.174 12.033 C 8.670 12.112,8.318 12.353,8.195 12.707 C 8.154 12.825,8.141 13.238,8.141 14.520 C 8.140 16.691,8.153 16.754,8.738 17.345 C 9.103 17.713,9.342 17.852,9.744 17.928 C 10.120 17.999,13.907 17.999,14.260 17.928 C 14.977 17.784,15.636 17.132,15.810 16.393 C 15.880 16.095,15.874 12.978,15.803 12.720 C 15.706 12.367,15.355 12.125,14.810 12.033 L 14.520 11.984 14.520 11.002 C 14.519 8.967,14.397 8.459,13.756 7.813 C 13.240 7.293,12.862 7.137,12.040 7.105 C 11.743 7.094,11.437 7.098,11.360 7.114 M12.631 8.201 C 12.836 8.291,13.186 8.632,13.328 8.880 L 13.432 9.060 13.459 10.530 L 13.487 12.000 11.998 12.000 L 10.509 12.000 10.537 10.850 C 10.569 9.568,10.611 9.026,10.698 8.819 C 10.767 8.653,11.094 8.317,11.284 8.217 C 11.359 8.177,11.492 8.132,11.580 8.115 C 11.836 8.068,12.439 8.117,12.631 8.201 M14.390 13.106 C 14.746 13.131,14.753 13.133,14.774 13.242 C 14.787 13.303,14.809 14.008,14.824 14.810 L 14.852 16.268 14.726 16.451 C 14.548 16.710,14.338 16.869,14.111 16.918 C 13.990 16.944,13.141 16.960,11.863 16.960 L 9.809 16.960 9.615 16.830 C 9.308 16.625,9.242 16.452,9.199 15.733 C 9.156 15.037,9.152 13.530,9.193 13.300 C 9.220 13.143,9.224 13.140,9.420 13.116 C 9.698 13.083,13.947 13.074,14.390 13.106 M11.810 14.073 C 11.565 14.203,11.541 14.276,11.526 14.947 C 11.510 15.666,11.544 15.778,11.817 15.923 C 11.968 16.003,12.004 16.008,12.110 15.964 C 12.176 15.937,12.282 15.860,12.345 15.795 C 12.460 15.675,12.460 15.675,12.472 15.067 C 12.486 14.363,12.450 14.243,12.180 14.091 C 11.990 13.984,11.977 13.984,11.810 14.073 " fill="#EC0000" stroke="none" fill-rule="evenodd"></path></svg>