<svg width="25" height="25" viewBox="0 0 25 25" fill="none" xmlns="http://www.w3.org/2000/svg"><path d="M11.724 2.921 C 10.289 3.676,9.777 3.914,9.098 4.137 C 8.385 4.372,7.384 4.598,6.854 4.645 C 6.694 4.659,6.112 4.686,5.563 4.706 C 5.012 4.725,4.512 4.761,4.450 4.785 C 4.220 4.876,4.230 4.692,4.216 9.196 C 4.201 13.755,4.225 14.602,4.390 15.375 C 4.674 16.710,5.309 18.072,6.120 19.083 C 6.419 19.457,7.083 20.123,7.458 20.428 C 7.878 20.768,8.481 21.160,8.938 21.389 C 9.348 21.596,10.686 22.153,11.604 22.499 L 12.188 22.720 12.458 22.625 C 12.933 22.458,14.839 21.685,15.252 21.492 C 16.100 21.094,16.865 20.549,17.608 19.813 C 18.857 18.575,19.626 17.151,20.045 15.301 C 20.168 14.757,20.205 13.281,20.207 8.852 L 20.208 5.017 20.050 4.863 L 19.892 4.708 19.227 4.708 C 17.582 4.707,16.528 4.552,15.241 4.122 C 14.566 3.897,14.023 3.649,13.146 3.169 C 12.733 2.943,12.337 2.746,12.266 2.731 C 12.160 2.709,12.060 2.744,11.724 2.921 M12.929 4.186 C 14.890 5.204,16.460 5.637,18.411 5.696 L 19.218 5.721 19.197 9.996 C 19.179 13.606,19.165 14.337,19.110 14.697 C 18.992 15.458,18.782 16.153,18.451 16.876 L 18.282 17.245 18.007 17.037 C 17.685 16.793,17.359 16.631,16.896 16.485 C 16.341 16.309,16.067 16.273,15.313 16.278 C 14.532 16.283,14.088 16.346,12.982 16.608 C 12.244 16.783,12.187 16.782,11.229 16.569 C 10.228 16.346,9.681 16.273,9.021 16.274 C 7.992 16.276,7.182 16.520,6.417 17.059 C 6.092 17.287,6.130 17.316,5.831 16.609 C 5.598 16.057,5.463 15.599,5.326 14.896 C 5.240 14.450,5.237 14.322,5.219 10.073 L 5.200 5.708 5.631 5.708 C 7.767 5.706,9.963 5.096,11.833 3.985 C 12.005 3.883,12.151 3.798,12.158 3.796 C 12.164 3.793,12.511 3.969,12.929 4.186 M11.763 6.834 C 10.946 6.922,10.031 7.427,9.519 8.074 C 9.104 8.598,8.885 9.276,8.938 9.875 C 8.982 10.387,9.204 12.149,9.292 12.694 C 9.429 13.542,9.640 13.999,10.121 14.482 C 10.596 14.960,11.039 15.190,11.679 15.293 C 12.061 15.355,12.657 15.326,13.021 15.230 C 14.002 14.969,14.727 14.240,14.998 13.242 C 15.143 12.708,15.458 10.266,15.458 9.676 C 15.458 9.253,15.394 8.992,15.182 8.550 C 14.633 7.405,13.189 6.680,11.763 6.834 M12.840 7.898 C 13.449 8.045,14.024 8.477,14.289 8.986 C 14.485 9.361,14.482 9.724,14.269 11.417 C 14.080 12.911,14.017 13.194,13.798 13.512 C 13.433 14.042,12.883 14.332,12.242 14.333 C 11.448 14.334,10.852 13.997,10.513 13.354 C 10.367 13.077,10.281 12.587,10.060 10.772 C 9.920 9.619,9.930 9.330,10.125 8.964 C 10.410 8.430,11.198 7.905,11.814 7.839 C 12.167 7.801,12.525 7.821,12.840 7.898 M10.042 17.352 C 10.259 17.386,10.737 17.483,11.104 17.568 C 12.049 17.788,12.398 17.785,13.357 17.552 C 14.378 17.303,14.566 17.281,15.496 17.302 C 16.393 17.322,16.477 17.340,17.071 17.640 C 17.440 17.825,17.667 18.018,17.667 18.144 C 17.667 18.304,17.100 18.954,16.528 19.450 C 15.678 20.187,15.068 20.522,13.255 21.248 L 12.197 21.672 11.192 21.269 C 9.473 20.580,8.757 20.201,8.082 19.622 C 7.658 19.258,7.080 18.672,6.866 18.389 L 6.690 18.155 6.894 17.970 C 7.146 17.742,7.642 17.488,8.049 17.379 C 8.433 17.276,9.449 17.262,10.042 17.352 " fill="#EC0000" stroke="none" fill-rule="evenodd"></path></svg>