<svg width="24" height="25" viewBox="0 0 24 25" fill="none" xmlns="http://www.w3.org/2000/svg"><path d="M11.280 2.582 C 9.699 2.869,8.392 3.777,7.770 5.020 C 7.489 5.581,7.428 5.817,7.410 6.420 C 7.390 7.045,7.443 7.677,7.662 9.420 C 8.027 12.321,8.203 12.842,9.118 13.748 C 9.633 14.258,10.171 14.579,10.828 14.770 C 11.110 14.851,11.224 14.860,12.020 14.859 C 12.878 14.858,12.908 14.855,13.240 14.745 C 14.212 14.421,15.035 13.777,15.520 12.960 C 15.710 12.641,15.934 12.001,16.038 11.486 C 16.204 10.657,16.600 7.343,16.600 6.779 C 16.600 6.330,16.537 5.803,16.453 5.540 C 16.206 4.771,15.595 3.980,14.825 3.433 C 14.139 2.944,13.400 2.694,12.311 2.581 C 11.631 2.511,11.672 2.511,11.280 2.582 M15.545 7.280 C 15.531 7.412,15.509 7.628,15.495 7.760 L 15.470 8.000 12.220 8.000 C 10.433 8.000,8.889 7.989,8.788 7.975 C 8.623 7.952,8.599 7.935,8.547 7.805 C 8.515 7.725,8.477 7.530,8.461 7.371 L 8.432 7.081 9.606 7.070 C 10.252 7.064,11.858 7.055,13.175 7.049 L 15.570 7.040 15.545 7.280 M11.338 9.090 C 11.226 9.456,10.993 9.809,10.803 9.900 C 10.490 10.050,9.762 10.010,9.570 9.832 C 9.314 9.594,9.140 9.087,9.310 9.075 C 9.755 9.041,10.401 9.013,10.833 9.007 L 11.365 9.000 11.338 9.090 M14.822 9.110 C 14.807 9.171,14.728 9.346,14.646 9.500 C 14.519 9.741,14.470 9.794,14.299 9.879 C 14.137 9.960,14.040 9.979,13.780 9.979 C 13.257 9.979,12.989 9.836,12.815 9.462 C 12.736 9.292,12.692 9.094,12.730 9.075 C 12.764 9.057,13.755 9.013,14.254 9.007 L 14.849 9.000 14.822 9.110 M12.320 10.507 C 12.670 10.779,12.846 10.863,13.241 10.943 C 13.702 11.036,14.067 11.005,14.624 10.824 C 14.868 10.745,15.079 10.680,15.094 10.680 C 15.180 10.680,15.009 11.557,14.834 12.009 C 14.569 12.697,14.061 13.265,13.428 13.582 C 12.858 13.867,12.746 13.888,11.909 13.872 C 11.192 13.858,11.175 13.855,10.864 13.727 C 9.821 13.295,9.204 12.519,8.963 11.334 C 8.857 10.815,8.854 10.661,8.950 10.698 C 8.989 10.713,9.200 10.781,9.420 10.849 C 9.772 10.958,9.877 10.973,10.300 10.974 C 10.710 10.975,10.815 10.961,11.020 10.881 C 11.310 10.768,11.472 10.667,11.755 10.423 C 11.890 10.306,11.986 10.250,12.015 10.271 C 12.040 10.290,12.177 10.396,12.320 10.507 M5.600 16.224 C 3.844 16.712,2.657 17.604,2.175 18.797 C 2.004 19.221,1.955 20.407,2.084 20.995 C 2.211 21.571,2.673 22.115,3.308 22.435 L 3.477 22.520 12.000 22.520 L 20.523 22.520 20.731 22.414 C 21.206 22.174,21.653 21.717,21.869 21.249 C 21.966 21.039,21.967 21.029,21.951 20.049 C 21.936 19.106,21.931 19.048,21.834 18.793 C 21.415 17.695,20.367 16.822,18.894 16.346 C 18.215 16.127,18.027 16.110,16.584 16.131 C 15.151 16.153,15.264 16.138,13.480 16.555 C 11.963 16.909,11.969 16.909,10.740 16.622 C 9.014 16.220,8.655 16.160,7.720 16.120 C 6.295 16.059,6.170 16.065,5.600 16.224 M8.621 17.197 C 9.054 17.269,9.646 17.397,10.940 17.698 C 11.246 17.770,11.550 17.808,11.940 17.824 L 12.500 17.848 13.700 17.548 C 15.396 17.126,15.438 17.120,16.822 17.120 L 17.990 17.120 18.391 17.239 C 19.215 17.484,19.857 17.827,20.282 18.251 C 20.525 18.493,20.800 18.849,20.800 18.920 C 20.800 18.935,20.122 18.959,19.293 18.974 C 17.351 19.008,4.518 19.008,3.772 18.974 C 3.211 18.948,3.204 18.947,3.248 18.864 C 3.320 18.728,3.880 18.168,4.140 17.972 C 4.657 17.582,5.644 17.184,6.254 17.120 C 6.782 17.064,8.072 17.106,8.621 17.197 M20.984 20.302 C 20.926 20.935,20.726 21.327,20.420 21.406 C 20.210 21.460,14.537 21.512,8.437 21.517 L 3.694 21.520 3.512 21.400 C 3.185 21.183,3.069 20.931,3.019 20.330 L 2.992 20.000 12.001 20.000 L 21.011 20.000 20.984 20.302 " fill="#EC0000" stroke="none" fill-rule="evenodd"></path></svg>