<svg width="24" height="24" viewBox="0 0 24 24" fill="none" xmlns="http://www.w3.org/2000/svg"><path d="M11.810 2.049 C 11.675 2.114,10.352 3.726,9.727 4.586 C 9.496 4.904,9.467 5.053,9.595 5.263 C 9.691 5.420,9.924 5.534,10.080 5.500 C 10.218 5.470,10.554 5.122,11.057 4.489 C 11.253 4.242,11.423 4.050,11.435 4.062 C 11.447 4.074,11.468 4.881,11.480 5.856 C 11.506 7.818,11.497 7.754,11.772 7.922 C 11.928 8.017,12.045 8.020,12.226 7.935 C 12.501 7.804,12.498 7.828,12.513 5.790 L 12.527 3.960 13.019 4.570 C 13.693 5.404,13.723 5.437,13.863 5.476 C 14.199 5.570,14.594 5.201,14.480 4.901 C 14.415 4.729,13.247 3.221,12.570 2.435 C 12.200 2.005,12.054 1.931,11.810 2.049 M21.320 5.050 C 21.203 5.111,20.104 6.387,16.966 10.103 C 15.705 11.597,14.660 12.825,14.644 12.831 C 14.614 12.842,14.123 12.349,13.698 11.880 C 12.817 10.911,12.649 10.760,12.446 10.760 C 12.169 10.761,12.298 10.620,9.983 13.451 C 9.215 14.391,8.573 15.160,8.556 15.160 C 8.540 15.160,8.268 14.886,7.953 14.551 C 7.638 14.216,7.196 13.752,6.971 13.521 C 6.574 13.111,6.558 13.100,6.386 13.100 C 6.265 13.100,6.180 13.125,6.120 13.180 C 5.957 13.326,3.528 16.355,2.468 17.732 C 2.200 18.080,2.033 18.334,2.018 18.418 C 1.962 18.717,2.259 19.032,2.553 18.987 C 2.662 18.970,2.745 18.914,2.876 18.772 C 3.081 18.547,4.075 17.311,5.418 15.610 C 5.943 14.945,6.386 14.400,6.402 14.400 C 6.418 14.400,6.734 14.728,7.103 15.130 C 8.359 16.496,8.391 16.524,8.678 16.460 C 8.813 16.431,9.066 16.150,10.158 14.820 C 12.330 12.173,12.448 12.037,12.512 12.090 C 12.546 12.117,12.928 12.527,13.362 13.000 C 14.347 14.074,14.393 14.117,14.571 14.146 C 14.705 14.168,14.734 14.153,14.964 13.935 C 15.100 13.806,15.628 13.214,16.137 12.620 C 17.077 11.524,21.429 6.371,21.770 5.951 C 21.978 5.695,22.035 5.502,21.959 5.318 C 21.863 5.087,21.524 4.944,21.320 5.050 M11.754 16.080 C 11.662 16.129,11.591 16.206,11.559 16.289 C 11.525 16.381,11.502 16.940,11.483 18.168 C 11.469 19.130,11.447 19.926,11.436 19.938 C 11.424 19.949,11.182 19.668,10.897 19.313 C 10.613 18.958,10.326 18.634,10.260 18.594 C 9.906 18.377,9.467 18.658,9.532 19.058 C 9.557 19.212,9.686 19.398,10.355 20.240 C 11.413 21.574,11.751 21.947,11.932 21.981 C 12.132 22.019,12.252 21.949,12.524 21.633 C 13.142 20.914,14.421 19.255,14.484 19.090 C 14.532 18.964,14.422 18.701,14.279 18.599 C 14.206 18.547,14.103 18.520,13.978 18.520 C 13.748 18.520,13.710 18.555,13.006 19.439 L 12.528 20.039 12.511 18.209 C 12.500 16.966,12.480 16.345,12.449 16.272 C 12.399 16.153,12.138 15.999,11.992 16.002 C 11.941 16.003,11.834 16.038,11.754 16.080 " fill="#EC0000" stroke="none" fill-rule="evenodd"></path></svg>