<svg width="24" height="25" viewBox="0 0 24 25" fill="none" xmlns="http://www.w3.org/2000/svg"><path d="M21.175 2.678 C 20.956 2.826,20.561 3.134,17.672 5.410 C 16.982 5.954,16.535 6.280,16.479 6.280 C 16.374 6.280,16.411 6.302,14.980 5.398 C 13.710 4.596,13.545 4.505,13.425 4.535 C 13.288 4.570,12.777 4.995,11.066 6.493 C 8.887 8.401,9.019 8.293,8.932 8.246 C 8.893 8.225,8.435 7.886,7.915 7.494 C 7.395 7.101,6.867 6.719,6.742 6.644 C 6.522 6.512,6.511 6.509,6.388 6.569 C 6.317 6.603,6.062 6.810,5.820 7.029 C 5.120 7.663,2.212 10.624,2.096 10.822 C 2.002 10.984,1.996 11.014,2.041 11.123 C 2.095 11.252,2.281 11.413,2.429 11.458 C 2.482 11.474,2.574 11.458,2.656 11.419 C 2.814 11.344,3.743 10.462,5.402 8.813 L 6.543 7.677 7.282 8.264 C 8.142 8.948,8.812 9.432,8.948 9.465 C 9.129 9.511,9.379 9.311,11.740 7.241 C 13.387 5.797,13.479 5.720,13.551 5.720 C 13.581 5.720,14.148 6.065,14.812 6.486 C 15.476 6.908,16.132 7.305,16.268 7.369 C 16.506 7.481,16.521 7.483,16.648 7.423 C 16.902 7.302,18.434 6.113,20.180 4.683 C 21.303 3.763,21.877 3.250,21.948 3.100 C 22.007 2.976,22.006 2.958,21.934 2.834 C 21.855 2.699,21.595 2.522,21.475 2.521 C 21.439 2.520,21.304 2.591,21.175 2.678 M19.300 7.596 C 19.256 7.615,19.187 7.667,19.148 7.711 C 19.081 7.785,19.073 7.949,19.039 9.786 C 18.994 12.267,18.992 18.087,19.037 19.240 C 19.076 20.254,19.106 20.369,19.352 20.442 C 19.570 20.508,19.777 20.437,19.871 20.267 C 19.936 20.148,19.940 19.747,19.940 13.971 L 19.940 7.802 19.835 7.697 C 19.721 7.583,19.448 7.531,19.300 7.596 M14.216 8.636 L 14.053 8.710 14.026 9.442 C 13.992 10.393,13.998 18.842,14.034 19.610 L 14.061 20.200 14.191 20.330 C 14.300 20.439,14.351 20.460,14.504 20.460 C 14.659 20.460,14.704 20.441,14.800 20.333 C 14.871 20.253,14.924 20.140,14.939 20.033 C 14.976 19.781,14.939 8.921,14.901 8.786 C 14.842 8.574,14.512 8.502,14.216 8.636 M9.141 11.684 L 9.000 11.808 9.003 15.394 C 9.005 17.366,9.019 19.257,9.036 19.595 L 9.065 20.211 9.212 20.345 C 9.298 20.425,9.401 20.480,9.461 20.480 C 9.635 20.480,9.837 20.372,9.886 20.252 C 10.031 19.895,10.031 11.999,9.887 11.732 C 9.836 11.637,9.623 11.561,9.411 11.560 C 9.324 11.560,9.237 11.600,9.141 11.684 M2.400 21.594 C 2.199 21.618,2.174 21.632,2.110 21.760 C 1.971 22.039,2.047 22.282,2.322 22.437 L 2.493 22.532 11.976 22.507 C 17.192 22.492,21.511 22.469,21.573 22.455 C 21.635 22.441,21.749 22.369,21.828 22.295 C 21.957 22.173,21.969 22.145,21.949 21.999 C 21.937 21.910,21.900 21.795,21.866 21.743 C 21.805 21.650,21.801 21.650,20.712 21.625 C 19.176 21.591,2.667 21.562,2.400 21.594 " fill="#EC0000" stroke="none" fill-rule="evenodd"></path></svg>