<svg width="24" height="25" viewBox="0 0 24 25" fill="none" xmlns="http://www.w3.org/2000/svg"><path d="M19.257 2.633 C 19.003 2.792,19.020 2.184,19.020 11.300 C 19.020 15.876,19.035 19.762,19.054 19.936 C 19.081 20.184,19.108 20.271,19.181 20.344 C 19.314 20.478,19.455 20.501,19.661 20.422 C 19.808 20.366,19.845 20.330,19.881 20.207 C 19.905 20.126,19.940 19.538,19.960 18.900 C 20.003 17.514,20.006 10.724,19.965 6.109 L 19.935 2.797 19.832 2.694 C 19.693 2.554,19.427 2.526,19.257 2.633 M9.292 6.598 C 9.026 6.761,9.045 6.455,9.019 10.921 C 8.991 15.762,9.037 20.084,9.118 20.248 C 9.242 20.499,9.629 20.540,9.813 20.321 L 9.910 20.205 9.940 18.382 C 9.986 15.592,9.947 6.881,9.888 6.774 C 9.831 6.669,9.600 6.520,9.495 6.520 C 9.454 6.520,9.362 6.555,9.292 6.598 M14.380 9.578 C 14.358 9.586,14.291 9.604,14.232 9.617 C 14.150 9.635,14.112 9.678,14.077 9.790 C 14.019 9.975,13.979 17.648,14.028 19.187 L 14.060 20.195 14.177 20.317 C 14.241 20.384,14.352 20.450,14.423 20.463 C 14.591 20.495,14.812 20.390,14.881 20.248 C 15.029 19.939,15.035 10.005,14.887 9.733 C 14.861 9.685,14.809 9.636,14.770 9.625 C 14.652 9.590,14.422 9.563,14.380 9.578 M4.231 13.607 C 4.042 13.754,4.039 13.805,4.015 16.532 C 4.003 17.944,4.010 19.347,4.029 19.650 C 4.063 20.177,4.070 20.205,4.178 20.318 C 4.315 20.461,4.473 20.502,4.657 20.441 C 4.891 20.364,4.928 20.257,4.970 19.561 C 5.009 18.919,4.979 14.086,4.935 13.848 C 4.921 13.773,4.870 13.689,4.818 13.655 C 4.688 13.570,4.318 13.539,4.231 13.607 M2.400 21.594 C 2.199 21.618,2.174 21.632,2.110 21.760 C 1.971 22.039,2.047 22.282,2.322 22.437 L 2.493 22.532 11.976 22.507 C 17.192 22.492,21.511 22.469,21.573 22.455 C 21.635 22.441,21.749 22.369,21.828 22.295 C 21.957 22.173,21.969 22.145,21.949 21.999 C 21.937 21.910,21.900 21.795,21.866 21.743 C 21.805 21.650,21.801 21.650,20.712 21.625 C 19.176 21.591,2.667 21.562,2.400 21.594 " fill="#EC0000" stroke="none" fill-rule="evenodd"></path></svg>