<svg width="24" height="25" viewBox="0 0 24 25" fill="none" xmlns="http://www.w3.org/2000/svg"><path d="M19.633 4.559 C 19.137 4.648,18.443 5.189,18.226 5.655 C 18.076 5.977,17.988 6.378,18.017 6.604 C 18.030 6.706,18.095 6.948,18.161 7.142 C 18.300 7.554,18.307 7.657,18.204 7.820 C 18.044 8.073,15.793 10.543,15.618 10.658 C 15.563 10.694,15.502 10.713,15.482 10.701 C 15.463 10.689,15.294 10.664,15.106 10.645 C 14.648 10.599,14.107 10.653,13.750 10.782 C 13.590 10.839,13.431 10.895,13.395 10.906 C 13.298 10.937,11.715 9.717,11.350 9.331 L 11.239 9.215 11.285 8.817 C 11.321 8.511,11.320 8.367,11.283 8.189 C 11.180 7.702,10.822 7.179,10.363 6.846 C 10.111 6.664,9.740 6.560,9.342 6.560 C 8.812 6.560,8.409 6.731,7.961 7.145 C 7.690 7.396,7.484 7.767,7.376 8.197 C 7.302 8.494,7.312 8.587,7.483 9.150 L 7.608 9.563 7.462 9.752 C 7.277 9.989,6.335 11.049,5.504 11.954 L 4.866 12.649 4.703 12.624 C 4.613 12.611,4.358 12.588,4.136 12.574 C 3.790 12.552,3.691 12.561,3.451 12.634 C 2.758 12.844,2.226 13.421,2.057 14.144 C 1.871 14.942,2.366 15.875,3.180 16.265 C 4.289 16.797,5.621 16.138,5.939 14.902 C 5.972 14.770,6.000 14.607,6.000 14.538 C 6.000 14.372,5.867 13.859,5.746 13.561 L 5.649 13.320 5.814 13.130 C 6.129 12.766,7.941 10.782,8.151 10.572 C 8.267 10.455,8.393 10.360,8.431 10.360 C 8.469 10.359,8.695 10.390,8.934 10.428 C 9.336 10.492,9.390 10.492,9.677 10.433 C 9.847 10.398,10.124 10.305,10.293 10.227 L 10.600 10.085 11.650 10.905 L 12.700 11.724 12.705 12.272 C 12.710 12.700,12.729 12.875,12.791 13.070 C 13.106 14.049,14.233 14.689,15.163 14.416 C 15.997 14.171,16.642 13.327,16.639 12.482 C 16.638 12.193,16.542 11.744,16.446 11.581 L 16.370 11.452 16.750 11.016 C 17.516 10.137,18.876 8.616,19.013 8.485 L 19.155 8.350 19.594 8.423 C 19.964 8.484,20.072 8.488,20.286 8.449 C 21.112 8.296,21.811 7.590,21.964 6.754 C 22.179 5.579,20.861 4.337,19.633 4.559 M20.421 5.671 C 20.509 5.716,20.658 5.821,20.754 5.903 L 20.929 6.054 20.913 6.465 C 20.899 6.845,20.889 6.889,20.778 7.047 C 20.712 7.141,20.585 7.269,20.497 7.331 C 20.354 7.431,20.300 7.444,20.032 7.444 C 19.860 7.444,19.669 7.420,19.592 7.388 C 19.311 7.270,19.069 6.853,19.065 6.480 C 19.061 6.110,19.338 5.704,19.667 5.598 C 19.844 5.541,20.244 5.580,20.421 5.671 M9.710 7.636 C 10.024 7.797,10.277 8.148,10.279 8.424 C 10.282 8.761,10.024 9.225,9.759 9.360 C 9.398 9.545,8.780 9.401,8.570 9.084 C 8.290 8.661,8.373 8.080,8.762 7.747 C 9.037 7.512,9.389 7.470,9.710 7.636 M14.969 11.602 C 15.051 11.625,15.210 11.728,15.323 11.832 C 15.529 12.021,15.529 12.022,15.571 12.361 C 15.623 12.781,15.605 12.858,15.396 13.095 C 15.195 13.323,14.978 13.440,14.705 13.467 C 14.528 13.485,14.466 13.470,14.244 13.354 C 13.851 13.148,13.763 12.978,13.761 12.416 C 13.760 12.165,13.774 12.113,13.876 11.971 C 14.133 11.616,14.534 11.481,14.969 11.602 M4.420 13.659 C 4.574 13.723,4.747 13.898,4.844 14.088 C 4.948 14.291,4.948 14.709,4.844 14.912 C 4.492 15.602,3.539 15.644,3.189 14.985 C 3.065 14.752,3.064 14.249,3.187 14.020 C 3.370 13.676,3.624 13.547,4.040 13.585 C 4.183 13.599,4.354 13.632,4.420 13.659 M2.152 19.690 C 2.098 19.762,2.042 19.853,2.027 19.894 C 1.990 19.994,2.121 20.274,2.274 20.416 L 2.398 20.533 11.609 20.504 C 16.675 20.488,21.021 20.462,21.267 20.447 C 21.751 20.415,21.825 20.383,21.948 20.144 C 22.031 19.985,21.952 19.730,21.802 19.673 C 21.701 19.634,11.364 19.565,5.175 19.562 L 2.249 19.560 2.152 19.690 " fill="#EC0000" stroke="none" fill-rule="evenodd"></path></svg>