<svg width="24" height="24" viewBox="0 0 24 24" fill="none" xmlns="http://www.w3.org/2000/svg"><path d="M8.293 2.056 C 8.031 2.174,8.021 2.220,8.007 3.396 C 8.000 3.979,8.005 4.514,8.019 4.586 C 8.050 4.756,8.247 4.950,8.421 4.983 C 8.604 5.017,8.829 4.899,8.926 4.719 C 8.993 4.595,9.000 4.477,8.998 3.521 C 8.996 2.807,8.980 2.415,8.948 2.324 C 8.858 2.069,8.548 1.942,8.293 2.056 M4.320 3.588 C 4.113 3.664,3.957 3.960,4.020 4.159 C 4.085 4.365,5.437 5.836,5.637 5.919 C 5.892 6.024,6.173 5.867,6.275 5.561 C 6.316 5.440,6.310 5.401,6.231 5.252 C 6.122 5.049,4.924 3.746,4.745 3.637 C 4.625 3.563,4.445 3.543,4.320 3.588 M12.519 3.655 C 12.302 3.804,11.115 5.120,11.030 5.307 C 10.934 5.516,11.099 5.840,11.341 5.920 C 11.572 5.997,11.698 5.939,12.027 5.606 C 12.332 5.297,13.029 4.518,13.192 4.305 C 13.297 4.167,13.310 3.901,13.218 3.769 C 13.066 3.552,12.746 3.500,12.519 3.655 M7.880 5.579 C 7.254 5.698,6.494 6.183,6.106 6.711 C 5.893 7.002,5.684 7.449,5.593 7.810 C 5.523 8.084,5.513 8.216,5.531 8.619 C 5.567 9.443,5.824 10.025,6.417 10.623 C 6.692 10.900,6.803 10.980,7.160 11.155 C 7.751 11.444,7.978 11.493,8.618 11.470 C 9.048 11.454,9.192 11.432,9.439 11.345 C 10.164 11.088,10.795 10.546,11.133 9.891 C 11.384 9.403,11.480 9.019,11.480 8.500 C 11.480 7.982,11.384 7.598,11.133 7.109 C 10.868 6.594,10.409 6.133,9.900 5.872 C 9.702 5.770,9.432 5.658,9.300 5.622 C 8.960 5.530,8.250 5.508,7.880 5.579 M19.980 6.023 C 19.892 6.054,19.817 6.079,19.814 6.079 C 19.811 6.080,19.784 6.139,19.754 6.210 C 19.710 6.317,19.698 7.583,19.689 13.245 L 19.677 20.149 19.818 20.273 C 20.001 20.433,20.188 20.469,20.378 20.378 C 20.685 20.233,20.660 20.867,20.659 13.220 C 20.658 8.652,20.644 6.341,20.617 6.263 C 20.536 6.031,20.256 5.926,19.980 6.023 M8.928 6.564 C 10.165 6.821,10.834 8.228,10.265 9.377 C 10.088 9.736,9.902 9.952,9.595 10.157 C 9.266 10.377,8.916 10.480,8.500 10.480 C 7.037 10.480,6.082 8.942,6.725 7.620 C 7.118 6.810,8.024 6.376,8.928 6.564 M2.392 8.027 C 2.236 8.053,2.051 8.242,2.020 8.407 C 1.986 8.587,2.077 8.810,2.225 8.907 C 2.327 8.973,2.441 8.980,3.505 8.980 C 4.632 8.980,4.678 8.977,4.787 8.896 C 4.849 8.849,4.926 8.744,4.957 8.661 C 5.007 8.531,5.007 8.489,4.957 8.349 C 4.926 8.260,4.849 8.150,4.787 8.104 C 4.680 8.024,4.622 8.020,3.587 8.014 C 2.989 8.011,2.451 8.017,2.392 8.027 M12.392 8.027 C 12.236 8.053,12.051 8.242,12.020 8.407 C 11.986 8.587,12.077 8.810,12.225 8.907 C 12.327 8.973,12.441 8.980,13.505 8.980 C 14.632 8.980,14.678 8.977,14.787 8.896 C 14.849 8.849,14.926 8.744,14.957 8.661 C 15.007 8.531,15.007 8.489,14.957 8.349 C 14.926 8.260,14.849 8.150,14.787 8.104 C 14.680 8.024,14.622 8.020,13.587 8.014 C 12.989 8.011,12.451 8.017,12.392 8.027 M16.216 8.976 C 16.147 9.007,16.044 9.083,15.986 9.145 L 15.880 9.259 15.880 14.707 L 15.880 20.154 16.030 20.278 C 16.113 20.347,16.221 20.413,16.272 20.426 C 16.406 20.460,16.706 20.331,16.801 20.198 C 16.883 20.083,16.883 20.076,16.870 14.712 C 16.861 11.190,16.842 9.299,16.816 9.221 C 16.744 9.011,16.428 8.882,16.216 8.976 M5.300 11.039 C 5.094 11.125,3.887 12.399,3.757 12.666 C 3.675 12.835,3.675 12.837,3.752 13.011 C 3.847 13.225,4.052 13.341,4.275 13.306 C 4.398 13.286,4.526 13.176,5.106 12.590 C 5.833 11.854,5.960 11.692,5.960 11.500 C 5.960 11.183,5.583 10.920,5.300 11.039 M12.420 11.736 C 12.354 11.765,12.258 11.847,12.207 11.917 L 12.114 12.045 12.127 16.052 C 12.142 20.559,12.118 20.239,12.445 20.374 C 12.666 20.465,12.767 20.447,12.970 20.278 L 13.120 20.154 13.120 16.060 L 13.120 11.966 12.953 11.823 C 12.770 11.667,12.629 11.644,12.420 11.736 M8.646 14.825 C 8.573 14.863,8.492 14.940,8.466 14.997 C 8.433 15.071,8.417 15.816,8.408 17.626 L 8.397 20.151 8.548 20.277 C 8.754 20.447,8.854 20.466,9.075 20.374 C 9.395 20.241,9.380 20.375,9.380 17.660 C 9.380 16.340,9.366 15.193,9.348 15.112 C 9.290 14.836,8.922 14.685,8.646 14.825 M7.833 21.149 L 7.245 21.162 7.143 21.284 C 6.954 21.509,6.958 21.707,7.158 21.930 L 7.273 22.060 8.407 22.091 C 9.030 22.107,12.258 22.116,15.580 22.111 C 22.193 22.099,21.752 22.116,21.936 21.867 C 21.991 21.793,22.020 21.694,22.020 21.578 C 22.020 21.432,21.997 21.379,21.889 21.271 L 21.758 21.140 15.089 21.138 C 11.421 21.137,8.156 21.142,7.833 21.149 " fill="#222222" stroke="none" fill-rule="evenodd"></path></svg>