<svg width="24" height="25" viewBox="0 0 24 25" fill="none" xmlns="http://www.w3.org/2000/svg"><path d="M3.271 3.623 C 3.210 3.655,3.129 3.740,3.091 3.811 C 3.024 3.933,3.021 4.365,3.030 11.964 C 3.039 19.305,3.059 21.072,3.136 21.150 C 3.205 21.218,5.547 21.243,12.480 21.251 C 20.312 21.260,20.562 21.255,20.727 21.090 C 20.882 20.935,20.853 20.435,20.686 20.382 C 20.598 20.354,10.792 20.282,6.956 20.281 L 4.011 20.280 3.988 12.130 C 3.976 7.577,3.950 3.927,3.930 3.860 C 3.857 3.615,3.513 3.491,3.271 3.623 M4.893 3.618 C 4.662 3.719,4.630 3.818,4.635 4.407 C 4.644 5.548,5.176 11.350,5.326 11.947 C 5.378 12.154,5.536 12.280,5.745 12.280 C 5.890 12.280,6.890 12.096,9.128 11.658 L 10.716 11.348 10.848 11.448 C 11.159 11.684,11.507 11.767,11.660 11.640 C 11.755 11.562,11.878 11.288,11.879 11.155 C 11.880 11.052,11.892 11.047,12.350 10.961 C 12.608 10.912,12.922 10.863,13.047 10.851 L 13.274 10.829 13.298 10.965 C 13.330 11.151,13.264 12.192,13.218 12.236 C 13.195 12.258,13.078 12.241,12.925 12.193 C 12.639 12.104,12.522 12.127,12.355 12.305 C 12.139 12.535,12.259 12.801,12.861 13.434 L 13.198 13.788 13.161 14.224 C 13.100 14.931,13.029 17.063,13.046 17.647 C 13.064 18.269,13.106 18.379,13.341 18.423 C 13.529 18.458,13.741 18.379,14.980 17.811 C 16.132 17.282,16.525 17.120,16.653 17.120 C 16.745 17.120,16.875 17.047,17.540 16.623 C 17.738 16.496,17.984 16.350,18.087 16.297 L 18.274 16.202 18.871 17.371 C 20.064 19.710,20.307 20.052,20.653 19.875 C 20.805 19.797,20.960 19.628,20.960 19.540 C 20.960 19.368,20.783 18.943,20.324 18.014 C 19.743 16.838,19.166 15.748,18.936 15.391 C 18.667 14.972,18.645 14.974,17.470 15.509 L 16.719 15.850 16.390 15.534 C 15.710 14.882,15.471 14.744,15.224 14.861 C 14.981 14.976,14.880 15.205,14.980 15.414 C 15.015 15.489,15.206 15.723,15.404 15.934 L 15.764 16.317 15.410 16.495 C 14.963 16.720,14.215 17.040,14.138 17.040 C 14.067 17.040,14.063 16.762,14.121 15.780 C 14.187 14.673,14.214 14.518,14.387 14.258 C 14.581 13.965,14.581 13.835,14.387 13.565 L 14.238 13.358 14.278 12.629 C 14.300 12.228,14.325 11.444,14.334 10.886 L 14.350 9.873 14.225 9.796 C 13.999 9.658,13.658 9.693,11.984 10.024 L 11.068 10.205 10.884 10.028 C 10.604 9.758,10.297 9.532,10.142 9.481 C 10.027 9.443,9.978 9.447,9.860 9.502 C 9.539 9.655,9.495 9.860,9.700 10.255 C 9.756 10.363,9.796 10.457,9.790 10.464 C 9.764 10.490,8.656 10.724,7.660 10.913 C 6.253 11.182,6.338 11.169,6.289 11.110 C 6.211 11.017,5.881 7.505,5.880 6.770 C 5.880 6.431,5.890 6.360,5.940 6.360 C 6.053 6.360,6.365 6.189,6.429 6.092 C 6.573 5.873,6.474 5.664,5.964 5.113 L 5.680 4.807 5.597 4.393 C 5.496 3.892,5.431 3.746,5.261 3.641 C 5.109 3.547,5.064 3.544,4.893 3.618 M7.176 6.796 C 7.011 6.896,6.880 7.086,6.880 7.222 C 6.880 7.381,7.110 7.660,7.790 8.325 C 8.448 8.968,8.632 9.086,8.841 9.000 C 8.990 8.938,9.150 8.738,9.183 8.575 C 9.203 8.477,9.178 8.420,9.049 8.256 C 8.713 7.831,7.466 6.719,7.326 6.720 C 7.312 6.720,7.244 6.754,7.176 6.796 M17.896 17.556 C 17.734 17.655,17.600 17.829,17.600 17.941 C 17.600 18.059,17.885 18.437,18.205 18.744 C 18.544 19.069,18.628 19.120,18.824 19.120 C 19.033 19.120,19.183 19.007,19.244 18.804 C 19.282 18.675,19.278 18.627,19.216 18.496 C 19.114 18.281,18.509 17.661,18.303 17.562 C 18.096 17.461,18.052 17.461,17.896 17.556 " fill="#EC0000" stroke="none" fill-rule="evenodd"></path></svg>