<svg width="24" height="25" viewBox="0 0 24 25" fill="none" xmlns="http://www.w3.org/2000/svg"><path d="M11.687 3.630 C 11.557 3.741,11.519 3.968,11.492 4.770 L 11.468 5.520 10.304 5.520 C 9.664 5.520,7.817 5.539,6.200 5.560 L 3.260 5.600 3.126 5.744 C 3.016 5.862,2.996 5.909,3.015 6.007 C 3.074 6.299,3.314 6.460,3.763 6.507 L 4.000 6.531 4.000 11.019 L 4.000 15.508 3.655 15.549 C 3.009 15.628,2.833 15.956,3.208 16.383 L 3.328 16.520 6.654 16.520 C 9.755 16.521,10.401 16.534,10.399 16.596 C 10.399 16.609,10.014 17.137,9.545 17.769 C 8.511 19.161,8.046 19.822,8.014 19.948 C 7.968 20.132,8.293 20.480,8.511 20.480 C 8.699 20.480,9.073 20.045,10.618 18.028 C 11.169 17.310,11.385 17.055,11.409 17.097 C 11.426 17.129,11.459 17.790,11.480 18.567 C 11.502 19.344,11.537 20.050,11.557 20.136 C 11.610 20.357,11.683 20.412,11.949 20.431 C 12.227 20.451,12.373 20.361,12.439 20.128 C 12.463 20.047,12.500 19.324,12.521 18.523 C 12.543 17.721,12.571 17.055,12.583 17.043 C 12.596 17.031,12.636 17.060,12.673 17.107 C 12.710 17.155,13.199 17.791,13.760 18.522 C 14.967 20.095,15.187 20.363,15.333 20.433 C 15.552 20.538,15.872 20.367,15.961 20.097 C 16.004 19.968,15.997 19.939,15.881 19.748 C 15.761 19.551,15.114 18.656,14.065 17.238 C 13.804 16.885,13.603 16.584,13.618 16.568 C 13.634 16.553,15.228 16.535,17.161 16.529 L 20.676 16.518 20.799 16.369 C 21.155 15.937,20.983 15.627,20.345 15.549 L 20.000 15.508 20.000 11.019 L 20.000 6.531 20.251 6.511 C 20.664 6.478,20.960 6.280,20.960 6.037 C 20.960 5.880,20.883 5.690,20.807 5.658 C 20.703 5.613,18.819 5.570,15.535 5.537 L 12.531 5.508 12.512 4.704 C 12.500 4.171,12.477 3.868,12.443 3.807 C 12.334 3.602,11.851 3.490,11.687 3.630 M19.000 11.020 L 19.000 15.520 12.000 15.520 L 5.000 15.520 5.000 11.020 L 5.000 6.520 12.000 6.520 L 19.000 6.520 19.000 11.020 M6.920 7.959 C 6.279 7.991,6.110 8.073,5.917 8.448 C 5.844 8.589,5.840 8.706,5.841 10.688 C 5.842 11.839,5.859 13.201,5.879 13.715 C 5.913 14.604,5.919 14.654,6.005 14.745 C 6.143 14.893,6.352 14.941,6.529 14.867 C 6.805 14.752,6.816 14.709,6.846 13.543 C 6.861 12.969,6.875 11.685,6.877 10.690 L 6.880 8.880 7.675 8.880 L 8.469 8.880 8.491 11.650 C 8.506 13.513,8.528 14.469,8.558 14.568 C 8.653 14.883,9.022 14.995,9.291 14.790 C 9.428 14.685,9.434 14.670,9.466 14.331 C 9.484 14.138,9.499 12.765,9.499 11.280 C 9.500 8.245,9.522 8.476,9.193 8.101 L 9.033 7.920 8.227 7.927 C 7.783 7.930,7.195 7.945,6.920 7.959 M10.696 11.074 C 10.355 11.323,10.381 11.175,10.384 12.914 C 10.388 14.725,10.389 14.731,10.693 14.857 C 10.885 14.937,10.887 14.937,11.033 14.859 C 11.124 14.810,11.210 14.719,11.258 14.620 C 11.330 14.474,11.338 14.351,11.353 13.190 L 11.370 11.920 12.180 11.920 L 12.990 11.920 13.007 13.190 C 13.023 14.347,13.031 14.475,13.102 14.620 C 13.155 14.728,13.231 14.805,13.337 14.856 C 13.479 14.926,13.508 14.928,13.657 14.876 C 13.782 14.833,13.838 14.783,13.899 14.660 C 13.970 14.516,13.980 14.399,13.992 13.500 C 13.999 12.950,13.989 12.234,13.970 11.909 L 13.936 11.319 13.759 11.139 L 13.583 10.960 12.218 10.960 L 10.852 10.960 10.696 11.074 M15.424 12.355 C 15.021 12.387,14.977 12.437,14.915 12.940 C 14.861 13.373,14.892 14.643,14.961 14.831 C 15.044 15.059,15.352 15.148,15.605 15.017 C 15.814 14.909,15.855 14.746,15.872 13.950 L 15.888 13.240 16.704 13.240 L 17.520 13.240 17.520 14.040 L 17.520 14.839 17.686 14.960 C 17.915 15.125,18.127 15.124,18.359 14.956 L 18.530 14.832 18.512 13.740 C 18.493 12.561,18.479 12.483,18.266 12.402 C 18.153 12.359,15.849 12.321,15.424 12.355 " fill="#EC0000" stroke="none" fill-rule="evenodd"></path></svg>