<svg width="24" height="24" viewBox="0 0 24 24" fill="none" xmlns="http://www.w3.org/2000/svg"><path d="M13.828 2.049 C 13.578 2.115,13.547 2.203,13.515 2.936 C 13.479 3.745,13.478 8.719,13.514 9.589 C 13.540 10.227,13.542 10.240,13.649 10.347 C 13.756 10.454,13.773 10.457,14.409 10.489 C 14.767 10.507,16.527 10.517,18.320 10.511 C 21.881 10.499,21.716 10.510,21.896 10.267 C 22.125 9.958,21.940 8.490,21.524 7.325 C 21.030 5.943,20.169 4.720,19.060 3.828 C 17.766 2.786,16.343 2.205,14.686 2.041 C 14.197 1.993,14.033 1.994,13.828 2.049 M15.213 3.119 C 17.873 3.574,20.098 5.634,20.760 8.255 C 20.869 8.683,20.960 9.218,20.960 9.423 L 20.960 9.520 17.740 9.520 L 14.520 9.520 14.520 6.280 L 14.520 3.040 14.636 3.040 C 14.700 3.040,14.960 3.075,15.213 3.119 M10.380 4.024 C 9.109 4.149,8.155 4.406,7.140 4.896 C 4.864 5.994,3.219 7.870,2.444 10.252 C 1.767 12.332,1.871 14.503,2.746 16.551 C 3.213 17.645,3.880 18.603,4.785 19.480 C 5.502 20.174,6.082 20.582,7.010 21.047 C 7.644 21.364,8.076 21.528,8.726 21.698 C 9.615 21.931,9.948 21.971,11.000 21.972 C 11.787 21.972,12.019 21.958,12.427 21.886 C 14.995 21.431,17.156 20.011,18.558 17.858 C 19.408 16.552,19.917 14.951,19.982 13.382 C 20.005 12.826,19.954 12.656,19.740 12.585 C 19.664 12.560,18.127 12.540,15.574 12.530 L 11.527 12.516 11.513 8.468 C 11.500 4.674,11.495 4.411,11.428 4.276 C 11.388 4.196,11.308 4.109,11.248 4.081 C 11.135 4.029,10.652 3.997,10.380 4.024 M10.484 8.610 C 10.486 10.573,10.500 12.418,10.514 12.710 C 10.540 13.217,10.546 13.244,10.651 13.349 C 10.756 13.455,10.780 13.459,11.330 13.486 C 11.644 13.501,13.489 13.515,15.430 13.517 L 18.960 13.520 18.960 13.670 C 18.960 13.888,18.852 14.519,18.739 14.965 C 18.005 17.859,15.701 20.113,12.780 20.793 C 9.550 21.545,6.140 20.165,4.316 17.368 C 2.621 14.767,2.583 11.389,4.220 8.782 C 5.246 7.147,6.943 5.849,8.723 5.337 C 9.203 5.199,10.000 5.047,10.270 5.043 L 10.480 5.040 10.484 8.610 " fill="#EC0000" stroke="none" fill-rule="evenodd"></path></svg>