<svg width="24" height="24" viewBox="0 0 24 24" fill="none" xmlns="http://www.w3.org/2000/svg"><path d="M9.835 1.117 C 8.490 1.394,7.162 1.945,6.017 2.701 C 3.402 4.428,1.638 7.164,1.144 10.260 C 0.710 12.975,1.311 15.767,2.817 18.036 C 3.284 18.739,3.591 19.104,4.324 19.828 C 5.009 20.505,5.288 20.735,5.957 21.181 C 7.282 22.063,8.810 22.643,10.500 22.902 C 11.040 22.985,12.832 22.999,13.360 22.924 C 14.805 22.718,16.219 22.249,17.376 21.592 C 18.260 21.091,18.811 20.662,18.860 20.438 C 18.917 20.180,19.163 20.457,14.520 15.543 L 11.020 11.839 11.000 6.588 C 10.978 0.742,11.002 1.206,10.707 1.066 C 10.528 0.981,10.484 0.983,9.835 1.117 M12.280 1.067 C 12.003 1.211,12.020 0.887,12.020 6.000 C 12.020 9.559,12.031 10.645,12.069 10.730 C 12.126 10.857,12.338 11.000,12.471 11.000 C 12.618 11.000,14.094 10.210,17.837 8.130 C 20.835 6.464,21.002 6.364,21.069 6.205 C 21.154 6.001,21.111 5.833,20.893 5.528 C 19.961 4.222,18.499 2.980,16.997 2.220 C 15.772 1.599,14.898 1.314,13.640 1.125 C 12.776 0.995,12.446 0.981,12.280 1.067 M13.560 2.121 C 15.456 2.430,17.092 3.201,18.596 4.496 C 18.940 4.793,19.761 5.654,19.841 5.802 C 19.868 5.853,19.305 6.179,16.747 7.589 C 15.027 8.538,13.480 9.389,13.310 9.480 L 13.000 9.647 13.000 5.843 C 13.000 3.752,13.013 2.040,13.030 2.040 C 13.047 2.040,13.285 2.077,13.560 2.121 M10.008 7.154 L 10.020 12.189 10.380 12.583 C 10.998 13.258,12.482 14.842,15.057 17.574 C 16.423 19.023,17.545 20.231,17.552 20.259 C 17.578 20.369,16.397 21.016,15.638 21.309 C 14.914 21.589,14.182 21.775,13.220 21.927 C 12.726 22.004,11.202 21.993,10.640 21.907 C 8.409 21.567,6.510 20.622,4.958 19.080 C 3.560 17.691,2.565 15.836,2.204 13.948 C 2.012 12.944,1.970 11.673,2.096 10.720 C 2.351 8.806,3.125 7.014,4.332 5.550 C 5.620 3.986,7.419 2.798,9.280 2.281 C 9.533 2.211,9.758 2.147,9.780 2.140 C 9.802 2.132,9.860 2.125,9.908 2.123 L 9.997 2.120 10.008 7.154 M20.900 7.814 C 19.684 8.444,15.601 10.671,14.097 11.524 C 13.319 11.965,13.240 12.033,13.240 12.258 C 13.240 12.442,13.632 12.885,16.040 15.420 C 18.594 18.109,19.688 19.233,19.773 19.256 C 20.042 19.328,20.128 19.292,20.420 18.988 C 20.926 18.462,21.621 17.395,22.004 16.560 C 22.430 15.629,22.724 14.641,22.886 13.594 C 23.002 12.847,23.014 11.275,22.909 10.580 C 22.756 9.561,22.404 8.271,22.141 7.763 C 22.057 7.600,21.851 7.440,21.727 7.441 C 21.668 7.441,21.296 7.609,20.900 7.814 M21.537 9.010 C 22.088 10.826,22.124 12.779,21.643 14.622 C 21.391 15.587,20.971 16.516,20.399 17.373 C 20.202 17.668,20.012 17.933,19.976 17.963 C 19.900 18.027,19.818 17.945,17.439 15.439 C 14.758 12.614,14.600 12.446,14.600 12.413 C 14.600 12.375,15.302 11.984,18.800 10.073 C 20.197 9.309,21.362 8.684,21.389 8.682 C 21.416 8.681,21.482 8.827,21.537 9.010 " fill="#EC0000" stroke="none" fill-rule="evenodd"></path></svg>