<svg width="24" height="24" viewBox="0 0 24 24" fill="none" xmlns="http://www.w3.org/2000/svg"><path d="M10.538 2.035 C 10.033 2.059,10.009 2.064,9.784 2.200 C 9.493 2.375,9.263 2.629,9.115 2.940 L 9.000 3.180 9.000 5.505 L 9.000 7.829 9.140 8.109 C 9.308 8.445,9.589 8.722,9.911 8.871 C 10.123 8.969,10.188 8.978,10.810 8.993 L 11.480 9.009 11.480 10.259 L 11.480 11.508 8.529 11.529 L 5.578 11.550 5.361 11.660 C 5.096 11.794,4.762 12.127,4.640 12.379 C 4.517 12.635,4.484 12.984,4.482 14.070 L 4.480 15.000 4.010 15.000 C 3.448 15.001,3.084 15.053,2.840 15.170 C 2.577 15.296,2.257 15.634,2.117 15.935 L 1.996 16.192 2.008 18.526 L 2.020 20.860 2.128 21.090 C 2.261 21.374,2.576 21.714,2.820 21.836 C 3.115 21.983,3.462 22.006,5.212 21.992 L 6.860 21.980 7.126 21.850 C 7.456 21.688,7.757 21.372,7.887 21.050 L 7.980 20.820 7.992 18.505 L 8.003 16.190 7.883 15.934 C 7.743 15.634,7.422 15.295,7.160 15.170 C 6.916 15.053,6.552 15.001,5.990 15.000 L 5.520 15.000 5.520 13.888 L 5.520 12.776 5.652 12.648 L 5.784 12.520 8.632 12.520 L 11.480 12.520 11.480 13.760 L 11.480 15.000 11.010 15.000 C 10.448 15.001,10.084 15.053,9.840 15.170 C 9.577 15.296,9.257 15.634,9.117 15.935 L 8.996 16.192 9.008 18.526 L 9.020 20.860 9.128 21.090 C 9.261 21.374,9.576 21.714,9.820 21.836 C 10.115 21.983,10.462 22.006,12.212 21.992 L 13.860 21.980 14.126 21.850 C 14.456 21.688,14.757 21.372,14.887 21.050 L 14.980 20.820 14.992 18.505 L 15.003 16.190 14.883 15.934 C 14.743 15.634,14.422 15.295,14.160 15.170 C 13.916 15.053,13.552 15.001,12.990 15.000 L 12.520 15.000 12.520 13.760 L 12.520 12.520 15.372 12.520 L 18.224 12.520 18.352 12.652 L 18.480 12.784 18.480 13.892 L 18.480 15.000 18.010 15.000 C 17.448 15.001,17.084 15.053,16.840 15.170 C 16.577 15.296,16.257 15.634,16.117 15.935 L 15.996 16.192 16.008 18.526 L 16.020 20.860 16.128 21.090 C 16.261 21.374,16.576 21.714,16.820 21.836 C 17.115 21.983,17.462 22.006,19.212 21.992 L 20.860 21.980 21.126 21.850 C 21.456 21.688,21.757 21.372,21.887 21.050 L 21.980 20.820 21.992 18.505 L 22.003 16.190 21.883 15.934 C 21.743 15.634,21.422 15.295,21.160 15.170 C 20.916 15.053,20.552 15.001,19.990 15.000 L 19.520 15.000 19.520 14.030 C 19.520 13.497,19.502 12.955,19.481 12.827 C 19.399 12.322,19.111 11.913,18.675 11.680 L 18.429 11.550 15.475 11.529 L 12.520 11.508 12.520 10.259 L 12.520 9.009 13.190 8.993 C 13.812 8.978,13.877 8.969,14.089 8.871 C 14.411 8.722,14.692 8.445,14.860 8.109 L 15.000 7.829 15.000 5.500 L 15.000 3.171 14.858 2.888 C 14.696 2.563,14.428 2.298,14.108 2.144 C 13.901 2.045,13.894 2.044,12.480 2.027 C 11.699 2.017,10.825 2.021,10.538 2.035 M13.774 3.092 C 13.980 3.228,13.980 3.224,13.980 5.520 C 13.980 7.821,13.984 7.770,13.770 7.910 C 13.673 7.974,13.517 7.980,12.000 7.980 C 10.483 7.980,10.327 7.974,10.230 7.910 C 10.018 7.772,10.021 7.797,10.008 5.767 C 10.000 4.698,10.012 3.733,10.034 3.551 C 10.079 3.183,10.145 3.086,10.387 3.038 C 10.471 3.021,11.243 3.010,12.102 3.013 C 13.533 3.019,13.673 3.026,13.774 3.092 M6.729 16.077 C 6.988 16.208,6.979 16.123,6.992 18.475 L 7.005 20.609 6.902 20.764 C 6.844 20.852,6.752 20.932,6.690 20.949 C 6.547 20.989,3.454 20.989,3.311 20.950 C 3.251 20.933,3.157 20.852,3.101 20.770 L 3.000 20.621 3.001 18.701 C 3.002 17.644,3.019 16.656,3.038 16.504 C 3.079 16.186,3.155 16.084,3.387 16.037 C 3.471 16.020,4.233 16.010,5.080 16.014 C 6.300 16.020,6.643 16.033,6.729 16.077 M13.729 16.077 C 13.988 16.208,13.979 16.123,13.992 18.475 L 14.005 20.609 13.902 20.764 C 13.844 20.852,13.752 20.932,13.690 20.949 C 13.547 20.989,10.454 20.989,10.311 20.950 C 10.251 20.933,10.157 20.852,10.101 20.770 L 10.000 20.621 10.001 18.701 C 10.002 17.644,10.019 16.656,10.038 16.504 C 10.079 16.186,10.155 16.084,10.387 16.037 C 10.471 16.020,11.233 16.010,12.080 16.014 C 13.300 16.020,13.643 16.033,13.729 16.077 M20.729 16.077 C 20.988 16.208,20.979 16.123,20.992 18.475 L 21.005 20.609 20.902 20.764 C 20.844 20.852,20.752 20.932,20.690 20.949 C 20.547 20.989,17.454 20.989,17.311 20.950 C 17.251 20.933,17.157 20.852,17.101 20.770 L 17.000 20.621 17.001 18.701 C 17.002 17.644,17.019 16.656,17.038 16.504 C 17.079 16.186,17.155 16.084,17.387 16.037 C 17.471 16.020,18.233 16.010,19.080 16.014 C 20.300 16.020,20.643 16.033,20.729 16.077 " fill="#EC0000" stroke="none" fill-rule="evenodd"></path></svg>