<svg width="24" height="25" viewBox="0 0 24 25" fill="none" xmlns="http://www.w3.org/2000/svg"><path d="M9.840 2.599 C 7.019 2.626,7.231 2.601,6.782 2.959 C 6.498 3.184,6.279 3.479,6.155 3.801 C 6.074 4.012,6.069 4.121,6.032 6.620 C 5.987 9.731,6.018 20.201,6.075 20.790 C 6.106 21.112,6.138 21.243,6.225 21.402 C 6.372 21.673,6.844 22.114,7.227 22.338 L 7.538 22.520 12.008 22.520 L 16.477 22.520 16.789 22.333 C 17.203 22.084,17.655 21.623,17.855 21.245 L 18.010 20.953 17.986 12.786 C 17.973 8.295,17.946 4.446,17.926 4.233 C 17.903 3.985,17.859 3.783,17.806 3.673 C 17.681 3.416,17.398 3.114,17.008 2.821 L 16.660 2.560 14.500 2.568 C 13.312 2.572,11.215 2.586,9.840 2.599 M16.567 3.710 C 16.669 3.788,16.788 3.899,16.831 3.956 C 16.907 4.059,16.909 4.230,16.938 12.121 C 16.955 16.553,16.954 20.350,16.938 20.558 L 16.908 20.937 16.701 21.144 C 16.587 21.258,16.420 21.389,16.329 21.436 C 16.163 21.520,16.157 21.520,11.936 21.520 L 7.708 21.520 7.484 21.336 C 7.202 21.105,7.163 21.029,7.117 20.627 C 7.061 20.145,7.025 7.918,7.072 5.840 C 7.094 4.883,7.129 4.057,7.149 4.004 C 7.170 3.951,7.293 3.820,7.423 3.712 L 7.660 3.517 12.020 3.543 L 16.380 3.569 16.567 3.710 M10.711 4.596 C 10.273 4.618,10.234 4.627,10.137 4.725 C 9.956 4.906,10.014 5.222,10.257 5.382 C 10.424 5.491,11.068 5.530,12.300 5.505 C 13.694 5.476,13.780 5.460,13.912 5.195 C 14.001 5.016,14.001 5.005,13.937 4.844 C 13.900 4.753,13.832 4.656,13.785 4.629 C 13.691 4.575,11.572 4.553,10.711 4.596 M11.361 19.599 C 11.069 19.672,10.958 19.965,11.121 20.232 C 11.250 20.444,11.424 20.497,12.000 20.499 C 12.423 20.500,12.524 20.488,12.657 20.420 C 12.994 20.249,13.077 19.938,12.847 19.709 L 12.718 19.580 12.109 19.572 C 11.774 19.568,11.437 19.580,11.361 19.599 " fill="#EC0000" stroke="none" fill-rule="evenodd"></path></svg>