<svg width="24" height="24" viewBox="0 0 24 24" fill="none" xmlns="http://www.w3.org/2000/svg"><path d="M8.280 2.037 C 7.652 2.060,7.507 2.077,7.320 2.152 C 6.843 2.342,6.340 2.846,6.153 3.320 C 6.011 3.680,5.996 4.689,6.011 12.800 L 6.024 20.340 6.113 20.580 C 6.334 21.176,6.821 21.662,7.423 21.889 L 7.660 21.978 11.640 21.991 C 16.070 22.006,16.376 21.995,16.791 21.801 C 17.150 21.633,17.634 21.148,17.803 20.787 C 17.917 20.542,17.928 20.477,17.965 19.852 C 17.988 19.445,17.999 16.123,17.991 11.420 L 17.979 3.660 17.889 3.423 C 17.655 2.805,17.164 2.322,16.560 2.116 L 16.300 2.028 12.660 2.019 C 10.658 2.014,8.687 2.022,8.280 2.037 M16.369 3.105 C 16.549 3.198,16.756 3.399,16.869 3.591 L 16.974 3.771 16.977 11.975 C 16.980 19.467,16.974 20.192,16.915 20.323 C 16.819 20.534,16.613 20.751,16.383 20.883 L 16.180 20.999 12.009 21.000 L 7.837 21.000 7.646 20.903 C 7.442 20.800,7.211 20.570,7.092 20.352 C 7.023 20.226,7.020 19.854,7.023 12.000 C 7.026 4.361,7.031 3.771,7.094 3.651 C 7.190 3.466,7.382 3.258,7.553 3.152 C 7.692 3.065,7.750 3.059,8.680 3.036 C 9.219 3.022,11.145 3.020,12.959 3.030 C 15.709 3.045,16.277 3.057,16.369 3.105 M8.235 4.096 C 8.155 4.151,8.075 4.228,8.056 4.268 C 8.014 4.357,7.983 9.740,8.021 10.319 C 8.049 10.735,8.050 10.738,8.194 10.870 L 8.339 11.003 11.980 10.992 C 14.712 10.983,15.647 10.968,15.728 10.932 C 15.787 10.905,15.868 10.834,15.908 10.774 C 15.976 10.670,15.980 10.480,15.980 7.500 C 15.980 4.520,15.976 4.330,15.908 4.226 C 15.868 4.166,15.787 4.095,15.728 4.069 C 15.648 4.034,14.679 4.018,12.000 4.009 L 8.380 3.997 8.235 4.096 M15.000 7.500 L 15.000 10.000 12.000 10.000 L 9.000 10.000 9.000 7.500 L 9.000 5.000 12.000 5.000 L 15.000 5.000 15.000 7.500 M8.280 14.071 C 7.848 14.306,7.960 14.907,8.451 14.981 C 8.551 14.996,8.868 15.002,9.154 14.994 C 9.608 14.982,9.689 14.969,9.787 14.896 C 10.050 14.700,10.051 14.299,9.789 14.112 C 9.670 14.027,9.612 14.019,9.040 14.008 C 8.492 13.997,8.404 14.004,8.280 14.071 M11.280 14.071 C 10.848 14.306,10.960 14.907,11.451 14.981 C 11.551 14.996,11.868 15.002,12.154 14.994 C 12.608 14.982,12.689 14.969,12.787 14.896 C 13.050 14.700,13.051 14.299,12.789 14.112 C 12.670 14.027,12.612 14.019,12.040 14.008 C 11.492 13.997,11.404 14.004,11.280 14.071 M14.280 14.071 C 13.848 14.306,13.960 14.907,14.451 14.981 C 14.551 14.996,14.868 15.002,15.154 14.994 C 15.608 14.982,15.689 14.969,15.787 14.896 C 16.050 14.700,16.051 14.299,15.789 14.112 C 15.670 14.027,15.612 14.019,15.040 14.008 C 14.492 13.997,14.404 14.004,14.280 14.071 M8.280 16.071 C 7.848 16.306,7.960 16.907,8.451 16.981 C 8.551 16.996,8.868 17.002,9.154 16.994 C 9.608 16.982,9.689 16.969,9.787 16.896 C 10.050 16.700,10.051 16.299,9.789 16.112 C 9.670 16.027,9.612 16.019,9.040 16.008 C 8.492 15.997,8.404 16.004,8.280 16.071 M11.280 16.071 C 10.848 16.306,10.960 16.907,11.451 16.981 C 11.551 16.996,11.868 17.002,12.154 16.994 C 12.608 16.982,12.689 16.969,12.787 16.896 C 13.050 16.700,13.051 16.299,12.789 16.112 C 12.670 16.027,12.612 16.019,12.040 16.008 C 11.492 15.997,11.404 16.004,11.280 16.071 M14.280 16.071 C 13.848 16.306,13.960 16.907,14.451 16.981 C 14.551 16.996,14.868 17.002,15.154 16.994 C 15.608 16.982,15.689 16.969,15.787 16.896 C 16.050 16.700,16.051 16.299,15.789 16.112 C 15.670 16.027,15.612 16.019,15.040 16.008 C 14.492 15.997,14.404 16.004,14.280 16.071 M8.280 18.071 C 7.848 18.306,7.960 18.907,8.451 18.981 C 8.551 18.996,8.868 19.002,9.154 18.994 C 9.608 18.982,9.689 18.969,9.787 18.896 C 10.050 18.700,10.051 18.299,9.789 18.112 C 9.670 18.027,9.612 18.019,9.040 18.008 C 8.492 17.997,8.404 18.004,8.280 18.071 M11.280 18.071 C 10.848 18.306,10.960 18.907,11.451 18.981 C 11.551 18.996,11.868 19.002,12.154 18.994 C 12.608 18.982,12.689 18.969,12.787 18.896 C 13.050 18.700,13.051 18.299,12.789 18.112 C 12.670 18.027,12.612 18.019,12.040 18.008 C 11.492 17.997,11.404 18.004,11.280 18.071 M14.280 18.071 C 13.848 18.306,13.960 18.907,14.451 18.981 C 14.551 18.996,14.868 19.002,15.154 18.994 C 15.608 18.982,15.689 18.969,15.787 18.896 C 16.050 18.700,16.051 18.299,15.789 18.112 C 15.670 18.027,15.612 18.019,15.040 18.008 C 14.492 17.997,14.404 18.004,14.280 18.071 " fill="#222222" stroke="none" fill-rule="evenodd"></path></svg>