<svg width="24" height="25" viewBox="0 0 24 25" fill="none" xmlns="http://www.w3.org/2000/svg"><path d="M8.480 2.598 L 4.140 2.620 3.801 2.799 C 3.002 3.221,2.499 3.776,2.143 4.627 L 2.000 4.968 2.000 10.237 L 2.000 15.506 2.104 15.763 C 2.269 16.172,2.505 16.601,2.699 16.849 C 2.931 17.144,3.393 17.525,3.706 17.680 C 4.292 17.969,4.802 18.016,7.900 18.065 C 8.824 18.080,9.620 18.107,9.670 18.125 C 9.734 18.148,9.760 18.190,9.760 18.269 C 9.760 18.389,9.490 19.728,9.246 20.819 L 9.095 21.497 8.707 21.546 C 8.281 21.599,8.124 21.677,8.043 21.874 C 7.985 22.013,8.044 22.184,8.221 22.394 L 8.334 22.528 11.817 22.507 C 13.860 22.494,15.398 22.469,15.536 22.445 C 15.818 22.397,15.918 22.311,15.948 22.088 C 15.998 21.714,15.884 21.620,15.288 21.545 L 14.905 21.497 14.794 20.999 C 14.560 19.945,14.231 18.240,14.252 18.186 C 14.280 18.114,14.699 18.093,17.120 18.039 C 18.971 17.997,19.567 17.957,19.877 17.853 C 20.730 17.566,21.463 16.851,21.827 15.950 C 21.924 15.711,21.929 15.649,21.962 14.520 C 22.005 13.004,22.004 9.004,21.960 6.720 C 21.923 4.763,21.916 4.704,21.659 4.203 C 21.350 3.599,20.879 3.162,20.142 2.797 L 19.663 2.560 16.242 2.568 C 14.360 2.573,10.867 2.586,8.480 2.598 M19.735 3.678 C 20.143 3.911,20.613 4.382,20.838 4.780 L 20.950 4.980 20.978 9.250 L 21.006 13.520 12.000 13.520 L 2.995 13.520 3.023 9.250 L 3.051 4.980 3.153 4.800 C 3.396 4.370,3.791 3.954,4.180 3.717 L 4.340 3.620 8.320 3.598 C 10.509 3.586,13.927 3.573,15.915 3.568 L 19.530 3.560 19.735 3.678 M21.000 14.590 C 20.999 14.801,20.910 15.407,20.854 15.580 C 20.763 15.864,20.557 16.190,20.333 16.404 C 20.091 16.634,19.969 16.717,19.606 16.900 L 19.316 17.045 13.188 17.019 C 9.818 17.004,6.475 16.979,5.760 16.964 L 4.460 16.936 4.200 16.798 C 3.885 16.631,3.424 16.183,3.268 15.891 C 3.145 15.661,3.061 15.303,3.018 14.830 L 2.991 14.520 11.995 14.520 C 20.545 14.520,21.000 14.524,21.000 14.590 M12.843 18.065 L 13.107 18.090 13.490 19.775 C 13.701 20.702,13.858 21.476,13.840 21.495 C 13.801 21.536,10.258 21.511,10.216 21.470 C 10.184 21.437,10.258 21.045,10.626 19.310 L 10.895 18.040 11.737 18.040 C 12.201 18.040,12.699 18.052,12.843 18.065 " fill="#EC0000" stroke="none" fill-rule="evenodd"></path></svg>