<svg width="24" height="24" viewBox="0 0 24 24" fill="none" xmlns="http://www.w3.org/2000/svg"><path d="M4.380 3.101 C 4.248 3.135,3.995 3.233,3.817 3.319 C 3.053 3.689,2.489 4.314,2.181 5.134 C 2.008 5.593,1.995 6.060,2.008 11.080 L 2.020 15.700 2.149 16.080 C 2.444 16.952,2.997 17.597,3.780 17.982 C 4.429 18.302,4.342 18.293,6.852 18.310 C 8.916 18.325,9.082 18.331,9.064 18.393 C 8.935 18.841,8.360 20.921,8.360 20.937 C 8.360 20.950,8.164 20.960,7.925 20.960 L 7.489 20.960 7.345 21.120 C 7.229 21.249,7.200 21.312,7.200 21.442 C 7.200 21.643,7.275 21.793,7.434 21.910 L 7.557 22.000 11.193 22.000 C 13.193 22.000,14.914 21.988,15.017 21.974 C 15.493 21.909,15.638 21.317,15.243 21.051 C 15.126 20.972,15.057 20.960,14.715 20.960 L 14.322 20.960 14.294 20.850 C 14.279 20.790,14.119 20.209,13.938 19.560 C 13.648 18.520,13.617 18.377,13.675 18.355 C 13.712 18.341,14.722 18.321,15.921 18.312 L 18.100 18.294 18.420 18.185 C 19.519 17.808,20.277 17.006,20.578 15.900 C 20.613 15.768,20.654 15.422,20.667 15.130 L 20.692 14.600 11.866 14.600 L 3.040 14.600 3.043 10.690 C 3.044 8.540,3.059 6.515,3.075 6.192 C 3.105 5.604,3.105 5.603,3.276 5.258 C 3.491 4.826,3.786 4.520,4.198 4.304 C 4.475 4.158,4.527 4.145,4.958 4.116 C 5.590 4.074,16.740 4.075,17.552 4.118 C 18.132 4.148,18.226 4.164,18.412 4.255 C 18.897 4.496,19.293 4.931,19.481 5.431 C 19.528 5.557,19.592 5.871,19.622 6.130 C 19.702 6.805,19.805 6.960,20.172 6.960 C 20.548 6.960,20.708 6.656,20.666 6.020 C 20.579 4.708,19.770 3.680,18.478 3.239 C 18.248 3.161,18.098 3.148,17.080 3.118 C 16.453 3.100,13.393 3.075,10.280 3.063 C 5.276 3.043,4.592 3.047,4.380 3.101 M17.120 6.348 C 16.962 6.426,14.001 9.364,13.806 9.636 C 13.648 9.857,13.647 9.982,13.805 10.204 C 13.937 10.390,16.110 12.559,16.769 13.163 C 17.107 13.473,17.177 13.520,17.301 13.520 C 17.599 13.520,17.791 13.345,17.827 13.042 L 17.852 12.833 16.656 11.636 L 15.461 10.440 18.440 10.439 C 20.079 10.439,21.490 10.422,21.574 10.402 C 22.010 10.301,22.139 9.761,21.787 9.511 L 21.660 9.420 18.562 9.408 L 15.465 9.396 16.444 8.408 C 17.785 7.056,17.840 6.994,17.840 6.832 C 17.839 6.463,17.436 6.192,17.120 6.348 M19.560 15.695 C 19.560 15.726,19.486 15.899,19.395 16.080 C 19.123 16.623,18.695 16.982,18.055 17.202 C 17.833 17.278,17.673 17.280,11.340 17.280 C 5.007 17.280,4.847 17.278,4.625 17.202 C 3.985 16.982,3.557 16.623,3.285 16.080 C 3.194 15.899,3.120 15.726,3.120 15.695 C 3.120 15.648,4.366 15.640,11.340 15.640 C 18.314 15.640,19.560 15.648,19.560 15.695 M12.474 18.355 C 12.512 18.380,13.240 20.841,13.240 20.947 C 13.240 20.954,12.384 20.960,11.337 20.960 C 9.544 20.960,9.436 20.956,9.455 20.890 C 9.508 20.702,10.079 18.638,10.118 18.490 L 10.163 18.320 11.292 18.321 C 11.912 18.321,12.444 18.337,12.474 18.355 " fill="#727272" stroke="none" fill-rule="evenodd"></path></svg>