<svg width="24" height="24" viewBox="0 0 24 24" fill="none" xmlns="http://www.w3.org/2000/svg"><path d="M9.293 2.056 C 9.141 2.125,9.044 2.261,9.013 2.453 C 8.970 2.720,9.244 3.000,9.550 3.000 C 9.747 3.000,10.257 3.147,10.521 3.280 C 10.969 3.507,11.345 3.960,11.420 4.364 L 11.447 4.509 11.093 4.554 C 9.338 4.779,7.872 5.640,6.961 6.980 C 6.407 7.796,6.112 8.682,6.036 9.760 C 6.006 10.180,5.998 11.873,6.010 15.000 C 6.031 20.178,6.005 19.743,6.333 20.380 C 6.458 20.624,6.584 20.786,6.859 21.060 C 7.262 21.462,7.515 21.627,8.053 21.837 L 8.420 21.980 11.700 21.991 C 13.725 21.998,15.107 21.987,15.312 21.963 C 15.706 21.915,16.231 21.742,16.550 21.555 C 16.876 21.364,17.436 20.796,17.611 20.480 C 17.690 20.337,17.805 20.076,17.867 19.900 L 17.980 19.580 17.980 14.560 C 17.980 8.995,17.995 9.347,17.716 8.500 C 17.391 7.514,16.696 6.539,15.820 5.842 C 15.047 5.226,14.019 4.772,12.991 4.594 L 12.489 4.507 12.402 4.178 C 12.175 3.321,11.680 2.714,10.900 2.338 C 10.395 2.096,9.539 1.946,9.293 2.056 M13.100 5.634 C 14.904 6.034,16.340 7.341,16.820 9.020 C 16.955 9.490,16.998 10.071,16.999 11.430 L 17.000 12.520 11.995 12.520 L 6.990 12.520 7.011 11.070 C 7.034 9.559,7.056 9.323,7.226 8.760 C 7.740 7.057,9.125 5.890,11.000 5.579 C 11.487 5.498,12.621 5.528,13.100 5.634 M11.529 7.076 C 11.014 7.268,10.695 7.657,10.599 8.210 C 10.543 8.528,10.567 9.759,10.633 9.961 C 10.716 10.216,10.937 10.535,11.134 10.683 C 11.561 11.006,12.198 11.054,12.674 10.800 C 12.967 10.644,13.156 10.439,13.327 10.091 L 13.450 9.843 13.434 8.950 C 13.418 8.069,13.416 8.054,13.306 7.829 C 13.166 7.543,12.903 7.277,12.626 7.141 C 12.326 6.995,11.827 6.965,11.529 7.076 M12.192 8.056 C 12.446 8.187,12.451 8.206,12.433 8.988 C 12.423 9.437,12.399 9.732,12.369 9.787 C 12.342 9.834,12.242 9.903,12.145 9.940 C 11.988 10.000,11.958 10.001,11.855 9.948 C 11.603 9.818,11.589 9.775,11.569 9.110 C 11.547 8.380,11.584 8.193,11.772 8.078 C 11.924 7.986,12.044 7.980,12.192 8.056 M16.999 16.170 C 16.997 19.215,16.983 19.483,16.803 19.847 C 16.555 20.351,16.123 20.721,15.585 20.890 L 15.300 20.980 11.980 20.980 C 8.842 20.980,8.648 20.976,8.440 20.905 C 7.893 20.719,7.427 20.327,7.197 19.859 C 7.017 19.494,7.006 19.292,7.003 16.110 L 7.000 13.520 12.000 13.520 L 17.000 13.520 16.999 16.170 " fill="#222222" stroke="none" fill-rule="evenodd"></path></svg>