<svg width="24" height="24" viewBox="0 0 24 24" fill="none" xmlns="http://www.w3.org/2000/svg"><path d="M5.140 5.036 C 3.860 5.061,3.860 5.061,3.604 5.170 C 3.227 5.331,2.995 5.493,2.709 5.797 C 2.415 6.108,2.250 6.381,2.115 6.780 L 2.020 7.060 2.020 12.020 L 2.020 16.980 2.145 17.304 C 2.302 17.712,2.490 18.007,2.764 18.276 C 2.997 18.506,3.396 18.760,3.680 18.860 C 4.042 18.988,5.105 19.004,12.600 18.992 L 19.980 18.980 20.273 18.873 C 20.839 18.666,21.290 18.314,21.597 17.840 C 21.846 17.455,21.917 17.218,21.964 16.625 C 22.022 15.878,21.989 7.171,21.926 6.900 C 21.901 6.790,21.815 6.565,21.734 6.400 C 21.545 6.010,21.025 5.483,20.640 5.289 C 20.092 5.013,20.647 5.033,13.180 5.022 C 9.462 5.016,5.844 5.023,5.140 5.036 M20.137 6.155 C 20.411 6.301,20.654 6.537,20.820 6.818 L 20.960 7.055 20.960 12.000 L 20.960 16.945 20.820 17.182 C 20.642 17.483,20.387 17.721,20.073 17.877 L 19.827 18.000 12.004 18.000 L 4.180 18.000 3.940 17.886 C 3.636 17.742,3.360 17.486,3.180 17.182 L 3.040 16.945 3.040 12.000 L 3.040 7.055 3.183 6.818 C 3.366 6.512,3.504 6.371,3.788 6.199 L 4.017 6.060 6.058 6.037 C 7.181 6.025,10.764 6.022,14.020 6.032 L 19.940 6.049 20.137 6.155 M6.092 8.038 C 5.677 8.103,5.328 8.362,5.113 8.766 L 5.020 8.940 5.008 11.976 L 4.997 15.012 5.099 15.221 C 5.221 15.472,5.532 15.773,5.791 15.893 C 5.966 15.974,6.041 15.980,6.827 15.980 C 7.623 15.980,7.681 15.975,7.787 15.896 C 7.849 15.850,7.926 15.740,7.957 15.651 C 8.007 15.511,8.007 15.469,7.957 15.339 C 7.847 15.050,7.777 15.027,6.924 15.002 C 6.256 14.983,6.159 14.971,6.084 14.904 C 6.000 14.828,6.000 14.823,6.000 11.995 L 6.000 9.162 6.108 9.091 C 6.198 9.032,6.337 9.017,6.945 9.000 C 7.607 8.982,7.685 8.972,7.787 8.896 C 8.049 8.700,8.051 8.298,7.790 8.113 C 7.669 8.027,7.619 8.021,6.981 8.013 C 6.606 8.009,6.206 8.020,6.092 8.038 M16.371 8.025 C 16.229 8.057,16.049 8.254,16.020 8.407 C 15.986 8.587,16.077 8.810,16.225 8.907 C 16.319 8.969,16.449 8.983,17.060 9.000 C 17.663 9.017,17.802 9.032,17.892 9.091 L 18.000 9.162 18.000 11.995 C 18.000 14.823,18.000 14.828,17.916 14.904 C 17.841 14.971,17.744 14.983,17.076 15.002 C 16.223 15.027,16.153 15.050,16.043 15.339 C 15.993 15.469,15.993 15.511,16.043 15.651 C 16.074 15.740,16.151 15.850,16.213 15.896 C 16.319 15.975,16.377 15.980,17.173 15.980 C 17.959 15.980,18.034 15.974,18.209 15.893 C 18.465 15.775,18.775 15.475,18.898 15.228 L 19.000 15.024 19.000 12.000 L 19.000 8.976 18.898 8.772 C 18.775 8.525,18.462 8.223,18.217 8.114 C 18.061 8.046,17.928 8.033,17.248 8.020 C 16.815 8.012,16.420 8.014,16.371 8.025 " fill="#727272" stroke="none" fill-rule="evenodd"></path></svg>