<svg width="24" height="25" viewBox="0 0 24 25" fill="none" xmlns="http://www.w3.org/2000/svg"><path d="M19.060 2.563 C 18.950 2.581,18.689 2.681,18.480 2.784 C 18.164 2.940,18.042 3.030,17.758 3.316 C 17.245 3.833,17.040 4.291,17.040 4.918 C 17.041 5.722,17.221 6.151,17.796 6.721 C 18.099 7.022,18.247 7.136,18.500 7.261 L 18.820 7.420 19.500 7.420 C 20.110 7.420,20.199 7.411,20.365 7.335 C 21.003 7.040,21.604 6.420,21.847 5.806 C 21.925 5.608,21.936 5.504,21.938 4.977 L 21.940 4.374 21.769 4.028 C 21.643 3.774,21.521 3.603,21.309 3.386 C 20.823 2.888,20.374 2.652,19.740 2.561 C 19.421 2.516,19.339 2.516,19.060 2.563 M3.926 2.600 C 3.542 2.682,3.160 2.916,2.757 3.318 C 2.177 3.897,2.012 4.328,2.053 5.160 C 2.086 5.839,2.266 6.221,2.790 6.727 C 3.120 7.046,3.498 7.296,3.786 7.387 L 4.000 7.455 4.000 7.921 C 4.000 8.177,3.988 8.765,3.974 9.228 L 3.948 10.069 3.752 10.139 C 3.462 10.243,2.996 10.562,2.697 10.861 C 2.258 11.301,1.971 12.046,2.016 12.630 C 2.091 13.588,2.826 14.528,3.752 14.848 C 3.979 14.926,4.097 14.940,4.520 14.937 C 4.856 14.936,5.112 14.912,5.300 14.864 L 5.580 14.794 7.593 16.823 C 8.701 17.939,9.622 18.892,9.640 18.939 C 9.660 18.992,9.651 19.129,9.618 19.283 C 9.588 19.424,9.563 19.756,9.562 20.020 C 9.562 20.426,9.577 20.542,9.658 20.774 C 9.926 21.532,10.476 22.072,11.260 22.346 C 11.538 22.443,11.638 22.457,12.020 22.456 C 12.411 22.454,12.496 22.440,12.786 22.331 C 12.965 22.264,13.218 22.137,13.347 22.049 C 13.812 21.733,14.270 21.142,14.404 20.685 L 14.456 20.510 15.538 20.536 C 16.133 20.551,16.705 20.572,16.809 20.585 L 16.998 20.607 17.249 21.029 C 17.637 21.681,18.115 22.127,18.636 22.323 C 18.816 22.391,18.985 22.412,19.493 22.430 L 20.125 22.452 20.454 22.285 C 21.035 21.991,21.472 21.560,21.740 21.017 C 21.921 20.651,21.973 20.359,21.950 19.840 C 21.936 19.504,21.911 19.368,21.825 19.160 C 21.534 18.454,20.926 17.889,20.220 17.669 C 19.853 17.555,19.177 17.548,18.820 17.655 C 18.038 17.890,17.440 18.450,17.137 19.230 L 17.025 19.520 15.760 19.520 L 14.494 19.520 14.325 19.160 C 14.048 18.575,13.729 18.207,13.217 17.882 C 12.884 17.671,12.564 17.592,12.040 17.590 C 11.467 17.588,11.183 17.658,10.698 17.919 L 10.335 18.115 8.362 16.142 L 6.389 14.169 6.537 13.925 C 6.786 13.514,6.927 13.076,6.950 12.638 C 7.005 11.586,6.493 10.758,5.465 10.239 C 5.292 10.152,5.129 10.080,5.102 10.080 C 5.051 10.080,5.000 9.028,5.000 7.957 L 5.000 7.455 5.219 7.385 C 5.743 7.220,6.473 6.567,6.741 6.025 C 6.899 5.707,6.958 5.399,6.959 4.896 C 6.961 3.974,6.229 3.018,5.260 2.678 C 4.986 2.582,4.221 2.538,3.926 2.600 M11.556 2.601 C 11.110 2.642,10.388 3.051,10.087 3.432 C 9.922 3.641,9.703 4.092,9.598 4.438 C 9.443 4.949,9.533 5.622,9.828 6.155 C 10.005 6.474,10.444 6.939,10.733 7.113 C 11.140 7.358,11.483 7.451,11.980 7.451 C 12.471 7.451,12.789 7.367,13.320 7.100 C 13.473 7.023,13.629 6.960,13.668 6.960 C 13.736 6.960,16.483 9.695,17.175 10.451 L 17.529 10.839 17.328 11.310 C 17.218 11.568,17.108 11.875,17.084 11.992 C 16.973 12.528,17.080 13.256,17.331 13.674 C 17.497 13.952,17.982 14.444,18.279 14.636 C 18.648 14.874,18.903 14.940,19.460 14.940 C 19.859 14.940,19.990 14.924,20.235 14.843 C 20.841 14.645,21.435 14.135,21.697 13.589 C 21.867 13.234,22.000 12.763,22.000 12.517 C 22.000 12.249,21.862 11.750,21.691 11.402 C 21.389 10.788,20.686 10.235,20.063 10.123 C 19.721 10.061,19.141 10.070,18.757 10.143 L 18.426 10.206 16.354 8.133 L 14.281 6.060 14.344 5.840 C 14.380 5.716,14.416 5.385,14.428 5.080 C 14.446 4.596,14.440 4.513,14.361 4.280 C 14.094 3.490,13.326 2.769,12.620 2.645 C 12.301 2.589,11.880 2.572,11.556 2.601 M4.682 3.560 C 5.173 3.654,5.593 3.954,5.789 4.354 C 5.890 4.560,5.900 4.619,5.899 5.020 C 5.897 5.545,5.839 5.688,5.485 6.040 C 5.174 6.349,4.964 6.440,4.562 6.440 C 4.006 6.440,3.860 6.388,3.557 6.085 C 3.182 5.707,3.080 5.474,3.080 4.989 C 3.080 4.650,3.092 4.589,3.201 4.370 C 3.408 3.957,3.769 3.663,4.190 3.563 C 4.397 3.515,4.439 3.514,4.682 3.560 M19.682 3.560 C 20.173 3.654,20.593 3.954,20.789 4.354 C 20.890 4.560,20.900 4.619,20.899 5.020 C 20.897 5.545,20.839 5.688,20.485 6.040 C 20.174 6.349,19.964 6.440,19.562 6.440 C 19.006 6.440,18.860 6.388,18.557 6.085 C 18.182 5.707,18.080 5.474,18.080 4.989 C 18.080 4.650,18.092 4.589,18.201 4.370 C 18.408 3.957,18.769 3.663,19.190 3.563 C 19.397 3.515,19.439 3.514,19.682 3.560 M12.686 3.730 C 12.951 3.885,13.308 4.286,13.363 4.491 C 13.432 4.743,13.392 5.462,13.300 5.656 C 13.195 5.876,12.855 6.207,12.620 6.318 C 12.348 6.448,11.816 6.478,11.524 6.381 C 11.240 6.287,10.969 6.060,10.764 5.747 L 10.592 5.482 10.606 4.971 C 10.619 4.500,10.628 4.446,10.729 4.274 C 10.859 4.054,11.156 3.780,11.380 3.673 C 11.516 3.608,11.613 3.599,12.022 3.610 C 12.459 3.622,12.521 3.633,12.686 3.730 M11.346 10.124 C 11.097 10.183,10.593 10.465,10.349 10.682 C 10.082 10.920,9.811 11.319,9.665 11.687 C 9.570 11.928,9.560 12.004,9.561 12.487 C 9.562 12.942,9.575 13.059,9.655 13.285 C 9.895 13.963,10.560 14.624,11.233 14.851 C 11.522 14.949,12.220 14.987,12.531 14.922 C 12.949 14.835,13.303 14.624,13.704 14.224 C 14.000 13.928,14.099 13.797,14.235 13.520 C 14.448 13.084,14.509 12.684,14.441 12.174 C 14.361 11.570,14.168 11.204,13.692 10.759 C 13.310 10.400,12.880 10.163,12.531 10.118 C 12.188 10.073,11.547 10.077,11.346 10.124 M5.104 11.179 C 5.286 11.255,5.662 11.615,5.794 11.839 C 5.893 12.008,5.900 12.053,5.900 12.500 C 5.900 12.947,5.893 12.992,5.794 13.160 C 5.644 13.415,5.213 13.816,5.020 13.881 C 4.841 13.941,4.260 13.956,4.029 13.908 C 3.844 13.869,3.369 13.438,3.207 13.163 C 3.107 12.992,3.100 12.949,3.100 12.500 C 3.100 12.105,3.113 11.995,3.176 11.881 C 3.299 11.654,3.686 11.276,3.900 11.172 C 4.086 11.082,4.130 11.077,4.533 11.098 C 4.772 11.111,5.029 11.148,5.104 11.179 M12.624 11.197 C 12.852 11.298,13.112 11.539,13.288 11.813 L 13.412 12.006 13.388 12.501 C 13.360 13.110,13.303 13.253,12.967 13.571 C 12.632 13.889,12.512 13.934,12.000 13.934 C 11.487 13.934,11.367 13.889,11.034 13.571 C 10.684 13.237,10.639 13.129,10.612 12.545 C 10.592 12.127,10.599 12.038,10.660 11.919 C 10.854 11.541,11.139 11.266,11.469 11.138 C 11.698 11.050,12.368 11.084,12.624 11.197 M20.104 11.179 C 20.286 11.255,20.662 11.615,20.794 11.839 C 20.893 12.008,20.900 12.053,20.900 12.500 C 20.900 12.947,20.893 12.992,20.794 13.160 C 20.644 13.415,20.213 13.816,20.020 13.881 C 19.841 13.941,19.260 13.956,19.029 13.908 C 18.844 13.869,18.369 13.438,18.207 13.163 C 18.107 12.992,18.100 12.949,18.100 12.500 C 18.100 12.105,18.113 11.995,18.176 11.881 C 18.299 11.654,18.686 11.276,18.900 11.172 C 19.086 11.082,19.130 11.077,19.533 11.098 C 19.772 11.111,20.029 11.148,20.104 11.179 M3.935 17.598 C 3.582 17.653,3.182 17.896,2.779 18.299 C 2.244 18.835,2.040 19.282,2.040 19.918 C 2.041 20.722,2.221 21.151,2.796 21.721 C 3.101 22.024,3.246 22.135,3.500 22.260 C 3.817 22.417,3.825 22.418,4.363 22.433 C 4.680 22.442,4.997 22.430,5.126 22.403 C 5.604 22.304,6.303 21.763,6.613 21.252 C 6.861 20.843,6.927 20.624,6.950 20.140 C 6.973 19.634,6.916 19.338,6.715 18.926 C 6.482 18.448,5.865 17.908,5.300 17.688 C 5.070 17.598,4.272 17.546,3.935 17.598 M4.682 18.560 C 5.173 18.654,5.593 18.954,5.789 19.354 C 5.890 19.560,5.900 19.619,5.899 20.020 C 5.897 20.545,5.839 20.688,5.485 21.040 C 5.174 21.349,4.964 21.440,4.562 21.440 C 4.006 21.440,3.860 21.388,3.557 21.085 C 3.182 20.707,3.080 20.474,3.080 19.989 C 3.080 19.650,3.092 19.589,3.201 19.370 C 3.408 18.957,3.769 18.663,4.190 18.563 C 4.397 18.515,4.439 18.514,4.682 18.560 M19.682 18.560 C 20.173 18.654,20.593 18.954,20.789 19.354 C 20.890 19.560,20.900 19.619,20.899 20.020 C 20.897 20.545,20.839 20.688,20.485 21.040 C 20.174 21.349,19.964 21.440,19.562 21.440 C 19.006 21.440,18.860 21.388,18.557 21.085 C 18.182 20.707,18.080 20.474,18.080 19.989 C 18.080 19.650,18.092 19.589,18.201 19.370 C 18.408 18.957,18.769 18.663,19.190 18.563 C 19.397 18.515,19.439 18.514,19.682 18.560 M12.682 18.727 C 12.780 18.785,12.962 18.939,13.087 19.069 C 13.370 19.366,13.414 19.512,13.392 20.079 C 13.373 20.578,13.304 20.744,12.986 21.053 C 12.682 21.350,12.420 21.456,12.000 21.455 C 11.735 21.454,11.614 21.434,11.453 21.363 C 11.184 21.246,10.793 20.841,10.653 20.537 C 10.551 20.312,10.550 20.304,10.594 19.869 C 10.646 19.360,10.730 19.176,11.023 18.931 C 11.392 18.622,11.482 18.593,12.022 18.609 C 12.455 18.622,12.522 18.634,12.682 18.727 " fill="#EC0000" stroke="none" fill-rule="evenodd"></path></svg>