<svg width="24" height="25" viewBox="0 0 24 25" fill="none" xmlns="http://www.w3.org/2000/svg"><path d="M13.334 2.640 C 12.605 2.798,11.835 3.127,11.241 3.535 C 10.943 3.739,10.459 4.193,10.119 4.587 L 9.940 4.795 9.480 4.756 C 8.930 4.710,8.484 4.738,8.087 4.843 C 7.393 5.028,6.952 5.293,6.412 5.852 C 6.123 6.150,6.015 6.297,5.886 6.564 C 5.695 6.959,5.561 7.480,5.560 7.827 L 5.560 8.074 5.330 8.139 C 3.270 8.718,1.887 10.529,2.014 12.481 C 2.081 13.501,2.491 14.380,3.254 15.140 C 4.084 15.966,5.034 16.397,6.219 16.485 L 6.778 16.527 6.907 16.387 C 7.066 16.212,7.107 16.022,7.026 15.829 C 6.944 15.633,6.773 15.554,6.342 15.514 C 4.955 15.386,3.858 14.660,3.300 13.502 C 3.072 13.030,3.027 12.776,3.048 12.093 C 3.064 11.592,3.077 11.511,3.188 11.231 C 3.524 10.385,4.160 9.716,5.009 9.319 C 5.151 9.253,5.504 9.139,5.793 9.066 C 6.084 8.993,6.354 8.902,6.399 8.861 C 6.511 8.760,6.559 8.555,6.560 8.180 C 6.561 7.685,6.625 7.374,6.798 7.020 C 7.066 6.472,7.534 6.078,8.180 5.856 C 8.463 5.759,8.558 5.746,9.000 5.747 C 9.379 5.747,9.589 5.769,9.867 5.836 C 10.201 5.917,10.244 5.920,10.350 5.865 C 10.485 5.795,10.667 5.596,10.919 5.242 C 11.266 4.755,11.863 4.268,12.469 3.978 C 13.117 3.668,13.681 3.545,14.440 3.547 C 15.656 3.552,16.725 3.992,17.544 4.824 C 18.046 5.335,18.315 5.793,18.489 6.436 C 18.552 6.671,18.572 6.871,18.575 7.320 C 18.580 7.843,18.568 7.944,18.463 8.344 L 18.345 8.787 18.423 8.920 C 18.475 9.010,18.608 9.113,18.840 9.243 C 19.027 9.348,19.281 9.490,19.404 9.560 C 20.063 9.932,20.591 10.591,20.854 11.367 C 21.099 12.090,20.980 13.057,20.560 13.764 C 19.951 14.790,18.976 15.368,17.608 15.516 C 17.107 15.570,16.991 15.623,16.903 15.844 C 16.759 16.205,17.008 16.520,17.439 16.520 C 18.309 16.519,19.278 16.231,19.986 15.761 C 21.199 14.957,21.905 13.777,21.986 12.421 C 22.022 11.800,21.862 11.042,21.569 10.460 C 21.233 9.790,20.597 9.103,19.937 8.695 C 19.553 8.457,19.540 8.445,19.550 8.315 C 19.556 8.241,19.572 7.863,19.585 7.475 C 19.608 6.799,19.604 6.753,19.500 6.335 C 19.272 5.426,18.847 4.689,18.174 4.039 C 17.464 3.352,16.697 2.935,15.664 2.674 C 15.170 2.549,13.843 2.530,13.334 2.640 M11.738 10.112 C 11.460 10.287,11.481 9.921,11.475 14.769 C 11.472 17.173,11.459 19.458,11.445 19.846 L 11.420 20.551 10.741 19.733 C 10.368 19.283,9.977 18.835,9.873 18.737 C 9.710 18.584,9.660 18.560,9.512 18.560 C 9.272 18.560,9.096 18.677,9.037 18.874 C 9.011 18.962,9.001 19.079,9.015 19.135 C 9.043 19.247,9.747 20.125,10.862 21.440 C 11.786 22.528,11.755 22.500,12.008 22.500 C 12.204 22.500,12.217 22.493,12.429 22.260 C 12.974 21.664,14.765 19.484,14.922 19.228 C 15.017 19.071,15.019 18.993,14.933 18.811 C 14.850 18.636,14.593 18.507,14.404 18.545 C 14.252 18.576,14.024 18.815,13.178 19.827 C 12.838 20.234,12.558 20.561,12.556 20.553 C 12.554 20.546,12.539 18.254,12.523 15.460 C 12.503 11.774,12.482 10.357,12.449 10.296 C 12.332 10.079,11.948 9.980,11.738 10.112 " fill="#EC0000" stroke="none" fill-rule="evenodd"></path></svg>