<svg width="24" height="25" viewBox="0 0 24 25" fill="none" xmlns="http://www.w3.org/2000/svg"><path d="M7.338 2.598 C 5.043 2.623,5.112 2.613,5.054 2.910 C 5.014 3.115,5.012 21.853,5.052 22.087 C 5.099 22.361,5.193 22.408,5.780 22.447 C 6.044 22.465,9.047 22.491,12.453 22.505 L 18.646 22.530 18.823 22.357 L 19.000 22.183 19.000 15.002 L 19.000 7.820 16.370 5.190 L 13.740 2.560 11.560 2.568 C 10.361 2.573,8.461 2.586,7.338 2.598 M13.001 5.250 C 13.002 7.039,13.044 8.077,13.123 8.251 C 13.148 8.306,13.216 8.373,13.274 8.400 C 13.421 8.468,14.718 8.515,16.510 8.518 L 18.000 8.520 18.000 15.020 L 18.000 21.520 12.000 21.520 L 6.000 21.520 6.000 12.520 L 6.000 3.520 9.500 3.520 L 13.000 3.520 13.001 5.250 M14.896 5.142 C 15.769 5.972,17.080 7.337,17.080 7.416 C 17.080 7.491,16.555 7.520,15.194 7.520 L 14.040 7.520 14.040 6.650 C 14.040 6.171,14.028 5.470,14.014 5.090 C 13.990 4.472,13.994 4.400,14.052 4.400 C 14.087 4.400,14.467 4.734,14.896 5.142 " fill="#EC0000" stroke="none" fill-rule="evenodd"></path></svg>