<svg width="24" height="25" viewBox="0 0 24 25" fill="none" xmlns="http://www.w3.org/2000/svg"><path d="M8.160 2.563 C 5.770 2.591,5.204 2.621,5.103 2.721 C 5.054 2.770,5.015 19.985,5.061 21.421 C 5.082 22.056,5.102 22.282,5.146 22.341 C 5.197 22.412,5.270 22.423,5.832 22.446 C 6.177 22.460,9.201 22.486,12.552 22.503 L 18.644 22.533 18.822 22.358 L 19.000 22.183 19.000 15.002 L 19.000 7.820 16.350 5.170 L 13.700 2.520 12.180 2.527 C 11.344 2.531,9.535 2.547,8.160 2.563 M13.001 5.250 C 13.002 7.039,13.044 8.077,13.123 8.251 C 13.148 8.306,13.216 8.373,13.274 8.400 C 13.421 8.468,14.718 8.515,16.510 8.518 L 18.000 8.520 18.000 15.020 L 18.000 21.520 12.000 21.520 L 6.000 21.520 6.000 12.520 L 6.000 3.520 9.500 3.520 L 13.000 3.520 13.001 5.250 M14.896 5.142 C 15.769 5.972,17.080 7.337,17.080 7.416 C 17.080 7.491,16.555 7.520,15.194 7.520 L 14.040 7.520 14.040 6.650 C 14.040 6.171,14.028 5.470,14.014 5.090 C 13.990 4.472,13.994 4.400,14.052 4.400 C 14.087 4.400,14.467 4.734,14.896 5.142 M11.642 11.331 C 11.464 11.421,11.437 11.624,11.412 13.064 L 11.388 14.387 10.224 14.416 C 9.584 14.432,8.908 14.459,8.722 14.477 C 8.427 14.505,8.374 14.523,8.293 14.617 C 8.162 14.769,8.142 14.890,8.222 15.058 C 8.361 15.352,8.629 15.397,10.250 15.399 L 11.400 15.400 11.401 16.550 C 11.402 17.183,11.419 17.826,11.439 17.980 C 11.471 18.235,11.489 18.273,11.636 18.410 C 11.823 18.585,11.880 18.592,12.122 18.470 C 12.417 18.321,12.417 18.322,12.433 16.770 L 12.448 15.400 13.434 15.397 C 13.976 15.395,14.631 15.381,14.889 15.365 C 15.409 15.334,15.509 15.285,15.627 15.007 C 15.678 14.888,15.676 14.858,15.612 14.727 C 15.572 14.646,15.487 14.555,15.423 14.524 C 15.292 14.462,14.220 14.405,13.115 14.402 L 12.450 14.400 12.430 13.070 C 12.408 11.566,12.393 11.466,12.160 11.350 C 11.997 11.268,11.781 11.260,11.642 11.331 " fill="#EC0000" stroke="none" fill-rule="evenodd"></path></svg>