<svg width="24" height="25" viewBox="0 0 24 25" fill="none" xmlns="http://www.w3.org/2000/svg"><path d="M7.140 2.561 C 5.820 2.576,4.619 2.602,4.471 2.619 C 4.017 2.670,4.065 2.355,4.028 5.527 C 3.987 8.996,4.024 21.492,4.076 21.975 C 4.097 22.170,4.133 22.349,4.156 22.372 C 4.242 22.458,4.686 22.474,7.640 22.501 C 10.686 22.529,11.467 22.508,11.711 22.391 C 11.770 22.363,11.861 22.263,11.912 22.170 C 11.995 22.020,12.001 21.983,11.960 21.860 C 11.934 21.782,11.877 21.700,11.832 21.676 C 11.700 21.605,10.591 21.568,7.710 21.537 L 5.000 21.509 5.000 12.514 L 5.000 3.520 8.500 3.520 L 12.000 3.520 12.001 5.250 C 12.002 7.039,12.044 8.077,12.123 8.251 C 12.148 8.306,12.216 8.373,12.274 8.400 C 12.421 8.468,13.718 8.515,15.510 8.518 L 17.000 8.520 17.000 9.354 C 17.000 10.274,16.989 10.234,17.273 10.378 C 17.478 10.482,17.708 10.470,17.830 10.348 C 17.922 10.256,17.934 10.205,17.963 9.774 C 17.981 9.513,17.996 8.976,17.997 8.580 L 17.999 7.860 15.356 5.190 L 12.713 2.520 11.126 2.527 C 10.254 2.531,8.460 2.546,7.140 2.561 M13.896 5.142 C 14.769 5.972,16.080 7.337,16.080 7.416 C 16.080 7.491,15.555 7.520,14.194 7.520 L 13.040 7.520 13.040 6.650 C 13.040 6.171,13.028 5.470,13.014 5.090 C 12.990 4.472,12.994 4.400,13.052 4.400 C 13.087 4.400,13.467 4.734,13.896 5.142 M15.794 12.603 C 14.930 12.695,14.083 13.143,13.318 13.914 C 12.684 14.552,12.369 15.117,12.138 16.025 C 12.013 16.515,11.980 16.982,12.037 17.422 C 12.181 18.532,12.602 19.404,13.360 20.160 C 14.348 21.149,15.671 21.609,17.031 21.439 C 17.993 21.318,18.925 20.864,19.615 20.181 C 20.175 19.626,20.494 19.114,20.796 18.290 L 20.960 17.840 20.960 17.015 C 20.960 16.196,20.959 16.187,20.836 15.825 C 20.573 15.054,20.260 14.518,19.771 13.998 C 18.714 12.874,17.442 12.428,15.794 12.603 M17.438 13.680 C 17.603 13.727,17.891 13.845,18.078 13.943 C 18.773 14.307,19.246 14.796,19.630 15.553 L 19.860 16.006 19.873 16.967 L 19.885 17.927 19.684 18.339 C 19.229 19.271,18.617 19.869,17.710 20.268 L 17.320 20.440 16.504 20.440 L 15.688 20.440 15.341 20.295 C 14.441 19.918,13.792 19.295,13.322 18.357 L 13.120 17.953 13.120 17.019 C 13.120 16.092,13.121 16.084,13.229 15.833 C 13.564 15.053,14.039 14.479,14.693 14.062 C 15.087 13.811,15.447 13.679,16.000 13.583 C 16.257 13.538,17.149 13.598,17.438 13.680 M17.758 15.469 C 17.660 15.578,17.294 16.066,16.945 16.553 C 16.595 17.040,16.247 17.511,16.170 17.600 C 16.003 17.796,16.039 17.818,15.537 17.215 C 14.990 16.558,14.793 16.475,14.522 16.784 C 14.376 16.950,14.342 17.067,14.398 17.213 C 14.519 17.533,15.437 18.840,15.720 19.095 C 15.952 19.304,16.117 19.298,16.334 19.070 C 16.718 18.667,18.242 16.485,18.540 15.910 C 18.652 15.695,18.656 15.673,18.600 15.574 C 18.507 15.409,18.344 15.311,18.131 15.290 C 17.939 15.272,17.932 15.275,17.758 15.469 " fill="#EC0000" stroke="none" fill-rule="evenodd"></path></svg>