<svg width="24" height="25" viewBox="0 0 24 25" fill="none" xmlns="http://www.w3.org/2000/svg"><path d="M7.140 2.561 C 5.820 2.576,4.619 2.602,4.471 2.619 C 4.017 2.670,4.065 2.355,4.028 5.527 C 3.987 8.996,4.024 21.492,4.076 21.975 C 4.097 22.170,4.133 22.349,4.156 22.372 C 4.242 22.458,4.686 22.474,7.640 22.501 C 10.686 22.529,11.467 22.508,11.711 22.391 C 11.770 22.363,11.861 22.263,11.912 22.170 C 11.995 22.020,12.001 21.983,11.960 21.860 C 11.934 21.782,11.877 21.700,11.832 21.676 C 11.700 21.605,10.591 21.568,7.710 21.537 L 5.000 21.509 5.000 12.514 L 5.000 3.520 8.500 3.520 L 12.000 3.520 12.001 5.250 C 12.002 7.039,12.044 8.077,12.123 8.251 C 12.148 8.306,12.216 8.373,12.274 8.400 C 12.421 8.468,13.718 8.515,15.510 8.518 L 17.000 8.520 17.000 9.354 C 17.000 10.274,16.989 10.234,17.273 10.378 C 17.478 10.482,17.708 10.470,17.830 10.348 C 17.922 10.256,17.934 10.205,17.963 9.774 C 17.981 9.513,17.996 8.976,17.997 8.580 L 17.999 7.860 15.356 5.190 L 12.713 2.520 11.126 2.527 C 10.254 2.531,8.460 2.546,7.140 2.561 M13.896 5.142 C 14.769 5.972,16.080 7.337,16.080 7.416 C 16.080 7.491,15.555 7.520,14.194 7.520 L 13.040 7.520 13.040 6.650 C 13.040 6.171,13.028 5.470,13.014 5.090 C 12.990 4.472,12.994 4.400,13.052 4.400 C 13.087 4.400,13.467 4.734,13.896 5.142 M12.380 11.559 C 12.062 11.597,11.595 11.784,11.103 12.072 C 10.462 12.446,9.764 13.263,9.481 13.971 C 9.257 14.530,9.225 14.718,9.226 15.480 C 9.226 16.171,9.228 16.185,9.357 16.540 C 9.666 17.384,9.877 17.728,10.422 18.266 C 10.954 18.791,11.482 19.082,12.268 19.284 C 12.548 19.356,12.734 19.375,13.180 19.376 C 13.741 19.378,13.969 19.347,14.492 19.195 L 14.764 19.115 16.109 20.441 C 17.425 21.737,17.948 22.206,18.237 22.348 C 18.439 22.447,19.020 22.468,19.264 22.385 C 19.854 22.184,20.280 21.526,20.230 20.895 C 20.190 20.402,20.045 20.220,18.152 18.299 L 16.890 17.018 16.984 16.599 C 17.263 15.362,17.176 14.524,16.666 13.543 C 16.309 12.855,15.651 12.246,14.826 11.839 C 14.603 11.729,14.330 11.622,14.219 11.602 C 13.927 11.549,12.706 11.520,12.380 11.559 M13.855 12.562 C 14.319 12.631,14.924 12.993,15.345 13.454 C 15.796 13.948,16.011 14.409,16.078 15.023 C 16.236 16.468,15.540 17.646,14.185 18.229 C 13.964 18.324,13.880 18.336,13.320 18.351 C 12.596 18.371,12.393 18.337,11.940 18.120 C 11.591 17.953,11.268 17.692,10.910 17.288 C 10.633 16.975,10.506 16.757,10.372 16.360 C 10.273 16.069,10.270 16.038,10.293 15.331 C 10.319 14.541,10.342 14.445,10.618 13.972 C 10.981 13.351,11.644 12.810,12.300 12.598 C 12.640 12.488,13.261 12.474,13.855 12.562 M17.682 19.227 C 18.986 20.551,19.200 20.812,19.200 21.071 C 19.200 21.244,19.028 21.424,18.826 21.462 C 18.705 21.484,18.656 21.471,18.547 21.388 C 18.357 21.243,16.252 19.169,15.956 18.836 L 15.707 18.555 16.021 18.239 L 16.334 17.924 16.677 18.239 C 16.866 18.413,17.318 18.857,17.682 19.227 " fill="#EC0000" stroke="none" fill-rule="evenodd"></path></svg>