<svg width="24" height="25" viewBox="0 0 24 25" fill="none" xmlns="http://www.w3.org/2000/svg"><path d="M7.140 2.561 C 5.820 2.576,4.619 2.602,4.471 2.619 C 4.017 2.670,4.065 2.363,4.027 5.467 C 4.010 6.959,4.003 11.347,4.012 15.218 L 4.030 22.255 4.118 22.327 C 4.167 22.366,4.272 22.416,4.353 22.439 C 4.440 22.463,5.538 22.489,7.060 22.505 L 9.620 22.530 9.753 22.390 C 9.907 22.228,10.005 21.980,9.962 21.863 C 9.945 21.819,9.887 21.749,9.832 21.708 C 9.691 21.603,9.091 21.568,6.850 21.535 L 5.000 21.507 5.000 12.513 L 5.000 3.520 8.495 3.520 L 11.990 3.520 12.010 5.770 C 12.034 8.370,12.031 8.344,12.321 8.431 C 12.456 8.471,13.048 8.490,14.745 8.508 L 16.990 8.532 17.009 8.798 C 17.031 9.103,17.095 9.260,17.245 9.370 C 17.373 9.465,17.606 9.471,17.740 9.384 C 17.934 9.256,17.975 9.108,17.993 8.468 L 18.009 7.875 16.975 6.828 C 16.407 6.251,15.212 5.046,14.321 4.150 L 12.700 2.520 11.120 2.527 C 10.251 2.531,8.460 2.546,7.140 2.561 M15.124 6.370 C 15.650 6.915,16.080 7.384,16.080 7.414 C 16.080 7.492,15.572 7.520,14.174 7.520 L 13.000 7.520 13.000 5.871 L 13.000 4.221 13.584 4.801 C 13.905 5.119,14.598 5.826,15.124 6.370 M17.480 10.587 C 17.425 10.598,17.245 10.708,17.080 10.832 C 16.775 11.061,10.439 17.339,10.155 17.694 L 10.000 17.887 10.001 18.774 C 10.002 19.912,10.032 20.130,10.211 20.309 C 10.390 20.489,10.608 20.518,11.762 20.519 L 12.664 20.520 15.865 17.310 C 17.625 15.545,19.233 13.911,19.438 13.680 C 19.883 13.178,19.974 13.000,19.976 12.636 C 19.977 12.213,19.814 11.925,19.264 11.380 C 18.790 10.911,18.512 10.702,18.282 10.642 C 18.101 10.594,17.610 10.561,17.480 10.587 M18.187 11.734 C 18.412 11.899,18.679 12.185,18.878 12.473 C 18.950 12.578,18.961 12.625,18.930 12.693 C 18.863 12.840,18.331 13.395,15.270 16.510 L 12.313 19.520 11.656 19.520 L 11.000 19.520 11.000 18.844 L 11.000 18.169 14.170 15.018 C 15.913 13.285,17.427 11.798,17.534 11.713 C 17.788 11.512,17.891 11.515,18.187 11.734 " fill="#EC0000" stroke="none" fill-rule="evenodd"></path></svg>