<svg width="24" height="24" viewBox="0 0 24 24" fill="none" xmlns="http://www.w3.org/2000/svg"><path d="M4.500 2.039 C 4.368 2.054,4.229 2.080,4.190 2.097 C 4.017 2.175,4.020 1.972,4.020 12.062 C 4.020 21.245,4.023 21.668,4.092 21.774 C 4.132 21.834,4.213 21.905,4.272 21.932 C 4.354 21.968,5.262 21.980,8.000 21.980 C 12.025 21.980,11.794 21.996,11.934 21.708 C 12.024 21.525,11.999 21.329,11.866 21.175 C 11.787 21.083,11.732 21.065,11.438 21.037 C 11.252 21.020,9.728 21.004,8.050 21.003 L 5.000 21.000 5.000 12.000 L 5.000 3.000 8.497 3.000 L 11.993 3.000 12.007 5.317 C 12.020 7.594,12.021 7.636,12.104 7.747 C 12.280 7.985,12.213 7.979,14.707 7.992 L 16.994 8.004 17.007 8.839 C 17.019 9.615,17.026 9.682,17.104 9.787 C 17.151 9.849,17.256 9.926,17.339 9.957 C 17.469 10.007,17.511 10.007,17.651 9.957 C 17.740 9.926,17.850 9.849,17.896 9.787 C 17.976 9.680,17.981 9.619,17.992 8.486 L 18.003 7.297 15.372 4.675 L 12.740 2.053 12.304 2.027 C 11.743 1.992,4.817 2.004,4.500 2.039 M16.200 6.970 C 16.200 6.986,15.489 7.000,14.620 7.000 L 13.040 7.000 13.040 6.550 C 13.040 6.303,13.029 5.569,13.015 4.920 L 12.991 3.740 14.595 5.340 C 15.478 6.220,16.200 6.953,16.200 6.970 M16.038 12.041 C 14.189 12.209,12.607 13.585,12.135 15.433 C 11.615 17.469,12.645 19.626,14.585 20.561 C 15.995 21.241,17.639 21.120,19.000 20.235 C 19.321 20.027,20.007 19.343,20.220 19.020 C 20.750 18.217,20.980 17.445,20.977 16.480 C 20.975 15.979,20.960 15.840,20.863 15.460 C 20.649 14.619,20.319 14.010,19.761 13.425 C 19.084 12.715,18.350 12.302,17.452 12.125 C 16.966 12.029,16.484 12.000,16.038 12.041 M17.260 13.103 C 17.548 13.164,18.126 13.384,18.279 13.491 C 18.379 13.561,18.539 13.361,16.336 15.920 C 14.395 18.174,13.905 18.732,13.856 18.748 C 13.799 18.767,13.525 18.346,13.344 17.960 C 12.663 16.512,13.075 14.772,14.335 13.775 C 14.903 13.326,15.470 13.099,16.160 13.046 C 16.592 13.012,16.907 13.029,17.260 13.103 M19.471 14.680 C 19.830 15.277,19.975 15.813,19.971 16.520 C 19.968 17.120,19.884 17.486,19.626 18.020 C 19.186 18.932,18.365 19.615,17.385 19.882 C 17.105 19.958,16.993 19.966,16.385 19.951 C 15.755 19.936,15.676 19.925,15.400 19.822 C 15.000 19.673,14.721 19.529,14.694 19.460 C 14.669 19.394,14.687 19.372,17.255 16.392 L 19.140 14.204 19.227 14.312 C 19.275 14.371,19.385 14.537,19.471 14.680 " fill="#727272" stroke="none" fill-rule="evenodd"></path></svg>