<svg width="24" height="25" viewBox="0 0 24 25" fill="none" xmlns="http://www.w3.org/2000/svg"><path d="M3.652 2.550 C 3.307 2.562,3.276 2.570,3.168 2.678 C 3.067 2.779,3.049 2.834,3.026 3.103 C 3.012 3.273,3.000 7.645,3.000 12.818 L 3.000 22.224 3.152 22.372 L 3.303 22.520 7.008 22.520 L 10.712 22.520 10.834 22.381 C 11.063 22.120,11.026 21.761,10.753 21.613 C 10.628 21.544,10.419 21.539,7.310 21.528 L 4.000 21.515 4.000 12.518 L 4.000 3.520 7.496 3.520 L 10.992 3.520 11.007 5.830 C 11.020 7.932,11.028 8.152,11.091 8.269 C 11.129 8.340,11.201 8.421,11.250 8.449 C 11.333 8.496,12.934 8.537,15.430 8.556 L 16.000 8.560 16.000 9.392 L 16.000 10.224 16.141 10.361 C 16.266 10.482,16.306 10.497,16.500 10.497 C 16.694 10.497,16.734 10.482,16.859 10.361 L 17.000 10.224 17.000 9.070 L 17.000 7.915 16.405 7.288 C 16.077 6.942,14.885 5.740,13.754 4.617 L 11.699 2.573 11.083 2.547 C 10.485 2.521,4.391 2.523,3.652 2.550 M15.200 7.513 C 15.200 7.548,14.820 7.554,13.630 7.534 C 12.767 7.520,12.056 7.506,12.052 7.503 C 12.048 7.500,12.032 6.769,12.018 5.879 L 11.992 4.260 13.596 5.863 C 14.478 6.745,15.200 7.487,15.200 7.513 M18.215 11.636 C 18.092 11.711,18.000 11.892,18.000 12.056 C 18.000 12.204,18.158 12.406,18.706 12.964 L 19.242 13.508 15.785 13.529 C 12.486 13.549,12.324 13.553,12.226 13.625 C 11.971 13.811,11.946 14.130,12.166 14.381 L 12.288 14.520 15.794 14.520 L 19.299 14.520 18.756 15.070 C 18.074 15.761,18.000 15.854,18.000 16.013 C 18.000 16.178,18.125 16.380,18.276 16.458 C 18.473 16.560,18.613 16.536,18.826 16.365 C 19.112 16.136,20.815 14.403,20.915 14.240 C 21.066 13.991,21.040 13.929,20.586 13.432 C 20.051 12.849,18.918 11.742,18.750 11.640 C 18.586 11.540,18.376 11.538,18.215 11.636 M13.970 15.875 C 13.480 16.315,12.179 17.646,12.082 17.807 C 11.978 17.976,11.979 18.065,12.085 18.240 C 12.185 18.403,13.888 20.136,14.174 20.365 C 14.387 20.536,14.527 20.560,14.724 20.458 C 14.875 20.380,15.000 20.178,15.000 20.013 C 15.000 19.854,14.926 19.761,14.244 19.070 L 13.701 18.520 17.206 18.520 L 20.712 18.520 20.834 18.381 C 20.992 18.201,21.028 18.012,20.941 17.827 C 20.805 17.542,20.986 17.556,17.176 17.530 L 13.758 17.507 14.294 16.963 C 15.011 16.235,15.071 16.128,14.943 15.821 C 14.875 15.658,14.702 15.560,14.482 15.560 C 14.335 15.560,14.285 15.591,13.970 15.875 " fill="#EC0000" stroke="none" fill-rule="evenodd"></path></svg>