<svg width="24" height="25" viewBox="0 0 24 25" fill="none" xmlns="http://www.w3.org/2000/svg"><path d="M2.832 2.550 C 2.288 2.562,2.283 2.563,2.168 2.678 C 2.067 2.779,2.049 2.833,2.026 3.103 C 2.012 3.273,2.000 7.645,2.000 12.818 L 2.000 22.224 2.152 22.372 L 2.303 22.520 6.008 22.520 L 9.712 22.520 9.834 22.381 C 10.063 22.120,10.026 21.761,9.753 21.613 C 9.628 21.544,9.419 21.539,6.310 21.528 L 3.000 21.515 3.000 12.518 L 3.000 3.520 6.496 3.520 L 9.992 3.520 10.007 5.830 C 10.020 7.932,10.028 8.152,10.091 8.269 C 10.129 8.340,10.201 8.421,10.250 8.449 C 10.320 8.488,10.869 8.503,12.670 8.512 L 15.000 8.524 15.000 9.374 L 15.000 10.224 15.141 10.361 C 15.266 10.482,15.306 10.497,15.500 10.497 C 15.694 10.497,15.734 10.482,15.859 10.361 L 16.000 10.224 16.000 9.039 L 16.000 7.854 13.350 5.214 L 10.700 2.573 9.940 2.547 C 9.216 2.521,3.988 2.524,2.832 2.550 M12.660 5.920 L 14.260 7.520 12.650 7.520 L 11.040 7.520 11.040 5.920 C 11.040 5.040,11.045 4.320,11.050 4.320 C 11.056 4.320,11.780 5.040,12.660 5.920 M10.740 11.555 C 10.041 11.579,10.014 11.583,9.808 11.697 C 9.530 11.852,9.302 12.105,9.147 12.433 L 9.020 12.700 9.020 16.020 L 9.020 19.340 9.116 19.580 C 9.236 19.876,9.605 20.276,9.893 20.419 L 10.096 20.520 15.500 20.520 L 20.904 20.520 21.107 20.419 C 21.395 20.275,21.764 19.876,21.883 19.580 L 21.979 19.340 21.992 16.204 C 21.999 14.332,21.989 12.969,21.966 12.822 C 21.890 12.334,21.596 11.916,21.168 11.687 L 20.931 11.561 16.195 11.545 C 13.591 11.537,11.136 11.541,10.740 11.555 M20.800 12.630 C 20.974 12.786,20.999 13.013,21.000 14.370 L 21.000 15.520 15.500 15.520 L 10.000 15.520 10.000 14.370 C 10.001 13.013,10.026 12.786,10.200 12.630 L 10.321 12.520 15.500 12.520 L 20.679 12.520 20.800 12.630 M21.000 17.020 L 21.000 17.520 15.500 17.520 L 10.000 17.520 10.000 17.020 L 10.000 16.520 15.500 16.520 L 21.000 16.520 21.000 17.020 M21.000 18.750 C 20.999 19.047,20.942 19.247,20.815 19.399 L 20.713 19.520 15.500 19.520 L 10.287 19.520 10.185 19.399 C 10.058 19.247,10.001 19.047,10.000 18.750 L 10.000 18.520 15.500 18.520 L 21.000 18.520 21.000 18.750 " fill="#EC0000" stroke="none" fill-rule="evenodd"></path></svg>