<svg width="24" height="25" viewBox="0 0 24 25" fill="none" xmlns="http://www.w3.org/2000/svg"><path d="M7.783 2.565 C 5.327 2.595,5.223 2.599,5.148 2.674 C 5.078 2.744,5.067 2.840,5.037 3.626 C 5.019 4.107,5.003 5.851,5.002 7.503 L 5.000 10.506 4.701 10.571 C 4.251 10.668,3.908 10.855,3.578 11.180 C 3.269 11.485,3.147 11.696,3.070 12.063 C 3.002 12.384,3.004 16.512,3.072 16.852 C 3.169 17.340,3.501 17.846,3.909 18.126 C 4.007 18.194,4.270 18.315,4.492 18.395 C 4.883 18.536,4.898 18.545,4.925 18.680 C 4.941 18.757,4.973 19.585,4.996 20.520 L 5.038 22.220 5.140 22.309 C 5.196 22.357,5.317 22.419,5.411 22.446 C 5.656 22.516,18.344 22.516,18.589 22.446 C 18.683 22.419,18.808 22.355,18.868 22.304 L 18.977 22.210 18.993 20.372 L 19.010 18.535 19.289 18.463 C 20.156 18.240,20.773 17.652,20.929 16.900 C 21.004 16.540,21.001 12.430,20.925 12.100 C 20.755 11.351,20.161 10.780,19.350 10.585 L 19.000 10.501 18.999 9.181 L 18.999 7.860 16.356 5.190 L 13.713 2.520 12.027 2.527 C 11.099 2.530,9.189 2.547,7.783 2.565 M13.001 5.250 C 13.002 7.039,13.044 8.077,13.123 8.251 C 13.148 8.306,13.216 8.373,13.274 8.400 C 13.421 8.468,14.718 8.515,16.510 8.518 L 18.000 8.520 18.000 9.520 L 18.000 10.520 12.000 10.520 L 6.000 10.520 6.000 7.020 L 6.000 3.520 9.500 3.520 L 13.000 3.520 13.001 5.250 M14.896 5.142 C 15.769 5.972,17.080 7.337,17.080 7.416 C 17.080 7.491,16.555 7.520,15.194 7.520 L 14.040 7.520 14.040 6.650 C 14.040 6.171,14.028 5.470,14.014 5.090 C 13.990 4.472,13.994 4.400,14.052 4.400 C 14.087 4.400,14.467 4.734,14.896 5.142 M19.669 11.809 L 19.920 12.058 19.920 14.500 L 19.920 16.943 19.730 17.124 C 19.625 17.224,19.480 17.354,19.407 17.413 L 19.274 17.520 12.000 17.520 L 4.726 17.520 4.593 17.413 C 4.520 17.354,4.375 17.224,4.270 17.124 L 4.080 16.943 4.080 14.598 L 4.080 12.253 4.204 12.005 C 4.413 11.587,4.114 11.624,7.518 11.598 C 9.158 11.585,12.507 11.572,14.959 11.568 L 19.418 11.560 19.669 11.809 M10.876 12.587 L 10.651 12.604 10.626 12.872 C 10.612 13.019,10.600 13.894,10.600 14.816 L 10.600 16.492 11.370 16.469 C 11.793 16.456,12.239 16.424,12.360 16.398 C 12.831 16.296,13.222 16.007,13.429 15.610 C 13.615 15.252,13.660 15.033,13.660 14.480 C 13.659 13.966,13.615 13.751,13.436 13.395 C 13.268 13.060,12.824 12.739,12.395 12.644 C 12.194 12.598,11.208 12.562,10.876 12.587 M7.534 12.625 C 7.483 12.637,7.437 12.688,7.420 12.752 C 7.404 12.812,7.383 13.675,7.372 14.670 L 7.352 16.480 7.736 16.480 L 8.120 16.480 8.120 15.845 L 8.120 15.211 8.490 15.191 C 9.042 15.161,9.322 15.068,9.585 14.828 C 9.705 14.719,9.850 14.548,9.909 14.449 C 10.005 14.284,10.014 14.231,10.014 13.840 C 10.014 13.448,10.005 13.396,9.908 13.230 C 9.796 13.039,9.479 12.734,9.337 12.679 C 9.242 12.643,7.665 12.595,7.534 12.625 M14.949 12.640 C 14.647 12.655,14.386 12.680,14.371 12.695 C 14.356 12.710,14.336 13.568,14.327 14.601 L 14.310 16.480 14.695 16.480 L 15.080 16.480 15.080 15.680 L 15.080 14.880 15.738 14.880 C 16.099 14.880,16.404 14.866,16.414 14.849 C 16.425 14.832,16.446 14.688,16.462 14.529 L 16.490 14.240 15.785 14.240 L 15.080 14.240 15.080 13.740 L 15.080 13.240 15.815 13.240 L 16.550 13.240 16.575 13.115 C 16.589 13.046,16.600 12.902,16.600 12.795 L 16.600 12.600 16.050 12.606 C 15.748 12.610,15.252 12.625,14.949 12.640 M8.572 13.164 C 8.919 13.217,9.088 13.312,9.180 13.506 C 9.337 13.836,9.277 14.214,9.038 14.415 C 8.908 14.525,8.615 14.600,8.318 14.600 L 8.120 14.600 8.120 13.860 C 8.120 13.010,8.070 13.087,8.572 13.164 M11.917 13.202 C 12.418 13.265,12.586 13.384,12.784 13.816 C 12.889 14.046,12.891 14.068,12.868 14.578 C 12.829 15.448,12.682 15.666,12.031 15.820 C 11.893 15.852,11.685 15.879,11.570 15.879 L 11.360 15.880 11.360 14.520 L 11.360 13.160 11.471 13.160 C 11.532 13.160,11.733 13.179,11.917 13.202 M18.000 20.020 L 18.000 21.520 12.000 21.520 L 6.000 21.520 6.000 20.020 L 6.000 18.520 12.000 18.520 L 18.000 18.520 18.000 20.020 " fill="#EC0000" stroke="none" fill-rule="evenodd"></path></svg>