<svg width="24" height="25" viewBox="0 0 24 25" fill="none" xmlns="http://www.w3.org/2000/svg"><path d="M7.783 2.565 C 5.327 2.595,5.223 2.599,5.148 2.674 C 5.078 2.744,5.067 2.840,5.037 3.626 C 5.019 4.107,5.003 5.851,5.002 7.503 L 5.000 10.506 4.701 10.571 C 4.251 10.668,3.908 10.855,3.578 11.180 C 3.269 11.485,3.147 11.696,3.070 12.063 C 3.002 12.384,3.004 16.512,3.072 16.852 C 3.169 17.340,3.501 17.846,3.909 18.126 C 4.007 18.194,4.270 18.315,4.492 18.395 C 4.883 18.536,4.898 18.545,4.925 18.680 C 4.941 18.757,4.973 19.585,4.996 20.520 L 5.038 22.220 5.140 22.309 C 5.196 22.357,5.317 22.419,5.411 22.446 C 5.656 22.516,18.344 22.516,18.589 22.446 C 18.683 22.419,18.808 22.355,18.868 22.304 L 18.977 22.210 18.993 20.372 L 19.010 18.535 19.289 18.463 C 20.156 18.240,20.773 17.652,20.929 16.900 C 21.004 16.540,21.001 12.430,20.925 12.100 C 20.755 11.351,20.161 10.780,19.350 10.585 L 19.000 10.501 18.999 9.181 L 18.999 7.860 16.356 5.190 L 13.713 2.520 12.027 2.527 C 11.099 2.530,9.189 2.547,7.783 2.565 M13.001 5.250 C 13.002 7.039,13.044 8.077,13.123 8.251 C 13.148 8.306,13.216 8.373,13.274 8.400 C 13.421 8.468,14.718 8.515,16.510 8.518 L 18.000 8.520 18.000 9.520 L 18.000 10.520 12.000 10.520 L 6.000 10.520 6.000 7.020 L 6.000 3.520 9.500 3.520 L 13.000 3.520 13.001 5.250 M14.896 5.142 C 15.769 5.972,17.080 7.337,17.080 7.416 C 17.080 7.491,16.555 7.520,15.194 7.520 L 14.040 7.520 14.040 6.650 C 14.040 6.171,14.028 5.470,14.014 5.090 C 13.990 4.472,13.994 4.400,14.052 4.400 C 14.087 4.400,14.467 4.734,14.896 5.142 M19.669 11.809 L 19.920 12.058 19.920 14.500 L 19.920 16.943 19.730 17.124 C 19.625 17.224,19.480 17.354,19.407 17.413 L 19.274 17.520 12.000 17.520 L 4.726 17.520 4.593 17.413 C 4.520 17.354,4.375 17.224,4.270 17.124 L 4.080 16.943 4.080 14.598 L 4.080 12.253 4.204 12.005 C 4.413 11.587,4.114 11.624,7.518 11.598 C 9.158 11.585,12.507 11.572,14.959 11.568 L 19.418 11.560 19.669 11.809 M7.230 12.529 L 6.960 12.569 6.960 14.511 L 6.960 16.453 7.710 16.427 C 8.542 16.399,8.810 16.361,9.079 16.231 C 9.474 16.040,9.860 15.555,9.979 15.098 C 10.108 14.603,10.029 13.792,9.815 13.397 C 9.669 13.130,9.356 12.823,9.105 12.702 C 8.781 12.546,7.747 12.451,7.230 12.529 M11.458 12.662 C 10.783 13.066,10.505 13.596,10.502 14.480 C 10.499 15.203,10.654 15.643,11.051 16.039 C 11.571 16.559,12.336 16.657,13.072 16.297 C 13.422 16.126,13.655 15.857,13.840 15.413 C 13.957 15.134,13.960 15.107,13.960 14.472 L 13.960 13.818 13.821 13.527 C 13.654 13.180,13.337 12.830,13.063 12.691 C 12.919 12.618,12.762 12.582,12.483 12.557 C 11.799 12.496,11.722 12.504,11.458 12.662 M15.612 12.595 C 15.357 12.690,15.342 12.699,15.127 12.872 C 14.651 13.254,14.433 13.761,14.434 14.480 C 14.436 15.182,14.606 15.641,15.005 16.022 C 15.141 16.152,15.348 16.295,15.506 16.369 C 15.741 16.479,15.828 16.497,16.198 16.512 C 16.692 16.532,16.873 16.479,16.997 16.276 C 17.075 16.147,17.146 15.853,17.108 15.815 C 17.097 15.804,16.915 15.824,16.703 15.860 C 16.489 15.897,16.261 15.914,16.189 15.899 C 15.853 15.828,15.457 15.504,15.299 15.172 C 15.238 15.045,15.233 14.952,15.257 14.483 C 15.290 13.817,15.325 13.679,15.509 13.475 C 15.744 13.216,15.832 13.186,16.440 13.168 C 16.737 13.159,17.012 13.134,17.052 13.113 C 17.110 13.082,17.122 13.034,17.112 12.868 C 17.101 12.669,17.094 12.658,16.958 12.613 C 16.879 12.588,16.591 12.556,16.318 12.542 C 15.885 12.521,15.793 12.528,15.612 12.595 M8.420 13.167 C 8.787 13.247,8.985 13.397,9.125 13.700 C 9.186 13.833,9.198 13.963,9.199 14.465 C 9.200 15.052,9.196 15.078,9.088 15.285 C 8.906 15.633,8.686 15.741,8.070 15.786 L 7.720 15.812 7.720 15.436 C 7.720 14.639,7.806 13.141,7.853 13.110 C 7.903 13.077,8.095 13.097,8.420 13.167 M12.699 13.275 C 12.786 13.334,12.917 13.459,12.989 13.554 L 13.120 13.726 13.120 14.484 C 13.120 15.348,13.101 15.427,12.844 15.648 C 12.449 15.985,11.902 15.932,11.551 15.522 C 11.387 15.330,11.335 15.169,11.301 14.740 C 11.253 14.140,11.442 13.425,11.691 13.262 C 11.944 13.097,12.445 13.103,12.699 13.275 M18.000 20.020 L 18.000 21.520 12.000 21.520 L 6.000 21.520 6.000 20.020 L 6.000 18.520 12.000 18.520 L 18.000 18.520 18.000 20.020 " fill="#EC0000" stroke="none" fill-rule="evenodd"></path></svg>