<svg width="24" height="25" viewBox="0 0 24 25" fill="none" xmlns="http://www.w3.org/2000/svg"><path d="M7.783 2.565 C 5.327 2.595,5.223 2.599,5.148 2.674 C 5.078 2.744,5.067 2.840,5.037 3.626 C 5.019 4.107,5.003 5.851,5.002 7.503 L 5.000 10.506 4.701 10.571 C 4.251 10.668,3.908 10.855,3.578 11.180 C 3.269 11.485,3.147 11.696,3.070 12.063 C 3.002 12.384,3.004 16.512,3.072 16.852 C 3.169 17.340,3.501 17.846,3.909 18.126 C 4.007 18.194,4.270 18.315,4.492 18.395 C 4.883 18.536,4.898 18.545,4.925 18.680 C 4.941 18.757,4.973 19.585,4.996 20.520 L 5.038 22.220 5.140 22.309 C 5.196 22.357,5.317 22.419,5.411 22.446 C 5.656 22.516,18.344 22.516,18.589 22.446 C 18.683 22.419,18.808 22.355,18.868 22.304 L 18.977 22.210 18.993 20.372 L 19.010 18.535 19.289 18.463 C 20.156 18.240,20.773 17.652,20.929 16.900 C 21.004 16.540,21.001 12.430,20.925 12.100 C 20.755 11.351,20.161 10.780,19.350 10.585 L 19.000 10.501 18.999 9.181 L 18.999 7.860 16.356 5.190 L 13.713 2.520 12.027 2.527 C 11.099 2.530,9.189 2.547,7.783 2.565 M13.001 5.250 C 13.002 7.039,13.044 8.077,13.123 8.251 C 13.148 8.306,13.216 8.373,13.274 8.400 C 13.421 8.468,14.718 8.515,16.510 8.518 L 18.000 8.520 18.000 9.520 L 18.000 10.520 12.000 10.520 L 6.000 10.520 6.000 7.020 L 6.000 3.520 9.500 3.520 L 13.000 3.520 13.001 5.250 M14.896 5.142 C 15.769 5.972,17.080 7.337,17.080 7.416 C 17.080 7.491,16.555 7.520,15.194 7.520 L 14.040 7.520 14.040 6.650 C 14.040 6.171,14.028 5.470,14.014 5.090 C 13.990 4.472,13.994 4.400,14.052 4.400 C 14.087 4.400,14.467 4.734,14.896 5.142 M19.669 11.809 L 19.920 12.058 19.920 14.500 L 19.920 16.943 19.730 17.124 C 19.625 17.224,19.480 17.354,19.407 17.413 L 19.274 17.520 12.000 17.520 L 4.726 17.520 4.593 17.413 C 4.520 17.354,4.375 17.224,4.270 17.124 L 4.080 16.943 4.080 14.598 L 4.080 12.253 4.204 12.005 C 4.413 11.587,4.114 11.624,7.518 11.598 C 9.158 11.585,12.507 11.572,14.959 11.568 L 19.418 11.560 19.669 11.809 M14.775 12.540 C 14.461 12.608,14.313 12.686,14.121 12.884 C 13.737 13.279,13.754 13.886,14.161 14.279 C 14.263 14.379,14.604 14.613,14.918 14.800 C 15.315 15.036,15.506 15.175,15.548 15.255 C 15.633 15.421,15.586 15.609,15.420 15.754 C 15.223 15.928,15.007 15.949,14.390 15.855 L 13.880 15.777 13.874 16.008 C 13.871 16.136,13.866 16.261,13.864 16.286 C 13.852 16.422,14.690 16.542,15.225 16.482 C 15.879 16.407,16.289 16.036,16.348 15.465 C 16.399 14.964,16.175 14.680,15.369 14.223 C 14.635 13.806,14.534 13.669,14.710 13.322 C 14.806 13.133,14.933 13.108,15.572 13.157 C 16.174 13.203,16.172 13.204,16.219 12.893 C 16.239 12.762,16.231 12.695,16.193 12.658 C 16.164 12.630,15.918 12.578,15.646 12.543 C 15.074 12.470,15.095 12.470,14.775 12.540 M11.630 12.570 L 11.400 12.609 11.400 14.525 L 11.400 16.440 12.435 16.440 L 13.470 16.440 13.495 16.315 C 13.509 16.246,13.520 16.102,13.520 15.995 L 13.520 15.800 12.840 15.800 L 12.160 15.800 12.160 14.160 L 12.160 12.520 12.010 12.525 C 11.928 12.528,11.757 12.548,11.630 12.570 M7.861 12.615 C 7.790 12.666,7.815 12.718,8.296 13.498 C 8.576 13.954,8.815 14.351,8.826 14.381 C 8.850 14.443,8.783 14.562,8.178 15.541 C 7.933 15.938,7.711 16.303,7.685 16.351 L 7.637 16.440 8.034 16.440 L 8.431 16.440 8.772 15.890 C 9.229 15.155,9.216 15.170,9.297 15.237 C 9.333 15.267,9.525 15.550,9.725 15.866 L 10.088 16.440 10.502 16.440 L 10.916 16.440 10.542 15.827 C 9.885 14.748,9.749 14.489,9.779 14.368 C 9.794 14.309,9.928 14.053,10.078 13.800 C 10.595 12.923,10.726 12.673,10.702 12.611 C 10.682 12.558,10.624 12.552,10.332 12.575 C 10.141 12.590,9.982 12.606,9.978 12.611 C 9.974 12.616,9.823 12.859,9.642 13.152 C 9.461 13.445,9.294 13.678,9.270 13.670 C 9.247 13.662,9.074 13.409,8.887 13.108 L 8.546 12.560 8.241 12.560 C 8.046 12.560,7.908 12.580,7.861 12.615 M18.000 20.020 L 18.000 21.520 12.000 21.520 L 6.000 21.520 6.000 20.020 L 6.000 18.520 12.000 18.520 L 18.000 18.520 18.000 20.020 " fill="#EC0000" stroke="none" fill-rule="evenodd"></path></svg>