<svg width="24" height="25" viewBox="0 0 24 25" fill="none" xmlns="http://www.w3.org/2000/svg"><path d="M7.783 2.565 C 5.327 2.595,5.223 2.599,5.148 2.674 C 5.078 2.744,5.067 2.840,5.037 3.626 C 5.019 4.107,5.003 5.851,5.002 7.503 L 5.000 10.506 4.701 10.571 C 4.251 10.668,3.908 10.855,3.578 11.180 C 3.269 11.485,3.147 11.696,3.070 12.063 C 3.002 12.384,3.004 16.512,3.072 16.852 C 3.169 17.340,3.501 17.846,3.909 18.126 C 4.007 18.194,4.270 18.315,4.492 18.395 C 4.883 18.536,4.898 18.545,4.925 18.680 C 4.941 18.757,4.973 19.585,4.996 20.520 L 5.038 22.220 5.140 22.309 C 5.196 22.357,5.317 22.419,5.411 22.446 C 5.656 22.516,18.344 22.516,18.589 22.446 C 18.683 22.419,18.808 22.355,18.868 22.304 L 18.977 22.210 18.993 20.372 L 19.010 18.535 19.289 18.463 C 20.156 18.240,20.773 17.652,20.929 16.900 C 21.004 16.540,21.001 12.430,20.925 12.100 C 20.755 11.351,20.161 10.780,19.350 10.585 L 19.000 10.501 18.999 9.181 L 18.999 7.860 16.356 5.190 L 13.713 2.520 12.027 2.527 C 11.099 2.530,9.189 2.547,7.783 2.565 M13.001 5.250 C 13.002 7.039,13.044 8.077,13.123 8.251 C 13.148 8.306,13.216 8.373,13.274 8.400 C 13.421 8.468,14.718 8.515,16.510 8.518 L 18.000 8.520 18.000 9.520 L 18.000 10.520 12.000 10.520 L 6.000 10.520 6.000 7.020 L 6.000 3.520 9.500 3.520 L 13.000 3.520 13.001 5.250 M14.896 5.142 C 15.769 5.972,17.080 7.337,17.080 7.416 C 17.080 7.491,16.555 7.520,15.194 7.520 L 14.040 7.520 14.040 6.650 C 14.040 6.171,14.028 5.470,14.014 5.090 C 13.990 4.472,13.994 4.400,14.052 4.400 C 14.087 4.400,14.467 4.734,14.896 5.142 M19.669 11.809 L 19.920 12.058 19.920 14.500 L 19.920 16.943 19.730 17.124 C 19.625 17.224,19.480 17.354,19.407 17.413 L 19.274 17.520 12.000 17.520 L 4.726 17.520 4.593 17.413 C 4.520 17.354,4.375 17.224,4.270 17.124 L 4.080 16.943 4.080 14.598 L 4.080 12.253 4.204 12.005 C 4.413 11.587,4.114 11.624,7.518 11.598 C 9.158 11.585,12.507 11.572,14.959 11.568 L 19.418 11.560 19.669 11.809 M11.190 12.573 L 10.880 12.612 10.880 14.546 L 10.880 16.480 11.240 16.480 L 11.600 16.480 11.600 15.840 L 11.600 15.200 11.810 15.199 C 12.112 15.197,12.590 15.104,12.830 15.001 C 13.078 14.894,13.368 14.599,13.441 14.378 C 13.524 14.129,13.515 13.371,13.427 13.208 C 13.309 12.990,13.065 12.775,12.855 12.705 C 12.468 12.578,11.656 12.513,11.190 12.573 M7.600 14.535 L 7.600 16.480 7.960 16.480 L 8.320 16.480 8.320 15.846 L 8.320 15.212 8.710 15.189 C 9.272 15.156,9.553 15.047,9.866 14.738 C 10.060 14.547,10.126 14.449,10.176 14.280 C 10.254 14.019,10.257 13.728,10.186 13.460 C 10.080 13.064,9.921 12.867,9.580 12.714 C 9.397 12.632,9.305 12.623,8.490 12.608 L 7.600 12.590 7.600 14.535 M14.680 12.642 C 14.317 12.657,13.972 12.671,13.914 12.674 C 13.798 12.681,13.720 12.830,13.720 13.047 C 13.720 13.206,13.832 13.240,14.363 13.240 L 14.800 13.240 14.800 14.860 L 14.800 16.480 15.180 16.480 L 15.560 16.480 15.560 14.860 L 15.560 13.240 15.950 13.239 C 16.183 13.239,16.380 13.219,16.440 13.188 C 16.549 13.133,16.634 12.936,16.638 12.730 L 16.640 12.600 15.990 12.607 C 15.633 12.611,15.043 12.627,14.680 12.642 M9.003 13.201 C 9.327 13.294,9.440 13.478,9.440 13.913 C 9.440 14.127,9.422 14.212,9.361 14.289 C 9.249 14.432,8.918 14.561,8.596 14.588 L 8.320 14.612 8.320 13.861 L 8.320 13.110 8.598 13.137 C 8.751 13.152,8.933 13.181,9.003 13.201 M12.309 13.207 C 12.617 13.284,12.720 13.458,12.720 13.899 C 12.720 14.166,12.660 14.338,12.538 14.418 C 12.403 14.506,12.019 14.600,11.792 14.600 L 11.600 14.600 11.600 13.854 L 11.600 13.109 11.870 13.137 C 12.018 13.152,12.216 13.183,12.309 13.207 M18.000 20.020 L 18.000 21.520 12.000 21.520 L 6.000 21.520 6.000 20.020 L 6.000 18.520 12.000 18.520 L 18.000 18.520 18.000 20.020 " fill="#EC0000" stroke="none" fill-rule="evenodd"></path></svg>