<svg width="24" height="25" viewBox="0 0 24 25" fill="none" xmlns="http://www.w3.org/2000/svg"><path d="M3.819 4.706 C 3.498 4.945,3.261 5.182,3.118 5.404 L 3.000 5.587 3.000 12.988 L 3.000 20.389 3.139 20.668 C 3.302 20.994,3.640 21.338,3.951 21.495 L 4.157 21.600 10.257 21.600 L 16.356 21.600 16.728 21.465 C 17.702 21.112,18.166 20.835,18.741 20.261 C 19.429 19.574,19.802 18.908,19.983 18.039 C 20.061 17.664,20.112 14.271,20.117 9.148 C 20.120 5.730,20.119 5.674,20.038 5.517 C 19.931 5.306,19.437 4.789,19.227 4.667 L 19.060 4.571 11.559 4.549 L 4.058 4.527 3.819 4.706 M18.949 5.710 C 19.042 5.923,19.066 6.914,19.101 11.956 L 19.131 16.191 18.835 16.260 C 18.388 16.365,17.153 16.355,15.947 16.236 C 14.836 16.127,14.883 16.118,14.613 16.513 C 14.411 16.808,14.401 16.902,14.509 17.535 C 14.599 18.061,14.614 20.402,14.528 20.488 C 14.449 20.568,13.113 20.591,8.437 20.596 L 4.295 20.600 4.182 20.482 L 4.068 20.363 4.033 17.372 C 3.977 12.521,4.048 5.776,4.156 5.668 C 4.217 5.607,6.892 5.579,13.792 5.568 L 18.884 5.560 18.949 5.710 M6.288 7.779 C 6.179 7.918,6.117 8.136,6.146 8.282 C 6.182 8.460,6.333 8.572,6.591 8.611 C 6.717 8.630,9.036 8.655,11.744 8.666 L 16.667 8.687 16.810 8.521 C 16.888 8.430,16.960 8.309,16.971 8.253 C 17.000 8.099,16.928 7.887,16.828 7.834 C 16.690 7.760,15.312 7.729,10.658 7.697 L 6.375 7.668 6.288 7.779 M6.450 11.717 C 6.062 11.782,6.018 12.231,6.373 12.496 C 6.485 12.579,6.505 12.580,9.113 12.580 C 11.616 12.580,11.746 12.576,11.865 12.505 C 12.136 12.340,12.197 12.047,12.003 11.831 L 11.887 11.700 9.253 11.694 C 7.805 11.690,6.543 11.701,6.450 11.717 M16.060 17.236 C 17.020 17.391,17.587 17.418,18.337 17.345 C 18.747 17.304,19.029 17.293,19.051 17.315 C 19.131 17.395,18.933 18.137,18.717 18.571 C 18.359 19.289,17.872 19.830,17.332 20.111 C 16.895 20.338,16.218 20.560,15.871 20.589 C 15.603 20.611,15.588 20.608,15.616 20.536 C 15.694 20.336,15.731 19.410,15.684 18.849 C 15.633 18.244,15.506 17.311,15.457 17.185 C 15.433 17.125,15.442 17.115,15.504 17.134 C 15.546 17.147,15.796 17.193,16.060 17.236 " fill="#EC0000" stroke="none" fill-rule="evenodd"></path></svg>