<svg width="24" height="25" viewBox="0 0 24 25" fill="none" xmlns="http://www.w3.org/2000/svg"><path d="M4.998 3.648 C 4.720 3.807,4.367 4.160,4.207 4.441 L 4.081 4.660 4.080 11.754 L 4.080 18.848 3.734 19.214 C 3.144 19.839,3.006 20.124,3.053 20.620 C 3.085 20.961,3.158 21.120,3.400 21.376 C 3.640 21.630,3.915 21.763,4.260 21.790 C 4.725 21.827,5.021 21.668,5.720 21.008 L 6.141 20.612 11.200 20.587 C 16.896 20.559,17.528 20.539,18.040 20.378 C 18.494 20.235,18.833 20.059,19.240 19.757 C 20.068 19.144,20.660 18.333,20.980 17.377 C 21.066 17.119,21.092 16.940,21.122 16.420 C 21.142 16.068,21.170 13.287,21.185 10.240 L 21.212 4.700 21.125 4.530 C 21.012 4.308,20.566 3.837,20.328 3.687 L 20.140 3.570 12.678 3.547 L 5.216 3.524 4.998 3.648 M20.028 4.648 L 20.160 4.776 20.160 9.986 L 20.160 15.197 20.010 15.236 C 19.469 15.377,18.454 15.402,17.620 15.297 C 17.011 15.220,16.292 15.181,16.106 15.216 C 15.924 15.250,15.748 15.398,15.612 15.630 L 15.505 15.812 15.596 16.676 C 15.671 17.387,15.685 17.712,15.674 18.512 C 15.663 19.253,15.648 19.491,15.608 19.515 C 15.536 19.559,12.634 19.600,9.640 19.599 L 7.140 19.598 7.520 19.226 C 8.078 18.680,8.016 18.705,8.540 18.823 C 9.183 18.967,9.975 18.994,10.480 18.889 C 11.857 18.603,12.972 17.560,13.384 16.171 C 13.511 15.742,13.554 15.036,13.483 14.506 C 13.360 13.579,12.727 12.547,11.955 12.013 C 11.593 11.763,11.094 11.508,10.800 11.425 C 10.241 11.265,9.095 11.265,8.560 11.424 C 8.045 11.577,7.332 12.023,6.897 12.465 C 6.294 13.076,5.948 13.842,5.835 14.814 C 5.777 15.315,5.821 15.710,6.003 16.323 L 6.123 16.727 5.805 17.073 C 5.630 17.264,5.393 17.510,5.278 17.620 L 5.070 17.820 5.095 12.600 C 5.126 6.075,5.149 4.782,5.237 4.674 C 5.299 4.597,5.393 4.595,9.480 4.564 C 11.779 4.547,15.063 4.530,16.778 4.527 L 19.896 4.520 20.028 4.648 M10.020 6.239 C 8.142 6.257,7.437 6.276,7.373 6.311 C 7.166 6.426,7.171 6.803,7.381 7.001 C 7.475 7.089,7.518 7.095,8.390 7.129 C 9.725 7.182,17.629 7.148,17.770 7.088 C 17.913 7.028,18.040 6.817,18.040 6.639 C 18.040 6.541,18.003 6.453,17.917 6.349 L 17.794 6.200 15.187 6.208 C 13.753 6.212,11.428 6.226,10.020 6.239 M7.391 9.190 C 7.237 9.367,7.192 9.650,7.284 9.854 C 7.351 10.001,7.479 10.038,8.075 10.086 C 8.634 10.131,12.628 10.106,12.850 10.056 C 12.991 10.024,13.189 9.821,13.221 9.676 C 13.252 9.534,13.139 9.285,13.022 9.241 C 12.934 9.207,9.390 9.120,8.136 9.120 C 7.535 9.120,7.445 9.128,7.391 9.190 M10.320 12.361 C 11.074 12.459,11.789 13.037,12.260 13.928 L 12.457 14.300 12.458 15.080 L 12.460 15.860 12.245 16.299 C 12.053 16.691,11.989 16.779,11.645 17.122 C 11.329 17.438,11.199 17.537,10.920 17.674 C 10.453 17.904,10.095 17.974,9.540 17.945 C 8.728 17.903,8.346 17.733,7.761 17.151 C 7.354 16.748,7.143 16.448,7.006 16.081 C 6.877 15.733,6.840 14.893,6.935 14.446 C 7.058 13.866,7.373 13.342,7.838 12.946 C 8.077 12.741,8.666 12.421,8.906 12.364 C 9.115 12.315,9.951 12.314,10.320 12.361 M17.000 16.222 C 17.608 16.348,19.359 16.390,20.016 16.294 L 20.172 16.271 20.147 16.486 C 20.092 16.956,19.718 17.807,19.352 18.295 C 18.854 18.959,17.831 19.514,16.969 19.587 L 16.667 19.613 16.693 19.516 C 16.755 19.289,16.808 18.427,16.784 18.034 C 16.749 17.435,16.603 16.358,16.533 16.175 C 16.515 16.130,16.532 16.121,16.605 16.138 C 16.657 16.150,16.835 16.188,17.000 16.222 M6.962 17.885 L 7.208 18.090 6.854 18.449 C 6.659 18.646,6.096 19.196,5.602 19.670 C 4.742 20.494,4.351 20.840,4.280 20.840 C 4.262 20.840,4.189 20.767,4.119 20.679 L 3.991 20.517 4.095 20.369 C 4.316 20.053,6.600 17.680,6.684 17.680 C 6.701 17.680,6.827 17.772,6.962 17.885 " fill="#EC0000" stroke="none" fill-rule="evenodd"></path></svg>