<svg width="24" height="25" viewBox="0 0 24 25" fill="none" xmlns="http://www.w3.org/2000/svg"><path d="M4.720 2.638 L 4.181 2.660 4.127 2.773 C 4.022 2.993,3.993 5.435,4.021 11.940 L 4.047 18.220 4.131 18.310 C 4.274 18.465,4.450 18.487,5.744 18.509 L 6.987 18.530 7.012 20.315 C 7.027 21.449,7.052 22.145,7.080 22.224 C 7.104 22.294,7.171 22.370,7.230 22.397 C 7.407 22.478,9.902 22.517,14.962 22.519 L 19.663 22.520 19.832 22.348 L 20.000 22.177 19.996 16.998 C 19.994 14.150,19.980 10.689,19.966 9.307 L 19.940 6.793 19.833 6.701 C 19.699 6.586,19.537 6.570,18.096 6.536 L 17.012 6.511 16.987 4.765 C 16.964 3.090,16.939 2.741,16.841 2.681 C 16.758 2.629,13.808 2.600,9.523 2.608 C 7.179 2.613,5.017 2.626,4.720 2.638 M16.000 5.020 L 16.000 6.520 14.590 6.521 C 12.509 6.523,7.569 6.593,7.354 6.623 C 7.207 6.644,7.158 6.672,7.117 6.755 C 7.051 6.890,7.009 9.613,7.004 14.190 L 7.000 17.520 6.000 17.520 L 5.000 17.520 5.000 10.520 L 5.000 3.520 10.500 3.520 L 16.000 3.520 16.000 5.020 M19.000 14.520 L 19.000 21.520 13.500 21.520 L 8.000 21.520 8.000 14.520 L 8.000 7.520 13.500 7.520 L 19.000 7.520 19.000 14.520 M10.168 9.658 C 10.126 9.712,10.069 9.811,10.041 9.878 C 9.997 9.984,10.002 10.021,10.085 10.189 C 10.247 10.516,10.069 10.500,13.573 10.500 L 16.646 10.500 16.803 10.332 C 16.995 10.126,17.018 9.912,16.868 9.737 L 16.775 9.630 14.598 9.597 C 13.400 9.579,11.931 9.563,11.333 9.562 L 10.246 9.560 10.168 9.658 M10.168 12.658 C 10.126 12.712,10.069 12.811,10.041 12.878 C 9.997 12.984,10.002 13.021,10.085 13.189 C 10.247 13.516,10.069 13.500,13.573 13.500 L 16.646 13.500 16.803 13.332 C 16.995 13.126,17.018 12.912,16.868 12.737 L 16.775 12.630 14.598 12.597 C 13.400 12.579,11.931 12.563,11.333 12.562 L 10.246 12.560 10.168 12.658 M10.168 15.658 C 10.126 15.712,10.069 15.811,10.041 15.878 C 9.997 15.984,10.002 16.021,10.085 16.189 C 10.247 16.516,10.069 16.500,13.573 16.500 L 16.646 16.500 16.803 16.332 C 16.995 16.126,17.018 15.912,16.868 15.737 L 16.775 15.630 14.598 15.597 C 13.400 15.579,11.931 15.563,11.333 15.562 L 10.246 15.560 10.168 15.658 " fill="#EC0000" stroke="none" fill-rule="evenodd"></path></svg>