<svg width="24" height="25" viewBox="0 0 24 25" fill="none" xmlns="http://www.w3.org/2000/svg"><path d="M3.729 2.587 C 3.701 2.598,3.648 2.664,3.612 2.734 C 3.514 2.920,3.487 5.408,3.483 14.543 L 3.480 22.186 3.570 22.270 C 3.619 22.317,3.714 22.376,3.780 22.401 C 3.975 22.477,5.366 22.528,6.762 22.512 C 7.976 22.497,8.074 22.491,8.202 22.416 C 8.278 22.372,8.374 22.274,8.415 22.198 C 8.478 22.081,8.482 22.035,8.445 21.899 C 8.382 21.664,8.317 21.596,8.118 21.558 C 8.020 21.539,7.170 21.523,6.230 21.522 L 4.520 21.520 4.520 12.520 L 4.520 3.520 10.500 3.520 L 16.480 3.520 16.483 5.490 C 16.486 7.774,16.526 9.092,16.599 9.246 C 16.663 9.381,16.795 9.440,17.034 9.440 C 17.271 9.440,17.354 9.382,17.403 9.179 C 17.454 8.972,17.454 2.922,17.403 2.788 C 17.383 2.735,17.333 2.677,17.293 2.661 C 17.139 2.597,14.379 2.565,9.180 2.566 C 6.210 2.566,3.757 2.576,3.729 2.587 M6.715 6.585 C 6.411 6.936,6.503 7.339,6.910 7.441 C 7.046 7.475,8.112 7.494,10.624 7.508 L 14.147 7.528 14.274 7.374 C 14.498 7.104,14.513 6.783,14.309 6.674 C 14.179 6.605,12.972 6.568,9.753 6.538 C 6.871 6.510,6.778 6.511,6.715 6.585 M6.715 9.585 C 6.411 9.936,6.503 10.339,6.910 10.441 C 7.046 10.475,8.112 10.494,10.624 10.508 L 14.147 10.528 14.274 10.374 C 14.498 10.104,14.513 9.783,14.309 9.674 C 14.179 9.605,12.972 9.568,9.753 9.538 C 6.871 9.510,6.778 9.511,6.715 9.585 M17.611 11.238 C 17.264 11.471,15.170 13.511,12.371 16.343 L 10.002 18.740 10.003 19.560 C 10.004 20.573,10.049 21.167,10.135 21.299 C 10.171 21.352,10.267 21.415,10.350 21.439 C 10.432 21.463,10.952 21.494,11.505 21.507 C 12.476 21.531,12.515 21.529,12.685 21.447 C 12.903 21.340,13.740 20.568,15.337 18.997 C 16.766 17.591,19.653 14.640,20.031 14.200 C 20.405 13.764,20.453 13.653,20.455 13.220 C 20.458 12.715,20.374 12.569,19.682 11.880 C 18.986 11.187,18.863 11.117,18.285 11.090 L 17.860 11.071 17.611 11.238 M18.630 12.219 C 18.869 12.398,19.273 12.848,19.419 13.097 L 19.497 13.231 19.384 13.394 C 19.196 13.665,17.787 15.125,15.042 17.890 L 12.432 20.520 11.716 20.520 L 11.000 20.520 11.000 19.810 L 11.000 19.100 13.270 16.839 C 17.690 12.436,18.105 12.040,18.300 12.040 C 18.350 12.040,18.499 12.120,18.630 12.219 M7.060 12.598 C 6.669 12.630,6.571 12.678,6.538 12.857 C 6.491 13.107,6.608 13.300,6.897 13.448 C 7.050 13.527,7.111 13.529,9.037 13.513 C 10.912 13.498,11.028 13.493,11.176 13.419 C 11.381 13.315,11.501 13.107,11.466 12.916 C 11.428 12.715,11.361 12.641,11.179 12.599 C 11.003 12.558,7.566 12.557,7.060 12.598 " fill="#EC0000" stroke="none" fill-rule="evenodd"></path></svg>