<svg width="24" height="25" viewBox="0 0 24 25" fill="none" xmlns="http://www.w3.org/2000/svg"><path d="M10.220 2.600 C 9.407 2.624,9.326 2.633,9.160 2.718 C 8.784 2.912,8.409 3.271,8.241 3.600 C 8.142 3.792,8.000 4.265,8.000 4.398 L 8.000 4.508 7.130 4.535 C 5.603 4.581,5.198 4.608,5.141 4.665 C 5.106 4.700,5.077 4.913,5.054 5.309 C 5.013 6.014,5.017 21.496,5.058 21.935 C 5.098 22.361,5.137 22.399,5.582 22.448 C 6.065 22.501,17.935 22.501,18.418 22.448 C 18.873 22.398,18.902 22.367,18.942 21.890 C 18.984 21.391,18.987 6.197,18.946 5.389 C 18.922 4.927,18.895 4.701,18.859 4.664 C 18.804 4.609,18.433 4.586,16.830 4.535 C 16.019 4.509,16.000 4.506,16.000 4.423 C 16.000 4.284,15.845 3.767,15.742 3.564 C 15.610 3.304,15.163 2.896,14.850 2.750 C 14.612 2.638,14.552 2.628,13.908 2.597 C 13.132 2.560,11.532 2.561,10.220 2.600 M14.440 3.642 C 14.836 3.843,14.921 4.066,14.983 5.070 L 15.010 5.520 11.999 5.520 L 8.988 5.520 9.014 5.070 C 9.048 4.490,9.107 4.130,9.194 3.981 C 9.232 3.916,9.358 3.785,9.474 3.690 L 9.686 3.518 11.993 3.544 C 14.090 3.569,14.313 3.578,14.440 3.642 M8.000 5.682 C 8.000 5.932,8.076 6.178,8.199 6.325 L 8.310 6.458 8.845 6.485 C 9.540 6.521,14.460 6.521,15.155 6.485 L 15.690 6.458 15.801 6.325 C 15.924 6.178,16.000 5.932,16.000 5.682 L 16.000 5.520 17.000 5.520 L 18.000 5.520 18.000 13.520 L 18.000 21.520 12.000 21.520 L 6.000 21.520 6.000 13.520 L 6.000 5.520 7.000 5.520 L 8.000 5.520 8.000 5.682 M8.361 8.599 C 8.069 8.672,7.958 8.965,8.121 9.232 C 8.250 9.444,8.424 9.497,9.000 9.499 C 9.423 9.500,9.524 9.488,9.657 9.420 C 9.994 9.249,10.077 8.938,9.847 8.709 L 9.718 8.580 9.109 8.572 C 8.774 8.568,8.437 8.580,8.361 8.599 M11.322 8.642 C 11.224 8.662,11.118 8.705,11.086 8.737 C 10.954 8.869,11.076 9.309,11.268 9.397 C 11.480 9.493,12.294 9.528,13.876 9.509 C 14.892 9.497,15.511 9.474,15.603 9.445 C 15.876 9.359,16.036 9.081,15.941 8.857 C 15.837 8.609,15.947 8.621,13.624 8.613 C 12.456 8.609,11.420 8.622,11.322 8.642 M8.361 11.599 C 8.069 11.672,7.958 11.965,8.121 12.232 C 8.250 12.444,8.424 12.497,9.000 12.499 C 9.423 12.500,9.524 12.488,9.657 12.420 C 9.994 12.249,10.077 11.938,9.847 11.709 L 9.718 11.580 9.109 11.572 C 8.774 11.568,8.437 11.580,8.361 11.599 M11.322 11.642 C 11.224 11.662,11.118 11.705,11.086 11.737 C 10.954 11.869,11.076 12.309,11.268 12.397 C 11.480 12.493,12.294 12.528,13.876 12.509 C 14.892 12.497,15.511 12.474,15.603 12.445 C 15.876 12.359,16.036 12.081,15.941 11.857 C 15.837 11.609,15.947 11.621,13.624 11.613 C 12.456 11.609,11.420 11.622,11.322 11.642 M8.361 14.599 C 8.069 14.672,7.958 14.965,8.121 15.232 C 8.250 15.444,8.424 15.497,9.000 15.499 C 9.423 15.500,9.524 15.488,9.657 15.420 C 9.994 15.249,10.077 14.938,9.847 14.709 L 9.718 14.580 9.109 14.572 C 8.774 14.568,8.437 14.580,8.361 14.599 M11.322 14.642 C 11.224 14.662,11.118 14.705,11.086 14.737 C 10.954 14.869,11.076 15.309,11.268 15.397 C 11.480 15.493,12.294 15.528,13.876 15.509 C 14.892 15.497,15.511 15.474,15.603 15.445 C 15.876 15.359,16.036 15.081,15.941 14.857 C 15.837 14.609,15.947 14.621,13.624 14.613 C 12.456 14.609,11.420 14.622,11.322 14.642 M8.361 17.599 C 8.069 17.672,7.958 17.965,8.121 18.232 C 8.250 18.444,8.424 18.497,9.000 18.499 C 9.423 18.500,9.524 18.488,9.657 18.420 C 9.994 18.249,10.077 17.938,9.847 17.709 L 9.718 17.580 9.109 17.572 C 8.774 17.568,8.437 17.580,8.361 17.599 M11.322 17.642 C 11.224 17.662,11.118 17.705,11.086 17.737 C 10.954 17.869,11.076 18.309,11.268 18.397 C 11.480 18.493,12.294 18.528,13.876 18.509 C 14.892 18.497,15.511 18.474,15.603 18.445 C 15.876 18.359,16.036 18.081,15.941 17.857 C 15.837 17.609,15.947 17.621,13.624 17.613 C 12.456 17.609,11.420 17.622,11.322 17.642 " fill="#EC0000" stroke="none" fill-rule="evenodd"></path></svg>