<svg width="24" height="24" viewBox="0 0 24 24" fill="none" xmlns="http://www.w3.org/2000/svg"><path d="M9.880 2.036 C 9.471 2.061,9.389 2.079,9.140 2.198 C 8.792 2.366,8.381 2.764,8.225 3.085 C 8.098 3.346,8.001 3.684,8.000 3.868 L 8.000 3.995 6.670 4.008 C 5.443 4.019,5.331 4.026,5.228 4.096 C 5.167 4.137,5.095 4.209,5.068 4.256 C 5.031 4.321,5.017 6.116,5.007 12.060 C 4.999 16.306,5.006 20.221,5.021 20.759 L 5.050 21.738 5.194 21.870 L 5.339 22.003 11.959 21.990 C 16.311 21.981,18.620 21.963,18.697 21.936 C 18.762 21.914,18.852 21.846,18.897 21.785 L 18.980 21.674 18.980 13.007 C 18.980 3.665,18.993 4.236,18.770 4.090 C 18.675 4.028,18.519 4.019,17.332 4.007 L 16.000 3.993 15.999 3.827 C 15.999 3.735,15.957 3.543,15.906 3.400 C 15.684 2.771,15.243 2.326,14.638 2.117 C 14.386 2.030,14.330 2.028,12.360 2.018 C 11.249 2.013,10.133 2.021,9.880 2.036 M13.407 3.034 L 14.393 3.060 14.566 3.181 C 14.661 3.248,14.789 3.385,14.852 3.486 C 14.961 3.663,14.966 3.694,14.989 4.335 L 15.012 5.000 12.000 5.000 L 8.988 5.000 9.011 4.335 C 9.034 3.694,9.039 3.663,9.148 3.486 C 9.211 3.385,9.339 3.248,9.434 3.181 C 9.600 3.064,9.625 3.059,10.153 3.038 C 10.936 3.006,12.264 3.005,13.407 3.034 M8.000 5.274 C 8.000 5.623,8.052 5.769,8.222 5.899 L 8.359 6.003 11.989 5.992 C 16.006 5.979,15.793 5.993,15.930 5.720 C 15.977 5.625,16.000 5.486,16.000 5.290 L 16.000 5.000 17.000 5.000 L 18.000 5.000 18.000 13.000 L 18.000 21.000 12.000 21.000 L 6.000 21.000 6.000 13.000 L 6.000 5.000 7.000 5.000 L 8.000 5.000 8.000 5.274 M10.710 7.707 C 10.617 7.788,10.203 8.189,9.790 8.597 L 9.041 9.339 8.730 9.036 C 8.560 8.869,8.368 8.694,8.305 8.646 C 7.957 8.386,7.403 8.777,7.563 9.169 C 7.637 9.350,8.750 10.468,8.890 10.502 C 9.167 10.569,9.244 10.517,10.089 9.688 C 10.530 9.254,11.033 8.743,11.206 8.550 C 11.474 8.252,11.520 8.180,11.520 8.058 C 11.520 7.764,11.316 7.560,11.022 7.560 C 10.916 7.560,10.837 7.597,10.710 7.707 M12.734 8.082 C 12.488 8.240,12.419 8.577,12.591 8.781 C 12.782 9.007,12.719 9.000,14.525 9.000 L 16.192 9.000 16.314 8.861 C 16.546 8.597,16.517 8.283,16.245 8.097 L 16.101 8.000 14.481 8.001 C 12.923 8.001,12.855 8.005,12.734 8.082 M10.710 11.707 C 10.617 11.788,10.203 12.189,9.790 12.597 L 9.041 13.339 8.730 13.036 C 8.560 12.869,8.368 12.694,8.305 12.646 C 7.957 12.386,7.403 12.777,7.563 13.169 C 7.637 13.350,8.750 14.468,8.890 14.502 C 9.167 14.569,9.244 14.517,10.089 13.688 C 10.530 13.254,11.033 12.743,11.206 12.550 C 11.474 12.252,11.520 12.180,11.520 12.058 C 11.520 11.764,11.316 11.560,11.022 11.560 C 10.916 11.560,10.837 11.597,10.710 11.707 M12.734 12.082 C 12.488 12.240,12.419 12.577,12.591 12.781 C 12.782 13.007,12.719 13.000,14.525 13.000 L 16.192 13.000 16.314 12.861 C 16.546 12.597,16.517 12.283,16.245 12.097 L 16.101 12.000 14.481 12.001 C 12.923 12.001,12.855 12.005,12.734 12.082 M10.710 15.707 C 10.617 15.788,10.203 16.189,9.790 16.597 L 9.041 17.339 8.730 17.036 C 8.560 16.869,8.368 16.694,8.305 16.646 C 7.957 16.386,7.403 16.777,7.563 17.169 C 7.637 17.350,8.750 18.468,8.890 18.502 C 9.167 18.569,9.244 18.517,10.089 17.688 C 10.530 17.254,11.033 16.743,11.206 16.550 C 11.474 16.252,11.520 16.180,11.520 16.058 C 11.520 15.764,11.316 15.560,11.022 15.560 C 10.916 15.560,10.837 15.597,10.710 15.707 M12.734 16.082 C 12.488 16.240,12.419 16.577,12.591 16.781 C 12.782 17.007,12.719 17.000,14.525 17.000 L 16.192 17.000 16.314 16.861 C 16.546 16.597,16.517 16.283,16.245 16.097 L 16.101 16.000 14.481 16.001 C 12.923 16.001,12.855 16.005,12.734 16.082 " fill="#127277" stroke="none" fill-rule="evenodd"></path></svg>
