<svg width="24" height="25" viewBox="0 0 24 25" fill="none" xmlns="http://www.w3.org/2000/svg"><path d="M9.140 2.599 C 8.426 2.619,8.236 2.637,8.133 2.691 C 7.962 2.782,7.377 3.376,7.260 3.577 C 7.134 3.794,7.000 4.205,7.000 4.373 L 7.000 4.508 6.170 4.535 C 4.567 4.586,4.196 4.609,4.141 4.664 C 4.105 4.701,4.078 4.927,4.054 5.389 C 4.013 6.198,4.016 20.434,4.057 20.927 C 4.073 21.118,4.108 21.303,4.135 21.340 C 4.166 21.382,4.282 21.419,4.462 21.442 C 4.615 21.462,6.981 21.491,9.720 21.506 L 14.700 21.533 15.048 21.688 C 15.651 21.955,15.903 22.000,16.796 21.999 L 17.580 21.997 17.925 21.866 C 18.524 21.638,18.858 21.422,19.324 20.960 C 19.880 20.410,20.196 19.872,20.380 19.160 C 20.475 18.794,20.463 17.702,20.359 17.296 C 20.208 16.703,19.862 16.134,19.333 15.609 C 19.041 15.319,18.487 14.926,18.175 14.786 L 18.010 14.712 17.986 9.926 C 17.973 7.294,17.947 5.035,17.928 4.907 C 17.910 4.779,17.872 4.660,17.844 4.643 C 17.791 4.610,17.209 4.578,15.835 4.535 L 15.010 4.509 14.989 4.301 C 14.943 3.855,14.507 3.133,14.144 2.901 C 13.739 2.642,13.706 2.635,12.620 2.598 C 11.524 2.561,10.491 2.561,9.140 2.599 M11.917 3.556 L 13.455 3.587 13.664 3.811 C 13.813 3.972,13.879 4.079,13.897 4.188 C 13.941 4.462,13.999 5.095,13.999 5.310 L 14.000 5.520 11.000 5.520 L 8.000 5.520 8.000 5.330 C 8.000 5.026,8.078 4.272,8.124 4.129 C 8.177 3.966,8.329 3.783,8.535 3.634 L 8.692 3.520 9.536 3.523 C 10.000 3.524,11.072 3.539,11.917 3.556 M7.000 5.682 C 7.000 5.932,7.076 6.178,7.199 6.325 L 7.310 6.458 7.845 6.485 C 8.540 6.521,13.460 6.521,14.155 6.485 L 14.690 6.458 14.801 6.325 C 14.924 6.178,15.000 5.932,15.000 5.682 L 15.000 5.520 16.000 5.520 L 17.000 5.520 17.000 9.995 L 17.000 14.471 16.690 14.498 C 16.237 14.537,15.727 14.629,15.351 14.738 C 15.031 14.831,15.017 14.832,14.940 14.762 C 14.737 14.579,14.773 14.582,12.467 14.567 C 10.033 14.551,10.199 14.534,10.064 14.817 C 9.992 14.969,10.031 15.172,10.160 15.311 C 10.308 15.469,10.507 15.489,12.247 15.515 C 13.163 15.529,13.925 15.552,13.940 15.567 C 13.955 15.581,13.869 15.734,13.749 15.907 C 13.453 16.333,13.354 16.510,13.143 16.997 C 13.044 17.226,12.941 17.427,12.914 17.444 C 12.829 17.497,12.321 17.531,11.261 17.556 L 10.223 17.580 10.131 17.716 C 9.945 17.992,10.055 18.352,10.352 18.442 C 10.438 18.468,11.003 18.496,11.705 18.509 L 12.910 18.531 12.933 18.721 C 12.953 18.890,13.146 19.489,13.406 20.188 C 13.457 20.324,13.484 20.449,13.467 20.467 C 13.449 20.484,11.537 20.505,9.217 20.514 L 5.000 20.529 5.000 13.025 L 5.000 5.520 6.000 5.520 L 7.000 5.520 7.000 5.682 M7.320 8.605 C 7.134 8.679,7.040 8.802,7.040 8.971 C 7.040 9.346,7.333 9.500,8.040 9.499 C 8.572 9.499,8.767 9.428,8.919 9.181 C 8.994 9.060,9.000 9.022,8.962 8.905 C 8.884 8.671,8.809 8.634,8.332 8.597 C 7.764 8.554,7.443 8.556,7.320 8.605 M10.242 8.651 C 10.188 8.678,10.110 8.759,10.067 8.832 C 9.994 8.958,9.993 8.971,10.059 9.143 C 10.158 9.403,10.266 9.444,10.938 9.483 C 11.712 9.528,14.344 9.526,14.540 9.481 C 14.777 9.426,14.960 9.211,14.959 8.991 C 14.957 8.776,14.887 8.682,14.693 8.637 C 14.442 8.579,10.359 8.591,10.242 8.651 M7.320 11.605 C 7.134 11.679,7.040 11.802,7.040 11.971 C 7.040 12.346,7.333 12.500,8.040 12.499 C 8.572 12.499,8.767 12.428,8.919 12.181 C 8.994 12.060,9.000 12.022,8.962 11.905 C 8.884 11.671,8.809 11.634,8.332 11.597 C 7.764 11.554,7.443 11.556,7.320 11.605 M10.242 11.651 C 10.188 11.678,10.110 11.759,10.067 11.832 C 9.994 11.958,9.993 11.971,10.059 12.143 C 10.158 12.403,10.266 12.444,10.938 12.483 C 11.712 12.528,14.344 12.526,14.540 12.481 C 14.777 12.426,14.960 12.211,14.959 11.991 C 14.957 11.776,14.887 11.682,14.693 11.637 C 14.442 11.579,10.359 11.591,10.242 11.651 M7.320 14.605 C 7.134 14.679,7.040 14.802,7.040 14.971 C 7.040 15.346,7.333 15.500,8.040 15.499 C 8.572 15.499,8.767 15.428,8.919 15.181 C 8.994 15.060,9.000 15.022,8.962 14.905 C 8.884 14.671,8.809 14.634,8.332 14.597 C 7.764 14.554,7.443 14.556,7.320 14.605 M17.624 15.719 C 18.259 15.973,18.640 16.269,18.986 16.780 C 19.299 17.241,19.355 17.393,19.404 17.908 C 19.489 18.808,19.334 19.387,18.845 20.000 C 18.394 20.564,17.904 20.852,17.107 21.022 C 16.595 21.131,16.190 21.072,15.618 20.804 C 14.582 20.318,13.995 19.415,13.991 18.300 C 13.988 17.474,14.337 16.715,14.972 16.167 C 15.492 15.717,16.025 15.552,16.864 15.579 C 17.250 15.591,17.351 15.610,17.624 15.719 M16.642 16.169 C 16.485 16.252,16.433 16.499,16.411 17.284 L 16.390 17.989 15.547 18.024 L 14.703 18.060 14.611 18.196 C 14.508 18.349,14.491 18.600,14.572 18.760 C 14.666 18.947,14.848 18.977,15.900 18.977 C 16.910 18.977,17.125 18.949,17.260 18.800 C 17.320 18.733,17.338 18.614,17.365 18.107 C 17.382 17.770,17.382 17.229,17.364 16.905 C 17.336 16.384,17.322 16.305,17.248 16.231 C 17.145 16.127,16.789 16.091,16.642 16.169 M7.320 17.605 C 7.134 17.679,7.040 17.802,7.040 17.971 C 7.040 18.346,7.333 18.500,8.040 18.499 C 8.572 18.499,8.767 18.428,8.919 18.181 C 8.994 18.060,9.000 18.022,8.962 17.905 C 8.884 17.671,8.809 17.634,8.332 17.597 C 7.764 17.554,7.443 17.556,7.320 17.605 " fill="#EC0000" stroke="none" fill-rule="evenodd"></path></svg>