<svg width="24" height="24" viewBox="0 0 24 24" fill="none" xmlns="http://www.w3.org/2000/svg"><path d="M8.138 2.039 L 6.456 2.060 6.150 2.211 C 5.509 2.528,5.096 3.114,5.036 3.791 C 5.019 3.983,5.004 7.257,5.003 11.067 L 5.000 17.994 3.690 18.007 C 1.898 18.025,2.005 17.943,2.003 19.300 C 2.001 20.554,2.094 20.880,2.602 21.388 C 3.018 21.804,3.258 21.911,3.886 21.960 C 4.536 22.010,16.739 22.011,17.219 21.961 C 17.984 21.880,18.611 21.389,18.892 20.650 L 18.979 20.420 18.991 13.212 L 19.003 6.005 20.311 5.992 C 22.101 5.975,21.995 6.057,21.997 4.700 C 21.998 4.126,21.981 3.776,21.942 3.595 C 21.811 2.975,21.419 2.486,20.830 2.206 L 20.500 2.049 15.160 2.033 C 12.223 2.024,9.063 2.027,8.138 2.039 M18.178 3.203 C 18.092 3.373,18.070 3.491,18.039 3.933 C 18.019 4.223,18.001 7.700,18.000 11.660 C 17.998 15.620,17.981 19.206,17.962 19.630 C 17.923 20.511,17.905 20.566,17.587 20.785 C 17.144 21.091,16.675 21.056,16.298 20.690 C 16.046 20.445,16.030 20.369,16.004 19.293 C 15.982 18.398,15.974 18.317,15.897 18.215 C 15.852 18.154,15.762 18.086,15.697 18.065 C 15.623 18.040,13.815 18.019,10.790 18.010 L 6.000 17.996 6.002 11.468 C 6.004 4.794,6.022 3.708,6.132 3.497 C 6.202 3.362,6.376 3.193,6.519 3.119 C 6.690 3.030,7.701 3.013,13.071 3.006 L 18.281 3.000 18.178 3.203 M8.236 6.096 C 8.060 6.217,7.982 6.389,8.017 6.579 C 8.062 6.818,8.184 6.919,8.480 6.961 C 8.820 7.010,15.180 7.010,15.520 6.961 C 15.721 6.932,15.800 6.901,15.868 6.822 C 15.999 6.671,16.023 6.474,15.934 6.292 C 15.794 6.005,16.022 6.021,12.000 6.008 L 8.380 5.997 8.236 6.096 M8.236 9.096 C 8.060 9.217,7.982 9.389,8.017 9.579 C 8.062 9.818,8.184 9.919,8.480 9.961 C 8.820 10.010,15.180 10.010,15.520 9.961 C 15.721 9.932,15.800 9.901,15.868 9.822 C 15.999 9.671,16.023 9.474,15.934 9.292 C 15.794 9.005,16.022 9.021,12.000 9.008 L 8.380 8.997 8.236 9.096 M8.236 12.096 C 8.060 12.217,7.982 12.389,8.017 12.579 C 8.062 12.818,8.184 12.919,8.480 12.961 C 8.820 13.010,15.180 13.010,15.520 12.961 C 15.721 12.932,15.800 12.901,15.868 12.822 C 15.999 12.671,16.023 12.474,15.934 12.292 C 15.794 12.005,16.022 12.021,12.000 12.008 L 8.380 11.997 8.236 12.096 M15.011 19.710 C 15.029 20.302,15.047 20.462,15.121 20.672 C 15.169 20.811,15.196 20.937,15.181 20.952 C 15.166 20.968,12.603 20.980,9.487 20.980 C 4.837 20.980,3.788 20.970,3.640 20.926 C 3.436 20.864,3.214 20.655,3.101 20.416 C 3.041 20.291,3.023 20.134,3.008 19.630 L 2.989 19.000 8.989 19.000 L 14.989 19.000 15.011 19.710 " fill="#EC0000" stroke="none" fill-rule="evenodd"></path></svg>