<svg width="24" height="25" viewBox="0 0 24 25" fill="none" xmlns="http://www.w3.org/2000/svg"><path d="M3.184 4.639 L 2.189 4.660 2.114 4.760 C 2.041 4.857,2.039 5.071,2.039 11.267 C 2.039 15.426,2.054 17.776,2.080 17.967 C 2.169 18.603,2.353 18.974,2.837 19.489 C 3.270 19.951,3.626 20.172,4.307 20.402 L 4.655 20.520 12.058 20.519 L 19.460 20.518 19.897 20.340 C 20.465 20.107,20.764 19.908,21.149 19.507 C 21.494 19.148,21.640 18.917,21.857 18.392 L 22.000 18.045 21.998 14.512 C 21.997 11.198,21.957 8.744,21.904 8.691 C 21.839 8.625,21.308 8.598,19.256 8.553 L 17.012 8.505 16.988 6.782 C 16.971 5.579,16.948 5.000,16.912 4.860 L 16.860 4.660 16.260 4.635 C 15.545 4.606,4.613 4.609,3.184 4.639 M16.011 11.811 L 16.034 18.102 16.157 18.411 C 16.224 18.581,16.352 18.864,16.440 19.039 C 16.528 19.215,16.600 19.383,16.600 19.413 C 16.600 19.484,13.915 19.520,8.546 19.520 L 4.633 19.520 4.276 19.336 C 3.848 19.115,3.592 18.894,3.344 18.530 C 3.206 18.328,3.149 18.198,3.119 18.020 C 3.078 17.778,3.003 11.034,3.001 7.410 L 3.000 5.520 9.494 5.520 L 15.987 5.520 16.011 11.811 M5.366 7.637 C 5.095 7.670,5.054 7.726,5.018 8.106 C 4.976 8.557,5.023 10.992,5.078 11.170 C 5.153 11.417,5.249 11.452,5.935 11.485 C 6.764 11.525,12.273 11.524,13.049 11.484 C 13.772 11.446,13.849 11.417,13.926 11.150 C 13.982 10.954,14.001 8.365,13.948 8.000 C 13.901 7.672,13.892 7.664,13.492 7.634 C 13.043 7.600,5.652 7.603,5.366 7.637 M13.000 9.520 L 13.000 10.520 9.500 10.520 L 6.000 10.520 6.000 9.520 L 6.000 8.520 9.500 8.520 L 13.000 8.520 13.000 9.520 M20.983 12.610 C 20.951 16.121,20.906 17.845,20.839 18.150 C 20.750 18.557,20.197 19.146,19.743 19.315 C 18.875 19.640,18.024 19.404,17.446 18.679 C 17.138 18.292,17.119 18.189,17.079 16.741 C 17.059 16.036,17.031 14.123,17.015 12.490 L 16.987 9.520 18.999 9.520 L 21.011 9.520 20.983 12.610 M6.405 13.597 C 5.200 13.625,5.188 13.626,5.115 13.717 C 4.967 13.899,5.064 14.284,5.287 14.404 C 5.428 14.479,8.658 14.530,11.360 14.501 C 13.654 14.475,13.660 14.475,13.754 14.388 C 13.952 14.203,14.022 13.900,13.904 13.739 C 13.856 13.673,13.774 13.660,13.254 13.636 C 12.302 13.593,7.731 13.567,6.405 13.597 M6.405 16.597 C 5.200 16.625,5.188 16.626,5.115 16.717 C 4.967 16.899,5.064 17.284,5.287 17.404 C 5.428 17.479,8.658 17.530,11.360 17.501 C 13.654 17.475,13.660 17.475,13.754 17.388 C 13.952 17.203,14.022 16.900,13.904 16.739 C 13.856 16.673,13.774 16.660,13.254 16.636 C 12.302 16.593,7.731 16.567,6.405 16.597 " fill="#EC0000" stroke="none" fill-rule="evenodd"></path></svg>