<svg width="24" height="25" viewBox="0 0 24 25" fill="none" xmlns="http://www.w3.org/2000/svg"><path d="M13.324 4.781 C 12.867 5.021,12.616 5.198,12.245 5.542 L 12.000 5.769 11.750 5.537 C 11.385 5.199,11.067 4.975,10.660 4.770 L 10.300 4.588 6.300 4.613 C 4.100 4.626,2.261 4.649,2.214 4.662 C 2.166 4.676,2.114 4.726,2.098 4.774 C 2.036 4.955,1.988 11.011,2.024 14.123 L 2.060 17.247 2.150 17.320 C 2.199 17.360,2.325 17.403,2.430 17.416 C 2.710 17.451,4.854 17.512,7.580 17.563 L 9.979 17.608 10.160 17.711 C 10.441 17.873,10.919 18.383,11.087 18.701 C 11.168 18.855,11.318 19.257,11.421 19.597 C 11.523 19.936,11.632 20.252,11.664 20.300 C 11.775 20.470,12.065 20.534,12.224 20.423 C 12.325 20.352,12.391 20.198,12.601 19.540 C 12.904 18.589,13.179 18.154,13.692 17.811 L 13.990 17.611 15.285 17.585 C 21.602 17.456,21.725 17.452,21.825 17.352 C 21.947 17.230,21.967 16.333,21.973 10.531 L 21.980 4.802 21.890 4.712 L 21.800 4.623 19.330 4.595 C 17.972 4.579,16.158 4.566,15.300 4.564 L 13.740 4.562 13.324 4.781 M10.360 5.734 C 10.691 5.946,11.054 6.309,11.265 6.640 L 11.431 6.900 11.458 12.169 L 11.484 17.438 11.139 17.178 C 10.949 17.035,10.633 16.837,10.438 16.739 L 10.082 16.560 8.647 16.560 C 7.859 16.560,6.265 16.548,5.107 16.533 L 3.000 16.507 3.000 11.011 L 3.000 5.515 6.550 5.542 L 10.100 5.569 10.360 5.734 M21.000 11.013 L 21.000 16.507 18.690 16.533 C 17.419 16.548,15.826 16.560,15.149 16.560 L 13.918 16.560 13.669 16.685 C 13.362 16.839,12.918 17.122,12.684 17.312 L 12.508 17.455 12.537 13.017 C 12.569 7.956,12.598 6.927,12.712 6.670 C 12.797 6.478,13.274 5.951,13.509 5.788 C 13.594 5.729,13.766 5.661,13.891 5.638 C 14.116 5.597,17.101 5.539,19.670 5.526 L 21.000 5.520 21.000 11.013 M4.303 7.639 C 4.092 7.680,4.029 7.773,4.051 8.011 C 4.072 8.238,4.186 8.380,4.397 8.442 C 4.568 8.491,9.066 8.546,9.412 8.503 C 9.604 8.479,9.670 8.449,9.802 8.323 C 9.940 8.191,9.960 8.150,9.960 7.994 C 9.960 7.746,9.894 7.673,9.636 7.636 C 9.357 7.597,4.510 7.600,4.303 7.639 M14.303 7.639 C 14.092 7.680,14.029 7.773,14.051 8.011 C 14.072 8.238,14.186 8.380,14.397 8.442 C 14.568 8.491,19.066 8.546,19.412 8.503 C 19.604 8.479,19.670 8.449,19.802 8.323 C 19.940 8.191,19.960 8.150,19.960 7.994 C 19.960 7.746,19.894 7.673,19.636 7.636 C 19.357 7.597,14.510 7.600,14.303 7.639 M4.303 10.639 C 4.092 10.680,4.029 10.773,4.051 11.011 C 4.072 11.238,4.186 11.380,4.397 11.442 C 4.568 11.491,9.066 11.546,9.412 11.503 C 9.604 11.479,9.670 11.449,9.802 11.323 C 9.940 11.191,9.960 11.150,9.960 10.994 C 9.960 10.746,9.894 10.673,9.636 10.636 C 9.357 10.597,4.510 10.600,4.303 10.639 M14.303 10.639 C 14.092 10.680,14.029 10.773,14.051 11.011 C 14.072 11.238,14.186 11.380,14.397 11.442 C 14.568 11.491,19.066 11.546,19.412 11.503 C 19.604 11.479,19.670 11.449,19.802 11.323 C 19.940 11.191,19.960 11.150,19.960 10.994 C 19.960 10.746,19.894 10.673,19.636 10.636 C 19.357 10.597,14.510 10.600,14.303 10.639 M4.303 13.639 C 4.092 13.680,4.029 13.773,4.051 14.011 C 4.072 14.238,4.186 14.380,4.397 14.442 C 4.568 14.491,9.066 14.546,9.412 14.503 C 9.604 14.479,9.670 14.449,9.802 14.323 C 9.940 14.191,9.960 14.150,9.960 13.994 C 9.960 13.746,9.894 13.673,9.636 13.636 C 9.357 13.597,4.510 13.600,4.303 13.639 M14.303 13.639 C 14.092 13.680,14.029 13.773,14.051 14.011 C 14.072 14.238,14.186 14.380,14.397 14.442 C 14.568 14.491,19.066 14.546,19.412 14.503 C 19.604 14.479,19.670 14.449,19.802 14.323 C 19.940 14.191,19.960 14.150,19.960 13.994 C 19.960 13.746,19.894 13.673,19.636 13.636 C 19.357 13.597,14.510 13.600,14.303 13.639 " fill="#EC0000" stroke="none" fill-rule="evenodd"></path></svg>