<svg width="25" height="25" viewBox="0 0 25 25" fill="none" xmlns="http://www.w3.org/2000/svg"><path d="M6.420 5.010 C 5.919 5.083,5.398 5.501,5.201 5.988 L 5.104 6.229 5.104 12.958 C 5.104 19.309,5.108 19.698,5.178 19.875 C 5.297 20.176,5.531 20.483,5.763 20.642 C 6.203 20.942,5.713 20.921,12.181 20.918 C 17.860 20.914,18.012 20.912,18.166 20.834 C 18.369 20.730,18.598 20.462,18.660 20.256 C 18.696 20.136,18.708 18.248,18.708 12.933 L 18.708 5.771 18.609 5.560 C 18.493 5.310,18.267 5.110,18.027 5.045 C 17.827 4.991,6.784 4.958,6.420 5.010 M7.073 6.076 C 7.353 6.275,7.333 5.764,7.333 12.958 C 7.333 18.877,7.327 19.479,7.266 19.609 C 7.170 19.811,6.985 19.929,6.733 19.949 C 6.482 19.969,6.287 19.861,6.148 19.625 C 6.063 19.480,6.062 19.448,6.050 13.146 C 6.043 9.662,6.049 6.715,6.063 6.596 C 6.112 6.187,6.386 5.939,6.755 5.970 C 6.862 5.979,7.003 6.026,7.073 6.076 M17.750 12.958 L 17.750 19.958 12.975 19.958 L 8.199 19.958 8.235 19.844 C 8.282 19.694,8.282 6.223,8.235 6.073 L 8.199 5.958 12.975 5.958 L 17.750 5.958 17.750 12.958 M10.396 8.998 C 10.140 9.104,10.010 9.468,10.147 9.698 C 10.307 9.970,10.178 9.958,13.101 9.958 L 15.751 9.958 15.899 9.823 C 16.159 9.584,16.132 9.252,15.837 9.053 L 15.696 8.958 13.088 8.961 C 11.653 8.962,10.442 8.979,10.396 8.998 M10.443 12.001 C 10.274 12.052,10.173 12.157,10.119 12.336 C 10.080 12.467,10.085 12.517,10.151 12.652 C 10.307 12.972,10.190 12.961,13.132 12.948 C 15.710 12.938,15.745 12.936,15.862 12.850 C 16.116 12.661,16.116 12.256,15.862 12.066 C 15.745 11.980,15.712 11.979,13.153 11.972 C 11.728 11.968,10.509 11.981,10.443 12.001 " fill="#127277" stroke="none" fill-rule="evenodd"></path></svg>