<svg width="24" height="25" viewBox="0 0 24 25" fill="none" xmlns="http://www.w3.org/2000/svg"><path d="M6.255 2.636 C 6.068 2.750,6.035 2.900,6.011 3.724 L 5.989 4.468 4.905 4.496 C 3.613 4.529,3.341 4.561,3.015 4.721 C 2.725 4.862,2.322 5.268,2.141 5.601 L 2.022 5.820 2.007 13.326 L 1.991 20.833 2.078 21.094 C 2.250 21.611,2.661 22.091,3.160 22.357 L 3.391 22.480 8.866 22.476 C 11.877 22.474,15.753 22.459,17.480 22.442 C 20.963 22.408,20.844 22.418,21.183 22.140 C 21.386 21.973,21.754 21.530,21.862 21.320 C 21.971 21.111,21.993 19.617,21.997 12.248 L 22.000 5.917 21.914 5.748 C 21.663 5.253,21.299 4.859,20.947 4.699 C 20.659 4.567,20.225 4.521,19.030 4.492 L 18.000 4.468 17.999 3.924 C 17.997 3.130,17.954 2.855,17.809 2.711 C 17.569 2.471,17.167 2.536,17.079 2.830 C 17.054 2.913,17.024 3.317,17.012 3.730 L 16.989 4.480 12.000 4.480 L 7.011 4.480 6.989 3.710 C 6.977 3.264,6.948 2.885,6.920 2.809 C 6.833 2.572,6.501 2.486,6.255 2.636 M6.002 6.050 C 6.003 6.364,6.019 6.755,6.038 6.919 C 6.068 7.177,6.089 7.232,6.191 7.323 C 6.357 7.472,6.583 7.509,6.716 7.409 C 6.954 7.232,6.979 7.131,6.994 6.270 L 7.008 5.480 11.999 5.480 L 16.989 5.480 17.011 6.270 C 17.043 7.378,17.080 7.466,17.508 7.431 C 17.837 7.404,17.923 7.298,17.963 6.873 C 17.981 6.690,17.996 6.301,17.997 6.010 L 18.000 5.480 18.310 5.480 C 18.899 5.481,20.342 5.560,20.479 5.600 C 20.554 5.621,20.693 5.715,20.788 5.808 L 20.960 5.977 20.960 7.248 L 20.960 8.520 12.000 8.520 L 3.040 8.520 3.041 7.510 C 3.043 6.429,3.081 5.965,3.183 5.810 C 3.341 5.568,3.795 5.498,5.290 5.486 L 6.000 5.480 6.002 6.050 M21.000 10.750 C 20.999 12.896,20.919 19.564,20.885 20.307 C 20.850 21.065,20.834 21.132,20.627 21.350 L 20.504 21.480 12.021 21.480 L 3.538 21.480 3.294 21.230 L 3.050 20.980 3.024 15.250 L 2.998 9.520 11.999 9.520 L 21.000 9.520 21.000 10.750 " fill="#EC0000" stroke="none" fill-rule="evenodd"></path></svg>