<svg width="24" height="25" viewBox="0 0 24 25" fill="none" xmlns="http://www.w3.org/2000/svg"><path d="M6.271 2.620 C 6.067 2.759,6.037 2.893,6.011 3.770 L 5.990 4.520 5.625 4.524 C 5.424 4.527,4.808 4.540,4.256 4.554 L 3.253 4.580 3.030 4.728 C 2.688 4.955,2.277 5.359,2.191 5.551 C 2.032 5.911,2.022 6.372,2.021 13.920 L 2.020 21.140 2.177 21.419 C 2.363 21.750,2.798 22.193,3.061 22.320 C 3.164 22.370,3.368 22.427,3.514 22.447 C 3.910 22.500,16.950 22.534,18.940 22.487 C 20.308 22.454,20.654 22.435,20.802 22.383 C 21.161 22.255,21.638 21.778,21.905 21.280 C 21.978 21.145,21.980 20.906,21.979 13.960 C 21.977 6.435,21.967 5.906,21.807 5.547 C 21.723 5.359,21.308 4.953,20.970 4.728 L 20.747 4.580 19.744 4.554 C 19.192 4.540,18.573 4.527,18.370 4.524 L 18.000 4.520 18.000 3.885 C 18.000 3.536,17.982 3.154,17.960 3.035 C 17.883 2.618,17.518 2.434,17.196 2.651 C 17.033 2.761,17.021 2.821,16.982 3.741 C 16.966 4.092,16.945 4.412,16.934 4.450 C 16.916 4.516,16.646 4.520,11.983 4.520 L 7.052 4.520 7.024 3.950 C 6.992 3.299,6.942 2.892,6.875 2.745 C 6.827 2.640,6.623 2.520,6.493 2.520 C 6.452 2.520,6.352 2.565,6.271 2.620 M6.002 6.170 C 6.004 6.995,6.031 7.139,6.214 7.308 C 6.401 7.479,6.513 7.503,6.704 7.413 C 6.951 7.297,6.974 7.208,6.993 6.310 L 7.009 5.520 12.000 5.520 L 16.991 5.520 17.008 6.310 C 17.029 7.231,17.062 7.361,17.296 7.439 C 17.581 7.533,17.900 7.319,17.963 6.993 C 17.981 6.898,17.997 6.527,17.998 6.170 L 18.000 5.520 18.370 5.521 C 19.263 5.525,20.428 5.594,20.567 5.652 C 20.895 5.789,20.945 6.009,20.985 7.510 L 21.013 8.520 12.000 8.520 L 2.987 8.520 3.012 7.550 C 3.040 6.500,3.091 5.993,3.186 5.846 C 3.340 5.608,3.801 5.538,5.290 5.526 L 6.000 5.520 6.002 6.170 M20.982 14.070 C 20.966 16.573,20.939 19.154,20.922 19.807 C 20.886 21.173,20.888 21.167,20.518 21.394 L 20.300 21.528 11.965 21.507 L 3.631 21.486 3.447 21.372 C 3.115 21.167,3.114 21.165,3.078 19.748 C 3.061 19.061,3.034 16.480,3.018 14.010 L 2.989 9.520 12.000 9.520 L 21.010 9.520 20.982 14.070 M15.306 12.036 C 15.080 12.185,14.617 12.819,12.500 15.880 C 11.823 16.859,11.265 17.666,11.259 17.673 C 11.253 17.679,10.667 17.117,9.958 16.423 C 8.476 14.973,8.543 15.015,8.219 15.339 C 8.121 15.437,8.040 15.551,8.040 15.591 C 8.040 15.715,8.248 15.998,8.723 16.520 C 9.376 17.239,10.955 18.817,11.120 18.916 C 11.402 19.085,11.496 19.027,11.974 18.387 C 12.830 17.241,15.547 13.229,15.833 12.690 C 15.914 12.536,15.956 12.410,15.941 12.363 C 15.907 12.256,15.576 11.960,15.491 11.960 C 15.452 11.960,15.369 11.994,15.306 12.036 " fill="#EC0000" stroke="none" fill-rule="evenodd"></path></svg>