<svg width="24" height="25" viewBox="0 0 24 25" fill="none" xmlns="http://www.w3.org/2000/svg"><path d="M6.271 2.620 C 6.067 2.759,6.037 2.893,6.011 3.764 L 5.990 4.508 5.268 4.534 C 4.872 4.548,4.268 4.560,3.926 4.560 C 3.158 4.560,3.095 4.585,2.576 5.099 C 2.270 5.402,2.196 5.500,2.137 5.682 C 2.071 5.882,2.063 6.201,2.038 9.520 C 2.022 11.511,2.008 14.922,2.006 17.100 C 2.001 21.585,1.969 21.143,2.336 21.656 C 2.608 22.036,2.909 22.250,3.407 22.417 L 3.714 22.520 12.000 22.520 L 20.286 22.520 20.589 22.418 C 20.965 22.292,21.170 22.173,21.413 21.941 C 21.627 21.735,21.892 21.345,21.963 21.131 C 22.023 20.950,21.986 6.971,21.924 6.210 C 21.898 5.892,21.857 5.659,21.808 5.550 C 21.723 5.359,21.311 4.955,20.970 4.728 L 20.747 4.580 19.744 4.554 C 19.192 4.540,18.573 4.527,18.370 4.524 L 18.000 4.520 17.999 3.950 C 17.998 3.319,17.947 2.868,17.862 2.737 C 17.831 2.690,17.741 2.621,17.661 2.583 C 17.544 2.528,17.492 2.523,17.384 2.559 C 17.079 2.659,17.023 2.847,16.974 3.930 L 16.948 4.520 12.000 4.520 L 7.052 4.520 7.024 3.950 C 6.992 3.299,6.942 2.892,6.875 2.745 C 6.827 2.640,6.623 2.520,6.493 2.520 C 6.452 2.520,6.352 2.565,6.271 2.620 M6.002 6.170 C 6.004 6.995,6.031 7.139,6.214 7.308 C 6.401 7.479,6.513 7.503,6.704 7.413 C 6.951 7.297,6.974 7.208,6.993 6.310 L 7.009 5.520 11.999 5.520 L 16.989 5.520 17.011 6.290 C 17.043 7.377,17.082 7.466,17.508 7.431 C 17.837 7.404,17.923 7.298,17.963 6.873 C 17.981 6.690,17.996 6.310,17.997 6.030 L 18.000 5.520 18.370 5.521 C 19.263 5.525,20.428 5.594,20.567 5.652 C 20.895 5.789,20.945 6.009,20.985 7.510 L 21.013 8.520 12.000 8.520 L 2.987 8.520 3.012 7.550 C 3.040 6.500,3.091 5.993,3.186 5.846 C 3.340 5.608,3.801 5.538,5.290 5.526 L 6.000 5.520 6.002 6.170 M20.984 13.750 C 20.969 16.077,20.940 18.660,20.921 19.492 L 20.887 21.004 20.776 21.152 C 20.715 21.233,20.610 21.349,20.543 21.408 L 20.420 21.517 12.025 21.518 L 3.631 21.520 3.434 21.376 C 3.112 21.139,3.111 21.136,3.077 19.840 C 3.061 19.213,3.035 16.634,3.019 14.110 L 2.990 9.520 12.001 9.520 L 21.013 9.520 20.984 13.750 M11.460 11.741 C 11.073 11.934,10.604 12.310,10.424 12.571 C 10.230 12.853,10.080 13.270,10.052 13.603 C 10.013 14.068,10.169 14.329,10.491 14.336 C 10.786 14.343,10.851 14.268,11.038 13.705 C 11.216 13.171,11.357 12.958,11.695 12.714 C 11.849 12.602,11.863 12.600,12.382 12.600 L 12.913 12.600 13.108 12.754 C 13.343 12.940,13.497 13.117,13.602 13.324 C 13.701 13.518,13.713 14.164,13.621 14.383 C 13.588 14.462,13.266 14.828,12.886 15.219 C 12.165 15.959,12.060 16.111,11.937 16.598 C 11.796 17.152,11.997 17.578,12.399 17.578 C 12.632 17.578,12.735 17.457,12.884 17.004 C 12.954 16.793,13.038 16.566,13.071 16.500 C 13.104 16.434,13.413 16.101,13.758 15.760 C 14.418 15.107,14.540 14.935,14.662 14.475 C 14.784 14.017,14.709 13.299,14.493 12.854 C 14.269 12.394,13.617 11.833,13.109 11.664 C 12.968 11.617,12.761 11.600,12.329 11.600 L 11.740 11.601 11.460 11.741 M12.074 18.354 C 11.961 18.455,11.942 18.502,11.915 18.756 C 11.874 19.139,11.930 19.620,12.030 19.755 C 12.150 19.918,12.363 19.954,12.579 19.849 C 12.815 19.734,12.851 19.608,12.833 18.946 C 12.820 18.441,12.818 18.431,12.708 18.336 C 12.540 18.192,12.246 18.200,12.074 18.354 " fill="#EC0000" stroke="none" fill-rule="evenodd"></path></svg>