<svg width="24" height="24" viewBox="0 0 24 24" fill="none" xmlns="http://www.w3.org/2000/svg">
<path fill-rule="evenodd" clip-rule="evenodd" d="M17.9924 2.41025C17.9501 2.177 17.746 2.00012 17.5005 2.00012L17.4106 2.00818C17.1774 2.05051 17.0005 2.25466 17.0005 2.50012L17 3.99912H7.004L7.0043 2.50012L6.99624 2.41025C6.95391 2.177 6.74976 2.00012 6.5043 2.00012L6.41442 2.00818C6.18118 2.05051 6.0043 2.25466 6.0043 2.50012L6.004 3.99912L3.80852 4.00002L3.66021 4.006C2.73087 4.08127 2 4.85764 2 5.80518V20.1949L2.006 20.343C2.08145 21.271 2.85976 22 3.80852 22H20.1915L20.3398 21.994C21.2691 21.9188 22 21.1424 22 20.1949V5.80518L21.994 5.65707C21.9185 4.72901 21.1402 4.00002 20.1915 4.00002L18 3.99912L18.0005 2.50012L17.9924 2.41025ZM3.80852 5.00002L6.004 4.99912L6.0043 6.49912L6.01236 6.589C6.05469 6.82225 6.25884 6.99912 6.5043 6.99912L6.59418 6.99107C6.82743 6.94873 7.0043 6.74458 7.0043 6.49912L7.004 4.99912H17L17.0005 6.49912L17.0086 6.589C17.0509 6.82225 17.255 6.99912 17.5005 6.99912L17.5904 6.99107C17.8236 6.94873 18.0005 6.74458 18.0005 6.49912L18 4.99912L20.1915 5.00002L20.293 5.0063C20.6919 5.056 21 5.39482 21 5.80518V20.1949L20.9937 20.2958C20.9439 20.6928 20.6041 21 20.1915 21H3.80852L3.70701 20.9937C3.30805 20.944 3 20.6052 3 20.1949V5.80518L3.00629 5.70421C3.05613 5.30728 3.39592 5.00002 3.80852 5.00002ZM14.7345 14.7928C16.5837 14.7928 18.0005 15.7682 18.0005 17.1408V17.6418C18.0005 18.3688 17.4468 18.9768 16.7404 18.9768L7.2605 18.9748C6.55343 18.9748 6.0005 18.3681 6.0005 17.6408V17.1398C6.0005 15.7988 7.52069 14.7928 9.2645 14.7928C9.41032 14.7928 9.56991 14.806 9.75391 14.8309L10.0356 14.8747L10.5759 14.9735C10.7594 15.0061 10.9423 15.0453 11.1242 15.091L11.4761 15.188L11.609 15.228C11.7931 15.2824 11.8999 15.3038 11.9995 15.3038C12.0259 15.3038 12.0583 15.3008 12.0982 15.2946L12.241 15.2659L12.436 15.2161L12.9204 15.0802C13.5933 14.9034 14.228 14.7928 14.7345 14.7928ZM13.4282 15.9838C13.9285 15.8646 14.3897 15.7928 14.7345 15.7928C16.0936 15.7928 17.0005 16.4171 17.0005 17.1408V17.6418C17.0005 17.8364 16.8726 17.9768 16.7405 17.9768L7.26061 17.9748C7.1275 17.9748 7.0005 17.8355 7.0005 17.6408V17.1398C7.0005 16.4589 8.00709 15.7928 9.2645 15.7928C9.3945 15.7928 9.56599 15.8111 9.78613 15.8469L10.6413 16.0052C10.8012 16.0395 10.9606 16.0795 11.1189 16.1252L11.4776 16.2296C11.6702 16.2799 11.8246 16.3038 11.9995 16.3038C12.1254 16.3038 12.2502 16.2883 12.4073 16.2541L12.6713 16.1885L13.0465 16.0825L13.4282 15.9838ZM11.9867 6.97722C13.6019 6.97722 15.0176 8.2277 14.8799 9.74718L14.56 12.3946C14.3599 13.7072 13.3233 14.6002 11.9867 14.6002C10.7088 14.6002 9.70795 13.7837 9.44633 12.5498L9.41528 12.379L9.12118 9.93148C8.85887 8.31844 10.3145 6.97722 11.9867 6.97722ZM10.0968 9.66673C10.036 8.75731 10.9286 7.97722 11.9867 7.97722C13.0939 7.97722 14.0221 8.83064 13.8692 9.77097L13.5693 12.2595L13.5404 12.4079C13.3677 13.133 12.776 13.6002 11.9867 13.6002C11.1459 13.6002 10.5319 13.0698 10.406 12.2439L10.0968 9.66673Z" fill="#EC0000"/>
</svg>
