<svg width="24" height="25" viewBox="0 0 24 25" fill="none" xmlns="http://www.w3.org/2000/svg"><path d="M8.980 4.603 C 6.828 4.620,5.386 4.648,5.200 4.675 C 4.967 4.709,4.793 4.772,4.419 4.958 C 3.881 5.227,3.576 5.436,3.180 5.806 C 2.687 6.267,2.439 6.660,2.145 7.450 L 1.999 7.839 2.010 12.550 L 2.020 17.260 2.187 17.640 C 2.797 19.029,3.576 19.767,4.926 20.235 C 5.729 20.513,5.201 20.493,12.040 20.509 L 18.220 20.523 18.780 20.339 C 20.261 19.852,21.031 19.218,21.656 17.973 C 22.039 17.209,22.000 17.824,22.000 12.521 L 22.000 7.845 21.896 7.552 C 21.398 6.151,20.528 5.304,18.970 4.702 L 18.603 4.560 15.532 4.567 C 13.842 4.571,10.894 4.587,8.980 4.603 M18.940 5.756 C 19.685 6.105,20.213 6.549,20.579 7.136 C 20.686 7.308,20.798 7.542,20.828 7.655 C 20.918 8.001,20.970 10.715,20.948 13.860 C 20.935 15.630,20.911 16.855,20.884 17.040 C 20.777 17.766,20.153 18.590,19.386 19.018 C 18.923 19.275,17.904 19.543,17.779 19.439 C 17.665 19.345,16.461 17.766,13.667 14.050 C 9.665 8.726,8.895 7.731,8.661 7.577 C 8.390 7.399,8.160 7.627,5.519 10.700 C 3.703 12.813,3.117 13.480,3.079 13.480 C 3.061 13.480,3.035 13.332,3.021 13.150 C 2.986 12.710,3.068 8.392,3.120 7.960 C 3.223 7.100,3.915 6.294,4.980 5.792 L 5.260 5.660 6.520 5.639 C 7.213 5.627,10.216 5.613,13.194 5.609 L 18.608 5.600 18.940 5.756 M15.860 7.614 C 14.875 7.871,14.039 8.916,14.040 9.891 C 14.041 10.718,14.218 11.154,14.772 11.700 C 15.065 11.988,15.212 12.098,15.496 12.241 L 15.851 12.420 16.476 12.419 C 17.011 12.418,17.132 12.405,17.327 12.333 C 17.964 12.095,18.598 11.457,18.842 10.806 C 18.947 10.528,18.985 9.972,18.927 9.567 C 18.840 8.951,18.436 8.369,17.811 7.958 C 17.381 7.676,17.114 7.595,16.540 7.577 C 16.226 7.567,15.991 7.580,15.860 7.614 M17.001 8.640 C 17.191 8.693,17.583 9.015,17.747 9.254 L 17.880 9.449 17.880 9.991 C 17.880 10.529,17.879 10.534,17.756 10.727 C 17.610 10.954,17.288 11.254,17.070 11.365 C 16.852 11.476,16.195 11.477,15.945 11.366 C 15.710 11.262,15.315 10.867,15.180 10.600 C 15.072 10.388,15.070 10.368,15.096 9.944 C 15.127 9.427,15.196 9.242,15.452 8.985 C 15.642 8.796,15.822 8.686,16.020 8.637 C 16.200 8.594,16.840 8.595,17.001 8.640 M9.645 10.414 C 10.553 11.608,15.497 18.204,16.051 18.960 C 16.221 19.191,16.359 19.400,16.360 19.425 C 16.360 19.503,14.167 19.532,10.200 19.507 C 8.165 19.494,6.285 19.465,6.022 19.443 C 5.466 19.394,5.070 19.277,4.663 19.039 C 3.865 18.572,3.291 17.871,3.136 17.170 C 3.098 16.999,3.068 16.577,3.054 16.020 L 3.032 15.140 4.821 13.060 C 6.923 10.617,7.817 9.590,8.189 9.197 L 8.459 8.911 8.609 9.080 C 8.691 9.173,9.158 9.773,9.645 10.414 " fill="#EC0000" stroke="none" fill-rule="evenodd"></path></svg>