<svg width="24" height="25" viewBox="0 0 24 25" fill="none" xmlns="http://www.w3.org/2000/svg"><path d="M3.800 4.598 C 3.353 4.618,3.281 4.631,3.120 4.726 C 2.656 4.999,2.365 5.315,2.106 5.829 L 2.000 6.037 2.001 12.509 L 2.001 18.980 2.163 19.272 C 2.252 19.432,2.443 19.689,2.588 19.843 C 2.802 20.069,2.925 20.159,3.232 20.311 L 3.612 20.500 12.012 20.510 L 20.412 20.521 20.713 20.358 C 21.323 20.029,21.726 19.616,21.866 19.177 C 21.946 18.926,21.993 16.107,21.997 11.320 L 21.999 8.020 21.833 7.720 C 21.627 7.348,21.235 6.949,20.860 6.731 L 20.580 6.569 15.661 6.545 L 10.741 6.521 9.760 5.540 L 8.779 4.560 6.540 4.568 C 5.308 4.572,4.075 4.585,3.800 4.598 M8.859 6.075 C 9.168 6.380,9.633 6.828,9.893 7.070 L 10.367 7.510 14.353 7.539 C 19.429 7.575,20.384 7.601,20.566 7.705 C 20.792 7.833,20.910 8.132,20.958 8.700 C 20.981 8.964,20.999 9.257,21.000 9.350 L 21.000 9.520 11.994 9.520 L 2.987 9.520 3.013 8.170 C 3.041 6.729,3.084 6.189,3.186 5.972 C 3.222 5.897,3.350 5.766,3.472 5.678 L 3.693 5.520 5.996 5.520 L 8.299 5.520 8.859 6.075 M21.000 11.590 C 21.000 12.178,20.982 14.082,20.960 15.820 L 20.920 18.980 20.756 19.129 C 20.667 19.210,20.510 19.332,20.410 19.399 L 20.226 19.520 12.000 19.520 L 3.774 19.520 3.590 19.399 C 3.490 19.332,3.333 19.210,3.243 19.129 L 3.078 18.980 3.040 15.980 C 3.018 14.330,3.001 12.427,3.000 11.750 L 3.000 10.520 12.000 10.520 L 21.000 10.520 21.000 11.590 " fill="#EC0000" stroke="none" fill-rule="evenodd"></path></svg>