<svg width="24" height="25" viewBox="0 0 24 25" fill="none" xmlns="http://www.w3.org/2000/svg"><path d="M7.862 4.630 C 7.357 4.640,7.210 4.655,7.156 4.704 C 7.071 4.781,7.000 5.056,7.000 5.309 L 7.000 5.503 6.390 5.549 C 5.597 5.609,5.407 5.668,5.142 5.933 C 4.820 6.256,4.668 6.572,2.955 10.474 L 2.000 12.649 2.000 16.018 L 2.000 19.388 2.153 19.624 C 2.332 19.901,2.703 20.245,2.952 20.366 C 3.108 20.441,3.231 20.453,4.133 20.483 C 5.443 20.526,18.557 20.526,19.867 20.483 C 20.769 20.453,20.892 20.441,21.048 20.366 C 21.297 20.245,21.668 19.901,21.847 19.624 L 22.000 19.388 22.000 16.041 L 22.000 12.694 21.045 10.517 C 19.338 6.625,19.179 6.295,18.839 5.954 C 18.555 5.668,18.380 5.612,17.595 5.551 L 17.010 5.507 16.991 5.238 C 16.980 5.091,16.937 4.900,16.896 4.815 C 16.822 4.664,16.813 4.659,16.560 4.635 C 16.305 4.610,9.121 4.606,7.862 4.630 M16.000 6.260 L 16.000 7.000 12.000 7.000 L 8.000 7.000 8.000 6.260 L 8.000 5.520 12.000 5.520 L 16.000 5.520 16.000 6.260 M7.000 6.753 L 7.000 6.986 6.689 7.027 C 6.349 7.072,6.102 7.168,6.059 7.273 C 6.044 7.310,6.022 7.830,6.010 8.430 L 5.988 9.520 5.724 9.520 C 5.391 9.520,5.206 9.607,5.108 9.808 C 5.049 9.929,5.031 10.099,5.012 10.738 L 4.988 11.520 4.368 11.520 L 3.749 11.520 3.770 11.363 C 3.832 10.906,5.702 6.690,5.875 6.618 C 5.981 6.574,6.359 6.531,6.690 6.525 L 7.000 6.520 7.000 6.753 M18.051 6.606 C 18.207 6.688,18.547 7.379,19.500 9.541 C 20.194 11.117,20.314 11.434,20.238 11.482 C 20.206 11.502,19.917 11.519,19.596 11.519 L 19.012 11.520 18.989 10.770 C 18.955 9.666,18.894 9.552,18.323 9.526 L 18.011 9.512 17.990 8.426 C 17.978 7.829,17.956 7.310,17.941 7.273 C 17.898 7.168,17.651 7.072,17.311 7.027 L 17.000 6.986 17.000 6.748 L 17.000 6.511 17.490 6.540 C 17.759 6.556,18.012 6.586,18.051 6.606 M17.000 8.760 L 17.000 9.520 12.000 9.520 L 7.000 9.520 7.000 8.760 L 7.000 8.000 12.000 8.000 L 17.000 8.000 17.000 8.760 M18.000 11.020 L 18.000 11.520 17.690 11.520 C 17.215 11.520,16.157 11.595,16.003 11.639 C 15.928 11.660,15.796 11.727,15.710 11.787 C 15.528 11.913,14.992 12.523,14.546 13.112 L 14.237 13.520 12.006 13.520 L 9.775 13.520 9.410 13.050 C 8.889 12.377,8.556 12.003,8.318 11.822 C 8.050 11.618,7.800 11.572,6.770 11.535 L 6.000 11.507 6.000 11.014 L 6.000 10.520 12.000 10.520 L 18.000 10.520 18.000 11.020 M8.333 13.294 C 8.675 13.720,9.050 14.172,9.167 14.300 L 9.379 14.532 12.000 14.509 C 13.441 14.497,14.651 14.474,14.689 14.459 C 14.728 14.444,15.021 14.110,15.341 13.718 C 15.661 13.325,16.016 12.901,16.131 12.776 L 16.339 12.548 18.520 12.571 C 19.719 12.584,20.730 12.606,20.767 12.620 C 20.804 12.634,20.848 12.676,20.866 12.713 C 20.958 12.900,20.916 19.216,20.823 19.343 C 20.786 19.393,20.669 19.417,20.337 19.442 C 20.097 19.460,16.174 19.488,11.620 19.503 L 3.340 19.530 3.208 19.391 L 3.076 19.253 3.088 16.016 C 3.095 14.236,3.115 12.749,3.134 12.712 C 3.152 12.674,3.206 12.631,3.254 12.616 C 3.352 12.585,5.209 12.537,6.705 12.527 L 7.710 12.520 8.333 13.294 M9.400 15.627 C 9.141 15.667,9.123 15.679,9.071 15.850 C 9.002 16.081,9.003 17.908,9.074 18.150 C 9.150 18.414,9.238 18.449,9.894 18.485 C 10.711 18.528,13.403 18.525,14.065 18.480 C 14.376 18.459,14.679 18.423,14.737 18.401 C 14.949 18.321,14.972 18.175,14.970 16.975 C 14.968 15.706,14.962 15.675,14.679 15.633 C 14.493 15.605,9.576 15.599,9.400 15.627 M14.000 17.020 L 14.000 17.520 12.000 17.520 L 10.000 17.520 10.000 17.020 L 10.000 16.520 12.000 16.520 L 14.000 16.520 14.000 17.020 " fill="#EC0000" stroke="none" fill-rule="evenodd"></path></svg>