<svg width="24" height="25" viewBox="0 0 24 25" fill="none" xmlns="http://www.w3.org/2000/svg"><path d="M17.120 2.599 C 16.823 2.637,16.509 2.748,16.220 2.917 C 15.642 3.254,15.225 3.661,10.041 8.940 C 5.116 13.957,4.369 14.734,3.956 15.280 C 3.310 16.135,2.928 17.481,3.043 18.506 C 3.226 20.151,4.221 21.497,5.720 22.129 C 6.480 22.449,7.274 22.549,8.025 22.418 C 8.743 22.294,9.282 22.087,9.675 21.784 C 10.134 21.431,11.935 19.657,14.962 16.576 C 18.982 12.484,18.960 12.508,18.960 12.298 C 18.960 12.175,18.739 11.924,18.567 11.852 C 18.449 11.803,18.420 11.804,18.326 11.860 C 18.268 11.896,16.438 13.713,14.260 15.899 C 10.196 19.978,9.367 20.788,9.020 21.018 C 8.910 21.091,8.658 21.210,8.460 21.282 C 8.124 21.405,8.059 21.414,7.476 21.431 C 6.927 21.446,6.814 21.438,6.539 21.362 C 5.510 21.080,4.653 20.296,4.236 19.256 C 4.136 19.006,4.119 18.902,4.096 18.376 C 4.025 16.793,4.296 16.269,6.204 14.300 C 9.741 10.650,15.748 4.582,16.260 4.141 C 16.735 3.732,16.901 3.651,17.385 3.597 C 18.198 3.507,18.769 3.696,19.288 4.228 C 19.714 4.665,19.920 5.176,19.920 5.796 C 19.920 6.700,19.712 7.054,18.356 8.460 C 16.542 10.341,12.634 14.312,10.834 16.104 C 8.631 18.297,8.715 18.230,8.218 18.190 C 7.862 18.161,7.634 18.019,7.410 17.686 L 7.240 17.433 7.240 17.019 L 7.240 16.605 7.477 16.312 C 7.771 15.949,8.210 15.486,11.000 12.600 C 14.736 8.734,14.914 8.545,15.009 8.337 C 15.074 8.193,14.899 7.949,14.667 7.861 C 14.501 7.797,14.481 7.797,14.355 7.860 C 14.208 7.933,13.020 9.124,9.682 12.540 C 6.550 15.746,6.486 15.818,6.293 16.345 C 5.986 17.189,6.263 18.087,7.032 18.731 C 7.402 19.042,7.883 19.238,8.273 19.240 C 8.458 19.240,8.973 19.121,9.205 19.024 C 9.529 18.888,10.519 17.918,14.902 13.440 C 20.030 8.200,20.354 7.850,20.657 7.230 C 20.880 6.774,20.931 6.510,20.936 5.780 C 20.939 5.249,20.927 5.102,20.864 4.920 C 20.483 3.810,19.498 2.864,18.517 2.666 C 18.137 2.590,17.455 2.557,17.120 2.599 " fill="#EC0000" stroke="none" fill-rule="evenodd"></path></svg>