<svg width="24" height="25" viewBox="0 0 24 25" fill="none" xmlns="http://www.w3.org/2000/svg"><path d="M10.258 2.597 L 9.337 2.620 9.102 2.760 C 8.973 2.837,8.761 2.997,8.632 3.116 C 8.173 3.537,8.045 3.898,8.011 4.864 L 7.989 5.507 7.028 5.534 C 6.500 5.548,5.659 5.560,5.160 5.560 C 4.147 5.560,4.187 5.549,4.059 5.855 C 4.000 5.997,4.001 6.017,4.070 6.154 C 4.165 6.341,4.434 6.480,4.758 6.509 L 4.999 6.531 5.010 12.916 L 5.020 19.300 5.209 19.757 C 5.312 20.008,5.481 20.353,5.584 20.523 C 6.237 21.603,7.319 22.311,8.522 22.446 C 9.104 22.511,14.631 22.514,15.342 22.450 C 17.018 22.298,18.226 21.300,18.878 19.527 L 19.000 19.195 19.000 12.863 L 19.000 6.531 19.257 6.510 C 19.866 6.461,20.140 6.075,19.846 5.680 L 19.772 5.580 18.356 5.555 C 17.577 5.542,16.729 5.528,16.470 5.525 L 16.000 5.520 16.000 5.110 C 15.999 4.885,15.981 4.538,15.959 4.340 C 15.886 3.678,15.561 3.194,14.902 2.764 L 14.590 2.560 12.885 2.567 C 11.947 2.571,10.765 2.585,10.258 2.597 M14.527 3.707 C 14.720 3.838,14.874 4.076,14.917 4.311 C 14.937 4.415,14.965 4.729,14.981 5.010 L 15.010 5.520 11.999 5.520 L 8.989 5.520 9.017 5.050 C 9.067 4.204,9.177 3.857,9.441 3.702 C 9.630 3.591,10.390 3.564,12.640 3.588 L 14.380 3.607 14.527 3.707 M18.000 8.150 C 18.000 10.752,17.920 17.957,17.883 18.680 C 17.832 19.649,17.707 19.935,17.037 20.606 C 16.717 20.927,16.596 21.019,16.316 21.153 C 16.131 21.242,15.864 21.344,15.722 21.381 C 15.311 21.485,14.269 21.518,11.260 21.519 L 8.460 21.520 8.064 21.341 C 7.846 21.243,7.568 21.103,7.446 21.031 C 6.990 20.761,6.480 20.159,6.212 19.573 L 6.109 19.350 6.078 17.025 C 6.061 15.746,6.034 12.860,6.019 10.610 L 5.991 6.520 11.996 6.520 L 18.000 6.520 18.000 8.150 M8.380 8.578 C 8.358 8.586,8.291 8.604,8.232 8.617 C 8.150 8.635,8.112 8.678,8.077 8.790 C 8.019 8.975,7.979 16.648,8.028 18.187 L 8.060 19.195 8.177 19.317 C 8.241 19.384,8.352 19.450,8.423 19.463 C 8.591 19.495,8.812 19.390,8.881 19.248 C 9.029 18.939,9.035 9.005,8.887 8.733 C 8.861 8.685,8.809 8.636,8.770 8.625 C 8.652 8.590,8.422 8.563,8.380 8.578 M11.735 8.636 C 11.667 8.678,11.587 8.773,11.558 8.846 C 11.516 8.952,11.502 9.826,11.489 13.088 C 11.472 17.569,11.503 18.978,11.629 19.234 C 11.760 19.504,12.141 19.533,12.367 19.290 L 12.470 19.180 12.495 15.460 C 12.521 11.527,12.486 8.920,12.405 8.768 C 12.297 8.568,11.958 8.501,11.735 8.636 M15.380 8.578 C 15.358 8.586,15.291 8.604,15.232 8.617 C 15.150 8.635,15.112 8.678,15.077 8.790 C 15.019 8.975,14.979 16.648,15.028 18.187 L 15.060 19.195 15.177 19.317 C 15.241 19.384,15.352 19.450,15.423 19.463 C 15.591 19.495,15.812 19.390,15.881 19.248 C 16.029 18.939,16.035 9.005,15.887 8.733 C 15.861 8.685,15.809 8.636,15.770 8.625 C 15.652 8.590,15.422 8.563,15.380 8.578 " fill="#EC0000" stroke="none" fill-rule="evenodd"></path></svg>