<svg width="24" height="25" viewBox="0 0 24 25" fill="none" xmlns="http://www.w3.org/2000/svg"><path d="M5.628 2.721 C 5.497 2.824,5.151 3.260,5.061 3.436 C 4.995 3.565,4.993 4.054,5.013 12.356 C 5.026 17.372,5.052 21.389,5.075 21.719 C 5.113 22.287,5.116 22.300,5.227 22.389 C 5.397 22.526,5.545 22.505,5.805 22.310 C 6.119 22.073,6.904 21.384,9.615 18.960 C 10.908 17.805,11.981 16.860,12.000 16.860 C 12.020 16.860,13.260 17.955,14.757 19.293 C 17.721 21.943,18.120 22.293,18.300 22.405 C 18.467 22.509,18.652 22.500,18.788 22.384 L 18.899 22.287 18.928 21.494 C 18.944 21.057,18.969 16.848,18.984 12.140 L 19.012 3.580 18.930 3.419 C 18.823 3.210,18.581 2.919,18.384 2.763 L 18.229 2.640 11.980 2.640 C 5.778 2.640,5.730 2.641,5.628 2.721 M17.896 3.643 L 18.000 3.766 17.999 6.213 C 17.997 10.013,17.917 20.235,17.887 20.478 L 17.860 20.697 17.428 20.323 C 17.190 20.118,16.197 19.233,15.220 18.358 C 12.407 15.835,12.176 15.640,12.005 15.640 C 11.836 15.640,11.417 15.993,8.800 18.338 C 6.030 20.820,6.132 20.734,6.103 20.616 C 6.077 20.513,6.003 9.834,6.001 5.913 L 6.000 3.766 6.104 3.643 L 6.207 3.520 12.000 3.520 L 17.793 3.520 17.896 3.643 " fill="#EC0000" stroke="none" fill-rule="evenodd"></path></svg>