<svg width="24" height="25" viewBox="0 0 24 25" fill="none" xmlns="http://www.w3.org/2000/svg"><path d="M5.628 2.721 C 5.497 2.824,5.151 3.260,5.061 3.436 C 4.995 3.565,4.993 4.054,5.013 12.356 C 5.026 17.372,5.052 21.389,5.075 21.719 C 5.113 22.287,5.116 22.300,5.227 22.389 C 5.397 22.526,5.545 22.505,5.805 22.310 C 6.119 22.073,6.904 21.384,9.615 18.960 C 10.908 17.805,11.981 16.860,12.000 16.860 C 12.020 16.860,13.260 17.955,14.757 19.293 C 17.721 21.943,18.120 22.293,18.300 22.405 C 18.467 22.509,18.652 22.500,18.788 22.384 L 18.899 22.287 18.928 21.494 C 18.944 21.057,18.969 16.848,18.984 12.140 L 19.012 3.580 18.930 3.419 C 18.823 3.210,18.581 2.919,18.384 2.763 L 18.229 2.640 11.980 2.640 C 5.778 2.640,5.730 2.641,5.628 2.721 " fill="#EC0000" stroke="none" fill-rule="evenodd"></path></svg>