<svg width="24" height="24" viewBox="0 0 24 24" fill="none" xmlns="http://www.w3.org/2000/svg"><path d="M11.760 2.068 C 11.185 2.370,2.211 7.560,2.138 7.633 C 1.962 7.808,1.964 8.113,2.141 8.290 C 2.194 8.343,2.840 8.736,3.577 9.163 C 4.314 9.591,4.918 9.952,4.919 9.967 C 4.919 9.981,4.317 10.339,3.579 10.763 C 2.842 11.186,2.195 11.576,2.142 11.629 C 1.957 11.814,1.963 12.121,2.155 12.301 C 2.214 12.358,2.856 12.749,3.580 13.172 C 4.304 13.594,4.895 13.956,4.892 13.976 C 4.889 13.996,4.290 14.356,3.561 14.776 C 2.831 15.196,2.192 15.581,2.140 15.631 C 1.963 15.803,1.963 16.112,2.140 16.289 C 2.192 16.341,4.391 17.643,7.027 19.181 C 11.445 21.760,11.834 21.979,12.000 21.979 C 12.166 21.979,12.555 21.760,16.973 19.181 C 19.609 17.643,21.808 16.341,21.860 16.289 C 22.037 16.112,22.037 15.803,21.860 15.631 C 21.808 15.581,21.166 15.195,20.434 14.774 C 19.702 14.352,19.098 13.992,19.093 13.974 C 19.088 13.955,19.686 13.591,20.423 13.163 C 21.160 12.736,21.806 12.343,21.859 12.290 C 22.037 12.112,22.037 11.803,21.859 11.631 C 21.807 11.581,21.166 11.195,20.434 10.774 C 19.702 10.353,19.098 9.993,19.093 9.974 C 19.088 9.955,19.686 9.591,20.423 9.163 C 21.160 8.736,21.806 8.343,21.859 8.290 C 22.036 8.113,22.038 7.808,21.862 7.633 C 21.700 7.471,12.194 2.032,12.040 2.012 C 11.952 2.001,11.848 2.022,11.760 2.068 M16.190 5.485 C 18.495 6.808,20.402 7.911,20.428 7.935 C 20.464 7.969,19.433 8.589,16.238 10.452 L 12.000 12.923 7.762 10.452 C 5.375 9.059,3.540 7.965,3.559 7.945 C 3.588 7.916,11.959 3.088,11.990 3.082 C 11.996 3.081,13.886 4.162,16.190 5.485 M8.893 12.269 C 11.574 13.835,11.835 13.979,12.000 13.979 C 12.165 13.979,12.427 13.835,15.112 12.267 L 18.044 10.554 19.212 11.223 C 19.854 11.590,20.402 11.911,20.428 11.936 C 20.464 11.969,19.424 12.594,16.238 14.452 L 12.000 16.923 7.762 14.452 C 4.548 12.577,3.535 11.969,3.572 11.935 C 3.617 11.892,5.924 10.560,5.952 10.560 C 5.960 10.560,7.283 11.329,8.893 12.269 M8.890 16.270 C 11.581 17.840,11.835 17.980,12.000 17.979 C 12.164 17.979,12.434 17.830,15.111 16.267 C 16.722 15.326,18.054 14.563,18.071 14.572 C 18.444 14.776,20.394 15.903,20.428 15.935 C 20.464 15.969,19.429 16.591,16.238 18.452 L 12.000 20.923 7.762 18.452 C 5.401 17.074,3.540 15.965,3.559 15.946 C 3.590 15.914,5.927 14.560,5.950 14.560 C 5.956 14.560,7.279 15.330,8.890 16.270 " fill="#EC0000" stroke="none" fill-rule="evenodd"></path></svg>