<svg width="24" height="24" viewBox="0 0 24 24" fill="none" xmlns="http://www.w3.org/2000/svg"><path d="M2.157 2.191 L 2.034 2.301 1.995 2.901 C 1.944 3.695,1.971 21.569,2.024 21.756 C 2.045 21.831,2.112 21.930,2.174 21.976 C 2.286 22.060,2.293 22.060,6.071 22.060 L 9.856 22.060 9.988 21.887 C 10.061 21.792,10.120 21.669,10.120 21.615 C 10.120 21.480,9.986 21.231,9.876 21.165 C 9.802 21.120,9.167 21.106,6.373 21.089 L 2.960 21.068 2.960 12.074 L 2.960 3.080 7.018 3.080 L 11.076 3.080 11.088 4.590 C 11.101 6.234,11.103 6.246,11.333 6.416 C 11.444 6.498,11.488 6.500,13.623 6.514 L 15.800 6.527 15.801 8.734 C 15.801 9.947,15.819 11.012,15.839 11.100 C 15.890 11.324,16.073 11.480,16.283 11.480 C 16.488 11.480,16.670 11.386,16.732 11.248 C 16.784 11.130,16.828 6.365,16.780 5.970 L 16.754 5.760 16.267 5.354 C 15.999 5.130,14.975 4.302,13.991 3.514 L 12.202 2.080 7.242 2.080 L 2.281 2.080 2.157 2.191 M13.510 4.414 C 14.220 4.979,14.800 5.459,14.800 5.480 C 14.800 5.506,14.318 5.520,13.466 5.520 L 12.132 5.520 12.106 5.154 C 12.092 4.952,12.080 4.446,12.080 4.028 C 12.080 3.308,12.084 3.271,12.150 3.327 C 12.188 3.360,12.800 3.849,13.510 4.414 M4.000 8.000 L 4.000 10.000 6.500 10.000 L 9.000 10.000 9.000 9.260 L 9.000 8.520 9.800 8.520 L 10.600 8.520 10.600 10.520 L 10.600 12.520 9.800 12.520 L 9.000 12.520 9.000 11.760 L 9.000 11.000 6.500 11.000 L 4.000 11.000 4.000 13.000 L 4.000 15.000 6.500 15.000 L 9.000 15.000 9.000 14.260 L 9.000 13.520 9.800 13.520 L 10.600 13.520 10.600 14.754 C 10.600 15.432,10.588 16.341,10.574 16.774 L 10.547 17.560 9.774 17.560 L 9.000 17.560 9.000 16.780 L 9.000 16.000 6.500 16.000 L 4.000 16.000 4.000 18.000 L 4.000 20.000 6.500 20.000 L 9.000 20.000 9.000 19.283 L 9.000 18.566 10.110 18.553 C 11.329 18.539,11.428 18.520,11.531 18.288 C 11.566 18.209,11.583 17.550,11.592 15.850 L 11.604 13.520 12.393 13.520 C 13.288 13.520,13.394 13.493,13.532 13.226 C 13.630 13.037,13.598 12.844,13.442 12.688 C 13.336 12.583,13.294 12.570,12.957 12.546 C 12.754 12.532,12.365 12.520,12.094 12.520 L 11.600 12.520 11.600 10.168 L 11.600 7.816 11.448 7.668 L 11.297 7.520 10.148 7.520 L 9.000 7.520 9.000 6.760 L 9.000 6.000 6.500 6.000 L 4.000 6.000 4.000 8.000 M8.000 8.000 L 8.000 9.000 6.500 9.000 L 5.000 9.000 5.000 8.000 L 5.000 7.000 6.500 7.000 L 8.000 7.000 8.000 8.000 M19.540 11.558 C 19.496 11.576,19.280 11.777,19.060 12.006 C 16.775 14.384,14.358 16.919,13.144 18.212 L 12.628 18.762 12.514 19.231 C 12.324 20.006,11.956 21.867,11.951 22.075 C 11.942 22.452,12.177 22.631,12.552 22.535 C 12.748 22.485,14.008 21.987,15.140 21.513 C 15.701 21.278,15.526 21.440,17.717 19.120 C 20.802 15.852,22.210 14.320,22.301 14.132 C 22.418 13.886,22.305 13.743,21.040 12.536 C 20.079 11.619,19.954 11.519,19.766 11.523 C 19.686 11.524,19.584 11.540,19.540 11.558 M8.000 13.000 L 8.000 14.000 6.500 14.000 L 5.000 14.000 5.000 13.000 L 5.000 12.000 6.500 12.000 L 8.000 12.000 8.000 13.000 M20.459 13.374 L 21.139 14.027 20.913 14.262 L 20.688 14.497 20.220 14.058 C 19.963 13.817,19.652 13.529,19.528 13.417 L 19.303 13.213 19.521 12.967 C 19.640 12.831,19.747 12.720,19.759 12.721 C 19.771 12.721,20.086 13.015,20.459 13.374 M19.789 15.020 L 20.008 15.220 18.677 16.640 C 16.483 18.981,15.394 20.120,15.350 20.120 C 15.269 20.120,13.960 18.905,13.960 18.829 C 13.960 18.789,14.267 18.463,16.994 15.610 L 18.609 13.919 19.090 14.370 C 19.354 14.617,19.669 14.910,19.789 15.020 M8.000 18.000 L 8.000 19.000 6.500 19.000 L 5.000 19.000 5.000 18.000 L 5.000 17.000 6.500 17.000 L 8.000 17.000 8.000 18.000 M14.008 20.302 C 14.224 20.513,14.400 20.697,14.400 20.713 C 14.400 20.742,13.944 20.936,13.428 21.126 L 13.116 21.241 13.142 21.090 C 13.191 20.813,13.322 20.222,13.383 20.009 C 13.441 19.804,13.445 19.799,13.529 19.858 C 13.577 19.891,13.792 20.091,14.008 20.302 " fill="#EC0000" stroke="none" fill-rule="evenodd"></path></svg>