<svg width="24" height="24" viewBox="0 0 24 24" fill="none" xmlns="http://www.w3.org/2000/svg"><path d="M3.580 3.037 C 2.673 3.060,2.657 3.061,2.477 3.167 C 1.832 3.547,1.856 4.479,2.521 4.856 L 2.740 4.980 11.900 4.980 C 18.989 4.980,21.114 4.969,21.300 4.931 C 21.504 4.889,21.563 4.856,21.690 4.711 C 21.914 4.456,21.978 4.298,21.978 4.000 C 21.978 3.702,21.914 3.545,21.690 3.288 C 21.565 3.145,21.503 3.109,21.320 3.073 C 21.084 3.026,5.326 2.994,3.580 3.037 M3.540 8.037 C 2.574 8.062,2.534 8.072,2.294 8.327 C 2.090 8.544,2.023 8.711,2.023 9.000 C 2.023 9.390,2.224 9.706,2.600 9.906 C 2.735 9.978,3.046 9.980,12.000 9.980 L 21.260 9.980 21.420 9.894 C 21.781 9.698,21.977 9.384,21.977 9.000 C 21.977 8.599,21.754 8.261,21.380 8.092 C 21.228 8.023,20.821 8.020,12.820 8.017 C 8.200 8.015,4.024 8.024,3.540 8.037 M14.480 10.963 C 14.060 11.016,13.727 11.116,13.286 11.324 C 12.355 11.762,11.807 12.311,11.357 13.255 C 11.049 13.902,10.988 14.183,10.992 14.940 C 10.994 15.505,11.007 15.622,11.098 15.940 C 11.374 16.896,11.953 17.710,12.733 18.237 C 12.839 18.309,13.091 18.445,13.293 18.540 C 14.217 18.974,15.250 19.031,16.240 18.704 L 16.540 18.605 17.740 19.795 C 19.502 21.543,19.761 21.780,20.017 21.876 C 20.345 21.998,20.588 22.018,20.873 21.945 C 21.212 21.858,21.418 21.745,21.622 21.536 C 22.079 21.066,22.169 20.294,21.829 19.774 C 21.759 19.667,21.013 18.886,20.171 18.037 L 18.640 16.494 18.735 16.215 C 18.894 15.746,18.932 15.432,18.910 14.758 C 18.894 14.290,18.868 14.067,18.802 13.840 C 18.482 12.733,17.596 11.718,16.566 11.280 C 16.201 11.124,15.776 11.012,15.361 10.961 C 14.983 10.915,14.857 10.915,14.480 10.963 M15.212 11.960 C 15.607 11.993,15.739 12.022,16.026 12.141 C 16.841 12.479,17.360 12.985,17.707 13.780 C 17.892 14.204,17.940 14.451,17.936 14.940 C 17.931 15.480,17.859 15.780,17.616 16.274 C 17.189 17.144,16.293 17.779,15.335 17.891 C 14.175 18.027,13.075 17.519,12.462 16.565 C 12.100 16.003,12.001 15.647,12.001 14.898 C 12.000 14.312,12.051 14.056,12.244 13.670 C 12.692 12.776,13.447 12.185,14.400 11.982 C 14.725 11.913,14.656 11.914,15.212 11.960 M3.200 13.035 C 2.609 13.063,2.513 13.094,2.294 13.327 C 2.090 13.544,2.023 13.711,2.023 14.000 C 2.023 14.384,2.219 14.698,2.580 14.894 L 2.740 14.980 6.000 14.980 L 9.260 14.980 9.420 14.894 C 9.781 14.698,9.977 14.384,9.977 14.000 C 9.977 13.703,9.890 13.499,9.674 13.292 C 9.385 13.015,9.518 13.027,6.480 13.018 C 4.973 13.014,3.497 13.021,3.200 13.035 M19.594 18.860 C 20.411 19.687,21.009 20.323,21.024 20.381 C 21.094 20.660,20.896 20.949,20.608 20.988 C 20.448 21.009,20.443 21.006,19.933 20.528 C 19.651 20.263,18.980 19.605,18.442 19.065 L 17.463 18.083 17.561 17.971 C 17.838 17.653,18.064 17.440,18.124 17.440 C 18.160 17.440,18.822 18.079,19.594 18.860 " fill="#EC0000" stroke="none" fill-rule="evenodd"></path></svg>