<svg width="77" height="77" viewBox="0 0 77 77" fill="none" xmlns="http://www.w3.org/2000/svg"><path d="M18.544 16.156 C 17.926 16.316,17.422 16.627,16.928 17.154 C 16.316 17.806,16.117 18.355,16.117 19.390 C 16.117 20.102,16.175 20.335,16.454 20.758 C 16.640 21.038,20.647 25.148,25.359 29.892 L 33.927 38.517 26.290 46.176 C 16.515 55.980,16.360 56.147,16.157 57.054 C 15.875 58.314,16.371 59.571,17.459 60.354 C 18.667 61.221,20.063 61.129,21.285 60.099 C 21.683 59.764,25.718 55.797,30.251 51.286 L 38.492 43.082 47.112 51.645 C 51.854 56.355,55.947 60.350,56.208 60.523 C 56.775 60.898,57.748 61.039,58.457 60.847 C 60.178 60.383,61.218 58.728,60.843 57.052 C 60.641 56.148,60.484 55.980,50.643 46.109 L 43.067 38.511 51.604 29.939 C 57.099 24.422,60.275 21.139,60.517 20.726 C 61.438 19.159,60.683 17.088,58.914 16.325 C 58.661 16.216,58.075 16.125,57.604 16.122 C 56.893 16.118,56.667 16.173,56.242 16.454 C 55.962 16.640,51.854 20.645,47.112 25.355 L 38.492 33.918 29.930 25.387 C 24.917 20.392,21.128 16.716,20.790 16.520 C 20.166 16.159,19.162 15.995,18.544 16.156 " fill="#EC0000" stroke="none" fill-rule="evenodd"></path></svg>