<svg width="24" height="25" viewBox="0 0 24 25" fill="none" xmlns="http://www.w3.org/2000/svg"><path d="M5.791 6.117 C 5.435 6.343,5.433 6.485,5.777 6.889 C 6.061 7.221,8.867 10.097,10.316 11.540 C 10.824 12.045,11.240 12.475,11.240 12.495 C 11.240 12.515,10.300 13.478,9.150 14.636 C 6.744 17.061,5.678 18.178,5.585 18.375 C 5.537 18.476,5.530 18.540,5.557 18.613 C 5.610 18.751,5.867 19.000,5.958 19.000 C 6.135 19.000,6.890 18.294,9.873 15.339 L 12.006 13.226 13.693 14.906 C 15.913 17.117,17.441 18.607,17.688 18.802 C 17.998 19.048,18.257 18.998,18.416 18.663 C 18.474 18.540,18.476 18.507,18.426 18.392 C 18.343 18.198,17.327 17.130,14.895 14.680 L 12.730 12.500 14.911 10.300 C 17.207 7.985,18.221 6.927,18.391 6.670 L 18.494 6.515 18.410 6.344 C 18.316 6.150,18.097 6.017,17.938 6.057 C 17.724 6.111,17.093 6.710,13.850 9.938 L 12.000 11.780 10.290 10.078 C 7.078 6.882,6.155 6.000,6.020 6.000 C 5.996 6.000,5.892 6.053,5.791 6.117 " fill="#EC0000" stroke="none" fill-rule="evenodd"></path></svg>