<svg width="24" height="25" viewBox="0 0 24 25" fill="none" xmlns="http://www.w3.org/2000/svg"><path d="M11.444 5.212 C 11.352 5.285,11.215 5.432,11.138 5.539 L 11.000 5.734 11.000 8.621 L 11.000 11.508 8.690 11.537 C 6.008 11.571,5.182 11.606,5.015 11.693 C 4.624 11.897,4.423 12.429,4.592 12.812 C 4.697 13.049,4.866 13.262,5.029 13.364 C 5.231 13.491,5.842 13.518,8.550 13.519 L 11.000 13.520 11.004 15.790 C 11.006 17.038,11.019 18.361,11.034 18.728 L 11.060 19.397 11.260 19.603 C 11.508 19.859,11.713 19.958,11.997 19.959 C 12.277 19.960,12.484 19.860,12.740 19.600 L 12.940 19.397 12.966 18.709 C 12.980 18.330,12.994 17.008,12.996 15.770 L 13.000 13.520 14.850 13.517 C 15.867 13.515,17.180 13.501,17.766 13.485 L 18.832 13.457 18.993 13.345 C 19.251 13.166,19.474 12.786,19.478 12.517 C 19.483 12.260,19.363 12.011,19.136 11.804 C 19.014 11.692,18.874 11.592,18.827 11.582 C 18.779 11.572,17.448 11.552,15.870 11.537 L 13.000 11.510 12.998 9.225 C 12.997 6.688,12.963 5.759,12.865 5.570 C 12.831 5.504,12.721 5.378,12.622 5.290 C 12.428 5.119,12.282 5.080,11.840 5.080 C 11.641 5.080,11.589 5.097,11.444 5.212 " fill="#EC0000" stroke="none" fill-rule="evenodd"></path></svg>