<svg width="24" height="24" viewBox="0 0 24 24" fill="none" xmlns="http://www.w3.org/2000/svg"><path d="M11.753 5.108 C 11.694 5.145,11.626 5.219,11.601 5.273 C 11.522 5.447,11.482 6.730,11.481 9.143 L 11.480 11.507 8.970 11.536 C 7.590 11.552,6.184 11.579,5.846 11.597 C 5.263 11.627,5.228 11.634,5.131 11.731 C 4.955 11.907,5.021 12.283,5.249 12.405 C 5.387 12.479,6.696 12.518,9.110 12.519 L 11.480 12.520 11.481 14.910 C 11.483 17.625,11.518 18.528,11.628 18.750 C 11.784 19.065,12.251 19.054,12.386 18.733 C 12.471 18.528,12.516 17.114,12.518 14.530 L 12.520 12.520 15.596 12.520 L 18.673 12.520 18.783 12.390 C 18.843 12.319,18.917 12.202,18.946 12.130 C 18.995 12.014,18.992 11.982,18.917 11.824 C 18.872 11.726,18.804 11.635,18.767 11.620 C 18.695 11.592,15.038 11.524,13.475 11.522 L 12.530 11.520 12.506 8.630 C 12.493 7.040,12.466 5.623,12.445 5.481 C 12.415 5.278,12.384 5.202,12.301 5.131 C 12.173 5.021,11.912 5.010,11.753 5.108 " fill="#EC0000" stroke="none" fill-rule="evenodd"></path></svg>