<svg width="24" height="25" viewBox="0 0 24 25" fill="none" xmlns="http://www.w3.org/2000/svg"><path d="M7.605 6.598 L 2.511 6.620 2.350 6.800 C 1.930 7.270,1.935 7.748,2.365 8.196 C 2.457 8.291,2.589 8.393,2.660 8.423 C 2.764 8.466,3.971 8.481,9.164 8.504 C 12.671 8.519,16.851 8.518,18.454 8.501 L 21.368 8.470 21.578 8.260 C 22.131 7.707,22.109 7.207,21.508 6.690 L 21.357 6.560 17.029 6.568 C 14.648 6.573,10.407 6.586,7.605 6.598 M7.605 11.598 L 2.511 11.620 2.350 11.800 C 1.930 12.270,1.935 12.748,2.365 13.196 C 2.457 13.291,2.589 13.393,2.660 13.423 C 2.764 13.466,3.971 13.481,9.164 13.504 C 12.671 13.519,16.851 13.518,18.454 13.501 L 21.368 13.470 21.578 13.260 C 22.131 12.707,22.109 12.207,21.508 11.690 L 21.357 11.560 17.029 11.568 C 14.648 11.573,10.407 11.586,7.605 11.598 M7.605 16.598 L 2.511 16.620 2.350 16.800 C 1.930 17.270,1.935 17.748,2.365 18.196 C 2.457 18.291,2.589 18.393,2.660 18.423 C 2.764 18.466,3.971 18.481,9.164 18.504 C 12.671 18.519,16.851 18.518,18.454 18.501 L 21.368 18.470 21.578 18.260 C 22.131 17.707,22.109 17.207,21.508 16.690 L 21.357 16.560 17.029 16.568 C 14.648 16.573,10.407 16.586,7.605 16.598 " fill="#EC0000" stroke="none" fill-rule="evenodd"></path></svg>