<svg width="24" height="25" viewBox="0 0 24 25" fill="none" xmlns="http://www.w3.org/2000/svg"><path d="M4.120 10.085 C 3.234 10.178,2.341 10.982,2.102 11.900 C 2.023 12.202,2.023 12.754,2.101 13.062 C 2.319 13.922,3.063 14.680,3.902 14.899 C 4.195 14.975,4.696 14.976,5.050 14.901 C 5.804 14.742,6.551 14.059,6.849 13.257 C 6.923 13.060,6.938 12.935,6.939 12.520 C 6.940 11.916,6.860 11.636,6.554 11.179 C 6.017 10.376,5.131 9.978,4.120 10.085 M19.066 10.080 C 18.912 10.100,18.699 10.176,18.446 10.301 C 17.773 10.633,17.278 11.223,17.101 11.903 C 16.978 12.376,17.051 13.116,17.264 13.553 C 17.388 13.804,17.997 14.458,18.274 14.636 C 18.550 14.814,18.768 14.879,19.241 14.925 C 20.104 15.010,20.607 14.835,21.204 14.241 C 21.470 13.976,21.581 13.830,21.692 13.599 C 21.966 13.031,22.027 12.476,21.881 11.904 C 21.766 11.454,21.588 11.145,21.241 10.796 C 20.662 10.212,19.928 9.970,19.066 10.080 M11.270 10.141 C 10.945 10.246,10.593 10.482,10.260 10.818 C 9.745 11.338,9.541 11.805,9.542 12.460 C 9.544 13.265,9.814 13.846,10.429 14.367 C 10.889 14.757,11.463 14.979,12.000 14.975 C 12.658 14.969,13.131 14.775,13.625 14.308 C 14.014 13.940,14.215 13.652,14.353 13.264 C 14.440 13.023,14.455 12.911,14.455 12.520 C 14.455 11.969,14.378 11.663,14.155 11.317 C 13.851 10.846,13.291 10.369,12.836 10.193 C 12.544 10.080,11.561 10.048,11.270 10.141 M12.326 11.094 C 12.736 11.191,13.124 11.496,13.317 11.874 C 13.431 12.098,13.436 12.856,13.325 13.100 C 13.212 13.350,12.865 13.702,12.608 13.828 C 12.407 13.927,12.335 13.940,12.000 13.940 C 11.665 13.940,11.593 13.927,11.392 13.828 C 11.144 13.706,10.816 13.380,10.703 13.140 C 10.610 12.945,10.549 12.509,10.579 12.260 C 10.614 11.966,10.774 11.672,11.018 11.449 C 11.427 11.075,11.807 10.972,12.326 11.094 M5.104 11.179 C 5.286 11.255,5.662 11.615,5.794 11.839 C 5.893 12.008,5.900 12.053,5.900 12.500 C 5.900 12.947,5.893 12.992,5.794 13.160 C 5.644 13.415,5.213 13.816,5.020 13.881 C 4.841 13.941,4.260 13.956,4.029 13.908 C 3.844 13.869,3.369 13.438,3.207 13.163 C 3.107 12.992,3.100 12.949,3.100 12.500 C 3.100 12.105,3.113 11.995,3.176 11.881 C 3.299 11.654,3.686 11.276,3.900 11.172 C 4.086 11.082,4.130 11.077,4.533 11.098 C 4.772 11.111,5.029 11.148,5.104 11.179 M20.104 11.179 C 20.286 11.255,20.662 11.615,20.794 11.839 C 20.893 12.008,20.900 12.053,20.900 12.500 C 20.900 12.947,20.893 12.992,20.794 13.160 C 20.644 13.415,20.213 13.816,20.020 13.881 C 19.841 13.941,19.260 13.956,19.029 13.908 C 18.844 13.869,18.369 13.438,18.207 13.163 C 18.107 12.992,18.100 12.949,18.100 12.500 C 18.100 12.105,18.113 11.995,18.176 11.881 C 18.299 11.654,18.686 11.276,18.900 11.172 C 19.086 11.082,19.130 11.077,19.533 11.098 C 19.772 11.111,20.029 11.148,20.104 11.179 " fill="#EC0000" stroke="none" fill-rule="evenodd"></path></svg>