<svg width="24" height="25" viewBox="0 0 24 25" fill="none" xmlns="http://www.w3.org/2000/svg"><path d="M11.445 2.603 C 10.836 2.711,10.086 3.324,9.765 3.975 C 9.351 4.816,9.484 5.824,10.108 6.569 C 10.489 7.024,10.949 7.299,11.528 7.417 C 12.082 7.530,12.561 7.469,13.068 7.219 C 13.479 7.017,14.023 6.472,14.215 6.071 C 14.365 5.756,14.480 5.278,14.479 4.972 C 14.478 4.663,14.373 4.253,14.212 3.925 C 13.923 3.339,13.227 2.766,12.660 2.647 C 12.358 2.584,11.688 2.559,11.445 2.603 M12.600 3.677 C 12.824 3.796,13.091 4.031,13.225 4.225 L 13.367 4.431 13.389 4.994 L 13.412 5.556 13.171 5.840 C 12.896 6.164,12.690 6.326,12.460 6.401 C 12.236 6.474,11.655 6.469,11.480 6.393 C 11.253 6.294,10.950 6.030,10.780 5.783 L 10.621 5.552 10.607 5.006 L 10.592 4.460 10.794 4.195 C 10.917 4.032,11.093 3.864,11.248 3.761 L 11.500 3.592 12.000 3.608 C 12.309 3.618,12.538 3.644,12.600 3.677 M11.200 10.171 C 10.504 10.410,9.895 11.029,9.655 11.740 C 9.563 12.013,9.547 12.127,9.546 12.520 C 9.545 13.034,9.620 13.305,9.885 13.743 C 10.078 14.063,10.609 14.560,10.923 14.714 C 11.544 15.019,12.352 15.035,13.003 14.755 C 13.406 14.581,13.895 14.119,14.158 13.660 C 14.369 13.294,14.440 13.008,14.439 12.531 C 14.439 12.037,14.367 11.678,14.209 11.383 C 14.040 11.068,13.435 10.483,13.100 10.312 C 12.737 10.126,12.500 10.080,11.928 10.081 C 11.550 10.082,11.410 10.099,11.200 10.171 M12.185 11.083 C 12.546 11.133,12.738 11.221,12.987 11.451 C 13.285 11.725,13.362 11.897,13.410 12.397 C 13.452 12.832,13.452 12.834,13.341 13.061 C 13.209 13.332,12.850 13.711,12.600 13.844 C 12.443 13.928,12.366 13.940,12.000 13.940 C 11.492 13.940,11.375 13.893,11.017 13.541 C 10.649 13.180,10.600 13.058,10.601 12.512 C 10.602 11.991,10.647 11.856,10.919 11.549 C 11.195 11.238,11.510 11.055,11.787 11.044 C 11.835 11.042,12.014 11.059,12.185 11.083 M11.445 17.603 C 10.836 17.711,10.086 18.324,9.765 18.975 C 9.351 19.816,9.484 20.824,10.108 21.569 C 10.489 22.024,10.949 22.299,11.528 22.417 C 12.082 22.530,12.561 22.469,13.068 22.219 C 13.479 22.017,14.023 21.472,14.215 21.071 C 14.365 20.756,14.480 20.278,14.479 19.972 C 14.478 19.663,14.373 19.253,14.212 18.925 C 13.923 18.339,13.227 17.766,12.660 17.647 C 12.358 17.584,11.688 17.559,11.445 17.603 M12.682 18.727 C 12.780 18.785,12.962 18.939,13.087 19.069 C 13.370 19.366,13.414 19.512,13.392 20.079 C 13.373 20.578,13.304 20.744,12.986 21.053 C 12.682 21.350,12.420 21.456,12.000 21.455 C 11.735 21.454,11.614 21.434,11.453 21.363 C 11.184 21.246,10.793 20.841,10.653 20.537 C 10.551 20.312,10.550 20.304,10.594 19.869 C 10.646 19.360,10.730 19.176,11.023 18.931 C 11.392 18.622,11.482 18.593,12.022 18.609 C 12.455 18.622,12.522 18.634,12.682 18.727 " fill="#EC0000" stroke="none" fill-rule="evenodd"></path></svg>