<svg width="24" height="25" viewBox="0 0 24 25" fill="none" xmlns="http://www.w3.org/2000/svg"><path d="M10.660 2.639 C 10.182 2.676,9.026 2.949,8.534 3.141 C 7.741 3.452,6.771 3.992,6.000 4.553 C 5.530 4.896,4.550 5.847,4.160 6.340 C 3.172 7.589,2.403 9.334,2.134 10.940 C 2.028 11.575,2.028 13.425,2.134 14.060 C 2.294 15.012,2.746 16.337,3.206 17.200 C 3.675 18.078,4.156 18.720,4.918 19.481 C 6.430 20.992,7.902 21.800,10.060 22.304 C 10.540 22.416,10.541 22.416,11.980 22.415 C 13.305 22.413,13.453 22.406,13.831 22.326 C 15.386 21.995,16.785 21.364,18.028 20.435 C 18.504 20.079,19.576 19.020,19.909 18.578 C 20.839 17.343,21.476 15.924,21.794 14.380 C 21.943 13.655,21.971 13.273,21.947 12.300 C 21.913 10.972,21.787 10.271,21.375 9.122 C 20.671 7.157,19.305 5.407,17.602 4.286 C 16.227 3.381,14.960 2.866,13.702 2.701 C 13.155 2.629,11.284 2.591,10.660 2.639 M16.032 8.176 C 16.166 8.246,16.303 8.393,16.336 8.503 C 16.401 8.718,16.017 9.165,14.090 11.120 L 12.730 12.500 13.955 13.741 C 15.838 15.649,16.360 16.237,16.360 16.453 C 16.360 16.554,16.084 16.828,15.946 16.862 C 15.864 16.883,15.800 16.863,15.682 16.781 C 15.473 16.636,14.507 15.714,13.133 14.347 L 12.005 13.226 10.593 14.620 C 9.049 16.142,8.410 16.737,8.222 16.827 C 8.130 16.871,8.073 16.875,7.991 16.844 C 7.871 16.799,7.640 16.506,7.640 16.400 C 7.640 16.234,8.272 15.535,10.048 13.738 L 11.276 12.495 10.794 12.018 C 9.977 11.208,8.079 9.236,7.854 8.963 C 7.586 8.639,7.577 8.534,7.795 8.315 C 7.989 8.122,8.188 8.104,8.400 8.260 C 8.475 8.316,9.317 9.129,10.271 10.067 L 12.006 11.773 13.113 10.674 C 15.054 8.747,15.731 8.120,15.872 8.120 C 15.901 8.120,15.973 8.145,16.032 8.176 " fill="#EC0000" stroke="none" fill-rule="evenodd"></path></svg>