<svg width="24" height="25" viewBox="0 0 24 25" fill="none" xmlns="http://www.w3.org/2000/svg"><path d="M10.660 2.639 C 10.182 2.676,9.026 2.949,8.534 3.141 C 7.741 3.452,6.771 3.992,6.000 4.553 C 5.530 4.896,4.550 5.847,4.160 6.340 C 3.172 7.589,2.403 9.334,2.134 10.940 C 2.028 11.575,2.028 13.425,2.134 14.060 C 2.294 15.012,2.746 16.337,3.206 17.200 C 3.675 18.078,4.156 18.720,4.918 19.481 C 6.430 20.992,7.902 21.800,10.060 22.304 C 10.540 22.416,10.541 22.416,11.980 22.415 C 13.305 22.413,13.453 22.406,13.831 22.326 C 15.386 21.995,16.785 21.364,18.028 20.435 C 18.504 20.079,19.576 19.020,19.909 18.578 C 20.839 17.343,21.476 15.924,21.794 14.380 C 21.943 13.655,21.971 13.273,21.947 12.300 C 21.913 10.972,21.787 10.271,21.375 9.122 C 20.671 7.157,19.305 5.407,17.602 4.286 C 16.227 3.381,14.960 2.866,13.702 2.701 C 13.155 2.629,11.284 2.591,10.660 2.639 M13.640 3.701 C 15.312 3.971,17.066 4.902,18.381 6.219 C 19.382 7.220,20.058 8.372,20.605 10.009 L 20.842 10.718 20.851 12.329 C 20.861 14.128,20.850 14.238,20.572 15.100 C 19.891 17.210,18.515 19.011,16.746 20.107 C 15.735 20.733,14.511 21.191,13.338 21.382 C 12.861 21.460,11.601 21.470,10.940 21.402 C 9.515 21.254,8.089 20.711,6.803 19.825 C 6.176 19.393,5.116 18.302,4.662 17.622 C 4.011 16.646,3.628 15.812,3.277 14.611 L 3.151 14.180 3.146 12.600 C 3.140 10.924,3.146 10.851,3.345 10.153 C 4.130 7.404,6.071 5.228,8.671 4.184 C 9.284 3.937,10.248 3.677,10.740 3.624 C 11.117 3.584,13.270 3.641,13.640 3.701 M7.849 8.259 C 7.706 8.379,7.602 8.581,7.630 8.685 C 7.658 8.791,8.379 9.567,9.783 11.002 C 10.442 11.674,11.041 12.290,11.115 12.369 L 11.250 12.514 9.975 13.811 C 7.927 15.892,7.640 16.214,7.640 16.428 C 7.641 16.681,8.053 16.951,8.266 16.837 C 8.386 16.773,9.511 15.694,10.967 14.247 L 11.995 13.226 13.407 14.620 C 15.062 16.253,15.740 16.880,15.849 16.880 C 15.987 16.880,16.207 16.750,16.285 16.623 C 16.398 16.438,16.379 16.311,16.207 16.094 C 16.048 15.893,13.942 13.711,13.166 12.943 L 12.724 12.506 13.983 11.230 C 15.326 9.869,16.151 8.990,16.307 8.756 C 16.383 8.641,16.395 8.592,16.365 8.513 C 16.319 8.391,16.109 8.209,15.977 8.176 C 15.722 8.112,15.616 8.202,13.487 10.301 L 11.994 11.773 10.987 10.774 C 9.511 9.311,8.581 8.416,8.393 8.280 C 8.186 8.130,8.010 8.123,7.849 8.259 " fill="#EC0000" stroke="none" fill-rule="evenodd"></path></svg>