<svg width="24" height="24" viewBox="0 0 24 24" fill="none" xmlns="http://www.w3.org/2000/svg"><path d="M10.920 2.060 C 10.887 2.068,10.671 2.104,10.440 2.140 C 9.423 2.299,8.558 2.577,7.580 3.059 C 6.527 3.579,5.743 4.137,4.944 4.936 C 3.369 6.509,2.415 8.439,2.075 10.740 C 2.006 11.203,2.005 12.701,2.073 13.180 C 2.477 16.030,3.838 18.370,6.052 20.023 C 8.389 21.767,11.414 22.401,14.240 21.738 C 15.610 21.416,17.112 20.696,18.166 19.855 C 21.030 17.570,22.432 14.021,21.876 10.460 C 21.751 9.657,21.405 8.521,21.057 7.770 C 19.908 5.297,17.669 3.331,15.035 2.484 C 14.026 2.160,13.458 2.077,12.120 2.059 C 11.493 2.051,10.953 2.051,10.920 2.060 M13.031 3.081 C 14.673 3.230,16.392 3.969,17.768 5.118 C 19.522 6.582,20.635 8.639,20.923 10.950 C 20.987 11.460,20.988 12.600,20.926 13.080 C 20.751 14.422,20.247 15.804,19.530 16.900 C 18.487 18.497,16.877 19.787,15.120 20.434 C 13.895 20.885,12.635 21.060,11.300 20.964 C 9.588 20.841,7.819 20.147,6.427 19.053 C 5.984 18.705,5.166 17.864,4.832 17.414 C 4.020 16.320,3.454 15.067,3.174 13.740 C 3.068 13.241,3.064 13.172,3.062 12.020 C 3.060 10.852,3.063 10.806,3.173 10.280 C 3.757 7.502,5.468 5.245,7.940 3.992 C 9.564 3.170,11.057 2.902,13.031 3.081 M11.772 6.078 C 11.485 6.253,11.501 6.089,11.488 8.946 L 11.477 11.515 8.908 11.527 C 6.026 11.542,6.146 11.529,6.044 11.823 C 5.975 12.021,6.005 12.160,6.152 12.324 C 6.227 12.408,6.319 12.459,6.441 12.482 C 6.540 12.501,7.713 12.517,9.048 12.518 L 11.477 12.520 11.488 15.072 C 11.501 17.909,11.485 17.747,11.772 17.922 C 11.934 18.020,12.066 18.020,12.228 17.922 C 12.515 17.747,12.499 17.909,12.512 15.072 L 12.523 12.520 14.952 12.518 C 16.287 12.517,17.460 12.501,17.559 12.482 C 17.756 12.444,17.939 12.278,17.985 12.094 C 18.026 11.933,17.915 11.671,17.777 11.600 C 17.677 11.549,17.279 11.538,15.094 11.527 L 12.527 11.515 12.510 8.987 C 12.497 7.159,12.478 6.418,12.443 6.307 C 12.405 6.185,12.360 6.138,12.227 6.078 C 12.015 5.981,11.931 5.981,11.772 6.078 " fill="#EC0000" stroke="none" fill-rule="evenodd"></path></svg>