<svg width="24" height="24" viewBox="0 0 24 24" fill="none" xmlns="http://www.w3.org/2000/svg"><path d="M10.920 2.060 C 10.887 2.068,10.671 2.104,10.440 2.140 C 9.423 2.299,8.558 2.577,7.580 3.059 C 6.527 3.579,5.743 4.137,4.944 4.936 C 3.369 6.509,2.415 8.439,2.075 10.740 C 2.006 11.203,2.005 12.701,2.073 13.180 C 2.477 16.030,3.838 18.370,6.052 20.023 C 8.389 21.767,11.414 22.401,14.240 21.738 C 15.610 21.416,17.112 20.696,18.166 19.855 C 21.030 17.570,22.432 14.021,21.876 10.460 C 21.751 9.657,21.405 8.521,21.057 7.770 C 19.908 5.297,17.669 3.331,15.035 2.484 C 14.026 2.160,13.458 2.077,12.120 2.059 C 11.493 2.051,10.953 2.051,10.920 2.060 M13.031 3.081 C 14.673 3.230,16.392 3.969,17.768 5.118 C 19.522 6.582,20.635 8.639,20.923 10.950 C 20.987 11.460,20.988 12.600,20.926 13.080 C 20.751 14.422,20.247 15.804,19.530 16.900 C 18.487 18.497,16.877 19.787,15.120 20.434 C 13.895 20.885,12.635 21.060,11.300 20.964 C 9.588 20.841,7.819 20.147,6.427 19.053 C 5.984 18.705,5.166 17.864,4.832 17.414 C 4.020 16.320,3.454 15.067,3.174 13.740 C 3.068 13.241,3.064 13.172,3.062 12.020 C 3.060 10.852,3.063 10.806,3.173 10.280 C 3.757 7.502,5.468 5.245,7.940 3.992 C 9.564 3.170,11.057 2.902,13.031 3.081 M6.534 11.548 C 6.291 11.561,6.232 11.579,6.145 11.666 C 5.938 11.873,5.988 12.224,6.253 12.417 C 6.366 12.500,6.370 12.500,11.995 12.500 C 17.353 12.500,17.629 12.497,17.734 12.428 C 17.873 12.337,18.000 12.130,17.998 12.000 C 17.995 11.829,17.870 11.628,17.740 11.585 C 17.626 11.547,7.213 11.513,6.534 11.548 " fill="#EC0000" stroke="none" fill-rule="evenodd"></path></svg>