<svg width="24" height="25" viewBox="0 0 24 25" fill="none" xmlns="http://www.w3.org/2000/svg"><path d="M10.840 2.587 C 10.465 2.626,9.436 2.869,8.900 3.045 C 7.830 3.396,6.598 4.071,5.696 4.801 C 5.274 5.142,4.521 5.900,4.185 6.320 C 3.217 7.531,2.552 8.986,2.171 10.720 C 2.065 11.201,2.061 11.264,2.062 12.360 C 2.062 13.568,2.090 13.886,2.267 14.680 C 2.711 16.670,3.791 18.502,5.341 19.896 C 6.713 21.129,8.083 21.828,10.065 22.305 C 10.468 22.402,10.584 22.411,11.656 22.429 C 13.223 22.455,13.623 22.411,14.698 22.095 C 17.058 21.401,18.958 20.009,20.325 17.973 C 21.495 16.229,22.090 14.024,21.958 11.923 C 21.804 9.481,20.814 7.268,19.100 5.538 C 17.634 4.058,15.746 3.046,13.840 2.719 C 13.248 2.617,11.353 2.534,10.840 2.587 M13.265 3.640 C 14.007 3.718,15.158 4.077,15.960 4.481 C 16.385 4.695,17.069 5.117,17.421 5.382 C 18.551 6.233,19.333 7.191,20.000 8.540 C 20.359 9.266,20.549 9.760,20.728 10.433 C 20.852 10.898,20.853 10.905,20.870 12.140 C 20.894 13.841,20.822 14.438,20.480 15.420 C 20.317 15.886,19.870 16.802,19.581 17.260 C 18.566 18.869,17.121 20.085,15.360 20.810 C 14.619 21.116,13.699 21.354,12.920 21.443 C 12.401 21.503,11.084 21.468,10.600 21.383 C 9.037 21.106,7.454 20.390,6.362 19.466 C 5.282 18.551,4.643 17.748,4.025 16.526 C 3.654 15.794,3.515 15.449,3.360 14.865 C 3.162 14.123,3.118 13.794,3.093 12.880 C 3.067 11.925,3.117 11.144,3.239 10.589 C 3.491 9.448,4.135 8.056,4.858 7.090 C 6.088 5.446,8.176 4.126,10.180 3.725 C 10.400 3.681,10.643 3.637,10.720 3.629 C 11.017 3.595,12.918 3.603,13.265 3.640 M11.900 6.549 C 11.856 6.560,11.772 6.604,11.713 6.645 C 11.503 6.794,11.500 6.848,11.500 10.840 C 11.500 12.853,11.515 14.658,11.534 14.852 C 11.560 15.123,11.588 15.227,11.654 15.304 C 11.813 15.489,12.180 15.497,12.341 15.319 C 12.399 15.255,12.423 15.142,12.445 14.828 C 12.495 14.134,12.529 8.794,12.491 7.794 C 12.450 6.744,12.435 6.684,12.178 6.577 C 12.037 6.518,12.030 6.517,11.900 6.549 M11.893 16.552 C 11.770 16.570,11.623 16.730,11.565 16.908 C 11.538 16.992,11.505 17.204,11.493 17.380 C 11.436 18.177,11.741 18.633,12.185 18.416 C 12.442 18.290,12.497 18.124,12.495 17.480 C 12.494 17.063,12.479 16.912,12.429 16.816 C 12.327 16.621,12.118 16.518,11.893 16.552 " fill="#EC0000" stroke="none" fill-rule="evenodd"></path></svg>