<svg width="24" height="25" viewBox="0 0 24 25" fill="none" xmlns="http://www.w3.org/2000/svg"><path d="M10.840 2.587 C 10.465 2.626,9.436 2.869,8.900 3.045 C 7.830 3.396,6.598 4.071,5.696 4.801 C 5.274 5.142,4.521 5.900,4.185 6.320 C 3.217 7.531,2.552 8.986,2.171 10.720 C 2.065 11.201,2.061 11.264,2.062 12.360 C 2.062 13.568,2.090 13.886,2.267 14.680 C 2.711 16.670,3.791 18.502,5.341 19.896 C 6.713 21.129,8.083 21.828,10.065 22.305 C 10.468 22.402,10.584 22.411,11.656 22.429 C 13.223 22.455,13.623 22.411,14.698 22.095 C 17.058 21.401,18.958 20.009,20.325 17.973 C 21.495 16.229,22.090 14.024,21.958 11.923 C 21.804 9.481,20.814 7.268,19.100 5.538 C 17.634 4.058,15.746 3.046,13.840 2.719 C 13.248 2.617,11.353 2.534,10.840 2.587 M13.265 3.640 C 14.007 3.718,15.158 4.077,15.960 4.481 C 16.385 4.695,17.069 5.117,17.421 5.382 C 18.551 6.233,19.333 7.191,20.000 8.540 C 20.359 9.266,20.549 9.760,20.728 10.433 C 20.852 10.898,20.853 10.905,20.870 12.140 C 20.894 13.841,20.822 14.438,20.480 15.420 C 20.317 15.886,19.870 16.802,19.581 17.260 C 18.566 18.869,17.121 20.085,15.360 20.810 C 14.619 21.116,13.699 21.354,12.920 21.443 C 12.401 21.503,11.084 21.468,10.600 21.383 C 9.037 21.106,7.454 20.390,6.362 19.466 C 5.282 18.551,4.643 17.748,4.025 16.526 C 3.654 15.794,3.515 15.449,3.360 14.865 C 3.162 14.123,3.118 13.794,3.093 12.880 C 3.067 11.925,3.117 11.144,3.239 10.589 C 3.491 9.448,4.135 8.056,4.858 7.090 C 6.088 5.446,8.176 4.126,10.180 3.725 C 10.400 3.681,10.643 3.637,10.720 3.629 C 11.017 3.595,12.918 3.603,13.265 3.640 M11.240 6.560 C 10.957 6.598,10.587 6.750,10.204 6.988 C 9.833 7.217,9.193 7.849,9.002 8.176 C 8.719 8.657,8.484 9.536,8.530 9.941 C 8.565 10.250,8.851 10.482,9.097 10.401 C 9.319 10.328,9.386 10.215,9.538 9.651 C 9.716 8.996,9.781 8.845,10.018 8.531 C 10.559 7.813,11.337 7.437,12.156 7.497 C 13.010 7.559,13.718 8.021,14.190 8.823 L 14.399 9.180 14.400 9.911 C 14.400 10.622,14.397 10.649,14.295 10.851 C 14.044 11.348,13.769 11.647,12.879 12.387 C 12.069 13.061,11.908 13.272,11.686 13.960 C 11.442 14.716,11.432 15.066,11.643 15.358 C 11.787 15.557,11.904 15.609,12.090 15.558 C 12.327 15.492,12.386 15.387,12.539 14.747 C 12.759 13.825,12.863 13.674,13.800 12.911 C 14.777 12.116,15.132 11.628,15.366 10.758 C 15.495 10.281,15.496 9.515,15.368 9.069 C 15.073 8.033,14.276 7.146,13.265 6.725 C 12.840 6.548,11.904 6.471,11.240 6.560 M11.893 16.552 C 11.770 16.570,11.623 16.730,11.565 16.908 C 11.538 16.992,11.505 17.204,11.493 17.380 C 11.436 18.177,11.741 18.633,12.185 18.416 C 12.442 18.290,12.497 18.124,12.495 17.480 C 12.494 17.063,12.479 16.912,12.429 16.816 C 12.327 16.621,12.118 16.518,11.893 16.552 " fill="#EC0000" stroke="none" fill-rule="evenodd"></path></svg>