<svg width="26" height="25" viewBox="0 0 26 25" fill="none" xmlns="http://www.w3.org/2000/svg"><path d="M22.594 0.302 C 21.649 0.447,20.824 1.152,20.563 2.037 C 20.299 2.931,20.531 3.846,21.190 4.509 C 21.749 5.071,22.259 5.267,23.075 5.232 C 23.616 5.210,23.881 5.128,24.295 4.858 C 24.777 4.543,25.131 4.093,25.315 3.562 C 25.455 3.155,25.456 2.356,25.315 1.975 C 25.114 1.427,24.755 0.968,24.298 0.676 C 23.830 0.377,23.120 0.221,22.594 0.302 M11.093 2.367 C 9.375 2.599,7.600 3.360,6.226 4.452 C 4.217 6.050,2.887 8.402,2.532 10.985 C 2.449 11.593,2.438 12.829,2.511 13.412 C 2.650 14.518,3.017 15.748,3.493 16.702 C 4.965 19.648,7.729 21.659,11.014 22.173 C 11.707 22.281,13.227 22.280,13.888 22.171 C 15.512 21.904,16.866 21.369,18.109 20.506 C 22.250 17.631,23.631 12.211,21.358 7.750 C 20.588 6.237,19.424 4.918,18.048 3.999 C 16.676 3.081,15.215 2.536,13.608 2.341 C 13.092 2.279,11.636 2.294,11.093 2.367 M13.758 3.378 C 14.791 3.531,15.567 3.778,16.488 4.244 C 18.127 5.074,19.437 6.332,20.317 7.918 C 21.738 10.480,21.814 13.605,20.519 16.228 C 20.062 17.155,19.594 17.813,18.858 18.563 C 18.092 19.344,17.344 19.887,16.402 20.348 C 12.507 22.251,7.883 21.139,5.262 17.669 C 3.209 14.952,2.884 11.299,4.421 8.233 C 5.742 5.598,8.310 3.758,11.223 3.359 C 11.874 3.270,13.094 3.279,13.758 3.378 M12.107 6.431 L 11.960 6.578 11.960 7.234 C 11.960 7.987,11.997 8.112,12.252 8.219 C 12.458 8.305,12.651 8.264,12.808 8.100 C 12.934 7.969,12.935 7.963,12.949 7.375 C 12.966 6.674,12.926 6.489,12.727 6.368 C 12.505 6.233,12.282 6.256,12.107 6.431 M12.186 10.354 C 12.108 10.403,12.025 10.493,12.002 10.555 C 11.976 10.623,11.960 12.038,11.960 14.283 C 11.960 18.296,11.944 18.077,12.249 18.222 C 12.394 18.291,12.430 18.293,12.585 18.239 C 12.694 18.201,12.796 18.123,12.858 18.030 L 12.958 17.882 12.947 14.228 L 12.935 10.575 12.801 10.441 C 12.624 10.264,12.384 10.230,12.186 10.354 " fill="#990000" stroke="none" fill-rule="evenodd"></path></svg>