<svg width="24" height="25" viewBox="0 0 24 25" fill="none" xmlns="http://www.w3.org/2000/svg"><path d="M10.065 2.719 C 9.172 2.911,8.471 3.161,7.540 3.619 C 6.483 4.140,5.846 4.598,4.978 5.460 C 4.120 6.313,3.561 7.078,3.080 8.060 C 2.653 8.933,2.400 9.679,2.172 10.740 C 2.063 11.245,2.060 11.294,2.060 12.480 C 2.061 13.496,2.073 13.760,2.133 14.060 C 2.603 16.404,3.406 17.962,4.939 19.504 C 6.154 20.725,7.400 21.489,9.040 22.017 C 9.877 22.287,10.451 22.394,11.336 22.448 C 13.191 22.561,14.727 22.250,16.425 21.418 C 17.703 20.791,18.848 19.888,19.693 18.839 C 20.716 17.571,21.580 15.734,21.821 14.320 C 21.999 13.275,21.996 11.486,21.815 10.603 C 21.734 10.209,21.480 9.387,21.274 8.854 C 20.217 6.117,17.891 3.940,15.045 3.023 C 13.914 2.659,13.981 2.667,12.100 2.654 C 10.574 2.644,10.388 2.650,10.065 2.719 M13.140 3.644 C 14.543 3.770,15.781 4.246,17.209 5.209 C 17.743 5.569,17.901 5.727,17.841 5.839 C 17.783 5.947,16.832 6.841,12.159 11.180 C 7.447 15.556,5.218 17.612,4.982 17.798 L 4.825 17.923 4.572 17.532 C 4.266 17.059,3.824 16.198,3.622 15.682 C 3.424 15.177,3.215 14.349,3.136 13.750 C 3.058 13.165,3.049 12.004,3.118 11.400 C 3.360 9.258,4.522 7.089,6.180 5.681 C 6.566 5.353,7.254 4.883,7.724 4.627 C 8.708 4.092,10.015 3.682,11.000 3.601 C 11.437 3.565,12.497 3.586,13.140 3.644 M19.302 7.320 C 19.979 8.338,20.396 9.215,20.640 10.138 C 20.835 10.871,20.886 11.272,20.908 12.240 C 20.947 13.928,20.736 14.976,20.087 16.322 C 19.361 17.828,18.346 19.026,17.043 19.915 C 15.053 21.273,12.429 21.799,10.167 21.296 C 8.762 20.983,7.165 20.192,6.159 19.311 C 5.823 19.017,5.600 18.783,5.600 18.724 C 5.600 18.686,6.260 18.040,7.100 17.254 C 8.436 16.005,16.372 8.644,18.193 6.966 L 18.686 6.512 18.787 6.606 C 18.843 6.658,19.075 6.979,19.302 7.320 " fill="#EC0000" stroke="none" fill-rule="evenodd"></path></svg>