<svg width="24" height="25" viewBox="0 0 24 25" fill="none" xmlns="http://www.w3.org/2000/svg"><path d="M10.600 2.624 C 9.004 2.918,7.711 3.417,6.540 4.189 C 4.464 5.559,3.104 7.409,2.399 9.824 C 2.114 10.800,2.075 11.056,2.052 12.130 C 2.015 13.802,2.175 14.728,2.748 16.180 C 3.298 17.571,3.856 18.415,4.960 19.522 C 6.319 20.884,7.799 21.720,9.740 22.220 C 10.509 22.418,10.894 22.450,12.284 22.430 L 13.500 22.413 14.062 22.269 C 16.501 21.644,18.307 20.526,19.754 18.746 C 20.866 17.378,21.637 15.588,21.902 13.762 C 21.999 13.095,21.967 11.541,21.841 10.840 C 21.549 9.200,20.822 7.582,19.821 6.340 C 19.475 5.910,18.663 5.089,18.255 4.756 C 17.456 4.103,16.073 3.363,14.988 3.007 C 14.004 2.684,13.621 2.634,12.040 2.619 C 11.303 2.612,10.655 2.614,10.600 2.624 M13.082 3.642 C 13.889 3.697,14.623 3.885,15.500 4.262 C 17.949 5.313,19.730 7.293,20.572 9.900 C 20.844 10.743,20.860 10.890,20.860 12.540 L 20.860 14.020 20.745 14.480 C 20.165 16.788,18.773 18.790,16.900 20.008 C 16.003 20.592,14.794 21.088,13.657 21.340 C 13.236 21.433,11.949 21.487,11.231 21.441 C 9.800 21.350,7.992 20.689,6.832 19.832 C 6.042 19.249,5.262 18.476,4.761 17.780 C 4.058 16.805,3.446 15.421,3.218 14.293 C 3.028 13.355,3.049 11.311,3.258 10.489 C 3.629 9.024,4.359 7.626,5.336 6.511 C 6.591 5.078,8.728 3.922,10.640 3.642 C 11.162 3.566,11.958 3.566,13.082 3.642 M16.124 7.716 C 15.887 7.959,15.323 8.806,13.082 12.280 C 12.110 13.787,11.283 15.053,11.244 15.092 C 11.176 15.162,11.108 15.100,9.477 13.496 C 8.543 12.579,7.730 11.797,7.669 11.760 C 7.604 11.720,7.514 11.700,7.454 11.711 C 7.315 11.738,7.000 12.043,7.000 12.151 C 7.000 12.324,7.472 12.846,9.658 15.094 C 10.913 16.385,11.046 16.507,11.239 16.546 C 11.510 16.600,11.799 16.199,14.092 12.595 C 16.170 9.328,16.854 8.214,16.907 8.007 C 16.922 7.946,16.903 7.875,16.851 7.807 C 16.762 7.685,16.496 7.522,16.387 7.521 C 16.347 7.520,16.229 7.608,16.124 7.716 " fill="#EC0000" stroke="none" fill-rule="evenodd"></path></svg>