<svg width="24" height="24" viewBox="0 0 24 24" fill="none" xmlns="http://www.w3.org/2000/svg"><path d="M11.100 2.045 C 8.029 2.339,5.279 4.008,3.589 6.602 C 2.808 7.799,2.299 9.204,2.072 10.780 C 2.005 11.249,2.005 12.751,2.072 13.220 C 2.456 15.892,3.655 18.052,5.700 19.755 C 7.031 20.863,8.755 21.614,10.640 21.907 C 11.283 22.007,12.717 22.007,13.360 21.907 C 15.212 21.619,16.868 20.908,18.220 19.818 C 18.675 19.452,19.515 18.606,19.873 18.154 C 21.297 16.354,22.070 13.987,21.987 11.680 C 21.856 8.084,19.904 4.937,16.730 3.207 C 15.975 2.795,15.302 2.535,14.440 2.321 C 13.737 2.146,13.292 2.083,12.440 2.040 C 11.577 1.997,11.606 1.997,11.100 2.045 M12.395 3.040 C 13.869 3.115,14.837 3.368,16.092 4.008 C 17.013 4.477,17.714 4.996,18.441 5.746 C 19.174 6.503,19.644 7.183,20.124 8.178 C 20.732 9.442,20.959 10.480,20.959 12.000 C 20.959 13.559,20.729 14.583,20.081 15.900 C 19.553 16.973,19.069 17.646,18.254 18.443 C 17.257 19.417,16.193 20.065,14.840 20.521 C 13.320 21.035,11.815 21.133,10.260 20.820 C 8.518 20.469,7.017 19.682,5.766 18.463 C 4.960 17.678,4.391 16.886,3.900 15.869 C 3.275 14.571,3.040 13.522,3.040 12.028 C 3.041 11.188,3.077 10.760,3.204 10.120 C 3.456 8.853,4.214 7.300,5.088 6.260 C 5.905 5.288,6.847 4.539,7.940 3.990 C 8.989 3.464,9.848 3.209,11.078 3.060 C 11.624 2.994,11.507 2.995,12.395 3.040 M7.773 11.036 C 7.249 11.169,6.916 11.694,7.033 12.204 C 7.192 12.893,7.997 13.215,8.557 12.813 C 9.179 12.365,9.116 11.465,8.438 11.119 C 8.265 11.031,7.951 10.992,7.773 11.036 M11.773 11.036 C 11.249 11.169,10.916 11.694,11.033 12.204 C 11.209 12.967,12.126 13.248,12.680 12.708 C 12.952 12.444,13.057 12.060,12.953 11.712 C 12.894 11.517,12.639 11.221,12.441 11.120 C 12.265 11.031,11.952 10.991,11.773 11.036 M15.773 11.036 C 15.249 11.169,14.916 11.694,15.033 12.204 C 15.209 12.967,16.126 13.248,16.680 12.708 C 16.952 12.444,17.057 12.060,16.953 11.712 C 16.894 11.517,16.639 11.221,16.441 11.120 C 16.265 11.031,15.952 10.991,15.773 11.036 " fill="#EC0000" stroke="none" fill-rule="evenodd"></path></svg>