<svg width="24" height="25" viewBox="0 0 24 25" fill="none" xmlns="http://www.w3.org/2000/svg"><path d="M10.929 2.580 C 8.326 2.927,6.059 4.137,4.408 6.060 C 3.292 7.360,2.568 8.882,2.152 10.800 C 2.069 11.183,2.061 11.323,2.062 12.380 C 2.062 13.611,2.092 13.960,2.263 14.680 C 2.519 15.767,3.048 17.046,3.578 17.860 C 4.060 18.602,4.977 19.611,5.751 20.252 C 7.359 21.583,9.487 22.389,11.600 22.466 C 13.895 22.550,16.101 21.866,17.912 20.510 C 20.141 18.841,21.555 16.434,21.924 13.680 C 21.989 13.195,21.989 11.939,21.924 11.420 C 21.495 7.992,19.486 5.141,16.403 3.584 C 15.195 2.974,14.257 2.719,12.800 2.604 C 11.864 2.530,11.353 2.523,10.929 2.580 M12.860 3.640 C 13.638 3.674,13.738 3.687,14.220 3.820 C 15.202 4.090,16.149 4.521,16.989 5.078 C 18.762 6.256,19.950 7.876,20.597 10.000 C 20.853 10.838,20.860 10.908,20.860 12.500 C 20.860 13.745,20.850 13.989,20.786 14.300 C 20.584 15.283,20.003 16.627,19.368 17.580 C 17.779 19.966,14.908 21.480,11.974 21.480 C 9.660 21.480,7.190 20.436,5.620 18.795 C 4.946 18.091,4.450 17.382,3.982 16.452 C 3.469 15.435,3.203 14.537,3.115 13.529 C 3.059 12.886,3.094 11.424,3.177 10.940 C 3.521 8.937,4.736 6.846,6.277 5.606 C 7.386 4.714,8.712 4.065,10.100 3.735 C 10.622 3.611,11.517 3.580,12.860 3.640 M8.820 7.474 C 8.554 7.639,8.554 7.640,8.518 8.548 C 8.499 9.006,8.483 11.154,8.482 13.323 L 8.480 17.265 8.590 17.368 C 8.833 17.595,8.958 17.608,9.301 17.446 C 9.901 17.162,14.809 14.368,16.527 13.333 C 17.364 12.828,17.583 12.587,17.442 12.324 C 17.353 12.158,16.489 11.633,13.420 9.881 C 10.770 8.367,9.026 7.399,8.951 7.400 C 8.945 7.400,8.886 7.434,8.820 7.474 M11.197 9.755 C 13.752 11.213,15.840 12.459,15.840 12.526 C 15.840 12.574,13.472 13.973,11.184 15.277 C 9.896 16.011,9.654 16.134,9.612 16.069 C 9.573 16.009,9.544 9.617,9.581 9.210 C 9.601 8.982,9.621 8.920,9.671 8.920 C 9.706 8.920,10.393 9.296,11.197 9.755 " fill="#EC0000" stroke="none" fill-rule="evenodd"></path></svg>