<svg width="24" height="25" viewBox="0 0 24 25" fill="none" xmlns="http://www.w3.org/2000/svg"><path d="M17.257 2.670 C 17.145 2.710,16.936 2.827,16.793 2.929 C 16.435 3.185,12.859 6.704,6.976 12.591 L 2.048 17.522 2.018 18.071 C 1.981 18.760,2.026 21.966,2.077 22.175 C 2.097 22.260,2.131 22.347,2.152 22.368 C 2.249 22.465,2.632 22.487,4.640 22.508 L 6.780 22.530 7.300 22.052 C 8.665 20.798,19.825 9.639,21.086 8.267 C 21.653 7.651,21.725 7.545,21.864 7.132 C 21.957 6.854,21.966 6.776,21.951 6.381 C 21.933 5.899,21.847 5.590,21.655 5.313 C 21.474 5.052,20.394 3.924,19.852 3.429 C 19.004 2.656,18.961 2.636,18.080 2.613 C 17.555 2.600,17.429 2.609,17.257 2.670 M18.583 3.684 C 18.880 3.823,20.304 5.181,20.753 5.754 L 20.920 5.967 20.920 6.374 C 20.920 6.597,20.902 6.843,20.881 6.920 C 20.831 7.099,20.314 7.674,19.029 8.980 L 18.046 9.980 16.280 8.220 L 14.515 6.460 15.467 5.523 C 16.453 4.554,17.255 3.804,17.430 3.690 C 17.647 3.547,18.284 3.544,18.583 3.684 M15.570 8.950 L 17.320 10.700 11.910 16.110 L 6.500 21.520 4.750 21.520 L 3.000 21.520 3.000 19.750 L 3.000 17.980 8.390 12.590 C 11.354 9.626,13.789 7.200,13.800 7.200 C 13.811 7.200,14.607 7.987,15.570 8.950 " fill="#EC0000" stroke="none" fill-rule="evenodd"></path></svg>