<svg width="24" height="25" viewBox="0 0 24 25" fill="none" xmlns="http://www.w3.org/2000/svg"><path d="M18.940 2.597 C 18.438 2.720,17.960 3.164,13.299 7.845 C 9.968 11.191,9.185 11.999,9.079 12.200 C 9.038 12.277,9.026 12.630,9.023 13.727 C 9.020 15.116,9.022 15.157,9.104 15.267 C 9.257 15.474,9.374 15.489,10.920 15.509 L 12.340 15.527 15.783 12.073 C 21.164 6.676,21.645 6.180,21.811 5.846 C 21.889 5.692,21.964 5.476,21.979 5.366 C 22.013 5.123,21.945 4.769,21.818 4.517 C 21.625 4.134,20.348 2.861,20.012 2.717 C 19.696 2.581,19.224 2.528,18.940 2.597 M5.300 2.640 C 4.864 2.675,4.664 2.727,4.314 2.900 C 3.922 3.094,3.587 3.334,3.228 3.676 C 2.704 4.176,2.456 4.583,2.136 5.468 L 1.999 5.846 2.010 12.553 L 2.020 19.260 2.215 19.740 C 2.475 20.382,2.719 20.788,3.077 21.169 C 3.600 21.727,4.162 22.087,4.839 22.299 C 5.147 22.395,5.273 22.408,6.199 22.445 C 7.559 22.499,16.542 22.497,17.820 22.443 C 18.941 22.396,19.107 22.365,19.660 22.103 C 20.479 21.716,21.254 20.950,21.601 20.185 C 21.662 20.049,21.779 19.750,21.860 19.519 L 22.008 19.100 21.983 15.700 C 21.969 13.830,21.945 12.179,21.928 12.030 C 21.888 11.664,21.804 11.580,21.483 11.581 C 21.353 11.582,21.222 11.606,21.187 11.634 C 21.061 11.739,21.038 12.064,21.001 14.280 C 20.930 18.602,20.901 19.221,20.754 19.567 C 20.409 20.379,19.762 21.008,18.948 21.322 L 18.620 21.449 17.220 21.483 C 16.450 21.501,13.522 21.517,10.713 21.518 L 5.606 21.520 5.253 21.396 C 4.665 21.190,4.376 21.016,3.998 20.640 C 3.610 20.255,3.467 20.060,3.245 19.613 L 3.089 19.300 3.062 16.400 C 3.047 14.805,3.054 11.722,3.076 9.548 L 3.117 5.596 3.287 5.276 C 3.632 4.629,4.109 4.152,4.756 3.807 L 5.076 3.636 6.128 3.600 C 6.707 3.579,8.278 3.544,9.620 3.521 C 12.252 3.476,12.553 3.461,12.747 3.372 C 12.992 3.260,13.055 2.949,12.881 2.720 L 12.805 2.620 9.232 2.616 C 7.268 2.613,5.498 2.624,5.300 2.640 M19.587 3.611 C 19.731 3.692,20.389 4.312,20.641 4.604 C 20.914 4.922,20.990 5.126,20.918 5.347 C 20.856 5.533,20.649 5.748,15.907 10.530 L 11.952 14.520 10.976 14.520 L 10.000 14.520 10.000 13.524 L 10.000 12.527 13.970 8.579 C 16.154 6.407,18.197 4.390,18.511 4.095 L 19.082 3.560 19.291 3.561 C 19.406 3.562,19.539 3.585,19.587 3.611 " fill="#EC0000" stroke="none" fill-rule="evenodd"></path></svg>