<svg width="24" height="25" viewBox="0 0 24 25" fill="none" xmlns="http://www.w3.org/2000/svg"><path d="M8.355 2.600 C 7.107 2.718,5.763 3.275,4.780 4.081 C 4.435 4.364,3.680 5.137,3.434 5.460 C 2.690 6.436,2.173 7.804,2.037 9.160 C 1.915 10.372,2.181 11.685,2.802 12.940 C 3.139 13.621,3.491 14.122,4.020 14.674 C 5.764 16.492,8.303 17.277,10.701 16.739 C 11.223 16.622,11.952 16.398,12.273 16.256 L 12.492 16.159 12.636 16.268 C 12.715 16.329,13.626 17.216,14.660 18.241 C 17.181 20.740,18.191 21.716,18.569 22.018 C 19.228 22.544,19.984 22.612,20.787 22.215 C 21.195 22.014,21.511 21.689,21.734 21.243 C 21.969 20.773,22.028 20.475,21.964 20.091 C 21.884 19.617,21.782 19.376,21.530 19.068 C 21.252 18.727,19.804 17.240,17.412 14.839 L 15.638 13.058 15.834 12.539 C 16.226 11.498,16.346 10.978,16.381 10.180 C 16.429 9.093,16.320 8.299,15.993 7.340 C 15.314 5.351,13.765 3.783,11.683 2.979 C 11.006 2.717,10.439 2.625,9.260 2.586 C 8.952 2.576,8.545 2.582,8.355 2.600 M10.140 3.644 C 10.903 3.719,11.585 3.949,12.323 4.382 C 13.782 5.237,14.900 6.778,15.245 8.411 C 15.394 9.111,15.360 10.499,15.175 11.310 C 14.869 12.652,13.875 14.018,12.569 14.892 C 11.875 15.356,10.820 15.773,10.167 15.842 C 9.720 15.889,8.679 15.889,8.231 15.842 C 7.654 15.781,6.476 15.324,5.839 14.913 C 5.256 14.536,4.336 13.579,3.980 12.980 C 3.574 12.295,3.211 11.327,3.117 10.681 C 3.062 10.300,3.093 8.841,3.165 8.453 C 3.280 7.828,3.668 6.928,4.109 6.261 C 4.426 5.781,5.227 4.962,5.680 4.654 C 6.315 4.221,7.204 3.822,7.811 3.695 C 8.438 3.564,9.164 3.548,10.140 3.644 M20.027 18.920 C 20.918 19.871,20.900 19.842,20.900 20.317 C 20.900 20.661,20.889 20.719,20.792 20.883 C 20.654 21.118,20.413 21.336,20.215 21.404 C 19.972 21.488,19.569 21.472,19.379 21.372 C 19.095 21.223,18.588 20.742,16.001 18.169 L 13.462 15.644 14.062 15.032 C 14.393 14.695,14.761 14.305,14.882 14.165 L 15.100 13.909 17.236 16.065 C 18.411 17.250,19.667 18.535,20.027 18.920 " fill="#EC0000" stroke="none" fill-rule="evenodd"></path></svg>