<svg width="24" height="24" viewBox="0 0 24 24" fill="none" xmlns="http://www.w3.org/2000/svg"><path d="M8.532 2.043 C 7.703 2.123,6.924 2.344,6.121 2.726 C 3.878 3.793,2.387 5.853,2.062 8.332 C 1.670 11.322,3.264 14.284,6.004 15.662 C 7.160 16.243,8.536 16.515,9.760 16.406 C 10.610 16.330,11.368 16.135,12.154 15.791 L 12.528 15.628 15.034 18.126 C 18.249 21.332,18.528 21.598,18.837 21.752 C 19.675 22.171,20.629 22.030,21.309 21.388 C 22.011 20.725,22.188 19.708,21.752 18.837 C 21.598 18.528,21.332 18.249,18.126 15.034 L 15.628 12.528 15.792 12.154 C 16.637 10.222,16.640 8.212,15.800 6.274 C 15.286 5.090,14.244 3.884,13.096 3.147 C 11.788 2.305,10.081 1.893,8.532 2.043 M9.800 3.041 C 10.973 3.162,12.012 3.562,12.900 4.234 C 14.626 5.539,15.557 7.556,15.398 9.644 C 15.315 10.741,14.962 11.770,14.355 12.684 C 14.031 13.172,13.195 14.012,12.700 14.347 C 11.992 14.825,11.128 15.181,10.280 15.343 C 9.754 15.443,8.686 15.443,8.160 15.343 C 5.765 14.885,3.817 13.098,3.229 10.820 C 3.071 10.210,3.025 9.836,3.026 9.180 C 3.027 8.456,3.105 7.964,3.322 7.309 C 3.685 6.213,4.272 5.324,5.144 4.549 C 6.389 3.444,8.158 2.871,9.800 3.041 M9.020 5.764 C 8.976 5.790,8.890 5.857,8.830 5.913 L 8.720 6.015 8.720 7.362 L 8.720 8.709 7.353 8.729 L 5.986 8.748 5.875 8.872 C 5.643 9.132,5.700 9.488,5.999 9.646 C 6.126 9.714,6.252 9.720,7.429 9.720 L 8.720 9.720 8.720 11.077 L 8.720 12.434 8.870 12.558 C 9.069 12.723,9.168 12.743,9.383 12.661 C 9.703 12.539,9.698 12.561,9.714 11.052 L 9.727 9.720 10.934 9.719 C 12.459 9.718,12.585 9.692,12.685 9.359 C 12.745 9.159,12.674 8.950,12.507 8.831 C 12.382 8.741,12.358 8.740,11.050 8.728 L 9.720 8.715 9.720 7.468 C 9.720 6.735,9.703 6.159,9.678 6.072 C 9.608 5.819,9.230 5.643,9.020 5.764 M16.972 15.310 C 19.429 17.760,20.833 19.214,20.904 19.382 C 20.936 19.460,20.960 19.651,20.960 19.831 C 20.960 20.209,20.844 20.482,20.591 20.699 C 20.282 20.963,19.702 21.054,19.378 20.889 C 19.124 20.759,18.356 20.024,15.800 17.462 C 13.533 15.190,13.424 15.073,13.500 15.017 C 13.918 14.706,14.628 14.001,14.937 13.590 C 14.999 13.508,15.060 13.440,15.073 13.440 C 15.086 13.440,15.940 14.282,16.972 15.310 " fill="#137E84" stroke="none" fill-rule="evenodd"></path></svg>