<svg width="24" height="24" viewBox="0 0 24 24" fill="none" xmlns="http://www.w3.org/2000/svg"><path d="M8.532 2.043 C 7.703 2.123,6.924 2.344,6.121 2.726 C 3.878 3.793,2.387 5.853,2.062 8.332 C 1.670 11.322,3.264 14.284,6.004 15.662 C 7.160 16.243,8.536 16.515,9.760 16.406 C 10.610 16.330,11.368 16.135,12.154 15.791 L 12.528 15.628 15.034 18.126 C 18.249 21.332,18.528 21.598,18.837 21.752 C 19.675 22.171,20.629 22.030,21.309 21.388 C 22.011 20.725,22.188 19.708,21.752 18.837 C 21.598 18.528,21.332 18.249,18.126 15.034 L 15.628 12.528 15.792 12.154 C 16.637 10.222,16.640 8.212,15.800 6.274 C 15.286 5.090,14.244 3.884,13.096 3.147 C 11.788 2.305,10.081 1.893,8.532 2.043 M9.800 3.041 C 10.973 3.162,12.012 3.562,12.900 4.234 C 14.626 5.539,15.557 7.556,15.398 9.644 C 15.315 10.741,14.962 11.770,14.355 12.684 C 14.031 13.172,13.195 14.012,12.700 14.347 C 11.992 14.825,11.128 15.181,10.280 15.343 C 9.754 15.443,8.686 15.443,8.160 15.343 C 5.765 14.885,3.817 13.098,3.229 10.820 C 3.071 10.210,3.025 9.836,3.026 9.180 C 3.027 8.456,3.105 7.964,3.322 7.309 C 3.685 6.213,4.272 5.324,5.144 4.549 C 6.389 3.444,8.158 2.871,9.800 3.041 M6.446 8.756 C 5.970 8.779,5.949 8.784,5.858 8.890 C 5.659 9.122,5.694 9.430,5.942 9.618 L 6.075 9.720 9.027 9.719 C 10.651 9.719,12.094 9.702,12.234 9.682 C 12.520 9.640,12.616 9.574,12.683 9.370 C 12.748 9.173,12.676 8.951,12.509 8.832 L 12.380 8.740 9.660 8.736 C 8.164 8.734,6.718 8.743,6.446 8.756 M16.972 15.310 C 19.429 17.760,20.833 19.214,20.904 19.382 C 20.936 19.460,20.960 19.651,20.960 19.831 C 20.960 20.209,20.844 20.482,20.591 20.699 C 20.282 20.963,19.702 21.054,19.378 20.889 C 19.124 20.759,18.356 20.024,15.800 17.462 C 13.533 15.190,13.424 15.073,13.500 15.017 C 13.918 14.706,14.628 14.001,14.937 13.590 C 14.999 13.508,15.060 13.440,15.073 13.440 C 15.086 13.440,15.940 14.282,16.972 15.310 " fill="#137E84" stroke="none" fill-rule="evenodd"></path></svg>