<svg width="24" height="25" viewBox="0 0 24 25" fill="none" xmlns="http://www.w3.org/2000/svg"><path d="M9.920 2.597 C 9.711 2.610,9.519 2.634,9.493 2.651 C 9.392 2.716,9.281 3.751,9.280 4.627 L 9.280 5.033 8.770 5.302 C 8.490 5.450,7.963 5.739,7.600 5.944 C 7.236 6.150,6.882 6.338,6.811 6.362 C 6.667 6.412,6.595 6.384,5.290 5.761 C 4.478 5.373,4.543 5.366,4.159 5.884 C 3.610 6.625,2.124 9.198,2.018 9.592 C 1.999 9.664,2.027 9.716,2.147 9.829 C 2.295 9.969,3.039 10.476,3.625 10.837 C 3.908 11.011,3.911 11.014,3.935 11.216 C 3.948 11.328,3.961 11.780,3.964 12.220 C 3.966 12.660,3.981 13.200,3.996 13.420 C 4.012 13.640,4.016 13.845,4.006 13.876 C 3.995 13.907,3.643 14.157,3.223 14.433 C 2.303 15.036,2.051 15.223,2.019 15.324 C 1.988 15.421,2.109 15.685,2.525 16.433 C 3.348 17.910,4.248 19.344,4.426 19.460 C 4.601 19.575,4.815 19.506,5.801 19.018 L 6.725 18.560 7.354 18.934 C 7.701 19.140,8.214 19.432,8.495 19.584 C 9.287 20.012,9.239 19.946,9.283 20.660 C 9.350 21.713,9.391 22.110,9.446 22.226 C 9.476 22.289,9.571 22.375,9.660 22.419 C 9.811 22.493,9.924 22.499,11.620 22.512 C 13.645 22.528,14.265 22.497,14.432 22.372 C 14.590 22.255,14.634 22.020,14.683 21.020 C 14.719 20.304,14.740 20.122,14.796 20.043 C 14.857 19.957,16.339 19.084,16.990 18.751 C 17.303 18.591,17.275 18.583,18.380 19.113 C 18.842 19.334,19.267 19.527,19.325 19.541 C 19.544 19.594,19.836 19.211,20.789 17.620 C 21.391 16.615,21.768 15.933,21.901 15.606 C 21.994 15.376,21.998 15.344,21.945 15.262 C 21.882 15.165,21.352 14.797,20.585 14.318 C 20.292 14.134,20.097 13.985,20.075 13.928 C 20.034 13.819,20.029 12.533,20.066 11.633 L 20.092 11.006 20.656 10.657 C 21.279 10.271,21.818 9.895,21.938 9.763 C 22.007 9.686,22.010 9.662,21.963 9.529 C 21.842 9.183,20.716 7.206,20.099 6.256 C 19.730 5.688,19.544 5.480,19.406 5.480 C 19.349 5.480,18.886 5.677,18.379 5.917 C 17.871 6.158,17.411 6.366,17.355 6.380 C 17.241 6.408,17.145 6.361,15.802 5.610 C 15.330 5.346,14.904 5.095,14.856 5.052 C 14.760 4.966,14.763 4.983,14.680 3.748 C 14.634 3.069,14.583 2.727,14.518 2.662 C 14.496 2.640,14.249 2.610,13.969 2.595 C 13.371 2.562,10.470 2.564,9.920 2.597 M13.641 3.950 C 13.643 4.650,13.705 5.149,13.821 5.385 C 13.975 5.701,14.183 5.846,15.692 6.697 C 16.734 7.285,16.982 7.400,17.248 7.425 C 17.474 7.446,17.435 7.460,18.713 6.881 L 19.086 6.712 19.183 6.803 C 19.328 6.939,20.232 8.416,20.571 9.069 C 20.672 9.265,20.691 9.334,20.658 9.389 C 20.634 9.428,20.360 9.631,20.049 9.841 C 19.460 10.236,19.212 10.447,19.073 10.673 C 18.992 10.802,18.991 10.843,19.008 12.493 C 19.024 14.084,19.030 14.190,19.107 14.362 C 19.201 14.573,19.443 14.777,20.192 15.276 C 20.748 15.647,20.725 15.589,20.499 16.040 C 20.221 16.595,19.281 18.150,19.154 18.265 C 19.082 18.330,19.046 18.317,18.356 17.967 C 17.675 17.621,17.619 17.600,17.384 17.600 C 17.019 17.600,16.804 17.680,16.180 18.045 C 15.872 18.225,15.332 18.533,14.980 18.730 C 14.163 19.187,13.951 19.349,13.821 19.614 C 13.703 19.857,13.642 20.343,13.641 21.050 L 13.640 21.520 12.006 21.520 L 10.372 21.520 10.347 20.810 C 10.320 20.065,10.265 19.730,10.133 19.522 C 10.022 19.346,9.715 19.126,9.085 18.771 C 8.785 18.602,8.252 18.296,7.900 18.090 C 7.193 17.678,6.988 17.600,6.611 17.600 C 6.368 17.600,6.325 17.617,5.625 17.980 C 4.939 18.336,4.889 18.356,4.833 18.290 C 4.685 18.116,3.524 16.157,3.424 15.912 C 3.296 15.600,3.264 15.646,3.928 15.195 C 4.603 14.737,4.794 14.568,4.924 14.312 C 5.011 14.141,5.012 14.130,4.990 12.479 C 4.973 11.143,4.957 10.791,4.910 10.678 C 4.835 10.499,4.599 10.291,4.008 9.884 C 3.288 9.388,3.300 9.401,3.355 9.236 C 3.428 9.013,4.548 7.096,4.807 6.749 C 4.857 6.683,4.904 6.699,5.500 6.975 C 6.640 7.505,6.772 7.523,7.340 7.234 C 7.767 7.017,9.450 6.052,9.692 5.885 C 9.949 5.709,10.190 5.427,10.238 5.247 C 10.313 4.967,10.357 4.516,10.359 4.010 L 10.360 3.520 12.000 3.520 L 13.640 3.520 13.641 3.950 M11.200 8.854 C 10.316 9.062,9.420 9.636,8.898 10.331 C 8.679 10.622,8.483 10.998,8.314 11.454 L 8.192 11.780 8.211 12.580 C 8.231 13.446,8.255 13.557,8.541 14.121 C 9.025 15.079,10.024 15.912,10.964 16.140 C 11.367 16.239,12.513 16.265,12.855 16.184 C 13.537 16.023,14.187 15.654,14.715 15.130 C 15.077 14.770,15.309 14.441,15.521 13.985 C 15.788 13.410,15.800 13.350,15.800 12.555 C 15.800 11.859,15.796 11.818,15.681 11.476 C 15.615 11.281,15.514 11.026,15.455 10.911 C 14.953 9.916,14.000 9.155,12.960 8.915 C 12.523 8.814,11.519 8.780,11.200 8.854 M12.276 9.841 C 13.067 9.901,13.455 10.086,14.044 10.684 C 14.599 11.245,14.842 11.906,14.784 12.687 C 14.752 13.114,14.678 13.372,14.477 13.760 C 13.972 14.734,13.114 15.252,12.000 15.256 C 11.501 15.258,11.197 15.187,10.740 14.962 C 10.197 14.695,9.721 14.227,9.464 13.705 C 9.265 13.302,9.229 13.087,9.246 12.382 L 9.260 11.772 9.452 11.386 C 9.839 10.606,10.700 9.936,11.440 9.839 C 11.561 9.823,11.678 9.808,11.700 9.805 C 11.722 9.803,11.981 9.819,12.276 9.841 " fill="#EC0000" stroke="none" fill-rule="evenodd"></path></svg>