<svg width="24" height="24" viewBox="0 0 24 24" fill="none" xmlns="http://www.w3.org/2000/svg"><path d="M10.913 2.036 C 10.557 2.110,10.480 2.284,10.480 3.013 L 10.480 3.423 10.265 3.539 L 10.050 3.655 9.775 3.493 C 9.168 3.134,9.009 3.093,8.780 3.234 C 8.664 3.306,8.287 3.898,7.758 4.840 C 7.409 5.461,7.450 5.586,8.132 5.997 L 8.560 6.255 8.560 6.505 L 8.560 6.755 8.190 6.974 C 7.987 7.094,7.757 7.258,7.681 7.338 C 7.464 7.563,7.483 7.676,7.848 8.320 C 8.382 9.261,8.690 9.730,8.827 9.810 C 8.996 9.908,9.137 9.869,9.655 9.582 L 10.050 9.364 10.245 9.462 C 10.352 9.517,10.441 9.566,10.443 9.571 C 10.445 9.576,10.460 9.829,10.478 10.134 C 10.529 11.012,10.522 11.009,12.100 10.991 C 13.064 10.981,13.150 10.974,13.280 10.898 C 13.452 10.797,13.512 10.605,13.517 10.135 C 13.522 9.625,13.541 9.571,13.758 9.461 L 13.945 9.366 14.380 9.611 C 15.139 10.039,15.179 10.015,15.937 8.688 C 16.390 7.895,16.490 7.674,16.457 7.544 C 16.419 7.391,16.222 7.218,15.810 6.974 L 15.440 6.755 15.440 6.503 L 15.440 6.250 15.801 6.042 C 16.268 5.772,16.389 5.667,16.438 5.489 C 16.472 5.367,16.463 5.311,16.386 5.142 C 16.284 4.920,15.720 3.926,15.469 3.529 C 15.165 3.046,14.962 3.043,14.183 3.511 L 13.947 3.654 13.738 3.541 L 13.529 3.428 13.511 2.904 C 13.481 2.010,13.507 2.026,12.100 2.014 C 11.528 2.009,10.994 2.019,10.913 2.036 M12.487 3.410 C 12.498 3.675,12.524 3.852,12.562 3.911 C 12.689 4.110,13.728 4.720,13.940 4.720 C 13.995 4.720,14.207 4.633,14.413 4.526 L 14.786 4.332 14.970 4.656 C 15.219 5.092,15.270 5.210,15.216 5.228 C 15.085 5.272,14.615 5.597,14.544 5.693 C 14.469 5.793,14.459 5.872,14.447 6.390 C 14.440 6.712,14.445 7.034,14.459 7.106 C 14.494 7.294,14.637 7.446,14.962 7.638 C 15.117 7.731,15.239 7.828,15.232 7.854 C 15.226 7.881,15.122 8.076,15.002 8.288 L 14.784 8.673 14.400 8.476 C 14.189 8.368,13.981 8.280,13.937 8.280 C 13.831 8.280,13.310 8.549,12.899 8.817 C 12.511 9.070,12.481 9.132,12.480 9.670 L 12.480 10.000 12.005 10.000 L 11.530 10.000 11.510 9.590 C 11.499 9.365,11.477 9.148,11.461 9.110 C 11.428 9.031,10.922 8.685,10.511 8.461 C 10.133 8.254,9.979 8.260,9.547 8.495 L 9.215 8.676 8.970 8.249 L 8.726 7.822 9.023 7.647 C 9.541 7.341,9.578 7.252,9.554 6.352 C 9.537 5.705,9.523 5.676,9.077 5.394 C 8.903 5.283,8.760 5.175,8.760 5.155 C 8.760 5.134,8.862 4.941,8.986 4.724 L 9.211 4.330 9.586 4.525 C 9.792 4.632,10.004 4.720,10.058 4.720 C 10.179 4.720,10.767 4.420,11.139 4.169 C 11.468 3.947,11.512 3.849,11.517 3.330 L 11.520 3.000 11.995 3.000 L 12.471 3.000 12.487 3.410 M11.780 5.516 C 11.451 5.600,11.171 5.866,11.060 6.199 C 10.940 6.561,11.048 6.938,11.345 7.199 C 11.550 7.379,11.715 7.440,12.000 7.440 C 12.387 7.440,12.663 7.279,12.864 6.937 C 13.051 6.617,12.988 6.101,12.728 5.826 C 12.503 5.589,12.060 5.444,11.780 5.516 M5.363 13.028 C 5.232 13.054,5.087 13.153,5.030 13.256 C 5.004 13.302,4.973 13.580,4.961 13.875 L 4.940 14.411 4.731 14.529 L 4.522 14.646 4.171 14.451 C 3.553 14.108,3.407 14.081,3.202 14.270 C 3.052 14.408,2.631 15.097,2.269 15.796 C 1.896 16.519,1.917 16.603,2.571 16.986 C 2.995 17.235,3.000 17.242,2.999 17.533 L 2.999 17.780 2.615 18.000 C 2.198 18.239,2.000 18.426,2.000 18.583 C 2.000 18.786,2.942 20.476,3.202 20.739 C 3.401 20.940,3.633 20.888,4.290 20.493 L 4.520 20.354 4.740 20.480 L 4.960 20.606 4.960 21.084 C 4.960 21.620,5.006 21.790,5.185 21.907 C 5.285 21.973,5.414 21.981,6.474 21.993 L 7.651 22.005 7.805 21.855 L 7.960 21.704 7.960 21.155 L 7.960 20.606 8.180 20.480 L 8.400 20.354 8.759 20.561 C 9.497 20.987,9.598 20.976,9.952 20.428 C 10.495 19.585,10.920 18.778,10.920 18.591 C 10.920 18.430,10.732 18.244,10.327 18.004 C 9.943 17.777,9.921 17.746,9.921 17.435 L 9.920 17.250 10.295 17.026 C 10.716 16.775,10.920 16.573,10.920 16.407 C 10.920 16.271,10.733 15.879,10.381 15.281 C 10.022 14.668,9.764 14.272,9.685 14.212 C 9.544 14.105,9.332 14.153,8.855 14.401 L 8.392 14.641 8.176 14.518 L 7.960 14.394 7.960 13.916 C 7.960 13.379,7.916 13.221,7.735 13.098 C 7.629 13.026,7.540 13.020,6.540 13.014 C 5.946 13.011,5.416 13.017,5.363 13.028 M16.363 13.028 C 16.232 13.054,16.087 13.153,16.030 13.256 C 16.004 13.302,15.973 13.580,15.961 13.875 L 15.940 14.411 15.731 14.529 L 15.522 14.646 15.171 14.451 C 14.553 14.108,14.407 14.081,14.202 14.270 C 14.052 14.408,13.631 15.097,13.269 15.796 C 12.896 16.519,12.917 16.603,13.571 16.986 C 13.995 17.235,14.000 17.242,13.999 17.533 L 13.999 17.780 13.615 18.000 C 13.198 18.239,13.000 18.426,13.000 18.583 C 13.000 18.786,13.942 20.476,14.202 20.739 C 14.401 20.940,14.633 20.888,15.290 20.493 L 15.520 20.354 15.740 20.480 L 15.960 20.606 15.960 21.084 C 15.960 21.620,16.006 21.790,16.185 21.907 C 16.285 21.973,16.414 21.981,17.474 21.993 L 18.651 22.005 18.805 21.855 L 18.960 21.704 18.960 21.155 L 18.960 20.606 19.180 20.480 L 19.400 20.354 19.759 20.561 C 20.497 20.987,20.598 20.976,20.952 20.428 C 21.495 19.585,21.920 18.778,21.920 18.591 C 21.920 18.430,21.732 18.244,21.327 18.004 C 20.943 17.777,20.921 17.746,20.921 17.435 L 20.920 17.250 21.295 17.026 C 21.716 16.775,21.920 16.573,21.920 16.407 C 21.920 16.271,21.733 15.879,21.381 15.281 C 21.022 14.668,20.764 14.272,20.685 14.212 C 20.544 14.105,20.332 14.153,19.855 14.401 L 19.392 14.641 19.176 14.518 L 18.960 14.394 18.960 13.916 C 18.960 13.379,18.916 13.221,18.735 13.098 C 18.629 13.026,18.540 13.020,17.540 13.014 C 16.946 13.011,16.416 13.017,16.363 13.028 M6.960 14.361 C 6.960 14.783,7.015 14.946,7.206 15.092 C 7.435 15.267,8.124 15.641,8.306 15.690 C 8.472 15.734,8.490 15.729,8.837 15.548 C 9.035 15.445,9.212 15.360,9.231 15.360 C 9.262 15.360,9.720 16.125,9.720 16.177 C 9.720 16.188,9.575 16.281,9.398 16.384 C 8.934 16.651,8.940 16.637,8.940 17.500 C 8.940 18.352,8.941 18.354,9.350 18.597 C 9.498 18.685,9.644 18.774,9.674 18.794 C 9.717 18.822,9.679 18.915,9.497 19.235 C 9.370 19.458,9.251 19.640,9.232 19.640 C 9.214 19.640,9.037 19.559,8.840 19.460 C 8.643 19.361,8.442 19.280,8.394 19.280 C 8.292 19.280,7.652 19.615,7.310 19.847 C 7.011 20.050,6.960 20.165,6.960 20.639 L 6.960 21.000 6.464 21.000 L 5.967 21.000 5.954 20.563 C 5.941 20.162,5.932 20.118,5.840 20.020 C 5.654 19.821,4.680 19.280,4.509 19.280 C 4.470 19.280,4.277 19.361,4.080 19.460 C 3.883 19.559,3.706 19.640,3.687 19.640 C 3.647 19.640,3.240 18.919,3.240 18.848 C 3.240 18.822,3.390 18.704,3.573 18.586 C 4.009 18.304,4.020 18.277,4.019 17.480 C 4.018 16.710,4.005 16.678,3.561 16.412 C 3.386 16.306,3.242 16.194,3.241 16.162 C 3.239 16.084,3.643 15.360,3.689 15.360 C 3.709 15.360,3.879 15.441,4.066 15.540 C 4.432 15.733,4.499 15.745,4.728 15.664 C 4.956 15.582,5.690 15.136,5.822 14.998 C 5.936 14.879,5.940 14.859,5.954 14.437 L 5.967 14.000 6.464 14.000 L 6.960 14.000 6.960 14.361 M17.960 14.361 C 17.960 14.783,18.015 14.947,18.206 15.091 C 18.450 15.277,19.110 15.638,19.295 15.687 C 19.474 15.735,19.484 15.733,19.837 15.548 C 20.035 15.445,20.212 15.360,20.231 15.360 C 20.262 15.360,20.720 16.125,20.720 16.177 C 20.720 16.188,20.575 16.281,20.398 16.384 C 19.934 16.651,19.940 16.637,19.940 17.500 C 19.940 18.350,19.938 18.345,20.347 18.592 C 20.497 18.683,20.644 18.774,20.674 18.794 C 20.717 18.822,20.679 18.915,20.497 19.235 C 20.370 19.458,20.251 19.640,20.232 19.640 C 20.214 19.640,20.037 19.559,19.840 19.460 C 19.643 19.361,19.442 19.280,19.394 19.280 C 19.292 19.280,18.652 19.615,18.310 19.847 C 18.011 20.050,17.960 20.165,17.960 20.639 L 17.960 21.000 17.464 21.000 L 16.967 21.000 16.954 20.563 C 16.941 20.162,16.932 20.118,16.840 20.020 C 16.654 19.821,15.680 19.280,15.509 19.280 C 15.470 19.280,15.277 19.361,15.080 19.460 C 14.883 19.559,14.706 19.640,14.687 19.640 C 14.647 19.640,14.240 18.919,14.240 18.848 C 14.240 18.822,14.390 18.704,14.573 18.586 C 15.009 18.304,15.020 18.277,15.019 17.480 C 15.018 16.710,15.005 16.678,14.561 16.412 C 14.386 16.306,14.242 16.194,14.241 16.162 C 14.239 16.084,14.643 15.360,14.689 15.360 C 14.709 15.360,14.879 15.441,15.066 15.540 C 15.432 15.733,15.499 15.745,15.728 15.664 C 15.956 15.582,16.690 15.136,16.822 14.998 C 16.936 14.879,16.940 14.859,16.954 14.437 L 16.967 14.000 17.464 14.000 L 17.960 14.000 17.960 14.361 M6.298 16.521 C 5.820 16.587,5.442 17.071,5.489 17.555 C 5.557 18.263,6.302 18.672,6.916 18.338 C 7.251 18.156,7.435 17.856,7.438 17.485 C 7.444 16.870,6.927 16.433,6.298 16.521 M17.298 16.521 C 16.820 16.587,16.442 17.071,16.489 17.555 C 16.557 18.263,17.302 18.672,17.916 18.338 C 18.251 18.156,18.435 17.856,18.438 17.485 C 18.444 16.870,17.927 16.433,17.298 16.521 " fill="#222222" stroke="none" fill-rule="evenodd"></path></svg>