<svg width="24" height="25" viewBox="0 0 24 25" fill="none" xmlns="http://www.w3.org/2000/svg"><path d="M11.420 2.673 C 11.098 2.827,10.967 3.068,10.586 4.200 C 10.306 5.032,9.592 7.281,9.239 8.444 L 9.025 9.149 6.702 9.178 C 3.800 9.213,2.854 9.250,2.692 9.334 C 2.504 9.431,2.143 9.847,2.088 10.028 C 2.021 10.251,2.027 10.732,2.099 10.904 C 2.223 11.202,2.718 11.626,4.920 13.320 C 6.683 14.677,7.120 15.030,7.120 15.095 C 7.120 15.166,6.805 16.247,6.262 18.040 C 5.400 20.883,5.343 21.099,5.374 21.368 C 5.429 21.846,5.886 22.329,6.394 22.446 C 6.813 22.543,7.012 22.437,8.590 21.275 C 9.135 20.874,10.124 20.135,10.789 19.632 L 11.999 18.718 13.749 20.031 C 15.782 21.555,16.577 22.137,16.881 22.325 C 17.077 22.446,17.130 22.460,17.380 22.457 C 17.721 22.454,17.956 22.359,18.221 22.115 C 18.548 21.813,18.678 21.445,18.601 21.040 C 18.551 20.779,17.994 18.892,17.307 16.652 L 16.814 15.044 18.116 14.052 C 20.847 11.972,21.628 11.337,21.826 11.038 C 21.909 10.912,21.936 10.814,21.951 10.583 C 21.982 10.106,21.916 9.917,21.605 9.591 C 21.346 9.320,21.334 9.313,21.080 9.278 C 20.937 9.259,19.504 9.221,17.896 9.194 L 14.971 9.145 14.843 8.722 C 14.448 7.421,13.332 3.921,13.201 3.573 C 13.025 3.106,12.860 2.843,12.666 2.724 C 12.556 2.655,12.442 2.636,12.055 2.618 C 11.640 2.598,11.560 2.605,11.420 2.673 " fill="#EC0000" stroke="none" fill-rule="evenodd"></path></svg>