<svg width="24" height="25" viewBox="0 0 24 25" fill="none" xmlns="http://www.w3.org/2000/svg"><path d="M11.420 2.673 C 11.098 2.827,10.967 3.068,10.586 4.200 C 10.306 5.032,9.592 7.281,9.239 8.444 L 9.025 9.149 6.702 9.178 C 3.800 9.213,2.854 9.250,2.692 9.334 C 2.504 9.431,2.143 9.847,2.088 10.028 C 2.021 10.251,2.027 10.732,2.099 10.904 C 2.223 11.202,2.718 11.626,4.920 13.320 C 6.683 14.677,7.120 15.030,7.120 15.095 C 7.120 15.166,6.805 16.247,6.262 18.040 C 5.400 20.883,5.343 21.099,5.374 21.368 C 5.429 21.846,5.886 22.329,6.394 22.446 C 6.813 22.543,7.012 22.437,8.590 21.275 C 9.135 20.874,10.124 20.135,10.789 19.632 L 11.999 18.718 13.749 20.031 C 15.782 21.555,16.577 22.137,16.881 22.325 C 17.077 22.446,17.130 22.460,17.380 22.457 C 17.721 22.454,17.956 22.359,18.221 22.115 C 18.548 21.813,18.678 21.445,18.601 21.040 C 18.551 20.779,17.994 18.892,17.307 16.652 L 16.814 15.044 18.116 14.052 C 20.847 11.972,21.628 11.337,21.826 11.038 C 21.909 10.912,21.936 10.814,21.951 10.583 C 21.982 10.106,21.916 9.917,21.605 9.591 C 21.346 9.320,21.334 9.313,21.080 9.278 C 20.937 9.259,19.504 9.221,17.896 9.194 L 14.971 9.145 14.843 8.722 C 14.448 7.421,13.332 3.921,13.201 3.573 C 13.025 3.106,12.860 2.843,12.666 2.724 C 12.556 2.655,12.442 2.636,12.055 2.618 C 11.640 2.598,11.560 2.605,11.420 2.673 M12.182 3.770 C 12.236 3.886,12.488 4.619,12.743 5.400 C 12.998 6.181,13.430 7.507,13.704 8.347 C 13.978 9.187,14.233 9.912,14.271 9.958 C 14.317 10.014,14.418 10.054,14.580 10.080 C 14.712 10.102,16.137 10.147,17.747 10.180 C 19.358 10.214,20.730 10.252,20.798 10.266 C 20.886 10.283,20.928 10.319,20.947 10.393 C 20.969 10.481,20.937 10.529,20.715 10.739 C 20.573 10.873,19.729 11.548,18.839 12.239 C 17.082 13.603,15.904 14.542,15.785 14.674 C 15.691 14.779,15.645 14.601,16.420 17.160 C 17.395 20.381,17.621 21.191,17.579 21.323 C 17.566 21.366,17.523 21.417,17.484 21.438 C 17.394 21.486,17.208 21.362,15.780 20.306 C 13.361 18.516,12.606 17.963,12.331 17.781 C 12.054 17.597,12.037 17.592,11.915 17.642 C 11.732 17.718,11.046 18.207,9.120 19.634 C 6.980 21.221,6.652 21.447,6.521 21.432 C 6.312 21.407,6.348 21.253,7.384 17.805 C 7.811 16.384,8.182 15.121,8.207 14.997 C 8.247 14.803,8.244 14.760,8.187 14.679 C 8.091 14.540,7.658 14.190,5.684 12.648 C 3.674 11.078,3.166 10.660,3.080 10.508 C 2.930 10.240,3.135 10.220,6.643 10.159 C 8.019 10.135,9.261 10.100,9.403 10.080 C 9.587 10.054,9.680 10.019,9.729 9.959 C 9.795 9.877,10.247 8.525,11.138 5.740 C 11.580 4.359,11.810 3.704,11.885 3.614 C 11.979 3.500,12.081 3.554,12.182 3.770 " fill="#EC0000" stroke="none" fill-rule="evenodd"></path></svg>