<svg width="24" height="25" viewBox="0 0 24 25" fill="none" xmlns="http://www.w3.org/2000/svg"><path d="M4.212 4.606 C 4.073 4.755,3.994 4.979,4.038 5.095 C 4.127 5.330,4.852 6.448,7.882 11.024 L 9.951 14.149 9.995 17.118 C 10.028 19.349,10.052 20.113,10.090 20.190 C 10.211 20.436,10.544 20.527,10.755 20.370 C 10.975 20.207,10.973 20.234,10.991 16.953 L 11.007 13.926 9.637 11.853 C 6.652 7.339,5.600 5.722,5.600 5.648 C 5.600 5.576,15.609 5.525,17.653 5.587 C 18.458 5.611,18.525 5.618,18.508 5.683 C 18.489 5.755,15.665 9.980,13.965 12.480 L 12.999 13.900 13.011 16.980 C 13.020 19.224,13.036 20.089,13.070 20.168 C 13.143 20.336,13.411 20.496,13.568 20.464 C 13.764 20.425,13.871 20.336,13.922 20.170 C 13.954 20.066,13.974 19.131,13.989 17.122 L 14.010 14.223 15.773 11.622 C 18.136 8.134,19.940 5.435,20.039 5.242 C 20.084 5.155,20.120 5.033,20.120 4.972 C 20.120 4.809,19.987 4.615,19.854 4.583 C 19.791 4.568,16.266 4.545,12.020 4.533 L 4.300 4.511 4.212 4.606 " fill="#EC0000" stroke="none" fill-rule="evenodd"></path></svg>