<svg width="24" height="25" viewBox="0 0 24 25" fill="none" xmlns="http://www.w3.org/2000/svg"><path d="M17.233 2.670 C 17.058 2.827,16.488 3.525,16.030 4.143 L 15.760 4.507 10.890 4.535 C 8.212 4.551,5.619 4.578,5.130 4.595 C 4.278 4.625,4.236 4.630,4.142 4.718 C 4.088 4.769,4.033 4.863,4.019 4.927 C 3.981 5.099,4.013 5.150,6.843 9.463 C 8.432 11.885,9.154 13.000,9.243 13.166 C 9.299 13.270,9.212 13.401,7.758 15.422 C 6.433 17.263,6.000 17.896,6.000 17.994 C 6.000 18.119,6.173 18.336,6.337 18.416 L 6.493 18.493 6.666 18.401 C 6.762 18.350,6.918 18.217,7.014 18.105 C 7.290 17.780,8.533 16.094,13.339 9.522 C 17.558 3.753,18.000 3.135,18.000 3.005 C 17.999 2.822,17.664 2.520,17.462 2.520 C 17.428 2.520,17.325 2.587,17.233 2.670 M17.886 4.964 C 17.708 5.215,17.561 5.432,17.561 5.446 C 17.560 5.477,17.737 5.506,18.143 5.542 C 18.299 5.555,18.450 5.582,18.480 5.600 C 18.556 5.647,18.392 5.911,16.979 8.020 C 14.124 12.281,13.406 13.358,13.218 13.659 L 13.020 13.979 13.020 16.999 C 13.020 19.733,13.026 20.034,13.087 20.167 C 13.254 20.536,13.715 20.548,13.908 20.190 C 13.972 20.071,13.979 19.822,13.993 17.143 L 14.008 14.227 15.177 12.503 C 17.794 8.644,20.017 5.301,20.128 5.059 C 20.162 4.984,20.153 4.938,20.079 4.818 C 19.942 4.597,19.827 4.568,18.972 4.536 L 18.210 4.508 17.886 4.964 M14.824 5.651 C 14.841 5.668,14.726 5.872,14.567 6.103 C 13.907 7.069,10.203 12.083,10.069 12.193 C 10.033 12.223,9.987 12.237,9.967 12.224 C 9.859 12.158,5.699 5.919,5.613 5.696 C 5.602 5.668,5.634 5.638,5.687 5.627 C 5.845 5.595,14.791 5.618,14.824 5.651 M10.784 14.666 C 10.720 14.746,10.515 15.011,10.329 15.256 L 9.989 15.700 10.012 17.916 C 10.036 20.401,10.016 20.247,10.335 20.413 C 10.466 20.481,10.507 20.485,10.643 20.444 C 10.903 20.366,10.926 20.295,10.963 19.449 C 11.002 18.580,11.012 14.677,10.976 14.583 C 10.941 14.492,10.913 14.503,10.784 14.666 " fill="#EC0000" stroke="none" fill-rule="evenodd"></path></svg>