<svg width="24" height="25" viewBox="0 0 24 25" fill="none" xmlns="http://www.w3.org/2000/svg"><path d="M6.254 2.618 C 6.166 2.656,6.113 2.718,6.076 2.826 C 6.033 2.951,6.023 4.765,6.022 12.567 L 6.020 22.155 6.138 22.278 C 6.355 22.505,6.725 22.512,6.869 22.292 C 6.944 22.178,6.970 21.035,7.031 15.237 L 7.060 12.454 7.520 12.625 C 8.330 12.926,8.599 12.976,9.420 12.977 C 10.137 12.979,10.141 12.979,10.500 12.847 C 11.053 12.644,11.542 12.387,11.960 12.081 C 13.065 11.271,13.529 11.002,13.980 10.913 C 14.112 10.887,14.490 10.865,14.820 10.865 C 15.378 10.864,15.443 10.872,15.755 10.979 C 15.939 11.042,16.317 11.226,16.595 11.388 C 17.451 11.886,17.489 11.902,17.677 11.846 C 17.766 11.819,17.858 11.761,17.882 11.716 C 17.957 11.576,17.998 9.889,17.999 6.853 L 18.000 3.927 17.750 3.710 C 16.774 2.862,15.522 2.462,14.267 2.597 C 13.299 2.702,12.954 2.867,11.380 3.977 C 10.894 4.320,10.416 4.565,10.080 4.643 C 9.949 4.674,9.608 4.694,9.240 4.694 C 8.662 4.693,8.600 4.686,8.320 4.582 C 7.897 4.426,7.429 4.177,7.236 4.006 L 7.072 3.860 7.013 3.380 C 6.981 3.116,6.937 2.852,6.914 2.793 C 6.837 2.592,6.511 2.506,6.254 2.618 M15.609 3.659 C 15.890 3.718,16.219 3.866,16.716 4.157 L 17.013 4.331 16.986 6.815 C 16.971 8.182,16.947 9.511,16.933 9.770 C 16.911 10.183,16.899 10.240,16.837 10.240 C 16.798 10.240,16.563 10.176,16.313 10.098 C 15.065 9.706,13.786 9.770,12.822 10.273 C 12.669 10.353,12.237 10.641,11.862 10.913 C 11.047 11.505,10.768 11.675,10.308 11.860 C 9.920 12.017,9.749 12.029,8.938 11.962 C 8.331 11.912,7.759 11.684,7.210 11.274 L 7.000 11.117 7.000 8.122 L 7.000 5.126 7.350 5.277 C 8.108 5.604,8.630 5.719,9.367 5.720 C 10.059 5.720,10.780 5.539,11.327 5.226 C 11.496 5.130,11.865 4.880,12.147 4.672 C 13.245 3.862,13.550 3.700,14.180 3.597 C 14.448 3.554,15.275 3.589,15.609 3.659 " fill="#EC0000" stroke="none" fill-rule="evenodd"></path></svg>