<svg width="24" height="25" viewBox="0 0 24 25" fill="none" xmlns="http://www.w3.org/2000/svg"><path d="M16.300 2.659 C 15.751 2.807,14.993 3.169,14.609 3.466 C 14.221 3.766,12.742 5.182,12.027 5.938 C 11.279 6.730,11.000 7.064,11.000 7.170 C 11.000 7.277,11.268 7.550,11.424 7.601 C 11.537 7.639,11.580 7.636,11.652 7.588 C 11.756 7.517,12.297 7.010,13.682 5.685 C 14.947 4.474,15.353 4.133,15.795 3.907 C 16.300 3.648,16.453 3.621,17.400 3.621 C 18.343 3.622,18.463 3.649,19.082 4.002 C 19.775 4.397,20.224 4.873,20.574 5.583 C 20.856 6.154,20.892 6.337,20.894 7.180 C 20.894 7.827,20.885 7.926,20.804 8.160 C 20.648 8.606,20.329 9.177,20.052 9.506 C 19.657 9.975,16.071 13.543,15.691 13.844 C 14.943 14.437,14.164 14.681,13.180 14.628 C 12.551 14.595,12.029 14.395,11.212 13.875 C 11.009 13.746,10.782 13.611,10.706 13.575 C 10.271 13.367,9.890 13.870,10.193 14.252 C 10.643 14.818,11.651 15.367,12.593 15.559 C 13.061 15.654,13.838 15.673,14.201 15.598 C 15.048 15.423,15.641 15.148,16.320 14.616 C 16.720 14.302,20.676 10.346,21.032 9.904 C 21.166 9.737,21.341 9.483,21.422 9.340 C 21.613 8.997,21.822 8.387,21.898 7.945 C 21.977 7.494,21.977 6.667,21.899 6.300 C 21.592 4.847,20.761 3.742,19.486 3.088 C 18.955 2.816,18.622 2.699,18.220 2.641 C 17.804 2.582,16.542 2.594,16.300 2.659 M9.901 9.402 C 9.491 9.448,9.111 9.564,8.660 9.780 C 7.847 10.171,7.449 10.512,5.354 12.609 C 3.767 14.198,3.018 15.004,2.742 15.419 C 2.374 15.975,2.142 16.595,2.075 17.206 C 2.019 17.717,2.052 18.618,2.137 18.940 C 2.567 20.556,3.758 21.793,5.380 22.306 C 5.731 22.417,5.761 22.420,6.640 22.420 L 7.540 22.420 7.940 22.285 C 8.454 22.112,8.902 21.889,9.283 21.615 C 9.909 21.165,12.661 18.429,12.906 18.013 C 12.999 17.854,13.001 17.839,12.942 17.725 C 12.908 17.658,12.822 17.561,12.750 17.508 C 12.440 17.279,12.555 17.196,10.660 19.000 C 8.803 20.768,8.502 21.013,7.908 21.242 C 7.536 21.386,6.909 21.455,6.185 21.433 C 5.759 21.420,5.723 21.412,5.348 21.245 C 4.806 21.003,4.513 20.804,4.139 20.425 C 3.335 19.610,3.047 18.857,3.092 17.680 C 3.114 17.088,3.173 16.815,3.372 16.380 C 3.631 15.814,4.265 15.097,6.186 13.198 C 8.260 11.146,8.436 10.994,9.083 10.681 C 9.546 10.457,9.716 10.432,10.670 10.448 C 11.473 10.461,11.509 10.465,11.765 10.573 C 11.911 10.634,12.226 10.803,12.465 10.948 C 13.495 11.573,13.427 11.542,13.614 11.477 C 13.749 11.431,13.797 11.385,13.873 11.232 C 13.963 11.051,13.964 11.040,13.899 10.903 C 13.702 10.489,12.730 9.848,11.900 9.586 C 11.380 9.422,10.474 9.339,9.901 9.402 " fill="#EC0000" stroke="none" fill-rule="evenodd"></path></svg>