<svg width="24" height="25" viewBox="0 0 24 25" fill="none" xmlns="http://www.w3.org/2000/svg"><path d="M10.500 6.643 C 9.041 6.739,6.845 7.641,5.363 8.753 C 4.959 9.056,3.701 10.292,3.362 10.719 C 2.780 11.450,2.123 12.548,2.058 12.898 C 2.020 13.101,2.164 13.458,2.538 14.087 C 3.081 14.998,3.846 15.915,4.732 16.715 C 5.518 17.424,6.119 17.840,6.994 18.280 C 8.095 18.833,9.535 19.282,10.601 19.404 C 11.281 19.482,12.986 19.472,13.542 19.387 C 15.161 19.140,16.971 18.442,18.160 17.608 C 19.170 16.899,20.389 15.680,21.087 14.680 C 21.457 14.151,22.000 13.153,22.000 13.004 C 22.000 12.771,21.155 11.357,20.599 10.660 C 20.278 10.258,19.231 9.205,18.860 8.912 C 17.517 7.851,15.368 6.894,13.860 6.684 C 13.487 6.632,11.105 6.603,10.500 6.643 M13.220 7.641 C 13.869 7.696,14.293 7.776,14.840 7.945 C 16.863 8.571,18.692 9.813,19.839 11.340 C 20.199 11.818,20.705 12.573,20.826 12.813 L 20.924 13.005 20.785 13.253 C 20.016 14.629,18.710 16.036,17.402 16.898 C 14.327 18.926,10.046 18.994,6.872 17.067 C 5.419 16.185,4.371 15.111,3.300 13.407 L 3.066 13.034 3.177 12.807 C 3.238 12.682,3.401 12.409,3.538 12.200 C 4.455 10.806,5.746 9.573,7.077 8.821 C 8.092 8.248,9.456 7.785,10.544 7.646 C 10.933 7.596,12.647 7.593,13.220 7.641 M11.420 9.080 C 10.603 9.203,9.886 9.568,9.230 10.194 C 8.245 11.135,7.798 12.636,8.133 13.881 C 8.260 14.355,8.462 14.840,8.653 15.127 C 9.197 15.946,9.863 16.457,10.820 16.788 L 11.260 16.940 11.980 16.940 C 12.611 16.940,12.739 16.929,13.016 16.849 C 13.843 16.609,14.546 16.147,15.068 15.500 C 15.362 15.135,15.712 14.457,15.842 14.000 C 15.952 13.612,15.992 12.789,15.920 12.385 C 15.725 11.287,15.098 10.331,14.147 9.684 C 13.445 9.205,12.289 8.949,11.420 9.080 M12.675 10.145 C 13.213 10.255,13.627 10.489,14.093 10.950 C 14.316 11.171,14.409 11.305,14.599 11.685 C 14.892 12.269,14.931 12.458,14.912 13.174 C 14.898 13.710,14.890 13.757,14.764 14.053 C 14.585 14.471,14.362 14.797,14.017 15.142 C 13.703 15.456,13.466 15.607,12.980 15.803 C 12.689 15.920,12.611 15.933,12.120 15.951 C 11.499 15.972,11.246 15.925,10.769 15.700 C 10.107 15.388,9.583 14.825,9.237 14.054 C 9.121 13.794,9.120 13.789,9.120 13.015 C 9.120 12.280,9.125 12.225,9.220 11.993 C 9.361 11.646,9.655 11.189,9.895 10.945 C 10.288 10.544,10.893 10.206,11.420 10.094 C 11.700 10.035,12.238 10.057,12.675 10.145 " fill="#EC0000" stroke="none" fill-rule="evenodd"></path></svg>