<svg width="24" height="25" viewBox="0 0 24 25" fill="none" xmlns="http://www.w3.org/2000/svg"><path d="M19.922 2.664 C 19.708 2.844,17.508 5.317,16.327 6.705 L 15.914 7.189 15.516 7.073 C 14.979 6.916,14.132 6.741,13.500 6.656 C 12.845 6.568,11.181 6.555,10.560 6.633 C 7.979 6.958,5.670 8.064,3.908 9.820 C 2.909 10.816,1.991 12.163,2.053 12.543 C 2.140 13.080,2.993 14.277,3.949 15.204 C 4.554 15.789,5.133 16.234,6.150 16.895 C 6.644 17.217,6.880 17.393,6.880 17.441 C 6.880 17.543,6.702 17.768,5.580 19.084 C 4.120 20.796,3.515 21.523,3.346 21.768 C 3.217 21.956,3.202 22.000,3.237 22.092 C 3.292 22.236,3.567 22.427,3.770 22.462 L 3.936 22.490 4.300 22.115 C 5.102 21.287,19.425 4.784,20.403 3.559 C 20.862 2.984,20.868 2.804,20.431 2.622 C 20.215 2.532,20.065 2.544,19.922 2.664 M14.240 7.784 C 14.903 7.929,15.080 7.986,15.080 8.050 C 15.080 8.100,14.694 8.585,14.430 8.865 L 14.237 9.071 13.806 8.895 C 13.568 8.799,13.268 8.700,13.140 8.677 C 13.011 8.653,12.445 8.630,11.883 8.627 L 10.860 8.620 10.436 8.791 C 8.858 9.426,7.913 10.538,7.652 12.069 C 7.592 12.422,7.590 12.517,7.635 12.846 C 7.733 13.553,7.917 13.994,8.477 14.856 C 8.633 15.096,8.760 15.313,8.760 15.339 C 8.760 15.375,7.932 16.399,7.760 16.575 C 7.715 16.621,6.887 16.185,6.382 15.850 C 5.262 15.106,4.235 14.094,3.521 13.033 C 3.233 12.604,3.206 12.503,3.323 12.273 C 3.704 11.525,4.803 10.305,5.720 9.613 C 6.762 8.827,8.164 8.172,9.572 7.813 C 10.267 7.636,10.699 7.609,12.420 7.632 C 13.607 7.648,13.627 7.650,14.240 7.784 M17.697 8.410 C 17.565 8.547,17.422 8.702,17.379 8.753 C 17.303 8.845,17.303 8.847,17.386 8.913 C 17.433 8.950,17.666 9.132,17.905 9.319 C 18.865 10.067,19.676 10.845,20.142 11.465 C 20.448 11.871,20.760 12.390,20.760 12.493 C 20.760 12.718,20.053 13.693,19.390 14.384 C 18.209 15.612,16.742 16.498,15.033 17.015 C 14.403 17.205,13.734 17.349,13.246 17.398 C 12.710 17.452,11.334 17.452,10.558 17.397 L 9.950 17.355 9.830 17.467 C 9.634 17.652,9.320 18.040,9.320 18.099 C 9.320 18.228,10.576 18.425,11.660 18.466 C 13.372 18.531,15.208 18.156,16.892 17.396 C 18.692 16.584,20.331 15.193,21.449 13.526 C 21.762 13.060,21.960 12.669,21.959 12.520 C 21.957 12.282,21.560 11.566,21.068 10.912 C 20.783 10.534,19.781 9.494,19.352 9.132 C 18.904 8.753,18.051 8.160,17.955 8.160 C 17.946 8.160,17.830 8.273,17.697 8.410 M13.097 9.724 C 13.249 9.777,13.392 9.850,13.414 9.886 C 13.446 9.938,13.377 10.045,13.063 10.426 C 12.173 11.505,10.163 13.789,9.729 14.214 L 9.489 14.448 9.285 14.117 C 9.173 13.935,9.023 13.650,8.951 13.483 C 8.824 13.190,8.820 13.159,8.807 12.557 C 8.796 12.005,8.805 11.904,8.880 11.677 C 9.132 10.922,9.717 10.275,10.509 9.873 C 10.964 9.643,11.225 9.600,12.100 9.615 C 12.737 9.626,12.852 9.639,13.097 9.724 M15.519 10.862 C 15.154 11.287,15.104 11.413,15.157 11.760 C 15.221 12.169,15.211 12.941,15.139 13.217 C 14.987 13.799,14.548 14.401,13.951 14.844 C 13.376 15.271,12.916 15.422,12.043 15.470 L 11.507 15.500 11.193 15.870 C 11.021 16.074,10.880 16.267,10.880 16.299 C 10.880 16.401,11.190 16.446,11.896 16.446 C 12.831 16.445,13.398 16.320,14.140 15.950 C 15.114 15.464,15.873 14.574,16.228 13.500 C 16.325 13.206,16.333 13.127,16.333 12.520 C 16.333 11.889,16.327 11.844,16.210 11.498 C 16.070 11.088,15.842 10.560,15.804 10.560 C 15.790 10.560,15.661 10.696,15.519 10.862 " fill="#EC0000" stroke="none" fill-rule="evenodd"></path></svg>