<svg width="24" height="24" viewBox="0 0 24 24" fill="none" xmlns="http://www.w3.org/2000/svg"><path d="M11.109 2.123 C 10.471 2.305,9.932 2.631,9.470 3.115 C 9.099 3.503,8.839 3.937,8.674 4.440 C 8.507 4.948,8.486 5.381,8.486 8.240 C 8.486 11.141,8.505 11.534,8.679 12.049 C 9.121 13.365,10.263 14.298,11.610 14.445 C 12.734 14.567,13.749 14.188,14.548 13.347 C 14.902 12.975,15.150 12.558,15.322 12.049 C 15.494 11.538,15.514 11.133,15.514 8.240 C 15.514 5.353,15.494 4.940,15.325 4.440 C 15.128 3.858,14.917 3.517,14.480 3.077 C 13.973 2.565,13.310 2.195,12.703 2.083 C 12.307 2.011,11.425 2.033,11.109 2.123 M12.649 3.103 C 12.958 3.177,13.249 3.329,13.551 3.573 C 13.870 3.830,14.074 4.095,14.266 4.499 C 14.404 4.790,14.420 4.858,14.446 5.279 C 14.488 5.971,14.484 10.713,14.441 11.237 C 14.407 11.646,14.386 11.729,14.247 12.017 C 13.988 12.555,13.569 12.988,13.082 13.223 C 12.729 13.393,12.228 13.493,11.860 13.466 C 11.222 13.419,10.720 13.188,10.260 12.731 C 10.022 12.494,9.921 12.355,9.772 12.053 C 9.590 11.687,9.582 11.658,9.555 11.207 C 9.513 10.532,9.516 5.653,9.558 5.182 C 9.590 4.826,9.613 4.745,9.778 4.413 C 10.314 3.335,11.456 2.814,12.649 3.103 M6.716 10.611 C 6.523 10.741,6.473 10.964,6.525 11.472 C 6.662 12.823,7.217 13.989,8.167 14.920 C 8.956 15.693,9.900 16.182,11.034 16.406 L 11.480 16.494 11.480 18.747 L 11.480 21.000 10.770 21.001 C 10.380 21.001,9.988 21.019,9.900 21.039 C 9.666 21.093,9.520 21.272,9.520 21.505 C 9.520 21.659,9.541 21.709,9.652 21.820 C 9.757 21.925,9.829 21.958,10.002 21.979 C 10.122 21.994,11.102 22.000,12.180 21.993 C 14.402 21.978,14.324 21.989,14.454 21.674 C 14.531 21.489,14.531 21.488,14.445 21.310 C 14.316 21.043,14.256 21.027,13.330 21.008 L 12.520 20.992 12.520 18.740 L 12.520 16.488 12.790 16.442 C 14.046 16.229,15.063 15.701,15.933 14.811 C 16.696 14.031,17.235 12.983,17.419 11.927 C 17.493 11.499,17.507 10.940,17.446 10.790 C 17.349 10.547,16.979 10.448,16.733 10.598 C 16.549 10.710,16.516 10.798,16.474 11.295 C 16.454 11.540,16.402 11.886,16.360 12.065 C 16.141 12.997,15.480 13.998,14.683 14.604 C 14.319 14.881,13.618 15.219,13.140 15.348 C 12.775 15.446,12.676 15.456,12.000 15.458 C 11.311 15.459,11.233 15.452,10.862 15.349 C 10.407 15.222,9.846 14.967,9.475 14.719 C 9.096 14.465,8.458 13.796,8.203 13.383 C 7.810 12.749,7.591 12.081,7.526 11.325 C 7.504 11.074,7.461 10.840,7.424 10.767 C 7.296 10.521,6.961 10.447,6.716 10.611 " fill="#EC0000" stroke="none" fill-rule="evenodd"></path></svg>