<svg width="24" height="24" viewBox="0 0 24 24" fill="none" xmlns="http://www.w3.org/2000/svg"><path d="M4.196 2.042 C 3.290 2.123,2.411 2.848,2.112 3.760 C 2.035 3.995,2.025 4.133,2.009 5.193 C 2.000 5.839,2.004 6.449,2.019 6.550 C 2.072 6.901,2.401 7.084,2.708 6.934 C 2.963 6.810,2.971 6.766,3.001 5.357 L 3.028 4.093 3.144 3.877 C 3.208 3.758,3.350 3.570,3.460 3.460 C 3.570 3.350,3.758 3.208,3.877 3.144 L 4.093 3.028 5.357 3.001 C 6.766 2.971,6.810 2.963,6.934 2.708 C 7.078 2.414,6.901 2.080,6.572 2.026 C 6.366 1.992,4.624 2.004,4.196 2.042 M10.071 2.037 C 9.803 2.057,9.747 2.075,9.651 2.171 C 9.557 2.265,9.540 2.315,9.540 2.500 C 9.540 2.684,9.557 2.735,9.649 2.827 C 9.804 2.982,9.961 2.993,12.000 2.993 C 14.039 2.993,14.196 2.982,14.351 2.827 C 14.443 2.735,14.460 2.684,14.460 2.500 C 14.460 2.315,14.443 2.265,14.349 2.171 C 14.251 2.073,14.199 2.057,13.889 2.034 C 13.468 2.001,10.506 2.004,10.071 2.037 M17.371 2.025 C 17.227 2.058,17.049 2.254,17.019 2.411 C 16.983 2.601,17.097 2.839,17.260 2.917 C 17.352 2.961,17.669 2.981,18.626 3.000 L 19.871 3.026 20.106 3.141 C 20.405 3.287,20.713 3.595,20.859 3.894 L 20.974 4.129 21.000 5.374 C 21.028 6.765,21.037 6.810,21.292 6.934 C 21.600 7.085,21.928 6.901,21.981 6.548 C 21.996 6.446,22.001 5.835,21.991 5.191 C 21.975 4.107,21.967 4.001,21.884 3.760 C 21.614 2.977,20.945 2.330,20.160 2.092 C 20.030 2.052,19.630 2.033,18.720 2.021 C 18.027 2.012,17.420 2.014,17.371 2.025 M11.755 7.080 C 11.661 7.130,11.600 7.196,11.582 7.268 C 11.567 7.330,11.539 8.307,11.521 9.440 C 11.502 10.573,11.486 11.502,11.484 11.505 C 11.482 11.508,10.558 11.519,9.430 11.530 C 8.019 11.544,7.342 11.565,7.257 11.597 C 7.131 11.644,7.000 11.849,7.000 12.000 C 7.000 12.150,7.131 12.356,7.257 12.404 C 7.342 12.436,8.011 12.459,9.408 12.477 C 10.524 12.491,11.450 12.517,11.467 12.533 C 11.483 12.550,11.509 13.476,11.523 14.592 C 11.541 15.989,11.564 16.658,11.596 16.743 C 11.644 16.869,11.850 17.000,12.000 17.000 C 12.150 17.000,12.356 16.869,12.404 16.743 C 12.436 16.658,12.459 15.989,12.477 14.592 C 12.491 13.476,12.517 12.550,12.533 12.533 C 12.550 12.517,13.476 12.491,14.592 12.477 C 15.989 12.459,16.658 12.436,16.743 12.404 C 16.869 12.356,17.000 12.150,17.000 12.000 C 17.000 11.849,16.869 11.644,16.743 11.597 C 16.658 11.565,15.981 11.544,14.570 11.530 C 13.443 11.519,12.518 11.508,12.516 11.505 C 12.514 11.502,12.498 10.573,12.481 9.440 C 12.460 8.032,12.436 7.341,12.404 7.257 C 12.354 7.126,12.147 6.999,11.989 7.002 C 11.940 7.003,11.835 7.038,11.755 7.080 M2.246 9.588 C 2.173 9.624,2.092 9.700,2.067 9.757 C 2.015 9.872,1.975 13.616,2.021 13.993 C 2.039 14.147,2.078 14.241,2.160 14.333 C 2.262 14.447,2.296 14.460,2.500 14.460 C 2.704 14.460,2.738 14.447,2.839 14.334 C 2.940 14.221,2.955 14.167,2.980 13.834 C 2.995 13.628,3.001 12.650,2.994 11.660 C 2.979 9.703,2.984 9.742,2.747 9.598 C 2.592 9.503,2.424 9.500,2.246 9.588 M21.246 9.588 C 21.173 9.624,21.092 9.700,21.067 9.757 C 21.015 9.872,20.975 13.616,21.021 13.993 C 21.039 14.147,21.078 14.241,21.160 14.333 C 21.262 14.447,21.296 14.460,21.500 14.460 C 21.704 14.460,21.738 14.447,21.839 14.334 C 21.940 14.221,21.955 14.167,21.980 13.834 C 21.995 13.628,22.001 12.650,21.994 11.660 C 21.979 9.703,21.984 9.742,21.747 9.598 C 21.592 9.503,21.424 9.500,21.246 9.588 M2.293 17.056 C 2.021 17.179,2.020 17.186,2.022 18.678 L 2.024 20.020 2.132 20.295 C 2.293 20.704,2.483 20.992,2.787 21.284 C 3.108 21.593,3.314 21.720,3.757 21.881 L 4.082 22.000 5.091 21.998 C 5.646 21.997,6.224 21.982,6.376 21.965 C 6.684 21.931,6.764 21.869,6.844 21.602 C 6.881 21.477,6.877 21.427,6.821 21.308 C 6.689 21.030,6.677 21.027,5.360 21.010 L 4.180 20.995 3.893 20.857 C 3.562 20.697,3.303 20.437,3.135 20.093 L 3.026 19.871 2.999 18.626 C 2.983 17.924,2.952 17.335,2.929 17.277 C 2.842 17.063,2.524 16.953,2.293 17.056 M21.280 17.072 C 21.036 17.205,21.028 17.249,21.000 18.626 L 20.974 19.871 20.859 20.106 C 20.708 20.416,20.402 20.715,20.080 20.870 L 19.820 20.994 18.599 21.011 C 17.234 21.029,17.190 21.037,17.066 21.292 C 16.915 21.600,17.099 21.928,17.452 21.981 C 17.554 21.996,18.165 22.001,18.809 21.991 C 19.896 21.975,19.999 21.968,20.240 21.884 C 21.010 21.616,21.622 21.004,21.884 20.240 C 21.966 19.998,21.974 19.892,21.990 18.740 C 22.009 17.392,21.993 17.256,21.799 17.113 C 21.645 16.999,21.444 16.983,21.280 17.072 M10.071 21.037 C 9.803 21.057,9.747 21.075,9.651 21.171 C 9.557 21.265,9.540 21.315,9.540 21.500 C 9.540 21.684,9.557 21.735,9.649 21.827 C 9.804 21.982,9.961 21.993,12.000 21.993 C 14.039 21.993,14.196 21.982,14.351 21.827 C 14.443 21.735,14.460 21.684,14.460 21.500 C 14.460 21.315,14.443 21.265,14.349 21.171 C 14.251 21.073,14.199 21.057,13.889 21.034 C 13.468 21.001,10.506 21.004,10.071 21.037 " fill="#EC0000" stroke="none" fill-rule="evenodd"></path></svg>