<svg width="24" height="25" viewBox="0 0 24 25" fill="none" xmlns="http://www.w3.org/2000/svg"><path d="M11.440 2.604 C 11.186 2.654,10.810 2.847,10.455 3.113 C 10.210 3.295,10.115 3.399,9.972 3.640 C 9.758 3.999,3.686 16.146,2.793 18.000 C 2.449 18.715,2.139 19.395,2.105 19.511 C 2.002 19.865,1.987 20.152,2.057 20.480 C 2.224 21.273,2.731 21.911,3.515 22.316 L 3.931 22.531 11.955 22.491 C 20.611 22.449,20.168 22.461,20.606 22.243 C 20.994 22.049,21.540 21.497,21.732 21.105 C 21.960 20.639,22.019 19.875,21.861 19.420 C 21.730 19.042,21.384 18.329,19.162 13.860 C 16.574 8.654,14.215 3.996,14.006 3.680 C 13.764 3.314,13.408 2.994,13.035 2.808 C 12.734 2.657,12.656 2.636,12.260 2.600 C 11.761 2.555,11.690 2.555,11.440 2.604 M12.452 3.638 C 12.536 3.657,12.665 3.715,12.740 3.766 C 13.054 3.981,13.207 4.272,17.880 13.576 L 20.932 19.652 20.906 20.092 C 20.888 20.417,20.859 20.577,20.798 20.704 C 20.702 20.903,20.269 21.323,20.040 21.440 C 19.885 21.519,19.809 21.520,11.988 21.520 L 4.092 21.520 3.856 21.366 C 3.575 21.183,3.258 20.853,3.176 20.657 C 3.144 20.579,3.097 20.331,3.071 20.106 L 3.026 19.696 5.778 14.218 C 9.929 5.958,10.771 4.316,11.028 3.975 C 11.148 3.816,11.400 3.640,11.569 3.597 C 11.713 3.561,12.212 3.584,12.452 3.638 M11.774 10.100 C 11.683 10.155,11.597 10.231,11.582 10.270 C 11.516 10.440,11.474 11.962,11.486 13.698 C 11.500 15.571,11.500 15.581,11.590 15.725 C 11.699 15.899,11.869 15.979,12.065 15.947 C 12.274 15.913,12.390 15.821,12.439 15.650 C 12.505 15.421,12.541 11.853,12.485 11.013 C 12.460 10.635,12.429 10.297,12.415 10.262 C 12.388 10.190,12.083 10.000,11.996 10.000 C 11.965 10.001,11.865 10.045,11.774 10.100 M11.893 17.552 C 11.770 17.570,11.623 17.730,11.565 17.908 C 11.538 17.992,11.505 18.204,11.493 18.380 C 11.436 19.177,11.741 19.633,12.185 19.416 C 12.442 19.290,12.497 19.124,12.495 18.480 C 12.494 18.063,12.479 17.912,12.429 17.816 C 12.327 17.621,12.118 17.518,11.893 17.552 " fill="#EC0000" stroke="none" fill-rule="evenodd"></path></svg>