<svg width="24" height="24" viewBox="0 0 24 24" fill="none" xmlns="http://www.w3.org/2000/svg"><path d="M7.449 4.561 C 7.333 4.578,7.176 4.603,7.102 4.617 L 6.966 4.642 4.503 12.033 C 3.148 16.098,2.040 19.445,2.040 19.472 C 2.040 19.526,2.903 19.542,2.986 19.489 C 3.012 19.473,3.305 18.578,3.638 17.500 C 3.971 16.422,4.271 15.455,4.305 15.350 L 4.366 15.160 7.575 15.160 L 10.784 15.160 11.399 17.150 C 11.737 18.245,12.039 19.226,12.070 19.330 L 12.126 19.520 12.636 19.520 C 12.917 19.520,13.158 19.509,13.171 19.496 C 13.184 19.483,12.071 16.113,10.697 12.008 C 9.324 7.903,8.200 4.539,8.200 4.532 C 8.200 4.509,7.661 4.530,7.449 4.561 M8.103 7.166 C 9.126 10.191,10.440 14.142,10.440 14.190 C 10.440 14.230,9.851 14.240,7.580 14.240 C 5.152 14.240,4.720 14.232,4.720 14.184 C 4.720 14.153,5.259 12.529,5.917 10.574 C 7.634 5.478,7.569 5.666,7.606 5.732 C 7.624 5.765,7.848 6.410,8.103 7.166 M17.467 8.562 C 16.744 8.627,15.885 8.863,15.215 9.182 L 14.851 9.356 14.827 9.548 C 14.814 9.654,14.791 9.854,14.776 9.993 L 14.749 10.246 14.885 10.187 C 14.959 10.155,15.137 10.074,15.280 10.009 C 15.679 9.825,16.179 9.658,16.703 9.535 C 17.157 9.427,17.227 9.422,18.160 9.421 C 19.250 9.420,19.359 9.438,19.892 9.706 C 20.397 9.960,20.741 10.417,20.862 10.995 C 20.892 11.141,20.930 11.535,20.945 11.870 C 20.968 12.396,20.964 12.480,20.912 12.480 C 20.764 12.480,19.537 12.606,19.140 12.662 C 15.671 13.152,14.230 14.261,14.233 16.440 C 14.235 17.806,14.941 18.794,16.219 19.221 C 16.627 19.358,17.446 19.422,18.056 19.366 C 19.032 19.275,20.179 18.658,20.717 17.932 C 20.818 17.797,20.911 17.684,20.925 17.683 C 20.970 17.678,21.000 17.924,21.000 18.299 C 21.000 18.502,21.012 18.779,21.026 18.914 L 21.051 19.160 21.526 19.160 L 22.000 19.160 22.000 15.170 L 22.000 11.180 21.896 10.800 C 21.769 10.334,21.569 9.893,21.362 9.618 C 21.184 9.382,20.808 9.085,20.472 8.916 C 19.805 8.579,18.718 8.452,17.467 8.562 M20.960 15.150 L 20.960 17.020 20.589 17.380 C 20.056 17.897,19.493 18.208,18.660 18.446 C 18.392 18.523,18.243 18.538,17.740 18.539 C 17.060 18.540,16.847 18.500,16.400 18.290 C 15.872 18.041,15.456 17.522,15.317 16.939 C 15.290 16.829,15.269 16.560,15.269 16.340 C 15.270 15.622,15.466 15.125,15.936 14.655 C 16.171 14.420,16.295 14.334,16.641 14.169 C 17.096 13.950,17.626 13.767,18.160 13.642 C 18.835 13.484,20.196 13.295,20.730 13.284 L 20.960 13.280 20.960 15.150 " fill="#727272" stroke="none" fill-rule="evenodd"></path></svg>