<svg width="24" height="25" viewBox="0 0 24 25" fill="none" xmlns="http://www.w3.org/2000/svg"><path d="M5.960 2.602 C 5.795 2.619,5.583 2.661,5.489 2.695 C 4.929 2.899,4.208 3.399,3.862 3.824 C 3.660 4.072,3.434 4.492,3.240 4.981 L 3.120 5.282 3.122 6.371 C 3.125 7.934,3.164 8.457,3.310 8.888 C 3.722 10.101,4.850 11.026,6.130 11.201 C 6.632 11.270,7.281 11.167,7.883 10.922 C 8.248 10.773,8.480 10.595,8.951 10.102 C 9.382 9.650,9.598 9.297,9.759 8.780 C 9.860 8.458,9.915 7.525,9.918 6.120 L 9.919 5.300 9.729 4.860 C 9.475 4.273,9.280 3.963,8.946 3.611 C 8.498 3.139,7.790 2.730,7.271 2.642 C 6.950 2.588,6.296 2.568,5.960 2.602 M21.112 2.769 C 20.737 3.081,14.167 9.609,9.040 14.765 C 4.045 19.787,2.239 21.628,2.093 21.846 C 2.002 21.981,1.999 22.000,2.052 22.126 C 2.083 22.200,2.159 22.309,2.220 22.370 C 2.313 22.462,2.365 22.480,2.541 22.480 L 2.751 22.480 11.086 14.110 C 20.987 4.168,21.862 3.280,21.950 3.096 C 22.011 2.969,22.011 2.944,21.957 2.848 C 21.885 2.718,21.620 2.562,21.472 2.561 C 21.400 2.560,21.280 2.630,21.112 2.769 M7.245 3.679 C 7.761 3.838,8.294 4.290,8.603 4.830 C 8.776 5.132,8.781 5.148,8.806 5.599 C 8.821 5.853,8.834 6.589,8.836 7.235 L 8.840 8.410 8.683 8.723 C 8.469 9.152,8.327 9.347,8.042 9.612 C 7.785 9.850,7.361 10.080,7.026 10.163 C 6.754 10.231,6.040 10.189,5.753 10.088 C 5.261 9.915,4.660 9.368,4.383 8.841 L 4.236 8.560 4.194 7.690 C 4.148 6.743,4.169 5.617,4.239 5.300 C 4.402 4.562,5.264 3.731,6.000 3.602 C 6.316 3.547,6.946 3.586,7.245 3.679 M16.734 13.879 C 16.260 13.980,15.580 14.361,15.129 14.778 C 14.665 15.208,14.261 15.935,14.160 16.521 C 14.136 16.663,14.105 17.420,14.092 18.202 L 14.068 19.625 14.198 19.961 C 14.478 20.688,14.720 21.070,15.187 21.526 C 15.545 21.877,15.813 22.055,16.240 22.229 C 16.701 22.416,16.925 22.454,17.540 22.452 C 18.201 22.449,18.430 22.391,19.060 22.066 C 19.795 21.687,20.360 21.014,20.726 20.081 L 20.891 19.660 20.867 18.220 C 20.853 17.428,20.824 16.659,20.802 16.511 C 20.638 15.436,19.534 14.222,18.468 13.944 C 18.210 13.877,16.965 13.830,16.734 13.879 M17.747 14.841 C 18.513 14.942,19.036 15.276,19.482 15.951 C 19.789 16.416,19.780 16.346,19.780 18.143 L 19.780 19.746 19.604 20.103 C 19.294 20.734,18.664 21.263,18.060 21.401 C 17.780 21.464,17.186 21.454,16.900 21.380 C 16.180 21.194,15.539 20.623,15.282 19.937 C 15.153 19.592,15.101 18.516,15.156 17.355 C 15.199 16.442,15.202 16.428,15.321 16.205 C 15.755 15.389,16.535 14.850,17.347 14.805 C 17.395 14.802,17.575 14.818,17.747 14.841 " fill="#EC0000" stroke="none" fill-rule="evenodd"></path></svg>