<svg width="24" height="24" viewBox="0 0 24 24" fill="none" xmlns="http://www.w3.org/2000/svg"><path d="M5.858 4.038 L 3.416 4.060 3.146 4.197 C 2.748 4.399,2.393 4.743,2.219 5.094 C 2.091 5.353,2.073 5.431,2.037 5.881 C 2.013 6.187,2.002 8.727,2.009 12.440 L 2.020 18.500 2.170 18.814 C 2.279 19.043,2.393 19.201,2.590 19.398 C 2.869 19.677,3.059 19.796,3.434 19.925 C 3.645 19.997,3.940 20.000,12.000 20.000 C 20.060 20.000,20.355 19.997,20.566 19.925 C 20.906 19.808,21.091 19.700,21.331 19.481 C 21.598 19.238,21.780 18.963,21.906 18.615 L 22.000 18.356 22.000 12.004 C 22.000 5.896,21.997 5.644,21.925 5.434 C 21.796 5.061,21.677 4.869,21.404 4.596 C 21.216 4.408,21.054 4.292,20.840 4.190 L 20.540 4.048 14.420 4.032 C 11.054 4.023,7.201 4.025,5.858 4.038 M16.915 5.027 L 20.371 5.053 20.554 5.177 C 20.655 5.244,20.789 5.383,20.851 5.485 L 20.965 5.669 20.989 6.835 L 21.013 8.000 12.000 8.000 L 2.988 8.000 3.011 6.836 L 3.033 5.672 3.148 5.487 C 3.210 5.386,3.339 5.248,3.434 5.181 C 3.597 5.067,3.634 5.059,4.093 5.037 C 4.820 5.003,12.968 4.996,16.915 5.027 M15.280 6.071 C 14.848 6.306,14.960 6.907,15.451 6.981 C 15.551 6.996,15.868 7.002,16.154 6.994 C 16.608 6.982,16.689 6.969,16.787 6.896 C 17.050 6.700,17.051 6.299,16.789 6.112 C 16.670 6.027,16.612 6.019,16.040 6.008 C 15.492 5.997,15.404 6.004,15.280 6.071 M18.280 6.071 C 17.848 6.306,17.960 6.907,18.451 6.981 C 18.551 6.996,18.868 7.002,19.154 6.994 C 19.608 6.982,19.689 6.969,19.787 6.896 C 20.050 6.700,20.051 6.299,19.789 6.112 C 19.670 6.027,19.612 6.019,19.040 6.008 C 18.492 5.997,18.404 6.004,18.280 6.071 M20.991 13.662 L 20.969 18.324 20.853 18.512 C 20.790 18.615,20.654 18.756,20.551 18.826 L 20.364 18.951 19.552 18.979 C 19.105 18.994,15.356 19.001,11.220 18.993 L 3.700 18.980 3.516 18.872 C 3.415 18.813,3.284 18.700,3.224 18.622 C 2.987 18.311,3.000 18.609,3.000 13.601 L 3.000 9.000 12.006 9.000 L 21.012 9.000 20.991 13.662 M8.751 10.543 C 8.613 10.617,8.520 10.793,8.520 10.980 C 8.520 11.160,8.538 11.180,10.098 12.750 L 11.300 13.960 10.098 15.170 C 8.538 16.740,8.520 16.760,8.520 16.940 C 8.520 17.237,8.723 17.440,9.020 17.440 C 9.199 17.440,9.221 17.421,10.810 15.842 L 12.000 14.660 13.210 15.862 C 14.780 17.422,14.800 17.440,14.980 17.440 C 15.277 17.440,15.480 17.237,15.480 16.940 C 15.480 16.760,15.462 16.740,13.904 15.171 L 12.703 13.963 14.032 12.625 C 15.431 11.217,15.547 11.073,15.477 10.831 C 15.459 10.766,15.420 10.684,15.392 10.650 C 15.316 10.558,15.104 10.480,14.931 10.480 C 14.786 10.480,14.726 10.534,13.390 11.870 L 12.000 13.260 10.610 11.870 L 9.220 10.480 9.040 10.482 C 8.941 10.482,8.811 10.510,8.751 10.543 " fill="#127277" stroke="none" fill-rule="evenodd"></path></svg>