<svg width="24" height="24" viewBox="0 0 24 24" fill="none" xmlns="http://www.w3.org/2000/svg"><path d="M5.100 2.040 C 4.444 2.080,4.057 2.211,3.496 2.583 C 2.811 3.036,2.401 3.602,2.104 4.506 L 1.996 4.832 2.008 6.253 C 2.020 7.622,2.023 7.678,2.104 7.787 C 2.150 7.849,2.260 7.926,2.349 7.957 C 2.489 8.007,2.531 8.007,2.661 7.957 C 2.744 7.926,2.849 7.849,2.896 7.787 C 2.976 7.679,2.981 7.614,3.005 6.327 C 3.019 5.530,3.049 4.900,3.076 4.785 C 3.228 4.148,3.701 3.566,4.316 3.258 C 4.730 3.050,4.847 3.036,6.302 3.007 C 7.818 2.977,7.805 2.979,7.938 2.699 C 8.073 2.414,7.891 2.079,7.573 2.026 C 7.381 1.994,5.688 2.004,5.100 2.040 M16.392 2.025 C 16.235 2.054,16.051 2.243,16.020 2.407 C 15.986 2.587,16.077 2.810,16.225 2.907 C 16.325 2.973,16.471 2.982,17.678 3.005 C 19.113 3.031,19.261 3.049,19.655 3.244 C 20.168 3.499,20.503 3.833,20.752 4.340 C 20.946 4.733,20.968 4.920,20.995 6.347 C 21.019 7.610,21.024 7.680,21.104 7.787 C 21.150 7.849,21.260 7.926,21.349 7.957 C 21.489 8.007,21.531 8.007,21.661 7.957 C 21.744 7.926,21.849 7.849,21.896 7.787 C 21.978 7.677,21.980 7.636,21.980 6.247 C 21.980 4.877,21.976 4.807,21.888 4.500 C 21.552 3.331,20.666 2.440,19.525 2.124 C 19.264 2.052,19.081 2.041,17.866 2.024 C 17.115 2.014,16.451 2.015,16.392 2.025 M11.560 5.023 C 11.505 5.032,11.325 5.060,11.160 5.084 C 10.246 5.219,9.229 5.743,8.509 6.452 C 7.831 7.118,7.428 7.826,7.121 8.889 L 7.000 9.309 7.000 11.998 C 7.000 14.916,6.986 14.707,7.229 15.460 C 7.778 17.163,9.081 18.387,10.849 18.860 C 11.184 18.950,11.296 18.960,11.993 18.960 C 12.825 18.960,13.046 18.925,13.690 18.694 C 15.124 18.179,16.288 16.957,16.771 15.460 C 17.014 14.707,17.000 14.916,17.000 12.002 L 17.000 9.316 16.900 8.961 C 16.677 8.165,16.508 7.786,16.118 7.203 C 15.395 6.123,14.218 5.351,12.912 5.100 C 12.582 5.037,11.751 4.989,11.560 5.023 M12.808 6.098 C 13.413 6.206,14.204 6.620,14.701 7.089 C 15.248 7.605,15.708 8.375,15.881 9.064 C 15.960 9.376,15.962 9.485,15.951 12.104 L 15.940 14.820 15.831 15.140 C 15.387 16.445,14.417 17.421,13.179 17.812 C 11.754 18.261,10.191 17.857,9.158 16.773 C 8.811 16.409,8.641 16.162,8.384 15.648 C 8.045 14.972,8.060 15.143,8.060 12.000 C 8.060 8.857,8.045 9.028,8.384 8.352 C 8.641 7.838,8.811 7.591,9.160 7.225 C 9.654 6.706,10.338 6.307,11.054 6.119 C 11.407 6.027,12.345 6.015,12.808 6.098 M11.680 7.023 C 10.973 7.144,10.472 7.385,9.985 7.838 C 9.601 8.196,9.242 8.807,9.091 9.360 C 9.027 9.595,9.020 9.842,9.020 11.960 C 9.020 14.071,9.027 14.330,9.092 14.606 C 9.312 15.544,10.091 16.457,10.967 16.803 C 11.204 16.897,11.695 17.000,11.903 17.000 C 12.105 17.000,12.335 16.893,12.412 16.763 C 12.506 16.603,12.499 16.356,12.397 16.225 C 12.280 16.077,12.187 16.036,11.878 15.997 C 11.007 15.888,10.363 15.332,10.094 14.459 C 10.026 14.239,10.020 14.043,10.020 12.000 C 10.020 9.959,10.026 9.761,10.094 9.540 C 10.338 8.741,10.958 8.169,11.717 8.040 C 12.659 7.882,13.595 8.522,13.906 9.540 C 13.974 9.759,13.980 9.950,13.980 11.720 L 13.980 13.660 13.887 13.809 C 13.705 14.102,13.364 14.249,13.070 14.163 C 12.900 14.113,12.673 13.932,12.589 13.780 C 12.560 13.727,12.536 13.094,12.519 11.920 C 12.500 10.571,12.481 10.114,12.441 10.031 C 12.285 9.709,11.780 9.688,11.572 9.993 C 11.505 10.092,11.500 10.229,11.500 11.900 C 11.500 13.688,11.501 13.702,11.594 13.974 C 11.889 14.826,12.789 15.351,13.601 15.143 C 13.972 15.048,14.174 14.940,14.443 14.691 C 14.770 14.388,14.918 14.078,14.968 13.591 C 14.988 13.387,14.998 12.410,14.989 11.420 C 14.971 9.388,14.969 9.369,14.661 8.740 C 14.349 8.102,13.876 7.622,13.260 7.318 C 13.084 7.232,12.835 7.134,12.706 7.102 C 12.463 7.040,11.854 6.993,11.680 7.023 M2.293 16.056 C 2.020 16.179,2.020 16.177,2.020 17.758 C 2.020 19.115,2.024 19.194,2.110 19.492 C 2.290 20.110,2.503 20.487,2.932 20.946 C 3.352 21.395,3.710 21.618,4.395 21.856 L 4.808 22.000 6.154 22.000 C 6.953 22.000,7.560 21.983,7.648 21.958 C 7.933 21.879,8.068 21.565,7.934 21.292 C 7.812 21.041,7.783 21.036,6.247 20.999 C 5.484 20.981,4.803 20.948,4.734 20.927 C 4.234 20.772,3.721 20.401,3.442 19.992 C 3.057 19.426,3.004 19.125,2.999 17.480 C 2.997 16.801,2.980 16.414,2.948 16.324 C 2.858 16.069,2.548 15.942,2.293 16.056 M21.293 16.058 C 21.026 16.175,21.023 16.191,20.995 17.678 C 20.980 18.456,20.950 19.102,20.924 19.215 C 20.741 19.986,20.080 20.667,19.260 20.928 C 19.194 20.949,18.516 20.981,17.753 20.999 C 16.217 21.036,16.188 21.041,16.066 21.292 C 15.916 21.598,16.104 21.929,16.459 21.982 C 16.556 21.996,17.216 22.000,17.927 21.990 C 19.110 21.973,19.245 21.964,19.517 21.884 C 20.168 21.691,20.653 21.392,21.113 20.901 C 21.435 20.557,21.654 20.178,21.846 19.633 L 22.005 19.183 21.992 17.760 C 21.979 16.172,21.979 16.174,21.698 16.057 C 21.532 15.987,21.456 15.987,21.293 16.058 " fill="#EC0000" stroke="none" fill-rule="evenodd"></path></svg>