<svg width="24" height="25" viewBox="0 0 24 25" fill="none" xmlns="http://www.w3.org/2000/svg"><path d="M9.299 4.649 C 8.591 5.039,8.304 5.367,8.084 6.038 C 8.038 6.178,8.000 6.342,8.000 6.402 L 8.000 6.510 6.830 6.537 C 6.186 6.552,5.322 6.581,4.908 6.602 C 4.065 6.645,3.925 6.683,3.378 7.021 C 2.885 7.326,2.536 7.752,2.178 8.488 L 2.000 8.854 2.000 13.009 L 2.000 17.163 2.144 17.552 C 2.490 18.486,2.988 19.190,3.653 19.686 C 4.019 19.959,4.362 20.127,5.013 20.355 L 5.485 20.520 11.999 20.520 L 18.512 20.520 18.926 20.377 C 20.556 19.812,21.302 19.084,21.842 17.534 L 22.007 17.060 21.986 13.260 C 21.974 11.011,21.948 9.285,21.923 9.030 C 21.856 8.358,21.724 8.095,21.164 7.508 C 20.754 7.080,20.395 6.816,20.090 6.721 C 19.769 6.620,19.044 6.572,17.335 6.537 L 16.009 6.510 15.984 6.283 C 15.954 6.020,15.779 5.626,15.567 5.348 C 15.396 5.122,15.019 4.824,14.760 4.711 C 14.519 4.605,13.888 4.573,11.460 4.541 L 9.540 4.516 9.299 4.649 M14.569 5.719 C 14.807 5.928,14.864 6.060,14.981 6.669 C 15.098 7.282,15.137 7.386,15.263 7.417 C 15.444 7.462,16.582 7.519,18.114 7.559 L 19.648 7.599 19.854 7.708 C 20.122 7.850,20.673 8.405,20.796 8.657 C 20.882 8.832,20.896 8.935,20.928 9.597 C 20.948 10.006,20.952 11.887,20.937 13.777 L 20.911 17.214 20.776 17.529 C 20.513 18.144,20.130 18.628,19.649 18.954 C 19.362 19.148,19.247 19.207,18.816 19.380 L 18.470 19.520 12.037 19.520 L 5.605 19.520 5.312 19.415 C 4.302 19.052,3.775 18.607,3.333 17.743 L 3.109 17.306 3.077 14.703 C 3.059 13.271,3.044 11.384,3.042 10.508 L 3.040 8.916 3.239 8.605 C 3.477 8.234,3.887 7.828,4.133 7.719 C 4.366 7.616,4.919 7.574,6.740 7.520 C 8.445 7.470,8.653 7.453,8.776 7.356 C 8.876 7.277,8.952 7.043,9.062 6.477 C 9.145 6.049,9.264 5.806,9.443 5.701 C 9.566 5.628,9.674 5.618,10.480 5.597 C 10.975 5.585,12.057 5.571,12.884 5.567 L 14.389 5.560 14.569 5.719 M10.713 9.735 C 9.713 10.186,9.153 10.623,8.675 11.327 C 8.204 12.021,7.943 13.070,8.041 13.874 C 8.236 15.476,9.213 16.701,10.765 17.289 L 11.100 17.416 12.000 17.416 L 12.900 17.416 13.270 17.274 C 14.266 16.891,15.107 16.153,15.522 15.300 C 16.122 14.067,16.128 12.926,15.541 11.740 C 15.280 11.213,14.962 10.817,14.514 10.462 C 14.159 10.181,13.424 9.781,13.106 9.695 C 12.947 9.652,11.729 9.567,11.180 9.561 C 11.136 9.561,10.926 9.639,10.713 9.735 M16.516 9.594 C 16.223 9.623,16.134 9.676,16.052 9.873 C 16.003 9.991,16.004 10.022,16.068 10.150 C 16.197 10.409,16.296 10.450,16.889 10.490 C 17.521 10.533,18.593 10.508,18.706 10.448 C 18.750 10.424,18.836 10.333,18.897 10.245 C 19.028 10.055,19.015 9.920,18.848 9.728 L 18.740 9.604 17.760 9.586 C 17.221 9.576,16.661 9.579,16.516 9.594 M13.115 10.761 C 13.514 10.948,13.886 11.214,14.174 11.520 C 14.380 11.738,14.490 11.905,14.668 12.268 L 14.897 12.735 14.913 13.222 C 14.951 14.347,14.743 14.905,14.022 15.620 C 13.657 15.981,13.310 16.201,12.900 16.331 C 12.657 16.408,12.533 16.420,11.960 16.419 C 11.381 16.418,11.271 16.407,11.064 16.330 C 10.282 16.039,9.537 15.314,9.237 14.551 C 9.130 14.282,9.067 13.688,9.093 13.213 C 9.111 12.886,9.140 12.745,9.238 12.500 C 9.564 11.684,9.934 11.280,10.780 10.814 C 11.127 10.624,11.296 10.601,12.180 10.624 C 12.833 10.641,12.870 10.647,13.115 10.761 " fill="#EC0000" stroke="none" fill-rule="evenodd"></path></svg>