<svg width="24" height="25" viewBox="0 0 24 25" fill="none" xmlns="http://www.w3.org/2000/svg"><path d="M11.500 3.720 C 8.949 4.178,6.750 5.593,5.353 7.677 C 4.750 8.577,4.224 9.939,3.990 11.209 C 3.942 11.468,3.889 11.680,3.870 11.680 C 3.852 11.680,3.732 11.513,3.602 11.310 C 2.810 10.062,2.692 9.920,2.456 9.920 C 2.253 9.920,2.056 10.025,1.999 10.162 C 1.904 10.392,2.137 10.886,3.066 12.434 C 4.039 14.055,4.208 14.280,4.448 14.280 C 4.687 14.280,5.122 13.765,6.332 12.050 C 7.047 11.035,7.243 10.716,7.269 10.522 C 7.288 10.379,7.275 10.347,7.151 10.223 C 6.976 10.048,6.833 10.010,6.660 10.092 C 6.535 10.152,6.065 10.711,5.281 11.731 C 5.116 11.945,4.967 12.120,4.948 12.120 C 4.841 12.120,5.213 10.351,5.440 9.779 C 6.223 7.808,7.551 6.351,9.393 5.440 C 10.649 4.819,11.460 4.640,13.021 4.640 C 14.343 4.640,15.395 4.870,16.500 5.401 C 17.336 5.803,17.961 6.241,18.634 6.897 C 20.563 8.776,21.367 11.441,20.821 14.141 C 20.345 16.490,18.745 18.530,16.540 19.597 C 14.078 20.788,11.267 20.684,8.874 19.315 C 8.344 19.012,7.932 18.687,7.103 17.920 C 6.758 17.601,6.415 17.307,6.340 17.267 C 6.208 17.196,6.199 17.197,6.032 17.271 C 5.528 17.497,5.600 17.789,6.354 18.569 C 6.884 19.117,7.251 19.425,7.885 19.852 C 9.589 20.999,11.431 21.504,13.515 21.395 C 16.819 21.223,19.915 19.115,21.264 16.120 C 21.878 14.756,22.105 13.457,22.008 11.860 C 21.958 11.046,21.859 10.536,21.602 9.760 C 20.968 7.851,19.732 6.255,18.000 5.109 C 17.076 4.497,15.814 3.982,14.735 3.777 C 14.236 3.681,14.067 3.669,13.060 3.656 C 12.078 3.643,11.886 3.651,11.500 3.720 M12.300 6.016 C 12.029 6.136,12.023 6.158,11.994 7.134 C 11.953 8.473,11.957 11.859,12.000 12.552 C 12.021 12.890,12.061 13.212,12.089 13.272 C 12.194 13.490,12.252 13.495,14.680 13.497 C 17.135 13.498,17.184 13.494,17.322 13.268 C 17.365 13.198,17.400 13.090,17.400 13.028 C 17.400 12.886,17.304 12.698,17.211 12.660 C 17.109 12.619,16.035 12.572,14.416 12.539 L 13.013 12.511 12.984 10.205 C 12.951 7.545,12.908 6.288,12.846 6.172 C 12.802 6.089,12.572 5.959,12.474 5.962 C 12.444 5.962,12.366 5.987,12.300 6.016 " fill="#EC0000" stroke="none" fill-rule="evenodd"></path></svg>