<svg width="16" height="16" viewBox="0 0 16 16" fill="none" xmlns="http://www.w3.org/2000/svg"><path d="M7.547 1.360 C 6.606 1.424,5.753 1.666,4.909 2.109 C 2.995 3.114,1.728 4.911,1.395 7.093 C 1.329 7.527,1.330 8.479,1.398 8.920 C 1.675 10.738,2.595 12.279,4.053 13.367 C 4.531 13.723,5.252 14.109,5.742 14.271 C 5.991 14.353,6.009 14.355,6.113 14.319 C 6.246 14.272,6.319 14.178,6.339 14.031 C 6.352 13.930,6.345 13.912,6.250 13.819 C 6.175 13.744,6.067 13.685,5.853 13.601 C 4.745 13.164,3.848 12.479,3.174 11.553 C 2.728 10.939,2.372 10.199,2.203 9.532 C 2.063 8.978,2.042 8.786,2.042 8.000 C 2.041 7.215,2.061 7.027,2.202 6.470 C 2.335 5.938,2.666 5.207,3.006 4.693 C 3.770 3.536,4.980 2.641,6.307 2.253 C 6.861 2.091,7.143 2.050,7.817 2.035 C 8.511 2.019,8.786 2.040,9.280 2.150 C 10.180 2.348,11.071 2.779,11.800 3.368 C 12.068 3.584,12.525 4.056,12.739 4.336 C 13.237 4.991,13.594 5.715,13.788 6.465 C 13.890 6.861,13.913 7.002,13.971 7.591 C 13.999 7.867,14.037 8.127,14.056 8.169 C 14.144 8.361,14.484 8.374,14.604 8.190 C 14.702 8.041,14.677 7.460,14.543 6.763 C 14.282 5.410,13.644 4.216,12.670 3.258 C 11.644 2.249,10.265 1.576,8.867 1.403 C 8.447 1.351,7.928 1.334,7.547 1.360 M8.152 4.736 C 8.111 4.758,8.063 4.809,8.045 4.848 C 8.022 4.901,8.011 5.332,8.005 6.456 L 7.998 7.992 6.455 8.006 C 5.235 8.018,4.897 8.029,4.837 8.057 C 4.748 8.100,4.651 8.307,4.675 8.404 C 4.684 8.438,4.729 8.512,4.774 8.567 L 4.857 8.667 6.663 8.667 L 8.469 8.667 8.568 8.566 L 8.667 8.464 8.666 6.759 C 8.665 5.821,8.654 5.000,8.641 4.934 C 8.611 4.775,8.511 4.693,8.347 4.695 C 8.281 4.695,8.193 4.714,8.152 4.736 M8.947 10.054 C 8.707 10.077,8.397 10.166,8.347 10.227 C 8.318 10.261,8.253 10.716,8.274 10.736 C 8.278 10.741,8.395 10.708,8.534 10.665 C 9.153 10.470,9.649 10.500,10.008 10.753 C 10.197 10.886,10.299 11.235,10.243 11.556 C 10.178 11.927,9.981 12.180,9.373 12.680 C 8.538 13.367,8.258 13.789,8.220 14.419 L 8.205 14.667 9.540 14.667 L 10.874 14.667 10.890 14.604 C 10.898 14.570,10.913 14.457,10.923 14.352 L 10.941 14.162 9.912 14.154 C 9.193 14.149,8.874 14.138,8.853 14.117 C 8.806 14.070,8.968 13.776,9.143 13.591 C 9.226 13.504,9.473 13.288,9.693 13.112 C 10.371 12.569,10.651 12.240,10.775 11.841 C 10.888 11.478,10.866 11.010,10.721 10.701 C 10.590 10.420,10.279 10.174,9.960 10.097 C 9.763 10.049,9.234 10.027,8.947 10.054 M13.581 10.099 C 13.366 10.126,12.368 11.380,11.831 12.297 C 11.542 12.791,11.458 12.995,11.439 13.251 C 11.430 13.377,11.427 13.489,11.433 13.500 C 11.439 13.511,11.904 13.520,12.468 13.520 L 13.493 13.520 13.493 14.093 L 13.493 14.667 13.773 14.667 L 14.053 14.667 14.053 14.093 L 14.053 13.520 14.265 13.520 C 14.502 13.520,14.602 13.493,14.623 13.422 C 14.630 13.395,14.645 13.292,14.655 13.193 L 14.673 13.013 14.363 13.013 L 14.053 13.013 14.053 11.547 L 14.053 10.080 13.860 10.084 C 13.754 10.087,13.628 10.093,13.581 10.099 M13.493 11.920 L 13.493 13.013 12.778 13.013 C 12.384 13.013,12.055 13.006,12.046 12.997 C 11.989 12.940,12.742 11.766,13.261 11.100 C 13.378 10.950,13.478 10.827,13.484 10.827 C 13.489 10.827,13.493 11.319,13.493 11.920 " fill="#990000" stroke="none" fill-rule="evenodd"></path></svg>