<svg width="24" height="24" viewBox="0 0 24 24" fill="none" xmlns="http://www.w3.org/2000/svg"><path d="M11.100 2.045 C 7.227 2.412,3.958 4.937,2.592 8.620 C 2.432 9.051,2.181 10.044,2.101 10.560 C 2.010 11.153,1.979 12.273,2.038 12.880 C 2.267 15.263,3.260 17.373,4.943 19.057 C 6.463 20.577,8.248 21.495,10.400 21.863 C 11.102 21.983,11.871 22.029,12.107 21.964 C 12.460 21.868,12.601 21.470,12.377 21.204 C 12.257 21.061,12.070 21.001,11.748 21.000 C 11.068 21.000,9.998 20.802,9.160 20.523 C 7.819 20.077,6.753 19.427,5.746 18.443 C 4.932 17.647,4.403 16.911,3.901 15.873 C 3.267 14.560,3.041 13.541,3.041 12.000 C 3.041 10.480,3.268 9.440,3.876 8.180 C 4.350 7.197,4.813 6.520,5.500 5.804 C 6.292 4.978,7.026 4.446,8.100 3.919 C 9.418 3.271,10.442 3.041,12.000 3.041 C 13.520 3.041,14.558 3.268,15.822 3.876 C 16.817 4.356,17.497 4.826,18.254 5.559 C 19.051 6.331,19.561 7.037,20.063 8.060 C 20.629 9.215,20.889 10.218,20.981 11.600 C 21.015 12.110,21.057 12.253,21.209 12.381 C 21.319 12.474,21.363 12.486,21.529 12.470 C 21.765 12.447,21.903 12.331,21.965 12.103 C 22.067 11.730,21.920 10.445,21.662 9.460 C 20.752 5.987,17.979 3.214,14.546 2.342 C 13.460 2.066,12.107 1.950,11.100 2.045 M12.246 7.068 C 12.173 7.104,12.092 7.180,12.066 7.237 C 12.033 7.310,12.017 8.010,12.008 9.667 L 11.996 11.995 9.668 12.008 C 7.951 12.018,7.311 12.035,7.228 12.071 C 7.106 12.124,7.000 12.328,7.000 12.509 C 7.000 12.659,7.136 12.871,7.270 12.931 C 7.353 12.968,8.019 12.980,10.002 12.980 C 12.895 12.980,12.738 12.993,12.909 12.731 C 12.975 12.631,12.980 12.438,12.980 9.982 C 12.980 7.499,12.976 7.334,12.908 7.233 C 12.826 7.113,12.614 7.000,12.474 7.001 C 12.422 7.001,12.320 7.031,12.246 7.068 M16.860 13.042 C 15.960 13.162,14.970 13.665,14.300 14.342 C 13.806 14.840,13.493 15.349,13.243 16.057 C 13.051 16.602,13.034 16.722,13.036 17.520 C 13.038 18.140,13.052 18.309,13.121 18.560 C 13.371 19.465,13.753 20.117,14.393 20.728 C 15.355 21.647,16.616 22.083,17.960 21.961 C 18.619 21.901,19.431 21.605,20.008 21.214 C 21.868 19.954,22.513 17.500,21.510 15.500 C 20.896 14.277,19.785 13.403,18.484 13.119 C 18.067 13.028,17.254 12.989,16.860 13.042 M18.545 14.168 C 19.527 14.525,20.179 15.086,20.602 15.940 C 20.895 16.532,20.940 16.740,20.938 17.500 C 20.936 18.352,20.831 18.730,20.413 19.375 C 19.762 20.382,18.693 20.973,17.520 20.976 C 16.780 20.977,16.150 20.790,15.558 20.395 C 14.699 19.820,14.160 18.929,14.038 17.880 C 13.865 16.391,14.650 14.984,16.015 14.336 C 16.560 14.077,16.766 14.039,17.560 14.053 C 18.196 14.063,18.286 14.074,18.545 14.168 M15.817 15.675 C 15.749 15.717,15.662 15.816,15.624 15.897 C 15.509 16.139,15.577 16.255,16.210 16.905 L 16.770 17.480 16.234 18.032 C 15.938 18.335,15.664 18.652,15.625 18.736 C 15.557 18.879,15.556 18.898,15.618 19.061 C 15.714 19.312,15.925 19.430,16.189 19.381 C 16.301 19.360,16.450 19.237,16.917 18.779 L 17.504 18.203 18.041 18.741 C 18.337 19.037,18.636 19.307,18.705 19.340 C 18.910 19.437,19.063 19.416,19.223 19.270 C 19.343 19.159,19.367 19.107,19.385 18.920 L 19.406 18.700 18.805 18.102 L 18.203 17.504 18.779 16.917 C 19.403 16.281,19.455 16.189,19.360 15.901 C 19.288 15.680,19.055 15.566,18.783 15.617 C 18.677 15.637,18.512 15.772,18.060 16.208 L 17.474 16.773 16.887 16.187 C 16.304 15.605,16.297 15.600,16.120 15.600 C 16.015 15.600,15.889 15.631,15.817 15.675 " fill="#127277" stroke="none" fill-rule="evenodd"></path></svg>