<svg width="24" height="25" viewBox="0 0 24 25" fill="none" xmlns="http://www.w3.org/2000/svg"><path d="M5.512 2.641 C 5.014 2.719,4.188 3.137,3.688 3.563 C 2.683 4.419,2.148 5.417,2.042 6.635 C 1.930 7.936,2.372 9.145,3.309 10.095 C 4.016 10.813,4.682 11.186,5.606 11.382 C 7.051 11.688,8.567 11.223,9.643 10.146 C 10.181 9.607,10.561 8.979,10.821 8.200 C 10.931 7.868,10.934 7.839,10.933 7.000 C 10.931 6.140,10.931 6.140,10.803 5.760 C 10.454 4.724,9.840 3.876,9.058 3.355 C 8.654 3.086,7.996 2.767,7.709 2.702 C 7.405 2.633,5.838 2.589,5.512 2.641 M16.512 2.641 C 16.014 2.719,15.188 3.137,14.688 3.563 C 13.683 4.419,13.148 5.417,13.042 6.635 C 12.930 7.936,13.372 9.145,14.309 10.095 C 15.016 10.813,15.682 11.186,16.606 11.382 C 18.051 11.688,19.567 11.223,20.643 10.146 C 21.181 9.607,21.561 8.979,21.821 8.200 C 21.931 7.868,21.934 7.839,21.933 7.000 C 21.931 6.140,21.931 6.140,21.803 5.760 C 21.454 4.724,20.840 3.876,20.058 3.355 C 19.654 3.086,18.996 2.767,18.709 2.702 C 18.405 2.633,16.838 2.589,16.512 2.641 M7.249 3.640 C 8.334 3.797,9.512 4.898,9.823 6.046 C 9.907 6.357,9.936 7.074,9.885 7.580 C 9.843 7.991,9.826 8.049,9.622 8.460 C 9.501 8.702,9.304 9.019,9.184 9.164 C 8.771 9.660,8.105 10.135,7.583 10.307 C 7.303 10.399,7.175 10.416,6.625 10.431 C 5.896 10.451,5.641 10.414,5.196 10.222 C 4.420 9.888,3.761 9.244,3.343 8.411 C 3.130 7.986,3.113 7.869,3.127 6.897 L 3.140 6.020 3.308 5.670 C 3.401 5.477,3.534 5.234,3.605 5.130 C 4.148 4.327,4.977 3.748,5.760 3.626 C 5.970 3.594,6.992 3.603,7.249 3.640 M18.648 3.747 C 19.740 4.130,20.619 5.109,20.861 6.216 C 20.954 6.637,20.925 7.516,20.805 7.972 C 20.588 8.793,19.834 9.713,19.073 10.086 C 18.450 10.391,18.308 10.420,17.440 10.420 L 16.660 10.420 16.317 10.276 C 15.477 9.925,14.822 9.326,14.409 8.533 C 14.139 8.014,14.101 7.815,14.103 6.960 C 14.106 6.229,14.107 6.216,14.233 5.882 C 14.480 5.227,14.851 4.711,15.376 4.293 C 15.730 4.011,16.317 3.699,16.600 3.641 C 16.699 3.621,17.122 3.609,17.540 3.615 C 18.270 3.625,18.314 3.630,18.648 3.747 M5.512 13.641 C 5.014 13.719,4.188 14.137,3.688 14.563 C 2.683 15.419,2.148 16.417,2.042 17.635 C 1.930 18.936,2.372 20.145,3.309 21.095 C 4.016 21.813,4.682 22.186,5.606 22.382 C 7.051 22.688,8.567 22.223,9.643 21.146 C 10.181 20.607,10.561 19.979,10.821 19.200 C 10.931 18.868,10.934 18.839,10.933 18.000 C 10.931 17.140,10.931 17.140,10.803 16.760 C 10.454 15.724,9.840 14.876,9.058 14.355 C 8.654 14.086,7.996 13.767,7.709 13.702 C 7.405 13.633,5.838 13.589,5.512 13.641 M16.512 13.641 C 16.014 13.719,15.188 14.137,14.688 14.563 C 13.683 15.419,13.148 16.417,13.042 17.635 C 12.930 18.936,13.372 20.145,14.309 21.095 C 15.016 21.813,15.682 22.186,16.606 22.382 C 18.051 22.688,19.567 22.223,20.643 21.146 C 21.181 20.607,21.561 19.979,21.821 19.200 C 21.931 18.868,21.934 18.839,21.933 18.000 C 21.931 17.140,21.931 17.140,21.803 16.760 C 21.454 15.724,20.840 14.876,20.058 14.355 C 19.654 14.086,18.996 13.767,18.709 13.702 C 18.405 13.633,16.838 13.589,16.512 13.641 M7.249 14.640 C 8.334 14.797,9.512 15.898,9.823 17.046 C 9.907 17.357,9.936 18.074,9.885 18.580 C 9.843 18.991,9.826 19.049,9.622 19.460 C 9.501 19.702,9.304 20.019,9.184 20.164 C 8.771 20.660,8.105 21.135,7.583 21.307 C 7.303 21.399,7.175 21.416,6.625 21.431 C 5.896 21.451,5.641 21.414,5.196 21.222 C 4.420 20.888,3.761 20.244,3.343 19.411 C 3.130 18.986,3.113 18.869,3.127 17.897 L 3.140 17.020 3.308 16.670 C 3.401 16.477,3.534 16.234,3.605 16.130 C 4.148 15.327,4.977 14.748,5.760 14.626 C 5.970 14.594,6.992 14.603,7.249 14.640 M18.648 14.747 C 19.740 15.130,20.619 16.109,20.861 17.216 C 20.954 17.637,20.925 18.516,20.805 18.972 C 20.588 19.793,19.834 20.713,19.073 21.086 C 18.450 21.391,18.308 21.420,17.440 21.420 L 16.660 21.420 16.317 21.276 C 15.477 20.925,14.822 20.326,14.409 19.533 C 14.139 19.014,14.101 18.815,14.103 17.960 C 14.106 17.229,14.107 17.216,14.233 16.882 C 14.480 16.227,14.851 15.711,15.376 15.293 C 15.730 15.011,16.317 14.699,16.600 14.641 C 16.699 14.621,17.122 14.609,17.540 14.615 C 18.270 14.625,18.314 14.630,18.648 14.747 " fill="#EC0000" stroke="none" fill-rule="evenodd"></path></svg>