<svg width="24" height="25" viewBox="0 0 24 25" fill="none" xmlns="http://www.w3.org/2000/svg"><path d="M17.908 6.194 C 17.653 6.392,17.479 6.621,11.831 14.186 C 11.045 15.239,10.350 16.162,10.286 16.238 L 10.170 16.375 10.035 16.264 C 9.961 16.202,9.044 15.317,7.997 14.296 C 6.951 13.275,6.035 12.396,5.963 12.342 C 5.776 12.204,5.452 12.169,5.212 12.261 C 4.845 12.401,4.521 12.823,4.520 13.162 C 4.520 13.367,4.680 13.656,4.985 14.000 C 6.149 15.315,9.665 18.841,9.935 18.963 C 10.291 19.125,10.660 19.028,10.962 18.692 C 11.634 17.944,18.097 9.192,19.046 7.745 C 19.414 7.184,19.461 7.066,19.403 6.850 C 19.343 6.627,19.133 6.330,18.949 6.208 C 18.813 6.118,18.740 6.101,18.425 6.090 C 18.073 6.077,18.055 6.081,17.908 6.194 " fill="#EC0000" stroke="none" fill-rule="evenodd"></path></svg>