<svg width="24" height="24" viewBox="0 0 24 24" fill="none" xmlns="http://www.w3.org/2000/svg"><path d="M11.751 2.082 C 11.493 2.219,11.500 2.103,11.501 6.020 C 11.502 9.018,11.511 9.564,11.561 9.700 C 11.705 10.088,12.296 10.088,12.439 9.700 C 12.489 9.564,12.498 9.015,12.499 6.020 C 12.500 2.054,12.510 2.206,12.228 2.078 C 12.018 1.983,11.938 1.983,11.751 2.082 M7.700 5.115 C 6.779 5.556,5.516 6.650,4.770 7.655 C 3.458 9.425,2.825 11.692,3.042 13.846 C 3.318 16.584,4.795 19.020,7.091 20.523 C 9.401 22.036,12.233 22.401,14.840 21.521 C 16.262 21.041,17.296 20.397,18.362 19.325 C 19.758 17.922,20.581 16.297,20.907 14.300 C 21.007 13.684,21.007 12.314,20.906 11.700 C 20.474 9.065,19.076 6.892,16.894 5.465 C 16.143 4.974,15.898 4.911,15.668 5.152 C 15.496 5.331,15.459 5.490,15.546 5.669 C 15.605 5.790,15.746 5.904,16.246 6.240 C 17.392 7.010,18.045 7.650,18.690 8.640 C 20.624 11.607,20.376 15.443,18.072 18.180 C 16.867 19.611,15.157 20.572,13.220 20.907 C 12.657 21.004,11.290 21.004,10.760 20.906 C 9.219 20.623,7.978 20.051,6.845 19.100 C 4.047 16.752,3.213 12.709,4.855 9.447 C 5.313 8.536,5.675 8.038,6.400 7.320 C 6.898 6.827,7.252 6.550,8.000 6.066 C 8.447 5.776,8.559 5.618,8.481 5.382 C 8.422 5.205,8.191 5.000,8.049 5.000 C 7.989 5.000,7.832 5.052,7.700 5.115 " fill="#EC0000" stroke="none" fill-rule="evenodd"></path></svg>