<svg width="24" height="25" viewBox="0 0 24 25" fill="none" xmlns="http://www.w3.org/2000/svg"><path d="M17.740 2.617 C 16.778 2.837,15.829 3.583,15.385 4.468 C 15.328 4.582,15.234 4.834,15.176 5.028 C 15.085 5.332,15.070 5.459,15.065 5.960 C 15.062 6.279,15.074 6.687,15.091 6.868 L 15.121 7.195 14.511 7.517 C 14.175 7.693,12.671 8.455,11.169 9.209 C 8.641 10.478,8.434 10.574,8.394 10.505 C 8.214 10.195,7.456 9.607,6.861 9.317 L 6.445 9.114 5.450 9.127 L 4.456 9.140 4.158 9.288 C 3.097 9.817,2.428 10.587,2.149 11.600 C 2.054 11.944,2.035 12.099,2.035 12.520 C 2.035 13.814,2.819 15.042,4.012 15.618 C 4.582 15.892,4.798 15.938,5.520 15.938 C 6.094 15.937,6.165 15.929,6.480 15.824 C 7.150 15.601,7.445 15.413,8.089 14.803 L 8.439 14.472 8.849 14.662 C 9.470 14.949,14.579 17.492,14.907 17.677 L 15.193 17.839 15.136 18.049 C 15.052 18.355,15.018 19.280,15.077 19.618 C 15.282 20.795,16.286 21.930,17.450 22.300 C 18.163 22.527,18.873 22.522,19.576 22.286 C 20.522 21.968,21.338 21.211,21.717 20.301 C 21.912 19.833,21.974 19.437,21.949 18.820 C 21.924 18.213,21.848 17.927,21.568 17.382 C 21.160 16.590,20.191 15.834,19.352 15.654 C 19.160 15.612,18.841 15.590,18.420 15.588 C 17.856 15.586,17.750 15.596,17.524 15.675 C 16.976 15.867,16.425 16.207,15.928 16.661 L 15.676 16.891 14.708 16.421 C 13.636 15.902,9.075 13.606,9.034 13.566 C 9.019 13.552,8.994 13.080,8.979 12.519 L 8.950 11.497 10.045 10.933 C 10.647 10.623,12.158 9.854,13.402 9.225 L 15.664 8.081 15.862 8.284 C 16.328 8.761,17.117 9.248,17.652 9.387 C 17.830 9.434,18.074 9.452,18.520 9.451 C 19.109 9.450,19.159 9.444,19.518 9.323 C 20.056 9.142,20.469 8.885,20.903 8.460 C 21.313 8.059,21.497 7.795,21.705 7.309 C 21.907 6.836,21.968 6.532,21.968 6.000 C 21.967 5.288,21.809 4.757,21.418 4.153 C 20.943 3.418,20.230 2.902,19.380 2.676 C 18.969 2.567,18.094 2.535,17.740 2.617 M18.881 3.601 C 19.413 3.666,19.807 3.872,20.239 4.312 C 20.448 4.525,20.635 4.761,20.720 4.920 L 20.860 5.180 20.860 6.022 L 20.860 6.863 20.720 7.095 C 20.439 7.560,20.019 7.974,19.607 8.192 C 19.203 8.405,19.023 8.447,18.500 8.445 C 17.715 8.443,17.350 8.288,16.800 7.722 C 16.468 7.380,16.282 7.095,16.155 6.737 C 16.081 6.527,16.073 6.436,16.090 5.940 C 16.104 5.496,16.126 5.335,16.193 5.164 C 16.397 4.641,16.961 4.023,17.459 3.777 C 17.873 3.572,18.255 3.525,18.881 3.601 M6.253 10.151 C 6.814 10.340,7.389 10.840,7.667 11.380 C 7.757 11.556,7.851 11.795,7.876 11.912 C 7.938 12.211,7.930 12.814,7.859 13.116 C 7.672 13.907,7.029 14.569,6.160 14.865 C 5.815 14.983,5.112 14.966,4.731 14.831 C 4.184 14.637,3.812 14.349,3.495 13.872 C 3.213 13.448,3.069 12.993,3.067 12.520 C 3.066 12.311,3.089 12.041,3.117 11.920 C 3.310 11.102,4.126 10.282,4.931 10.098 C 5.259 10.023,5.956 10.051,6.253 10.151 M19.225 16.663 C 19.764 16.803,20.446 17.391,20.707 17.941 C 20.992 18.541,20.989 19.484,20.700 20.068 C 20.428 20.619,19.805 21.161,19.210 21.367 C 18.817 21.502,18.179 21.495,17.771 21.351 C 17.194 21.147,16.819 20.861,16.500 20.382 C 16.144 19.846,16.120 19.757,16.120 18.956 L 16.120 18.272 16.289 17.946 C 16.631 17.286,17.350 16.708,17.960 16.602 C 18.246 16.553,18.927 16.585,19.225 16.663 " fill="#EC0000" stroke="none" fill-rule="evenodd"></path></svg>