<svg width="24" height="25" viewBox="0 0 24 25" fill="none" xmlns="http://www.w3.org/2000/svg"><path d="M10.356 2.680 C 9.003 2.836,7.014 3.724,5.760 4.733 C 5.338 5.072,4.384 6.039,4.094 6.422 C 3.088 7.746,2.498 9.076,2.173 10.757 C 2.082 11.225,2.065 11.435,2.050 12.276 C 2.025 13.623,2.132 14.386,2.503 15.516 C 3.012 17.063,3.760 18.308,4.858 19.434 C 6.574 21.195,8.747 22.233,11.160 22.446 C 11.749 22.498,12.837 22.466,13.437 22.380 C 16.224 21.979,18.764 20.341,20.396 17.891 C 20.868 17.181,21.310 16.246,21.263 16.057 C 21.235 15.947,20.992 15.729,20.858 15.696 C 20.597 15.630,20.440 15.808,19.802 16.886 C 19.316 17.708,18.886 18.276,18.321 18.841 C 16.419 20.743,13.804 21.693,11.177 21.437 C 8.041 21.132,5.346 19.260,3.957 16.420 C 3.282 15.040,3.045 13.892,3.100 12.260 C 3.148 10.834,3.227 10.375,3.586 9.427 C 4.224 7.744,5.238 6.379,6.620 5.342 C 7.471 4.704,8.725 4.085,9.662 3.842 C 10.524 3.619,11.553 3.532,12.583 3.597 C 13.390 3.647,13.786 3.711,14.729 3.944 C 15.500 4.134,15.540 4.133,15.727 3.934 C 15.942 3.705,15.910 3.442,15.646 3.271 C 15.402 3.112,15.105 3.003,14.448 2.833 L 13.820 2.670 12.240 2.658 C 11.371 2.651,10.523 2.661,10.356 2.680 M21.278 4.633 C 21.076 4.762,19.839 6.028,16.759 9.260 C 13.200 12.994,12.063 14.163,12.001 14.151 C 11.968 14.144,11.540 13.689,11.049 13.140 C 9.539 11.449,8.788 10.645,8.672 10.597 C 8.437 10.499,8.040 10.702,8.040 10.919 C 8.040 11.133,8.357 11.558,9.567 12.966 C 10.895 14.510,11.846 15.520,11.974 15.520 C 12.157 15.520,14.121 13.519,18.963 8.399 C 21.575 5.637,21.999 5.166,22.000 5.022 C 22.000 4.858,21.674 4.520,21.515 4.520 C 21.483 4.520,21.376 4.571,21.278 4.633 " fill="#EC0000" stroke="none" fill-rule="evenodd"></path></svg>