<svg width="24" height="24" viewBox="0 0 24 24" fill="none" xmlns="http://www.w3.org/2000/svg"><path d="M2.652 5.028 C 2.308 5.042,2.276 5.051,2.167 5.159 C 1.964 5.362,1.972 5.663,2.187 5.887 L 2.295 6.000 5.003 6.000 L 7.712 6.000 7.834 5.861 C 8.063 5.600,8.026 5.241,7.753 5.093 C 7.629 5.025,7.464 5.020,5.320 5.017 C 4.055 5.015,2.854 5.020,2.652 5.028 M11.080 5.036 C 10.222 5.062,10.169 5.077,10.056 5.314 C 9.972 5.491,10.010 5.683,10.166 5.861 L 10.288 6.000 16.000 6.000 L 21.712 6.000 21.834 5.861 C 22.063 5.599,22.026 5.240,21.753 5.094 C 21.628 5.027,21.338 5.022,16.740 5.018 C 14.056 5.015,11.509 5.023,11.080 5.036 M2.160 11.660 C 2.037 11.787,2.020 11.829,2.023 12.001 C 2.026 12.216,2.093 12.320,2.300 12.434 C 2.408 12.493,2.681 12.500,5.020 12.500 C 7.394 12.500,7.631 12.494,7.745 12.432 C 7.874 12.361,8.000 12.150,8.000 12.003 C 8.000 11.845,7.887 11.641,7.772 11.591 C 7.688 11.554,6.978 11.538,4.980 11.528 L 2.300 11.515 2.160 11.660 M10.158 11.662 C 10.037 11.787,10.020 11.829,10.023 12.001 C 10.026 12.216,10.093 12.320,10.300 12.434 C 10.410 12.494,10.895 12.500,16.027 12.500 C 21.629 12.500,21.634 12.500,21.747 12.417 C 22.009 12.226,22.062 11.873,21.860 11.671 C 21.772 11.583,21.716 11.569,21.334 11.546 C 21.100 11.532,18.520 11.520,15.602 11.520 L 10.296 11.520 10.158 11.662 M2.566 18.030 C 2.269 18.046,2.132 18.121,2.053 18.310 C 1.940 18.582,2.097 18.896,2.380 18.961 C 2.469 18.982,3.687 18.999,5.126 18.999 L 7.712 19.000 7.834 18.861 C 8.066 18.597,8.037 18.283,7.765 18.097 L 7.621 18.000 5.221 18.008 C 3.900 18.012,2.705 18.022,2.566 18.030 M10.787 18.029 C 10.254 18.044,10.147 18.085,10.053 18.310 C 9.984 18.475,10.015 18.668,10.136 18.819 C 10.201 18.901,10.277 18.939,10.422 18.963 C 10.531 18.981,13.116 18.996,16.166 18.998 L 21.712 19.000 21.832 18.863 C 22.053 18.611,22.034 18.287,21.787 18.111 L 21.660 18.020 16.460 18.018 C 13.600 18.016,11.047 18.021,10.787 18.029 " fill="#EC0000" stroke="none" fill-rule="evenodd"></path></svg>