<svg width="24" height="24" viewBox="0 0 24 24" fill="none" xmlns="http://www.w3.org/2000/svg"><path d="M4.038 2.037 C 3.462 2.060,3.452 2.062,3.143 2.214 C 2.549 2.508,2.117 3.090,2.038 3.704 C 1.992 4.064,1.992 8.936,2.038 9.296 C 2.145 10.127,2.893 10.866,3.726 10.962 C 3.888 10.981,5.136 10.996,6.500 10.996 C 7.864 10.996,9.112 10.981,9.274 10.962 C 10.118 10.865,10.865 10.118,10.962 9.274 C 11.007 8.891,11.007 4.109,10.962 3.726 C 10.890 3.100,10.462 2.514,9.862 2.217 C 9.562 2.069,9.540 2.064,8.967 2.035 C 8.304 2.002,4.925 2.003,4.038 2.037 M15.278 2.038 L 14.455 2.060 14.143 2.214 C 13.747 2.411,13.434 2.718,13.223 3.119 C 13.072 3.406,13.065 3.437,13.035 3.939 C 12.995 4.615,12.995 8.385,13.035 9.061 C 13.065 9.563,13.072 9.594,13.223 9.881 C 13.424 10.264,13.736 10.576,14.119 10.777 C 14.406 10.928,14.437 10.935,14.939 10.965 C 15.225 10.982,16.378 10.996,17.500 10.996 C 18.622 10.996,19.775 10.982,20.061 10.965 C 20.563 10.935,20.594 10.928,20.881 10.777 C 21.264 10.576,21.576 10.264,21.777 9.881 C 21.928 9.594,21.935 9.563,21.965 9.061 C 22.005 8.392,22.005 4.667,21.965 3.959 C 21.935 3.434,21.930 3.410,21.777 3.120 C 21.577 2.739,21.265 2.425,20.880 2.220 L 20.580 2.060 19.120 2.034 C 17.450 2.005,16.450 2.006,15.278 2.038 M9.420 3.106 C 9.609 3.208,9.802 3.405,9.906 3.600 C 9.976 3.733,9.980 3.884,9.980 6.460 C 9.980 8.590,9.969 9.218,9.928 9.354 C 9.863 9.567,9.591 9.849,9.376 9.925 C 9.146 10.006,3.854 10.006,3.624 9.925 C 3.421 9.853,3.139 9.570,3.077 9.374 C 3.011 9.171,2.975 4.656,3.034 4.026 C 3.080 3.530,3.162 3.359,3.443 3.173 C 3.673 3.021,3.942 3.008,6.820 3.015 C 9.240 3.020,9.261 3.021,9.420 3.106 M20.380 3.085 C 20.600 3.187,20.715 3.285,20.838 3.477 L 20.960 3.667 20.960 6.500 L 20.960 9.333 20.839 9.522 C 20.649 9.818,20.460 9.926,20.069 9.963 C 19.888 9.981,18.732 9.995,17.500 9.995 C 16.268 9.995,15.112 9.981,14.931 9.963 C 14.540 9.926,14.351 9.818,14.161 9.522 L 14.040 9.333 14.040 6.500 L 14.040 3.667 14.159 3.482 C 14.274 3.302,14.418 3.172,14.580 3.099 C 14.734 3.030,15.560 3.010,17.900 3.019 C 19.816 3.027,20.283 3.040,20.380 3.085 M4.278 13.038 L 3.455 13.060 3.143 13.214 C 2.747 13.411,2.434 13.718,2.223 14.119 C 2.072 14.406,2.065 14.437,2.035 14.939 C 1.995 15.615,1.995 19.385,2.035 20.061 C 2.065 20.563,2.072 20.594,2.223 20.881 C 2.424 21.264,2.736 21.576,3.119 21.777 C 3.406 21.928,3.437 21.935,3.939 21.965 C 4.225 21.982,5.378 21.996,6.500 21.996 C 7.622 21.996,8.775 21.982,9.061 21.965 C 9.563 21.935,9.594 21.928,9.881 21.777 C 10.264 21.576,10.576 21.264,10.777 20.881 C 10.928 20.594,10.935 20.563,10.965 20.061 C 11.005 19.392,11.005 15.667,10.965 14.959 C 10.935 14.434,10.930 14.410,10.777 14.120 C 10.577 13.739,10.265 13.425,9.880 13.220 L 9.580 13.060 8.120 13.034 C 6.450 13.005,5.450 13.006,4.278 13.038 M15.278 13.038 L 14.455 13.060 14.143 13.214 C 13.747 13.411,13.434 13.718,13.223 14.119 C 13.072 14.406,13.065 14.437,13.035 14.939 C 12.995 15.615,12.995 19.385,13.035 20.061 C 13.065 20.563,13.072 20.594,13.223 20.881 C 13.424 21.264,13.736 21.576,14.119 21.777 C 14.406 21.928,14.437 21.935,14.939 21.965 C 15.225 21.982,16.378 21.996,17.500 21.996 C 18.622 21.996,19.775 21.982,20.061 21.965 C 20.563 21.935,20.594 21.928,20.881 21.777 C 21.264 21.576,21.576 21.264,21.777 20.881 C 21.928 20.594,21.935 20.563,21.965 20.061 C 22.005 19.392,22.005 15.667,21.965 14.959 C 21.935 14.434,21.930 14.410,21.777 14.120 C 21.577 13.739,21.265 13.425,20.880 13.220 L 20.580 13.060 19.120 13.034 C 17.450 13.005,16.450 13.006,15.278 13.038 M9.380 14.085 C 9.600 14.187,9.715 14.285,9.838 14.477 L 9.960 14.667 9.960 17.500 L 9.960 20.333 9.839 20.522 C 9.649 20.818,9.460 20.926,9.069 20.963 C 8.641 21.004,4.359 21.004,3.931 20.963 C 3.540 20.926,3.351 20.818,3.161 20.522 L 3.040 20.333 3.040 17.500 L 3.040 14.667 3.159 14.482 C 3.274 14.302,3.418 14.172,3.580 14.099 C 3.734 14.030,4.560 14.010,6.900 14.019 C 8.816 14.027,9.283 14.040,9.380 14.085 M20.380 14.085 C 20.600 14.187,20.715 14.285,20.838 14.477 L 20.960 14.667 20.960 17.500 L 20.960 20.333 20.839 20.522 C 20.649 20.818,20.460 20.926,20.069 20.963 C 19.641 21.004,15.359 21.004,14.931 20.963 C 14.540 20.926,14.351 20.818,14.161 20.522 L 14.040 20.333 14.040 17.500 L 14.040 14.667 14.159 14.482 C 14.274 14.302,14.418 14.172,14.580 14.099 C 14.734 14.030,15.560 14.010,17.900 14.019 C 19.816 14.027,20.283 14.040,20.380 14.085 " fill="#EC0000" stroke="none" fill-rule="evenodd"></path></svg>