<svg width="24" height="25" viewBox="0 0 24 25" fill="none" xmlns="http://www.w3.org/2000/svg"><path d="M11.599 8.670 C 11.283 8.874,10.440 9.678,8.338 11.779 C 5.383 14.733,5.000 15.165,5.001 15.540 C 5.003 15.844,5.298 16.220,5.671 16.390 C 5.949 16.518,6.217 16.497,6.434 16.332 C 6.714 16.118,7.803 15.070,9.890 13.002 L 12.000 10.912 14.170 13.062 C 16.353 15.224,17.274 16.108,17.568 16.321 C 17.776 16.472,18.017 16.507,18.269 16.424 C 18.816 16.242,19.129 15.643,18.909 15.198 C 18.786 14.949,18.032 14.152,16.060 12.184 C 13.999 10.126,12.671 8.848,12.432 8.690 C 12.326 8.620,12.208 8.585,12.031 8.572 C 11.805 8.555,11.762 8.565,11.599 8.670 " fill="#EC0000" stroke="none" fill-rule="evenodd"></path></svg>