<svg width="24" height="25" viewBox="0 0 24 25" fill="none" xmlns="http://www.w3.org/2000/svg"><path d="M11.823 9.593 C 11.731 9.600,11.594 9.655,11.493 9.725 C 10.994 10.068,7.376 13.717,7.114 14.140 C 7.024 14.287,7.016 14.624,7.098 14.821 C 7.306 15.318,7.773 15.563,8.248 15.425 C 8.445 15.368,8.536 15.295,9.203 14.655 C 9.608 14.266,10.402 13.488,10.968 12.927 L 11.995 11.905 13.294 13.188 C 14.854 14.727,15.483 15.307,15.699 15.405 C 15.915 15.503,16.100 15.498,16.340 15.386 C 16.795 15.173,16.979 14.891,16.953 14.443 C 16.938 14.174,16.934 14.165,16.699 13.895 C 16.401 13.552,12.721 9.876,12.530 9.730 C 12.384 9.618,12.125 9.568,11.823 9.593 " fill="#EC0000" stroke="none" fill-rule="evenodd"></path></svg>