<svg width="24" height="25" viewBox="0 0 24 25" fill="none" xmlns="http://www.w3.org/2000/svg"><path d="M9.653 7.586 C 9.605 7.596,9.475 7.694,9.364 7.803 C 9.054 8.108,8.958 8.525,9.120 8.860 C 9.211 9.047,9.975 9.861,11.515 11.410 L 12.579 12.480 12.076 12.990 C 9.683 15.418,9.122 16.031,9.037 16.315 C 8.939 16.642,9.206 17.166,9.566 17.351 C 9.798 17.470,10.218 17.490,10.374 17.388 C 10.736 17.150,14.169 13.764,14.625 13.193 C 14.912 12.836,15.022 12.587,14.983 12.384 C 14.937 12.139,14.616 11.776,13.000 10.144 C 11.390 8.519,10.601 7.764,10.406 7.663 C 10.291 7.604,9.801 7.553,9.653 7.586 " fill="#EC0000" stroke="none" fill-rule="evenodd"></path></svg>