<svg width="24" height="25" viewBox="0 0 24 25" fill="none" xmlns="http://www.w3.org/2000/svg"><path d="M8.735 5.597 C 8.534 5.630,8.398 5.715,8.261 5.895 C 8.154 6.035,8.000 6.423,8.000 6.549 C 8.002 6.820,8.497 7.365,11.400 10.293 L 13.574 12.485 12.877 13.193 C 12.494 13.582,11.593 14.494,10.876 15.220 C 8.496 17.629,8.066 18.100,8.016 18.351 C 7.947 18.697,8.231 19.188,8.609 19.377 C 8.986 19.565,9.264 19.506,9.684 19.147 C 10.558 18.401,15.236 13.720,15.707 13.120 C 15.802 12.999,15.908 12.815,15.943 12.711 C 16.000 12.538,16.000 12.502,15.942 12.301 C 15.884 12.100,15.815 12.016,15.152 11.331 C 14.752 10.918,13.299 9.450,11.923 8.070 L 9.420 5.560 9.160 5.565 C 9.017 5.568,8.826 5.582,8.735 5.597 " fill="#EC0000" stroke="none" fill-rule="evenodd"></path></svg>