<svg width="24" height="24" viewBox="0 0 24 24" fill="none" xmlns="http://www.w3.org/2000/svg"><path d="M8.751 5.583 C 8.613 5.657,8.520 5.833,8.520 6.019 C 8.520 6.203,8.508 6.190,11.758 9.450 L 14.300 12.000 11.758 14.550 C 8.508 17.810,8.520 17.797,8.520 17.981 C 8.520 18.275,8.723 18.480,9.016 18.480 C 9.140 18.480,9.212 18.426,9.648 18.013 C 10.483 17.219,13.721 13.988,14.624 13.048 C 15.683 11.943,15.657 12.025,15.132 11.469 C 14.941 11.266,13.532 9.845,12.002 8.310 L 9.220 5.520 9.040 5.522 C 8.941 5.522,8.811 5.550,8.751 5.583 " fill="#222222" stroke="none" fill-rule="evenodd"></path></svg>