<svg width="24" height="24" viewBox="0 0 24 24" fill="none" xmlns="http://www.w3.org/2000/svg"><path d="M9.737 7.595 C 9.586 7.688,9.463 7.929,9.498 8.066 C 9.530 8.194,9.869 8.552,11.757 10.449 L 13.298 11.999 11.556 13.749 C 9.829 15.486,9.555 15.779,9.503 15.947 C 9.468 16.063,9.565 16.287,9.697 16.391 C 9.877 16.532,10.023 16.542,10.201 16.424 C 10.391 16.298,12.975 13.750,13.828 12.848 C 14.166 12.489,14.461 12.150,14.483 12.093 C 14.515 12.009,14.502 11.956,14.414 11.805 C 14.351 11.696,13.470 10.779,12.266 9.570 L 10.225 7.520 10.043 7.520 C 9.935 7.520,9.810 7.551,9.737 7.595 " fill="#222222" stroke="none" fill-rule="evenodd"></path></svg>