<svg width="24" height="25" viewBox="0 0 24 25" fill="none" xmlns="http://www.w3.org/2000/svg"><path d="M17.610 8.641 C 17.420 8.738,16.279 9.837,13.710 12.396 L 12.000 14.100 10.350 12.459 C 9.443 11.556,8.193 10.318,7.574 9.709 L 6.449 8.600 6.063 8.600 C 5.509 8.600,5.303 8.714,5.125 9.120 C 4.941 9.539,4.972 9.697,5.322 10.121 C 5.598 10.456,9.430 14.311,10.609 15.440 C 11.600 16.389,11.763 16.504,12.072 16.469 C 12.393 16.433,12.610 16.246,14.736 14.182 C 16.142 12.818,18.676 10.215,18.841 9.966 C 18.944 9.811,18.960 9.749,18.960 9.516 C 18.960 9.367,18.941 9.195,18.917 9.133 C 18.757 8.708,18.021 8.432,17.610 8.641 " fill="#EC0000" stroke="none" fill-rule="evenodd"></path></svg>