<svg width="25" height="25" viewBox="0 0 25 25" fill="none" xmlns="http://www.w3.org/2000/svg"><path d="M5.930 9.040 C 5.760 9.143,5.708 9.242,5.708 9.465 L 5.708 9.645 8.843 12.781 C 12.216 16.154,12.086 16.040,12.382 15.899 C 12.460 15.862,13.886 14.468,15.592 12.760 C 18.927 9.421,18.806 9.560,18.650 9.259 C 18.508 8.984,18.221 8.883,17.967 9.018 C 17.905 9.051,16.579 10.354,15.021 11.914 L 12.188 14.750 9.291 11.854 C 6.426 8.989,6.393 8.958,6.228 8.958 C 6.137 8.959,6.003 8.995,5.930 9.040 " fill="#137E84" stroke="none" fill-rule="evenodd"></path></svg>