<svg width="25" height="25" viewBox="0 0 25 25" fill="none" xmlns="http://www.w3.org/2000/svg"><path d="M11.938 9.038 C 11.869 9.081,10.446 10.485,8.776 12.158 L 5.739 15.199 5.719 15.405 C 5.701 15.592,5.712 15.626,5.832 15.763 C 5.982 15.934,6.165 15.988,6.355 15.918 C 6.429 15.890,7.617 14.734,9.333 13.020 L 12.188 10.168 15.101 13.053 L 18.014 15.938 18.191 15.938 C 18.419 15.938,18.585 15.817,18.664 15.595 C 18.711 15.460,18.713 15.404,18.672 15.306 C 18.645 15.239,17.221 13.783,15.508 12.071 C 12.426 8.989,12.393 8.958,12.229 8.958 C 12.137 8.959,12.006 8.994,11.938 9.038 " fill="#137E84" stroke="none" fill-rule="evenodd"></path></svg>