<svg width="24" height="25" viewBox="0 0 24 25" fill="none" xmlns="http://www.w3.org/2000/svg"><path d="M7.723 9.547 C 7.557 9.582,7.330 9.751,7.209 9.929 C 6.934 10.330,6.932 10.668,7.201 11.028 C 7.397 11.292,10.243 14.171,10.997 14.869 C 11.627 15.453,11.671 15.480,12.003 15.480 C 12.231 15.480,12.293 15.463,12.463 15.353 C 12.700 15.201,16.553 11.357,16.799 11.028 C 16.932 10.850,16.976 10.752,16.991 10.603 C 17.027 10.224,16.803 9.808,16.466 9.630 C 16.335 9.560,16.232 9.541,15.976 9.541 C 15.658 9.540,15.649 9.543,15.456 9.699 C 15.348 9.786,14.527 10.586,13.630 11.476 L 12.000 13.093 10.370 11.476 C 9.474 10.586,8.656 9.790,8.553 9.707 C 8.385 9.571,8.340 9.554,8.093 9.541 C 7.943 9.533,7.777 9.535,7.723 9.547 " fill="#EC0000" stroke="none" fill-rule="evenodd"></path></svg>