<svg width="24" height="25" viewBox="0 0 24 25" fill="none" xmlns="http://www.w3.org/2000/svg"><path d="M14.656 5.636 C 14.567 5.677,14.252 5.936,13.956 6.212 C 13.425 6.708,9.974 10.165,8.816 11.360 C 7.988 12.214,7.890 12.429,8.120 12.880 C 8.325 13.282,14.075 19.070,14.541 19.342 C 14.632 19.396,14.789 19.451,14.890 19.465 C 15.205 19.508,15.337 19.459,15.620 19.194 C 15.917 18.916,15.981 18.759,15.948 18.389 C 15.931 18.196,15.901 18.125,15.774 17.969 C 15.581 17.731,14.262 16.381,12.104 14.212 L 10.425 12.525 11.943 10.982 C 14.404 8.480,15.602 7.235,15.782 6.992 C 15.992 6.708,16.027 6.542,15.936 6.268 C 15.841 5.982,15.486 5.625,15.260 5.587 C 14.997 5.544,14.829 5.558,14.656 5.636 " fill="#EC0000" stroke="none" fill-rule="evenodd"></path></svg>