<svg width="25" height="24" viewBox="0 0 25 24" fill="none" xmlns="http://www.w3.org/2000/svg"><path d="M9.053 4.042 C 8.947 4.085,8.607 4.411,5.438 7.506 C 2.318 10.552,1.054 11.828,1.020 11.964 C 1.004 12.031,1.018 12.121,1.056 12.193 C 1.202 12.472,8.716 19.829,9.016 19.986 C 9.331 20.152,9.762 19.804,9.685 19.446 C 9.653 19.296,8.946 18.580,5.088 14.789 L 2.821 12.563 3.754 12.537 C 4.268 12.522,8.616 12.507,13.417 12.503 C 18.218 12.499,22.388 12.481,22.685 12.462 C 23.168 12.432,23.231 12.419,23.298 12.336 C 23.471 12.122,23.431 11.784,23.215 11.637 C 23.109 11.566,22.639 11.562,12.993 11.542 C 7.432 11.530,2.870 11.509,2.856 11.495 C 2.842 11.481,3.745 10.573,4.863 9.477 C 5.981 8.381,7.529 6.853,8.302 6.083 C 9.647 4.742,9.708 4.675,9.708 4.526 C 9.708 4.312,9.614 4.149,9.443 4.068 C 9.285 3.993,9.192 3.987,9.053 4.042 " fill="#137E84" stroke="none" fill-rule="evenodd"></path></svg>