<svg width="24" height="25" viewBox="0 0 24 25" fill="none" xmlns="http://www.w3.org/2000/svg"><path d="M9.813 4.586 C 9.589 4.635,8.179 5.987,4.638 9.545 C 2.113 12.082,1.999 12.211,2.001 12.503 C 2.003 12.809,2.082 12.898,4.812 15.634 C 8.663 19.494,9.557 20.336,9.922 20.445 C 10.219 20.534,10.665 20.362,10.875 20.078 C 10.988 19.925,11.080 19.667,11.080 19.503 C 11.080 19.135,10.977 19.020,7.427 15.455 L 5.590 13.610 7.005 13.584 C 7.783 13.570,11.093 13.541,14.360 13.520 C 20.599 13.479,21.274 13.466,21.444 13.378 C 21.657 13.268,21.917 12.894,21.978 12.610 C 22.036 12.345,21.826 11.939,21.497 11.678 L 21.349 11.560 18.944 11.559 C 15.446 11.558,6.529 11.487,6.050 11.457 L 5.639 11.430 5.786 11.265 C 5.866 11.174,7.050 9.960,8.416 8.567 C 9.782 7.173,10.931 5.984,10.970 5.923 C 11.065 5.772,11.098 5.494,11.043 5.291 C 10.983 5.070,10.775 4.801,10.577 4.692 C 10.419 4.605,9.995 4.545,9.813 4.586 " fill="#EC0000" stroke="none" fill-rule="evenodd"></path></svg>