<svg width="24" height="25" viewBox="0 0 24 25" fill="none" xmlns="http://www.w3.org/2000/svg"><path d="M11.652 2.714 C 11.311 3.000,5.149 9.130,4.580 9.749 C 4.313 10.040,4.070 10.323,4.041 10.378 C 3.961 10.528,4.044 10.769,4.224 10.906 C 4.448 11.076,4.553 11.052,4.888 10.752 C 5.049 10.608,6.596 9.084,8.327 7.364 L 11.473 4.239 11.494 12.969 C 11.506 18.140,11.529 21.811,11.552 21.971 C 11.575 22.135,11.620 22.276,11.665 22.327 C 11.878 22.566,12.241 22.542,12.351 22.282 C 12.449 22.046,12.476 19.889,12.478 11.760 L 12.480 4.220 14.630 6.363 C 17.646 9.368,19.173 10.861,19.356 10.982 C 19.512 11.085,19.516 11.086,19.661 11.017 C 19.849 10.928,20.019 10.679,19.984 10.543 C 19.971 10.488,19.869 10.334,19.758 10.201 C 19.103 9.415,12.879 3.194,12.226 2.674 C 12.120 2.589,11.999 2.520,11.958 2.520 C 11.918 2.520,11.780 2.607,11.652 2.714 " fill="#EC0000" stroke="none" fill-rule="evenodd"></path></svg>