<svg width="24" height="25" viewBox="0 0 24 25" fill="none" xmlns="http://www.w3.org/2000/svg"><path d="M11.715 2.620 C 11.657 2.652,11.597 2.710,11.581 2.749 C 11.515 2.915,11.484 6.243,11.482 13.294 L 11.480 20.808 8.170 17.518 C 6.349 15.709,4.793 14.184,4.711 14.130 C 4.597 14.054,4.531 14.036,4.431 14.055 C 4.209 14.097,4.000 14.343,4.000 14.562 C 4.000 14.674,5.893 16.608,9.091 19.765 C 11.138 21.785,11.866 22.480,11.935 22.480 C 12.165 22.480,12.659 22.011,16.623 18.034 C 18.690 15.961,19.926 14.692,19.958 14.611 C 20.024 14.443,19.985 14.295,19.835 14.155 C 19.691 14.021,19.486 13.973,19.354 14.043 C 19.230 14.109,18.276 15.042,15.156 18.153 L 12.572 20.728 12.546 19.734 C 12.532 19.187,12.509 15.151,12.494 10.765 L 12.468 2.791 12.286 2.675 C 12.084 2.547,11.885 2.528,11.715 2.620 " fill="#EC0000" stroke="none" fill-rule="evenodd"></path></svg>