<svg width="24" height="25" viewBox="0 0 24 25" fill="none" xmlns="http://www.w3.org/2000/svg"><path d="M13.780 4.567 C 13.583 4.676,13.480 4.813,13.480 4.968 C 13.480 5.101,13.514 5.160,13.725 5.391 C 13.860 5.539,15.389 7.093,17.123 8.844 L 20.276 12.029 13.088 12.057 C 6.211 12.084,2.401 12.128,2.213 12.183 C 2.106 12.214,1.985 12.454,2.015 12.576 C 2.028 12.625,2.092 12.740,2.159 12.832 L 2.281 13.000 11.290 13.000 L 20.300 13.000 18.156 15.150 C 15.426 17.888,13.805 19.551,13.659 19.762 C 13.462 20.046,13.534 20.313,13.841 20.440 C 13.933 20.478,13.979 20.475,14.095 20.420 C 14.320 20.313,15.581 19.101,18.382 16.301 C 20.922 13.761,22.000 12.639,22.000 12.534 C 22.000 12.505,21.889 12.351,21.753 12.191 C 21.415 11.794,14.513 4.893,14.246 4.686 C 14.028 4.516,13.921 4.489,13.780 4.567 " fill="#EC0000" stroke="none" fill-rule="evenodd"></path></svg>