<svg width="24" height="24" viewBox="0 0 24 24" fill="none" xmlns="http://www.w3.org/2000/svg"><path d="M5.888 4.435 C 5.631 4.674,4.661 5.635,3.733 6.570 C 2.312 8.001,2.041 8.293,2.019 8.411 C 1.965 8.698,2.219 9.000,2.514 9.000 C 2.678 9.000,2.707 8.973,4.610 7.082 L 6.000 5.700 6.000 12.464 C 6.000 16.185,6.012 19.340,6.026 19.477 C 6.047 19.678,6.074 19.748,6.168 19.841 C 6.383 20.057,6.734 20.022,6.908 19.767 C 6.977 19.665,6.981 19.338,6.991 12.681 L 7.002 5.702 8.391 7.083 C 10.293 8.973,10.322 9.000,10.486 9.000 C 10.781 9.000,11.035 8.698,10.981 8.412 C 10.959 8.294,10.700 8.015,9.387 6.691 C 8.525 5.821,7.555 4.860,7.232 4.555 C 6.470 3.835,6.529 3.840,5.888 4.435 M17.287 4.068 C 16.996 4.211,17.021 3.556,17.009 11.312 L 16.998 18.288 15.362 16.668 C 14.463 15.777,13.687 15.035,13.640 15.020 C 13.417 14.949,13.076 15.144,13.018 15.374 C 12.973 15.551,13.030 15.668,13.316 15.991 C 13.815 16.553,17.228 19.917,17.345 19.962 C 17.630 20.070,17.590 20.104,19.844 17.847 C 21.001 16.688,21.962 15.698,21.978 15.646 C 22.085 15.310,21.694 14.914,21.360 15.020 C 21.313 15.035,20.537 15.777,19.638 16.668 L 18.002 18.289 17.991 11.314 C 17.981 4.662,17.977 4.335,17.908 4.233 C 17.831 4.120,17.616 3.999,17.494 4.001 C 17.453 4.001,17.360 4.031,17.287 4.068 " fill="#127277" stroke="none" fill-rule="evenodd"></path></svg>