<svg width="24" height="25" viewBox="0 0 24 25" fill="none" xmlns="http://www.w3.org/2000/svg"><path d="M15.249 2.640 C 15.178 2.684,15.090 2.780,15.055 2.854 C 14.996 2.977,14.996 2.999,15.056 3.124 C 15.122 3.263,15.703 3.892,17.255 5.505 C 18.081 6.365,18.124 6.417,18.035 6.452 C 17.921 6.496,13.580 6.553,9.520 6.562 C 5.696 6.571,4.234 6.601,4.146 6.675 C 3.982 6.811,4.007 7.230,4.186 7.347 C 4.239 7.382,4.433 7.423,4.630 7.441 C 4.823 7.459,7.122 7.494,9.740 7.518 C 15.585 7.573,17.985 7.611,18.022 7.649 C 18.052 7.679,17.753 8.001,16.226 9.584 C 15.176 10.671,15.040 10.835,15.040 11.010 C 15.040 11.271,15.298 11.508,15.534 11.464 C 15.730 11.427,15.941 11.235,17.616 9.568 C 19.242 7.950,19.809 7.349,19.913 7.130 C 19.969 7.012,19.969 6.988,19.910 6.865 C 19.875 6.791,19.640 6.507,19.388 6.235 C 18.629 5.414,15.990 2.817,15.780 2.684 C 15.552 2.540,15.430 2.530,15.249 2.640 M6.648 15.150 C 5.015 16.780,4.097 17.750,4.036 17.910 C 4.017 17.962,4.018 18.042,4.039 18.099 C 4.060 18.153,4.372 18.508,4.734 18.889 C 5.695 19.901,8.073 22.248,8.268 22.377 C 8.474 22.513,8.612 22.494,8.811 22.301 C 8.979 22.137,9.026 21.985,8.946 21.863 C 8.840 21.702,8.145 20.957,7.004 19.784 C 6.386 19.148,5.880 18.616,5.880 18.601 C 5.880 18.563,11.202 18.520,15.843 18.520 L 19.673 18.520 19.783 18.390 C 19.843 18.319,19.916 18.203,19.946 18.132 C 19.993 18.020,19.990 17.983,19.923 17.828 C 19.882 17.731,19.815 17.638,19.774 17.622 C 19.733 17.606,16.568 17.574,12.740 17.551 C 8.912 17.527,5.772 17.501,5.762 17.493 C 5.752 17.484,6.167 17.050,6.685 16.528 C 8.514 14.684,9.000 14.146,9.000 13.963 C 9.000 13.839,8.805 13.656,8.617 13.604 C 8.272 13.508,8.368 13.433,6.648 15.150 " fill="#EC0000" stroke="none" fill-rule="evenodd"></path></svg>