<svg width="24" height="25" viewBox="0 0 24 25" fill="none" xmlns="http://www.w3.org/2000/svg"><path d="M13.198 4.685 C 12.970 4.866,11.229 6.576,7.320 10.458 C 3.300 14.451,3.125 14.621,3.086 14.579 C 3.066 14.557,3.030 13.973,3.005 13.280 C 2.980 12.587,2.940 11.942,2.914 11.847 C 2.860 11.640,2.747 11.556,2.519 11.553 C 2.397 11.551,2.308 11.582,2.186 11.667 L 2.020 11.784 2.010 13.980 L 1.999 16.176 2.148 16.328 L 2.296 16.480 4.502 16.480 C 6.553 16.480,6.712 16.475,6.769 16.410 C 6.948 16.206,7.018 15.854,6.909 15.705 C 6.881 15.667,6.781 15.618,6.688 15.597 C 6.500 15.555,4.929 15.482,4.180 15.481 L 3.700 15.480 6.983 12.190 C 11.175 7.988,13.857 5.273,13.940 5.145 C 14.002 5.051,14.001 5.034,13.928 4.868 C 13.868 4.732,13.809 4.672,13.672 4.606 C 13.575 4.559,13.475 4.520,13.451 4.520 C 13.427 4.520,13.313 4.594,13.198 4.685 M17.286 8.640 C 17.123 8.678,17.089 8.711,17.044 8.868 C 16.995 9.036,17.113 9.294,17.277 9.378 C 17.481 9.484,17.922 9.517,19.135 9.519 L 20.289 9.520 15.899 13.928 C 11.495 18.351,10.166 19.714,10.057 19.927 C 10.010 20.017,10.007 20.060,10.044 20.130 C 10.156 20.347,10.385 20.503,10.525 20.458 C 10.783 20.377,12.067 19.133,17.740 13.473 C 19.500 11.717,20.951 10.280,20.965 10.280 C 20.979 10.280,21.000 10.897,21.011 11.650 C 21.024 12.515,21.049 13.075,21.078 13.170 C 21.163 13.446,21.479 13.555,21.720 13.392 C 21.987 13.211,21.980 13.272,21.980 11.080 C 21.980 9.991,21.965 9.015,21.947 8.910 C 21.891 8.577,22.065 8.599,19.607 8.604 C 18.404 8.606,17.360 8.622,17.286 8.640 " fill="#EC0000" stroke="none" fill-rule="evenodd"></path></svg>