<svg width="24" height="25" viewBox="0 0 24 25" fill="none" xmlns="http://www.w3.org/2000/svg"><path d="M10.620 2.625 C 9.260 2.828,7.864 3.342,6.681 4.077 C 5.924 4.547,4.775 5.575,4.174 6.320 C 2.934 7.856,2.119 10.029,2.019 12.060 C 1.908 14.331,2.761 16.945,4.166 18.646 C 4.465 19.007,5.202 19.760,5.594 20.105 C 6.835 21.196,8.664 22.048,10.380 22.335 C 11.329 22.494,12.025 22.512,12.223 22.382 C 12.518 22.188,12.521 21.714,12.227 21.603 C 12.178 21.584,11.778 21.521,11.339 21.462 C 10.323 21.327,9.922 21.240,9.186 20.996 C 7.108 20.305,5.438 18.951,4.293 17.026 C 3.660 15.962,3.295 14.923,3.142 13.748 C 3.018 12.799,3.085 11.257,3.287 10.380 C 3.544 9.268,4.283 7.785,5.038 6.863 C 5.346 6.487,6.027 5.810,6.400 5.509 C 7.296 4.785,8.666 4.092,9.742 3.819 C 10.425 3.645,10.714 3.620,12.020 3.621 C 13.449 3.622,13.880 3.676,14.726 3.959 C 16.323 4.493,17.804 5.496,18.861 6.762 C 19.872 7.971,20.608 9.608,20.816 11.106 C 21.001 12.437,20.903 14.014,20.560 15.252 C 20.244 16.388,19.545 17.805,18.788 18.840 C 18.527 19.196,17.209 20.560,17.125 20.560 C 17.072 20.560,17.046 20.119,16.998 18.480 C 16.975 17.699,16.946 17.027,16.934 16.986 C 16.908 16.900,16.691 16.800,16.527 16.800 C 16.351 16.800,16.164 16.879,16.112 16.974 C 16.027 17.130,15.985 18.944,16.028 20.643 C 16.050 21.510,16.082 22.253,16.099 22.293 C 16.117 22.333,16.178 22.384,16.235 22.407 C 16.491 22.506,19.646 22.555,20.996 22.480 C 21.787 22.436,21.836 22.418,21.942 22.140 L 22.012 21.956 21.894 21.788 L 21.777 21.620 20.838 21.591 C 18.457 21.517,17.750 21.486,17.719 21.454 C 17.701 21.435,17.931 21.195,18.231 20.920 C 18.530 20.645,18.954 20.213,19.173 19.960 C 20.493 18.431,21.468 16.280,21.856 14.037 C 21.940 13.554,21.977 12.288,21.926 11.639 C 21.831 10.426,21.378 8.933,20.751 7.761 C 19.359 5.164,16.765 3.273,13.826 2.715 C 13.439 2.641,13.206 2.629,12.060 2.619 C 11.334 2.613,10.686 2.615,10.620 2.625 " fill="#EC0000" stroke="none" fill-rule="evenodd"></path></svg>