<svg width="24" height="24" viewBox="0 0 24 24" fill="none" xmlns="http://www.w3.org/2000/svg"><path d="M13.631 2.237 C 13.193 2.481,11.685 3.360,10.805 3.885 C 10.400 4.126,10.299 4.205,10.251 4.318 C 10.161 4.529,10.208 4.715,10.393 4.880 C 10.701 5.156,13.104 6.851,13.709 7.219 C 13.909 7.340,13.983 7.365,14.083 7.345 C 14.367 7.289,14.558 7.022,14.500 6.762 C 14.467 6.608,14.311 6.472,13.540 5.922 C 12.665 5.297,12.271 4.996,12.295 4.972 C 12.328 4.938,13.102 5.037,13.621 5.141 C 16.577 5.732,19.000 8.050,19.737 10.994 C 19.982 11.971,20.047 13.197,19.903 14.140 C 19.437 17.203,17.321 19.695,14.400 20.619 C 13.132 21.021,11.561 21.100,10.360 20.824 C 7.866 20.251,5.950 18.756,4.845 16.521 C 3.992 14.798,3.791 12.868,4.266 10.980 C 4.473 10.156,4.922 9.162,5.408 8.452 C 5.695 8.033,6.420 7.225,6.855 6.840 C 7.017 6.697,7.179 6.532,7.215 6.474 C 7.347 6.258,7.262 5.935,7.041 5.821 C 6.859 5.726,6.678 5.746,6.458 5.884 C 6.181 6.057,5.110 7.147,4.790 7.580 C 2.687 10.427,2.424 14.265,4.121 17.323 C 5.221 19.303,7.031 20.814,9.152 21.521 C 11.321 22.243,13.565 22.138,15.642 21.217 C 17.724 20.294,19.453 18.526,20.293 16.460 C 21.160 14.331,21.228 12.173,20.495 10.027 C 19.662 7.589,17.781 5.606,15.369 4.621 C 14.628 4.319,13.337 4.003,12.826 3.999 L 12.660 3.997 12.751 3.921 C 12.802 3.879,13.117 3.688,13.451 3.497 C 14.500 2.897,14.640 2.781,14.640 2.521 C 14.640 2.256,14.389 2.000,14.130 2.000 C 14.091 2.000,13.866 2.107,13.631 2.237 " fill="#EC0000" stroke="none" fill-rule="evenodd"></path></svg>