<svg width="24" height="25" viewBox="0 0 24 25" fill="none" xmlns="http://www.w3.org/2000/svg"><path d="M11.979 3.038 C 11.798 3.080,11.654 3.189,11.583 3.338 C 11.505 3.504,11.505 3.534,11.583 3.685 C 11.681 3.874,11.912 3.949,12.808 4.083 C 14.131 4.280,14.794 4.461,15.580 4.840 C 16.962 5.507,18.181 6.565,19.012 7.820 C 19.515 8.579,20.066 9.889,20.220 10.692 C 20.299 11.108,20.370 12.546,20.340 13.120 C 20.304 13.794,20.252 14.160,20.116 14.715 C 19.791 16.035,18.973 17.709,18.174 18.686 C 17.879 19.047,17.110 19.842,17.056 19.841 C 17.006 19.840,16.960 18.345,16.960 16.691 L 16.960 15.641 16.721 15.521 C 16.590 15.454,16.438 15.400,16.384 15.400 C 16.223 15.400,16.053 15.575,16.025 15.770 C 16.011 15.863,15.998 17.066,15.994 18.442 C 15.989 20.734,15.995 20.956,16.058 21.089 C 16.102 21.184,16.171 21.251,16.253 21.282 C 16.436 21.350,17.834 21.394,19.885 21.397 L 21.671 21.400 21.815 21.240 C 21.980 21.058,21.997 20.934,21.894 20.678 C 21.853 20.575,21.790 20.498,21.724 20.471 C 21.658 20.443,20.962 20.419,19.823 20.404 L 18.025 20.380 18.417 19.940 C 19.946 18.226,20.911 16.259,21.279 14.107 C 21.625 12.083,21.336 10.113,20.421 8.260 C 19.968 7.342,19.501 6.691,18.748 5.924 C 17.136 4.284,15.468 3.452,13.140 3.126 C 12.421 3.025,12.129 3.003,11.979 3.038 M3.880 3.561 C 2.880 3.579,2.301 3.604,2.228 3.634 C 2.160 3.662,2.093 3.735,2.056 3.823 C 1.982 4.000,2.024 4.153,2.203 4.371 L 2.326 4.520 4.168 4.520 L 6.010 4.520 5.747 4.798 C 4.293 6.339,3.400 7.987,2.859 10.120 C 2.640 10.986,2.625 11.142,2.626 12.580 L 2.626 13.900 2.789 14.520 C 3.173 15.980,3.706 17.137,4.473 18.180 C 4.792 18.613,5.745 19.581,6.261 19.997 C 7.761 21.205,9.801 21.930,11.817 21.972 L 12.214 21.980 12.330 21.817 C 12.485 21.598,12.514 21.374,12.405 21.236 C 12.313 21.118,12.191 21.087,11.300 20.957 C 10.530 20.843,9.863 20.699,9.384 20.542 C 6.512 19.599,4.344 17.112,3.733 14.060 C 3.675 13.766,3.661 13.497,3.661 12.600 C 3.660 11.475,3.685 11.171,3.845 10.360 C 4.083 9.159,4.844 7.506,5.656 6.427 C 5.883 6.125,6.874 5.040,6.922 5.040 C 6.967 5.040,6.997 5.795,7.024 7.580 C 7.052 9.454,7.034 9.345,7.346 9.464 C 7.560 9.546,7.770 9.500,7.922 9.337 L 8.020 9.234 8.031 7.363 C 8.038 6.334,8.027 5.113,8.008 4.648 C 7.973 3.817,7.971 3.802,7.864 3.662 L 7.756 3.520 6.588 3.527 C 5.946 3.531,4.727 3.547,3.880 3.561 " fill="#EC0000" stroke="none" fill-rule="evenodd"></path></svg>