<svg width="24" height="24" viewBox="0 0 24 24" fill="none" xmlns="http://www.w3.org/2000/svg"><path d="M11.120 2.045 C 9.578 2.203,8.158 2.672,6.860 3.451 C 5.151 4.476,3.699 6.092,2.917 7.838 C 1.867 10.185,1.726 12.726,2.515 15.111 C 3.029 16.666,3.750 17.841,4.911 19.014 C 5.734 19.847,6.569 20.460,7.495 20.914 C 9.179 21.739,10.873 22.083,12.670 21.965 C 14.557 21.841,16.461 21.139,17.969 20.012 C 18.452 19.650,19.553 18.565,19.927 18.080 C 21.375 16.205,22.135 13.716,21.970 11.390 C 21.793 8.910,20.807 6.702,19.116 5.004 C 17.566 3.448,15.571 2.429,13.515 2.142 C 13.140 2.089,11.736 1.992,11.540 2.005 C 11.496 2.008,11.307 2.026,11.120 2.045 M12.320 3.041 C 13.817 3.131,14.667 3.331,15.769 3.853 C 16.775 4.329,17.550 4.870,18.302 5.620 C 19.090 6.405,19.587 7.100,20.077 8.100 C 20.741 9.457,20.936 10.342,20.936 12.000 C 20.936 13.354,20.830 14.027,20.456 15.029 C 20.262 15.551,19.742 16.574,19.444 17.022 C 18.434 18.537,16.894 19.756,15.180 20.393 C 13.476 21.028,11.981 21.156,10.260 20.816 C 8.503 20.469,6.948 19.636,5.680 18.362 C 4.304 16.981,3.418 15.264,3.133 13.431 C 3.034 12.796,3.033 11.160,3.131 10.540 C 3.265 9.690,3.508 8.949,3.946 8.054 C 4.656 6.607,5.702 5.404,6.994 4.553 C 8.260 3.718,9.395 3.295,10.940 3.081 C 11.586 2.991,11.527 2.993,12.320 3.041 M16.800 6.550 C 16.723 6.588,16.637 6.670,16.608 6.730 C 16.573 6.803,16.543 7.156,16.519 7.766 C 16.499 8.275,16.476 8.697,16.468 8.705 C 16.460 8.713,16.335 8.589,16.191 8.428 C 15.357 7.500,14.275 6.866,13.100 6.616 C 12.646 6.519,11.263 6.518,10.846 6.613 C 9.755 6.864,8.879 7.352,8.079 8.156 C 7.449 8.791,6.970 9.534,6.897 9.991 C 6.838 10.359,7.225 10.635,7.577 10.474 C 7.689 10.423,7.773 10.307,8.091 9.760 C 8.777 8.580,9.882 7.807,11.219 7.574 C 11.743 7.482,12.604 7.519,13.140 7.656 C 13.614 7.777,14.306 8.107,14.681 8.391 C 15.151 8.748,15.816 9.482,15.736 9.558 C 15.716 9.576,15.268 9.599,14.740 9.609 C 13.930 9.623,13.759 9.636,13.648 9.694 C 13.377 9.837,13.329 10.216,13.555 10.441 L 13.665 10.551 14.462 10.581 C 14.901 10.598,15.699 10.601,16.237 10.588 C 17.314 10.563,17.371 10.550,17.455 10.297 C 17.478 10.229,17.495 9.492,17.495 8.515 C 17.496 7.008,17.490 6.841,17.428 6.746 C 17.281 6.522,17.018 6.440,16.800 6.550 M16.455 13.477 C 16.386 13.519,16.269 13.655,16.195 13.779 C 15.589 14.794,15.105 15.356,14.478 15.771 C 13.637 16.327,12.541 16.597,11.582 16.486 C 10.323 16.339,9.281 15.778,8.493 14.820 L 8.196 14.460 8.308 14.435 C 8.370 14.421,8.846 14.407,9.367 14.405 L 10.314 14.400 10.437 14.251 C 10.599 14.055,10.630 13.879,10.539 13.678 C 10.484 13.555,10.436 13.512,10.324 13.480 C 10.239 13.457,9.494 13.440,8.491 13.440 L 6.801 13.440 6.680 13.550 C 6.592 13.631,6.549 13.717,6.520 13.875 C 6.474 14.124,6.471 16.212,6.515 16.848 C 6.549 17.335,6.590 17.413,6.852 17.483 C 7.055 17.538,7.164 17.509,7.339 17.355 L 7.480 17.232 7.480 16.207 L 7.480 15.182 7.606 15.341 C 7.800 15.585,8.432 16.200,8.700 16.404 C 9.231 16.809,9.864 17.112,10.660 17.344 C 11.049 17.457,11.085 17.460,11.940 17.459 C 12.915 17.457,13.226 17.418,13.760 17.230 C 15.086 16.764,16.236 15.792,16.873 14.600 C 17.221 13.950,17.228 13.690,16.903 13.500 C 16.699 13.380,16.620 13.376,16.455 13.477 " fill="#127277" stroke="none" fill-rule="evenodd"></path></svg>