<svg width="24" height="25" viewBox="0 0 24 25" fill="none" xmlns="http://www.w3.org/2000/svg"><path d="M11.520 2.809 C 11.089 3.178,8.479 5.722,8.099 6.144 C 7.623 6.672,7.560 6.756,7.560 6.867 C 7.560 7.132,7.853 7.436,8.059 7.384 C 8.209 7.346,8.671 6.957,9.517 6.156 C 11.147 4.613,11.337 4.441,11.374 4.478 C 11.413 4.517,11.472 9.668,11.479 13.620 C 11.484 16.177,11.519 17.152,11.612 17.294 C 11.645 17.344,11.747 17.407,11.839 17.435 C 12.173 17.535,12.379 17.397,12.438 17.030 C 12.458 16.908,12.495 14.111,12.520 10.814 C 12.546 7.517,12.578 4.725,12.593 4.609 L 12.620 4.398 13.102 4.849 C 13.367 5.097,13.970 5.667,14.442 6.116 C 15.441 7.066,15.780 7.350,15.955 7.385 C 16.068 7.408,16.103 7.389,16.286 7.206 C 16.613 6.879,16.605 6.864,15.466 5.695 C 14.685 4.892,12.667 2.953,12.383 2.732 C 12.247 2.626,12.149 2.583,12.009 2.570 C 11.825 2.553,11.812 2.559,11.520 2.809 M2.300 15.558 C 2.104 15.638,2.075 15.724,2.032 16.347 C 1.987 17.000,2.017 18.819,2.080 19.251 C 2.171 19.870,2.581 20.644,3.118 21.211 C 3.717 21.843,4.312 22.185,5.160 22.386 C 5.371 22.435,5.926 22.454,8.100 22.484 C 11.140 22.527,17.851 22.496,18.470 22.436 C 18.969 22.389,19.312 22.288,19.760 22.056 C 20.785 21.526,21.578 20.569,21.838 19.549 C 22.010 18.873,22.062 16.177,21.909 15.829 C 21.753 15.471,21.179 15.472,21.083 15.830 C 21.061 15.913,21.015 16.628,20.982 17.420 C 20.906 19.228,20.886 19.359,20.607 19.896 C 20.428 20.241,19.931 20.774,19.553 21.025 C 19.142 21.298,18.829 21.393,18.173 21.443 C 16.664 21.557,6.074 21.520,5.320 21.398 C 4.802 21.314,4.142 20.898,3.726 20.394 C 3.610 20.254,3.437 19.978,3.339 19.780 C 3.127 19.348,3.103 19.176,3.040 17.620 C 2.991 16.404,2.937 15.856,2.854 15.727 C 2.751 15.567,2.480 15.484,2.300 15.558 " fill="#EC0000" stroke="none" fill-rule="evenodd"></path></svg>