<svg width="24" height="25" viewBox="0 0 24 25" fill="none" xmlns="http://www.w3.org/2000/svg"><path d="M11.771 2.603 C 11.700 2.624,11.621 2.681,11.595 2.729 C 11.524 2.862,11.489 4.739,11.462 9.900 C 11.449 12.452,11.427 14.778,11.413 15.069 L 11.388 15.598 11.244 15.473 C 11.165 15.404,10.632 14.903,10.060 14.360 C 8.495 12.873,8.219 12.640,8.018 12.640 C 7.805 12.640,7.488 12.988,7.534 13.172 C 7.571 13.317,8.686 14.483,10.083 15.836 C 11.886 17.582,11.865 17.567,12.177 17.419 C 12.541 17.246,16.229 13.609,16.426 13.228 C 16.459 13.164,16.473 13.078,16.457 13.028 C 16.400 12.839,16.138 12.640,15.946 12.640 C 15.788 12.640,15.496 12.888,14.117 14.198 C 13.400 14.878,12.756 15.482,12.687 15.541 L 12.560 15.647 12.560 13.954 C 12.560 11.287,12.475 3.078,12.446 2.904 C 12.401 2.640,12.096 2.504,11.771 2.603 M2.300 15.558 C 2.104 15.638,2.075 15.724,2.032 16.347 C 1.987 17.000,2.017 18.819,2.080 19.251 C 2.171 19.870,2.581 20.644,3.118 21.211 C 3.717 21.843,4.312 22.185,5.160 22.386 C 5.371 22.435,5.926 22.454,8.100 22.484 C 11.140 22.527,17.851 22.496,18.470 22.436 C 18.969 22.389,19.312 22.288,19.760 22.056 C 20.785 21.526,21.578 20.569,21.838 19.549 C 22.010 18.873,22.062 16.177,21.909 15.829 C 21.753 15.471,21.179 15.472,21.083 15.830 C 21.061 15.913,21.015 16.628,20.982 17.420 C 20.906 19.228,20.886 19.359,20.607 19.896 C 20.428 20.241,19.931 20.774,19.553 21.025 C 19.142 21.298,18.829 21.393,18.173 21.443 C 16.664 21.557,6.074 21.520,5.320 21.398 C 4.802 21.314,4.142 20.898,3.726 20.394 C 3.610 20.254,3.437 19.978,3.339 19.780 C 3.127 19.348,3.103 19.176,3.040 17.620 C 2.991 16.404,2.937 15.856,2.854 15.727 C 2.751 15.567,2.480 15.484,2.300 15.558 " fill="#EC0000" stroke="none" fill-rule="evenodd"></path></svg>