<svg width="24" height="25" viewBox="0 0 24 25" fill="none" xmlns="http://www.w3.org/2000/svg"><path d="M6.360 2.563 C 5.304 2.599,4.986 2.654,4.534 2.882 C 3.879 3.211,3.376 3.665,2.937 4.323 C 2.642 4.765,2.477 5.109,2.240 5.780 L 2.070 6.260 2.032 7.820 C 1.986 9.642,2.021 17.692,2.077 18.340 C 2.184 19.590,2.903 20.949,3.856 21.706 C 4.446 22.176,5.004 22.390,5.858 22.476 C 6.390 22.530,7.848 22.532,8.338 22.481 C 8.756 22.437,8.872 22.371,8.958 22.128 C 9.011 21.980,9.010 21.949,8.948 21.821 C 8.911 21.742,8.840 21.663,8.790 21.644 C 8.741 21.625,8.088 21.580,7.340 21.543 C 5.360 21.446,5.226 21.424,4.771 21.116 C 4.046 20.626,3.586 19.999,3.280 19.087 C 3.079 18.486,3.064 18.039,3.064 12.500 C 3.063 6.156,3.054 6.287,3.566 5.253 C 3.890 4.598,4.321 4.145,4.984 3.764 L 5.260 3.605 6.520 3.563 C 8.513 3.496,8.739 3.470,8.880 3.291 C 8.997 3.143,8.990 2.839,8.867 2.696 C 8.712 2.517,8.331 2.496,6.360 2.563 M17.590 8.381 C 17.424 8.493,17.320 8.663,17.320 8.818 C 17.320 8.953,17.642 9.310,19.112 10.804 L 20.276 11.987 15.388 12.015 C 10.835 12.040,8.872 12.076,8.715 12.139 C 8.566 12.198,8.506 12.585,8.621 12.750 C 8.655 12.798,8.749 12.857,8.831 12.881 C 9.059 12.949,12.076 12.995,16.394 12.998 L 20.248 13.000 19.078 14.190 C 17.758 15.533,17.341 15.992,17.302 16.144 C 17.255 16.333,17.538 16.640,17.760 16.640 C 17.946 16.640,18.151 16.484,18.924 15.749 C 19.765 14.951,21.652 13.010,21.846 12.744 C 21.998 12.536,21.990 12.427,21.805 12.184 C 21.418 11.674,18.464 8.713,18.024 8.393 C 17.833 8.254,17.779 8.253,17.590 8.381 " fill="#EC0000" stroke="none" fill-rule="evenodd"></path></svg>