<svg width="24" height="25" viewBox="0 0 24 25" fill="none" xmlns="http://www.w3.org/2000/svg"><path d="M5.940 2.600 C 5.500 2.617,5.041 2.652,4.920 2.677 C 4.261 2.810,3.249 3.521,2.780 4.180 C 2.550 4.503,2.316 4.980,2.143 5.477 L 2.000 5.888 2.000 12.500 L 2.000 19.112 2.143 19.522 C 2.750 21.267,3.920 22.265,5.564 22.442 C 6.084 22.498,14.663 22.534,16.940 22.490 L 18.780 22.454 19.180 22.302 C 19.937 22.014,20.347 21.764,20.813 21.303 C 21.272 20.849,21.553 20.389,21.846 19.609 L 22.000 19.199 22.000 17.686 C 22.000 16.854,21.988 15.869,21.973 15.497 C 21.947 14.831,21.945 14.819,21.838 14.712 C 21.779 14.653,21.681 14.592,21.622 14.577 C 21.492 14.544,21.259 14.610,21.120 14.718 L 21.021 14.795 20.992 16.187 C 20.956 17.960,20.894 19.089,20.818 19.382 C 20.580 20.296,19.568 21.253,18.680 21.405 C 18.502 21.435,16.707 21.455,13.000 21.467 C 7.376 21.485,5.372 21.455,5.033 21.349 C 4.429 21.158,3.712 20.483,3.277 19.694 L 3.109 19.390 3.072 16.042 C 3.050 14.031,3.050 11.288,3.072 9.174 L 3.108 5.654 3.213 5.423 C 3.469 4.865,3.926 4.336,4.459 3.983 C 4.995 3.627,5.270 3.590,7.900 3.518 C 8.780 3.494,9.568 3.457,9.650 3.436 C 9.830 3.389,9.923 3.262,9.950 3.025 C 9.975 2.800,9.914 2.694,9.730 2.641 C 9.535 2.585,6.989 2.557,5.940 2.600 M16.300 2.595 C 16.216 2.613,16.159 2.662,16.110 2.760 C 15.953 3.075,16.069 3.368,16.380 3.443 C 16.468 3.464,17.339 3.499,18.316 3.520 C 19.293 3.541,20.102 3.568,20.114 3.581 C 20.142 3.609,19.896 3.861,17.177 6.600 C 13.731 10.070,11.785 12.059,11.672 12.227 C 11.615 12.311,11.557 12.417,11.543 12.463 C 11.508 12.582,11.668 12.801,11.874 12.914 L 12.044 13.008 12.203 12.898 C 12.395 12.765,14.886 10.320,18.410 6.804 L 21.000 4.220 21.001 5.740 C 21.002 7.314,21.041 8.173,21.117 8.315 C 21.142 8.362,21.234 8.417,21.331 8.443 C 21.553 8.504,21.796 8.427,21.870 8.273 C 21.970 8.064,22.011 6.917,21.985 5.020 C 21.962 3.367,21.929 2.715,21.863 2.650 C 21.796 2.582,16.602 2.531,16.300 2.595 " fill="#EC0000" stroke="none" fill-rule="evenodd"></path></svg>