<svg width="24" height="24" viewBox="0 0 24 24" fill="none" xmlns="http://www.w3.org/2000/svg"><path d="M5.320 2.060 C 3.906 2.285,2.682 3.325,2.213 4.700 C 1.994 5.342,2.000 5.133,2.000 12.000 C 2.000 18.867,1.994 18.658,2.213 19.300 C 2.683 20.678,3.869 21.688,5.315 21.941 C 5.817 22.029,18.183 22.029,18.685 21.941 C 20.362 21.648,21.648 20.362,21.941 18.685 C 22.027 18.196,22.029 12.506,21.943 12.301 C 21.810 11.982,21.244 11.949,21.071 12.250 C 21.031 12.320,21.015 13.027,20.998 15.440 C 20.975 18.869,20.988 18.687,20.706 19.293 C 20.356 20.043,19.709 20.601,18.860 20.886 L 18.580 20.980 12.161 20.991 C 5.201 21.003,5.432 21.009,4.882 20.787 C 4.046 20.449,3.400 19.743,3.122 18.865 L 3.020 18.540 3.008 12.200 C 2.999 7.619,3.009 5.771,3.042 5.540 C 3.201 4.417,4.029 3.462,5.135 3.126 C 5.437 3.035,5.542 3.026,6.593 3.004 L 7.726 2.980 7.863 2.831 C 7.977 2.706,8.000 2.650,8.000 2.500 C 8.000 2.350,7.977 2.294,7.863 2.169 L 7.726 2.020 6.693 2.013 C 5.987 2.008,5.553 2.023,5.320 2.060 M15.630 7.670 L 10.000 13.300 10.000 11.340 C 10.000 9.467,9.996 9.374,9.922 9.252 C 9.722 8.924,9.278 8.924,9.078 9.252 C 9.003 9.376,9.000 9.472,9.000 12.000 C 9.000 14.528,9.003 14.624,9.078 14.748 C 9.238 15.010,9.125 15.000,12.008 15.000 C 14.528 15.000,14.625 14.997,14.748 14.922 C 15.076 14.722,15.076 14.278,14.748 14.078 C 14.626 14.004,14.533 14.000,12.660 14.000 L 10.700 14.000 16.330 8.370 L 21.960 2.739 21.960 2.568 C 21.960 2.232,21.768 2.040,21.432 2.040 L 21.261 2.040 15.630 7.670 " fill="#EC0000" stroke="none" fill-rule="evenodd"></path></svg>