<svg width="24" height="24" viewBox="0 0 24 24" fill="none" xmlns="http://www.w3.org/2000/svg"><path d="M2.380 4.027 C 2.214 4.073,2.082 4.205,2.037 4.370 C 2.011 4.468,1.998 4.766,2.006 5.105 C 2.022 5.752,2.061 5.851,2.339 5.957 C 2.469 6.007,2.511 6.007,2.651 5.957 C 2.900 5.869,2.971 5.741,2.992 5.346 L 3.010 5.010 3.346 4.992 C 3.735 4.971,3.866 4.901,3.957 4.661 C 4.007 4.531,4.007 4.489,3.957 4.349 C 3.853 4.056,3.762 4.021,3.067 4.013 C 2.733 4.009,2.424 4.015,2.380 4.027 M6.142 4.026 C 5.905 4.095,5.734 4.351,5.776 4.574 C 5.804 4.720,5.963 4.908,6.107 4.962 C 6.161 4.983,6.678 5.000,7.255 5.000 L 8.305 5.000 8.408 4.890 C 8.608 4.675,8.649 4.492,8.544 4.288 C 8.409 4.026,8.423 4.029,7.270 4.016 C 6.693 4.009,6.185 4.014,6.142 4.026 M10.787 4.038 C 10.702 4.055,10.585 4.116,10.527 4.175 C 10.437 4.264,10.420 4.317,10.420 4.498 C 10.420 4.752,10.525 4.895,10.757 4.960 C 10.939 5.010,12.762 5.013,12.893 4.962 C 13.037 4.908,13.196 4.720,13.224 4.574 C 13.253 4.416,13.152 4.191,13.007 4.092 C 12.912 4.028,12.793 4.019,11.920 4.013 C 11.381 4.010,10.871 4.021,10.787 4.038 M15.371 4.026 C 15.230 4.057,15.049 4.253,15.020 4.407 C 14.986 4.586,15.077 4.810,15.221 4.904 C 15.294 4.952,15.435 4.980,15.660 4.992 L 15.992 5.010 16.006 5.342 C 16.022 5.728,16.096 5.865,16.339 5.957 C 16.469 6.007,16.511 6.007,16.651 5.957 C 16.943 5.854,16.978 5.762,16.993 5.064 C 17.015 4.073,16.971 4.023,16.062 4.013 C 15.731 4.010,15.420 4.015,15.371 4.026 M2.293 8.056 C 2.031 8.174,2.021 8.220,2.007 9.396 C 2.000 9.979,2.005 10.514,2.019 10.586 C 2.050 10.756,2.247 10.950,2.421 10.983 C 2.604 11.017,2.829 10.899,2.926 10.719 C 2.993 10.595,3.000 10.477,2.998 9.521 C 2.996 8.807,2.980 8.415,2.948 8.324 C 2.858 8.069,2.548 7.942,2.293 8.056 M7.611 9.036 C 7.120 9.068,7.084 9.103,7.034 9.595 C 7.014 9.798,7.003 12.093,7.009 14.811 C 7.019 19.408,7.024 19.669,7.092 19.774 C 7.132 19.834,7.213 19.905,7.272 19.932 C 7.353 19.968,8.047 19.980,10.022 19.980 C 12.970 19.980,12.797 19.997,12.938 19.699 C 13.087 19.384,12.890 19.072,12.513 19.026 C 12.396 19.012,11.332 19.001,10.150 19.000 L 8.000 19.000 8.000 14.500 L 8.000 10.000 14.498 10.000 L 20.996 10.000 21.008 11.337 C 21.020 12.621,21.023 12.679,21.104 12.787 C 21.150 12.849,21.260 12.926,21.349 12.957 C 21.489 13.007,21.531 13.007,21.661 12.957 C 21.744 12.926,21.849 12.849,21.896 12.787 C 21.978 12.676,21.980 12.640,21.980 11.005 C 21.980 9.483,21.974 9.327,21.910 9.230 C 21.764 9.008,22.189 9.020,14.820 9.016 C 11.058 9.014,7.814 9.023,7.611 9.036 M2.287 13.066 C 2.040 13.191,2.020 13.261,2.020 14.000 C 2.020 14.977,2.058 15.014,3.055 14.993 C 3.608 14.981,3.671 14.972,3.787 14.889 C 4.049 14.703,4.052 14.299,3.792 14.114 C 3.693 14.044,3.596 14.021,3.333 14.007 L 3.000 13.990 3.000 13.714 C 3.000 13.562,2.975 13.376,2.943 13.302 C 2.839 13.051,2.532 12.941,2.287 13.066 M16.408 14.038 C 16.191 14.073,16.080 14.184,16.037 14.406 C 16.019 14.502,16.003 15.510,16.002 16.646 L 16.000 18.712 16.141 18.835 C 16.306 18.980,16.429 19.018,16.617 18.983 C 16.810 18.947,16.918 18.846,16.961 18.660 C 16.981 18.572,17.000 17.924,17.002 17.220 C 17.004 16.516,17.020 15.904,17.038 15.860 C 17.065 15.791,17.351 16.060,19.125 17.824 C 20.255 18.948,21.241 19.900,21.315 19.938 C 21.697 20.134,22.134 19.698,21.938 19.315 C 21.900 19.241,20.950 18.257,19.828 17.130 C 18.705 16.002,17.800 15.066,17.817 15.050 C 17.833 15.033,18.515 15.011,19.331 15.000 L 20.816 14.980 20.948 14.807 C 21.101 14.606,21.112 14.488,20.996 14.282 C 20.831 13.988,20.929 13.999,18.634 14.005 C 17.504 14.008,16.503 14.023,16.408 14.038 " fill="#EC0000" stroke="none" fill-rule="evenodd"></path></svg>