<svg width="24" height="25" viewBox="0 0 24 25" fill="none" xmlns="http://www.w3.org/2000/svg"><path d="M7.231 4.419 C 7.026 4.560,6.990 4.724,7.006 5.425 C 7.022 6.072,7.061 6.171,7.339 6.277 C 7.469 6.327,7.511 6.327,7.651 6.277 C 7.901 6.189,7.971 6.062,7.992 5.661 L 8.010 5.320 14.505 5.320 L 21.000 5.320 21.000 9.816 L 21.000 14.312 20.670 14.326 C 20.404 14.337,20.315 14.358,20.211 14.432 C 19.949 14.619,19.950 15.020,20.213 15.216 C 20.314 15.292,20.388 15.301,20.953 15.312 C 21.493 15.322,21.599 15.314,21.720 15.252 C 21.998 15.109,21.980 15.487,21.980 9.820 C 21.980 5.911,21.969 4.674,21.932 4.592 C 21.905 4.533,21.834 4.452,21.774 4.412 C 21.669 4.343,21.324 4.339,14.522 4.329 L 7.380 4.318 7.231 4.419 M2.380 9.349 C 2.226 9.388,2.082 9.525,2.037 9.675 C 2.012 9.759,1.998 9.983,2.006 10.173 C 2.019 10.499,2.027 10.526,2.146 10.645 C 2.244 10.742,2.316 10.775,2.466 10.789 C 2.689 10.811,2.835 10.725,2.946 10.506 C 2.982 10.437,3.031 10.367,3.056 10.351 C 3.080 10.334,3.312 10.321,3.571 10.321 C 3.880 10.320,4.088 10.301,4.175 10.265 C 4.620 10.079,4.570 9.467,4.100 9.359 C 3.936 9.321,2.524 9.313,2.380 9.349 M5.887 9.360 C 5.718 9.400,5.575 9.535,5.518 9.707 C 5.479 9.824,5.486 9.869,5.566 10.031 C 5.644 10.187,5.688 10.228,5.820 10.267 C 6.024 10.327,7.919 10.336,8.127 10.279 C 8.612 10.144,8.592 9.472,8.100 9.359 C 7.908 9.314,6.075 9.315,5.887 9.360 M9.887 9.360 C 9.718 9.400,9.575 9.535,9.518 9.707 C 9.479 9.824,9.486 9.869,9.566 10.031 C 9.644 10.187,9.688 10.228,9.820 10.267 C 10.024 10.327,11.919 10.336,12.127 10.279 C 12.612 10.144,12.592 9.472,12.100 9.359 C 11.908 9.314,10.075 9.315,9.887 9.360 M13.887 9.360 C 13.718 9.400,13.575 9.535,13.518 9.707 C 13.479 9.824,13.486 9.869,13.566 10.031 C 13.644 10.187,13.688 10.228,13.820 10.267 C 14.024 10.327,15.919 10.336,16.127 10.279 C 16.612 10.144,16.592 9.472,16.100 9.359 C 15.908 9.314,14.075 9.315,13.887 9.360 M16.259 10.901 C 16.027 11.016,16.021 11.046,16.007 12.159 C 15.991 13.388,16.003 13.491,16.180 13.668 C 16.292 13.780,16.341 13.800,16.500 13.800 C 16.659 13.800,16.708 13.780,16.820 13.668 C 16.992 13.496,17.012 13.308,16.993 12.097 C 16.978 11.099,16.968 11.052,16.747 10.918 C 16.596 10.826,16.425 10.820,16.259 10.901 M2.240 11.910 C 2.048 12.006,1.989 12.197,2.009 12.650 C 2.027 13.055,2.095 13.184,2.339 13.277 C 2.469 13.327,2.511 13.327,2.651 13.277 C 2.920 13.182,2.980 13.060,2.980 12.607 C 2.980 12.148,2.927 11.991,2.740 11.903 C 2.568 11.821,2.413 11.823,2.240 11.910 M7.322 14.364 C 7.268 14.386,6.289 15.334,5.146 16.472 C 3.214 18.394,3.065 18.533,3.038 18.440 C 3.021 18.385,3.006 17.773,3.003 17.080 C 3.000 16.387,2.981 15.748,2.961 15.660 C 2.918 15.474,2.810 15.373,2.617 15.337 C 2.429 15.301,2.306 15.340,2.139 15.486 L 1.996 15.612 2.008 17.803 C 2.020 19.955,2.022 19.996,2.104 20.107 C 2.255 20.311,2.303 20.315,4.505 20.318 C 5.630 20.319,6.607 20.309,6.677 20.295 C 6.975 20.235,7.158 19.871,7.020 19.614 C 6.870 19.336,6.902 19.341,5.270 19.327 C 4.243 19.319,3.800 19.302,3.800 19.271 C 3.800 19.247,4.715 18.308,5.834 17.184 C 6.953 16.060,7.898 15.082,7.934 15.012 C 7.970 14.942,8.000 14.851,8.000 14.811 C 8.000 14.680,7.856 14.468,7.718 14.393 C 7.567 14.312,7.470 14.305,7.322 14.364 M16.259 14.901 C 16.027 15.016,16.021 15.046,16.007 16.159 C 15.991 17.388,16.003 17.491,16.180 17.668 C 16.292 17.780,16.341 17.800,16.500 17.800 C 16.659 17.800,16.708 17.780,16.820 17.668 C 16.992 17.496,17.012 17.308,16.993 16.097 C 16.978 15.099,16.968 15.052,16.747 14.918 C 16.596 14.826,16.425 14.820,16.259 14.901 M16.253 18.902 C 16.140 18.960,16.000 19.164,16.000 19.272 C 16.000 19.295,15.767 19.318,15.430 19.329 C 14.807 19.348,14.670 19.386,14.577 19.566 C 14.438 19.834,14.550 20.150,14.825 20.265 C 14.998 20.337,16.473 20.339,16.676 20.268 C 16.899 20.190,16.972 20.051,16.992 19.666 C 17.012 19.288,16.965 19.097,16.821 18.961 C 16.695 18.843,16.424 18.815,16.253 18.902 M10.965 19.357 C 10.791 19.378,10.729 19.408,10.635 19.512 C 10.385 19.793,10.539 20.208,10.921 20.282 C 11.020 20.301,11.505 20.317,12.000 20.317 C 12.495 20.317,12.980 20.301,13.079 20.282 C 13.460 20.209,13.615 19.793,13.367 19.514 C 13.277 19.414,13.208 19.381,13.037 19.357 C 12.778 19.320,11.270 19.320,10.965 19.357 " fill="#222222" stroke="none" fill-rule="evenodd"></path></svg>