<svg width="24" height="25" viewBox="0 0 24 25" fill="none" xmlns="http://www.w3.org/2000/svg"><path d="M19.011 2.870 C 18.602 3.334,18.015 4.048,17.654 4.520 C 16.965 5.418,16.922 5.536,17.179 5.799 C 17.526 6.154,17.687 6.056,18.585 4.947 L 19.000 4.433 19.000 8.211 L 19.000 11.990 13.270 12.018 C 7.566 12.046,4.321 12.089,4.193 12.140 C 4.156 12.154,4.114 12.196,4.098 12.233 C 4.043 12.366,4.005 13.699,4.002 15.601 L 4.000 17.541 3.810 17.609 C 3.349 17.773,2.741 18.248,2.424 18.692 C 2.139 19.093,2.064 19.361,2.062 20.000 C 2.060 20.461,2.073 20.578,2.150 20.800 C 2.319 21.286,2.968 22.000,3.460 22.242 C 3.787 22.403,4.088 22.450,4.683 22.434 C 5.180 22.420,5.192 22.418,5.504 22.261 C 5.749 22.137,5.907 22.016,6.204 21.721 C 6.816 21.115,6.998 20.642,6.940 19.805 C 6.926 19.599,6.880 19.317,6.837 19.179 C 6.657 18.596,5.882 17.857,5.190 17.609 L 5.000 17.541 5.000 15.271 L 5.000 13.000 12.352 13.000 L 19.704 13.000 19.852 12.849 L 20.000 12.697 20.010 8.582 L 20.020 4.467 20.474 5.013 C 21.049 5.704,21.323 5.960,21.489 5.960 C 21.770 5.960,22.043 5.661,21.965 5.438 C 21.841 5.082,20.055 2.835,19.743 2.642 C 19.666 2.594,19.542 2.560,19.447 2.560 C 19.294 2.560,19.268 2.579,19.011 2.870 M4.278 3.616 C 4.201 3.668,4.104 3.774,4.062 3.851 L 3.987 3.991 4.092 4.169 C 4.212 4.374,4.560 4.762,5.277 5.490 L 5.779 6.000 5.277 6.510 C 4.567 7.230,4.212 7.625,4.096 7.823 C 4.002 7.984,3.999 8.001,4.056 8.136 C 4.126 8.303,4.328 8.440,4.506 8.440 C 4.683 8.440,4.931 8.243,5.767 7.440 C 6.156 7.066,6.486 6.760,6.501 6.760 C 6.516 6.760,6.837 7.060,7.214 7.427 C 8.060 8.249,8.308 8.440,8.528 8.440 C 8.657 8.440,8.715 8.413,8.824 8.304 C 9.115 8.013,9.010 7.830,7.920 6.707 L 7.227 5.994 7.686 5.527 C 8.618 4.579,9.000 4.129,9.000 3.979 C 9.000 3.819,8.671 3.519,8.495 3.520 C 8.368 3.521,7.932 3.881,7.197 4.593 L 6.493 5.274 6.077 4.854 C 5.377 4.148,4.621 3.520,4.470 3.520 C 4.442 3.520,4.355 3.563,4.278 3.616 M15.278 16.616 C 15.201 16.668,15.104 16.774,15.062 16.851 L 14.987 16.991 15.092 17.169 C 15.212 17.374,15.560 17.762,16.273 18.487 L 16.772 18.994 16.088 19.707 C 15.351 20.475,15.000 20.888,15.000 20.988 C 15.000 21.162,15.322 21.480,15.498 21.480 C 15.535 21.480,15.643 21.427,15.738 21.361 C 15.909 21.244,16.935 20.300,17.278 19.945 C 17.376 19.843,17.473 19.760,17.493 19.760 C 17.512 19.760,17.837 20.060,18.214 20.427 C 19.060 21.249,19.308 21.440,19.528 21.440 C 19.657 21.440,19.715 21.413,19.824 21.304 C 20.115 21.013,20.010 20.830,18.920 19.707 L 18.227 18.994 18.686 18.527 C 19.618 17.579,20.000 17.129,20.000 16.979 C 20.000 16.819,19.671 16.519,19.495 16.520 C 19.368 16.521,18.932 16.881,18.197 17.593 L 17.493 18.274 17.077 17.854 C 16.377 17.148,15.621 16.520,15.470 16.520 C 15.442 16.520,15.355 16.563,15.278 16.616 " fill="#EC0000" stroke="none" fill-rule="evenodd"></path></svg>