<svg width="24" height="25" viewBox="0 0 24 25" fill="none" xmlns="http://www.w3.org/2000/svg"><path d="M5.267 4.604 C 5.098 4.693,2.446 7.328,1.703 8.145 C 1.276 8.615,1.000 8.967,1.000 9.043 C 1.000 9.106,1.335 9.469,2.614 10.796 C 3.974 12.207,5.101 13.294,5.336 13.420 C 5.507 13.513,5.638 13.479,5.815 13.297 C 6.006 13.100,6.027 12.985,5.906 12.801 C 5.787 12.622,5.046 11.844,3.723 10.508 L 2.740 9.517 10.300 9.542 L 17.860 9.567 18.240 9.688 C 18.709 9.839,19.413 10.167,19.805 10.419 C 20.143 10.637,20.739 11.224,21.018 11.615 C 21.262 11.957,21.586 12.596,21.758 13.074 L 21.892 13.447 21.869 14.534 C 21.855 15.131,21.824 15.714,21.799 15.829 C 21.733 16.133,21.245 17.092,20.969 17.462 C 20.838 17.637,20.589 17.917,20.416 18.084 C 19.602 18.866,18.978 19.165,17.551 19.456 C 16.675 19.635,16.651 19.644,16.575 19.825 C 16.501 20.002,16.521 20.094,16.679 20.312 C 16.794 20.471,16.811 20.480,17.002 20.480 C 17.279 20.480,17.921 20.407,18.271 20.336 C 18.944 20.199,19.631 19.907,20.258 19.491 C 20.711 19.191,21.531 18.403,21.871 17.942 C 22.275 17.392,22.713 16.420,22.864 15.738 C 22.965 15.280,22.965 13.720,22.863 13.260 C 22.703 12.528,22.292 11.640,21.822 11.010 C 21.020 9.935,19.668 9.000,18.536 8.738 C 18.164 8.651,16.010 8.609,9.320 8.558 C 6.141 8.533,3.370 8.501,3.162 8.487 L 2.784 8.460 3.702 7.520 C 6.023 5.143,6.044 5.119,5.964 4.913 C 5.902 4.753,5.606 4.517,5.473 4.522 C 5.444 4.523,5.351 4.560,5.267 4.604 " fill="#EC0000" stroke="none" fill-rule="evenodd"></path></svg>