<svg width="24" height="25" viewBox="0 0 24 25" fill="none" xmlns="http://www.w3.org/2000/svg"><path d="M9.650 4.650 C 7.351 6.950,7.449 6.832,7.576 7.136 C 7.634 7.274,7.835 7.451,7.988 7.497 C 8.103 7.532,8.176 7.466,10.293 5.388 L 12.007 3.707 13.173 4.866 C 14.647 6.329,15.454 7.106,15.719 7.316 C 15.983 7.524,16.117 7.531,16.302 7.346 C 16.492 7.156,16.511 7.039,16.385 6.825 C 16.263 6.617,15.449 5.764,13.584 3.890 L 12.220 2.520 12.000 2.520 L 11.780 2.520 9.650 4.650 M7.798 17.616 C 7.613 17.741,7.499 17.952,7.537 18.101 C 7.569 18.229,7.964 18.643,10.238 20.930 L 11.780 22.480 12.000 22.480 L 12.220 22.480 14.350 20.350 C 16.415 18.285,16.480 18.215,16.480 18.068 C 16.480 17.794,16.325 17.603,16.055 17.543 C 15.950 17.520,15.901 17.541,15.726 17.679 C 15.475 17.877,14.543 18.775,13.093 20.215 L 12.006 21.294 10.253 19.561 C 9.289 18.607,8.413 17.758,8.306 17.674 C 8.081 17.495,7.991 17.485,7.798 17.616 " fill="#EC0000" stroke="none" fill-rule="evenodd"></path></svg>