<svg width="25" height="24" viewBox="0 0 25 24" fill="none" xmlns="http://www.w3.org/2000/svg"><path d="M11.136 2.103 C 10.001 2.288,9.109 2.567,8.146 3.039 C 6.006 4.089,4.370 5.778,3.414 7.923 C 2.854 9.179,2.596 10.321,2.555 11.729 C 2.475 14.447,3.443 16.934,5.347 18.903 C 6.873 20.482,8.776 21.500,10.854 21.850 C 13.018 22.213,15.032 21.906,17.006 20.910 C 18.774 20.019,20.218 18.648,21.220 16.911 C 21.750 15.991,22.149 14.895,22.376 13.729 C 22.560 12.789,22.550 11.149,22.355 10.170 C 21.986 8.312,21.185 6.691,19.988 5.379 C 18.392 3.629,16.505 2.577,14.188 2.143 C 13.678 2.048,11.637 2.021,11.136 2.103 M13.774 3.104 C 15.765 3.383,17.613 4.331,19.016 5.793 C 20.244 7.073,21.048 8.650,21.378 10.431 C 21.489 11.028,21.533 12.373,21.462 13.000 C 21.354 13.946,21.077 14.913,20.661 15.792 C 20.423 16.293,19.926 17.167,19.877 17.167 C 19.865 17.167,19.801 17.064,19.735 16.938 C 19.590 16.661,19.109 16.193,18.757 15.986 C 18.378 15.764,17.955 15.589,17.506 15.468 C 17.126 15.365,17.049 15.359,16.083 15.357 C 14.967 15.354,14.970 15.354,13.595 15.670 C 12.593 15.900,12.492 15.906,11.917 15.773 C 10.449 15.436,9.760 15.333,8.967 15.334 C 8.653 15.334,8.227 15.361,8.020 15.395 C 6.892 15.578,5.827 16.195,5.347 16.945 L 5.198 17.180 5.122 17.079 C 4.807 16.664,4.206 15.451,3.983 14.781 C 3.358 12.904,3.423 10.592,4.152 8.750 C 5.226 6.036,7.530 3.996,10.320 3.288 C 10.752 3.179,11.440 3.067,11.938 3.026 C 12.297 2.997,13.317 3.039,13.774 3.104 M11.892 4.666 C 11.078 4.780,10.155 5.294,9.615 5.936 C 9.226 6.399,9.018 6.848,8.918 7.448 C 8.861 7.791,8.874 7.960,9.106 9.792 C 9.382 11.967,9.465 12.269,9.977 12.955 C 10.592 13.780,11.854 14.280,12.937 14.128 C 13.378 14.066,14.006 13.847,14.297 13.654 C 14.619 13.440,15.136 12.918,15.288 12.652 C 15.646 12.026,15.735 11.621,16.018 9.313 C 16.226 7.617,16.206 7.279,15.857 6.562 C 15.645 6.125,15.242 5.659,14.810 5.351 C 14.455 5.097,13.812 4.800,13.470 4.730 C 13.107 4.657,12.220 4.621,11.892 4.666 M13.445 5.769 C 14.074 5.968,14.727 6.502,14.986 7.029 C 15.102 7.266,15.104 7.285,15.100 7.938 C 15.096 8.593,14.905 10.303,14.724 11.302 C 14.560 12.208,13.989 12.838,13.104 13.087 C 12.769 13.181,12.164 13.157,11.788 13.033 C 10.946 12.758,10.488 12.189,10.331 11.225 C 10.190 10.358,9.917 8.105,9.917 7.804 C 9.917 6.995,10.384 6.355,11.313 5.893 C 11.759 5.671,12.017 5.623,12.648 5.646 C 12.990 5.658,13.194 5.690,13.445 5.769 M17.012 16.399 C 17.695 16.515,18.282 16.779,18.626 17.123 C 18.854 17.352,18.953 17.551,19.013 17.902 L 19.059 18.167 18.873 18.358 C 18.771 18.464,18.509 18.700,18.292 18.883 C 16.194 20.650,13.441 21.353,10.754 20.810 C 9.166 20.489,7.758 19.769,6.444 18.608 C 6.027 18.239,5.978 18.105,6.105 17.678 C 6.229 17.259,6.807 16.785,7.458 16.568 C 8.063 16.367,8.410 16.321,9.143 16.344 C 9.852 16.367,10.467 16.464,11.521 16.718 C 12.325 16.911,12.750 16.904,13.708 16.677 C 15.356 16.287,16.021 16.231,17.012 16.399 " fill="#EC0000" stroke="none" fill-rule="evenodd"></path></svg>