<svg width="24" height="24" viewBox="0 0 24 24" fill="none" xmlns="http://www.w3.org/2000/svg"><path d="M10.920 2.060 C 10.887 2.068,10.671 2.104,10.440 2.140 C 8.154 2.496,5.969 3.701,4.489 5.420 C 2.781 7.405,1.921 9.800,2.013 12.320 C 2.104 14.806,3.044 17.040,4.765 18.858 C 6.835 21.044,9.653 22.152,12.670 21.965 C 14.497 21.852,16.363 21.179,17.811 20.111 C 19.196 19.089,20.226 17.869,20.961 16.380 C 21.439 15.412,21.738 14.457,21.907 13.360 C 22.006 12.725,22.005 11.287,21.907 10.640 C 21.570 8.422,20.592 6.460,19.071 4.949 C 17.778 3.665,16.043 2.684,14.380 2.299 C 13.523 2.100,13.287 2.075,12.120 2.059 C 11.493 2.051,10.953 2.051,10.920 2.060 M12.709 3.060 C 14.287 3.131,15.995 3.770,17.377 4.807 C 19.343 6.283,20.575 8.406,20.924 10.920 C 20.995 11.431,20.985 12.651,20.904 13.220 C 20.774 14.140,20.524 14.978,20.141 15.786 C 19.924 16.243,19.550 16.905,19.412 17.076 L 19.334 17.171 19.211 16.956 C 18.720 16.096,17.630 15.507,16.253 15.357 C 15.360 15.260,14.425 15.354,13.000 15.684 C 12.008 15.914,12.020 15.914,11.176 15.727 C 9.806 15.422,9.265 15.346,8.440 15.343 C 7.644 15.340,7.337 15.384,6.722 15.589 C 5.875 15.872,5.109 16.426,4.795 16.983 L 4.668 17.207 4.454 16.874 C 3.779 15.821,3.298 14.538,3.099 13.262 C 3.043 12.904,3.034 12.639,3.050 11.802 C 3.067 10.889,3.081 10.725,3.178 10.260 C 3.882 6.900,6.294 4.293,9.583 3.340 C 10.295 3.134,11.286 2.999,11.900 3.025 C 12.076 3.032,12.440 3.048,12.709 3.060 M11.043 4.739 C 9.687 5.098,8.674 6.077,8.417 7.280 C 8.340 7.640,8.346 7.855,8.460 8.829 C 8.689 10.780,8.830 11.701,8.954 12.053 C 9.129 12.550,9.540 13.124,9.977 13.483 C 10.221 13.683,10.729 13.929,11.145 14.048 C 11.547 14.163,12.400 14.175,12.780 14.072 C 13.633 13.840,14.267 13.390,14.720 12.697 C 15.098 12.117,15.172 11.791,15.481 9.320 C 15.659 7.898,15.670 7.616,15.566 7.200 C 15.277 6.050,14.369 5.159,13.092 4.775 C 12.787 4.683,12.652 4.667,12.080 4.654 C 11.477 4.641,11.387 4.648,11.043 4.739 M12.640 5.686 C 13.361 5.826,14.130 6.394,14.432 7.012 C 14.623 7.402,14.649 7.635,14.579 8.315 C 14.486 9.211,14.241 11.106,14.178 11.420 C 14.103 11.788,13.910 12.163,13.649 12.445 C 13.381 12.734,13.141 12.888,12.749 13.019 C 11.884 13.308,11.032 13.119,10.410 12.498 C 10.081 12.170,9.913 11.860,9.822 11.416 C 9.759 11.107,9.514 9.212,9.421 8.315 C 9.351 7.635,9.377 7.409,9.570 7.000 C 9.726 6.670,10.194 6.192,10.560 5.990 C 11.189 5.642,11.887 5.541,12.640 5.686 M9.495 16.420 C 9.844 16.474,10.456 16.595,10.855 16.687 C 11.876 16.922,12.146 16.920,13.210 16.668 C 14.288 16.412,14.608 16.360,15.260 16.333 C 16.185 16.295,16.845 16.407,17.479 16.710 C 18.162 17.036,18.480 17.453,18.480 18.023 C 18.480 18.232,18.480 18.232,18.170 18.523 C 17.359 19.283,16.506 19.846,15.551 20.254 C 13.486 21.136,11.328 21.234,9.220 20.542 C 7.916 20.113,6.850 19.478,5.830 18.523 L 5.520 18.232 5.520 18.021 C 5.520 17.606,5.686 17.314,6.095 17.011 C 6.932 16.389,8.053 16.194,9.495 16.420 " fill="#EC0000" stroke="none" fill-rule="evenodd"></path></svg>