<svg width="24" height="25" viewBox="0 0 24 25" fill="none" xmlns="http://www.w3.org/2000/svg"><path d="M9.580 2.645 C 8.815 2.755,7.904 3.054,7.081 3.464 C 5.795 4.105,5.020 4.706,4.128 5.751 C 2.446 7.725,1.691 10.482,2.143 13.000 C 2.557 15.308,3.871 17.408,5.768 18.793 C 6.616 19.412,8.052 20.039,9.213 20.296 C 10.008 20.473,10.882 20.531,11.131 20.425 C 11.428 20.299,11.550 20.006,11.404 19.772 C 11.305 19.615,11.236 19.595,10.320 19.459 C 9.935 19.402,9.461 19.321,9.266 19.279 C 8.072 19.020,6.747 18.343,5.670 17.441 L 5.280 17.115 5.280 16.927 C 5.281 16.498,5.636 16.073,6.245 15.772 C 6.689 15.552,6.829 15.521,7.520 15.493 C 8.240 15.464,8.843 15.520,9.760 15.703 C 10.656 15.881,11.100 15.910,11.598 15.823 C 12.475 15.670,12.859 15.300,12.566 14.889 C 12.480 14.768,12.460 14.760,12.229 14.760 C 12.094 14.760,11.748 14.798,11.462 14.845 L 10.940 14.930 10.054 14.746 C 8.952 14.517,8.457 14.469,7.580 14.503 C 6.637 14.539,6.374 14.590,5.866 14.835 C 5.428 15.047,5.163 15.238,4.714 15.666 C 4.568 15.806,4.431 15.920,4.410 15.920 C 4.339 15.920,4.248 15.780,4.009 15.300 C 3.317 13.911,3.070 12.911,3.069 11.500 C 3.068 9.812,3.460 8.468,4.343 7.135 C 5.486 5.409,7.381 4.107,9.307 3.724 C 9.985 3.589,10.852 3.540,11.602 3.595 C 12.836 3.686,13.544 3.883,14.640 4.442 C 15.268 4.762,15.749 5.086,16.200 5.493 C 17.042 6.255,17.655 7.034,18.087 7.895 C 18.535 8.785,18.684 9.275,18.879 10.500 C 19.076 11.734,19.113 11.848,19.348 11.946 C 19.533 12.023,19.629 11.996,19.801 11.819 L 19.940 11.675 19.936 11.007 C 19.933 10.449,19.914 10.255,19.824 9.820 C 19.621 8.840,19.209 7.767,18.721 6.948 C 17.517 4.927,15.723 3.565,13.309 2.840 L 12.780 2.681 11.700 2.641 C 10.455 2.595,9.918 2.596,9.580 2.645 M10.120 4.960 C 9.853 5.014,9.176 5.373,8.779 5.671 C 8.186 6.116,7.803 6.771,7.743 7.440 C 7.691 8.024,7.869 9.832,8.085 10.920 C 8.243 11.718,8.500 12.194,9.046 12.699 C 9.580 13.194,9.917 13.348,10.585 13.402 C 11.711 13.494,12.419 13.262,13.080 12.587 C 13.426 12.232,13.624 11.914,13.760 11.490 C 13.912 11.020,13.960 10.740,14.160 9.154 C 14.283 8.186,14.318 7.792,14.298 7.592 C 14.269 7.288,14.102 6.772,13.947 6.509 C 13.568 5.861,12.792 5.255,12.040 5.020 C 11.785 4.940,10.427 4.898,10.120 4.960 M11.326 5.922 C 11.634 5.953,11.801 5.992,11.980 6.076 C 12.470 6.306,12.914 6.716,13.129 7.137 C 13.207 7.290,13.210 7.341,13.185 8.022 C 13.129 9.512,12.911 10.980,12.671 11.479 C 12.455 11.929,11.841 12.350,11.271 12.439 C 10.973 12.486,10.787 12.468,10.400 12.357 C 9.707 12.158,9.267 11.604,9.084 10.698 C 8.900 9.786,8.740 7.552,8.834 7.215 C 8.936 6.852,9.412 6.378,9.941 6.116 C 10.401 5.887,10.643 5.853,11.326 5.922 M16.512 13.641 C 16.014 13.719,15.188 14.137,14.688 14.563 C 13.683 15.419,13.148 16.417,13.042 17.635 C 12.930 18.936,13.372 20.145,14.309 21.095 C 15.016 21.813,15.682 22.186,16.606 22.382 C 18.051 22.688,19.567 22.223,20.643 21.146 C 21.181 20.607,21.561 19.979,21.821 19.200 C 21.931 18.868,21.934 18.839,21.933 18.000 C 21.931 17.140,21.931 17.140,21.803 16.760 C 21.454 15.724,20.840 14.876,20.058 14.355 C 19.654 14.086,18.996 13.767,18.709 13.702 C 18.405 13.633,16.838 13.589,16.512 13.641 M18.648 14.747 C 19.740 15.130,20.619 16.109,20.861 17.216 C 20.954 17.637,20.925 18.516,20.805 18.972 C 20.588 19.793,19.834 20.713,19.073 21.086 C 18.450 21.391,18.308 21.420,17.440 21.420 L 16.660 21.420 16.317 21.276 C 15.477 20.925,14.822 20.326,14.409 19.533 C 14.139 19.014,14.101 18.815,14.103 17.960 C 14.106 17.229,14.107 17.216,14.233 16.882 C 14.480 16.227,14.851 15.711,15.376 15.293 C 15.730 15.011,16.317 14.699,16.600 14.641 C 16.699 14.621,17.122 14.609,17.540 14.615 C 18.270 14.625,18.314 14.630,18.648 14.747 M17.253 15.618 C 17.072 15.697,17.039 15.850,17.012 16.750 L 16.988 17.520 16.804 17.520 C 16.269 17.521,15.307 17.605,15.201 17.659 C 15.030 17.748,14.971 17.962,15.061 18.163 C 15.100 18.248,15.173 18.346,15.224 18.379 C 15.361 18.469,15.786 18.518,16.424 18.519 L 16.989 18.520 17.010 19.230 C 17.041 20.242,17.102 20.424,17.427 20.467 C 17.544 20.482,17.613 20.465,17.720 20.392 C 17.952 20.234,17.974 20.146,17.993 19.295 L 18.009 18.530 18.778 18.513 C 19.446 18.497,19.564 18.485,19.679 18.417 C 19.993 18.234,20.073 17.916,19.854 17.721 C 19.713 17.595,19.600 17.578,18.635 17.536 L 18.011 17.510 17.989 16.725 C 17.977 16.254,17.948 15.886,17.919 15.806 C 17.838 15.586,17.528 15.499,17.253 15.618 " fill="#EC0000" stroke="none" fill-rule="evenodd"></path></svg>