<svg width="24" height="25" viewBox="0 0 24 25" fill="none" xmlns="http://www.w3.org/2000/svg"><path d="M10.935 2.641 C 10.657 2.691,10.206 2.857,9.820 3.050 C 8.877 3.523,8.079 4.301,7.716 5.102 C 7.572 5.420,7.409 6.014,7.376 6.340 C 7.323 6.864,7.800 10.796,8.041 11.828 C 8.263 12.780,8.796 13.590,9.572 14.156 C 10.879 15.110,12.906 15.142,14.307 14.230 C 15.188 13.657,15.750 12.799,16.002 11.640 C 16.233 10.576,16.678 6.742,16.621 6.300 C 16.546 5.715,16.281 4.999,15.984 4.584 C 15.747 4.251,15.209 3.705,14.888 3.468 C 14.604 3.260,13.888 2.899,13.451 2.745 C 13.178 2.648,13.107 2.642,12.151 2.623 C 11.595 2.612,11.048 2.620,10.935 2.641 M13.220 3.718 C 14.200 4.029,15.161 4.935,15.469 5.838 C 15.536 6.036,15.558 6.193,15.559 6.480 C 15.560 7.105,15.364 9.020,15.136 10.600 C 14.915 12.129,14.835 12.327,14.162 13.004 C 13.765 13.402,13.652 13.491,13.360 13.635 C 12.948 13.837,12.710 13.880,11.980 13.879 C 11.326 13.879,11.038 13.823,10.626 13.616 C 10.246 13.425,10.010 13.247,9.731 12.942 C 9.122 12.274,9.008 11.887,8.705 9.440 C 8.479 7.621,8.465 7.461,8.462 6.660 L 8.460 5.900 8.602 5.619 C 8.771 5.285,8.979 4.965,9.186 4.723 C 9.503 4.354,10.197 3.919,10.820 3.699 C 11.092 3.603,11.125 3.600,12.020 3.614 C 12.836 3.627,12.972 3.639,13.220 3.718 M6.340 16.119 C 5.632 16.173,4.999 16.360,4.228 16.745 C 2.955 17.380,2.157 18.355,2.039 19.420 C 1.985 19.899,2.053 20.963,2.154 21.249 C 2.317 21.710,2.680 22.097,3.183 22.345 L 3.478 22.491 9.429 22.508 C 12.702 22.518,16.550 22.510,17.980 22.491 L 20.580 22.457 20.855 22.324 C 21.235 22.140,21.583 21.786,21.785 21.378 L 21.940 21.064 21.954 20.275 C 21.973 19.125,21.885 18.707,21.496 18.116 C 20.895 17.203,19.570 16.419,18.220 16.177 C 17.904 16.121,17.593 16.105,16.740 16.103 C 15.513 16.100,15.657 16.080,13.760 16.500 C 13.023 16.663,12.310 16.808,12.176 16.823 C 11.888 16.854,11.601 16.811,10.640 16.593 C 9.641 16.366,9.039 16.245,8.580 16.178 C 8.082 16.105,6.924 16.075,6.340 16.119 M8.040 17.125 C 8.570 17.176,9.007 17.259,10.480 17.591 C 11.968 17.925,11.976 17.926,13.200 17.642 C 15.266 17.165,15.288 17.161,16.134 17.113 C 17.040 17.061,17.882 17.107,18.420 17.237 C 19.397 17.473,20.431 18.185,20.756 18.846 C 20.929 19.197,20.985 19.699,20.933 20.427 C 20.899 20.897,20.884 20.971,20.788 21.116 C 20.614 21.378,20.535 21.410,19.967 21.445 C 19.688 21.462,15.902 21.489,11.554 21.505 L 3.649 21.533 3.426 21.322 C 3.097 21.011,3.060 20.885,3.060 20.080 C 3.060 19.338,3.100 19.152,3.343 18.772 C 3.768 18.108,4.513 17.593,5.446 17.320 C 6.414 17.036,6.808 17.006,8.040 17.125 " fill="#EC0000" stroke="none" fill-rule="evenodd"></path></svg>