<svg width="24" height="24" viewBox="0 0 24 24" fill="none" xmlns="http://www.w3.org/2000/svg"><path d="M18.287 2.068 C 18.020 2.199,18.021 2.193,18.008 3.666 L 17.995 4.995 16.668 5.008 C 15.442 5.019,15.331 5.026,15.228 5.096 C 14.906 5.314,14.941 5.767,15.291 5.933 C 15.414 5.991,15.599 6.000,16.714 6.000 L 17.995 6.000 18.008 7.332 C 18.021 8.817,18.019 8.804,18.301 8.938 C 18.491 9.028,18.680 8.994,18.833 8.841 C 18.897 8.777,18.961 8.667,18.975 8.597 C 18.989 8.527,19.000 7.915,19.000 7.237 L 19.000 6.005 20.337 5.992 C 21.625 5.980,21.678 5.977,21.787 5.896 C 22.050 5.700,22.051 5.299,21.789 5.112 C 21.662 5.021,21.644 5.020,20.332 5.007 L 19.004 4.994 18.992 3.667 C 18.979 2.191,18.979 2.195,18.702 2.063 C 18.534 1.984,18.455 1.985,18.287 2.068 M9.660 5.097 C 8.825 5.269,8.117 5.644,7.524 6.230 C 6.810 6.936,6.486 7.739,6.537 8.680 C 6.574 9.368,6.902 12.126,7.023 12.761 C 7.286 14.150,8.261 15.187,9.622 15.527 C 10.135 15.655,10.923 15.655,11.397 15.527 C 12.572 15.210,13.458 14.391,13.843 13.269 C 13.967 12.907,14.067 12.256,14.304 10.260 C 14.486 8.731,14.500 8.160,14.368 7.702 C 14.094 6.754,13.379 5.946,12.380 5.458 C 11.826 5.187,11.475 5.093,10.824 5.041 C 10.177 4.990,10.189 4.989,9.660 5.097 M11.177 6.085 C 12.127 6.252,13.032 6.985,13.352 7.847 C 13.518 8.294,13.516 8.351,13.218 10.800 C 13.000 12.587,12.944 12.883,12.755 13.276 C 12.467 13.871,11.892 14.346,11.220 14.543 C 10.899 14.638,10.161 14.637,9.800 14.542 C 8.946 14.317,8.229 13.586,8.060 12.770 C 8.029 12.622,7.949 12.095,7.883 11.600 C 7.520 8.910,7.478 8.287,7.632 7.867 C 7.865 7.233,8.385 6.673,9.060 6.330 C 9.604 6.053,10.444 5.956,11.177 6.085 M5.520 16.459 C 3.722 16.762,2.324 17.815,2.060 19.064 C 1.994 19.376,1.982 20.205,2.038 20.595 C 2.088 20.934,2.250 21.255,2.501 21.506 C 2.768 21.773,3.048 21.913,3.411 21.960 C 3.581 21.982,6.576 21.998,10.688 21.999 C 17.574 22.000,17.680 21.999,17.890 21.920 C 18.158 21.820,18.532 21.520,18.706 21.266 C 18.909 20.971,18.966 20.733,18.989 20.092 C 19.032 18.911,18.857 18.400,18.176 17.713 C 17.294 16.822,16.111 16.400,14.500 16.400 C 13.618 16.400,12.779 16.538,11.545 16.885 C 11.165 16.992,10.862 17.052,10.618 17.067 C 10.277 17.089,10.210 17.078,9.458 16.888 C 8.517 16.650,7.992 16.544,7.348 16.461 C 6.789 16.389,5.940 16.388,5.520 16.459 M6.872 17.403 C 7.487 17.471,8.269 17.624,9.240 17.867 C 10.410 18.160,10.615 18.165,11.520 17.923 C 13.058 17.512,13.700 17.400,14.519 17.400 C 15.872 17.401,16.970 17.802,17.593 18.523 C 17.910 18.890,18.026 19.361,17.986 20.116 C 17.965 20.519,17.950 20.590,17.860 20.720 C 17.665 21.001,18.261 20.980,10.644 20.980 C 6.847 20.980,3.636 20.965,3.508 20.947 C 3.297 20.917,3.265 20.898,3.156 20.748 L 3.035 20.582 3.048 19.837 L 3.060 19.093 3.217 18.856 C 3.420 18.549,3.770 18.208,4.065 18.030 C 4.570 17.724,5.309 17.481,5.967 17.404 C 6.388 17.355,6.441 17.355,6.872 17.403 " fill="#EC0000" stroke="none" fill-rule="evenodd"></path></svg>