<svg width="24" height="25" viewBox="0 0 24 25" fill="none" xmlns="http://www.w3.org/2000/svg"><path d="M19.360 2.565 C 19.201 2.628,19.043 2.803,19.016 2.945 C 18.986 3.107,19.015 3.150,19.645 3.867 C 19.906 4.165,20.111 4.422,20.101 4.439 C 20.066 4.495,19.555 4.519,17.460 4.562 C 16.316 4.586,15.323 4.623,15.254 4.644 C 15.135 4.681,15.000 4.870,15.000 5.000 C 15.000 5.108,15.129 5.308,15.242 5.375 C 15.406 5.472,16.114 5.511,18.350 5.545 C 19.323 5.561,20.120 5.588,20.120 5.607 C 20.120 5.626,19.946 5.825,19.734 6.050 C 19.253 6.562,19.000 6.879,19.000 6.972 C 19.000 7.181,19.252 7.440,19.455 7.440 C 19.688 7.440,19.870 7.285,21.310 5.862 L 22.000 5.181 22.000 4.994 L 22.000 4.806 20.924 3.757 C 19.948 2.804,19.615 2.516,19.500 2.523 C 19.478 2.524,19.415 2.543,19.360 2.565 M17.238 6.634 C 16.975 6.802,15.200 8.625,15.082 8.847 L 14.984 9.032 15.086 9.186 C 15.387 9.640,16.994 11.221,17.343 11.406 L 17.509 11.494 17.664 11.415 C 17.848 11.322,18.024 11.020,17.979 10.877 C 17.964 10.829,17.674 10.506,17.334 10.159 L 16.717 9.529 19.109 9.512 C 21.760 9.494,21.715 9.498,21.881 9.232 C 21.987 9.064,21.966 8.847,21.825 8.663 L 21.723 8.529 19.304 8.514 C 17.974 8.505,16.873 8.486,16.857 8.470 C 16.820 8.433,16.951 8.265,17.396 7.780 C 17.772 7.369,18.000 7.066,18.000 6.975 C 18.000 6.900,17.767 6.646,17.636 6.578 C 17.481 6.498,17.441 6.504,17.238 6.634 M8.367 7.699 C 7.325 8.063,6.472 8.837,6.097 9.759 C 5.985 10.036,5.976 10.291,6.040 11.360 C 6.116 12.602,6.278 13.822,6.462 14.520 C 6.517 14.729,6.645 15.068,6.747 15.274 C 6.897 15.578,6.993 15.709,7.259 15.974 C 7.439 16.153,7.702 16.368,7.843 16.451 C 8.143 16.627,8.714 16.820,9.129 16.884 C 10.108 17.037,11.299 16.562,11.936 15.765 C 12.458 15.112,12.580 14.692,12.837 12.640 C 13.076 10.726,13.079 10.291,12.853 9.727 C 12.531 8.919,11.963 8.326,11.090 7.885 C 10.677 7.676,10.429 7.634,9.500 7.615 C 8.679 7.597,8.653 7.599,8.367 7.699 M10.368 8.678 C 10.889 8.841,11.485 9.334,11.800 9.862 C 11.934 10.087,11.941 10.115,11.953 10.543 C 11.968 11.022,11.896 11.879,11.739 13.104 C 11.565 14.468,11.462 14.778,11.035 15.222 C 10.560 15.717,10.172 15.883,9.493 15.883 C 8.685 15.883,8.127 15.582,7.709 14.919 C 7.459 14.524,7.405 14.282,7.201 12.640 C 7.047 11.395,6.996 10.671,7.041 10.352 C 7.125 9.758,7.592 9.181,8.246 8.865 C 8.455 8.764,8.752 8.657,8.920 8.623 C 9.329 8.540,10.009 8.566,10.368 8.678 M5.460 17.503 C 4.285 17.660,3.413 18.056,2.740 18.737 C 2.141 19.342,2.004 19.740,2.001 20.884 L 2.000 21.348 2.158 21.592 C 2.384 21.941,2.758 22.297,2.989 22.382 C 3.156 22.443,3.426 22.455,5.160 22.482 C 7.968 22.525,14.548 22.525,15.254 22.481 C 15.778 22.449,15.876 22.432,16.072 22.336 C 16.361 22.195,16.756 21.797,16.900 21.504 L 17.012 21.274 16.988 20.646 C 16.959 19.909,16.915 19.666,16.753 19.343 C 16.385 18.609,15.615 18.022,14.601 17.702 C 13.985 17.508,12.605 17.469,11.749 17.621 C 11.556 17.655,11.061 17.757,10.649 17.848 C 9.607 18.077,9.382 18.075,8.200 17.829 C 7.705 17.725,7.111 17.614,6.880 17.582 C 6.429 17.520,5.656 17.477,5.460 17.503 M6.860 18.583 C 7.080 18.616,7.629 18.727,8.080 18.831 C 8.857 19.009,8.931 19.019,9.480 19.018 C 10.047 19.017,10.081 19.012,11.035 18.784 L 12.010 18.552 13.075 18.569 C 14.122 18.586,14.145 18.588,14.440 18.698 C 14.863 18.855,15.246 19.088,15.516 19.353 C 15.886 19.715,15.900 19.757,15.900 20.480 C 15.899 21.154,15.884 21.253,15.758 21.414 L 15.674 21.520 10.627 21.519 C 5.619 21.517,3.519 21.485,3.312 21.405 C 3.124 21.333,3.100 21.236,3.100 20.540 C 3.100 19.802,3.111 19.768,3.456 19.430 C 3.887 19.007,4.723 18.614,5.381 18.523 C 5.714 18.478,6.311 18.502,6.860 18.583 " fill="#EC0000" stroke="none" fill-rule="evenodd"></path></svg>