<svg width="24" height="24" viewBox="0 0 24 24" fill="none" xmlns="http://www.w3.org/2000/svg"><path d="M18.300 2.078 C 18.201 2.118,17.972 2.391,16.650 4.040 C 16.077 4.755,15.556 5.401,15.492 5.476 L 15.375 5.613 15.171 5.196 C 14.761 4.362,14.049 3.714,13.120 3.331 C 12.526 3.086,12.377 3.061,11.480 3.062 C 10.699 3.063,10.643 3.068,10.300 3.174 C 9.566 3.400,9.006 3.742,8.460 4.299 C 8.107 4.659,7.900 4.980,7.719 5.450 C 7.466 6.104,7.468 6.420,7.743 8.658 C 8.026 10.970,8.066 11.169,8.361 11.760 C 8.570 12.178,8.843 12.526,9.187 12.813 C 9.348 12.948,9.480 13.070,9.480 13.085 C 9.480 13.111,8.771 14.055,8.571 14.296 L 8.475 14.413 7.547 14.418 C 6.730 14.422,6.573 14.434,6.221 14.516 C 5.034 14.791,3.970 15.420,3.485 16.131 C 3.122 16.664,3.000 17.112,3.001 17.908 C 3.002 18.502,3.072 18.890,3.226 19.155 C 3.366 19.395,3.694 19.714,3.927 19.838 L 4.111 19.935 3.803 20.318 C 3.004 21.308,2.927 21.454,3.059 21.732 C 3.137 21.897,3.323 22.000,3.541 22.000 C 3.662 22.000,3.718 21.971,3.832 21.850 C 4.038 21.632,4.927 20.519,7.625 17.100 C 8.944 15.428,11.778 11.837,13.924 9.120 C 19.355 2.240,19.000 2.703,19.000 2.516 C 19.000 2.385,18.849 2.157,18.719 2.091 C 18.608 2.035,18.420 2.029,18.300 2.078 M12.331 4.117 C 13.351 4.380,14.233 5.221,14.421 6.110 C 14.453 6.258,14.479 6.473,14.479 6.588 L 14.480 6.795 12.605 9.173 C 10.069 12.387,10.190 12.239,10.108 12.240 C 10.068 12.240,9.896 12.101,9.727 11.930 C 9.387 11.588,9.161 11.209,9.062 10.815 C 9.007 10.595,8.656 7.877,8.557 6.894 C 8.484 6.177,8.600 5.726,8.993 5.200 C 9.419 4.631,10.234 4.165,11.020 4.042 C 11.361 3.988,11.967 4.023,12.331 4.117 M14.940 9.449 C 14.183 10.390,14.009 10.643,13.886 10.972 C 13.692 11.494,13.416 11.864,13.000 12.160 C 12.535 12.491,12.502 12.527,11.762 13.475 L 11.626 13.650 11.883 13.620 C 13.082 13.483,14.144 12.762,14.653 11.740 C 14.860 11.324,14.950 10.985,15.057 10.225 C 15.185 9.312,15.197 9.200,15.166 9.200 C 15.152 9.201,15.050 9.313,14.940 9.449 M14.920 14.407 C 14.319 14.472,13.603 14.611,12.840 14.808 C 11.476 15.162,11.547 15.154,10.924 15.011 L 10.629 14.943 10.489 15.101 C 10.221 15.406,9.997 15.733,10.032 15.768 C 10.095 15.831,10.874 16.037,11.205 16.078 C 11.615 16.130,11.892 16.091,12.754 15.863 C 14.155 15.492,14.704 15.400,15.519 15.400 C 16.872 15.401,17.970 15.802,18.593 16.523 C 18.910 16.890,19.026 17.361,18.986 18.116 C 18.965 18.515,18.950 18.590,18.862 18.716 C 18.663 19.003,19.173 18.979,12.989 18.991 L 7.398 19.003 7.040 19.451 C 6.843 19.698,6.681 19.922,6.681 19.950 C 6.680 19.990,7.906 20.000,12.678 20.000 C 18.573 20.000,18.681 19.999,18.890 19.920 C 19.158 19.820,19.532 19.520,19.706 19.266 C 19.909 18.971,19.966 18.733,19.989 18.092 C 20.032 16.919,19.842 16.363,19.175 15.710 C 18.788 15.331,18.523 15.143,18.058 14.915 C 17.262 14.527,15.876 14.302,14.920 14.407 M7.640 15.405 C 7.640 15.449,7.165 16.065,5.626 18.020 C 4.958 18.867,4.855 18.982,4.745 18.993 C 4.540 19.015,4.339 18.931,4.182 18.757 L 4.035 18.594 4.048 17.844 L 4.060 17.093 4.217 16.856 C 4.645 16.210,5.383 15.745,6.342 15.517 C 6.890 15.387,7.640 15.322,7.640 15.405 " fill="#EC0000" stroke="none" fill-rule="evenodd"></path></svg>