<svg width="24" height="24" viewBox="0 0 24 24" fill="none" xmlns="http://www.w3.org/2000/svg"><path d="M17.433 2.040 C 16.843 2.134,16.221 2.380,15.731 2.712 C 14.955 3.240,14.394 4.037,14.130 4.989 C 14.034 5.337,14.022 5.449,14.022 6.000 C 14.022 6.553,14.034 6.663,14.132 7.017 C 14.352 7.812,14.816 8.546,15.420 9.052 C 17.514 10.810,20.708 10.007,21.716 7.469 C 22.400 5.747,21.790 3.746,20.265 2.710 C 19.917 2.473,19.342 2.214,18.958 2.120 C 18.572 2.026,17.783 1.984,17.433 2.040 M18.709 2.982 C 19.725 3.212,20.606 4.011,20.937 5.004 C 21.218 5.850,21.119 6.817,20.671 7.580 C 20.465 7.932,19.907 8.490,19.560 8.691 C 19.017 9.006,18.250 9.168,17.670 9.090 C 17.236 9.032,16.762 8.878,16.440 8.691 C 16.093 8.490,15.535 7.932,15.329 7.580 C 14.762 6.613,14.762 5.387,15.329 4.420 C 15.540 4.060,16.060 3.540,16.420 3.329 C 17.106 2.927,17.918 2.803,18.709 2.982 M16.468 4.401 C 16.329 4.510,16.265 4.714,16.321 4.864 C 16.345 4.928,16.592 5.209,16.871 5.489 L 17.378 5.999 16.854 6.529 C 16.528 6.861,16.321 7.103,16.304 7.173 C 16.240 7.438,16.562 7.760,16.827 7.696 C 16.897 7.679,17.139 7.472,17.470 7.146 L 18.000 6.624 18.530 7.146 C 18.861 7.472,19.103 7.679,19.173 7.696 C 19.438 7.760,19.760 7.438,19.696 7.173 C 19.679 7.103,19.472 6.861,19.146 6.529 L 18.622 5.999 19.129 5.489 C 19.679 4.937,19.748 4.827,19.678 4.615 C 19.615 4.422,19.466 4.320,19.248 4.320 C 19.069 4.320,19.060 4.327,18.533 4.848 L 18.000 5.376 17.467 4.848 C 16.940 4.327,16.931 4.320,16.752 4.320 C 16.631 4.320,16.537 4.347,16.468 4.401 M9.060 8.024 C 7.772 8.215,6.785 8.854,6.295 9.815 C 6.121 10.155,6.000 10.615,6.000 10.936 C 6.000 11.070,6.099 11.958,6.219 12.909 C 6.458 14.801,6.509 15.028,6.809 15.540 C 7.003 15.872,7.490 16.365,7.812 16.555 C 8.870 17.180,10.366 17.133,11.349 16.443 C 11.670 16.217,12.001 15.865,12.195 15.543 C 12.477 15.076,12.541 14.783,12.780 12.882 C 12.901 11.916,13.000 11.029,13.000 10.909 C 13.000 10.615,12.875 10.147,12.706 9.813 C 12.184 8.775,10.967 8.064,9.640 8.021 C 9.387 8.013,9.126 8.014,9.060 8.024 M10.220 8.940 C 11.168 9.158,11.952 9.906,12.088 10.724 C 12.125 10.950,12.107 11.172,11.924 12.640 C 11.811 13.553,11.690 14.417,11.656 14.560 C 11.389 15.681,10.210 16.360,8.984 16.100 C 8.419 15.981,7.932 15.668,7.648 15.243 C 7.362 14.815,7.334 14.690,7.094 12.803 C 6.895 11.246,6.876 11.029,6.911 10.768 C 7.037 9.846,7.961 9.034,9.059 8.879 C 9.356 8.838,9.899 8.866,10.220 8.940 M5.320 17.044 C 3.785 17.241,2.548 18.042,2.131 19.111 C 2.036 19.353,2.024 19.446,2.009 20.033 C 1.993 20.621,2.000 20.712,2.079 20.956 C 2.184 21.283,2.396 21.576,2.655 21.750 C 3.051 22.016,2.615 22.000,9.495 22.000 C 16.414 22.000,15.985 22.016,16.370 21.737 C 16.618 21.557,16.815 21.280,16.918 20.969 C 17.022 20.651,17.034 19.728,16.938 19.324 C 16.679 18.223,15.570 17.357,14.089 17.099 C 13.020 16.913,12.023 17.010,10.400 17.461 C 10.032 17.563,9.643 17.646,9.520 17.649 C 9.372 17.653,9.104 17.601,8.700 17.489 C 8.071 17.316,7.294 17.155,6.620 17.059 C 6.185 16.996,5.728 16.991,5.320 17.044 M6.513 17.940 C 7.121 18.027,8.032 18.218,8.591 18.377 C 9.427 18.614,9.574 18.610,10.630 18.315 C 11.894 17.962,12.742 17.845,13.482 17.918 C 14.438 18.013,15.140 18.292,15.610 18.762 C 16.018 19.169,16.090 19.357,16.110 20.060 C 16.126 20.588,16.121 20.630,16.032 20.796 C 15.977 20.900,15.881 21.002,15.800 21.046 C 15.667 21.117,15.425 21.120,9.500 21.120 C 3.575 21.120,3.333 21.117,3.200 21.046 C 3.119 21.002,3.025 20.901,2.971 20.799 C 2.893 20.651,2.880 20.568,2.880 20.196 C 2.880 19.625,2.931 19.407,3.137 19.107 C 3.555 18.494,4.474 18.029,5.476 17.923 C 5.935 17.874,6.064 17.876,6.513 17.940 " fill="#EC0000" stroke="none" fill-rule="evenodd"></path></svg>