<svg width="24" height="24" viewBox="0 0 24 24" fill="none" xmlns="http://www.w3.org/2000/svg"><path d="M7.668 3.082 C 7.585 3.127,7.495 3.212,7.468 3.272 C 7.399 3.427,7.399 9.132,7.468 9.288 C 7.531 9.428,7.668 9.515,7.882 9.552 C 8.031 9.577,8.060 9.598,8.085 9.701 C 8.102 9.766,8.199 10.513,8.300 11.360 C 8.520 13.191,8.570 13.490,8.707 13.835 C 9.080 14.765,9.800 15.442,10.758 15.762 C 11.254 15.927,12.024 15.971,12.560 15.863 C 13.427 15.690,14.186 15.173,14.675 14.423 C 14.925 14.041,15.066 13.685,15.139 13.249 C 15.193 12.930,15.447 11.013,15.569 10.000 L 15.620 9.580 15.740 9.568 C 15.938 9.549,16.071 9.479,16.180 9.337 L 16.283 9.201 16.271 6.269 C 16.259 2.999,16.277 3.204,15.979 3.062 C 15.726 2.942,15.622 2.992,15.176 3.450 C 14.957 3.676,14.545 4.117,14.260 4.430 C 13.976 4.744,13.733 4.999,13.722 4.999 C 13.710 4.998,13.543 4.804,13.350 4.569 C 13.158 4.333,12.825 3.925,12.610 3.661 C 11.971 2.878,11.856 2.842,11.421 3.290 C 11.266 3.450,10.875 3.908,10.553 4.309 L 9.967 5.038 9.307 4.309 C 8.945 3.908,8.523 3.458,8.372 3.309 C 8.050 2.992,7.914 2.949,7.668 3.082 M12.681 5.340 C 13.389 6.224,13.547 6.362,13.784 6.302 C 13.916 6.270,14.239 5.963,14.790 5.351 C 15.023 5.092,15.228 4.880,15.247 4.880 C 15.265 4.880,15.280 5.708,15.280 6.720 L 15.280 8.560 11.840 8.560 L 8.400 8.560 8.405 6.830 C 8.407 5.878,8.421 5.047,8.435 4.983 C 8.459 4.868,8.474 4.880,9.061 5.523 C 9.736 6.260,9.873 6.359,10.121 6.284 C 10.250 6.246,10.353 6.142,10.767 5.632 C 11.038 5.298,11.391 4.866,11.551 4.672 L 11.843 4.319 12.054 4.569 C 12.169 4.707,12.452 5.054,12.681 5.340 M14.584 9.710 C 14.571 9.793,14.469 10.589,14.358 11.480 C 14.246 12.371,14.137 13.180,14.116 13.278 C 13.980 13.885,13.356 14.544,12.681 14.793 C 12.368 14.908,11.710 14.953,11.340 14.885 C 10.713 14.770,10.053 14.274,9.746 13.687 C 9.616 13.440,9.581 13.315,9.518 12.887 C 9.448 12.406,9.195 10.383,9.139 9.853 L 9.113 9.606 9.226 9.589 C 9.289 9.580,10.525 9.569,11.974 9.566 L 14.607 9.560 14.584 9.710 M7.135 17.141 C 5.919 17.363,4.929 17.904,4.412 18.629 C 4.121 19.037,4.033 19.323,4.010 19.940 C 3.988 20.525,4.043 20.834,4.223 21.142 C 4.357 21.370,4.668 21.649,4.935 21.779 L 5.145 21.882 11.842 21.871 L 18.540 21.860 18.769 21.753 C 19.248 21.528,19.568 21.097,19.645 20.575 C 19.707 20.154,19.651 19.395,19.537 19.089 C 19.210 18.216,18.297 17.544,16.992 17.216 C 16.649 17.130,16.455 17.109,15.837 17.091 C 14.814 17.062,14.192 17.137,12.900 17.445 C 11.979 17.665,11.698 17.681,11.159 17.542 C 10.567 17.389,9.659 17.209,9.128 17.139 C 8.582 17.068,7.530 17.069,7.135 17.141 M9.040 18.143 C 9.502 18.200,10.630 18.424,11.040 18.541 C 11.352 18.630,11.889 18.658,12.237 18.603 C 12.401 18.578,12.833 18.486,13.197 18.400 C 14.397 18.115,15.187 18.026,15.995 18.085 C 17.218 18.173,18.202 18.653,18.544 19.327 C 18.631 19.500,18.640 19.566,18.640 20.054 C 18.640 20.587,18.639 20.593,18.528 20.711 L 18.417 20.831 17.638 20.859 C 17.210 20.874,14.267 20.881,11.098 20.873 C 5.627 20.861,5.331 20.856,5.226 20.788 C 5.065 20.682,5.030 20.552,5.025 20.040 C 5.020 19.623,5.029 19.561,5.120 19.383 C 5.319 18.991,5.763 18.646,6.400 18.388 C 7.206 18.061,7.875 17.999,9.040 18.143 " fill="#EC0000" stroke="none" fill-rule="evenodd"></path></svg>