<svg width="24" height="24" viewBox="0 0 24 24" fill="none" xmlns="http://www.w3.org/2000/svg"><path d="M6.340 3.576 C 5.593 3.722,4.915 4.118,4.455 4.675 C 4.202 4.981,4.057 5.266,3.953 5.657 C 3.858 6.017,3.860 6.133,3.982 7.159 C 4.169 8.735,4.266 9.332,4.383 9.623 C 4.665 10.330,5.078 10.795,5.686 11.091 C 6.190 11.336,6.397 11.380,7.040 11.379 C 7.540 11.378,7.606 11.368,7.930 11.253 C 8.123 11.185,8.382 11.069,8.506 10.995 C 8.994 10.703,9.452 10.129,9.635 9.579 C 9.756 9.215,10.120 6.634,10.120 6.141 C 10.120 5.705,9.881 5.067,9.592 4.728 C 8.931 3.953,8.140 3.572,7.120 3.538 C 6.794 3.527,6.523 3.541,6.340 3.576 M16.480 3.558 C 16.150 3.603,15.820 3.709,15.483 3.879 C 14.491 4.377,13.920 5.211,13.920 6.158 C 13.920 6.769,14.226 9.081,14.365 9.520 C 14.503 9.959,14.675 10.238,15.019 10.582 C 15.528 11.092,16.112 11.348,16.862 11.389 C 17.747 11.437,18.525 11.135,19.093 10.520 C 19.628 9.943,19.753 9.528,19.998 7.520 C 20.160 6.192,20.167 6.039,20.079 5.692 C 19.868 4.861,19.360 4.270,18.500 3.855 C 18.302 3.759,18.032 3.655,17.900 3.624 C 17.611 3.554,16.785 3.516,16.480 3.558 M7.805 4.648 C 8.385 4.863,8.693 5.117,8.918 5.566 C 9.119 5.966,9.123 6.095,8.978 7.319 C 8.808 8.755,8.732 9.190,8.603 9.467 C 8.260 10.199,7.407 10.548,6.478 10.337 C 5.989 10.226,5.575 9.874,5.361 9.391 C 5.268 9.181,5.204 8.800,5.038 7.460 C 4.887 6.243,4.889 5.923,5.055 5.586 C 5.276 5.136,5.822 4.724,6.386 4.581 C 6.748 4.489,7.466 4.523,7.805 4.648 M17.820 4.640 C 18.132 4.758,18.560 5.041,18.744 5.252 C 18.824 5.345,18.937 5.519,18.994 5.640 C 19.086 5.834,19.097 5.907,19.093 6.260 C 19.088 6.655,18.886 8.383,18.778 8.954 C 18.604 9.870,17.960 10.400,17.020 10.400 C 16.080 10.400,15.419 9.849,15.261 8.935 C 15.139 8.233,14.954 6.635,14.950 6.260 C 14.948 5.967,14.965 5.818,15.015 5.702 C 15.233 5.194,15.877 4.681,16.451 4.560 C 16.544 4.540,16.836 4.530,17.100 4.537 C 17.477 4.547,17.631 4.569,17.820 4.640 M4.860 12.483 C 3.999 12.597,3.237 13.033,2.910 13.600 C 2.676 14.005,2.629 14.237,2.609 15.073 C 2.572 16.625,2.754 17.633,3.280 18.793 C 3.386 19.028,3.461 19.231,3.447 19.245 C 3.432 19.259,3.204 19.319,2.940 19.379 C 2.299 19.525,2.152 19.592,2.063 19.778 C 2.016 19.878,2.001 19.972,2.018 20.061 C 2.047 20.219,2.228 20.425,2.368 20.461 C 2.426 20.475,2.935 20.393,3.584 20.265 C 5.282 19.930,6.147 19.800,7.580 19.662 C 12.154 19.224,16.875 19.484,20.991 20.402 C 21.584 20.533,21.676 20.523,21.880 20.302 C 22.081 20.084,21.980 19.694,21.692 19.574 C 21.546 19.513,21.112 19.401,20.713 19.321 L 20.487 19.276 20.700 18.828 C 21.241 17.692,21.427 16.704,21.389 15.149 C 21.361 13.965,21.281 13.710,20.777 13.214 C 20.603 13.043,20.424 12.917,20.193 12.804 C 19.799 12.611,19.535 12.539,18.986 12.475 C 18.585 12.429,18.573 12.430,18.040 12.561 C 17.240 12.758,16.827 12.766,16.100 12.597 C 15.186 12.385,14.574 12.435,13.860 12.781 C 13.281 13.061,12.954 13.404,12.752 13.943 C 12.664 14.175,12.662 14.224,12.649 16.310 L 12.636 18.440 12.018 18.440 L 11.400 18.440 11.397 16.830 C 11.396 15.945,11.381 14.968,11.364 14.660 C 11.335 14.131,11.325 14.083,11.187 13.785 C 10.834 13.025,10.050 12.563,8.940 12.460 C 8.656 12.434,8.578 12.446,7.720 12.643 C 7.171 12.769,6.808 12.761,6.160 12.611 C 5.515 12.461,5.234 12.434,4.860 12.483 M5.958 13.579 C 6.888 13.794,7.181 13.793,8.080 13.571 C 9.062 13.329,9.891 13.536,10.227 14.109 L 10.340 14.300 10.354 16.385 L 10.367 18.469 9.834 18.497 C 8.373 18.571,7.066 18.697,5.588 18.906 C 4.975 18.993,4.542 19.038,4.522 19.016 C 4.459 18.950,3.969 17.865,3.882 17.600 C 3.721 17.106,3.674 16.704,3.651 15.613 C 3.627 14.474,3.647 14.293,3.827 14.031 C 4.071 13.677,4.729 13.420,5.290 13.462 C 5.417 13.471,5.717 13.524,5.958 13.579 M15.740 13.543 C 16.705 13.748,16.908 13.772,17.280 13.721 C 17.467 13.695,17.869 13.619,18.174 13.551 L 18.729 13.428 19.099 13.489 C 19.716 13.590,20.050 13.784,20.262 14.167 L 20.380 14.380 20.378 15.340 C 20.377 16.810,20.249 17.469,19.781 18.420 C 19.640 18.706,19.500 18.971,19.469 19.009 C 19.416 19.074,19.388 19.073,18.956 18.999 C 17.806 18.801,15.784 18.591,14.124 18.497 L 13.628 18.469 13.650 16.395 C 13.672 14.368,13.674 14.317,13.760 14.140 C 13.912 13.826,14.268 13.597,14.758 13.500 C 15.131 13.425,15.204 13.429,15.740 13.543 " fill="#EC0000" stroke="none" fill-rule="evenodd"></path></svg>