<svg width="24" height="25" viewBox="0 0 24 25" fill="none" xmlns="http://www.w3.org/2000/svg"><path d="M8.180 3.066 C 7.694 3.143,7.163 3.364,6.658 3.700 C 5.928 4.186,5.391 4.982,5.314 5.692 C 5.217 6.591,5.554 9.545,5.855 10.427 C 6.000 10.851,6.137 11.059,6.539 11.465 C 7.185 12.119,7.573 12.300,8.456 12.359 C 9.166 12.407,9.555 12.362,9.931 12.188 C 10.757 11.806,11.387 11.179,11.640 10.487 C 11.832 9.959,12.003 8.930,12.179 7.231 C 12.258 6.466,12.258 5.806,12.178 5.498 C 11.931 4.550,11.065 3.637,10.090 3.298 C 9.638 3.141,8.547 3.008,8.180 3.066 M9.931 4.328 C 10.254 4.494,10.397 4.598,10.638 4.841 C 10.804 5.008,10.992 5.241,11.056 5.359 L 11.171 5.571 11.148 6.476 C 11.116 7.752,10.913 9.423,10.719 10.007 C 10.484 10.714,9.912 11.210,9.129 11.384 C 8.771 11.463,8.542 11.445,8.093 11.302 C 7.534 11.125,7.040 10.664,6.843 10.139 C 6.695 9.744,6.505 8.479,6.382 7.080 C 6.270 5.810,6.297 5.590,6.619 5.139 C 6.904 4.739,7.510 4.281,7.914 4.159 C 7.972 4.141,8.359 4.125,8.773 4.123 L 9.527 4.120 9.931 4.328 M15.918 6.095 C 15.818 6.124,15.591 6.223,15.414 6.315 C 14.586 6.746,14.122 7.369,13.995 8.216 C 13.945 8.556,14.012 9.430,14.180 10.624 C 14.341 11.773,14.455 12.121,14.814 12.554 C 15.360 13.215,16.047 13.517,16.880 13.464 C 17.610 13.417,17.983 13.256,18.459 12.780 C 18.835 12.405,18.996 12.113,19.141 11.542 C 19.340 10.756,19.495 9.304,19.473 8.417 L 19.460 7.853 19.285 7.500 C 19.070 7.068,18.725 6.708,18.258 6.430 C 17.719 6.110,17.562 6.070,16.780 6.055 C 16.302 6.046,16.046 6.058,15.918 6.095 M17.080 7.043 C 17.608 7.128,18.189 7.538,18.397 7.972 C 18.488 8.161,18.488 8.170,18.442 8.832 C 18.345 10.240,18.182 11.357,18.022 11.706 C 17.905 11.963,17.677 12.194,17.418 12.319 C 17.152 12.448,16.520 12.481,16.185 12.383 C 15.867 12.291,15.515 11.946,15.423 11.638 C 15.269 11.124,15.119 10.024,15.036 8.811 L 14.989 8.121 15.125 7.896 C 15.199 7.772,15.355 7.585,15.471 7.481 C 15.930 7.070,16.422 6.936,17.080 7.043 M11.340 13.044 C 11.208 13.065,10.650 13.166,10.100 13.267 C 8.805 13.505,8.655 13.506,7.480 13.286 C 6.418 13.086,5.714 13.022,4.920 13.052 C 4.280 13.076,4.067 13.125,3.620 13.350 C 2.617 13.853,2.127 14.462,2.038 15.314 C 1.995 15.736,2.054 17.024,2.141 17.560 C 2.264 18.310,2.480 19.008,2.829 19.780 C 3.229 20.665,3.250 20.717,3.227 20.777 C 3.214 20.810,3.072 20.876,2.912 20.924 C 2.542 21.035,2.255 21.178,2.201 21.277 C 2.179 21.320,2.160 21.426,2.160 21.513 C 2.160 21.645,2.184 21.693,2.301 21.796 C 2.416 21.897,2.478 21.920,2.629 21.920 C 2.731 21.920,3.617 21.786,4.597 21.622 C 5.578 21.458,6.902 21.252,7.540 21.165 L 8.700 21.006 11.000 20.984 C 15.094 20.946,16.128 21.036,20.189 21.783 C 21.311 21.990,21.498 21.995,21.679 21.821 C 21.818 21.688,21.854 21.563,21.798 21.413 C 21.721 21.210,21.568 21.095,21.217 20.976 C 21.030 20.912,20.880 20.838,20.880 20.810 C 20.880 20.782,20.990 20.539,21.125 20.269 C 21.439 19.644,21.612 19.194,21.761 18.617 C 22.078 17.386,22.062 16.359,21.715 15.670 C 21.550 15.342,21.069 14.864,20.720 14.680 L 20.460 14.543 19.480 14.542 C 18.723 14.540,18.386 14.557,18.000 14.614 C 17.286 14.721,16.348 14.717,15.826 14.605 L 15.432 14.521 14.982 14.090 C 14.380 13.514,14.029 13.312,13.290 13.114 C 13.046 13.048,12.832 13.028,12.280 13.018 C 11.895 13.011,11.472 13.022,11.340 13.044 M13.000 14.104 C 13.676 14.208,14.089 14.467,14.329 14.939 L 14.450 15.178 14.429 16.139 C 14.397 17.638,14.240 18.367,13.696 19.559 L 13.555 19.867 12.307 19.895 C 9.384 19.959,8.050 20.066,5.488 20.442 C 5.195 20.485,4.860 20.520,4.742 20.520 C 4.546 20.520,4.518 20.508,4.390 20.366 C 4.087 20.030,3.766 19.487,3.547 18.938 C 3.371 18.496,3.262 18.048,3.184 17.440 C 3.103 16.819,3.027 15.507,3.058 15.296 C 3.102 15.009,3.348 14.681,3.693 14.450 C 4.140 14.151,4.379 14.070,4.880 14.050 C 5.614 14.020,6.458 14.099,7.380 14.284 C 8.119 14.433,8.285 14.453,8.760 14.453 C 9.244 14.453,9.397 14.434,10.237 14.265 C 11.615 13.989,12.072 13.962,13.000 14.104 M20.010 15.527 C 20.260 15.581,20.632 15.825,20.770 16.026 C 20.872 16.173,20.883 16.226,20.905 16.683 C 20.936 17.301,20.868 18.081,20.738 18.593 C 20.619 19.064,20.258 19.809,19.931 20.260 C 19.703 20.575,19.696 20.580,19.511 20.592 C 19.407 20.599,18.975 20.550,18.551 20.484 C 17.570 20.330,16.225 20.144,15.485 20.060 C 15.169 20.024,14.868 19.978,14.817 19.959 C 14.709 19.918,14.698 19.970,14.991 19.100 C 15.247 18.339,15.414 17.430,15.525 16.188 L 15.575 15.636 15.797 15.665 C 16.231 15.720,17.596 15.694,18.120 15.621 C 19.195 15.470,19.348 15.454,19.580 15.469 C 19.712 15.478,19.905 15.504,20.010 15.527 " fill="#EC0000" stroke="none" fill-rule="evenodd"></path></svg>