<svg width="24" height="25" viewBox="0 0 24 25" fill="none" xmlns="http://www.w3.org/2000/svg"><path d="M11.435 3.598 C 10.877 3.701,10.052 4.306,9.802 4.796 C 9.693 5.010,9.602 5.429,9.601 5.720 C 9.599 6.269,9.822 7.741,9.975 8.194 C 10.281 9.099,11.367 9.762,12.290 9.608 C 12.952 9.498,13.697 8.957,13.957 8.398 C 14.151 7.980,14.348 6.825,14.425 5.654 L 14.451 5.251 14.296 4.955 C 14.187 4.750,14.037 4.556,13.800 4.319 C 13.443 3.961,13.153 3.779,12.760 3.663 C 12.504 3.588,11.704 3.548,11.435 3.598 M12.340 4.600 C 12.710 4.695,12.934 4.818,13.129 5.033 C 13.341 5.268,13.375 5.417,13.347 5.978 C 13.319 6.531,13.158 7.597,13.054 7.917 C 12.961 8.203,12.763 8.404,12.460 8.521 C 11.820 8.768,11.192 8.511,10.968 7.911 C 10.809 7.486,10.604 5.897,10.661 5.521 C 10.728 5.074,11.082 4.732,11.640 4.577 C 11.894 4.506,11.986 4.509,12.340 4.600 M5.028 4.657 C 4.362 4.931,3.748 5.508,3.572 6.026 C 3.438 6.419,3.561 7.967,3.802 8.939 C 3.919 9.409,4.021 9.586,4.370 9.928 C 4.888 10.438,5.298 10.586,6.087 10.549 C 6.480 10.531,6.538 10.518,6.818 10.380 C 7.227 10.178,7.638 9.795,7.799 9.467 C 8.003 9.049,8.189 8.154,8.284 7.136 C 8.326 6.688,8.324 6.578,8.267 6.303 C 8.174 5.848,8.032 5.586,7.703 5.258 C 7.372 4.929,6.974 4.704,6.570 4.619 C 6.414 4.586,6.080 4.561,5.780 4.562 C 5.324 4.562,5.232 4.574,5.028 4.657 M17.180 4.651 C 16.845 4.779,16.541 4.990,16.233 5.309 C 15.785 5.774,15.611 6.238,15.655 6.858 C 15.690 7.355,15.866 8.558,15.958 8.925 C 16.067 9.362,16.213 9.623,16.520 9.925 C 16.840 10.240,17.237 10.451,17.680 10.544 C 18.375 10.689,19.145 10.427,19.672 9.866 C 20.042 9.473,20.178 9.073,20.363 7.840 C 20.482 7.043,20.487 6.294,20.375 6.016 C 20.149 5.457,19.550 4.881,18.978 4.673 C 18.778 4.600,18.634 4.584,18.080 4.573 C 17.470 4.561,17.402 4.566,17.180 4.651 M6.425 5.622 C 6.745 5.712,6.994 5.903,7.149 6.180 C 7.284 6.418,7.284 6.422,7.259 6.800 C 7.205 7.627,7.042 8.627,6.913 8.928 C 6.796 9.199,6.502 9.460,6.220 9.542 C 5.933 9.625,5.704 9.597,5.370 9.436 C 4.954 9.235,4.834 8.991,4.682 8.040 C 4.551 7.225,4.507 6.620,4.561 6.395 C 4.640 6.067,5.017 5.704,5.413 5.575 C 5.611 5.511,6.114 5.534,6.425 5.622 M18.796 5.667 C 18.968 5.779,19.237 6.046,19.328 6.193 C 19.404 6.316,19.416 6.388,19.411 6.698 C 19.407 6.897,19.375 7.312,19.340 7.620 C 19.179 9.000,18.989 9.366,18.341 9.541 C 18.123 9.600,18.046 9.604,17.854 9.566 C 17.403 9.475,17.164 9.256,16.997 8.780 C 16.836 8.323,16.679 6.895,16.738 6.426 C 16.762 6.228,16.791 6.173,16.969 5.978 C 17.312 5.602,17.459 5.556,18.220 5.585 C 18.566 5.598,18.726 5.621,18.796 5.667 M13.320 10.425 C 13.265 10.434,12.948 10.479,12.615 10.524 L 12.011 10.607 11.321 10.519 C 10.873 10.462,10.497 10.437,10.246 10.447 C 9.898 10.461,9.831 10.477,9.560 10.611 C 9.171 10.804,8.820 11.082,8.686 11.303 C 8.628 11.399,8.550 11.488,8.514 11.501 C 8.477 11.513,8.226 11.485,7.955 11.439 L 7.462 11.355 6.670 11.443 C 5.898 11.529,5.862 11.529,5.308 11.465 C 4.334 11.352,3.831 11.384,3.420 11.588 C 2.937 11.827,2.624 12.175,2.472 12.643 C 2.405 12.852,2.386 13.036,2.371 13.620 C 2.348 14.501,2.415 16.013,2.500 16.500 C 2.657 17.410,2.960 18.462,3.351 19.455 C 3.597 20.079,3.611 20.133,3.547 20.180 C 3.509 20.208,3.251 20.287,2.975 20.357 C 2.365 20.509,2.111 20.629,2.041 20.797 C 1.935 21.052,2.141 21.355,2.441 21.387 C 2.548 21.398,3.292 21.306,4.280 21.161 C 7.811 20.643,9.281 20.521,11.980 20.521 C 14.692 20.522,16.705 20.700,20.160 21.246 C 21.352 21.434,21.574 21.448,21.732 21.343 C 21.942 21.203,22.010 20.972,21.902 20.764 C 21.825 20.616,21.574 20.511,20.933 20.358 C 20.651 20.291,20.408 20.224,20.392 20.208 C 20.376 20.192,20.489 19.846,20.643 19.439 C 21.118 18.187,21.365 17.287,21.496 16.340 C 21.652 15.201,21.677 13.300,21.542 12.789 C 21.424 12.344,21.235 12.075,20.829 11.775 C 20.313 11.395,19.870 11.323,18.803 11.446 C 18.142 11.522,18.011 11.527,17.620 11.484 C 16.792 11.394,16.327 11.386,15.930 11.455 C 15.726 11.491,15.542 11.520,15.519 11.520 C 15.497 11.520,15.322 11.362,15.129 11.169 C 14.639 10.676,14.241 10.481,13.620 10.426 C 13.510 10.417,13.375 10.416,13.320 10.425 M14.020 11.557 C 14.152 11.621,14.308 11.715,14.367 11.767 L 14.474 11.860 14.502 15.690 L 14.530 19.520 11.979 19.520 L 9.427 19.520 9.456 16.670 C 9.471 15.103,9.499 13.383,9.518 12.849 C 9.556 11.770,9.558 11.762,9.840 11.575 L 9.999 11.470 10.709 11.495 C 11.100 11.508,11.591 11.530,11.800 11.542 C 12.032 11.556,12.359 11.542,12.640 11.506 C 12.893 11.475,13.253 11.447,13.440 11.444 C 13.739 11.441,13.809 11.454,14.020 11.557 M5.020 12.441 C 5.843 12.537,6.031 12.538,6.743 12.456 C 7.511 12.367,7.805 12.387,8.060 12.543 C 8.170 12.611,8.286 12.719,8.318 12.783 C 8.382 12.913,8.430 15.031,8.437 18.028 L 8.440 19.596 8.310 19.619 C 8.147 19.648,5.974 19.907,5.373 19.969 C 5.044 20.003,4.900 20.004,4.828 19.971 C 4.638 19.884,4.093 18.669,3.821 17.722 C 3.505 16.625,3.417 15.733,3.452 13.979 C 3.465 13.363,3.492 12.813,3.514 12.756 C 3.561 12.633,3.703 12.535,3.977 12.436 C 4.229 12.345,4.200 12.345,5.020 12.441 M17.280 12.460 C 17.919 12.536,18.200 12.535,18.852 12.456 C 19.558 12.369,19.971 12.392,20.204 12.529 C 20.301 12.586,20.423 12.679,20.476 12.736 L 20.573 12.839 20.548 14.209 C 20.505 16.533,20.387 17.302,19.872 18.620 C 19.627 19.246,19.319 19.873,19.207 19.974 C 19.119 20.053,19.269 20.067,16.143 19.688 L 15.585 19.620 15.550 19.500 C 15.509 19.363,15.546 14.736,15.597 13.600 C 15.618 13.138,15.650 12.817,15.683 12.746 C 15.713 12.682,15.824 12.582,15.938 12.517 C 16.115 12.415,16.180 12.401,16.460 12.401 C 16.636 12.401,17.005 12.427,17.280 12.460 " fill="#EC0000" stroke="none" fill-rule="evenodd"></path></svg>