<svg width="24" height="25" viewBox="0 0 24 25" fill="none" xmlns="http://www.w3.org/2000/svg"><path d="M11.140 3.656 C 10.586 3.832,9.929 4.320,9.621 4.782 C 9.238 5.357,9.207 5.912,9.463 7.644 C 9.646 8.886,9.773 9.213,10.260 9.701 C 10.741 10.182,11.175 10.381,11.840 10.424 C 12.573 10.472,13.273 10.212,13.778 9.704 C 14.107 9.373,14.246 9.114,14.382 8.576 C 14.499 8.114,14.661 7.042,14.723 6.319 C 14.776 5.702,14.739 5.471,14.516 5.017 C 14.211 4.398,13.391 3.763,12.743 3.644 C 12.416 3.584,11.342 3.592,11.140 3.656 M12.833 4.723 C 13.105 4.859,13.498 5.222,13.618 5.449 C 13.693 5.590,13.694 5.629,13.648 6.368 C 13.576 7.514,13.418 8.451,13.236 8.809 C 13.148 8.981,12.762 9.285,12.530 9.366 C 12.332 9.434,11.709 9.433,11.470 9.364 C 11.245 9.299,10.960 9.062,10.819 8.823 C 10.639 8.515,10.493 7.732,10.320 6.155 C 10.275 5.748,10.277 5.722,10.362 5.555 C 10.557 5.168,10.993 4.764,11.329 4.659 C 11.434 4.626,11.709 4.604,12.044 4.603 C 12.573 4.600,12.594 4.603,12.833 4.723 M4.939 5.778 C 4.237 6.137,3.838 6.569,3.696 7.120 C 3.523 7.795,3.783 9.801,4.127 10.448 C 4.274 10.722,4.690 11.130,4.988 11.291 C 5.221 11.416,5.740 11.560,5.960 11.560 C 6.184 11.560,6.696 11.417,6.993 11.271 C 7.316 11.112,7.708 10.740,7.852 10.455 C 8.095 9.977,8.450 7.977,8.381 7.483 C 8.277 6.739,7.842 6.188,7.043 5.788 L 6.706 5.620 6.002 5.607 L 5.297 5.594 4.939 5.778 M17.153 5.681 C 16.741 5.823,16.340 6.101,16.047 6.450 C 15.823 6.716,15.695 6.972,15.616 7.310 C 15.545 7.615,15.552 7.728,15.704 8.800 C 15.883 10.057,16.036 10.481,16.466 10.904 C 16.821 11.254,17.197 11.437,17.667 11.487 C 18.315 11.557,18.726 11.481,19.107 11.223 C 19.353 11.056,19.740 10.653,19.850 10.449 C 20.075 10.032,20.244 9.113,20.324 7.881 L 20.370 7.177 20.269 6.979 C 20.013 6.473,19.595 6.059,19.080 5.801 C 18.767 5.643,18.511 5.600,17.908 5.601 C 17.491 5.602,17.332 5.619,17.153 5.681 M6.214 6.601 C 6.704 6.657,7.042 6.849,7.202 7.163 C 7.300 7.356,7.307 7.920,7.220 8.737 C 7.138 9.510,7.089 9.754,6.979 9.945 C 6.675 10.467,6.001 10.689,5.500 10.431 C 5.259 10.307,5.161 10.204,5.029 9.940 C 4.845 9.570,4.680 8.534,4.680 7.744 C 4.680 7.304,4.683 7.288,4.802 7.124 C 5.010 6.837,5.461 6.567,5.740 6.563 C 5.806 6.561,6.019 6.579,6.214 6.601 M18.148 6.600 C 18.350 6.621,18.588 6.668,18.677 6.704 C 18.906 6.795,19.265 7.192,19.298 7.390 C 19.341 7.644,19.221 8.895,19.094 9.518 C 18.964 10.156,18.669 10.445,18.085 10.506 C 17.414 10.576,17.019 10.246,16.860 9.481 C 16.764 9.022,16.640 7.992,16.640 7.658 C 16.640 7.320,16.708 7.174,16.986 6.918 C 17.207 6.714,17.261 6.677,17.430 6.617 C 17.612 6.552,17.678 6.551,18.148 6.600 M9.675 11.761 C 9.421 11.804,9.179 11.916,8.773 12.181 L 8.428 12.406 8.006 12.360 C 7.550 12.311,7.072 12.329,6.276 12.424 C 5.821 12.479,5.728 12.479,5.316 12.421 C 4.680 12.332,3.951 12.303,3.640 12.355 C 3.270 12.416,2.712 12.702,2.426 12.976 C 2.066 13.322,2.066 13.321,2.075 14.620 C 2.079 15.394,2.100 15.857,2.142 16.120 C 2.275 16.952,2.564 17.951,3.084 19.369 C 3.236 19.782,3.360 20.155,3.360 20.197 C 3.360 20.278,3.251 20.323,2.720 20.464 C 2.392 20.551,2.183 20.654,2.103 20.768 C 1.961 20.971,2.073 21.298,2.319 21.400 C 2.480 21.466,2.583 21.455,4.720 21.146 C 8.022 20.669,8.389 20.639,11.300 20.612 C 15.101 20.576,15.580 20.614,20.692 21.366 C 21.149 21.433,21.569 21.476,21.625 21.462 C 21.766 21.427,21.903 21.267,21.949 21.087 C 22.026 20.783,21.900 20.679,21.201 20.467 C 20.948 20.391,20.725 20.302,20.705 20.270 C 20.681 20.232,20.710 20.094,20.792 19.856 C 20.860 19.660,21.034 19.160,21.178 18.744 C 21.757 17.085,21.986 15.757,21.954 14.258 C 21.935 13.395,21.901 13.296,21.489 12.919 C 20.932 12.408,20.435 12.277,19.369 12.359 C 19.045 12.384,18.659 12.421,18.511 12.442 C 18.314 12.469,18.095 12.463,17.691 12.417 C 17.314 12.374,16.881 12.358,16.320 12.367 L 15.500 12.380 15.214 12.190 C 15.057 12.085,14.823 11.950,14.694 11.890 C 14.471 11.785,14.432 11.780,13.840 11.780 C 13.388 11.780,13.050 11.806,12.594 11.876 L 11.967 11.971 11.414 11.885 C 10.851 11.797,10.142 11.719,9.960 11.726 C 9.905 11.728,9.777 11.743,9.675 11.761 M11.040 12.847 C 11.703 12.948,12.266 12.955,12.740 12.867 C 13.262 12.770,13.930 12.739,14.217 12.799 C 14.419 12.841,14.484 12.879,14.664 13.059 C 14.815 13.209,14.882 13.312,14.903 13.421 C 14.948 13.660,14.891 15.640,14.821 16.272 C 14.704 17.333,14.531 18.191,14.257 19.070 L 14.117 19.520 12.000 19.520 L 9.883 19.520 9.761 19.130 C 9.313 17.702,9.127 16.456,9.093 14.655 L 9.069 13.451 9.184 13.240 C 9.303 13.021,9.480 12.875,9.748 12.775 C 9.929 12.708,10.246 12.726,11.040 12.847 M16.965 13.318 C 17.915 13.446,18.195 13.455,19.000 13.379 C 19.802 13.304,20.284 13.320,20.495 13.426 C 20.564 13.461,20.697 13.552,20.790 13.628 L 20.960 13.765 20.960 14.093 C 20.959 15.357,20.718 16.903,20.337 18.084 C 20.035 19.022,19.587 20.057,19.464 20.104 C 19.410 20.125,15.894 19.714,15.482 19.639 C 15.362 19.618,15.250 19.586,15.234 19.570 C 15.217 19.553,15.291 19.198,15.397 18.780 C 15.802 17.185,16.000 15.555,16.000 13.814 L 16.000 13.329 16.190 13.289 C 16.294 13.267,16.382 13.247,16.385 13.245 C 16.387 13.242,16.648 13.275,16.965 13.318 M5.044 13.387 C 5.719 13.453,5.785 13.453,6.584 13.382 C 7.484 13.303,7.903 13.309,7.963 13.403 C 7.982 13.434,7.999 13.748,8.000 14.100 C 8.001 15.560,8.185 17.045,8.560 18.640 C 8.771 19.537,8.780 19.595,8.714 19.618 C 8.684 19.629,8.255 19.684,7.760 19.740 C 6.665 19.866,4.921 20.071,4.695 20.101 L 4.530 20.123 4.260 19.512 C 3.615 18.049,3.357 17.200,3.176 15.940 C 3.089 15.342,3.072 13.789,3.150 13.653 C 3.177 13.606,3.310 13.511,3.446 13.443 C 3.748 13.292,3.992 13.284,5.044 13.387 " fill="#EC0000" stroke="none" fill-rule="evenodd"></path></svg>