<svg width="24" height="25" viewBox="0 0 24 25" fill="none" xmlns="http://www.w3.org/2000/svg"><path d="M11.080 3.084 C 9.908 3.217,8.599 3.696,7.500 4.394 C 6.845 4.810,6.205 5.362,6.081 5.619 C 5.999 5.788,5.998 5.803,6.060 5.935 C 6.125 6.070,6.376 6.280,6.474 6.280 C 6.572 6.280,6.837 6.118,7.247 5.806 C 8.797 4.628,9.955 4.169,11.588 4.086 C 13.529 3.986,14.947 4.450,16.674 5.750 C 17.290 6.213,17.477 6.308,17.644 6.238 C 17.772 6.185,17.940 6.007,17.979 5.882 C 18.087 5.542,16.963 4.585,15.718 3.959 C 15.309 3.753,14.642 3.483,14.260 3.369 C 13.369 3.101,12.005 2.980,11.080 3.084 M11.270 6.861 C 10.644 7.091,10.089 7.548,9.851 8.031 L 9.700 8.336 9.702 8.998 C 9.704 9.535,9.725 9.781,9.815 10.299 C 10.000 11.360,10.159 11.737,10.575 12.103 C 11.227 12.676,12.190 12.803,12.982 12.420 C 13.257 12.287,13.770 11.756,13.902 11.468 C 14.222 10.769,14.445 8.787,14.266 8.237 C 14.068 7.628,13.323 7.010,12.605 6.857 C 12.263 6.785,11.470 6.787,11.270 6.861 M12.671 7.921 C 12.764 7.962,12.938 8.093,13.057 8.212 C 13.232 8.387,13.278 8.462,13.300 8.604 C 13.349 8.935,13.173 10.372,13.017 10.915 C 12.886 11.369,12.349 11.728,11.894 11.665 C 11.511 11.613,11.091 11.287,11.002 10.973 C 10.929 10.715,10.770 9.766,10.717 9.270 C 10.661 8.741,10.683 8.606,10.870 8.329 C 11.006 8.127,11.315 7.882,11.489 7.837 C 11.709 7.780,12.477 7.835,12.671 7.921 M5.643 8.001 C 5.291 8.128,5.000 8.320,4.678 8.640 C 4.196 9.118,4.094 9.430,4.135 10.300 C 4.187 11.390,4.377 12.293,4.652 12.754 C 5.103 13.509,6.058 13.906,6.917 13.696 C 7.347 13.590,7.652 13.423,7.938 13.138 C 8.240 12.836,8.402 12.527,8.517 12.035 C 8.679 11.345,8.823 10.073,8.780 9.723 C 8.716 9.217,8.485 8.820,8.053 8.477 C 7.504 8.041,7.125 7.919,6.323 7.921 C 5.967 7.923,5.810 7.941,5.643 8.001 M16.813 7.978 C 16.351 8.122,15.722 8.609,15.450 9.033 C 15.254 9.340,15.220 9.614,15.275 10.479 C 15.336 11.453,15.475 12.175,15.687 12.625 C 15.797 12.860,16.142 13.234,16.412 13.412 C 16.784 13.657,17.046 13.733,17.520 13.735 C 18.095 13.738,18.436 13.628,18.877 13.296 C 19.396 12.906,19.560 12.564,19.740 11.500 C 19.960 10.201,19.960 9.590,19.740 9.152 C 19.455 8.585,18.754 8.059,18.154 7.962 C 17.803 7.905,17.016 7.914,16.813 7.978 M7.104 9.011 C 7.299 9.112,7.624 9.426,7.701 9.587 C 7.765 9.723,7.767 9.785,7.723 10.318 C 7.643 11.302,7.534 11.928,7.395 12.206 C 7.176 12.645,6.468 12.889,6.012 12.682 C 5.748 12.562,5.495 12.283,5.422 12.031 C 5.267 11.498,5.119 10.092,5.177 9.703 C 5.222 9.404,5.556 9.075,5.918 8.972 C 6.168 8.901,6.939 8.927,7.104 9.011 M18.261 9.036 C 18.642 9.205,18.880 9.581,18.880 10.014 C 18.880 10.313,18.712 11.499,18.620 11.854 C 18.461 12.463,18.150 12.727,17.577 12.736 C 17.337 12.739,17.260 12.722,17.059 12.620 C 16.796 12.485,16.586 12.245,16.523 12.008 C 16.466 11.795,16.331 10.820,16.281 10.263 C 16.238 9.788,16.238 9.785,16.343 9.570 C 16.456 9.339,16.798 9.031,17.020 8.960 C 17.214 8.898,18.067 8.951,18.261 9.036 M12.380 13.506 C 12.131 13.550,11.984 13.553,11.717 13.521 C 11.529 13.499,11.056 13.480,10.666 13.480 C 9.996 13.480,9.947 13.485,9.766 13.577 C 9.388 13.768,9.156 13.996,8.740 14.584 C 8.706 14.632,8.656 14.632,8.386 14.580 C 7.960 14.498,7.514 14.505,6.923 14.601 L 6.425 14.682 5.948 14.601 C 5.430 14.513,4.885 14.498,4.601 14.563 C 4.124 14.673,3.566 15.074,3.380 15.439 C 3.156 15.882,3.121 16.245,3.219 17.088 C 3.326 17.999,3.522 18.750,3.968 19.952 C 4.101 20.310,4.203 20.610,4.195 20.617 C 4.187 20.625,3.892 20.697,3.540 20.777 C 2.646 20.982,2.131 21.144,2.081 21.238 C 2.058 21.280,2.040 21.387,2.040 21.476 C 2.040 21.608,2.068 21.666,2.194 21.798 C 2.390 22.004,2.406 22.004,3.560 21.798 C 5.321 21.484,6.984 21.276,8.740 21.151 C 9.716 21.082,14.327 21.082,15.260 21.152 C 16.796 21.266,18.076 21.426,20.242 21.775 C 21.472 21.974,21.562 21.982,21.713 21.904 C 21.878 21.818,21.975 21.629,21.946 21.448 C 21.896 21.142,21.709 21.058,20.503 20.801 C 20.086 20.712,19.740 20.633,19.733 20.626 C 19.726 20.619,19.800 20.453,19.897 20.257 C 20.327 19.392,20.768 17.676,20.826 16.640 C 20.879 15.699,20.583 15.115,19.873 14.757 C 19.366 14.501,18.924 14.458,18.047 14.580 C 17.590 14.643,17.463 14.647,17.162 14.607 C 16.369 14.501,15.832 14.507,15.335 14.626 C 15.267 14.642,15.229 14.606,15.130 14.431 C 14.883 13.993,14.296 13.572,13.805 13.480 C 13.507 13.425,12.765 13.438,12.380 13.506 M11.422 14.486 C 11.825 14.523,12.072 14.523,12.504 14.487 C 13.593 14.396,13.820 14.425,14.102 14.696 L 14.280 14.866 14.280 17.473 L 14.280 20.080 11.994 20.080 L 9.708 20.080 9.737 17.930 C 9.767 15.671,9.802 14.888,9.880 14.717 C 9.938 14.590,10.104 14.487,10.330 14.441 C 10.507 14.404,10.562 14.406,11.422 14.486 M5.660 15.565 C 6.295 15.644,6.378 15.646,6.920 15.595 C 7.787 15.513,8.061 15.521,8.292 15.635 C 8.398 15.687,8.511 15.771,8.544 15.821 C 8.640 15.967,8.678 16.712,8.679 18.469 L 8.680 20.078 8.590 20.097 C 8.303 20.156,6.644 20.344,6.100 20.379 C 5.902 20.392,5.655 20.412,5.551 20.423 L 5.362 20.443 5.085 19.891 C 4.933 19.587,4.755 19.185,4.688 18.996 C 4.432 18.270,4.240 17.147,4.240 16.372 L 4.240 15.908 4.401 15.755 C 4.529 15.633,4.788 15.507,4.960 15.483 C 4.971 15.481,5.286 15.518,5.660 15.565 M17.085 15.622 C 17.545 15.678,17.634 15.678,18.012 15.622 C 18.628 15.531,19.241 15.538,19.441 15.641 C 19.713 15.779,19.741 15.860,19.734 16.478 C 19.720 17.740,19.507 18.665,18.992 19.700 C 18.681 20.325,18.594 20.440,18.428 20.440 C 18.358 20.440,17.634 20.368,16.820 20.280 C 16.006 20.192,15.335 20.120,15.330 20.120 C 15.310 20.120,15.331 17.002,15.355 16.424 L 15.380 15.828 15.574 15.694 C 15.763 15.564,15.780 15.560,16.173 15.560 C 16.395 15.560,16.806 15.588,17.085 15.622 " fill="#EC0000" stroke="none" fill-rule="evenodd"></path></svg>