<svg width="24" height="25" viewBox="0 0 24 25" fill="none" xmlns="http://www.w3.org/2000/svg"><path d="M16.340 2.557 C 16.127 2.649,16.001 2.968,15.999 3.417 C 15.998 3.716,15.964 3.723,15.564 3.511 C 15.061 3.244,14.535 3.016,14.000 2.833 C 13.551 2.679,13.521 2.674,12.760 2.640 C 11.635 2.589,10.529 2.645,10.054 2.778 C 8.792 3.132,7.224 4.036,6.679 4.726 C 6.457 5.007,6.462 5.136,6.704 5.359 C 6.933 5.570,7.014 5.561,7.415 5.281 C 9.530 3.804,10.285 3.548,12.340 3.614 C 13.230 3.643,13.645 3.717,14.201 3.947 C 14.696 4.151,15.191 4.440,15.116 4.480 C 15.085 4.496,14.903 4.529,14.711 4.553 C 14.295 4.605,14.139 4.678,14.053 4.859 C 13.991 4.987,13.993 5.002,14.084 5.187 C 14.237 5.495,14.262 5.501,15.440 5.496 C 16.625 5.491,16.750 5.470,16.887 5.249 C 16.979 5.102,16.980 5.084,16.974 4.038 C 16.967 2.891,16.945 2.751,16.751 2.624 C 16.628 2.543,16.442 2.513,16.340 2.557 M11.234 5.695 C 10.856 5.850,10.633 6.000,10.338 6.297 C 10.009 6.627,9.925 6.787,9.875 7.175 C 9.816 7.630,9.930 8.739,10.104 9.415 C 10.232 9.911,10.320 10.083,10.579 10.337 C 11.404 11.150,12.605 11.162,13.400 10.366 C 13.630 10.135,13.736 9.922,13.899 9.360 C 14.050 8.837,14.195 7.338,14.124 7.031 C 14.037 6.657,13.575 6.123,13.120 5.869 C 12.750 5.663,12.467 5.600,11.922 5.601 C 11.531 5.602,11.425 5.616,11.234 5.695 M12.452 6.649 C 12.626 6.700,12.937 6.957,13.016 7.115 C 13.045 7.173,13.080 7.280,13.094 7.354 C 13.152 7.658,12.962 9.075,12.813 9.446 C 12.669 9.807,12.210 10.022,11.791 9.926 C 11.254 9.802,11.044 9.368,10.961 8.216 C 10.939 7.910,10.921 7.533,10.920 7.378 C 10.920 7.104,10.924 7.092,11.070 6.954 C 11.261 6.774,11.454 6.642,11.592 6.597 C 11.722 6.555,12.240 6.586,12.452 6.649 M6.234 6.695 C 5.856 6.850,5.633 7.000,5.338 7.297 C 5.009 7.627,4.925 7.787,4.875 8.175 C 4.816 8.630,4.930 9.739,5.104 10.415 C 5.232 10.911,5.320 11.083,5.579 11.337 C 6.404 12.150,7.605 12.162,8.400 11.366 C 8.630 11.135,8.736 10.922,8.899 10.360 C 9.050 9.837,9.195 8.338,9.124 8.031 C 9.037 7.657,8.575 7.123,8.120 6.869 C 7.750 6.663,7.467 6.600,6.922 6.601 C 6.531 6.602,6.425 6.616,6.234 6.695 M16.234 6.695 C 15.856 6.850,15.633 7.000,15.338 7.297 C 15.009 7.627,14.925 7.787,14.875 8.175 C 14.816 8.630,14.930 9.739,15.104 10.415 C 15.232 10.911,15.320 11.083,15.579 11.337 C 16.404 12.150,17.605 12.162,18.400 11.366 C 18.630 11.135,18.736 10.922,18.899 10.360 C 19.050 9.837,19.195 8.338,19.124 8.031 C 19.037 7.657,18.575 7.123,18.120 6.869 C 17.750 6.663,17.467 6.600,16.922 6.601 C 16.531 6.602,16.425 6.616,16.234 6.695 M7.452 7.649 C 7.626 7.700,7.937 7.957,8.016 8.115 C 8.045 8.173,8.080 8.280,8.094 8.354 C 8.152 8.658,7.962 10.075,7.813 10.446 C 7.669 10.807,7.210 11.022,6.791 10.926 C 6.254 10.802,6.044 10.368,5.961 9.216 C 5.939 8.910,5.921 8.533,5.920 8.378 C 5.920 8.104,5.924 8.092,6.070 7.954 C 6.261 7.774,6.454 7.642,6.592 7.597 C 6.722 7.555,7.240 7.586,7.452 7.649 M17.452 7.649 C 17.626 7.700,17.937 7.957,18.016 8.115 C 18.045 8.173,18.080 8.280,18.094 8.354 C 18.152 8.658,17.962 10.075,17.813 10.446 C 17.669 10.807,17.210 11.022,16.791 10.926 C 16.254 10.802,16.044 10.368,15.961 9.216 C 15.939 8.910,15.921 8.533,15.920 8.378 C 15.920 8.104,15.924 8.092,16.070 7.954 C 16.261 7.774,16.454 7.642,16.592 7.597 C 16.722 7.555,17.240 7.586,17.452 7.649 M10.324 11.602 C 9.837 11.729,9.428 12.009,9.178 12.385 L 9.034 12.603 8.486 12.576 C 8.062 12.555,7.827 12.565,7.451 12.618 C 6.990 12.684,6.942 12.684,6.555 12.619 C 6.272 12.572,6.011 12.556,5.714 12.568 C 5.304 12.585,5.265 12.594,4.943 12.754 C 4.564 12.942,4.267 13.209,4.155 13.462 C 3.876 14.093,4.011 15.430,4.505 16.916 C 4.670 17.412,4.947 18.016,5.103 18.221 C 5.320 18.505,5.545 18.539,5.802 18.324 C 5.911 18.233,5.935 18.185,5.932 18.069 C 5.930 17.990,5.782 17.497,5.604 16.973 C 5.184 15.737,5.119 15.435,5.092 14.591 C 5.067 13.824,5.083 13.769,5.373 13.638 C 5.579 13.544,5.835 13.540,6.462 13.623 C 6.903 13.681,6.988 13.681,7.556 13.618 C 8.366 13.529,8.696 13.566,8.799 13.757 C 8.860 13.872,8.914 14.809,8.962 16.579 C 8.990 17.634,9.020 18.196,9.049 18.231 C 9.074 18.260,9.171 18.330,9.266 18.386 C 9.419 18.475,9.454 18.482,9.577 18.441 C 9.832 18.357,9.910 18.264,9.937 18.010 C 9.950 17.884,9.988 16.817,10.020 15.640 C 10.094 12.957,10.104 12.813,10.220 12.696 C 10.358 12.558,10.679 12.536,11.389 12.617 C 11.899 12.675,12.060 12.678,12.385 12.639 C 13.014 12.564,13.476 12.568,13.640 12.650 C 13.718 12.688,13.804 12.757,13.832 12.801 C 13.908 12.924,13.952 13.735,14.001 15.940 C 14.026 17.039,14.061 18.018,14.079 18.114 C 14.124 18.356,14.231 18.453,14.453 18.453 C 14.716 18.453,14.893 18.335,14.926 18.138 C 14.941 18.051,14.983 17.071,15.021 15.960 C 15.064 14.669,15.105 13.905,15.134 13.842 C 15.159 13.788,15.243 13.707,15.320 13.662 C 15.485 13.565,15.907 13.557,16.600 13.636 C 16.952 13.677,17.101 13.674,17.519 13.622 C 18.275 13.528,18.560 13.548,18.758 13.711 C 18.897 13.826,18.940 14.205,18.885 14.833 C 18.818 15.586,18.765 15.805,18.361 16.995 C 18.019 18.004,18.006 18.056,18.058 18.182 C 18.130 18.353,18.296 18.459,18.482 18.454 C 18.848 18.445,19.095 18.035,19.533 16.711 C 19.633 16.409,19.751 15.995,19.795 15.791 C 19.963 15.002,19.999 14.057,19.876 13.620 C 19.783 13.290,19.430 12.931,18.972 12.702 C 18.684 12.558,18.194 12.529,17.480 12.616 C 16.991 12.675,16.902 12.676,16.540 12.621 C 16.073 12.550,15.540 12.543,15.235 12.602 L 15.020 12.644 14.860 12.452 C 14.471 11.984,14.140 11.745,13.712 11.621 C 13.428 11.539,13.168 11.535,12.480 11.600 C 12.010 11.645,11.866 11.643,11.370 11.586 C 10.678 11.506,10.691 11.506,10.324 11.602 M7.457 19.436 C 7.160 19.473,7.128 19.492,7.049 19.675 C 6.999 19.791,6.983 20.040,6.968 20.910 C 6.948 22.136,6.947 22.130,7.239 22.279 C 7.434 22.379,7.455 22.379,7.661 22.279 C 7.857 22.184,7.905 22.095,7.964 21.708 C 7.988 21.550,8.019 21.408,8.034 21.394 C 8.048 21.380,8.303 21.485,8.600 21.628 C 9.290 21.960,9.833 22.177,10.294 22.306 C 10.632 22.401,10.740 22.410,11.728 22.429 C 12.454 22.443,12.900 22.435,13.124 22.402 C 14.501 22.200,16.593 21.154,17.236 20.344 C 17.304 20.259,17.381 20.119,17.407 20.033 C 17.448 19.896,17.444 19.864,17.374 19.769 C 17.261 19.615,17.039 19.502,16.914 19.533 C 16.858 19.547,16.454 19.797,16.016 20.089 C 15.085 20.710,14.650 20.941,14.054 21.133 C 12.480 21.641,10.907 21.585,9.540 20.974 C 9.043 20.751,8.612 20.490,8.665 20.443 C 8.684 20.426,8.911 20.392,9.169 20.368 C 9.428 20.343,9.677 20.303,9.723 20.279 C 9.826 20.223,9.920 20.008,9.920 19.826 C 9.920 19.607,9.821 19.526,9.500 19.481 C 9.121 19.428,7.758 19.398,7.457 19.436 " fill="#EC0000" stroke="none" fill-rule="evenodd"></path></svg>