<svg width="24" height="25" viewBox="0 0 24 25" fill="none" xmlns="http://www.w3.org/2000/svg"><path d="M10.914 2.602 C 10.511 2.648,9.793 2.790,9.292 2.922 C 7.952 3.275,6.604 4.004,5.480 4.983 C 3.675 6.554,2.637 8.378,2.136 10.858 C 2.056 11.254,2.015 13.180,2.077 13.680 C 2.254 15.127,2.832 16.720,3.592 17.858 C 4.753 19.598,6.259 20.887,8.001 21.633 C 10.001 22.490,12.073 22.702,14.080 22.254 C 15.278 21.987,16.556 21.463,17.420 20.885 C 18.168 20.383,19.216 19.423,19.796 18.707 C 20.952 17.281,21.749 15.359,21.924 13.576 C 21.976 13.043,21.950 11.519,21.880 11.060 C 21.699 9.866,21.228 8.507,20.660 7.537 C 19.881 6.205,18.594 4.865,17.361 4.103 C 16.060 3.298,14.500 2.750,13.200 2.642 C 12.560 2.589,11.234 2.566,10.914 2.602 M12.486 3.599 C 13.613 3.650,14.387 3.809,15.329 4.182 C 18.199 5.321,20.290 7.919,20.846 11.040 C 20.923 11.471,20.912 13.433,20.829 14.021 C 20.557 15.941,19.339 18.053,17.720 19.409 C 16.607 20.341,15.159 21.029,13.655 21.340 C 12.851 21.506,11.224 21.505,10.380 21.338 C 9.527 21.170,8.386 20.759,7.640 20.352 C 6.692 19.835,5.529 18.827,4.869 17.950 C 3.908 16.674,3.236 14.994,3.116 13.571 C 3.051 12.800,3.092 11.395,3.198 10.820 C 3.467 9.349,4.232 7.774,5.212 6.676 C 5.579 6.264,6.177 5.684,6.496 5.430 C 7.379 4.727,8.646 4.120,9.913 3.794 C 10.491 3.645,10.782 3.605,11.560 3.567 C 11.615 3.564,12.032 3.579,12.486 3.599 M8.573 8.659 C 8.300 8.798,8.089 9.077,8.022 9.387 C 7.938 9.778,8.342 10.317,8.816 10.444 C 9.152 10.535,9.580 10.347,9.818 10.003 C 9.911 9.868,9.932 9.789,9.950 9.502 L 9.971 9.162 9.782 8.940 C 9.543 8.661,9.434 8.605,9.071 8.576 C 8.810 8.556,8.758 8.564,8.573 8.659 M14.573 8.659 C 14.300 8.798,14.089 9.077,14.022 9.387 C 13.938 9.778,14.342 10.317,14.816 10.444 C 15.152 10.535,15.580 10.347,15.818 10.003 C 15.911 9.868,15.932 9.789,15.950 9.502 L 15.971 9.162 15.782 8.940 C 15.543 8.661,15.434 8.605,15.071 8.576 C 14.810 8.556,14.758 8.564,14.573 8.659 M8.391 16.635 C 8.148 16.662,8.065 16.727,8.020 16.925 C 7.985 17.079,8.108 17.305,8.269 17.381 C 8.492 17.487,9.218 17.518,11.460 17.517 C 14.269 17.516,15.545 17.474,15.747 17.374 C 15.924 17.286,15.980 17.150,15.941 16.895 C 15.920 16.752,15.893 16.706,15.807 16.669 C 15.728 16.634,14.776 16.620,12.160 16.615 C 10.213 16.612,8.517 16.621,8.391 16.635 " fill="#EC0000" stroke="none" fill-rule="evenodd"></path></svg>