<svg width="24" height="25" viewBox="0 0 24 25" fill="none" xmlns="http://www.w3.org/2000/svg"><path d="M10.380 2.665 C 9.314 2.856,8.629 3.081,7.660 3.558 C 6.838 3.963,6.027 4.486,5.494 4.954 C 5.065 5.331,4.239 6.216,3.933 6.629 C 3.030 7.844,2.358 9.511,2.100 11.172 C 2.045 11.525,2.036 11.806,2.051 12.712 C 2.068 13.762,2.075 13.850,2.193 14.400 C 2.483 15.759,2.925 16.836,3.620 17.880 C 4.072 18.557,4.407 18.967,5.000 19.563 C 6.377 20.950,7.731 21.687,10.040 22.307 L 10.460 22.420 11.840 22.420 C 13.330 22.420,13.567 22.399,14.346 22.198 C 15.382 21.932,16.712 21.349,17.520 20.807 C 18.295 20.287,19.171 19.475,19.842 18.657 C 20.903 17.361,21.703 15.434,21.923 13.640 C 21.985 13.136,21.947 11.385,21.864 10.920 C 21.502 8.900,20.572 7.054,19.190 5.616 C 17.624 3.987,15.332 2.838,13.260 2.642 C 12.606 2.580,10.772 2.594,10.380 2.665 M12.714 3.600 C 14.483 3.721,16.207 4.404,17.652 5.556 C 19.222 6.807,20.364 8.706,20.806 10.800 C 20.910 11.292,20.957 13.104,20.881 13.710 C 20.821 14.195,20.570 15.195,20.401 15.620 C 20.212 16.094,19.780 16.955,19.536 17.345 C 19.058 18.105,18.204 19.045,17.477 19.610 C 16.360 20.477,14.841 21.128,13.340 21.383 C 12.853 21.466,11.276 21.478,10.780 21.403 C 9.047 21.141,7.263 20.312,6.072 19.214 C 4.690 17.939,3.907 16.685,3.311 14.787 L 3.183 14.380 3.169 12.536 L 3.155 10.691 3.392 9.976 C 3.955 8.278,4.594 7.241,5.806 6.057 C 6.785 5.100,7.853 4.446,9.131 4.020 C 10.373 3.606,11.266 3.501,12.714 3.600 M7.248 7.639 C 6.922 7.875,6.989 8.243,7.397 8.446 C 7.764 8.629,10.374 9.480,10.569 9.480 C 10.615 9.480,10.722 9.407,10.806 9.318 C 10.932 9.186,10.960 9.128,10.960 8.996 C 10.960 8.701,10.743 8.574,9.522 8.156 C 8.754 7.893,7.547 7.520,7.464 7.520 C 7.435 7.520,7.338 7.573,7.248 7.639 M16.240 7.584 C 15.842 7.691,14.310 8.206,13.792 8.407 C 13.480 8.528,13.235 8.650,13.157 8.723 C 13.040 8.832,13.032 8.857,13.051 9.029 C 13.068 9.184,13.101 9.244,13.234 9.369 C 13.324 9.452,13.432 9.520,13.474 9.520 C 13.564 9.520,15.153 8.984,16.114 8.630 C 16.720 8.407,16.776 8.377,16.884 8.229 C 16.948 8.140,17.000 8.032,17.000 7.988 C 17.000 7.822,16.677 7.514,16.512 7.523 C 16.483 7.524,16.361 7.552,16.240 7.584 M8.573 10.659 C 8.300 10.798,8.089 11.077,8.022 11.387 C 7.938 11.778,8.342 12.317,8.816 12.444 C 9.152 12.535,9.580 12.347,9.818 12.003 C 9.911 11.868,9.932 11.789,9.950 11.502 L 9.971 11.162 9.782 10.940 C 9.543 10.661,9.434 10.605,9.071 10.576 C 8.810 10.556,8.758 10.564,8.573 10.659 M14.573 10.659 C 14.300 10.798,14.089 11.077,14.022 11.387 C 13.938 11.778,14.342 12.317,14.816 12.444 C 15.152 12.535,15.580 12.347,15.818 12.003 C 15.911 11.868,15.932 11.789,15.950 11.502 L 15.971 11.162 15.782 10.940 C 15.543 10.661,15.434 10.605,15.071 10.576 C 14.810 10.556,14.758 10.564,14.573 10.659 M11.280 15.122 C 10.427 15.191,9.506 15.536,8.641 16.112 C 8.244 16.375,7.427 17.151,7.316 17.369 C 7.245 17.506,7.244 17.532,7.297 17.659 C 7.384 17.868,7.534 18.000,7.683 18.000 C 7.846 18.000,7.995 17.906,8.495 17.491 C 9.319 16.807,10.045 16.393,10.691 16.240 C 11.406 16.070,12.580 16.060,13.253 16.217 C 13.957 16.382,14.679 16.798,15.590 17.564 C 16.130 18.019,16.253 18.095,16.386 18.062 C 16.531 18.026,16.800 17.752,16.800 17.641 C 16.800 17.250,15.838 16.342,14.837 15.789 C 14.093 15.378,13.352 15.176,12.380 15.120 C 12.006 15.099,11.691 15.083,11.680 15.086 C 11.669 15.089,11.489 15.105,11.280 15.122 " fill="#EC0000" stroke="none" fill-rule="evenodd"></path></svg>