<svg width="24" height="24" viewBox="0 0 24 24" fill="none" xmlns="http://www.w3.org/2000/svg"><path d="M14.016 2.040 C 13.267 2.150,12.589 2.702,12.374 3.377 C 12.325 3.533,12.303 3.853,12.279 4.760 C 12.262 5.416,12.227 6.036,12.200 6.155 C 12.030 6.907,11.469 7.718,10.540 8.555 C 10.098 8.953,9.118 9.719,9.050 9.719 C 9.013 9.720,9.000 9.603,9.000 9.268 L 9.000 8.816 8.848 8.668 L 8.697 8.520 5.496 8.520 L 2.296 8.520 2.148 8.672 L 2.000 8.823 2.000 14.268 L 2.000 19.714 2.124 20.067 C 2.430 20.938,3.022 21.544,3.880 21.864 L 4.180 21.976 6.422 21.978 C 8.527 21.980,8.670 21.976,8.775 21.907 C 8.950 21.792,9.000 21.618,9.000 21.121 C 9.000 20.879,9.015 20.680,9.033 20.680 C 9.051 20.680,9.235 20.753,9.443 20.842 C 10.460 21.278,11.630 21.621,12.798 21.823 C 13.549 21.954,14.967 22.013,16.780 21.989 C 18.267 21.970,18.377 21.954,18.960 21.673 C 19.233 21.541,19.363 21.445,19.620 21.184 C 20.027 20.772,20.210 20.458,20.320 19.985 C 20.668 18.480,21.658 13.915,21.860 12.880 C 22.005 12.141,22.007 11.607,21.867 11.204 C 21.726 10.800,21.544 10.508,21.240 10.201 C 20.927 9.884,20.609 9.684,20.180 9.534 L 19.860 9.422 18.114 9.408 L 16.367 9.393 16.352 6.487 C 16.337 3.633,16.335 3.576,16.251 3.349 C 16.074 2.871,15.635 2.397,15.187 2.199 C 14.970 2.103,14.516 1.999,14.340 2.006 C 14.274 2.008,14.128 2.023,14.016 2.040 M14.694 3.090 C 14.902 3.151,15.226 3.448,15.285 3.633 C 15.318 3.738,15.339 4.678,15.357 6.900 C 15.376 9.150,15.396 10.050,15.430 10.128 C 15.535 10.371,15.543 10.372,17.767 10.400 L 19.794 10.426 20.058 10.556 C 20.387 10.718,20.661 10.988,20.830 11.318 C 21.059 11.763,21.036 11.954,20.381 15.020 C 19.452 19.367,19.312 19.954,19.140 20.223 C 18.979 20.475,18.729 20.684,18.417 20.827 C 18.116 20.966,17.729 20.994,16.120 20.995 C 13.917 20.998,13.107 20.923,11.842 20.602 C 10.976 20.382,10.002 20.024,9.267 19.653 L 8.991 19.515 9.011 15.647 C 9.033 11.371,9.029 11.442,9.289 11.009 C 9.451 10.739,9.678 10.530,10.452 9.934 C 11.086 9.446,11.964 8.605,12.295 8.169 C 12.701 7.636,12.990 7.064,13.157 6.469 C 13.230 6.211,13.246 6.002,13.274 4.935 C 13.297 4.079,13.322 3.671,13.357 3.606 C 13.384 3.555,13.471 3.441,13.550 3.354 C 13.849 3.023,14.191 2.944,14.694 3.090 M8.000 15.260 L 8.000 21.000 6.305 21.000 C 5.370 21.000,4.519 20.982,4.405 20.961 C 3.905 20.866,3.405 20.483,3.180 20.023 C 3.083 19.826,3.066 19.731,3.037 19.230 C 3.019 18.916,3.003 16.604,3.002 14.090 L 3.000 9.520 5.500 9.520 L 8.000 9.520 8.000 15.260 " fill="#EC0000" stroke="none" fill-rule="evenodd"></path></svg>