<svg width="24" height="25" viewBox="0 0 24 25" fill="none" xmlns="http://www.w3.org/2000/svg"><path d="M7.223 4.622 C 6.881 4.708,6.453 4.925,6.136 5.173 C 5.305 5.824,4.883 6.896,5.035 7.970 C 5.199 9.126,6.102 10.125,7.250 10.423 C 7.570 10.506,8.430 10.506,8.750 10.423 C 9.804 10.149,10.656 9.289,10.922 8.230 L 10.969 8.040 12.985 8.040 L 15.000 8.040 15.000 9.064 C 15.000 10.181,15.017 10.284,15.232 10.424 C 15.379 10.520,15.635 10.518,15.769 10.420 C 15.986 10.260,16.000 10.180,16.000 9.064 L 16.000 8.040 16.740 8.040 L 17.480 8.040 17.480 8.990 C 17.480 10.018,17.503 10.175,17.677 10.370 C 17.776 10.480,17.814 10.495,18.000 10.495 C 18.186 10.495,18.224 10.480,18.323 10.370 C 18.497 10.175,18.520 10.017,18.520 8.995 L 18.520 8.050 19.050 8.030 C 19.341 8.018,19.639 7.987,19.711 7.960 C 19.853 7.907,20.002 7.675,19.998 7.512 C 19.995 7.348,19.867 7.148,19.740 7.105 C 19.664 7.080,18.033 7.060,15.294 7.050 L 10.968 7.035 10.940 6.888 C 10.894 6.638,10.690 6.152,10.528 5.907 C 10.178 5.375,9.623 4.933,9.027 4.710 C 8.723 4.596,8.657 4.587,8.080 4.575 C 7.626 4.565,7.396 4.578,7.223 4.622 M8.419 5.581 C 8.819 5.665,9.104 5.819,9.390 6.103 C 9.998 6.709,10.162 7.646,9.793 8.400 C 9.634 8.727,9.224 9.146,8.920 9.292 C 8.297 9.592,7.688 9.587,7.075 9.277 C 5.933 8.701,5.657 7.132,6.530 6.177 C 7.014 5.647,7.705 5.429,8.419 5.581 M2.146 12.674 L 1.996 12.828 2.009 15.744 L 2.023 18.660 2.115 18.909 C 2.419 19.733,3.148 20.339,3.960 20.441 C 4.169 20.468,4.946 20.479,5.980 20.472 C 7.523 20.461,7.669 20.454,7.767 20.388 C 7.917 20.285,8.000 20.048,8.000 19.719 C 8.000 19.566,8.008 19.440,8.018 19.440 C 8.039 19.440,11.189 20.084,12.320 20.319 C 12.994 20.460,13.195 20.485,13.800 20.506 C 14.766 20.540,15.586 20.442,16.380 20.199 C 16.791 20.073,20.878 17.975,21.306 17.670 C 21.697 17.392,21.973 16.854,21.977 16.360 C 21.986 15.430,21.334 14.780,20.400 14.788 C 20.052 14.791,19.919 14.839,18.746 15.379 C 18.331 15.569,17.987 15.720,17.981 15.713 C 17.976 15.706,17.940 15.607,17.903 15.493 C 17.866 15.379,17.774 15.206,17.700 15.108 C 17.566 14.932,17.233 14.683,17.014 14.595 C 16.938 14.564,16.255 14.539,14.940 14.519 C 13.835 14.502,12.926 14.471,12.856 14.449 C 12.664 14.387,12.570 14.329,12.243 14.068 C 11.823 13.734,11.531 13.605,11.094 13.559 C 10.899 13.538,10.123 13.521,9.370 13.521 L 8.000 13.520 7.999 13.250 C 7.999 13.073,7.972 12.923,7.923 12.815 C 7.780 12.499,7.985 12.520,4.979 12.520 L 2.296 12.520 2.146 12.674 M7.000 16.504 L 7.000 19.487 5.470 19.474 C 3.970 19.460,3.936 19.458,3.754 19.368 C 3.535 19.260,3.243 18.962,3.119 18.718 C 3.031 18.546,3.030 18.526,3.009 16.032 L 2.988 13.520 4.994 13.520 L 7.000 13.520 7.000 16.504 M11.263 14.607 C 11.330 14.644,11.546 14.795,11.743 14.943 C 12.134 15.236,12.423 15.383,12.736 15.445 C 12.848 15.468,13.777 15.500,14.800 15.517 C 16.181 15.539,16.688 15.561,16.767 15.599 C 16.962 15.692,17.037 16.056,16.904 16.260 C 16.750 16.495,16.727 16.498,14.938 16.520 C 13.092 16.543,13.126 16.537,13.036 16.836 C 12.978 17.033,13.010 17.165,13.158 17.330 L 13.273 17.460 15.054 17.472 C 17.069 17.485,16.895 17.509,17.479 17.139 C 17.817 16.924,19.463 16.122,20.007 15.906 C 20.379 15.758,20.647 15.761,20.799 15.913 C 20.862 15.976,20.935 16.101,20.962 16.192 C 21.005 16.334,21.002 16.384,20.942 16.540 C 20.904 16.640,20.825 16.769,20.766 16.826 C 20.559 17.026,16.417 19.141,15.929 19.295 C 15.441 19.448,15.049 19.490,14.100 19.490 L 13.220 19.490 11.860 19.209 C 11.112 19.054,9.938 18.813,9.250 18.674 L 8.000 18.421 8.000 16.467 L 8.000 14.514 9.570 14.527 C 10.949 14.538,11.155 14.548,11.263 14.607 " fill="#EC0000" stroke="none" fill-rule="evenodd"></path></svg>