<svg width="24" height="24" viewBox="0 0 24 24" fill="none" xmlns="http://www.w3.org/2000/svg"><path d="M16.620 2.041 C 15.708 2.109,14.904 2.432,14.145 3.036 C 13.438 3.599,12.882 4.469,12.637 5.397 C 12.546 5.745,12.482 6.449,12.481 7.134 L 12.480 7.609 12.140 7.287 C 11.563 6.741,10.983 6.399,10.240 6.168 L 9.900 6.063 7.580 6.049 L 5.259 6.035 5.145 6.154 C 4.758 6.558,5.178 8.209,5.917 9.189 C 6.569 10.055,7.523 10.657,8.637 10.906 C 8.836 10.950,9.333 10.970,10.690 10.988 L 12.480 11.011 12.480 13.366 L 12.480 15.720 12.238 15.525 C 11.852 15.214,11.556 15.083,11.139 15.039 C 10.941 15.018,10.155 15.001,9.390 15.001 L 8.000 15.000 7.999 14.730 C 7.999 14.552,7.972 14.403,7.922 14.293 C 7.778 13.975,7.975 13.994,4.974 14.008 C 2.084 14.021,2.191 14.013,2.072 14.234 C 2.031 14.312,2.020 14.921,2.020 17.256 L 2.020 20.180 2.150 20.480 C 2.435 21.140,2.960 21.633,3.600 21.842 L 3.900 21.940 5.780 21.940 C 7.528 21.940,7.667 21.935,7.767 21.868 C 7.917 21.765,8.000 21.528,8.000 21.199 C 8.000 21.046,8.008 20.920,8.017 20.920 C 8.027 20.920,9.139 21.146,10.487 21.421 C 11.836 21.697,13.111 21.939,13.320 21.960 C 14.216 22.049,15.201 21.978,16.060 21.761 C 16.429 21.668,16.670 21.565,17.560 21.120 C 18.963 20.419,20.532 19.602,20.984 19.337 C 21.548 19.008,21.836 18.650,21.960 18.125 C 22.093 17.562,21.805 16.838,21.320 16.513 C 21.037 16.323,20.812 16.259,20.440 16.263 C 20.064 16.268,19.876 16.332,18.816 16.820 C 18.363 17.029,17.987 17.200,17.980 17.200 C 17.974 17.200,17.957 17.139,17.944 17.065 C 17.908 16.876,17.644 16.481,17.449 16.327 C 17.039 16.002,16.766 15.964,14.810 15.962 L 13.520 15.960 13.520 11.486 L 13.520 7.011 15.310 6.987 C 17.189 6.963,17.348 6.949,17.920 6.759 C 18.271 6.642,18.915 6.308,19.196 6.097 C 19.749 5.681,20.347 4.920,20.625 4.280 C 20.809 3.855,20.950 3.291,20.984 2.847 C 21.017 2.404,20.969 2.236,20.767 2.099 L 20.621 2.000 18.821 2.006 C 17.830 2.009,16.840 2.025,16.620 2.041 M19.940 3.047 C 19.955 3.061,19.928 3.214,19.882 3.387 C 19.630 4.314,18.908 5.210,18.100 5.600 C 17.346 5.964,17.096 5.995,14.910 5.998 L 13.560 6.000 13.560 5.904 C 13.560 5.752,13.717 5.285,13.870 4.980 C 14.235 4.255,14.748 3.733,15.440 3.381 C 15.868 3.164,16.212 3.074,16.740 3.040 C 17.316 3.003,19.902 3.009,19.940 3.047 M9.900 7.116 C 10.813 7.361,11.625 8.005,12.075 8.843 C 12.261 9.189,12.440 9.698,12.440 9.882 L 12.440 10.011 10.690 9.989 C 9.044 9.969,8.923 9.962,8.646 9.880 C 7.625 9.578,6.831 8.937,6.390 8.060 C 6.265 7.810,6.100 7.350,6.063 7.145 L 6.035 6.990 7.807 7.010 C 9.458 7.029,9.602 7.036,9.900 7.116 M7.000 17.980 L 7.000 20.960 5.499 20.960 L 3.997 20.960 3.795 20.857 C 3.511 20.714,3.260 20.469,3.136 20.215 L 3.030 19.998 3.009 17.499 L 2.988 15.000 4.994 15.000 L 7.000 15.000 7.000 17.980 M10.708 15.995 L 11.195 16.023 11.476 16.221 C 12.130 16.684,12.248 16.757,12.468 16.843 C 12.693 16.929,12.759 16.933,14.680 16.959 C 16.877 16.988,16.782 16.976,16.921 17.263 C 17.029 17.486,17.022 17.543,16.855 17.761 L 16.710 17.952 15.045 17.967 C 13.176 17.985,13.172 17.985,13.054 18.269 C 12.974 18.460,13.013 18.646,13.170 18.825 L 13.296 18.969 15.078 18.949 C 16.248 18.936,16.910 18.914,17.007 18.884 C 17.088 18.859,17.276 18.754,17.425 18.652 C 17.698 18.465,18.767 17.932,19.740 17.496 C 20.373 17.213,20.598 17.187,20.793 17.373 C 20.858 17.436,20.934 17.566,20.961 17.664 C 21.003 17.814,21.001 17.866,20.944 18.014 C 20.834 18.303,20.861 18.286,18.775 19.383 C 16.407 20.629,16.120 20.755,15.300 20.906 C 14.876 20.984,13.954 21.016,13.476 20.969 C 13.264 20.949,11.957 20.702,10.572 20.420 L 8.052 19.908 8.026 19.164 C 8.012 18.755,8.000 17.867,8.000 17.190 L 8.000 15.960 9.110 15.963 C 9.720 15.965,10.439 15.979,10.708 15.995 " fill="#EC0000" stroke="none" fill-rule="evenodd"></path></svg>