<svg width="24" height="24" viewBox="0 0 24 24" fill="none" xmlns="http://www.w3.org/2000/svg"><path d="M12.580 1.577 C 11.946 1.682,11.399 1.861,10.824 2.149 C 7.312 3.908,6.406 8.493,8.985 11.459 C 9.857 12.462,11.004 13.122,12.400 13.426 C 12.914 13.538,14.193 13.529,14.727 13.410 C 15.872 13.155,16.839 12.649,17.654 11.878 C 19.387 10.237,19.991 7.791,19.215 5.549 C 18.531 3.571,16.866 2.099,14.788 1.634 C 14.314 1.528,13.065 1.496,12.580 1.577 M14.469 2.596 C 14.984 2.696,15.295 2.802,15.780 3.041 C 16.905 3.596,17.824 4.631,18.254 5.831 C 18.542 6.632,18.616 7.686,18.443 8.517 C 17.954 10.862,15.914 12.520,13.520 12.520 C 11.640 12.520,9.930 11.480,9.069 9.813 C 8.690 9.079,8.520 8.369,8.520 7.520 C 8.520 6.464,8.776 5.607,9.350 4.740 C 10.089 3.626,11.316 2.817,12.620 2.584 C 13.102 2.498,13.995 2.504,14.469 2.596 M13.295 4.077 C 13.031 4.238,13.040 4.168,13.040 5.991 C 13.040 7.805,13.041 7.817,13.279 7.939 C 13.378 7.991,13.646 8.000,15.013 8.000 C 16.591 8.000,16.632 7.998,16.735 7.916 C 16.859 7.819,16.960 7.640,16.960 7.518 C 16.960 7.377,16.847 7.181,16.723 7.108 C 16.621 7.048,16.462 7.040,15.326 7.040 L 14.044 7.040 14.032 5.690 C 14.019 4.188,14.020 4.196,13.742 4.063 C 13.566 3.980,13.447 3.984,13.295 4.077 M1.737 13.555 C 1.495 13.704,1.500 13.631,1.500 16.700 L 1.500 19.500 1.594 19.800 C 1.833 20.568,2.346 21.096,3.100 21.349 L 3.420 21.457 5.200 21.471 C 7.182 21.487,7.228 21.482,7.389 21.244 C 7.466 21.128,7.480 21.056,7.480 20.761 L 7.480 20.414 9.570 20.826 C 10.720 21.053,11.795 21.273,11.960 21.317 C 12.463 21.448,12.869 21.492,13.580 21.491 C 14.534 21.489,15.230 21.391,15.930 21.158 C 16.285 21.040,20.490 18.890,20.752 18.693 C 21.281 18.293,21.572 17.670,21.484 17.125 C 21.391 16.557,21.125 16.161,20.673 15.918 C 20.446 15.797,20.380 15.782,20.034 15.767 C 19.553 15.747,19.490 15.767,18.384 16.286 C 17.921 16.504,17.519 16.673,17.491 16.662 C 17.463 16.651,17.440 16.614,17.440 16.579 C 17.440 16.437,17.227 16.079,17.038 15.902 C 16.928 15.799,16.735 15.666,16.609 15.607 L 16.380 15.500 14.400 15.480 C 12.138 15.457,12.251 15.474,11.812 15.083 C 11.689 14.973,11.467 14.820,11.320 14.743 C 10.851 14.496,10.719 14.481,9.014 14.481 L 7.488 14.480 7.474 14.121 C 7.461 13.776,7.455 13.756,7.329 13.631 L 7.198 13.500 4.529 13.490 C 1.972 13.480,1.855 13.483,1.737 13.555 M6.480 17.480 L 6.480 20.480 5.108 20.480 C 3.588 20.480,3.409 20.458,3.080 20.235 C 2.981 20.167,2.842 20.036,2.771 19.943 C 2.514 19.607,2.520 19.681,2.520 16.955 L 2.520 14.480 4.500 14.480 L 6.480 14.480 6.480 17.480 M10.663 15.539 C 10.792 15.577,10.971 15.688,11.180 15.860 C 11.356 16.004,11.608 16.176,11.740 16.241 C 12.185 16.462,12.361 16.479,14.332 16.479 C 16.298 16.480,16.296 16.480,16.419 16.719 C 16.514 16.901,16.497 17.109,16.375 17.254 C 16.185 17.482,16.229 17.477,14.476 17.479 L 12.852 17.480 12.716 17.571 C 12.382 17.796,12.460 18.288,12.853 18.437 C 13.010 18.497,16.005 18.495,16.288 18.435 C 16.546 18.380,16.767 18.273,16.983 18.099 C 17.072 18.026,17.711 17.702,18.403 17.377 C 19.437 16.892,19.700 16.784,19.884 16.769 C 20.275 16.738,20.480 16.927,20.480 17.321 C 20.480 17.521,20.406 17.672,20.231 17.825 C 20.157 17.890,19.133 18.441,17.955 19.050 C 15.654 20.239,15.515 20.297,14.692 20.421 C 14.150 20.504,12.982 20.507,12.580 20.427 C 12.426 20.396,11.228 20.153,9.918 19.886 C 8.609 19.619,7.524 19.400,7.508 19.400 C 7.493 19.400,7.480 18.518,7.480 17.440 L 7.480 15.480 8.973 15.480 C 10.171 15.480,10.504 15.492,10.663 15.539 " fill="#EC0000" stroke="none" fill-rule="evenodd"></path></svg>