<svg width="24" height="24" viewBox="0 0 24 24" fill="none" xmlns="http://www.w3.org/2000/svg"><path d="M13.500 2.025 C 12.746 2.106,11.911 2.356,11.248 2.701 C 9.979 3.361,8.944 4.497,8.440 5.786 C 7.822 7.365,7.870 9.051,8.576 10.580 C 8.849 11.171,9.427 11.961,9.910 12.403 C 11.167 13.552,12.794 14.119,14.489 13.998 C 16.441 13.859,18.227 12.737,19.234 11.019 C 19.634 10.336,19.928 9.438,20.002 8.678 C 20.185 6.790,19.593 5.112,18.282 3.797 C 17.384 2.897,16.226 2.291,15.040 2.101 C 14.646 2.038,13.780 1.995,13.500 2.025 M14.528 3.620 C 14.800 4.004,15.040 4.456,15.260 4.996 C 15.408 5.356,15.435 5.458,15.393 5.485 C 15.364 5.504,14.715 5.519,13.951 5.519 L 12.562 5.520 12.678 5.205 C 12.925 4.537,13.368 3.761,13.800 3.243 L 14.015 2.986 14.172 3.163 C 14.259 3.260,14.419 3.466,14.528 3.620 M12.429 3.410 C 12.165 3.864,12.069 4.054,11.908 4.441 C 11.811 4.671,11.683 5.009,11.623 5.190 L 11.513 5.520 10.595 5.520 L 9.677 5.520 9.724 5.430 C 9.749 5.380,9.843 5.241,9.931 5.120 C 10.507 4.337,11.150 3.816,12.040 3.415 C 12.526 3.196,12.553 3.196,12.429 3.410 M15.934 3.383 C 16.594 3.671,17.106 4.020,17.590 4.513 C 17.882 4.810,18.360 5.412,18.360 5.482 C 18.360 5.505,17.983 5.520,17.430 5.520 L 16.500 5.520 16.321 4.990 C 16.223 4.699,16.005 4.186,15.836 3.850 C 15.667 3.514,15.546 3.240,15.568 3.240 C 15.589 3.240,15.754 3.304,15.934 3.383 M11.255 6.750 C 11.215 7.052,11.215 8.994,11.255 9.291 L 11.286 9.521 10.255 9.511 L 9.224 9.500 9.154 9.228 C 9.004 8.647,8.980 7.930,9.084 7.200 C 9.159 6.672,9.196 6.566,9.313 6.548 C 9.372 6.539,9.840 6.529,10.353 6.526 L 11.286 6.520 11.255 6.750 M15.697 6.610 C 15.711 6.660,15.744 7.000,15.769 7.367 C 15.814 8.009,15.773 9.167,15.697 9.430 L 15.671 9.520 13.999 9.520 L 12.327 9.520 12.275 9.230 C 12.242 9.046,12.223 8.603,12.223 8.020 C 12.223 7.437,12.242 6.994,12.275 6.810 L 12.327 6.520 13.999 6.520 L 15.671 6.520 15.697 6.610 M18.840 6.530 C 18.840 6.535,18.875 6.720,18.917 6.940 C 19.070 7.737,19.063 8.450,18.894 9.219 L 18.828 9.520 17.771 9.520 L 16.714 9.520 16.744 9.290 C 16.784 8.989,16.784 7.046,16.745 6.750 L 16.714 6.520 17.777 6.520 C 18.362 6.520,18.840 6.525,18.840 6.530 M11.675 10.992 C 11.837 11.450,12.266 12.367,12.441 12.630 C 12.516 12.743,12.519 12.760,12.462 12.760 C 12.365 12.760,11.768 12.506,11.518 12.359 C 10.846 11.962,10.190 11.324,9.742 10.630 L 9.671 10.520 10.590 10.520 L 11.509 10.520 11.675 10.992 M15.418 10.610 C 15.203 11.318,14.640 12.340,14.169 12.878 L 14.013 13.055 13.770 12.750 C 13.327 12.192,12.845 11.335,12.641 10.743 L 12.564 10.520 14.005 10.520 L 15.445 10.520 15.418 10.610 M18.274 10.682 C 17.878 11.387,16.925 12.213,16.080 12.583 C 15.453 12.858,15.477 12.874,15.754 12.354 C 15.988 11.913,16.278 11.220,16.423 10.750 L 16.495 10.520 17.430 10.520 L 18.365 10.520 18.274 10.682 M2.413 14.029 C 2.206 14.048,2.060 14.184,2.026 14.390 C 2.012 14.473,2.001 15.787,2.000 17.311 L 2.000 20.083 2.120 20.393 C 2.392 21.098,2.838 21.546,3.552 21.833 L 3.820 21.940 5.740 21.940 C 7.527 21.940,7.667 21.935,7.767 21.868 C 7.917 21.765,8.000 21.528,8.000 21.199 C 8.000 21.046,8.007 20.920,8.015 20.920 C 8.023 20.920,9.134 21.146,10.485 21.421 C 11.835 21.697,13.129 21.942,13.360 21.966 C 13.897 22.022,14.929 21.982,15.480 21.885 C 16.300 21.740,16.519 21.659,17.680 21.068 C 18.960 20.417,20.300 19.720,20.837 19.426 C 21.487 19.071,21.817 18.703,21.941 18.196 C 22.136 17.399,21.665 16.531,20.920 16.313 C 20.648 16.233,20.184 16.252,19.890 16.354 C 19.753 16.402,19.269 16.612,18.814 16.821 C 18.360 17.030,17.985 17.197,17.981 17.191 C 17.978 17.185,17.953 17.105,17.927 17.014 C 17.858 16.773,17.564 16.397,17.327 16.244 C 16.942 15.997,16.923 15.995,14.820 15.963 C 13.387 15.940,12.865 15.919,12.760 15.880 C 12.683 15.851,12.479 15.715,12.307 15.578 C 11.846 15.211,11.572 15.085,11.139 15.039 C 10.941 15.018,10.155 15.001,9.390 15.001 L 8.000 15.000 7.999 14.730 C 7.999 14.553,7.972 14.403,7.923 14.295 C 7.780 13.980,7.969 13.999,5.121 14.007 C 3.723 14.011,2.505 14.021,2.413 14.029 M7.000 17.980 L 7.000 20.960 5.494 20.960 C 4.014 20.960,3.986 20.959,3.809 20.870 C 3.547 20.739,3.302 20.508,3.157 20.255 L 3.030 20.034 3.009 17.517 L 2.988 15.000 4.994 15.000 L 7.000 15.000 7.000 17.980 M11.206 16.052 C 11.280 16.083,11.502 16.230,11.700 16.378 C 12.083 16.666,12.322 16.801,12.580 16.879 C 12.689 16.912,13.362 16.937,14.700 16.957 C 16.874 16.989,16.782 16.976,16.921 17.263 C 17.029 17.486,17.022 17.543,16.855 17.761 L 16.710 17.952 15.045 17.967 C 13.176 17.985,13.172 17.985,13.054 18.269 C 12.974 18.460,13.012 18.646,13.169 18.825 L 13.295 18.967 15.077 18.950 C 16.281 18.937,16.908 18.916,17.007 18.885 C 17.088 18.859,17.276 18.754,17.425 18.652 C 17.698 18.465,18.767 17.932,19.740 17.496 C 20.380 17.209,20.604 17.185,20.797 17.380 C 20.863 17.446,20.938 17.583,20.965 17.685 C 21.010 17.854,21.006 17.885,20.917 18.065 C 20.856 18.187,20.760 18.300,20.660 18.366 C 20.069 18.756,16.366 20.628,15.897 20.774 C 15.421 20.922,14.995 20.968,14.090 20.969 L 13.279 20.971 10.640 20.436 L 8.000 19.902 8.000 17.925 L 8.000 15.947 9.536 15.971 C 10.727 15.990,11.102 16.008,11.206 16.052 " fill="#EC0000" stroke="none" fill-rule="evenodd"></path></svg>