<svg width="24" height="25" viewBox="0 0 24 25" fill="none" xmlns="http://www.w3.org/2000/svg"><path d="M11.835 7.562 C 11.611 7.615,11.166 7.801,10.364 8.176 L 9.627 8.520 8.314 8.520 L 7.000 8.520 7.000 8.327 C 7.000 8.221,6.973 8.044,6.940 7.934 C 6.832 7.568,7.032 7.595,4.462 7.608 C 2.322 7.619,2.190 7.624,2.140 7.693 C 2.042 7.828,2.020 8.528,2.020 11.600 C 2.020 14.884,2.023 14.940,2.226 15.355 C 2.369 15.649,2.785 16.079,3.072 16.233 C 3.447 16.432,3.690 16.476,4.575 16.502 C 5.577 16.532,6.568 16.480,6.747 16.387 C 6.898 16.308,6.941 16.193,7.000 15.700 C 7.057 15.225,7.073 15.160,7.129 15.160 C 7.155 15.160,7.591 15.437,8.098 15.776 C 9.240 16.540,9.547 16.716,10.084 16.918 C 11.272 17.365,12.954 17.334,14.102 16.845 C 14.522 16.666,14.887 16.451,15.840 15.821 C 16.752 15.218,16.876 15.142,16.906 15.173 C 16.916 15.183,16.952 15.386,16.985 15.623 C 17.054 16.122,17.113 16.288,17.254 16.380 C 17.404 16.478,18.302 16.533,19.340 16.507 C 20.289 16.484,20.515 16.447,20.880 16.261 C 21.169 16.113,21.636 15.642,21.772 15.360 C 21.970 14.952,21.980 14.749,21.978 11.440 C 21.975 8.432,21.952 7.776,21.842 7.666 C 21.788 7.612,18.355 7.576,17.606 7.621 L 17.152 7.648 17.097 7.782 C 17.066 7.855,17.022 8.172,16.998 8.487 C 16.973 8.825,16.936 9.080,16.907 9.109 C 16.849 9.168,16.510 9.053,14.820 8.401 C 13.340 7.831,12.839 7.658,12.436 7.582 C 12.078 7.514,12.045 7.513,11.835 7.562 M6.000 12.020 L 6.000 15.520 5.130 15.519 C 4.176 15.518,3.796 15.480,3.564 15.362 C 3.361 15.258,3.173 15.037,3.120 14.839 C 3.076 14.677,3.004 11.400,3.001 9.470 L 3.000 8.520 4.500 8.520 L 6.000 8.520 6.000 12.020 M12.630 8.665 C 12.935 8.753,14.273 9.259,16.210 10.021 L 17.000 10.332 17.000 12.051 L 17.000 13.770 16.830 13.614 C 16.520 13.329,14.190 11.266,13.547 10.706 C 12.886 10.131,12.489 9.821,12.363 9.781 C 12.274 9.753,12.147 9.802,11.020 10.301 C 9.491 10.978,9.293 11.013,9.096 10.633 C 8.891 10.237,9.354 9.817,10.813 9.076 C 11.211 8.873,11.637 8.665,11.759 8.614 C 12.011 8.509,12.108 8.514,12.630 8.665 M20.981 10.950 C 20.965 12.287,20.939 13.718,20.922 14.132 C 20.892 14.878,20.891 14.886,20.775 15.052 C 20.641 15.241,20.457 15.378,20.245 15.445 C 20.160 15.471,19.666 15.498,19.050 15.509 L 18.000 15.529 18.000 12.024 L 18.000 8.520 19.505 8.520 L 21.010 8.520 20.981 10.950 M8.192 9.554 C 8.233 9.580,8.222 9.653,8.137 9.904 C 7.936 10.504,8.052 11.037,8.478 11.470 C 8.764 11.761,8.981 11.854,9.421 11.873 C 9.741 11.887,9.823 11.875,10.141 11.768 C 10.338 11.702,10.836 11.494,11.246 11.308 C 11.656 11.121,12.030 10.956,12.078 10.941 C 12.139 10.921,12.213 10.945,12.323 11.017 C 12.612 11.208,14.616 12.958,15.592 13.871 L 16.084 14.331 15.992 14.429 C 15.721 14.720,14.510 15.540,13.934 15.822 C 13.301 16.132,13.088 16.170,11.980 16.175 L 11.020 16.180 10.620 16.045 C 9.905 15.804,9.486 15.550,7.790 14.325 L 7.000 13.754 7.000 11.637 L 7.000 9.520 7.570 9.521 C 7.884 9.521,8.163 9.536,8.192 9.554 " fill="#EC0000" stroke="none" fill-rule="evenodd"></path></svg>