<svg width="25" height="25" viewBox="0 0 25 25" fill="none" xmlns="http://www.w3.org/2000/svg"><path d="M10.194 3.044 C 8.993 3.211,7.807 4.146,7.327 5.307 C 7.127 5.789,7.085 6.041,7.084 6.758 C 7.083 7.347,7.094 7.447,7.192 7.758 C 7.500 8.742,8.059 9.472,8.885 9.966 L 9.167 10.134 9.167 11.189 L 9.167 12.243 9.010 12.200 C 8.919 12.174,8.692 12.167,8.466 12.181 C 8.152 12.202,8.037 12.228,7.869 12.320 C 7.606 12.463,7.213 12.881,7.069 13.170 L 6.958 13.391 6.959 15.289 C 6.959 17.891,7.003 18.428,7.286 19.257 C 7.933 21.155,9.568 22.529,11.625 22.902 C 12.163 22.999,13.673 23.001,14.274 22.905 C 15.072 22.777,15.885 22.455,16.583 21.989 C 16.979 21.724,17.751 20.948,18.016 20.548 C 18.431 19.923,18.770 19.101,18.871 18.479 C 18.950 17.987,18.999 17.067,18.999 16.063 C 18.999 14.529,18.928 14.190,18.515 13.748 C 18.169 13.378,18.074 13.343,17.351 13.309 L 16.722 13.280 16.627 13.079 C 16.508 12.829,16.069 12.402,15.804 12.280 C 15.633 12.201,15.532 12.187,15.104 12.187 C 14.829 12.187,14.583 12.173,14.556 12.156 C 14.530 12.139,14.452 12.027,14.383 11.906 C 14.039 11.303,13.391 10.989,12.690 11.086 C 12.554 11.105,12.427 11.111,12.409 11.099 C 12.390 11.088,12.375 10.866,12.375 10.606 L 12.375 10.133 12.594 10.009 C 13.410 9.548,14.050 8.752,14.379 7.792 C 14.457 7.563,14.475 7.406,14.490 6.787 L 14.508 6.054 14.375 5.662 C 14.085 4.807,13.630 4.182,12.931 3.682 C 12.589 3.437,12.051 3.191,11.667 3.105 C 11.286 3.020,10.580 2.991,10.194 3.044 M11.521 4.097 C 12.096 4.302,12.562 4.604,12.863 4.967 C 13.334 5.535,13.523 6.102,13.489 6.852 C 13.463 7.428,13.360 7.766,13.085 8.175 C 12.863 8.506,12.478 8.909,12.430 8.861 C 12.414 8.845,12.393 8.236,12.383 7.509 L 12.366 6.188 12.238 5.945 C 12.079 5.643,11.794 5.341,11.521 5.183 C 11.320 5.067,11.292 5.063,10.770 5.063 L 10.227 5.063 10.011 5.202 C 9.891 5.278,9.694 5.448,9.572 5.580 C 9.221 5.960,9.205 6.039,9.167 7.575 C 9.149 8.292,9.126 8.888,9.115 8.899 C 9.081 8.933,8.621 8.413,8.450 8.149 C 8.209 7.777,8.117 7.441,8.095 6.854 C 8.062 6.022,8.251 5.487,8.779 4.917 C 9.232 4.428,9.777 4.117,10.312 4.041 C 10.649 3.993,11.315 4.024,11.521 4.097 M11.125 6.120 C 11.338 6.273,11.333 6.201,11.372 9.591 C 11.395 11.537,11.425 12.813,11.451 12.879 C 11.496 12.994,11.722 13.125,11.875 13.125 C 12.075 13.125,12.243 13.000,12.316 12.798 C 12.509 12.267,12.564 12.181,12.763 12.105 C 12.924 12.043,12.975 12.041,13.111 12.085 C 13.503 12.214,13.530 12.281,13.578 13.258 C 13.614 14.012,13.627 14.054,13.863 14.152 C 14.037 14.225,14.144 14.223,14.311 14.144 C 14.451 14.077,14.529 13.940,14.621 13.598 C 14.691 13.339,14.906 13.167,15.158 13.167 C 15.425 13.167,15.648 13.316,15.704 13.532 C 15.726 13.617,15.765 13.983,15.790 14.345 C 15.815 14.706,15.853 15.045,15.873 15.099 C 15.916 15.212,16.123 15.308,16.326 15.308 C 16.530 15.308,16.726 15.085,16.789 14.782 C 16.868 14.403,17.186 14.197,17.544 14.293 C 17.771 14.353,17.887 14.504,17.921 14.782 C 17.963 15.114,17.962 16.701,17.919 17.625 C 17.889 18.286,17.867 18.446,17.771 18.750 C 17.533 19.496,17.116 20.172,16.569 20.697 C 15.548 21.677,14.355 22.061,12.583 21.979 C 12.251 21.964,11.846 21.926,11.684 21.896 C 10.244 21.624,9.038 20.679,8.395 19.322 C 8.097 18.693,8.080 18.590,8.040 17.188 C 8.021 16.500,8.004 15.392,8.003 14.724 C 8.000 13.578,8.005 13.506,8.082 13.407 C 8.265 13.175,8.658 13.098,8.901 13.247 C 8.989 13.300,9.054 13.390,9.099 13.517 C 9.136 13.622,9.195 13.788,9.229 13.885 C 9.302 14.096,9.397 14.163,9.663 14.195 C 9.841 14.216,9.875 14.206,10.008 14.089 L 10.155 13.960 10.180 10.282 C 10.194 8.259,10.223 6.523,10.244 6.423 C 10.289 6.208,10.350 6.139,10.567 6.060 C 10.756 5.991,10.977 6.015,11.125 6.120 " fill="#EC0000" stroke="none" fill-rule="evenodd"></path></svg>