<svg width="24" height="25" viewBox="0 0 24 25" fill="none" xmlns="http://www.w3.org/2000/svg"><path d="M2.972 2.595 C 2.479 2.611,2.187 2.636,2.158 2.666 C 2.133 2.691,2.096 2.826,2.075 2.966 C 2.019 3.352,1.991 9.841,2.030 13.160 C 2.071 16.551,2.049 16.361,2.405 16.437 C 2.547 16.468,3.596 16.491,5.549 16.508 L 8.480 16.533 8.480 16.877 C 8.481 18.206,8.757 19.303,9.292 20.100 C 10.049 21.227,11.087 21.981,12.384 22.346 C 12.776 22.456,12.791 22.457,13.980 22.459 C 15.171 22.460,15.183 22.459,15.565 22.350 C 16.871 21.977,17.520 21.543,18.485 20.400 C 19.101 19.669,19.517 18.293,19.519 16.975 L 19.520 16.530 20.510 16.510 C 21.592 16.488,21.753 16.460,21.896 16.267 L 21.980 16.154 21.972 9.787 C 21.968 6.285,21.953 3.273,21.939 3.093 C 21.897 2.561,22.422 2.622,17.742 2.607 L 13.677 2.594 13.289 2.801 C 12.853 3.033,12.604 3.210,12.246 3.541 L 12.002 3.766 11.687 3.489 C 11.036 2.915,10.640 2.704,10.100 2.642 C 9.683 2.594,4.119 2.558,2.972 2.595 M10.359 3.734 C 10.704 3.955,11.030 4.280,11.249 4.621 L 11.429 4.900 11.456 5.741 L 11.484 6.582 11.219 6.776 C 10.930 6.988,10.676 7.298,10.603 7.526 C 10.519 7.790,10.483 8.712,10.481 10.645 L 10.480 12.549 10.010 12.578 C 9.482 12.611,9.379 12.644,9.112 12.865 C 8.601 13.290,8.521 13.525,8.491 14.690 L 8.469 15.520 5.735 15.520 L 3.000 15.520 3.000 9.517 L 3.000 3.515 6.550 3.542 L 10.100 3.569 10.359 3.734 M21.000 9.520 L 21.000 15.520 20.260 15.520 L 19.520 15.520 19.520 15.318 C 19.520 15.055,19.413 14.542,19.320 14.360 C 19.279 14.281,19.122 14.098,18.969 13.954 C 18.646 13.649,18.557 13.618,17.893 13.577 C 17.451 13.549,17.445 13.547,17.399 13.437 C 17.330 13.272,16.805 12.758,16.620 12.677 C 16.511 12.629,16.298 12.597,15.956 12.578 L 15.451 12.550 15.381 12.430 C 15.255 12.218,14.799 11.767,14.627 11.685 C 14.506 11.628,14.330 11.598,13.990 11.578 L 13.520 11.550 13.519 10.125 C 13.518 8.711,13.479 7.852,13.401 7.565 C 13.334 7.315,13.124 7.046,12.811 6.807 L 12.513 6.580 12.540 5.949 C 12.571 5.203,12.610 4.895,12.696 4.713 C 12.846 4.397,13.381 3.862,13.740 3.668 C 13.896 3.584,13.948 3.582,16.020 3.559 C 17.186 3.546,18.784 3.532,19.570 3.528 L 21.000 3.520 21.000 9.520 M4.303 5.639 C 4.092 5.680,4.029 5.773,4.051 6.011 C 4.072 6.238,4.186 6.380,4.397 6.442 C 4.568 6.491,9.066 6.546,9.412 6.503 C 9.604 6.479,9.670 6.449,9.802 6.323 C 9.940 6.191,9.960 6.150,9.960 5.994 C 9.960 5.746,9.894 5.673,9.636 5.636 C 9.357 5.597,4.510 5.600,4.303 5.639 M14.303 5.639 C 14.092 5.680,14.029 5.773,14.051 6.011 C 14.072 6.238,14.186 6.380,14.397 6.442 C 14.568 6.491,19.066 6.546,19.412 6.503 C 19.604 6.479,19.670 6.449,19.802 6.323 C 19.940 6.191,19.960 6.150,19.960 5.994 C 19.960 5.746,19.894 5.673,19.636 5.636 C 19.357 5.597,14.510 5.600,14.303 5.639 M12.260 7.626 C 12.407 7.773,12.404 7.712,12.481 12.100 C 12.502 13.310,12.531 14.507,12.546 14.759 C 12.570 15.191,12.579 15.225,12.683 15.329 C 12.868 15.515,13.261 15.471,13.373 15.252 C 13.456 15.089,13.475 14.928,13.538 13.838 C 13.569 13.298,13.616 12.809,13.642 12.752 C 13.699 12.626,13.834 12.560,14.033 12.560 C 14.225 12.560,14.343 12.644,14.375 12.805 C 14.389 12.876,14.419 13.241,14.441 13.617 C 14.503 14.666,14.558 15.171,14.622 15.269 C 14.738 15.446,14.992 15.503,15.230 15.404 C 15.387 15.339,15.462 15.159,15.498 14.760 C 15.574 13.908,15.639 13.640,15.782 13.585 C 15.995 13.503,16.383 13.614,16.418 13.767 C 16.430 13.818,16.458 14.119,16.480 14.436 C 16.528 15.095,16.598 15.316,16.795 15.417 C 17.070 15.560,17.252 15.453,17.497 15.005 C 17.728 14.585,17.772 14.547,18.009 14.570 C 18.316 14.599,18.414 14.697,18.447 15.004 C 18.481 15.323,18.414 17.743,18.358 18.192 C 18.300 18.663,18.021 19.313,17.660 19.820 C 17.486 20.063,16.977 20.578,16.720 20.769 C 16.506 20.928,16.036 21.152,15.553 21.324 L 15.116 21.480 13.981 21.480 L 12.846 21.480 12.493 21.355 C 11.136 20.877,10.284 20.062,9.741 18.722 L 9.570 18.300 9.555 16.020 L 9.540 13.740 9.718 13.650 C 9.917 13.550,10.066 13.537,10.218 13.607 C 10.393 13.686,10.415 13.859,10.483 15.736 C 10.531 17.076,10.551 17.222,10.701 17.351 C 10.791 17.428,10.846 17.442,11.030 17.432 C 11.320 17.416,11.395 17.322,11.442 16.915 C 11.460 16.753,11.495 15.000,11.519 13.020 C 11.543 11.040,11.579 9.046,11.598 8.588 C 11.641 7.585,11.650 7.560,11.978 7.560 C 12.126 7.560,12.215 7.581,12.260 7.626 M4.303 8.639 C 4.092 8.680,4.029 8.773,4.051 9.011 C 4.072 9.238,4.186 9.380,4.397 9.442 C 4.568 9.491,9.066 9.546,9.412 9.503 C 9.604 9.479,9.670 9.449,9.802 9.323 C 9.940 9.191,9.960 9.150,9.960 8.994 C 9.960 8.746,9.894 8.673,9.636 8.636 C 9.357 8.597,4.510 8.600,4.303 8.639 M14.303 8.639 C 14.092 8.680,14.029 8.773,14.051 9.011 C 14.072 9.238,14.186 9.380,14.397 9.442 C 14.568 9.491,19.066 9.546,19.412 9.503 C 19.604 9.479,19.670 9.449,19.802 9.323 C 19.940 9.191,19.960 9.150,19.960 8.994 C 19.960 8.746,19.894 8.673,19.636 8.636 C 19.357 8.597,14.510 8.600,14.303 8.639 " fill="#EC0000" stroke="none" fill-rule="evenodd"></path></svg>