<svg width="24" height="25" viewBox="0 0 24 25" fill="none" xmlns="http://www.w3.org/2000/svg"><path d="M11.140 2.604 C 10.247 2.733,9.313 3.185,8.661 3.804 C 8.246 4.198,7.997 4.538,7.738 5.060 C 7.416 5.712,7.310 6.156,7.304 6.880 C 7.300 7.392,7.310 7.481,7.384 7.640 C 7.511 7.910,7.774 8.181,8.028 8.306 C 8.376 8.476,8.689 8.458,9.820 8.202 C 10.804 7.980,11.323 7.924,12.453 7.921 C 12.938 7.920,13.002 7.930,13.646 8.103 C 14.845 8.425,15.456 8.506,15.860 8.396 C 16.094 8.333,16.521 7.889,16.631 7.594 C 16.811 7.113,16.771 6.526,16.500 5.697 C 16.254 4.946,15.943 4.424,15.423 3.886 C 14.729 3.170,13.828 2.736,12.752 2.601 C 12.367 2.553,11.485 2.555,11.140 2.604 M13.250 3.695 C 13.962 3.893,14.726 4.474,15.135 5.129 C 15.503 5.720,15.650 6.185,15.703 6.924 L 15.730 7.308 15.586 7.418 L 15.441 7.529 14.451 7.286 C 12.956 6.921,13.094 6.940,11.940 6.942 C 10.953 6.944,10.875 6.950,10.400 7.056 C 9.345 7.291,8.773 7.399,8.588 7.400 C 8.407 7.400,8.393 7.392,8.338 7.261 C 8.264 7.083,8.265 6.889,8.343 6.478 C 8.512 5.588,8.987 4.767,9.602 4.305 C 9.932 4.057,10.596 3.732,10.920 3.659 C 11.285 3.578,12.918 3.603,13.250 3.695 M10.860 9.085 C 10.039 9.162,8.930 9.460,8.343 9.761 C 7.835 10.021,7.536 10.256,6.956 10.851 L 6.411 11.409 5.996 11.130 C 5.550 10.831,5.278 10.680,5.186 10.680 C 5.070 10.680,4.415 10.888,3.728 11.144 C 2.835 11.477,2.144 11.806,2.056 11.940 C 1.934 12.126,2.077 12.460,2.323 12.561 C 2.485 12.628,2.577 12.605,3.800 12.177 C 4.328 11.992,4.829 11.830,4.914 11.816 C 5.093 11.788,5.160 11.818,5.711 12.171 L 6.089 12.414 6.064 12.595 C 6.050 12.695,6.028 13.229,6.013 13.782 L 5.988 14.786 5.844 14.735 C 5.765 14.707,5.661 14.683,5.613 14.682 C 5.335 14.676,3.082 15.633,2.891 15.837 C 2.722 16.019,2.760 16.283,2.986 16.497 C 3.140 16.643,3.242 16.624,4.160 16.274 C 5.412 15.798,5.455 15.785,5.589 15.855 C 5.792 15.959,6.111 16.276,6.201 16.462 C 6.295 16.656,6.573 17.593,6.618 17.866 C 6.644 18.021,6.637 18.038,6.513 18.130 C 6.440 18.184,6.031 18.416,5.603 18.644 C 4.713 19.121,4.520 19.273,4.520 19.495 C 4.520 19.619,4.551 19.673,4.707 19.825 C 4.861 19.975,4.914 20.003,5.003 19.985 C 5.146 19.957,5.785 19.668,6.522 19.299 L 7.119 19.000 7.225 19.210 C 7.642 20.038,8.643 21.210,9.314 21.656 C 10.390 22.371,11.758 22.636,12.965 22.364 C 14.040 22.121,14.624 21.786,15.480 20.924 C 15.995 20.405,16.380 19.904,16.701 19.334 L 16.885 19.007 17.759 19.436 C 18.240 19.672,18.732 19.898,18.853 19.940 L 19.074 20.015 19.257 19.865 C 19.462 19.697,19.504 19.590,19.453 19.372 C 19.412 19.197,19.329 19.143,18.101 18.490 C 17.684 18.268,17.336 18.067,17.328 18.043 C 17.320 18.020,17.417 17.627,17.543 17.170 C 17.797 16.250,17.775 16.288,18.254 15.960 C 18.530 15.772,18.478 15.766,19.280 16.070 C 20.665 16.594,20.923 16.650,21.075 16.458 C 21.283 16.193,21.266 15.965,21.025 15.781 C 20.785 15.598,19.026 14.839,18.548 14.713 C 18.384 14.670,18.330 14.672,18.178 14.726 L 18.000 14.790 17.999 14.125 C 17.999 13.759,17.982 13.246,17.961 12.983 C 17.939 12.703,17.939 12.479,17.960 12.440 C 18.026 12.316,18.843 11.800,18.972 11.800 C 19.038 11.800,19.634 11.983,20.296 12.207 C 21.607 12.651,21.621 12.653,21.834 12.440 C 22.073 12.201,22.023 11.927,21.707 11.742 C 21.234 11.465,19.160 10.720,18.861 10.720 C 18.643 10.720,18.553 10.763,18.011 11.126 C 17.787 11.277,17.585 11.400,17.564 11.400 C 17.543 11.400,17.388 11.238,17.221 11.041 C 16.744 10.479,16.246 10.085,15.609 9.764 C 14.656 9.285,14.041 9.156,12.360 9.081 C 11.366 9.037,11.371 9.037,10.860 9.085 M13.000 10.124 C 14.320 10.207,15.112 10.484,15.887 11.131 C 16.273 11.454,16.701 12.123,16.821 12.593 C 16.876 12.806,16.883 13.047,16.871 14.172 C 16.857 15.434,16.850 15.526,16.746 16.034 C 16.279 18.294,15.341 19.965,14.057 20.823 C 13.659 21.088,13.376 21.216,12.882 21.351 C 12.366 21.492,11.626 21.500,11.131 21.370 C 10.465 21.195,9.930 20.883,9.366 20.343 C 8.529 19.539,7.855 18.351,7.497 17.045 C 7.206 15.986,7.077 15.016,7.078 13.900 C 7.079 12.927,7.139 12.585,7.403 12.048 C 7.650 11.545,7.977 11.180,8.453 10.874 C 9.053 10.489,9.854 10.219,10.680 10.124 C 10.889 10.100,11.114 10.073,11.180 10.065 C 11.336 10.046,12.214 10.074,13.000 10.124 " fill="#EC0000" stroke="none" fill-rule="evenodd"></path></svg>