<svg width="24" height="24" viewBox="0 0 24 24" fill="none" xmlns="http://www.w3.org/2000/svg"><path d="M8.200 2.038 C 8.145 2.055,7.931 2.153,7.724 2.257 C 6.159 3.045,4.731 4.316,3.736 5.807 C 2.168 8.156,1.637 11.062,2.263 13.859 C 2.386 14.405,2.696 15.338,2.921 15.840 C 3.966 18.163,5.900 20.090,8.203 21.102 C 11.365 22.492,15.026 22.240,17.940 20.431 C 19.228 19.631,20.498 18.371,21.298 17.098 C 21.603 16.614,21.953 15.896,21.981 15.700 C 22.010 15.493,21.894 15.299,21.689 15.213 C 21.519 15.142,21.436 15.161,20.569 15.475 C 20.037 15.669,19.497 15.810,18.850 15.925 C 18.152 16.049,16.673 16.048,15.947 15.923 C 14.270 15.634,12.791 14.981,11.500 13.960 C 10.733 13.354,9.810 12.288,9.294 11.412 C 8.640 10.301,8.187 8.944,8.038 7.646 C 7.965 7.010,8.008 5.585,8.119 4.960 C 8.227 4.352,8.429 3.636,8.644 3.101 C 8.848 2.592,8.871 2.423,8.761 2.248 C 8.716 2.175,8.616 2.089,8.540 2.058 C 8.389 1.994,8.348 1.992,8.200 2.038 M7.300 3.976 C 7.247 4.170,7.167 4.547,7.122 4.814 C 6.750 7.050,7.055 9.174,8.037 11.180 C 9.050 13.250,10.718 14.924,12.770 15.933 C 13.516 16.300,14.112 16.520,14.900 16.720 C 15.854 16.962,16.322 17.018,17.360 17.016 C 18.336 17.014,18.925 16.954,19.700 16.777 C 20.357 16.627,20.360 16.627,20.360 16.669 C 20.360 16.751,19.831 17.439,19.446 17.859 C 18.192 19.224,16.973 20.009,15.249 20.560 C 14.138 20.916,13.031 21.044,11.770 20.964 C 9.942 20.848,8.116 20.151,6.640 19.006 C 6.216 18.677,5.415 17.883,5.080 17.460 C 4.111 16.236,3.481 14.854,3.153 13.236 C 3.068 12.818,3.060 12.678,3.061 11.560 C 3.062 10.203,3.091 9.962,3.385 8.944 C 3.928 7.057,5.083 5.339,6.613 4.144 C 6.987 3.852,7.364 3.591,7.384 3.611 C 7.391 3.618,7.353 3.782,7.300 3.976 " fill="#444444" stroke="none" fill-rule="evenodd"></path></svg>