<svg width="26" height="26" viewBox="0 0 26 26" fill="none" xmlns="http://www.w3.org/2000/svg"><path d="M12.734 2.254 C 12.635 2.306,12.556 2.390,12.522 2.479 C 12.460 2.639,12.405 5.616,12.456 5.961 C 12.494 6.208,12.690 6.443,12.891 6.481 C 12.989 6.499,13.096 6.481,13.229 6.422 C 13.539 6.285,13.542 6.267,13.542 4.333 C 13.542 2.418,13.537 2.383,13.244 2.250 C 13.020 2.148,12.933 2.149,12.734 2.254 M5.355 5.346 C 5.214 5.479,5.200 5.513,5.200 5.729 L 5.200 5.966 6.449 7.203 C 7.136 7.884,7.764 8.474,7.843 8.515 C 8.226 8.713,8.711 8.223,8.513 7.839 C 8.473 7.762,7.884 7.136,7.203 6.449 L 5.966 5.200 5.738 5.200 C 5.538 5.200,5.490 5.218,5.355 5.346 M18.797 6.449 C 18.116 7.136,17.526 7.764,17.485 7.843 C 17.389 8.029,17.451 8.265,17.636 8.421 C 17.838 8.591,18.002 8.608,18.196 8.480 C 18.409 8.338,19.973 6.811,20.439 6.290 C 20.744 5.948,20.800 5.862,20.800 5.735 C 20.800 5.415,20.561 5.200,20.204 5.200 C 20.038 5.200,20.001 5.233,18.797 6.449 M12.328 7.629 C 10.565 7.869,8.971 8.987,8.191 10.530 C 7.988 10.931,7.792 11.480,7.688 11.938 C 7.578 12.425,7.578 13.575,7.688 14.062 C 8.127 15.994,9.415 17.466,11.231 18.106 C 11.878 18.334,12.211 18.387,13.000 18.387 C 13.789 18.387,14.122 18.334,14.769 18.106 C 16.543 17.480,17.779 16.108,18.274 14.213 C 18.368 13.854,18.382 13.705,18.385 13.043 C 18.389 12.227,18.360 12.024,18.147 11.353 C 17.551 9.476,15.949 8.065,13.995 7.694 C 13.537 7.607,12.725 7.576,12.328 7.629 M14.099 8.814 C 15.523 9.210,16.641 10.278,17.121 11.700 C 17.247 12.075,17.261 12.172,17.280 12.783 C 17.292 13.183,17.280 13.584,17.251 13.775 C 17.185 14.196,16.963 14.778,16.700 15.217 C 16.439 15.655,15.820 16.313,15.424 16.577 C 13.408 17.917,10.750 17.396,9.421 15.400 C 9.153 14.998,8.980 14.635,8.834 14.170 C 8.741 13.875,8.732 13.766,8.732 13.000 C 8.732 12.032,8.772 11.842,9.135 11.096 C 9.685 9.964,10.648 9.174,11.917 8.815 C 12.257 8.719,12.344 8.712,13.065 8.727 C 13.609 8.739,13.922 8.765,14.099 8.814 M2.634 12.510 C 2.473 12.524,2.408 12.555,2.320 12.659 C 2.117 12.900,2.122 13.117,2.335 13.356 C 2.446 13.479,2.493 13.497,2.779 13.526 C 3.260 13.574,5.892 13.570,6.064 13.521 C 6.260 13.465,6.449 13.277,6.481 13.110 C 6.513 12.939,6.392 12.626,6.267 12.555 C 6.200 12.516,5.728 12.501,4.507 12.497 C 3.589 12.494,2.747 12.500,2.634 12.510 M19.968 12.510 C 19.806 12.524,19.741 12.555,19.654 12.659 C 19.451 12.900,19.455 13.117,19.669 13.356 C 19.779 13.479,19.827 13.497,20.112 13.526 C 20.593 13.574,23.226 13.570,23.397 13.521 C 23.593 13.465,23.783 13.277,23.814 13.110 C 23.846 12.939,23.726 12.626,23.601 12.555 C 23.533 12.516,23.061 12.501,21.840 12.497 C 20.922 12.494,20.080 12.500,19.968 12.510 M6.541 18.705 C 5.831 19.423,5.273 20.023,5.230 20.114 C 5.074 20.448,5.347 20.800,5.762 20.800 L 5.965 20.800 7.199 19.554 C 7.950 18.795,8.463 18.243,8.510 18.141 C 8.579 17.994,8.581 17.956,8.530 17.821 C 8.449 17.607,8.282 17.496,8.008 17.474 L 7.778 17.455 6.541 18.705 M17.677 17.562 C 17.594 17.617,17.504 17.730,17.469 17.824 C 17.414 17.969,17.414 18.005,17.474 18.131 C 17.551 18.291,19.034 19.826,19.683 20.416 C 20.057 20.757,20.123 20.800,20.268 20.800 C 20.469 20.800,20.701 20.665,20.758 20.515 C 20.781 20.454,20.800 20.323,20.800 20.223 C 20.800 20.042,20.791 20.032,19.511 18.752 L 18.221 17.463 18.022 17.463 C 17.887 17.463,17.776 17.495,17.677 17.562 M12.734 19.587 C 12.635 19.639,12.556 19.724,12.522 19.813 C 12.460 19.972,12.405 22.950,12.456 23.294 C 12.494 23.542,12.690 23.777,12.891 23.814 C 12.989 23.833,13.096 23.814,13.229 23.755 C 13.539 23.618,13.542 23.600,13.542 21.667 C 13.542 19.751,13.537 19.716,13.244 19.583 C 13.020 19.482,12.933 19.482,12.734 19.587 " fill="#222222" stroke="none" fill-rule="evenodd"></path></svg>