<svg width="24" height="25" viewBox="0 0 24 25" fill="none" xmlns="http://www.w3.org/2000/svg"><path d="M19.680 3.135 C 19.460 3.299,17.478 5.239,13.980 8.716 C 12.528 10.159,10.752 11.924,10.033 12.637 L 8.726 13.933 8.309 13.747 C 7.597 13.429,7.633 13.436,6.528 13.388 C 5.341 13.337,5.369 13.333,4.620 13.697 C 3.764 14.114,3.163 14.618,2.716 15.296 C 2.280 15.958,2.027 16.827,2.029 17.660 C 2.030 18.365,2.165 18.896,2.514 19.579 C 2.975 20.480,3.657 21.131,4.607 21.578 C 5.300 21.903,5.594 21.958,6.640 21.959 C 7.204 21.960,7.230 21.956,7.594 21.821 C 8.416 21.514,8.932 21.193,9.465 20.657 C 10.016 20.103,10.404 19.434,10.609 18.687 C 10.681 18.426,10.694 18.264,10.696 17.600 C 10.699 16.820,10.699 16.820,10.569 16.446 C 10.379 15.900,10.207 15.554,9.886 15.069 C 9.729 14.832,9.600 14.626,9.600 14.611 C 9.600 14.572,14.691 9.475,15.252 8.953 L 15.723 8.514 15.872 8.642 C 15.953 8.712,16.560 9.279,17.220 9.900 C 18.866 11.450,18.818 11.411,19.039 11.387 C 19.179 11.372,19.245 11.337,19.349 11.225 C 19.422 11.145,19.480 11.038,19.480 10.984 C 19.480 10.806,19.112 10.396,17.385 8.653 L 16.467 7.726 16.671 7.493 C 16.783 7.365,17.182 6.954,17.557 6.580 L 18.240 5.901 19.010 6.663 C 19.979 7.622,20.687 8.296,21.072 8.624 C 21.321 8.836,21.397 8.880,21.517 8.880 C 21.767 8.880,21.960 8.669,21.960 8.396 C 21.960 8.250,21.890 8.174,20.065 6.333 L 18.947 5.206 19.516 4.613 C 20.092 4.014,20.400 3.616,20.400 3.473 C 20.400 3.430,20.381 3.359,20.358 3.316 C 20.304 3.215,20.007 3.000,19.924 3.001 C 19.889 3.002,19.779 3.062,19.680 3.135 M7.143 14.403 C 7.449 14.458,8.109 14.774,8.435 15.021 C 8.881 15.359,9.306 15.964,9.545 16.600 C 9.653 16.888,9.657 16.928,9.657 17.620 C 9.658 18.336,9.657 18.342,9.527 18.685 C 9.170 19.627,8.410 20.425,7.534 20.779 C 7.178 20.923,6.452 20.991,5.909 20.932 C 4.670 20.798,3.484 19.728,3.157 18.449 C 3.062 18.075,3.053 17.346,3.140 16.895 C 3.280 16.163,3.840 15.341,4.505 14.890 C 5.122 14.472,5.487 14.365,6.303 14.362 C 6.634 14.361,7.012 14.379,7.143 14.403 " fill="#EC0000" stroke="none" fill-rule="evenodd"></path></svg>