<svg width="24" height="24" viewBox="0 0 24 24" fill="none" xmlns="http://www.w3.org/2000/svg"><path d="M7.140 2.036 C 6.942 2.049,6.740 2.083,6.691 2.111 C 6.502 2.219,6.500 2.264,6.500 6.100 C 6.500 10.062,6.499 10.037,6.743 10.538 C 7.180 11.435,7.940 11.935,8.940 11.984 C 9.602 12.017,9.780 12.060,9.889 12.213 L 9.980 12.340 10.001 16.380 L 10.023 20.420 10.120 20.671 C 10.325 21.202,10.794 21.666,11.346 21.884 C 11.538 21.959,11.656 21.976,12.000 21.976 C 12.344 21.976,12.462 21.959,12.654 21.884 C 13.206 21.666,13.675 21.202,13.880 20.671 L 13.977 20.420 13.999 16.380 L 14.020 12.340 14.111 12.213 C 14.220 12.060,14.398 12.017,15.060 11.984 C 16.061 11.935,16.820 11.435,17.258 10.535 C 17.499 10.041,17.500 10.031,17.500 6.020 C 17.500 2.442,17.499 2.378,17.419 2.243 C 17.373 2.165,17.287 2.088,17.219 2.065 C 17.088 2.021,7.762 1.994,7.140 2.036 M8.486 4.312 C 8.502 5.764,8.500 5.756,8.772 5.922 C 8.934 6.020,9.066 6.020,9.228 5.922 C 9.500 5.756,9.498 5.764,9.514 4.312 L 9.529 3.000 10.000 3.000 L 10.472 3.000 10.486 4.790 C 10.500 6.482,10.505 6.589,10.580 6.738 C 10.641 6.858,10.700 6.909,10.830 6.956 C 10.982 7.010,11.018 7.010,11.170 6.956 C 11.300 6.909,11.359 6.858,11.420 6.738 C 11.495 6.589,11.500 6.482,11.514 4.790 L 11.528 3.000 12.000 3.000 L 12.472 3.000 12.490 4.290 C 12.502 5.199,12.522 5.619,12.558 5.711 C 12.611 5.849,12.842 6.000,13.000 6.000 C 13.158 6.000,13.389 5.849,13.441 5.711 C 13.477 5.620,13.497 5.189,13.510 4.290 L 13.529 3.000 14.000 3.000 L 14.472 3.000 14.486 4.812 C 14.502 6.822,14.492 6.751,14.772 6.922 C 14.934 7.020,15.066 7.020,15.228 6.922 C 15.508 6.751,15.498 6.822,15.514 4.812 L 15.528 3.000 16.004 3.000 L 16.480 3.000 16.480 5.500 L 16.480 8.000 12.000 8.000 L 7.520 8.000 7.520 5.500 L 7.520 3.000 7.996 3.000 L 8.472 3.000 8.486 4.312 M16.469 9.455 C 16.450 9.847,16.431 9.943,16.334 10.143 C 16.198 10.420,15.914 10.717,15.672 10.834 C 15.452 10.941,15.145 11.000,14.805 11.001 C 14.414 11.002,14.061 11.063,13.848 11.165 C 13.578 11.296,13.258 11.631,13.121 11.929 L 13.005 12.180 12.992 16.220 L 12.979 20.260 12.862 20.472 C 12.643 20.870,12.221 21.062,11.783 20.964 C 11.495 20.900,11.286 20.741,11.140 20.477 L 11.021 20.260 11.007 16.220 L 10.994 12.180 10.896 11.963 C 10.714 11.560,10.371 11.231,9.995 11.098 C 9.904 11.066,9.566 11.023,9.245 11.002 C 8.922 10.982,8.584 10.938,8.490 10.904 C 8.122 10.773,7.861 10.527,7.656 10.119 C 7.570 9.948,7.550 9.840,7.531 9.457 L 7.508 9.000 12.000 9.000 L 16.492 9.000 16.469 9.455 " fill="#EC0000" stroke="none" fill-rule="evenodd"></path></svg>