<svg width="25" height="25" viewBox="0 0 25 25" fill="none" xmlns="http://www.w3.org/2000/svg"><path d="M14.188 3.036 C 14.119 3.079,13.640 3.543,13.123 4.067 C 12.395 4.806,12.120 5.115,11.905 5.440 C 11.462 6.107,11.172 6.817,11.014 7.614 C 10.925 8.067,10.914 9.095,10.995 9.536 L 11.051 9.844 6.866 14.036 C 2.803 18.107,2.678 18.238,2.551 18.521 C 2.258 19.177,2.300 19.887,2.666 20.457 C 2.733 20.561,3.243 21.097,3.800 21.648 C 4.926 22.763,5.018 22.827,5.637 22.923 C 6.047 22.987,6.436 22.921,6.847 22.719 C 7.130 22.580,7.366 22.352,11.315 18.409 L 15.485 14.246 15.669 14.291 C 15.975 14.365,16.941 14.391,17.354 14.337 C 18.384 14.200,19.304 13.828,20.125 13.216 C 20.296 13.088,20.838 12.588,21.329 12.106 C 22.293 11.158,22.405 11.006,22.333 10.747 C 22.302 10.635,21.460 9.771,18.469 6.781 C 14.676 2.989,14.643 2.958,14.479 2.958 C 14.387 2.959,14.256 2.994,14.188 3.036 M20.415 11.598 C 19.471 12.525,18.996 12.849,18.176 13.124 C 15.578 13.994,12.800 12.501,12.091 9.853 C 11.798 8.760,11.923 7.526,12.428 6.521 C 12.682 6.015,12.979 5.639,13.703 4.905 L 14.435 4.164 17.790 7.522 L 21.146 10.879 20.415 11.598 M11.915 11.849 C 12.465 12.660,13.276 13.372,14.091 13.762 C 14.245 13.836,14.371 13.905,14.373 13.917 C 14.374 13.928,13.142 15.171,11.635 16.677 L 8.895 19.417 7.396 17.917 L 5.896 16.417 8.645 13.668 L 11.393 10.919 11.553 11.236 C 11.641 11.410,11.804 11.686,11.915 11.849 M10.489 14.117 C 9.697 14.906,9.617 14.998,9.597 15.152 C 9.542 15.558,9.958 15.842,10.325 15.649 C 10.387 15.617,10.796 15.228,11.233 14.785 C 12.091 13.917,12.140 13.841,12.025 13.567 C 11.939 13.360,11.773 13.250,11.548 13.250 L 11.358 13.250 10.489 14.117 M7.399 20.914 C 6.485 21.828,6.328 21.937,5.917 21.935 C 5.717 21.935,5.597 21.909,5.458 21.838 C 5.188 21.699,3.571 20.075,3.461 19.831 C 3.344 19.574,3.345 19.160,3.462 18.937 C 3.510 18.846,3.917 18.400,4.368 17.948 L 5.187 17.125 6.687 18.625 L 8.187 20.125 7.399 20.914 " fill="#137E84" stroke="none" fill-rule="evenodd"></path></svg>