<svg width="24" height="25" viewBox="0 0 24 25" fill="none" xmlns="http://www.w3.org/2000/svg"><path d="M13.940 2.660 C 13.520 2.941,12.736 3.833,12.534 4.260 C 12.234 4.891,12.199 5.696,12.441 6.380 C 12.512 6.578,12.602 6.804,12.642 6.883 L 12.714 7.026 11.027 8.712 L 9.340 10.397 9.120 10.260 C 8.999 10.184,8.714 10.040,8.486 9.940 C 7.962 9.709,7.662 9.666,6.707 9.688 C 5.999 9.704,5.972 9.707,5.688 9.829 C 5.296 9.997,4.653 10.364,4.398 10.565 C 4.172 10.744,4.017 11.022,4.056 11.179 C 4.083 11.286,5.000 12.245,6.916 14.170 L 8.260 15.520 6.377 17.410 C 3.698 20.099,2.207 21.627,2.118 21.773 C 1.965 22.024,2.068 22.309,2.368 22.464 C 2.481 22.522,2.496 22.520,2.636 22.427 C 2.897 22.255,3.993 21.200,6.523 18.690 L 8.986 16.245 9.663 16.926 C 10.610 17.880,12.588 19.792,12.992 20.145 C 13.233 20.356,13.361 20.440,13.438 20.440 C 13.758 20.440,14.387 19.617,14.697 18.792 C 14.812 18.487,14.880 17.967,14.880 17.394 C 14.880 17.057,14.859 16.896,14.778 16.617 C 14.644 16.155,14.474 15.752,14.273 15.419 L 14.111 15.149 15.791 13.469 L 17.471 11.789 17.814 11.936 C 18.327 12.157,18.645 12.212,19.240 12.186 C 19.868 12.159,20.069 12.097,20.520 11.795 C 20.937 11.517,21.758 10.746,21.904 10.497 C 21.997 10.339,22.000 10.317,21.948 10.193 C 21.917 10.120,21.468 9.619,20.951 9.080 C 19.840 7.923,14.864 2.965,14.591 2.745 C 14.338 2.540,14.155 2.516,13.940 2.660 M20.520 10.529 C 20.005 11.011,19.672 11.170,19.071 11.222 L 18.762 11.249 18.171 10.968 C 17.461 10.630,17.406 10.614,17.246 10.697 C 16.965 10.842,13.573 14.221,13.073 14.854 C 12.877 15.101,12.881 15.123,13.217 15.680 C 13.356 15.911,13.544 16.236,13.634 16.402 L 13.798 16.703 13.825 17.482 L 13.851 18.260 13.645 18.670 C 13.532 18.896,13.414 19.080,13.383 19.080 C 13.353 19.080,13.150 18.924,12.934 18.733 C 12.445 18.302,7.070 12.927,6.127 11.926 C 5.307 11.055,5.303 11.044,5.720 10.877 C 6.155 10.702,6.388 10.660,6.920 10.660 C 7.648 10.660,7.973 10.760,8.700 11.208 C 9.174 11.500,9.296 11.560,9.417 11.560 C 9.553 11.560,10.215 10.939,12.001 9.135 C 13.660 7.460,13.936 7.153,13.896 7.027 C 13.882 6.979,13.770 6.742,13.649 6.500 C 13.351 5.904,13.315 5.788,13.316 5.438 C 13.319 4.892,13.476 4.544,13.976 3.979 L 14.212 3.712 17.496 6.999 L 20.780 10.285 20.520 10.529 " fill="#EC0000" stroke="none" fill-rule="evenodd"></path></svg>