<svg width="24" height="24" viewBox="0 0 24 24" fill="none" xmlns="http://www.w3.org/2000/svg"><path d="M6.834 3.037 C 6.589 3.055,6.514 3.077,6.454 3.146 C 5.820 3.880,3.579 6.657,2.691 7.808 C 2.156 8.503,2.046 8.725,2.012 9.180 C 1.990 9.476,2.065 9.857,2.193 10.105 C 2.273 10.260,2.930 11.061,5.960 14.698 C 9.411 18.841,10.551 20.193,10.839 20.482 C 11.137 20.782,11.361 20.900,11.759 20.968 C 12.228 21.049,12.719 20.901,13.088 20.569 C 13.295 20.382,13.893 19.675,17.004 15.940 C 20.700 11.503,21.733 10.248,21.807 10.105 C 21.935 9.857,22.010 9.476,21.988 9.180 C 21.954 8.725,21.844 8.503,21.309 7.808 C 20.420 6.656,18.167 3.863,17.545 3.146 C 17.484 3.075,17.409 3.055,17.125 3.033 C 16.703 3.001,7.262 3.004,6.834 3.037 M15.975 4.035 C 16.038 4.060,15.971 4.152,15.516 4.662 C 13.987 6.377,12.035 8.520,12.001 8.520 C 11.968 8.520,11.605 8.126,10.136 6.500 C 8.009 4.146,7.942 4.068,8.025 4.035 C 8.123 3.997,15.877 3.997,15.975 4.035 M8.347 6.010 C 10.555 8.462,10.960 8.921,10.960 8.963 C 10.960 9.009,3.202 9.013,3.128 8.966 C 3.090 8.941,3.135 8.857,3.304 8.637 C 3.572 8.288,6.772 4.280,6.783 4.280 C 6.787 4.280,7.491 5.058,8.347 6.010 M18.992 6.488 C 20.554 8.446,20.920 8.919,20.920 8.977 C 20.920 8.990,19.147 9.000,16.980 9.000 C 14.549 9.000,13.040 8.986,13.040 8.962 C 13.040 8.922,13.756 8.113,15.486 6.195 C 16.874 4.658,17.228 4.291,17.273 4.340 C 17.294 4.362,18.067 5.329,18.992 6.488 M11.475 14.550 C 11.472 17.053,11.458 19.230,11.445 19.388 L 11.420 19.677 10.260 18.289 C 9.622 17.525,7.815 15.361,6.244 13.480 L 3.389 10.060 3.624 10.037 C 3.754 10.024,5.574 10.010,7.670 10.007 L 11.480 10.000 11.475 14.550 M20.354 10.035 L 20.607 10.060 18.234 12.904 C 16.928 14.469,15.122 16.632,14.220 17.711 L 12.580 19.673 12.555 19.266 C 12.541 19.043,12.528 16.867,12.525 14.430 L 12.520 10.000 16.310 10.005 C 18.395 10.007,20.214 10.021,20.354 10.035 " fill="#EC0000" stroke="none" fill-rule="evenodd"></path></svg>