<svg width="24" height="25" viewBox="0 0 24 25" fill="none" xmlns="http://www.w3.org/2000/svg"><path d="M4.120 2.601 C 3.453 2.636,3.339 2.664,3.016 2.873 C 2.678 3.092,2.392 3.426,2.181 3.846 L 2.000 4.208 2.002 6.034 C 2.003 7.953,2.043 9.056,2.116 9.192 C 2.171 9.295,2.410 9.376,2.552 9.341 C 2.611 9.326,2.876 9.204,3.140 9.069 L 3.620 8.824 4.037 8.807 C 4.567 8.786,4.811 8.840,5.093 9.042 C 5.333 9.214,5.649 9.603,5.763 9.869 C 6.044 10.518,5.887 11.227,5.340 11.784 C 5.019 12.112,4.697 12.270,4.279 12.304 C 3.902 12.336,3.754 12.297,3.111 11.997 C 2.510 11.717,2.339 11.695,2.162 11.871 L 2.051 11.983 2.021 13.532 C 1.988 15.303,2.019 16.588,2.104 16.936 C 2.190 17.289,2.347 17.547,2.680 17.883 C 3.023 18.228,3.362 18.419,3.740 18.479 C 3.872 18.500,4.734 18.535,5.655 18.557 C 6.576 18.579,7.340 18.607,7.353 18.619 C 7.365 18.632,7.353 18.753,7.325 18.889 C 7.236 19.316,7.223 19.945,7.296 20.253 C 7.493 21.088,8.085 21.825,8.860 22.201 C 9.268 22.399,9.447 22.438,9.940 22.438 C 10.447 22.437,10.884 22.359,11.170 22.220 C 11.703 21.959,12.289 21.384,12.523 20.893 C 12.790 20.334,12.873 19.593,12.740 18.959 C 12.707 18.802,12.688 18.659,12.699 18.641 C 12.710 18.624,13.210 18.597,13.809 18.582 C 15.742 18.534,16.359 18.495,16.585 18.409 C 16.864 18.303,17.095 18.137,17.439 17.793 C 17.782 17.451,17.902 17.221,17.958 16.798 C 18.011 16.400,18.080 14.748,18.080 13.886 L 18.080 13.193 18.230 13.217 C 18.638 13.283,19.356 13.315,19.613 13.278 C 19.938 13.232,20.411 13.051,20.666 12.876 C 20.919 12.702,21.413 12.191,21.602 11.908 C 21.859 11.522,21.938 11.202,21.938 10.540 C 21.938 10.032,21.928 9.951,21.827 9.664 C 21.681 9.245,21.554 9.037,21.246 8.711 C 20.812 8.251,20.365 7.976,19.861 7.859 C 19.503 7.776,18.739 7.775,18.383 7.858 C 18.236 7.892,18.101 7.920,18.083 7.920 C 18.065 7.920,18.040 7.115,18.027 6.130 C 18.014 5.134,17.985 4.251,17.961 4.140 C 17.894 3.822,17.739 3.550,17.461 3.265 C 17.139 2.936,16.836 2.739,16.511 2.649 C 16.285 2.587,16.024 2.580,13.940 2.583 C 11.331 2.586,11.315 2.587,11.213 2.830 L 11.152 2.976 11.446 3.575 L 11.740 4.175 11.740 4.637 C 11.740 5.071,11.732 5.116,11.617 5.360 C 11.443 5.726,11.137 6.046,10.800 6.214 C 10.083 6.573,9.397 6.471,8.823 5.920 C 8.464 5.575,8.322 5.281,8.293 4.818 C 8.261 4.297,8.319 4.059,8.605 3.542 C 8.865 3.072,8.898 2.925,8.782 2.748 C 8.722 2.657,8.682 2.645,8.388 2.624 C 7.823 2.586,4.728 2.568,4.120 2.601 M7.349 3.770 C 7.281 3.973,7.265 4.125,7.263 4.580 C 7.260 5.094,7.269 5.169,7.376 5.495 C 7.525 5.949,7.715 6.230,8.153 6.646 C 8.561 7.033,8.766 7.155,9.261 7.301 C 9.936 7.501,10.607 7.439,11.242 7.119 C 11.970 6.752,12.626 5.926,12.758 5.212 C 12.820 4.880,12.809 4.253,12.736 3.901 C 12.701 3.732,12.685 3.582,12.700 3.567 C 12.748 3.519,13.880 3.512,15.113 3.554 L 16.325 3.594 16.538 3.755 C 16.798 3.951,16.904 4.118,16.936 4.380 C 16.949 4.490,16.978 5.282,17.001 6.140 C 17.050 7.999,17.108 9.102,17.162 9.203 C 17.184 9.244,17.269 9.298,17.353 9.322 C 17.522 9.373,17.634 9.336,18.352 8.986 C 18.781 8.777,19.020 8.735,19.420 8.799 C 20.029 8.896,20.522 9.250,20.757 9.759 C 20.906 10.082,20.970 10.513,20.917 10.836 C 20.802 11.548,20.177 12.169,19.453 12.293 C 19.063 12.360,18.781 12.294,18.138 11.984 C 17.836 11.839,17.542 11.720,17.484 11.721 C 17.425 11.721,17.312 11.778,17.224 11.854 L 17.067 11.986 17.033 13.483 C 16.975 16.071,16.940 16.805,16.870 16.940 C 16.791 17.090,16.539 17.332,16.380 17.410 C 16.195 17.502,15.967 17.517,13.760 17.580 C 12.627 17.613,11.628 17.650,11.540 17.664 C 11.310 17.700,11.252 17.741,11.198 17.905 C 11.154 18.041,11.160 18.069,11.302 18.335 C 11.774 19.222,11.740 19.116,11.740 19.697 C 11.740 20.193,11.734 20.232,11.626 20.445 C 11.351 20.988,10.767 21.391,10.152 21.464 C 9.912 21.492,9.535 21.412,9.245 21.273 C 8.962 21.136,8.590 20.757,8.419 20.433 L 8.268 20.146 8.292 19.613 L 8.316 19.080 8.543 18.701 C 8.894 18.113,8.928 17.928,8.720 17.740 C 8.634 17.662,8.217 17.639,5.460 17.558 C 3.717 17.508,3.745 17.512,3.447 17.257 C 3.117 16.974,3.109 16.944,3.075 15.883 C 3.037 14.691,3.033 13.586,3.066 13.385 L 3.092 13.231 3.456 13.265 C 4.359 13.351,4.867 13.277,5.440 12.976 C 5.975 12.695,6.543 12.068,6.742 11.538 C 6.872 11.194,6.935 10.534,6.884 10.073 C 6.790 9.232,6.066 8.358,5.128 7.953 L 4.820 7.820 4.100 7.822 C 3.553 7.824,3.334 7.840,3.190 7.889 L 3.000 7.952 3.001 7.486 C 3.002 6.510,3.082 4.383,3.123 4.230 C 3.171 4.052,3.485 3.709,3.669 3.634 C 3.796 3.582,4.947 3.537,6.426 3.527 L 7.432 3.520 7.349 3.770 " fill="#EC0000" stroke="none" fill-rule="evenodd"></path></svg>