<svg width="24" height="24" viewBox="0 0 24 24" fill="none" xmlns="http://www.w3.org/2000/svg"><path d="M11.748 2.084 C 11.665 2.128,11.577 2.212,11.553 2.272 C 11.529 2.331,11.497 2.771,11.481 3.249 L 11.452 4.118 11.323 4.380 C 11.057 4.919,10.560 5.312,10.033 5.398 C 9.909 5.418,8.946 5.446,7.893 5.461 C 5.695 5.491,5.251 5.517,5.175 5.620 C 5.114 5.704,5.226 5.377,3.441 10.660 L 1.994 14.940 2.016 15.282 C 2.096 16.535,2.926 17.710,4.108 18.247 C 4.889 18.601,5.886 18.643,6.707 18.357 C 8.043 17.891,8.948 16.720,9.101 15.260 C 9.126 15.024,9.103 14.951,7.686 10.732 L 6.246 6.445 8.253 6.431 L 10.260 6.417 10.541 6.314 C 10.856 6.198,11.125 6.068,11.292 5.950 C 11.354 5.907,11.417 5.884,11.432 5.899 C 11.448 5.914,11.465 9.189,11.471 13.177 L 11.482 20.428 10.791 20.456 C 9.562 20.506,8.297 20.657,7.201 20.885 C 6.882 20.952,6.563 21.033,6.493 21.066 C 6.272 21.171,6.179 21.485,6.300 21.720 C 6.439 21.989,6.636 22.015,7.384 21.864 C 8.936 21.550,9.884 21.465,11.900 21.463 C 13.964 21.460,14.839 21.536,16.509 21.863 C 17.311 22.021,17.415 22.017,17.603 21.817 C 17.678 21.737,17.697 21.672,17.697 21.503 C 17.697 21.262,17.653 21.189,17.440 21.080 C 17.016 20.864,14.604 20.511,13.150 20.453 L 12.520 20.427 12.520 13.130 L 12.520 5.832 12.650 5.918 C 12.846 6.046,13.232 6.241,13.480 6.335 C 13.689 6.414,13.796 6.419,15.687 6.439 C 16.779 6.451,17.687 6.474,17.705 6.491 C 17.722 6.508,17.698 6.634,17.652 6.771 C 17.606 6.908,16.971 8.793,16.240 10.960 L 14.912 14.900 14.935 15.280 C 15.003 16.427,15.676 17.486,16.720 18.091 C 17.005 18.257,17.706 18.473,18.101 18.518 C 20.042 18.738,21.842 17.223,21.985 15.249 L 22.007 14.940 20.847 11.500 C 18.755 5.296,18.868 5.618,18.747 5.553 C 18.645 5.498,18.306 5.486,15.780 5.444 C 13.662 5.408,13.694 5.413,13.228 5.079 C 13.010 4.923,12.697 4.514,12.600 4.259 C 12.576 4.196,12.541 3.756,12.523 3.282 C 12.484 2.270,12.457 2.167,12.204 2.066 C 11.995 1.983,11.936 1.985,11.748 2.084 M19.637 11.046 C 20.615 13.948,20.778 14.464,20.724 14.487 C 20.648 14.520,16.183 14.530,16.151 14.498 C 16.118 14.464,16.201 14.205,17.318 10.893 C 18.459 7.506,18.433 7.580,18.464 7.611 C 18.476 7.623,19.004 9.169,19.637 11.046 M5.630 7.770 C 5.653 7.841,6.169 9.373,6.776 11.174 C 7.383 12.975,7.870 14.464,7.857 14.484 C 7.831 14.527,3.320 14.532,3.257 14.489 C 3.201 14.451,5.491 7.640,5.560 7.640 C 5.575 7.640,5.606 7.699,5.630 7.770 M8.019 15.650 C 7.973 15.866,7.743 16.325,7.553 16.580 C 7.005 17.316,5.894 17.711,5.004 17.486 C 4.578 17.378,4.323 17.259,4.011 17.023 C 3.604 16.715,3.212 16.141,3.086 15.670 L 3.046 15.520 5.546 15.520 L 8.046 15.520 8.019 15.650 M20.913 15.670 C 20.742 16.309,20.177 16.977,19.560 17.271 C 19.148 17.467,18.909 17.520,18.434 17.520 C 17.856 17.520,17.455 17.385,16.935 17.017 C 16.486 16.698,16.110 16.150,15.985 15.630 L 15.958 15.520 18.456 15.520 L 20.954 15.520 20.913 15.670 " fill="#222222" stroke="none" fill-rule="evenodd"></path></svg>