<svg width="24" height="25" viewBox="0 0 24 25" fill="none" xmlns="http://www.w3.org/2000/svg"><path d="M11.471 2.564 C 9.639 2.741,7.912 3.702,6.842 5.140 C 6.284 5.890,5.792 7.037,5.595 8.047 C 5.517 8.449,5.532 9.984,5.618 10.380 C 5.810 11.264,6.281 12.371,6.708 12.940 C 6.840 13.116,7.153 13.482,7.404 13.753 C 8.213 14.628,8.484 14.938,8.545 15.053 C 8.631 15.216,8.719 15.715,8.747 16.203 L 8.771 16.626 8.556 16.758 C 8.280 16.927,7.852 17.368,7.711 17.627 C 7.494 18.026,7.467 18.229,7.465 19.520 C 7.463 20.562,7.471 20.730,7.537 20.953 C 7.722 21.578,8.350 22.215,8.986 22.423 C 9.207 22.496,9.364 22.500,11.900 22.500 L 14.580 22.500 14.891 22.351 C 15.293 22.159,15.600 21.920,15.828 21.620 C 16.216 21.110,16.255 20.891,16.230 19.349 C 16.214 18.287,16.204 18.155,16.125 17.913 C 16.031 17.623,15.852 17.366,15.469 16.973 L 15.229 16.727 15.276 16.213 C 15.344 15.477,15.396 15.202,15.501 15.020 C 15.553 14.932,15.849 14.590,16.161 14.260 C 17.105 13.260,17.414 12.841,17.781 12.065 C 18.321 10.922,18.546 9.750,18.447 8.587 C 18.366 7.630,18.182 6.959,17.777 6.150 C 17.420 5.435,17.160 5.077,16.561 4.478 C 15.364 3.281,14.194 2.741,12.406 2.562 C 11.953 2.516,11.973 2.516,11.471 2.564 M13.464 3.720 C 13.888 3.827,14.816 4.294,15.240 4.614 C 16.155 5.305,16.876 6.326,17.302 7.532 L 17.412 7.844 17.391 9.172 L 17.370 10.500 17.182 10.959 C 16.934 11.565,16.593 12.227,16.383 12.511 C 16.289 12.637,15.989 12.982,15.716 13.277 C 14.843 14.223,14.675 14.417,14.593 14.576 C 14.447 14.858,14.317 15.468,14.292 15.990 L 14.268 16.480 13.314 16.480 L 12.360 16.480 12.360 14.557 L 12.360 12.634 12.795 11.887 C 13.376 10.889,13.818 10.065,13.903 9.818 C 13.969 9.627,13.969 9.612,13.903 9.510 C 13.865 9.452,13.752 9.365,13.653 9.316 C 13.482 9.234,13.465 9.233,13.339 9.293 C 13.170 9.373,12.988 9.616,12.480 10.440 C 12.044 11.147,11.896 11.360,11.841 11.360 C 11.822 11.360,11.685 11.167,11.536 10.930 C 10.959 10.012,10.518 9.363,10.432 9.303 C 10.252 9.177,9.977 9.272,9.788 9.527 C 9.712 9.630,9.711 9.640,9.777 9.807 C 9.875 10.053,10.360 10.942,10.899 11.862 L 11.360 12.650 11.360 14.565 L 11.360 16.480 10.566 16.480 L 9.772 16.480 9.747 16.044 C 9.720 15.559,9.635 15.096,9.515 14.776 C 9.413 14.503,9.253 14.301,8.385 13.349 C 7.992 12.918,7.598 12.469,7.510 12.352 C 7.109 11.819,6.682 10.726,6.598 10.020 C 6.548 9.596,6.572 8.492,6.643 7.986 C 6.697 7.596,6.845 7.174,7.121 6.620 C 7.417 6.028,7.657 5.702,8.199 5.158 C 8.685 4.670,9.061 4.393,9.612 4.115 C 10.517 3.659,10.581 3.646,11.984 3.643 C 13.019 3.640,13.182 3.649,13.464 3.720 M14.779 17.697 C 14.885 17.783,15.022 17.935,15.085 18.035 L 15.200 18.216 15.200 19.438 C 15.200 20.208,15.183 20.719,15.155 20.820 C 15.096 21.034,14.792 21.338,14.579 21.395 C 14.256 21.482,13.466 21.519,11.980 21.518 C 10.229 21.517,9.280 21.475,9.078 21.390 C 8.894 21.312,8.584 20.973,8.520 20.779 C 8.480 20.658,8.475 20.363,8.496 19.453 C 8.512 18.809,8.541 18.225,8.562 18.154 C 8.582 18.083,8.667 17.955,8.749 17.869 C 9.030 17.579,8.995 17.586,10.460 17.557 C 11.186 17.543,12.412 17.534,13.184 17.536 L 14.587 17.540 14.779 17.697 " fill="#EC0000" stroke="none" fill-rule="evenodd"></path></svg>