<svg width="24" height="25" viewBox="0 0 24 25" fill="none" xmlns="http://www.w3.org/2000/svg"><path d="M11.153 2.674 C 10.850 2.797,10.429 3.099,10.151 3.395 C 9.719 3.852,9.583 4.225,9.516 5.140 C 9.447 6.069,9.456 6.030,9.275 6.152 C 7.791 7.158,7.193 7.769,6.668 8.820 C 6.447 9.261,6.214 9.919,6.136 10.316 C 6.064 10.691,6.012 11.719,5.976 13.495 L 5.948 14.890 5.257 15.819 C 4.173 17.277,4.031 17.526,4.031 17.980 C 4.031 18.580,4.452 19.187,5.006 19.382 C 5.245 19.467,6.162 19.518,7.462 19.519 L 8.545 19.520 8.599 19.730 C 8.793 20.490,9.329 21.310,9.927 21.760 C 10.586 22.257,11.157 22.447,12.000 22.450 C 12.589 22.453,12.846 22.404,13.329 22.199 C 14.270 21.799,15.142 20.777,15.385 19.790 L 15.451 19.520 16.596 19.518 C 17.225 19.517,17.996 19.501,18.310 19.483 C 19.002 19.443,19.194 19.367,19.533 19.000 C 19.850 18.659,19.960 18.403,19.960 18.012 C 19.960 17.518,19.816 17.265,18.620 15.658 L 18.053 14.895 18.025 13.558 C 17.964 10.624,17.892 10.152,17.325 8.980 C 16.800 7.897,16.153 7.171,15.035 6.414 L 14.530 6.073 14.508 5.466 C 14.474 4.549,14.307 3.941,13.979 3.541 C 13.767 3.283,13.293 2.911,12.977 2.756 C 12.712 2.625,12.707 2.624,12.025 2.611 C 11.426 2.600,11.316 2.608,11.153 2.674 M12.639 3.698 C 12.866 3.818,13.225 4.188,13.314 4.395 C 13.392 4.576,13.521 5.612,13.472 5.661 C 13.461 5.672,13.328 5.663,13.176 5.641 C 12.811 5.589,11.306 5.589,10.884 5.642 C 10.701 5.665,10.541 5.674,10.529 5.662 C 10.500 5.633,10.593 4.662,10.642 4.476 C 10.718 4.185,11.114 3.772,11.430 3.655 C 11.652 3.572,12.453 3.601,12.639 3.698 M13.380 6.737 C 14.721 7.139,15.979 8.330,16.587 9.772 C 16.852 10.400,16.890 10.751,16.961 13.250 C 16.985 14.080,17.021 14.862,17.041 14.987 C 17.084 15.248,17.164 15.379,17.938 16.440 C 18.596 17.343,18.875 17.764,18.921 17.922 C 18.964 18.074,18.899 18.255,18.754 18.389 L 18.658 18.477 14.839 18.503 C 12.569 18.519,9.868 18.511,8.181 18.485 C 5.021 18.437,5.238 18.459,5.065 18.163 C 5.001 18.054,4.997 18.018,5.038 17.927 C 5.109 17.773,5.763 16.836,6.402 15.975 L 6.950 15.236 6.975 14.728 C 6.989 14.448,7.019 13.554,7.041 12.740 C 7.102 10.543,7.138 10.251,7.441 9.554 C 8.044 8.163,9.441 6.980,10.840 6.675 C 11.129 6.612,11.318 6.603,12.100 6.615 C 12.962 6.628,13.043 6.636,13.380 6.737 M14.419 19.610 C 14.355 19.831,13.885 20.587,13.691 20.780 C 13.287 21.185,12.618 21.440,11.962 21.440 C 11.142 21.440,10.429 21.057,9.973 20.371 C 9.761 20.053,9.574 19.653,9.617 19.610 C 9.640 19.587,11.961 19.537,13.473 19.527 L 14.445 19.520 14.419 19.610 " fill="#EC0000" stroke="none" fill-rule="evenodd"></path></svg>