<svg width="24" height="25" viewBox="0 0 24 25" fill="none" xmlns="http://www.w3.org/2000/svg"><path d="M10.065 2.719 C 9.217 2.901,8.490 3.156,7.660 3.561 C 5.891 4.425,4.701 5.467,3.645 7.076 C 2.908 8.198,2.387 9.520,2.139 10.900 C 1.990 11.726,1.991 13.213,2.141 14.092 C 2.491 16.147,3.428 17.976,4.872 19.424 C 5.860 20.413,6.529 20.904,7.620 21.439 C 8.372 21.809,8.852 21.991,9.574 22.180 C 10.278 22.366,10.731 22.429,11.585 22.462 C 13.341 22.529,14.800 22.214,16.425 21.418 C 17.703 20.791,18.848 19.888,19.693 18.839 C 20.711 17.577,21.573 15.750,21.820 14.334 C 21.965 13.499,21.993 11.929,21.879 11.000 C 21.763 10.061,21.222 8.549,20.637 7.531 C 19.282 5.171,17.059 3.519,14.260 2.790 L 13.780 2.665 12.100 2.654 C 10.574 2.644,10.387 2.650,10.065 2.719 M12.570 3.601 C 13.027 3.622,13.540 3.668,13.710 3.702 C 15.115 3.988,16.600 4.692,17.740 5.612 C 18.142 5.936,18.786 6.603,19.100 7.021 C 19.792 7.942,20.375 9.162,20.712 10.396 L 20.860 10.940 20.860 12.440 C 20.860 13.735,20.850 13.987,20.788 14.280 C 20.404 16.083,19.547 17.622,18.187 18.948 C 16.962 20.142,15.588 20.883,13.901 21.259 C 12.928 21.477,12.196 21.524,11.136 21.438 C 8.944 21.262,6.687 20.085,5.230 18.360 C 4.198 17.136,3.446 15.622,3.218 14.306 C 3.071 13.460,3.072 11.515,3.219 10.671 C 3.357 9.881,3.872 8.607,4.393 7.768 C 5.037 6.730,6.003 5.733,7.015 5.063 C 8.256 4.242,9.773 3.695,11.066 3.603 C 11.689 3.558,11.661 3.558,12.570 3.601 M12.380 7.038 C 12.255 7.089,12.091 7.271,12.064 7.391 C 12.050 7.451,12.028 8.630,12.013 10.010 L 11.988 12.520 9.377 12.520 L 6.767 12.520 6.665 12.641 C 6.534 12.796,6.502 12.978,6.568 13.179 C 6.643 13.410,6.743 13.443,7.494 13.482 C 8.789 13.551,12.551 13.507,12.767 13.421 C 12.804 13.406,12.866 13.328,12.905 13.247 C 12.970 13.113,12.977 12.896,12.992 10.720 C 13.008 8.376,12.977 7.421,12.880 7.240 C 12.828 7.144,12.609 6.999,12.520 7.003 C 12.487 7.004,12.424 7.020,12.380 7.038 " fill="#EC0000" stroke="none" fill-rule="evenodd"></path></svg>