<svg width="24" height="25" viewBox="0 0 24 25" fill="none" xmlns="http://www.w3.org/2000/svg"><path d="M9.960 2.557 C 9.524 2.577,9.429 2.594,9.222 2.692 C 8.663 2.953,8.272 3.384,8.101 3.926 C 8.045 4.101,8.000 4.305,8.000 4.379 L 8.000 4.513 6.690 4.529 C 5.818 4.539,5.344 4.559,5.272 4.590 C 5.213 4.616,5.132 4.686,5.092 4.746 C 5.023 4.851,5.020 5.251,5.009 13.536 L 4.998 22.215 5.147 22.367 L 5.296 22.520 12.000 22.520 L 18.704 22.520 18.853 22.367 L 19.002 22.215 18.991 13.536 C 18.980 5.251,18.977 4.851,18.908 4.746 C 18.868 4.686,18.787 4.616,18.728 4.590 C 18.656 4.559,18.182 4.539,17.310 4.529 L 16.000 4.513 16.000 4.387 C 15.999 4.200,15.900 3.862,15.772 3.606 C 15.609 3.279,15.235 2.922,14.865 2.739 C 14.575 2.595,14.532 2.586,14.030 2.556 C 13.441 2.521,10.738 2.522,9.960 2.557 M13.406 3.554 L 14.392 3.580 14.566 3.705 C 14.662 3.774,14.791 3.911,14.853 4.010 C 14.961 4.183,14.966 4.214,14.989 4.855 L 15.012 5.520 12.001 5.520 L 8.990 5.520 9.007 4.886 C 9.021 4.306,9.031 4.236,9.123 4.058 C 9.186 3.934,9.295 3.811,9.420 3.722 L 9.617 3.580 10.219 3.558 C 11.072 3.526,12.261 3.524,13.406 3.554 M8.006 5.878 C 8.020 6.224,8.025 6.240,8.158 6.378 L 8.296 6.520 12.000 6.520 L 15.704 6.520 15.840 6.380 C 15.970 6.246,15.976 6.225,15.993 5.880 L 16.010 5.520 17.005 5.520 L 18.000 5.520 18.000 13.520 L 18.000 21.520 12.000 21.520 L 6.000 21.520 6.000 13.520 L 6.000 5.520 6.996 5.520 L 7.992 5.520 8.006 5.878 M8.784 8.548 C 8.243 8.565,8.120 8.616,8.040 8.861 C 7.979 9.045,8.021 9.215,8.168 9.383 L 8.288 9.520 12.000 9.520 L 15.712 9.520 15.834 9.381 C 16.063 9.119,16.026 8.760,15.753 8.614 C 15.629 8.548,15.403 8.543,12.440 8.538 C 10.691 8.535,9.046 8.540,8.784 8.548 M8.784 11.548 C 8.243 11.565,8.120 11.616,8.040 11.861 C 7.979 12.045,8.021 12.215,8.168 12.383 L 8.288 12.520 12.000 12.520 L 15.712 12.520 15.834 12.381 C 16.063 12.119,16.026 11.760,15.753 11.614 C 15.629 11.548,15.403 11.543,12.440 11.538 C 10.691 11.535,9.046 11.540,8.784 11.548 M8.784 14.548 C 8.243 14.565,8.120 14.616,8.040 14.861 C 7.979 15.045,8.021 15.215,8.168 15.383 L 8.288 15.520 12.000 15.520 L 15.712 15.520 15.834 15.381 C 16.063 15.119,16.026 14.760,15.753 14.614 C 15.629 14.548,15.403 14.543,12.440 14.538 C 10.691 14.535,9.046 14.540,8.784 14.548 M8.784 17.548 C 8.243 17.565,8.120 17.616,8.040 17.861 C 7.979 18.045,8.021 18.215,8.168 18.383 L 8.288 18.520 12.000 18.520 L 15.712 18.520 15.834 18.381 C 16.063 18.119,16.026 17.760,15.753 17.614 C 15.629 17.548,15.403 17.543,12.440 17.538 C 10.691 17.535,9.046 17.540,8.784 17.548 " fill="#EC0000" stroke="none" fill-rule="evenodd"></path></svg>