<svg width="24" height="25" viewBox="0 0 24 25" fill="none" xmlns="http://www.w3.org/2000/svg"><path d="M2.280 3.595 C 2.221 3.611,2.151 3.680,2.110 3.761 C 1.966 4.048,2.055 4.314,2.329 4.416 C 2.474 4.470,3.586 4.559,4.126 4.560 C 4.220 4.560,4.265 4.619,4.530 5.090 C 5.444 6.714,8.509 12.299,9.094 13.404 L 9.360 13.909 9.360 14.664 L 9.360 15.420 9.106 15.940 C 8.852 16.461,8.434 17.193,8.261 17.422 C 8.208 17.492,7.996 17.635,7.758 17.762 C 7.219 18.048,6.958 18.287,6.782 18.655 C 6.589 19.060,6.503 19.506,6.563 19.796 C 6.627 20.100,6.754 20.373,6.969 20.663 C 7.672 21.610,8.875 21.743,9.758 20.970 C 10.047 20.717,10.208 20.460,10.364 20.001 C 10.479 19.660,10.511 19.603,10.599 19.584 C 10.654 19.572,12.122 19.550,13.860 19.535 L 17.020 19.509 17.111 19.844 C 17.236 20.304,17.378 20.572,17.655 20.869 C 18.080 21.325,18.708 21.546,19.293 21.446 C 20.293 21.275,21.024 20.363,20.948 19.380 C 20.907 18.835,20.682 18.441,20.173 18.021 C 19.806 17.719,19.616 17.659,19.020 17.663 C 18.675 17.665,18.492 17.684,18.369 17.731 C 18.136 17.821,17.793 18.054,17.518 18.308 L 17.289 18.520 13.755 18.519 L 10.220 18.518 9.782 18.106 L 9.344 17.695 9.691 17.055 C 10.224 16.070,10.440 15.413,10.440 14.777 C 10.440 14.653,10.460 14.552,10.489 14.534 C 10.516 14.518,12.123 14.492,14.059 14.477 C 17.918 14.447,17.768 14.457,18.167 14.204 C 18.551 13.960,19.084 13.201,20.330 11.120 C 21.301 9.500,21.773 8.670,21.883 8.394 C 21.991 8.122,21.976 7.676,21.850 7.391 C 21.748 7.164,21.460 6.847,21.206 6.684 L 21.020 6.565 13.751 6.536 L 6.481 6.507 6.054 5.744 C 5.481 4.719,4.972 3.849,4.853 3.690 L 4.756 3.560 3.568 3.564 C 2.915 3.566,2.335 3.580,2.280 3.595 M20.905 7.706 C 21.016 7.972,20.961 8.102,20.192 9.393 C 19.035 11.334,17.810 13.245,17.661 13.343 C 17.500 13.449,16.937 13.479,14.660 13.505 C 12.427 13.530,10.814 13.489,10.584 13.402 C 10.349 13.312,10.118 12.970,9.183 11.327 C 8.477 10.085,7.385 8.127,7.243 7.846 C 7.194 7.750,7.166 7.660,7.181 7.646 C 7.214 7.612,11.357 7.578,16.652 7.568 L 20.844 7.560 20.905 7.706 M19.461 18.751 C 19.548 18.796,19.660 18.875,19.708 18.927 C 20.090 19.336,19.931 20.133,19.423 20.364 C 19.206 20.463,18.832 20.462,18.612 20.362 C 18.300 20.221,18.077 19.763,18.137 19.387 C 18.189 19.062,18.515 18.669,18.761 18.634 C 18.941 18.608,19.299 18.668,19.461 18.751 M8.915 18.745 C 9.164 18.869,9.298 19.051,9.362 19.353 C 9.485 19.927,9.067 20.451,8.483 20.454 C 8.120 20.457,7.862 20.286,7.680 19.922 C 7.603 19.769,7.594 19.705,7.616 19.469 C 7.630 19.318,7.666 19.146,7.697 19.087 C 7.915 18.670,8.458 18.517,8.915 18.745 " fill="#EC0000" stroke="none" fill-rule="evenodd"></path></svg>