<svg width="24" height="25" viewBox="0 0 24 25" fill="none" xmlns="http://www.w3.org/2000/svg"><path d="M11.400 3.811 C 10.596 4.188,6.694 6.223,4.080 7.630 C 2.590 8.432,2.284 8.606,2.132 8.736 L 2.024 8.830 2.023 9.925 C 2.022 11.199,2.039 11.290,2.300 11.419 C 2.438 11.486,2.567 11.499,3.230 11.513 L 4.000 11.529 4.000 14.158 C 4.000 15.604,3.988 17.543,3.974 18.468 L 3.947 20.149 3.484 20.256 C 2.161 20.561,1.909 20.729,2.097 21.178 C 2.128 21.253,2.200 21.345,2.258 21.382 C 2.397 21.473,2.570 21.454,4.089 21.178 C 7.909 20.483,10.758 20.323,15.080 20.561 C 16.638 20.647,17.645 20.777,19.850 21.176 C 21.817 21.532,21.613 21.516,21.802 21.327 C 21.985 21.145,22.009 20.981,21.883 20.774 C 21.785 20.613,21.552 20.524,20.670 20.311 L 20.000 20.149 20.000 15.834 L 20.000 11.520 20.570 11.519 C 21.241 11.518,21.665 11.465,21.773 11.369 C 21.949 11.212,21.970 11.075,21.991 9.934 L 22.011 8.849 21.815 8.706 C 21.559 8.518,20.627 8.003,18.640 6.950 C 13.988 4.484,12.306 3.634,12.041 3.611 C 11.888 3.599,11.789 3.629,11.400 3.811 M13.086 5.175 C 15.065 6.179,19.280 8.403,19.280 8.444 C 19.280 8.504,17.620 8.520,11.784 8.516 C 5.676 8.512,4.773 8.500,4.786 8.423 C 4.794 8.379,5.173 8.172,7.620 6.880 C 9.810 5.723,11.918 4.642,11.986 4.641 C 12.011 4.640,12.506 4.881,13.086 5.175 M21.000 10.020 L 21.000 10.520 12.000 10.520 L 3.000 10.520 3.000 10.020 L 3.000 9.520 12.000 9.520 L 21.000 9.520 21.000 10.020 M6.000 13.710 C 6.000 14.915,5.988 16.777,5.973 17.849 C 5.950 19.580,5.940 19.801,5.883 19.818 C 5.705 19.873,5.101 19.957,5.077 19.930 C 5.062 19.914,5.036 18.015,5.021 15.710 L 4.992 11.520 5.496 11.520 L 6.000 11.520 6.000 13.710 M10.480 15.474 L 10.480 19.429 10.150 19.454 C 9.969 19.467,9.202 19.525,8.446 19.582 C 7.691 19.639,7.061 19.674,7.046 19.659 C 7.032 19.645,7.015 17.808,7.008 15.577 L 6.996 11.520 8.738 11.520 L 10.480 11.520 10.480 15.474 M12.480 15.460 L 12.480 19.400 12.000 19.400 L 11.520 19.400 11.520 15.460 L 11.520 11.520 12.000 11.520 L 12.480 11.520 12.480 15.460 M17.000 15.600 L 17.000 19.680 16.890 19.680 C 16.829 19.680,16.078 19.626,15.220 19.560 C 14.362 19.494,13.628 19.440,13.590 19.440 C 13.524 19.440,13.520 19.225,13.520 15.480 L 13.520 11.520 15.260 11.520 L 17.000 11.520 17.000 15.600 M19.000 13.993 C 19.000 15.354,18.988 17.255,18.973 18.217 L 18.947 19.968 18.803 19.946 C 18.725 19.935,18.512 19.904,18.330 19.878 L 18.000 19.831 18.000 15.675 L 18.000 11.520 18.500 11.520 L 19.000 11.520 19.000 13.993 " fill="#EC0000" stroke="none" fill-rule="evenodd"></path></svg>