<svg width="24" height="25" viewBox="0 0 24 25" fill="none" xmlns="http://www.w3.org/2000/svg"><path d="M11.663 2.674 C 11.550 2.794,11.546 2.815,11.516 3.349 C 11.499 3.652,11.484 5.633,11.482 7.752 L 11.480 11.603 11.322 11.812 C 11.143 12.049,11.002 12.337,11.001 12.468 C 10.998 12.768,11.311 13.227,11.625 13.383 C 11.863 13.501,12.213 13.487,12.448 13.349 C 13.044 13.000,13.129 12.235,12.624 11.763 C 12.525 11.671,12.520 11.647,12.522 11.263 C 12.523 11.041,12.539 10.602,12.557 10.286 C 12.599 9.565,12.608 9.552,12.964 9.701 C 13.756 10.030,14.313 10.542,14.661 11.260 C 14.865 11.681,14.920 11.946,14.920 12.497 C 14.919 13.098,14.870 13.325,14.635 13.800 C 14.454 14.165,14.379 14.268,14.064 14.582 C 13.686 14.957,13.335 15.176,12.840 15.345 C 12.521 15.454,11.439 15.454,11.120 15.345 C 10.499 15.134,9.885 14.653,9.516 14.090 C 9.308 13.772,9.233 13.569,9.020 12.760 C 8.860 12.148,8.812 12.080,8.537 12.080 C 8.287 12.080,8.173 12.147,8.073 12.354 C 7.990 12.525,7.988 12.555,8.032 12.901 C 8.111 13.525,8.367 14.198,8.733 14.740 C 9.203 15.437,10.107 16.094,10.941 16.344 C 11.271 16.443,12.647 16.446,13.045 16.348 C 13.624 16.206,14.122 15.906,14.710 15.344 C 15.154 14.920,15.383 14.613,15.598 14.153 C 15.884 13.543,15.940 13.272,15.937 12.520 C 15.935 11.977,15.919 11.806,15.850 11.553 C 15.656 10.851,15.334 10.272,14.878 9.806 C 14.408 9.326,13.884 9.007,13.060 8.702 C 12.840 8.620,12.633 8.527,12.600 8.495 C 12.551 8.448,12.538 8.265,12.526 7.477 L 12.513 6.517 12.606 6.538 C 12.658 6.550,12.879 6.597,13.098 6.644 C 14.382 6.915,15.731 7.686,16.477 8.575 C 17.078 9.290,17.516 10.099,17.744 10.916 C 17.929 11.576,17.965 13.021,17.815 13.760 C 17.426 15.682,15.939 17.404,14.069 18.097 C 13.296 18.384,13.089 18.416,12.040 18.418 C 11.396 18.419,11.012 18.403,10.820 18.365 C 10.046 18.212,9.138 17.809,8.516 17.342 C 8.106 17.034,7.401 16.312,7.121 15.913 C 6.547 15.097,6.317 14.494,6.079 13.180 C 6.011 12.806,5.935 12.430,5.910 12.345 C 5.788 11.929,5.191 11.954,5.046 12.381 C 4.976 12.588,5.006 13.124,5.119 13.680 C 5.227 14.215,5.548 15.182,5.763 15.622 C 6.442 17.011,7.806 18.286,9.300 18.927 C 10.273 19.345,10.933 19.459,12.200 19.428 C 13.277 19.402,13.699 19.317,14.700 18.921 C 17.333 17.880,19.222 14.839,18.966 12.054 C 18.784 10.076,17.930 8.396,16.502 7.207 C 15.577 6.437,14.663 5.995,13.301 5.662 C 12.976 5.583,12.679 5.501,12.641 5.481 C 12.582 5.449,12.568 5.353,12.543 4.821 C 12.528 4.478,12.527 4.052,12.543 3.875 L 12.571 3.552 12.876 3.579 C 13.775 3.660,15.192 4.069,16.003 4.481 C 16.767 4.870,17.685 5.534,18.312 6.151 C 19.212 7.038,19.783 7.909,20.272 9.140 C 20.785 10.431,20.918 11.102,20.919 12.401 C 20.920 13.572,20.787 14.490,20.493 15.335 C 19.824 17.258,18.561 18.915,16.963 19.969 C 15.987 20.613,14.557 21.183,13.420 21.380 C 12.933 21.464,11.649 21.501,11.113 21.446 C 9.500 21.280,7.688 20.546,6.476 19.568 C 6.078 19.248,5.340 18.507,5.013 18.102 C 3.927 16.753,3.382 15.405,3.080 13.320 C 2.952 12.439,2.908 12.270,2.769 12.147 C 2.642 12.034,2.349 12.048,2.184 12.174 C 2.015 12.303,1.993 12.448,2.040 13.143 C 2.172 15.118,2.982 17.200,4.218 18.740 C 4.544 19.146,5.283 19.882,5.706 20.223 C 6.938 21.216,8.460 21.942,10.012 22.277 C 10.893 22.467,12.053 22.530,12.966 22.438 C 14.755 22.258,16.858 21.403,18.180 20.319 C 18.659 19.926,19.761 18.769,20.065 18.340 C 20.880 17.191,21.378 16.087,21.746 14.620 C 21.950 13.806,22.015 12.635,21.922 11.440 C 21.864 10.682,21.557 9.521,21.173 8.603 C 19.880 5.507,16.867 3.169,13.520 2.661 C 13.289 2.626,12.803 2.587,12.440 2.574 L 11.780 2.551 11.663 2.674 " fill="#EC0000" stroke="none" fill-rule="evenodd"></path></svg>