<svg width="24" height="25" viewBox="0 0 24 25" fill="none" xmlns="http://www.w3.org/2000/svg"><path d="M11.147 2.641 C 10.647 2.720,9.875 3.117,9.294 3.593 C 9.109 3.745,8.954 3.928,8.753 4.233 C 8.175 5.110,6.443 8.057,4.072 12.200 C 2.633 14.713,2.217 15.463,2.093 15.770 L 1.997 16.006 2.081 16.141 C 2.175 16.294,2.387 16.440,2.516 16.440 C 2.719 16.440,3.085 15.909,4.260 13.905 C 4.590 13.343,4.871 12.882,4.885 12.881 C 4.920 12.879,4.955 14.272,5.003 17.660 C 5.025 19.266,5.060 20.729,5.080 20.911 C 5.118 21.259,5.223 21.520,5.428 21.783 C 5.572 21.965,5.955 22.256,6.249 22.404 L 6.478 22.520 12.006 22.520 L 17.533 22.520 17.797 22.376 C 18.342 22.077,18.739 21.686,18.864 21.322 C 18.939 21.105,18.990 19.660,19.018 16.960 C 19.045 14.359,19.080 12.880,19.114 12.881 C 19.129 12.882,19.310 13.174,19.518 13.531 C 20.599 15.384,21.107 16.192,21.273 16.323 C 21.464 16.473,21.765 16.391,21.916 16.146 C 21.962 16.072,22.000 15.985,22.000 15.954 C 22.000 15.754,16.137 5.539,15.351 4.368 C 15.126 4.034,14.664 3.556,14.317 3.301 C 14.037 3.095,13.337 2.743,13.080 2.680 C 12.845 2.622,11.447 2.594,11.147 2.641 M12.725 3.640 C 13.014 3.693,13.605 3.991,13.900 4.232 C 14.325 4.580,14.618 5.040,16.678 8.596 L 18.000 10.878 18.000 13.029 C 18.000 14.212,17.988 16.490,17.973 18.090 L 17.947 21.001 17.813 21.157 C 17.740 21.243,17.599 21.352,17.501 21.399 C 17.333 21.481,17.248 21.487,15.988 21.509 L 14.653 21.532 14.624 18.929 C 14.593 16.098,14.552 14.893,14.478 14.689 C 14.451 14.612,14.338 14.482,14.208 14.376 L 13.985 14.194 12.003 14.207 C 10.104 14.219,10.014 14.223,9.884 14.300 C 9.650 14.438,9.521 14.637,9.479 14.923 C 9.431 15.255,9.360 18.354,9.360 20.134 L 9.360 21.520 8.010 21.520 C 6.493 21.520,6.568 21.533,6.247 21.203 C 6.093 21.044,6.091 21.038,6.067 20.651 C 6.053 20.436,6.030 18.154,6.016 15.580 L 5.990 10.900 7.408 8.460 C 9.514 4.838,9.724 4.510,10.130 4.205 C 10.406 3.997,10.933 3.715,11.159 3.654 C 11.380 3.595,12.427 3.585,12.725 3.640 M12.994 15.146 L 13.600 15.172 13.600 18.346 L 13.600 21.520 12.000 21.520 L 10.400 21.520 10.400 18.320 L 10.400 15.120 11.394 15.120 C 11.940 15.120,12.660 15.132,12.994 15.146 " fill="#EC0000" stroke="none" fill-rule="evenodd"></path></svg>