<svg width="25" height="25" viewBox="0 0 25 25" fill="none" xmlns="http://www.w3.org/2000/svg"><path d="M11.188 3.037 C 10.570 3.065,10.559 3.068,10.269 3.221 C 9.870 3.432,9.563 3.733,9.418 4.055 C 9.274 4.373,8.840 5.700,8.666 6.350 C 8.429 7.239,8.510 7.425,9.148 7.452 L 9.499 7.467 9.510 9.096 L 9.521 10.725 9.702 10.852 L 9.882 10.979 12.972 10.979 C 15.884 10.979,16.071 10.975,16.216 10.903 C 16.312 10.855,16.389 10.777,16.421 10.695 C 16.459 10.600,16.478 10.123,16.490 9.015 L 16.507 7.468 16.856 7.450 C 17.243 7.430,17.341 7.377,17.443 7.138 C 17.493 7.020,17.487 6.961,17.394 6.602 C 17.260 6.087,16.638 4.192,16.540 4.000 C 16.347 3.623,15.894 3.258,15.442 3.116 C 15.213 3.044,15.021 3.035,13.500 3.022 C 12.572 3.014,11.531 3.021,11.188 3.037 M15.343 4.151 C 15.429 4.206,15.548 4.324,15.607 4.413 C 15.782 4.678,16.284 6.268,16.234 6.399 C 16.214 6.450,15.751 6.458,13.090 6.458 C 11.373 6.458,9.909 6.446,9.836 6.432 C 9.673 6.399,9.668 6.427,10.009 5.375 C 10.291 4.500,10.392 4.298,10.614 4.160 C 10.757 4.071,10.833 4.060,11.479 4.038 C 11.869 4.025,12.862 4.022,13.688 4.032 C 15.186 4.050,15.188 4.051,15.343 4.151 M7.762 4.476 C 7.379 4.648,6.473 5.366,5.854 5.988 C 4.121 7.732,3.180 9.854,2.992 12.445 L 2.943 13.124 3.044 13.233 C 3.253 13.456,3.450 13.506,3.686 13.394 C 3.901 13.292,3.910 13.257,4.042 12.063 C 4.174 10.872,4.455 9.913,4.972 8.896 C 5.625 7.608,6.441 6.657,7.730 5.680 C 8.436 5.145,8.509 5.049,8.417 4.771 C 8.330 4.507,8.013 4.364,7.762 4.476 M17.739 4.500 C 17.601 4.609,17.500 4.791,17.500 4.932 C 17.500 5.084,17.666 5.257,18.184 5.644 C 19.225 6.424,19.848 7.074,20.486 8.044 C 21.356 9.367,21.770 10.611,21.933 12.396 C 21.965 12.741,22.020 13.091,22.056 13.179 C 22.177 13.467,22.566 13.536,22.823 13.314 L 22.938 13.215 22.933 12.576 C 22.924 11.318,22.659 10.154,22.098 8.901 C 21.314 7.152,19.974 5.576,18.479 4.644 C 18.101 4.409,17.903 4.370,17.739 4.500 M15.500 8.135 C 15.500 8.508,15.487 9.080,15.473 9.406 L 15.445 10.000 14.476 10.000 L 13.506 10.000 13.493 9.420 C 13.481 8.908,13.469 8.825,13.392 8.722 C 13.266 8.552,13.031 8.482,12.815 8.551 C 12.568 8.629,12.528 8.743,12.507 9.427 L 12.491 10.000 11.495 10.000 L 10.500 10.000 10.500 8.729 L 10.500 7.458 13.000 7.458 L 15.500 7.458 15.500 8.135 M6.188 12.037 C 5.570 12.065,5.559 12.068,5.269 12.221 C 4.870 12.432,4.563 12.733,4.418 13.055 C 4.274 13.373,3.840 14.700,3.666 15.350 C 3.429 16.239,3.510 16.425,4.148 16.452 L 4.499 16.467 4.510 18.096 L 4.521 19.725 4.702 19.852 L 4.882 19.979 7.972 19.979 C 10.884 19.979,11.071 19.975,11.216 19.903 C 11.312 19.855,11.389 19.777,11.421 19.695 C 11.459 19.600,11.478 19.123,11.490 18.015 L 11.507 16.468 11.856 16.450 C 12.243 16.430,12.341 16.377,12.443 16.138 C 12.493 16.020,12.487 15.961,12.394 15.602 C 12.260 15.087,11.638 13.192,11.540 13.000 C 11.347 12.623,10.894 12.258,10.442 12.116 C 10.213 12.044,10.021 12.035,8.500 12.022 C 7.572 12.014,6.531 12.021,6.188 12.037 M16.188 12.037 C 15.570 12.065,15.559 12.068,15.269 12.221 C 14.870 12.432,14.563 12.733,14.418 13.055 C 14.274 13.373,13.840 14.700,13.666 15.350 C 13.429 16.239,13.510 16.425,14.148 16.452 L 14.499 16.467 14.510 18.096 L 14.521 19.725 14.702 19.852 L 14.882 19.979 17.972 19.979 C 20.884 19.979,21.071 19.975,21.216 19.903 C 21.312 19.855,21.389 19.777,21.421 19.695 C 21.459 19.600,21.478 19.123,21.490 18.015 L 21.507 16.468 21.856 16.450 C 22.243 16.430,22.341 16.377,22.443 16.138 C 22.493 16.020,22.487 15.961,22.394 15.602 C 22.260 15.087,21.638 13.192,21.540 13.000 C 21.347 12.623,20.894 12.258,20.442 12.116 C 20.213 12.044,20.021 12.035,18.500 12.022 C 17.572 12.014,16.531 12.021,16.188 12.037 M10.343 13.151 C 10.429 13.206,10.548 13.324,10.607 13.413 C 10.782 13.678,11.284 15.268,11.234 15.399 C 11.214 15.450,10.751 15.458,8.090 15.458 C 6.373 15.458,4.909 15.446,4.836 15.432 C 4.673 15.399,4.668 15.427,5.009 14.375 C 5.291 13.500,5.392 13.298,5.614 13.160 C 5.757 13.071,5.833 13.060,6.479 13.038 C 6.869 13.025,7.862 13.022,8.688 13.032 C 10.186 13.050,10.188 13.051,10.343 13.151 M20.343 13.151 C 20.429 13.206,20.548 13.324,20.607 13.413 C 20.782 13.678,21.284 15.268,21.234 15.399 C 21.214 15.450,20.751 15.458,18.090 15.458 C 16.373 15.458,14.909 15.446,14.836 15.432 C 14.674 15.399,14.668 15.434,15.009 14.375 C 15.290 13.502,15.392 13.298,15.614 13.160 C 15.757 13.071,15.833 13.060,16.479 13.038 C 16.869 13.025,17.862 13.022,18.688 13.032 C 20.186 13.050,20.188 13.051,20.343 13.151 M10.500 17.135 C 10.500 17.508,10.487 18.080,10.473 18.406 L 10.445 19.000 9.476 19.000 L 8.506 19.000 8.493 18.420 C 8.481 17.908,8.469 17.825,8.392 17.722 C 8.266 17.552,8.031 17.482,7.815 17.551 C 7.568 17.629,7.528 17.743,7.507 18.427 L 7.491 19.000 6.495 19.000 L 5.500 19.000 5.500 17.729 L 5.500 16.458 8.000 16.458 L 10.500 16.458 10.500 17.135 M20.500 17.135 C 20.500 17.508,20.487 18.080,20.473 18.406 L 20.445 19.000 19.476 19.000 L 18.506 19.000 18.493 18.420 C 18.481 17.908,18.469 17.825,18.392 17.722 C 18.266 17.552,18.031 17.482,17.815 17.551 C 17.568 17.629,17.528 17.743,17.507 18.427 L 17.491 19.000 16.495 19.000 L 15.500 19.000 15.500 17.729 L 15.500 16.458 18.000 16.458 L 20.500 16.458 20.500 17.135 M8.097 20.859 C 7.967 20.923,7.833 21.131,7.833 21.269 C 7.833 21.576,8.367 21.921,9.490 22.337 C 10.521 22.720,11.377 22.904,12.385 22.960 C 13.986 23.048,15.270 22.824,16.854 22.180 C 17.740 21.820,17.989 21.641,18.030 21.339 C 18.058 21.129,17.982 20.999,17.774 20.900 C 17.589 20.812,17.460 20.842,16.797 21.130 C 15.892 21.523,14.858 21.826,14.108 21.917 C 13.610 21.978,12.355 21.979,11.917 21.919 C 10.975 21.790,9.982 21.496,9.022 21.061 C 8.695 20.913,8.383 20.792,8.328 20.793 C 8.274 20.793,8.170 20.823,8.097 20.859 " fill="#EC0000" stroke="none" fill-rule="evenodd"></path></svg>