<svg width="24" height="25" viewBox="0 0 24 25" fill="none" xmlns="http://www.w3.org/2000/svg"><path d="M10.560 2.625 C 10.505 2.635,10.316 2.671,10.140 2.704 C 8.977 2.923,7.572 3.491,6.560 4.151 C 5.377 4.923,4.245 6.081,3.501 7.282 C 2.782 8.441,2.289 9.838,2.075 11.320 C 2.001 11.833,2.012 13.203,2.095 13.780 C 2.270 15.008,2.715 16.357,3.265 17.330 C 4.305 19.171,6.037 20.760,7.925 21.606 C 8.739 21.970,9.818 22.287,10.620 22.396 C 11.111 22.462,12.201 22.487,12.803 22.445 C 14.677 22.315,16.656 21.528,18.244 20.280 C 19.947 18.942,21.265 16.809,21.778 14.560 C 22.005 13.565,22.007 11.364,21.782 10.448 C 21.639 9.867,21.349 8.999,21.137 8.513 C 19.830 5.524,17.227 3.428,13.940 2.718 C 13.580 2.640,13.396 2.630,12.100 2.619 C 11.308 2.612,10.615 2.615,10.560 2.625 M12.238 3.619 C 12.673 3.920,13.808 5.466,14.415 6.584 C 14.702 7.111,15.240 8.236,15.298 8.430 L 15.325 8.520 12.000 8.520 L 8.675 8.520 8.702 8.430 C 8.766 8.222,9.302 7.066,9.532 6.641 C 10.251 5.309,11.660 3.520,11.990 3.520 C 12.048 3.520,12.160 3.564,12.238 3.619 M10.216 3.730 C 10.200 3.758,10.006 4.035,9.785 4.346 C 9.565 4.657,9.261 5.107,9.110 5.346 C 8.755 5.907,8.166 7.090,7.844 7.890 L 7.590 8.520 5.940 8.520 C 5.033 8.520,4.234 8.509,4.165 8.495 C 4.085 8.479,4.040 8.446,4.040 8.404 C 4.040 8.325,4.472 7.597,4.719 7.259 C 5.446 6.266,6.400 5.406,7.514 4.739 C 8.108 4.384,8.690 4.127,9.401 3.907 C 10.200 3.660,10.264 3.646,10.216 3.730 M14.145 3.778 C 15.316 4.074,16.675 4.756,17.640 5.534 C 18.079 5.887,18.817 6.645,19.151 7.084 C 19.478 7.516,19.960 8.303,19.960 8.407 C 19.960 8.454,19.917 8.484,19.830 8.500 C 19.758 8.513,18.956 8.518,18.047 8.511 L 16.394 8.500 16.096 7.765 C 15.549 6.410,15.177 5.728,14.303 4.480 C 13.707 3.627,13.730 3.666,13.825 3.694 C 13.866 3.706,14.010 3.744,14.145 3.778 M7.251 9.596 C 7.268 9.613,7.233 9.958,7.173 10.363 C 7.070 11.060,7.064 11.179,7.064 12.540 C 7.064 13.932,7.068 14.004,7.179 14.696 C 7.290 15.390,7.291 15.413,7.219 15.466 C 7.159 15.510,6.798 15.520,5.335 15.520 C 4.339 15.520,3.515 15.504,3.503 15.485 C 3.472 15.435,3.297 14.724,3.197 14.240 C 3.128 13.904,3.107 13.631,3.091 12.880 C 3.063 11.584,3.144 10.798,3.403 9.837 L 3.492 9.508 5.356 9.537 C 6.381 9.552,7.234 9.579,7.251 9.596 M15.713 10.010 C 15.879 10.963,15.891 11.129,15.894 12.480 C 15.896 13.869,15.864 14.284,15.686 15.160 L 15.617 15.500 12.298 15.512 C 10.473 15.519,8.850 15.513,8.692 15.499 C 8.412 15.474,8.403 15.470,8.363 15.347 C 8.289 15.117,8.161 14.309,8.121 13.820 C 8.032 12.736,8.099 10.914,8.258 10.102 C 8.314 9.817,8.360 9.579,8.360 9.574 C 8.360 9.544,9.181 9.535,12.244 9.528 L 15.628 9.520 15.713 10.010 M20.633 10.030 C 21.039 11.751,21.040 13.383,20.637 14.977 C 20.571 15.239,20.505 15.471,20.492 15.493 C 20.469 15.530,16.770 15.504,16.733 15.467 C 16.725 15.459,16.754 15.175,16.798 14.836 C 17.016 13.133,17.016 11.654,16.798 10.233 C 16.694 9.556,16.693 9.568,16.850 9.549 C 16.922 9.540,17.775 9.530,18.747 9.526 L 20.513 9.520 20.633 10.030 M7.702 16.730 C 8.074 17.878,8.914 19.433,9.925 20.845 C 10.163 21.177,10.241 21.320,10.186 21.320 C 10.114 21.320,9.002 20.969,8.712 20.856 C 7.330 20.312,5.995 19.339,5.093 18.220 C 4.799 17.855,4.273 17.091,4.082 16.750 L 3.952 16.520 5.793 16.520 L 7.634 16.520 7.702 16.730 M15.240 16.720 C 14.755 17.950,13.864 19.481,13.027 20.520 C 12.599 21.052,12.118 21.520,12.000 21.520 C 11.946 21.520,11.805 21.417,11.631 21.250 C 10.675 20.330,9.374 18.279,8.760 16.720 L 8.681 16.520 12.000 16.520 L 15.319 16.520 15.240 16.720 M19.919 16.750 C 18.884 18.597,17.239 20.066,15.364 20.819 C 14.874 21.015,14.040 21.280,13.911 21.280 C 13.803 21.280,13.817 21.252,14.232 20.632 C 15.285 19.058,15.837 18.035,16.219 16.950 L 16.371 16.520 18.209 16.520 L 20.048 16.520 19.919 16.750 " fill="#EC0000" stroke="none" fill-rule="evenodd"></path></svg>