<svg width="24" height="24" viewBox="0 0 24 24" fill="none" xmlns="http://www.w3.org/2000/svg"><path d="M11.912 2.036 C 11.729 2.074,11.643 2.143,11.574 2.309 C 11.487 2.517,11.506 2.672,11.634 2.800 C 11.778 2.944,11.935 2.984,12.580 3.040 C 14.207 3.182,15.452 3.587,16.764 4.400 C 18.811 5.670,20.313 7.814,20.778 10.129 C 21.043 11.452,21.013 13.016,20.698 14.360 C 20.368 15.765,19.655 17.265,18.761 18.438 C 18.271 19.081,17.359 20.013,17.289 19.943 C 17.275 19.928,17.251 19.387,17.237 18.740 C 17.209 17.420,17.204 17.400,16.924 17.316 C 16.740 17.261,16.521 17.294,16.396 17.395 C 16.318 17.458,16.303 17.522,16.276 17.884 C 16.227 18.530,16.233 20.765,16.284 21.001 C 16.311 21.127,16.375 21.260,16.449 21.345 L 16.571 21.483 18.362 21.472 L 20.154 21.460 20.262 21.360 C 20.611 21.038,20.464 20.583,19.990 20.516 C 19.874 20.499,19.441 20.485,19.027 20.483 L 18.274 20.480 18.696 20.030 C 20.411 18.200,21.407 16.216,21.843 13.760 C 22.036 12.669,22.020 11.162,21.802 10.085 C 21.503 8.603,20.868 7.185,19.963 5.982 C 19.583 5.476,18.778 4.645,18.275 4.241 C 17.062 3.263,15.623 2.570,14.180 2.266 C 13.309 2.083,12.221 1.973,11.912 2.036 M4.178 2.557 C 3.809 2.583,3.662 2.657,3.578 2.858 C 3.507 3.028,3.565 3.251,3.721 3.407 L 3.834 3.520 4.781 3.520 L 5.727 3.520 5.319 3.950 C 3.569 5.793,2.529 7.908,2.127 10.440 C 1.965 11.455,1.986 12.876,2.177 13.826 C 2.943 17.651,5.655 20.599,9.342 21.615 C 10.451 21.921,11.767 22.080,12.139 21.954 C 12.463 21.843,12.584 21.419,12.360 21.180 C 12.251 21.063,12.220 21.057,11.427 20.980 C 10.093 20.850,9.051 20.567,8.036 20.059 C 5.504 18.791,3.759 16.507,3.179 13.700 C 3.087 13.253,3.069 13.050,3.050 12.253 C 3.028 11.251,3.056 10.888,3.224 10.040 C 3.608 8.104,4.518 6.277,5.773 4.920 C 6.048 4.623,6.370 4.296,6.490 4.193 L 6.708 4.005 6.734 4.393 C 6.748 4.606,6.760 5.159,6.760 5.623 C 6.760 6.446,6.762 6.468,6.850 6.548 C 6.900 6.594,6.999 6.660,7.071 6.697 C 7.302 6.813,7.641 6.660,7.708 6.409 C 7.724 6.349,7.738 5.562,7.739 4.660 C 7.740 2.890,7.729 2.780,7.533 2.652 C 7.454 2.600,7.275 2.579,6.706 2.556 C 5.885 2.522,4.659 2.522,4.178 2.557 M10.740 6.119 C 10.230 6.230,9.854 6.370,9.279 6.665 C 8.089 7.275,7.138 8.236,6.601 9.371 C 5.958 10.730,5.819 12.020,6.166 13.420 C 6.443 14.537,6.952 15.433,7.770 16.246 C 8.609 17.079,9.451 17.550,10.620 17.840 C 12.220 18.237,13.885 17.945,15.303 17.019 C 15.790 16.701,16.708 15.786,17.018 15.310 C 18.016 13.774,18.275 11.920,17.733 10.181 C 17.590 9.720,17.209 8.958,16.914 8.540 C 16.603 8.100,15.967 7.459,15.533 7.150 C 14.927 6.717,14.170 6.361,13.471 6.178 C 13.090 6.078,12.988 6.069,12.080 6.055 C 11.222 6.043,11.055 6.051,10.740 6.119 M12.230 7.250 C 12.728 7.883,13.226 8.795,13.418 9.430 L 13.445 9.520 12.000 9.520 L 10.555 9.520 10.582 9.430 C 10.712 9.001,11.124 8.159,11.409 7.743 C 11.623 7.428,11.966 7.000,12.004 7.000 C 12.020 7.000,12.122 7.112,12.230 7.250 M10.245 7.695 C 10.024 8.104,9.742 8.772,9.596 9.230 L 9.504 9.520 8.662 9.519 C 8.199 9.519,7.796 9.503,7.766 9.484 C 7.721 9.456,7.725 9.429,7.784 9.335 C 8.170 8.727,8.878 8.059,9.560 7.662 C 9.917 7.454,10.417 7.236,10.433 7.282 C 10.441 7.303,10.356 7.489,10.245 7.695 M13.705 7.304 C 14.443 7.609,15.041 8.007,15.553 8.537 C 15.948 8.946,16.329 9.432,16.297 9.485 C 16.285 9.504,15.875 9.520,15.386 9.520 L 14.496 9.520 14.404 9.230 C 14.255 8.763,13.970 8.091,13.734 7.650 C 13.613 7.425,13.522 7.240,13.532 7.240 C 13.542 7.240,13.620 7.269,13.705 7.304 M9.255 10.750 C 9.215 11.049,9.216 12.901,9.256 13.251 L 9.287 13.521 8.254 13.511 L 7.222 13.500 7.152 13.200 C 6.984 12.479,6.979 11.644,7.140 10.881 C 7.173 10.724,7.200 10.588,7.200 10.580 C 7.200 10.545,7.479 10.532,8.353 10.526 L 9.286 10.520 9.255 10.750 M16.372 10.546 L 16.797 10.572 16.869 10.876 C 16.973 11.320,16.965 12.815,16.855 13.220 L 16.780 13.500 15.750 13.511 L 14.719 13.521 14.750 13.231 C 14.788 12.863,14.789 11.148,14.752 10.790 L 14.723 10.520 15.335 10.520 C 15.672 10.520,16.139 10.532,16.372 10.546 M13.720 10.644 C 13.720 10.690,13.740 10.989,13.765 11.307 C 13.798 11.739,13.797 12.068,13.762 12.613 C 13.736 13.013,13.705 13.380,13.693 13.430 L 13.671 13.520 12.000 13.520 L 10.329 13.520 10.306 13.410 C 10.293 13.350,10.263 12.994,10.239 12.620 C 10.191 11.868,10.239 10.718,10.323 10.617 C 10.362 10.569,10.648 10.560,12.045 10.560 L 13.720 10.560 13.720 10.644 M9.684 15.028 C 9.779 15.307,9.997 15.812,10.168 16.150 C 10.439 16.687,10.467 16.762,10.389 16.740 C 10.231 16.697,9.507 16.331,9.260 16.169 C 8.803 15.871,8.162 15.233,7.834 14.750 L 7.677 14.520 8.594 14.520 L 9.511 14.520 9.684 15.028 M13.342 14.778 C 13.108 15.400,12.497 16.459,12.142 16.860 L 12.000 17.020 11.857 16.860 C 11.496 16.457,10.902 15.428,10.660 14.784 L 10.561 14.520 12.000 14.520 L 13.439 14.520 13.342 14.778 M16.154 14.770 C 15.938 15.088,15.259 15.789,14.920 16.043 C 14.676 16.227,13.809 16.688,13.609 16.742 C 13.528 16.763,13.548 16.707,13.797 16.213 C 14.057 15.698,14.398 14.884,14.461 14.630 L 14.489 14.520 15.406 14.520 L 16.323 14.520 16.154 14.770 " fill="#EC0000" stroke="none" fill-rule="evenodd"></path></svg>