<svg width="24" height="25" viewBox="0 0 24 25" fill="none" xmlns="http://www.w3.org/2000/svg"><path d="M6.990 6.588 C 6.715 6.602,6.673 6.614,6.616 6.700 C 6.529 6.834,6.483 7.571,6.481 8.890 L 6.480 9.960 5.750 9.963 C 4.642 9.967,3.596 10.021,3.471 10.080 C 3.358 10.134,3.342 10.164,3.305 10.400 C 3.292 10.477,3.264 11.899,3.242 13.560 C 3.220 15.221,3.190 16.962,3.177 17.430 L 3.151 18.279 2.766 18.399 C 2.315 18.539,2.133 18.641,2.079 18.783 C 1.972 19.064,2.096 19.366,2.348 19.440 C 2.479 19.478,2.700 19.451,3.920 19.245 C 5.859 18.918,7.323 18.733,8.702 18.639 C 9.530 18.583,13.698 18.583,14.960 18.640 C 16.544 18.710,17.828 18.861,19.960 19.224 C 20.543 19.323,21.176 19.415,21.367 19.428 C 21.715 19.451,21.715 19.451,21.837 19.329 C 21.937 19.229,21.960 19.173,21.959 19.033 C 21.958 18.685,21.831 18.571,21.260 18.409 L 20.860 18.295 20.833 17.758 C 20.819 17.462,20.786 15.720,20.762 13.886 C 20.737 12.052,20.707 10.495,20.696 10.426 C 20.651 10.159,20.639 10.132,20.531 10.081 C 20.404 10.021,19.366 9.967,18.254 9.963 L 17.528 9.960 17.511 8.450 C 17.500 7.449,17.479 6.904,17.449 6.832 C 17.424 6.773,17.354 6.692,17.294 6.652 C 17.189 6.584,16.932 6.580,12.242 6.577 C 9.524 6.575,7.160 6.580,6.990 6.588 M11.480 8.740 L 11.480 9.960 9.500 9.960 L 7.520 9.960 7.520 8.740 L 7.520 7.520 9.500 7.520 L 11.480 7.520 11.480 8.740 M16.480 8.740 L 16.480 9.960 14.500 9.960 L 12.520 9.960 12.520 8.740 L 12.520 7.520 14.500 7.520 L 16.480 7.520 16.480 8.740 M6.480 12.620 L 6.480 14.280 5.360 14.280 L 4.240 14.280 4.240 12.620 L 4.240 10.960 5.360 10.960 L 6.480 10.960 6.480 12.620 M11.480 12.620 L 11.480 14.280 9.500 14.280 L 7.520 14.280 7.520 12.620 L 7.520 10.960 9.500 10.960 L 11.480 10.960 11.480 12.620 M16.480 12.620 L 16.480 14.280 14.500 14.280 L 12.520 14.280 12.520 12.620 L 12.520 10.960 14.500 10.960 L 16.480 10.960 16.480 12.620 M19.760 12.620 L 19.760 14.280 18.640 14.280 L 17.520 14.280 17.520 12.620 L 17.520 10.960 18.640 10.960 L 19.760 10.960 19.760 12.620 M6.480 16.540 C 6.480 17.233,6.470 17.800,6.459 17.800 C 6.447 17.800,5.958 17.863,5.372 17.940 C 4.786 18.017,4.302 18.075,4.297 18.070 C 4.292 18.064,4.275 17.434,4.258 16.670 L 4.229 15.280 5.355 15.280 L 6.480 15.280 6.480 16.540 M11.480 16.374 L 11.480 17.468 10.710 17.495 C 9.863 17.525,8.112 17.626,7.750 17.665 L 7.520 17.690 7.520 16.485 L 7.520 15.280 9.500 15.280 L 11.480 15.280 11.480 16.374 M16.480 16.485 L 16.480 17.690 16.250 17.665 C 15.888 17.626,14.137 17.525,13.290 17.495 L 12.520 17.468 12.520 16.374 L 12.520 15.280 14.500 15.280 L 16.480 15.280 16.480 16.485 M19.742 16.590 C 19.727 17.311,19.705 17.931,19.694 17.970 C 19.667 18.065,19.580 18.062,18.497 17.920 C 17.993 17.854,17.567 17.800,17.550 17.800 C 17.534 17.800,17.520 17.233,17.520 16.540 L 17.520 15.280 18.645 15.280 L 19.769 15.280 19.742 16.590 " fill="#EC0000" stroke="none" fill-rule="evenodd"></path></svg>