<svg width="24" height="24" viewBox="0 0 24 24" fill="none" xmlns="http://www.w3.org/2000/svg"><path d="M11.424 2.046 C 10.365 2.181,9.237 2.797,8.585 3.594 C 7.977 4.337,7.631 5.177,7.521 6.180 C 7.497 6.400,7.489 6.674,7.503 6.790 L 7.529 7.000 6.515 7.001 C 5.137 7.003,4.825 7.036,4.453 7.220 C 4.058 7.415,3.692 7.782,3.504 8.170 C 3.396 8.394,3.290 8.779,3.039 9.860 C 2.557 11.938,2.000 14.448,2.000 14.541 C 2.000 14.688,2.189 14.913,2.350 14.958 C 2.433 14.981,2.837 15.000,3.249 15.000 L 3.998 15.000 4.009 17.950 L 4.020 20.900 4.137 21.140 C 4.205 21.280,4.352 21.476,4.487 21.609 C 4.901 22.016,4.181 21.980,12.000 21.980 C 19.819 21.980,19.099 22.016,19.513 21.609 C 19.648 21.476,19.795 21.280,19.863 21.140 L 19.980 20.900 19.991 17.950 L 20.002 15.000 20.751 15.000 C 21.644 15.000,21.763 14.974,21.907 14.756 C 22.037 14.560,22.059 14.704,21.536 12.384 C 20.801 9.128,20.613 8.376,20.472 8.111 C 20.287 7.764,19.906 7.397,19.547 7.220 C 19.175 7.036,18.863 7.003,17.499 7.001 L 16.499 7.000 16.494 6.550 C 16.480 5.355,16.007 4.183,15.211 3.375 C 14.844 3.002,14.466 2.735,13.940 2.478 C 13.105 2.069,12.307 1.932,11.424 2.046 M13.040 3.169 C 13.484 3.340,13.937 3.586,14.163 3.779 C 15.327 4.772,15.745 6.185,15.295 7.608 C 15.107 8.203,14.717 8.949,14.147 9.800 C 13.537 10.712,12.784 11.632,12.476 11.840 C 12.290 11.966,12.241 11.980,12.000 11.980 C 11.759 11.980,11.710 11.966,11.524 11.840 C 10.898 11.417,9.281 9.095,8.840 7.988 C 8.605 7.397,8.548 7.113,8.545 6.500 C 8.541 5.836,8.613 5.525,8.909 4.920 C 9.076 4.580,9.146 4.489,9.578 4.056 C 10.016 3.616,10.095 3.555,10.447 3.385 C 11.073 3.082,11.300 3.037,12.100 3.054 C 12.710 3.067,12.807 3.079,13.040 3.169 M11.715 5.053 C 11.347 5.191,11.129 5.419,11.039 5.760 C 10.918 6.221,11.155 6.688,11.620 6.906 C 11.969 7.069,12.322 7.014,12.624 6.748 C 13.037 6.384,13.109 5.833,12.799 5.411 C 12.570 5.100,12.049 4.928,11.715 5.053 M7.220 8.026 L 7.780 8.052 7.949 8.456 C 8.527 9.835,10.172 12.134,10.965 12.672 C 11.543 13.063,12.276 13.099,12.900 12.767 C 13.643 12.370,15.441 9.910,16.051 8.456 L 16.220 8.051 16.660 8.026 C 17.280 7.990,18.490 7.996,18.807 8.037 C 19.151 8.081,19.401 8.245,19.539 8.517 C 19.592 8.623,19.691 8.915,19.757 9.165 C 19.908 9.734,20.840 13.835,20.840 13.930 C 20.840 13.996,20.392 14.000,12.000 14.000 C 3.418 14.000,3.160 13.998,3.160 13.926 C 3.160 13.826,4.004 10.094,4.200 9.329 C 4.285 8.993,4.406 8.626,4.468 8.514 C 4.624 8.228,4.849 8.076,5.168 8.040 C 5.506 8.001,6.532 7.994,7.220 8.026 M13.000 18.002 L 13.000 21.003 9.170 20.990 C 7.064 20.982,5.299 20.961,5.248 20.943 C 5.198 20.925,5.126 20.854,5.088 20.785 C 5.026 20.671,5.019 20.410,5.008 17.830 L 4.996 15.000 8.998 15.000 L 13.000 15.000 13.000 18.002 M18.992 17.830 C 18.981 20.410,18.974 20.671,18.912 20.785 C 18.874 20.854,18.802 20.925,18.752 20.943 C 18.701 20.961,17.612 20.982,16.330 20.990 L 14.000 21.004 14.000 18.002 L 14.000 15.000 16.502 15.000 L 19.005 15.000 18.992 17.830 " fill="#EC0000" stroke="none" fill-rule="evenodd"></path></svg>