<svg width="25" height="25" viewBox="0 0 25 25" fill="none" xmlns="http://www.w3.org/2000/svg"><path d="M16.195 3.046 C 14.900 3.182,13.368 4.010,12.450 5.068 C 11.422 6.252,10.905 7.798,10.987 9.443 L 11.012 9.949 10.329 9.973 C 9.953 9.987,8.381 10.009,6.835 10.022 L 4.023 10.046 3.821 10.156 C 3.539 10.310,3.157 10.729,3.088 10.961 C 3.057 11.062,3.016 11.390,2.997 11.688 C 2.954 12.345,2.952 20.194,2.994 21.190 C 3.023 21.870,3.029 21.909,3.143 22.104 C 3.324 22.411,3.555 22.640,3.844 22.795 L 4.104 22.936 5.063 22.964 C 5.590 22.980,7.991 22.994,10.400 22.996 L 14.778 23.000 15.025 22.877 C 15.330 22.724,15.704 22.349,15.873 22.027 L 16.000 21.783 16.000 19.465 C 16.000 18.189,16.012 16.656,16.027 16.057 L 16.055 14.967 16.954 14.946 C 17.919 14.924,18.177 14.885,18.854 14.662 C 20.896 13.987,22.394 12.289,22.863 10.118 C 22.969 9.626,22.969 8.332,22.863 7.840 C 22.428 5.824,21.120 4.227,19.270 3.454 C 18.633 3.187,18.181 3.090,17.361 3.043 C 16.967 3.020,16.618 3.003,16.583 3.006 C 16.549 3.009,16.374 3.027,16.195 3.046 M17.999 4.106 C 19.886 4.464,21.483 6.087,21.859 8.029 C 21.954 8.516,21.955 9.438,21.861 9.920 C 21.622 11.151,20.936 12.242,19.932 12.986 C 19.058 13.634,18.059 13.965,16.980 13.963 C 16.128 13.962,15.421 13.787,14.678 13.395 C 13.553 12.802,12.610 11.679,12.212 10.460 C 12.079 10.055,12.029 9.495,12.052 8.694 C 12.070 8.086,12.089 7.926,12.180 7.622 C 12.752 5.712,14.372 4.309,16.313 4.044 C 16.694 3.992,17.567 4.024,17.999 4.106 M19.250 6.569 C 19.105 6.674,19.046 6.746,18.067 8.039 C 17.588 8.670,17.020 9.418,16.804 9.699 L 16.411 10.210 16.299 10.129 C 16.238 10.084,15.897 9.791,15.542 9.478 C 14.778 8.804,14.601 8.688,14.397 8.726 C 14.231 8.757,14.022 8.948,13.983 9.103 C 13.947 9.247,14.047 9.428,14.307 9.686 C 14.642 10.019,16.090 11.296,16.229 11.381 C 16.487 11.539,16.686 11.472,16.962 11.131 C 17.476 10.499,19.386 7.951,19.805 7.339 C 20.004 7.049,20.009 6.887,19.823 6.684 C 19.655 6.501,19.413 6.452,19.250 6.569 M11.593 11.575 C 11.915 12.230,12.220 12.657,12.739 13.182 C 13.264 13.713,13.724 14.043,14.386 14.366 L 14.959 14.646 14.948 18.125 C 14.939 20.706,14.923 21.633,14.887 21.717 C 14.790 21.935,14.640 21.972,13.785 21.992 L 13.008 22.010 12.993 19.703 C 12.979 17.610,12.970 17.383,12.905 17.262 C 12.865 17.188,12.790 17.103,12.739 17.074 C 12.666 17.032,11.953 17.018,9.463 17.008 L 6.280 16.995 6.119 17.152 L 5.958 17.309 5.958 19.659 L 5.958 22.010 5.177 21.992 C 4.319 21.972,4.168 21.935,4.072 21.717 C 4.034 21.632,4.018 20.332,4.009 16.432 L 3.996 11.260 4.153 11.130 L 4.311 11.000 7.812 11.002 L 11.313 11.003 11.593 11.575 M6.125 14.173 C 5.958 14.404,5.955 14.615,6.118 14.797 C 6.232 14.925,6.250 14.930,6.711 14.966 C 6.973 14.987,8.387 14.998,9.854 14.992 C 12.254 14.980,12.536 14.972,12.677 14.908 C 12.958 14.781,13.038 14.409,12.838 14.162 C 12.779 14.089,12.699 14.061,12.475 14.036 C 12.317 14.019,10.852 14.003,9.219 14.002 L 6.251 14.000 6.125 14.173 M11.958 20.000 L 11.958 22.000 9.479 22.000 L 7.000 22.000 7.000 20.000 L 7.000 18.000 9.479 18.000 L 11.958 18.000 11.958 20.000 " fill="#EC0000" stroke="none" fill-rule="evenodd"></path></svg>