<svg width="24" height="25" viewBox="0 0 24 25" fill="none" xmlns="http://www.w3.org/2000/svg"><path d="M9.840 2.598 L 8.580 2.620 8.388 2.733 C 8.134 2.882,7.766 3.259,7.675 3.463 C 7.565 3.711,7.480 4.074,7.480 4.301 L 7.480 4.505 6.845 4.545 C 6.268 4.581,6.190 4.595,5.983 4.700 C 5.709 4.839,5.248 5.308,5.101 5.597 L 5.000 5.797 5.000 8.153 L 5.000 10.509 4.610 10.620 C 3.242 11.007,2.757 11.210,2.449 11.524 C 2.126 11.852,2.040 12.058,2.040 12.499 C 2.040 12.829,2.052 12.888,2.174 13.142 C 2.423 13.662,3.891 16.046,4.734 17.300 C 5.157 17.929,5.504 18.279,5.800 18.375 C 6.182 18.498,7.481 18.523,12.860 18.511 L 17.980 18.500 18.240 18.377 C 18.685 18.165,18.936 17.858,19.870 16.379 C 20.555 15.297,21.587 13.585,21.806 13.169 L 21.969 12.860 21.951 12.480 C 21.932 12.056,21.856 11.846,21.620 11.571 C 21.380 11.290,20.758 11.025,19.390 10.619 L 19.000 10.503 18.998 8.581 C 18.995 6.160,18.975 5.849,18.801 5.496 C 18.642 5.173,18.334 4.859,18.023 4.702 C 17.809 4.595,17.735 4.582,17.155 4.545 L 16.520 4.505 16.520 4.315 C 16.520 3.882,16.349 3.402,16.094 3.118 C 16.009 3.024,15.807 2.859,15.645 2.753 L 15.350 2.560 13.225 2.568 C 12.056 2.572,10.533 2.585,9.840 2.598 M15.187 3.664 C 15.349 3.784,15.473 4.030,15.504 4.292 L 15.531 4.520 12.026 4.520 L 8.520 4.520 8.520 4.350 C 8.521 3.966,8.696 3.636,8.921 3.595 C 8.998 3.581,10.413 3.572,12.067 3.575 C 15.050 3.580,15.075 3.581,15.187 3.664 M17.660 5.634 C 17.704 5.663,17.800 5.766,17.873 5.861 L 18.005 6.034 17.981 7.767 C 17.968 8.720,17.948 9.645,17.936 9.823 L 17.914 10.147 15.627 9.494 C 12.746 8.671,12.315 8.560,12.007 8.560 C 11.707 8.560,11.150 8.701,9.166 9.278 C 6.581 10.029,6.108 10.161,6.084 10.137 C 6.048 10.101,6.056 6.161,6.092 5.989 C 6.110 5.906,6.180 5.775,6.248 5.697 L 6.372 5.556 11.976 5.568 C 16.588 5.578,17.594 5.590,17.660 5.634 M7.580 6.623 C 7.252 6.792,7.035 7.138,7.032 7.493 C 7.024 8.408,8.187 8.800,8.760 8.076 C 9.037 7.725,9.059 7.468,8.848 7.040 C 8.753 6.846,8.710 6.805,8.484 6.690 C 8.271 6.582,8.182 6.560,7.964 6.560 C 7.804 6.560,7.653 6.585,7.580 6.623 M15.580 6.623 C 15.252 6.792,15.035 7.138,15.032 7.493 C 15.024 8.408,16.187 8.800,16.760 8.076 C 17.037 7.725,17.059 7.468,16.848 7.040 C 16.753 6.846,16.710 6.805,16.484 6.690 C 16.271 6.582,16.182 6.560,15.964 6.560 C 15.804 6.560,15.653 6.585,15.580 6.623 M14.380 10.181 C 16.363 10.764,19.925 11.833,20.348 11.973 C 20.661 12.076,20.871 12.213,20.954 12.369 C 21.002 12.459,20.992 12.497,20.848 12.784 C 20.760 12.958,20.439 13.514,20.133 14.020 C 19.011 15.879,18.101 17.246,17.872 17.413 C 17.769 17.489,17.672 17.493,15.142 17.512 L 12.520 17.531 12.520 14.576 C 12.520 11.183,12.550 9.640,12.616 9.662 C 12.640 9.670,13.434 9.904,14.380 10.181 M11.407 9.863 C 11.421 9.949,11.447 11.707,11.463 13.770 L 11.493 17.520 8.814 17.520 L 6.135 17.520 6.031 17.410 C 5.800 17.165,4.216 14.670,3.445 13.337 C 2.935 12.455,2.906 12.290,3.233 12.123 C 3.407 12.035,5.514 11.390,8.600 10.480 C 11.363 9.665,11.295 9.685,11.340 9.696 C 11.362 9.702,11.392 9.777,11.407 9.863 M2.261 19.372 C 2.035 19.499,1.992 19.603,2.021 19.940 C 2.136 21.246,3.236 22.320,4.590 22.446 C 5.510 22.532,6.235 22.274,6.971 21.600 L 7.237 21.355 7.546 21.618 C 8.140 22.125,8.567 22.343,9.160 22.441 C 10.106 22.597,11.025 22.277,11.825 21.511 L 11.990 21.353 12.402 21.698 C 13.043 22.234,13.501 22.423,14.260 22.466 C 15.082 22.512,15.673 22.276,16.511 21.568 L 16.762 21.356 17.091 21.660 C 17.329 21.880,17.520 22.014,17.780 22.142 C 18.271 22.384,18.519 22.440,19.098 22.439 C 20.046 22.438,20.510 22.252,21.143 21.622 C 21.465 21.301,21.576 21.159,21.693 20.920 C 21.865 20.566,21.952 20.248,21.987 19.853 L 22.011 19.565 21.818 19.443 C 21.579 19.291,21.371 19.280,21.221 19.410 C 21.151 19.471,21.067 19.644,20.962 19.949 C 20.758 20.536,20.630 20.765,20.372 21.001 C 19.628 21.680,18.416 21.623,17.743 20.878 C 17.573 20.690,17.426 20.388,17.262 19.889 C 17.119 19.457,17.007 19.320,16.793 19.320 C 16.478 19.320,16.359 19.453,16.196 19.987 C 15.934 20.842,15.436 21.313,14.650 21.447 C 14.111 21.539,13.510 21.362,13.098 20.990 C 12.852 20.767,12.726 20.540,12.559 20.020 C 12.350 19.369,12.230 19.237,11.921 19.320 C 11.686 19.383,11.586 19.516,11.462 19.929 C 11.401 20.133,11.297 20.406,11.232 20.535 C 10.711 21.568,9.220 21.788,8.345 20.961 C 8.085 20.716,7.925 20.423,7.777 19.928 C 7.644 19.482,7.502 19.320,7.242 19.320 C 6.972 19.320,6.866 19.451,6.697 19.992 C 6.525 20.544,6.425 20.728,6.164 20.972 C 5.664 21.440,4.901 21.595,4.231 21.364 C 3.951 21.267,3.712 21.107,3.492 20.868 C 3.289 20.648,3.200 20.478,3.066 20.051 C 2.907 19.549,2.856 19.449,2.712 19.361 C 2.543 19.258,2.458 19.260,2.261 19.372 " fill="#EC0000" stroke="none" fill-rule="evenodd"></path></svg>