<svg width="24" height="25" viewBox="0 0 24 25" fill="none" xmlns="http://www.w3.org/2000/svg"><path d="M7.640 4.598 L 5.140 4.620 4.851 4.767 C 4.428 4.983,4.215 5.138,3.879 5.477 C 3.530 5.827,3.347 6.114,3.145 6.625 L 3.000 6.990 3.000 10.973 L 3.000 14.955 3.104 15.248 C 3.364 15.975,3.823 16.600,4.372 16.975 C 4.616 17.141,5.211 17.375,5.569 17.446 C 5.707 17.473,5.841 17.511,5.867 17.530 C 5.929 17.576,5.953 17.853,5.999 19.060 C 6.021 19.610,6.053 20.114,6.072 20.180 C 6.095 20.262,6.158 20.330,6.275 20.394 C 6.581 20.564,6.608 20.547,7.672 19.521 C 8.193 19.019,8.863 18.363,9.159 18.064 L 9.699 17.520 14.047 17.520 L 18.395 17.520 18.688 17.415 C 19.861 16.993,20.494 16.371,20.896 15.248 L 21.000 14.955 20.999 11.808 C 20.998 8.690,20.962 7.183,20.881 6.762 C 20.786 6.267,20.361 5.636,19.839 5.212 C 19.697 5.096,19.412 4.916,19.206 4.811 L 18.831 4.620 16.586 4.594 C 14.065 4.565,11.335 4.567,7.640 4.598 M17.980 5.582 L 18.620 5.603 18.892 5.765 C 19.257 5.981,19.542 6.280,19.771 6.685 L 19.960 7.020 19.960 11.003 L 19.960 14.985 19.752 15.334 C 19.469 15.810,19.146 16.124,18.741 16.321 L 18.420 16.476 14.320 16.520 C 12.065 16.543,9.999 16.573,9.729 16.586 L 9.238 16.608 8.809 17.012 C 8.573 17.234,8.085 17.705,7.726 18.058 C 7.157 18.616,7.067 18.690,7.041 18.620 C 7.025 18.576,7.001 18.189,6.988 17.760 C 6.963 16.913,6.928 16.718,6.790 16.648 C 6.740 16.623,6.428 16.558,6.096 16.503 C 5.414 16.392,5.113 16.299,4.895 16.134 C 4.706 15.990,4.307 15.490,4.178 15.236 L 4.080 15.043 4.080 10.990 L 4.080 6.938 4.256 6.638 C 4.459 6.291,4.873 5.880,5.201 5.700 L 5.420 5.580 8.460 5.557 C 11.688 5.533,16.913 5.547,17.980 5.582 " fill="#EC0000" stroke="none" fill-rule="evenodd"></path></svg>