<svg width="25" height="24" viewBox="0 0 25 24" fill="none" xmlns="http://www.w3.org/2000/svg"><path d="M5.688 4.140 C 5.086 4.338,4.591 4.672,4.232 5.120 C 3.942 5.483,3.826 5.695,3.670 6.139 L 3.542 6.507 3.542 10.502 L 3.542 14.497 3.684 14.895 C 3.762 15.114,3.878 15.381,3.941 15.488 C 4.092 15.746,4.706 16.379,4.966 16.547 C 5.242 16.724,5.905 16.948,6.255 16.983 L 6.537 17.010 6.550 18.351 C 6.564 19.864,6.566 19.871,6.873 19.963 C 7.004 20.002,7.065 20.001,7.175 19.956 C 7.258 19.923,7.891 19.327,8.774 18.450 L 10.235 17.000 14.614 17.000 L 18.993 17.000 19.361 16.872 C 20.295 16.546,21.002 15.886,21.339 15.026 C 21.465 14.704,21.473 14.649,21.503 13.896 C 21.545 12.871,21.545 8.082,21.504 7.083 C 21.469 6.234,21.421 6.048,21.091 5.481 C 20.785 4.955,20.075 4.375,19.458 4.147 C 19.232 4.064,19.150 4.062,12.604 4.053 L 5.979 4.044 5.688 4.140 M18.271 5.037 C 19.049 5.066,19.067 5.069,19.339 5.200 C 19.852 5.447,20.232 5.877,20.421 6.421 C 20.512 6.685,20.513 6.719,20.530 9.750 C 20.540 11.434,20.531 13.189,20.511 13.649 L 20.475 14.485 20.327 14.796 C 20.072 15.334,19.605 15.748,19.063 15.919 C 18.935 15.960,17.845 15.978,14.394 15.996 C 10.135 16.020,9.886 16.025,9.776 16.097 C 9.713 16.138,9.184 16.642,8.601 17.217 L 7.542 18.261 7.542 17.420 C 7.542 16.085,7.515 16.041,6.686 15.997 C 5.864 15.953,5.373 15.725,4.967 15.199 C 4.667 14.810,4.617 14.644,4.581 13.917 C 4.540 13.102,4.538 7.946,4.578 7.083 C 4.607 6.470,4.615 6.424,4.742 6.167 C 4.912 5.823,5.147 5.548,5.427 5.365 C 5.814 5.113,5.967 5.070,6.604 5.041 C 7.413 5.004,17.300 5.000,18.271 5.037 M12.104 6.043 C 11.691 6.106,11.123 6.414,10.773 6.766 C 10.327 7.213,10.041 7.859,10.042 8.415 C 10.043 8.720,10.107 8.835,10.338 8.950 C 10.522 9.041,10.538 9.042,10.695 8.980 C 10.904 8.896,10.976 8.769,11.055 8.348 C 11.134 7.930,11.241 7.713,11.498 7.456 C 11.811 7.144,11.989 7.070,12.483 7.050 C 12.879 7.034,12.918 7.040,13.146 7.151 C 13.655 7.401,13.959 7.854,13.991 8.414 C 14.029 9.071,13.837 9.421,13.166 9.913 C 12.526 10.384,12.200 10.832,12.081 11.409 C 12.009 11.756,12.044 12.663,12.135 12.802 C 12.240 12.961,12.492 13.030,12.692 12.954 C 12.955 12.854,12.997 12.756,13.041 12.128 C 13.103 11.268,13.156 11.163,13.765 10.712 C 14.671 10.039,15.001 9.459,15.003 8.535 C 15.005 7.684,14.660 6.976,14.022 6.520 C 13.448 6.111,12.770 5.942,12.104 6.043 M12.292 13.573 C 12.107 13.665,12.047 13.832,12.044 14.262 C 12.041 14.680,12.112 14.856,12.318 14.942 C 12.619 15.068,12.910 14.925,13.000 14.605 C 13.068 14.361,13.036 13.885,12.941 13.741 C 12.866 13.626,12.643 13.500,12.515 13.500 C 12.472 13.500,12.372 13.533,12.292 13.573 " fill="#EC0000" stroke="none" fill-rule="evenodd"></path></svg>