<svg width="24" height="25" viewBox="0 0 24 25" fill="none" xmlns="http://www.w3.org/2000/svg"><path d="M11.820 4.598 L 10.140 4.620 9.780 4.815 C 8.948 5.267,8.534 5.722,8.156 6.599 L 8.000 6.961 8.000 8.233 L 8.000 9.504 6.250 9.551 C 4.353 9.602,4.144 9.625,3.735 9.833 C 3.001 10.207,2.507 10.765,2.152 11.622 L 2.020 11.940 2.007 13.474 C 1.992 15.194,1.974 15.057,2.312 15.740 C 2.539 16.199,2.988 16.703,3.463 17.030 C 3.632 17.147,4.159 17.352,4.476 17.424 C 4.871 17.513,4.872 17.514,4.916 17.652 C 4.938 17.722,4.975 18.284,4.997 18.900 C 5.020 19.516,5.057 20.088,5.081 20.170 C 5.133 20.352,5.376 20.500,5.557 20.461 C 5.716 20.426,6.225 19.967,7.545 18.667 L 8.711 17.520 11.058 17.520 L 13.405 17.520 13.831 17.359 C 14.774 17.004,15.253 16.581,15.680 15.725 C 15.915 15.254,15.959 15.018,15.987 14.071 L 16.012 13.242 16.923 14.136 C 17.917 15.114,18.270 15.426,18.424 15.465 C 18.486 15.480,18.588 15.461,18.688 15.416 C 18.961 15.293,18.970 15.242,18.992 13.793 L 19.010 12.525 19.175 12.499 C 20.539 12.284,21.428 11.548,21.895 10.248 L 22.000 9.955 22.000 8.458 L 22.000 6.960 21.827 6.568 C 21.596 6.043,21.405 5.759,21.040 5.400 C 20.736 5.102,20.290 4.811,19.949 4.690 C 19.643 4.581,16.168 4.542,11.820 4.598 M19.781 5.717 C 20.132 5.889,20.606 6.352,20.791 6.706 L 20.920 6.951 20.920 8.500 L 20.920 10.049 20.796 10.282 C 20.624 10.603,20.287 11.001,20.057 11.154 C 19.807 11.319,19.470 11.421,18.910 11.501 C 18.663 11.537,18.391 11.584,18.307 11.605 C 18.062 11.668,18.030 11.791,18.012 12.740 C 18.003 13.180,17.988 13.581,17.977 13.632 C 17.960 13.712,17.835 13.605,16.969 12.765 C 16.425 12.238,15.921 11.758,15.849 11.699 L 15.718 11.591 14.269 11.555 C 11.174 11.479,10.593 11.452,10.380 11.379 C 9.772 11.169,9.183 10.467,9.081 9.829 C 9.031 9.513,9.027 7.573,9.076 7.197 C 9.124 6.834,9.292 6.512,9.606 6.181 C 9.944 5.824,10.262 5.629,10.558 5.594 C 10.680 5.580,12.742 5.571,15.141 5.574 L 19.502 5.580 19.781 5.717 M11.232 8.642 C 11.118 8.702,11.078 8.752,11.058 8.857 C 11.021 9.054,11.067 9.213,11.199 9.339 C 11.293 9.429,11.372 9.457,11.637 9.491 C 12.096 9.552,12.644 9.487,12.785 9.356 C 13.008 9.147,13.044 8.926,12.886 8.736 C 12.755 8.577,12.668 8.560,12.013 8.562 C 11.464 8.563,11.360 8.574,11.232 8.642 M14.232 8.642 C 14.118 8.702,14.078 8.752,14.058 8.857 C 14.021 9.054,14.067 9.213,14.199 9.339 C 14.293 9.429,14.372 9.457,14.637 9.491 C 15.096 9.552,15.644 9.487,15.785 9.356 C 16.008 9.147,16.044 8.926,15.886 8.736 C 15.755 8.577,15.668 8.560,15.013 8.562 C 14.464 8.563,14.360 8.574,14.232 8.642 M17.232 8.642 C 17.118 8.702,17.078 8.752,17.058 8.857 C 17.021 9.054,17.067 9.213,17.199 9.339 C 17.293 9.429,17.372 9.457,17.637 9.491 C 18.096 9.552,18.644 9.487,18.785 9.356 C 19.008 9.147,19.044 8.926,18.886 8.736 C 18.755 8.577,18.668 8.560,18.013 8.562 C 17.464 8.563,17.360 8.574,17.232 8.642 M8.242 10.644 C 8.332 10.862,8.600 11.246,8.833 11.491 C 9.214 11.891,9.749 12.228,10.240 12.378 C 10.512 12.461,11.881 12.516,13.730 12.518 L 15.000 12.520 15.000 12.952 C 15.000 13.189,14.981 13.761,14.957 14.222 C 14.915 15.036,14.911 15.066,14.795 15.283 C 14.456 15.920,13.869 16.369,13.283 16.442 C 13.138 16.460,12.129 16.493,11.040 16.517 C 9.951 16.540,8.875 16.570,8.649 16.583 L 8.238 16.608 7.789 17.031 C 7.542 17.264,7.049 17.743,6.693 18.094 C 6.105 18.675,6.043 18.725,6.025 18.637 C 6.013 18.584,5.996 18.189,5.985 17.760 C 5.965 16.956,5.926 16.707,5.808 16.644 C 5.771 16.624,5.456 16.561,5.110 16.504 C 4.359 16.379,4.158 16.317,3.920 16.134 C 3.678 15.950,3.354 15.563,3.203 15.280 L 3.080 15.049 3.080 13.494 L 3.080 11.938 3.256 11.639 C 3.473 11.269,3.859 10.893,4.201 10.717 L 4.460 10.585 5.420 10.560 C 5.948 10.546,6.787 10.531,7.285 10.527 L 8.190 10.520 8.242 10.644 M5.232 13.642 C 5.118 13.702,5.078 13.752,5.058 13.857 C 5.021 14.054,5.067 14.213,5.199 14.339 C 5.293 14.429,5.372 14.457,5.637 14.491 C 6.096 14.552,6.644 14.487,6.785 14.356 C 7.008 14.147,7.044 13.926,6.886 13.736 C 6.755 13.577,6.668 13.560,6.013 13.562 C 5.464 13.563,5.360 13.574,5.232 13.642 M8.232 13.642 C 8.118 13.702,8.078 13.752,8.058 13.857 C 8.021 14.054,8.067 14.213,8.199 14.339 C 8.293 14.429,8.372 14.457,8.637 14.491 C 9.096 14.552,9.644 14.487,9.785 14.356 C 10.008 14.147,10.044 13.926,9.886 13.736 C 9.755 13.577,9.668 13.560,9.013 13.562 C 8.464 13.563,8.360 13.574,8.232 13.642 M11.232 13.642 C 11.118 13.702,11.078 13.752,11.058 13.857 C 11.021 14.054,11.067 14.213,11.199 14.339 C 11.293 14.429,11.372 14.457,11.637 14.491 C 12.096 14.552,12.644 14.487,12.785 14.356 C 13.008 14.147,13.044 13.926,12.886 13.736 C 12.755 13.577,12.668 13.560,12.013 13.562 C 11.464 13.563,11.360 13.574,11.232 13.642 " fill="#EC0000" stroke="none" fill-rule="evenodd"></path></svg>