<svg width="24" height="25" viewBox="0 0 24 25" fill="none" xmlns="http://www.w3.org/2000/svg"><path d="M5.097 5.641 C 4.691 5.675,4.327 5.817,3.894 6.110 C 3.037 6.692,2.523 7.342,2.179 8.280 L 2.068 8.580 2.037 10.140 C 2.020 10.998,2.005 12.727,2.003 13.982 L 2.000 16.265 2.157 16.668 C 2.486 17.512,2.765 17.961,3.248 18.423 C 3.759 18.912,4.376 19.237,5.059 19.379 C 5.673 19.505,7.022 19.528,12.960 19.511 L 18.740 19.494 19.140 19.350 C 19.984 19.046,20.303 18.854,20.818 18.338 C 21.338 17.818,21.532 17.495,21.844 16.628 L 22.000 16.196 22.000 12.501 L 22.000 8.806 21.876 8.453 C 21.593 7.651,21.271 7.117,20.794 6.657 C 20.443 6.319,20.150 6.117,19.640 5.859 L 19.260 5.666 18.040 5.636 C 16.481 5.597,5.578 5.602,5.097 5.641 M19.259 6.789 C 19.469 6.893,19.640 6.990,19.640 7.004 C 19.640 7.090,13.951 12.327,12.574 13.510 C 12.331 13.718,12.327 13.720,12.061 13.720 C 11.900 13.720,11.739 13.695,11.661 13.658 C 11.359 13.514,6.819 9.394,5.000 7.612 C 4.384 7.009,4.381 7.004,4.460 6.929 C 4.597 6.798,4.967 6.664,5.260 6.638 C 5.414 6.624,8.541 6.610,12.209 6.606 L 18.879 6.600 19.259 6.789 M3.781 7.924 C 4.341 8.387,8.680 12.421,8.680 12.480 C 8.680 12.520,4.931 15.701,3.954 16.489 C 3.338 16.987,3.390 16.976,3.211 16.631 L 3.060 16.340 3.060 12.540 L 3.061 8.740 3.234 8.342 C 3.412 7.935,3.509 7.760,3.555 7.760 C 3.570 7.760,3.671 7.834,3.781 7.924 M20.596 7.999 C 20.864 8.502,20.880 8.593,20.926 9.860 C 20.978 11.330,20.949 15.638,20.882 16.155 C 20.786 16.911,20.723 16.975,20.340 16.701 C 19.922 16.404,16.854 13.838,15.425 12.593 L 15.270 12.458 16.005 11.777 C 17.572 10.325,20.405 7.762,20.444 7.761 C 20.458 7.760,20.526 7.868,20.596 7.999 M10.179 13.780 C 10.914 14.407,11.231 14.604,11.632 14.682 C 11.942 14.743,12.402 14.709,12.671 14.607 C 12.928 14.510,13.106 14.383,13.780 13.820 C 14.559 13.169,14.487 13.207,14.688 13.345 C 14.858 13.462,16.958 15.209,18.913 16.860 L 20.003 17.780 19.892 17.872 C 19.714 18.019,19.254 18.240,18.822 18.386 L 18.424 18.520 11.976 18.520 L 5.528 18.520 5.114 18.376 C 4.665 18.221,4.283 18.034,4.179 17.919 C 4.081 17.811,4.136 17.741,4.731 17.210 C 5.911 16.157,9.413 13.200,9.479 13.200 C 9.491 13.200,9.806 13.461,10.179 13.780 " fill="#EC0000" stroke="none" fill-rule="evenodd"></path></svg>