<svg width="24" height="25" viewBox="0 0 24 25" fill="none" xmlns="http://www.w3.org/2000/svg"><path d="M5.092 2.748 C 5.036 2.878,5.024 3.149,5.009 4.660 L 4.991 6.420 3.489 8.297 L 1.988 10.174 2.013 14.457 C 2.027 16.813,2.056 18.927,2.078 19.156 C 2.125 19.653,2.189 19.865,2.432 20.330 C 2.946 21.317,3.792 21.989,5.032 22.397 L 5.405 22.520 12.002 22.520 L 18.599 22.520 19.027 22.377 C 19.843 22.104,20.372 21.784,20.885 21.251 C 21.283 20.838,21.641 20.271,21.781 19.830 C 21.960 19.266,21.968 19.051,21.988 14.517 L 22.007 10.214 21.516 9.577 C 21.247 9.227,20.570 8.368,20.013 7.669 L 19.000 6.399 18.997 5.189 C 18.993 3.503,18.955 2.778,18.866 2.689 C 18.801 2.624,18.372 2.619,11.977 2.608 L 5.157 2.597 5.092 2.748 M18.000 5.090 C 18.000 5.954,17.988 7.890,17.973 9.394 L 17.947 12.128 16.273 13.245 L 14.599 14.361 13.989 13.849 C 13.322 13.288,13.130 13.148,12.800 12.977 C 12.601 12.874,12.534 12.862,12.088 12.847 C 11.818 12.839,11.535 12.843,11.458 12.858 C 11.266 12.894,10.723 13.267,10.060 13.820 C 9.752 14.076,9.478 14.296,9.450 14.307 C 9.387 14.334,9.096 14.152,7.417 13.036 L 6.053 12.130 6.027 9.575 C 6.012 8.170,6.000 6.232,6.000 5.270 L 6.000 3.520 12.000 3.520 L 18.000 3.520 18.000 5.090 M8.168 5.658 C 8.126 5.712,8.069 5.811,8.041 5.878 C 7.997 5.984,8.002 6.021,8.085 6.189 C 8.251 6.523,7.969 6.500,11.980 6.497 C 15.899 6.494,15.677 6.508,15.880 6.251 C 15.951 6.161,15.964 6.103,15.950 5.947 C 15.917 5.600,16.061 5.623,13.769 5.594 C 12.653 5.580,10.954 5.567,9.993 5.564 L 8.246 5.560 8.168 5.658 M19.492 8.631 C 20.326 9.673,20.718 10.215,20.674 10.267 C 20.631 10.319,19.333 11.189,19.169 11.275 C 19.098 11.314,19.075 11.313,19.062 11.272 C 19.053 11.243,19.034 10.680,19.020 10.020 C 18.995 8.836,19.019 8.103,19.084 8.142 C 19.102 8.154,19.286 8.374,19.492 8.631 M4.952 9.717 C 4.945 10.551,4.927 11.246,4.912 11.262 C 4.896 11.277,4.797 11.240,4.692 11.179 C 4.472 11.052,3.406 10.336,3.328 10.262 C 3.268 10.205,3.376 10.048,4.132 9.100 C 4.634 8.470,4.874 8.200,4.930 8.200 C 4.948 8.200,4.958 8.883,4.952 9.717 M8.168 8.658 C 8.126 8.712,8.069 8.811,8.041 8.878 C 7.997 8.984,8.002 9.021,8.085 9.189 C 8.251 9.523,7.969 9.500,11.980 9.497 C 15.899 9.494,15.677 9.508,15.880 9.251 C 15.951 9.161,15.964 9.103,15.950 8.947 C 15.917 8.600,16.058 8.623,13.789 8.595 C 12.684 8.581,10.985 8.567,10.013 8.565 L 8.246 8.560 8.168 8.658 M20.951 14.700 C 20.960 16.616,20.950 18.143,20.924 18.580 C 20.883 19.287,20.803 19.720,20.713 19.720 C 20.649 19.720,20.263 19.401,19.160 18.433 C 17.377 16.869,15.440 15.120,15.440 15.075 C 15.440 15.039,16.450 14.340,18.500 12.958 C 19.490 12.291,20.425 11.658,20.579 11.551 C 20.856 11.358,20.857 11.357,20.897 11.448 C 20.922 11.506,20.942 12.724,20.951 14.700 M3.603 11.693 C 4.213 12.084,8.486 14.954,8.552 15.017 C 8.607 15.069,7.867 15.754,4.969 18.333 C 3.403 19.726,3.375 19.749,3.290 19.695 C 3.074 19.559,3.042 18.941,3.041 14.790 C 3.040 11.988,3.049 11.400,3.093 11.400 C 3.123 11.400,3.352 11.532,3.603 11.693 M12.135 13.839 C 12.313 13.868,12.423 13.918,12.595 14.047 C 13.059 14.398,15.621 16.630,18.019 18.775 C 19.617 20.204,20.085 20.643,20.070 20.694 C 20.043 20.784,19.441 21.154,19.123 21.276 C 18.934 21.349,18.654 21.419,18.450 21.444 C 17.929 21.507,7.918 21.541,6.520 21.484 C 5.135 21.428,4.902 21.376,4.289 20.990 C 3.975 20.792,3.924 20.708,4.029 20.565 C 4.135 20.421,5.755 18.962,8.484 16.553 C 11.079 14.262,11.395 13.993,11.620 13.880 C 11.804 13.788,11.818 13.787,12.135 13.839 " fill="#EC0000" stroke="none" fill-rule="evenodd"></path></svg>