<svg width="24" height="25" viewBox="0 0 24 25" fill="none" xmlns="http://www.w3.org/2000/svg"><path d="M3.220 2.598 C 2.723 2.683,2.203 3.212,2.054 3.784 C 2.020 3.915,2.007 4.060,2.023 4.134 C 2.063 4.319,2.435 5.283,3.520 8.020 C 4.553 10.628,5.016 11.817,5.166 12.249 C 5.259 12.518,5.259 12.519,5.185 12.729 C 5.144 12.845,4.652 14.101,4.091 15.520 C 2.291 20.077,2.031 20.774,2.024 21.064 C 2.019 21.277,2.265 21.769,2.493 21.999 C 2.680 22.189,2.993 22.361,3.328 22.458 C 3.614 22.541,3.759 22.508,4.460 22.199 C 5.925 21.553,19.124 14.966,20.917 13.986 C 21.364 13.742,21.719 13.429,21.846 13.168 C 21.925 13.006,21.938 12.917,21.939 12.520 C 21.940 12.112,21.929 12.038,21.842 11.861 C 21.726 11.625,21.504 11.395,21.196 11.191 C 20.847 10.961,18.944 9.993,11.256 6.135 L 4.133 2.560 3.756 2.565 C 3.549 2.568,3.308 2.582,3.220 2.598 M4.380 3.869 C 5.210 4.260,13.041 8.140,17.302 10.271 C 21.172 12.206,20.906 12.046,20.948 12.460 C 20.975 12.726,20.898 12.820,20.427 13.096 C 19.208 13.809,4.723 21.042,3.878 21.359 C 3.554 21.481,3.529 21.485,3.395 21.429 C 3.265 21.374,2.982 21.028,3.009 20.956 C 3.015 20.941,3.731 19.145,4.600 16.965 L 6.180 13.000 10.306 13.000 L 14.433 13.000 14.535 12.879 C 14.688 12.697,14.729 12.504,14.655 12.319 C 14.621 12.235,14.564 12.154,14.527 12.139 C 14.376 12.078,13.077 12.045,9.718 12.017 L 6.176 11.988 5.443 10.144 C 3.959 6.412,3.283 4.691,3.156 4.319 C 3.026 3.940,3.026 3.938,3.101 3.824 C 3.143 3.760,3.231 3.674,3.298 3.632 C 3.498 3.506,3.708 3.552,4.380 3.869 " fill="#EC0000" stroke="none" fill-rule="evenodd"></path></svg>