<svg width="24" height="25" viewBox="0 0 24 25" fill="none" xmlns="http://www.w3.org/2000/svg"><path d="M3.839 2.653 C 3.345 2.789,2.698 3.306,2.383 3.815 C 2.064 4.332,2.060 4.357,2.063 5.580 C 2.068 7.067,2.157 7.834,2.479 9.140 C 3.060 11.496,4.051 13.602,5.473 15.500 C 7.613 18.357,10.541 20.479,13.860 21.577 C 15.730 22.196,17.787 22.532,19.320 22.467 C 20.236 22.429,20.602 22.278,21.180 21.700 C 21.554 21.326,21.714 21.078,21.900 20.583 L 22.000 20.318 21.999 18.649 C 21.999 16.844,21.965 16.195,21.856 15.918 C 21.669 15.441,21.224 14.946,20.765 14.706 C 20.219 14.419,18.652 13.837,18.157 13.737 C 17.380 13.580,16.619 13.813,16.092 14.371 C 15.820 14.660,15.612 15.026,15.246 15.863 C 14.713 17.079,14.692 17.120,14.609 17.120 C 14.480 17.120,13.412 16.422,12.720 15.885 C 11.353 14.825,9.754 13.225,8.676 11.840 C 8.164 11.183,7.472 10.122,7.421 9.917 C 7.392 9.802,7.286 9.859,8.811 9.166 C 9.748 8.741,9.920 8.636,10.235 8.299 C 10.595 7.914,10.840 7.338,10.840 6.875 C 10.840 6.439,10.645 5.772,10.180 4.620 C 9.793 3.659,9.699 3.490,9.384 3.180 C 9.201 3.000,9.001 2.850,8.822 2.760 L 8.544 2.620 6.282 2.612 C 4.580 2.606,3.975 2.616,3.839 2.653 M7.761 3.597 C 8.418 3.633,8.520 3.667,8.721 3.922 C 8.877 4.118,9.183 4.791,9.502 5.640 C 9.732 6.251,9.736 6.267,9.752 6.752 L 9.768 7.244 9.622 7.464 C 9.422 7.766,9.178 7.913,8.071 8.400 C 6.907 8.912,6.212 9.263,6.157 9.366 C 6.040 9.584,6.349 10.237,7.095 11.353 C 7.910 12.573,8.626 13.431,9.838 14.640 C 11.050 15.849,11.990 16.641,13.040 17.339 C 14.193 18.105,14.834 18.433,15.062 18.376 C 15.258 18.327,15.373 18.118,16.038 16.600 C 16.671 15.155,16.810 14.931,17.169 14.782 C 17.334 14.713,17.727 14.702,18.103 14.757 C 18.545 14.821,20.236 15.520,20.576 15.780 C 20.655 15.840,20.768 15.989,20.829 16.114 L 20.940 16.340 20.952 18.310 L 20.965 20.280 20.852 20.489 C 20.791 20.604,20.626 20.819,20.486 20.968 C 20.003 21.481,19.626 21.568,18.318 21.464 C 17.868 21.428,17.272 21.364,16.993 21.321 C 14.300 20.906,11.660 19.801,9.568 18.211 C 7.384 16.550,5.657 14.397,4.501 11.890 C 3.535 9.796,3.164 8.117,3.056 5.356 L 3.029 4.652 3.195 4.407 C 3.409 4.092,3.735 3.767,3.917 3.687 C 4.161 3.580,6.470 3.526,7.761 3.597 " fill="#EC0000" stroke="none" fill-rule="evenodd"></path></svg>