<svg width="24" height="25" viewBox="0 0 24 25" fill="none" xmlns="http://www.w3.org/2000/svg"><path d="M10.985 2.620 C 9.653 2.837,8.575 3.399,7.551 4.411 C 6.767 5.186,6.317 5.888,5.983 6.856 C 5.756 7.513,5.640 8.414,5.640 9.520 L 5.640 10.063 5.370 10.135 C 4.664 10.322,4.091 10.638,3.619 11.100 C 3.110 11.598,2.824 12.076,2.631 12.748 C 2.503 13.196,2.503 14.044,2.631 14.492 C 2.875 15.340,3.393 16.076,4.106 16.586 C 4.705 17.013,5.834 17.305,6.261 17.142 C 6.487 17.055,6.546 16.965,6.576 16.660 C 6.589 16.528,6.618 14.926,6.641 13.100 C 6.700 8.328,6.732 7.753,6.971 7.120 C 7.110 6.750,7.418 6.147,7.635 5.820 C 7.878 5.452,8.493 4.842,8.931 4.533 C 9.356 4.234,10.032 3.882,10.459 3.739 C 10.764 3.637,10.812 3.633,11.977 3.611 L 13.180 3.589 13.540 3.729 C 14.082 3.940,14.887 4.352,15.170 4.564 C 15.308 4.668,15.637 4.975,15.901 5.247 C 16.436 5.800,16.640 6.110,16.955 6.847 C 17.300 7.651,17.282 7.438,17.330 11.180 C 17.380 15.046,17.344 16.884,17.207 17.400 C 17.054 17.980,16.719 18.596,16.267 19.127 C 16.025 19.412,15.477 19.876,15.233 20.002 L 15.086 20.079 15.066 19.969 C 15.054 19.909,15.033 19.770,15.019 19.660 C 14.982 19.383,14.906 19.219,14.775 19.133 C 14.672 19.066,14.548 19.060,13.142 19.060 C 12.013 19.060,11.550 19.074,11.349 19.115 C 10.720 19.242,10.176 19.826,10.036 20.527 C 9.909 21.159,10.407 22.002,11.098 22.325 C 11.463 22.496,11.960 22.534,13.473 22.507 C 14.461 22.489,14.704 22.473,14.779 22.424 C 14.912 22.337,15.002 22.037,15.028 21.595 L 15.051 21.210 15.268 21.120 C 15.713 20.936,16.464 20.379,16.921 19.895 C 17.455 19.330,17.718 18.902,18.060 18.042 C 18.204 17.680,18.347 17.344,18.379 17.296 C 18.417 17.238,18.552 17.170,18.768 17.099 C 19.867 16.740,20.648 16.098,21.099 15.180 C 21.533 14.299,21.588 13.369,21.261 12.454 C 21.030 11.809,20.602 11.221,20.069 10.817 C 19.766 10.587,19.128 10.277,18.716 10.158 L 18.411 10.071 18.389 9.165 C 18.355 7.803,18.183 7.004,17.721 6.061 C 16.867 4.322,15.115 2.992,13.240 2.659 C 12.712 2.566,11.455 2.544,10.985 2.620 M18.932 11.295 C 19.463 11.550,19.862 11.922,20.138 12.420 C 20.376 12.850,20.420 13.039,20.418 13.640 C 20.416 14.115,20.403 14.214,20.314 14.464 C 20.182 14.831,19.967 15.155,19.634 15.485 C 19.425 15.691,19.272 15.797,18.942 15.961 C 18.709 16.077,18.508 16.162,18.497 16.150 C 18.460 16.113,18.403 13.929,18.402 12.473 L 18.400 11.086 18.520 11.120 C 18.586 11.139,18.772 11.218,18.932 11.295 M5.559 11.197 C 5.616 11.305,5.616 16.160,5.559 16.160 C 5.430 16.160,4.845 15.888,4.635 15.730 C 4.328 15.499,3.949 15.028,3.774 14.660 C 3.476 14.031,3.494 13.153,3.818 12.500 C 4.101 11.930,4.406 11.634,5.052 11.301 C 5.448 11.098,5.500 11.087,5.559 11.197 M14.000 20.760 L 14.000 21.520 13.090 21.520 C 12.134 21.519,11.591 21.478,11.409 21.392 C 11.343 21.360,11.256 21.254,11.187 21.120 C 10.989 20.734,11.086 20.302,11.408 20.136 C 11.545 20.065,12.275 20.016,13.350 20.006 L 14.000 20.000 14.000 20.760 " fill="#EC0000" stroke="none" fill-rule="evenodd"></path></svg>