<svg width="24" height="24" viewBox="0 0 24 24" fill="none" xmlns="http://www.w3.org/2000/svg"><path d="M13.880 4.624 C 13.077 4.942,10.836 5.831,8.900 6.599 L 5.380 7.994 3.840 8.030 C 2.272 8.067,2.162 8.080,2.100 8.229 C 2.050 8.349,2.005 9.560,2.003 10.780 C 2.002 11.947,2.043 12.656,2.120 12.799 C 2.198 12.947,2.409 12.969,3.980 12.997 L 5.500 13.024 6.090 13.271 C 6.854 13.591,6.915 13.624,6.938 13.731 C 6.948 13.780,6.976 14.819,6.999 16.040 C 7.022 17.261,7.059 18.346,7.080 18.450 C 7.266 19.381,8.369 20.138,9.290 19.968 C 10.067 19.824,10.786 19.151,10.921 18.440 C 10.944 18.319,10.979 17.680,11.000 17.020 C 11.038 15.841,11.069 15.320,11.104 15.320 C 11.132 15.320,12.165 15.715,13.540 16.252 C 15.155 16.882,15.440 16.977,15.629 16.946 C 15.832 16.913,15.877 16.852,15.932 16.536 C 15.988 16.215,15.988 4.762,15.932 4.421 C 15.905 4.258,15.875 4.207,15.764 4.131 C 15.682 4.076,15.571 4.041,15.484 4.042 C 15.396 4.043,14.769 4.271,13.880 4.624 M20.300 5.103 C 19.975 5.273,18.162 6.768,17.445 7.458 C 16.950 7.934,16.913 8.085,17.222 8.357 C 17.480 8.583,17.595 8.534,18.494 7.810 C 18.783 7.577,19.325 7.125,19.697 6.806 C 20.971 5.713,21.070 5.596,20.947 5.337 C 20.872 5.181,20.669 5.040,20.520 5.040 C 20.465 5.040,20.366 5.069,20.300 5.103 M14.947 10.533 C 14.962 13.364,14.959 15.680,14.943 15.680 C 14.852 15.680,13.177 15.025,7.730 12.859 L 6.040 12.187 6.040 10.500 L 6.040 8.814 9.430 7.461 C 12.224 6.346,14.491 5.455,14.800 5.350 C 14.833 5.339,14.874 5.343,14.891 5.358 C 14.908 5.373,14.933 7.702,14.947 10.533 M5.000 10.500 L 5.000 12.000 4.000 12.000 L 3.000 12.000 3.000 10.500 L 3.000 9.000 4.000 9.000 L 5.000 9.000 5.000 10.500 M17.800 10.075 C 17.155 10.107,17.040 10.172,17.040 10.500 C 17.040 10.660,17.088 10.773,17.212 10.910 L 17.294 11.000 19.503 11.000 L 21.713 11.000 21.813 10.881 C 21.977 10.686,22.018 10.509,21.937 10.340 C 21.817 10.087,21.830 10.088,19.978 10.068 C 19.055 10.058,18.075 10.061,17.800 10.075 M17.206 12.661 C 17.140 12.717,17.065 12.825,17.040 12.901 C 16.978 13.089,17.059 13.216,17.488 13.604 C 18.472 14.493,20.135 15.853,20.352 15.946 C 20.470 15.997,20.501 15.994,20.659 15.925 C 20.859 15.836,20.960 15.680,20.960 15.459 C 20.960 15.269,20.842 15.154,19.478 14.018 C 18.165 12.924,17.894 12.707,17.732 12.625 C 17.542 12.529,17.347 12.542,17.206 12.661 M9.107 14.486 C 9.485 14.641,9.827 14.791,9.867 14.820 C 9.936 14.870,9.940 14.971,9.940 16.507 C 9.940 17.405,9.926 18.207,9.908 18.288 C 9.888 18.383,9.803 18.518,9.675 18.658 C 9.438 18.917,9.270 18.979,8.889 18.949 C 8.583 18.925,8.385 18.806,8.211 18.544 C 8.059 18.314,8.051 18.201,8.015 15.808 L 7.989 14.037 8.204 14.121 C 8.323 14.168,8.729 14.332,9.107 14.486 " fill="#EC0000" stroke="none" fill-rule="evenodd"></path></svg>