<svg width="25" height="24" viewBox="0 0 25 24" fill="none" xmlns="http://www.w3.org/2000/svg"><path d="M10.354 2.038 C 10.114 2.070,9.982 2.133,9.935 2.238 C 9.917 2.279,9.891 2.791,9.878 3.375 C 9.864 3.959,9.837 4.462,9.818 4.492 C 9.799 4.523,9.499 4.684,9.152 4.852 C 8.805 5.020,8.243 5.341,7.903 5.565 C 7.315 5.953,7.278 5.971,7.160 5.927 C 7.091 5.901,6.690 5.689,6.268 5.457 C 5.188 4.861,5.053 4.834,4.806 5.157 C 4.673 5.331,3.578 7.145,2.918 8.283 C 2.670 8.710,2.567 8.931,2.552 9.065 C 2.532 9.236,2.542 9.262,2.681 9.393 C 2.764 9.471,3.099 9.689,3.426 9.878 C 4.252 10.356,4.533 10.545,4.557 10.637 C 4.568 10.681,4.560 10.822,4.539 10.952 C 4.489 11.260,4.489 12.744,4.540 13.054 C 4.567 13.216,4.565 13.327,4.536 13.391 C 4.492 13.487,4.045 13.781,3.254 14.232 C 2.712 14.541,2.542 14.693,2.542 14.869 C 2.542 15.039,2.786 15.502,3.645 16.958 C 4.450 18.324,4.838 18.928,4.968 19.019 C 5.154 19.149,5.222 19.123,6.413 18.470 C 6.767 18.276,7.101 18.101,7.155 18.080 C 7.277 18.033,7.350 18.069,7.944 18.465 C 8.410 18.775,9.175 19.190,9.508 19.313 C 9.861 19.442,9.851 19.409,9.875 20.619 C 9.899 21.828,9.913 21.885,10.202 21.947 C 10.286 21.965,11.367 21.979,12.606 21.979 C 14.705 21.979,14.866 21.974,14.972 21.904 C 15.035 21.863,15.108 21.778,15.133 21.717 C 15.158 21.653,15.190 21.149,15.205 20.554 C 15.220 19.976,15.241 19.495,15.252 19.486 C 15.262 19.476,15.591 19.308,15.983 19.112 C 16.374 18.917,16.934 18.596,17.228 18.399 C 17.521 18.203,17.782 18.042,17.808 18.042 C 17.834 18.042,18.098 18.175,18.396 18.338 C 19.677 19.039,19.711 19.056,19.909 19.056 C 20.069 19.056,20.115 19.036,20.205 18.927 C 20.378 18.720,22.138 15.758,22.424 15.193 C 22.642 14.762,22.568 14.675,21.421 14.006 C 20.954 13.733,20.554 13.479,20.533 13.442 C 20.510 13.401,20.513 13.190,20.539 12.906 C 20.596 12.303,20.595 11.705,20.537 11.073 C 20.492 10.574,20.492 10.569,20.585 10.499 C 20.636 10.460,21.037 10.224,21.475 9.975 C 22.310 9.499,22.476 9.370,22.521 9.164 C 22.556 9.006,22.505 8.907,21.511 7.213 C 20.342 5.221,20.130 4.917,19.910 4.917 C 19.829 4.917,19.331 5.163,18.396 5.666 C 18.098 5.826,17.833 5.957,17.808 5.958 C 17.782 5.958,17.519 5.797,17.224 5.601 C 16.929 5.404,16.366 5.085,15.974 4.893 C 15.310 4.567,15.259 4.534,15.235 4.412 C 15.220 4.340,15.208 3.910,15.208 3.455 C 15.208 2.467,15.172 2.248,14.986 2.115 L 14.854 2.021 12.708 2.015 C 11.528 2.012,10.469 2.022,10.354 2.038 M14.168 3.573 C 14.171 4.862,14.325 5.210,15.042 5.548 C 15.878 5.943,16.135 6.084,16.669 6.440 C 17.662 7.103,17.808 7.110,18.895 6.545 C 19.294 6.337,19.645 6.167,19.675 6.167 C 19.705 6.168,20.013 6.650,20.359 7.240 C 21.157 8.599,21.303 8.864,21.275 8.909 C 21.263 8.929,20.978 9.103,20.642 9.295 C 19.986 9.671,19.765 9.852,19.620 10.134 C 19.530 10.309,19.528 10.346,19.523 11.979 C 19.519 13.540,19.524 13.656,19.598 13.811 C 19.775 14.178,19.957 14.330,20.771 14.790 C 21.023 14.932,21.246 15.064,21.266 15.084 C 21.288 15.105,21.201 15.302,21.061 15.550 C 20.687 16.215,19.809 17.678,19.723 17.781 L 19.646 17.873 19.000 17.519 C 18.248 17.106,18.006 17.022,17.696 17.064 C 17.389 17.105,17.300 17.148,16.646 17.582 C 16.322 17.796,15.763 18.113,15.390 18.293 C 14.643 18.654,14.469 18.792,14.298 19.163 C 14.197 19.382,14.190 19.443,14.174 20.198 L 14.157 21.000 12.520 21.000 L 10.884 21.000 10.869 20.177 C 10.855 19.374,10.851 19.349,10.737 19.116 C 10.585 18.806,10.363 18.620,9.875 18.392 C 9.228 18.089,9.009 17.967,8.396 17.563 C 8.075 17.352,7.749 17.158,7.671 17.131 C 7.593 17.105,7.387 17.084,7.213 17.084 C 6.844 17.085,6.787 17.108,5.972 17.567 C 5.429 17.874,5.402 17.884,5.345 17.809 C 5.277 17.717,4.078 15.719,3.881 15.368 L 3.748 15.132 3.864 15.052 C 3.927 15.008,4.204 14.840,4.479 14.677 C 4.754 14.515,5.058 14.315,5.154 14.232 C 5.388 14.030,5.538 13.712,5.540 13.417 C 5.541 13.291,5.537 12.531,5.531 11.729 L 5.521 10.271 5.405 10.074 C 5.270 9.844,5.046 9.663,4.500 9.343 C 4.282 9.216,4.024 9.057,3.926 8.990 L 3.747 8.869 3.881 8.632 C 4.110 8.230,5.282 6.275,5.340 6.199 C 5.391 6.132,5.451 6.157,6.083 6.501 C 6.461 6.707,6.836 6.894,6.917 6.917 C 7.321 7.031,7.661 6.925,8.351 6.467 C 8.847 6.139,9.505 5.780,10.023 5.554 C 10.293 5.436,10.646 5.097,10.762 4.844 C 10.844 4.666,10.854 4.562,10.868 3.823 L 10.883 3.000 12.525 3.000 L 14.167 3.000 14.168 3.573 M12.150 7.917 C 11.763 8.068,11.554 8.381,11.516 8.868 C 11.483 9.301,11.479 9.309,11.215 9.472 C 10.654 9.818,10.170 10.535,10.084 11.146 C 10.062 11.306,10.043 11.779,10.042 12.197 L 10.042 12.957 9.645 13.489 C 9.426 13.782,9.237 14.063,9.223 14.115 C 9.182 14.276,9.250 14.577,9.356 14.703 C 9.498 14.872,9.726 14.917,10.450 14.917 L 11.072 14.917 11.161 15.160 C 11.340 15.651,11.643 15.940,12.137 16.090 C 12.777 16.284,13.446 16.004,13.790 15.396 C 13.854 15.281,13.921 15.141,13.938 15.083 C 13.956 15.026,13.990 14.965,14.016 14.949 C 14.042 14.932,14.349 14.918,14.699 14.917 C 15.398 14.917,15.548 14.882,15.701 14.687 C 15.751 14.624,15.814 14.499,15.841 14.409 C 15.904 14.197,15.836 14.054,15.380 13.439 L 15.042 12.983 15.040 12.273 C 15.038 11.211,14.935 10.769,14.560 10.205 C 14.351 9.890,14.098 9.643,13.793 9.455 L 13.583 9.326 13.583 9.066 C 13.583 8.666,13.486 8.398,13.256 8.169 C 12.935 7.847,12.551 7.760,12.150 7.917 M12.711 8.460 C 12.817 8.517,12.917 8.716,12.917 8.873 L 12.917 9.000 12.521 9.000 C 12.125 9.000,12.125 9.000,12.125 8.894 C 12.125 8.544,12.436 8.313,12.711 8.460 M13.150 10.167 C 13.602 10.387,13.942 10.847,14.041 11.373 C 14.064 11.495,14.083 11.882,14.083 12.233 L 14.083 12.870 14.347 13.244 C 14.493 13.449,14.635 13.674,14.665 13.745 C 14.776 14.013,14.877 14.001,12.637 13.995 C 11.519 13.992,10.548 13.978,10.480 13.963 C 10.411 13.949,10.350 13.908,10.343 13.874 C 10.336 13.839,10.472 13.605,10.645 13.355 L 10.958 12.899 10.960 12.418 C 10.962 11.675,11.020 11.154,11.124 10.939 C 11.174 10.836,11.300 10.657,11.404 10.541 C 11.874 10.019,12.550 9.874,13.150 10.167 M12.994 15.041 C 12.937 15.204,12.691 15.417,12.559 15.417 C 12.397 15.417,12.226 15.309,12.123 15.143 C 11.997 14.939,12.040 14.918,12.592 14.917 L 13.037 14.917 12.994 15.041 " fill="#EC0000" stroke="none" fill-rule="evenodd"></path></svg>