<svg width="24" height="25" viewBox="0 0 24 25" fill="none" xmlns="http://www.w3.org/2000/svg"><path d="M10.780 4.623 C 8.625 4.956,6.583 6.256,5.380 8.060 C 4.783 8.956,4.372 9.939,4.156 10.988 C 4.038 11.560,4.007 12.889,4.097 13.533 C 4.414 15.799,5.572 17.701,7.464 19.064 C 8.193 19.589,9.388 20.097,10.420 20.319 C 11.303 20.510,12.719 20.502,13.620 20.301 C 16.711 19.614,18.971 17.427,19.743 14.376 C 19.879 13.835,20.000 12.970,20.000 12.528 C 20.000 11.843,19.806 10.770,19.536 9.960 C 18.848 7.895,17.514 6.369,15.535 5.385 C 14.641 4.940,14.024 4.750,13.040 4.618 C 12.507 4.546,11.259 4.549,10.780 4.623 M12.580 5.599 C 13.608 5.648,14.148 5.789,15.060 6.247 C 16.419 6.929,17.494 7.991,18.214 9.363 C 18.655 10.205,18.845 10.893,18.922 11.936 C 19.018 13.220,18.815 14.391,18.315 15.440 C 17.238 17.703,15.014 19.271,12.636 19.444 C 11.934 19.495,10.951 19.440,10.460 19.322 C 8.545 18.861,6.895 17.621,5.966 15.945 C 5.647 15.370,5.348 14.635,5.200 14.061 C 5.081 13.600,5.080 13.582,5.080 12.541 C 5.080 11.361,5.107 11.140,5.344 10.420 C 5.631 9.545,6.138 8.648,6.769 7.900 C 7.797 6.682,9.628 5.706,11.080 5.602 C 11.680 5.559,11.738 5.559,12.580 5.599 M11.500 6.547 C 10.245 6.701,9.327 7.065,8.327 7.807 C 7.269 8.593,6.547 9.699,6.170 11.118 C 6.075 11.475,6.068 11.563,6.066 12.460 C 6.063 13.508,6.085 13.669,6.324 14.379 C 6.627 15.276,7.066 15.978,7.765 16.676 C 8.482 17.393,9.263 17.882,10.200 18.201 C 10.796 18.403,11.072 18.437,12.145 18.439 L 13.110 18.440 13.625 18.264 C 14.744 17.880,15.320 17.541,16.076 16.821 C 16.964 15.975,17.509 15.065,17.824 13.901 C 17.949 13.441,17.999 12.315,17.923 11.708 C 17.687 9.831,16.506 8.165,14.720 7.187 C 14.071 6.832,13.503 6.677,12.496 6.580 C 11.881 6.521,11.744 6.517,11.500 6.547 M12.760 11.000 L 12.760 14.000 12.000 14.000 L 11.240 14.000 11.240 11.000 L 11.240 8.000 12.000 8.000 L 12.760 8.000 12.760 11.000 M12.760 15.310 C 12.760 15.480,12.748 15.822,12.734 16.070 L 12.708 16.520 12.000 16.520 L 11.292 16.520 11.266 16.094 C 11.252 15.859,11.240 15.517,11.240 15.334 L 11.240 15.000 12.000 15.000 L 12.760 15.000 12.760 15.310 " fill="#EC0000" stroke="none" fill-rule="evenodd"></path></svg>