<svg width="24" height="25" viewBox="0 0 24 25" fill="none" xmlns="http://www.w3.org/2000/svg"><path d="M10.934 4.602 C 10.248 4.669,9.401 4.929,8.540 5.338 C 6.000 6.544,4.330 8.970,4.037 11.880 C 3.871 13.522,4.384 15.471,5.362 16.920 C 7.378 19.907,11.119 21.198,14.498 20.073 C 17.540 19.061,19.646 16.377,19.963 13.107 C 20.094 11.756,19.771 10.220,19.055 8.788 C 18.487 7.650,17.493 6.578,16.272 5.784 C 15.527 5.299,14.384 4.828,13.640 4.698 C 13.453 4.665,12.913 4.621,12.440 4.600 C 11.488 4.557,11.403 4.557,10.934 4.602 M12.304 5.560 C 13.528 5.655,14.090 5.792,14.959 6.206 C 16.400 6.892,17.511 7.981,18.235 9.420 C 18.518 9.983,18.701 10.478,18.806 10.963 C 18.886 11.336,18.896 11.495,18.898 12.460 C 18.900 13.448,18.892 13.575,18.807 13.954 C 18.387 15.832,17.245 17.450,15.620 18.470 C 15.095 18.799,13.781 19.303,13.200 19.397 C 12.870 19.451,11.190 19.451,10.822 19.398 C 10.128 19.298,8.746 18.722,8.049 18.243 C 6.818 17.397,5.888 16.150,5.381 14.665 C 5.155 14.004,5.119 13.774,5.093 12.860 C 5.047 11.191,5.191 10.535,5.906 9.160 C 6.288 8.426,6.661 7.957,7.380 7.313 C 7.864 6.878,8.276 6.599,8.860 6.308 C 9.671 5.903,10.392 5.677,11.180 5.579 C 11.704 5.513,11.705 5.513,12.304 5.560 M11.240 11.000 L 11.240 14.000 12.000 14.000 L 12.760 14.000 12.760 11.000 L 12.760 8.000 12.000 8.000 L 11.240 8.000 11.240 11.000 M11.249 15.750 L 11.260 16.500 12.000 16.500 L 12.740 16.500 12.751 15.750 L 12.762 15.000 12.000 15.000 L 11.238 15.000 11.249 15.750 " fill="#EC0000" stroke="none" fill-rule="evenodd"></path></svg>