<svg width="24" height="24" viewBox="0 0 24 24" fill="none" xmlns="http://www.w3.org/2000/svg"><path d="M9.400 2.042 C 8.067 2.067,8.045 2.070,7.540 2.289 C 6.608 2.693,5.996 3.366,5.638 4.379 L 5.520 4.714 5.520 10.179 L 5.520 15.645 6.020 15.074 L 6.520 14.502 6.521 10.181 C 6.522 7.804,6.539 5.581,6.560 5.240 C 6.597 4.642,6.603 4.609,6.745 4.320 C 6.950 3.904,7.424 3.430,7.840 3.225 C 8.117 3.090,8.180 3.075,8.660 3.040 C 9.323 2.992,14.628 2.990,15.247 3.038 C 15.628 3.068,15.767 3.097,16.007 3.199 L 16.300 3.323 16.420 3.187 C 16.486 3.113,16.636 2.941,16.754 2.805 L 16.969 2.559 16.625 2.400 C 16.133 2.173,15.823 2.076,15.522 2.058 C 15.046 2.029,10.684 2.017,9.400 2.042 M18.688 2.263 C 18.583 2.336,17.361 3.720,13.376 8.280 C 6.773 15.835,4.287 18.703,4.227 18.833 C 4.161 18.976,4.268 19.236,4.440 19.352 C 4.552 19.428,4.616 19.443,4.760 19.427 C 4.910 19.411,4.966 19.379,5.096 19.234 C 6.721 17.424,15.706 7.148,18.732 3.640 C 19.279 3.005,19.439 2.795,19.439 2.709 C 19.440 2.529,19.336 2.330,19.205 2.263 C 19.050 2.182,18.803 2.182,18.688 2.263 M8.718 4.611 C 8.516 4.746,8.473 4.942,8.489 5.640 C 8.505 6.298,8.546 6.426,8.774 6.535 C 8.942 6.614,9.042 6.617,9.213 6.545 C 9.457 6.444,9.494 6.332,9.511 5.660 C 9.528 4.941,9.486 4.748,9.282 4.611 C 9.203 4.557,9.088 4.520,9.000 4.520 C 8.912 4.520,8.797 4.557,8.718 4.611 M11.718 4.611 C 11.516 4.746,11.473 4.942,11.489 5.640 C 11.505 6.298,11.546 6.426,11.774 6.535 C 11.942 6.614,12.042 6.617,12.213 6.545 C 12.457 6.444,12.494 6.332,12.511 5.660 C 12.528 4.941,12.486 4.748,12.282 4.611 C 12.203 4.557,12.088 4.520,12.000 4.520 C 11.912 4.520,11.797 4.557,11.718 4.611 M18.011 6.102 L 17.521 6.660 17.521 13.495 L 17.520 20.330 17.330 20.305 C 16.538 20.202,13.466 20.001,12.672 20.000 L 12.524 20.000 12.512 17.950 C 12.503 16.449,12.486 15.871,12.451 15.790 C 12.342 15.546,11.978 15.448,11.733 15.598 C 11.494 15.743,11.501 15.679,11.488 17.925 L 11.475 19.991 10.848 20.017 C 9.134 20.088,8.205 20.149,6.620 20.293 C 6.544 20.300,6.539 20.272,6.529 19.789 L 6.518 19.277 6.329 19.434 C 6.129 19.601,5.916 19.718,5.670 19.798 L 5.520 19.846 5.520 20.139 L 5.520 20.433 5.230 20.479 C 3.381 20.772,2.309 20.999,2.174 21.125 C 1.951 21.335,1.954 21.636,2.183 21.837 C 2.366 21.998,2.484 21.997,3.343 21.824 C 6.091 21.271,8.686 21.031,11.900 21.031 C 15.147 21.031,17.591 21.258,20.687 21.846 L 21.553 22.011 21.703 21.934 C 21.890 21.837,22.012 21.628,21.985 21.450 C 21.955 21.256,21.818 21.089,21.648 21.040 C 21.379 20.963,19.750 20.646,19.160 20.556 C 18.841 20.507,18.571 20.460,18.560 20.450 C 18.549 20.441,18.531 17.083,18.520 12.988 L 18.500 5.543 18.011 6.102 M8.718 8.611 C 8.516 8.746,8.473 8.942,8.489 9.640 C 8.505 10.298,8.546 10.426,8.774 10.535 C 8.942 10.614,9.042 10.617,9.213 10.545 C 9.457 10.444,9.494 10.332,9.511 9.660 C 9.528 8.941,9.486 8.748,9.282 8.611 C 9.203 8.557,9.088 8.520,9.000 8.520 C 8.912 8.520,8.797 8.557,8.718 8.611 M14.718 12.611 C 14.516 12.746,14.473 12.942,14.489 13.640 C 14.505 14.298,14.546 14.426,14.774 14.535 C 14.942 14.614,15.042 14.617,15.213 14.545 C 15.457 14.444,15.494 14.332,15.511 13.660 C 15.528 12.941,15.486 12.748,15.282 12.611 C 15.203 12.557,15.088 12.520,15.000 12.520 C 14.912 12.520,14.797 12.557,14.718 12.611 M14.718 16.611 C 14.516 16.746,14.473 16.942,14.489 17.640 C 14.505 18.298,14.546 18.426,14.774 18.535 C 14.942 18.614,15.042 18.617,15.213 18.545 C 15.457 18.444,15.494 18.332,15.511 17.660 C 15.528 16.941,15.486 16.748,15.282 16.611 C 15.203 16.557,15.088 16.520,15.000 16.520 C 14.912 16.520,14.797 16.557,14.718 16.611 " fill="#EC0000" stroke="none" fill-rule="evenodd"></path></svg>