<svg width="25" height="25" viewBox="0 0 25 25" fill="none" xmlns="http://www.w3.org/2000/svg"><path d="M7.626 6.928 C 7.570 6.957,7.481 7.044,7.428 7.121 L 7.333 7.262 7.333 12.341 C 7.333 17.932,7.319 17.624,7.591 17.791 C 7.728 17.874,7.787 17.875,12.827 17.875 C 18.421 17.875,18.108 17.889,18.262 17.628 C 18.350 17.479,18.353 17.284,18.270 17.124 C 18.134 16.860,18.435 16.875,13.148 16.875 L 8.333 16.875 8.333 12.060 C 8.333 6.773,8.348 7.074,8.085 6.938 C 7.937 6.862,7.765 6.858,7.626 6.928 " fill="#23779A" stroke="none" fill-rule="evenodd"></path></svg>