<svg width="24" height="25" viewBox="0 0 24 25" fill="none" xmlns="http://www.w3.org/2000/svg"><path d="M7.897 2.597 C 7.522 2.658,6.932 3.044,6.595 3.450 C 6.176 3.954,6.021 4.434,6.050 5.140 C 6.064 5.469,6.092 5.641,6.160 5.820 C 6.418 6.496,7.045 7.106,7.736 7.354 C 7.979 7.442,8.086 7.456,8.480 7.455 C 9.246 7.453,9.720 7.248,10.287 6.673 C 10.600 6.356,10.810 6.004,10.904 5.639 C 10.997 5.275,10.963 4.517,10.837 4.179 C 10.546 3.398,9.735 2.711,8.976 2.601 C 8.672 2.558,8.150 2.555,7.897 2.597 M14.897 2.597 C 14.522 2.658,13.932 3.044,13.595 3.450 C 13.176 3.954,13.021 4.434,13.050 5.140 C 13.064 5.469,13.092 5.641,13.160 5.820 C 13.418 6.496,14.045 7.106,14.736 7.354 C 14.979 7.442,15.086 7.456,15.480 7.455 C 16.246 7.453,16.720 7.248,17.287 6.673 C 17.600 6.356,17.810 6.004,17.904 5.639 C 17.997 5.275,17.963 4.517,17.837 4.179 C 17.546 3.398,16.735 2.711,15.976 2.601 C 15.672 2.558,15.150 2.555,14.897 2.597 M8.803 3.583 C 9.245 3.684,9.593 3.953,9.804 4.360 C 9.929 4.599,9.959 5.166,9.864 5.494 C 9.780 5.782,9.414 6.188,9.099 6.342 C 8.900 6.439,8.853 6.446,8.452 6.433 C 8.135 6.423,7.980 6.400,7.872 6.346 C 7.631 6.227,7.321 5.891,7.185 5.602 C 7.076 5.373,7.061 5.297,7.061 5.000 C 7.062 4.713,7.079 4.623,7.172 4.422 C 7.380 3.976,7.644 3.734,8.076 3.596 C 8.357 3.506,8.456 3.504,8.803 3.583 M15.803 3.583 C 16.245 3.684,16.593 3.953,16.804 4.360 C 16.929 4.599,16.959 5.166,16.864 5.494 C 16.780 5.782,16.414 6.188,16.099 6.342 C 15.900 6.439,15.853 6.446,15.452 6.433 C 15.135 6.423,14.980 6.400,14.872 6.346 C 14.631 6.227,14.321 5.891,14.185 5.602 C 14.076 5.373,14.061 5.297,14.061 5.000 C 14.062 4.713,14.079 4.623,14.172 4.422 C 14.380 3.976,14.644 3.734,15.076 3.596 C 15.357 3.506,15.456 3.504,15.803 3.583 M7.940 10.087 C 7.297 10.209,6.583 10.792,6.261 11.460 C 6.083 11.830,6.025 12.151,6.049 12.631 C 6.098 13.616,6.613 14.323,7.669 14.855 C 7.860 14.951,7.918 14.960,8.370 14.960 C 9.218 14.960,9.644 14.793,10.209 14.238 C 10.502 13.950,10.583 13.841,10.715 13.557 C 10.904 13.150,10.960 12.901,10.960 12.466 C 10.960 11.810,10.748 11.309,10.260 10.816 C 10.006 10.558,9.870 10.457,9.600 10.325 C 9.069 10.065,8.492 9.982,7.940 10.087 M14.940 10.087 C 14.297 10.209,13.583 10.792,13.261 11.460 C 13.083 11.830,13.025 12.151,13.049 12.631 C 13.098 13.616,13.613 14.323,14.669 14.855 C 14.860 14.951,14.918 14.960,15.370 14.960 C 16.218 14.960,16.644 14.793,17.209 14.238 C 17.502 13.950,17.583 13.841,17.715 13.557 C 17.904 13.150,17.960 12.901,17.960 12.466 C 17.960 11.810,17.748 11.309,17.260 10.816 C 17.006 10.558,16.870 10.457,16.600 10.325 C 16.069 10.065,15.492 9.982,14.940 10.087 M8.782 11.062 C 9.232 11.179,9.591 11.453,9.794 11.835 C 9.912 12.057,9.920 12.097,9.919 12.486 C 9.918 13.001,9.855 13.159,9.508 13.513 C 9.162 13.866,9.032 13.925,8.541 13.950 C 8.167 13.969,8.124 13.963,7.939 13.869 C 7.706 13.751,7.288 13.330,7.166 13.091 C 7.093 12.949,7.080 12.854,7.080 12.469 C 7.080 12.035,7.085 12.008,7.199 11.828 C 7.477 11.389,7.748 11.175,8.170 11.062 C 8.444 10.988,8.498 10.988,8.782 11.062 M15.782 11.062 C 16.232 11.179,16.591 11.453,16.794 11.835 C 16.912 12.057,16.920 12.097,16.919 12.486 C 16.918 13.001,16.855 13.159,16.508 13.513 C 16.162 13.866,16.032 13.925,15.541 13.950 C 15.167 13.969,15.124 13.963,14.939 13.869 C 14.706 13.751,14.288 13.330,14.166 13.091 C 14.093 12.949,14.080 12.854,14.080 12.469 C 14.080 12.035,14.085 12.008,14.199 11.828 C 14.477 11.389,14.748 11.175,15.170 11.062 C 15.444 10.988,15.498 10.988,15.782 11.062 M7.818 17.614 C 6.985 17.886,6.229 18.694,6.077 19.473 C 6.009 19.824,6.051 20.510,6.159 20.820 C 6.384 21.467,7.145 22.195,7.795 22.385 C 7.960 22.434,8.146 22.445,8.597 22.434 C 9.181 22.420,9.186 22.419,9.482 22.272 C 10.085 21.974,10.551 21.487,10.803 20.892 C 10.920 20.616,10.938 20.528,10.952 20.136 C 10.972 19.589,10.922 19.333,10.713 18.916 C 10.448 18.385,9.954 17.953,9.311 17.688 C 9.091 17.597,8.993 17.583,8.520 17.573 C 8.150 17.565,7.929 17.578,7.818 17.614 M14.818 17.614 C 13.985 17.886,13.229 18.694,13.077 19.473 C 13.009 19.824,13.051 20.510,13.159 20.820 C 13.384 21.467,14.145 22.195,14.795 22.385 C 14.960 22.434,15.146 22.445,15.597 22.434 C 16.181 22.420,16.186 22.419,16.482 22.272 C 17.085 21.974,17.551 21.487,17.803 20.892 C 17.920 20.616,17.938 20.528,17.952 20.136 C 17.972 19.589,17.922 19.333,17.713 18.916 C 17.448 18.385,16.954 17.953,16.311 17.688 C 16.091 17.597,15.993 17.583,15.520 17.573 C 15.150 17.565,14.929 17.578,14.818 17.614 M8.803 18.583 C 9.245 18.684,9.593 18.953,9.804 19.360 C 9.929 19.599,9.959 20.166,9.864 20.494 C 9.780 20.782,9.414 21.188,9.099 21.342 C 8.900 21.439,8.853 21.446,8.452 21.433 C 8.135 21.423,7.980 21.400,7.872 21.346 C 7.631 21.227,7.321 20.891,7.185 20.602 C 7.076 20.373,7.061 20.297,7.061 20.000 C 7.062 19.713,7.079 19.623,7.172 19.422 C 7.380 18.976,7.644 18.734,8.076 18.596 C 8.357 18.506,8.456 18.504,8.803 18.583 M15.803 18.583 C 16.245 18.684,16.593 18.953,16.804 19.360 C 16.929 19.599,16.959 20.166,16.864 20.494 C 16.780 20.782,16.414 21.188,16.099 21.342 C 15.900 21.439,15.853 21.446,15.452 21.433 C 15.135 21.423,14.980 21.400,14.872 21.346 C 14.631 21.227,14.321 20.891,14.185 20.602 C 14.076 20.373,14.061 20.297,14.061 20.000 C 14.062 19.713,14.079 19.623,14.172 19.422 C 14.380 18.976,14.644 18.734,15.076 18.596 C 15.357 18.506,15.456 18.504,15.803 18.583 " fill="#EC0000" stroke="none" fill-rule="evenodd"></path></svg>