<svg width="24" height="24" viewBox="0 0 24 24" fill="none" xmlns="http://www.w3.org/2000/svg"><path d="M15.455 2.033 C 15.079 2.085,15.000 2.234,15.000 2.895 L 15.000 3.352 14.530 3.152 C 13.150 2.567,11.609 2.179,10.260 2.077 C 9.934 2.052,8.863 2.040,7.700 2.047 L 5.700 2.060 5.407 2.167 C 5.245 2.226,5.011 2.334,4.887 2.407 C 4.566 2.595,4.045 3.127,3.888 3.426 C 3.743 3.704,3.607 4.270,2.854 7.740 C 2.052 11.434,2.075 11.319,2.051 11.945 C 2.032 12.452,2.039 12.537,2.117 12.771 C 2.366 13.520,2.975 14.150,3.732 14.442 C 4.154 14.605,4.584 14.638,6.306 14.639 L 7.633 14.640 7.649 17.530 C 7.666 20.747,7.651 20.571,7.947 21.034 C 8.325 21.624,8.994 21.998,9.674 22.000 C 10.343 22.001,11.018 21.643,11.382 21.094 C 11.673 20.656,11.683 20.599,11.724 19.227 C 11.744 18.549,11.779 17.912,11.802 17.810 C 11.956 17.122,12.603 16.184,13.411 15.478 C 13.872 15.075,14.897 14.280,14.956 14.280 C 14.985 14.280,15.000 14.430,15.000 14.732 L 15.000 15.184 15.152 15.332 L 15.303 15.480 18.504 15.480 L 21.704 15.480 21.852 15.328 L 22.000 15.177 22.000 9.732 L 22.000 4.286 21.876 3.933 C 21.567 3.049,20.941 2.426,20.050 2.116 C 19.834 2.040,19.695 2.035,17.740 2.020 C 16.596 2.012,15.568 2.018,15.455 2.033 M9.510 3.040 C 10.534 3.084,11.265 3.181,12.060 3.378 C 12.944 3.597,14.009 3.982,14.721 4.341 L 15.009 4.485 14.989 8.353 C 14.967 12.565,14.968 12.555,14.739 12.946 C 14.566 13.240,14.413 13.387,13.620 14.021 C 12.033 15.290,11.367 16.069,10.973 17.116 C 10.769 17.657,10.756 17.761,10.724 19.066 L 10.694 20.312 10.566 20.511 C 10.274 20.965,9.740 21.115,9.226 20.887 C 9.016 20.793,8.772 20.543,8.713 20.360 C 8.682 20.264,8.660 19.246,8.643 17.100 C 8.624 14.858,8.604 13.950,8.571 13.872 C 8.479 13.663,8.484 13.663,6.380 13.636 C 4.225 13.609,4.194 13.606,3.777 13.357 C 3.520 13.203,3.298 12.947,3.137 12.618 C 2.935 12.205,2.974 11.957,3.902 7.649 C 4.512 4.820,4.661 4.189,4.778 3.933 C 4.904 3.658,5.211 3.365,5.548 3.199 C 5.777 3.086,5.873 3.064,6.237 3.040 C 6.885 2.997,8.519 2.997,9.510 3.040 M19.180 3.035 C 19.735 3.061,19.798 3.072,20.016 3.181 C 20.338 3.342,20.669 3.682,20.835 4.023 L 20.969 4.298 20.991 9.389 L 21.012 14.480 18.506 14.480 L 16.000 14.480 16.000 8.740 L 16.000 3.000 17.290 3.003 C 18.000 3.005,18.850 3.019,19.180 3.035 " fill="#EC0000" stroke="none" fill-rule="evenodd"></path></svg>