<svg width="24" height="24" viewBox="0 0 24 24" fill="none" xmlns="http://www.w3.org/2000/svg"><path d="M11.379 7.561 C 10.498 7.654,9.579 8.107,8.795 8.835 L 8.489 9.118 8.474 8.702 C 8.457 8.241,8.418 8.159,8.168 8.053 C 7.900 7.940,7.553 8.126,7.499 8.412 C 7.486 8.482,7.481 9.008,7.487 9.580 C 7.498 10.461,7.510 10.639,7.567 10.742 C 7.690 10.966,7.755 10.977,8.960 10.991 C 9.975 11.002,10.071 10.998,10.200 10.928 C 10.502 10.765,10.557 10.412,10.321 10.148 L 10.207 10.020 9.683 10.006 C 9.375 9.998,9.160 9.976,9.160 9.953 C 9.160 9.889,9.640 9.407,9.900 9.210 C 10.196 8.986,10.773 8.704,11.120 8.614 C 11.496 8.516,12.523 8.517,12.880 8.615 C 14.090 8.950,15.000 9.841,15.386 11.066 C 15.493 11.407,15.493 12.594,15.385 12.937 C 14.968 14.263,13.921 15.209,12.617 15.440 C 12.257 15.504,11.424 15.473,11.102 15.383 C 10.770 15.291,10.437 15.152,10.171 14.994 C 9.701 14.716,9.114 14.062,8.829 13.500 C 8.696 13.236,8.563 13.118,8.370 13.092 C 8.038 13.048,7.760 13.316,7.818 13.625 C 7.859 13.844,8.146 14.364,8.436 14.746 C 9.012 15.505,9.809 16.039,10.821 16.343 C 11.127 16.435,11.275 16.454,11.827 16.470 C 12.556 16.492,12.836 16.457,13.380 16.275 C 14.381 15.941,15.184 15.338,15.740 14.502 C 16.944 12.692,16.705 10.331,15.164 8.807 C 14.680 8.328,13.990 7.914,13.328 7.705 C 12.829 7.547,12.049 7.490,11.379 7.561 " fill="#EC0000" stroke="none" fill-rule="evenodd"></path></svg>