<svg width="24" height="24" viewBox="0 0 24 24" fill="none" xmlns="http://www.w3.org/2000/svg">
<path d="M14.4546 12.3072C14.2314 12.5304 14.2314 12.8922 14.4546 13.1154C14.6777 13.3385 15.0395 13.3385 15.2627 13.1154L19.8326 8.54543C20.0558 8.32227 20.0558 7.96046 19.8326 7.7373L15.2627 3.16737C15.0395 2.94421 14.6777 2.94421 14.4546 3.16737C14.2314 3.39052 14.2314 3.75233 14.4546 3.97549L18.0514 7.57143H9.71429C5.92719 7.57143 2.85714 10.6415 2.85714 14.4286C2.85714 18.2157 5.92719 21.2857 9.71429 21.2857C10.0299 21.2857 10.2857 21.0299 10.2857 20.7143C10.2857 20.3987 10.0299 20.1429 9.71429 20.1429C6.55837 20.1429 4 17.5845 4 14.4286C4 11.2727 6.55837 8.71429 9.71429 8.71429H18.0469L14.4546 12.3072Z" fill="#EC0000"/>
</svg>
