<svg width="24" height="24" viewBox="0 0 24 24" fill="none" xmlns="http://www.w3.org/2000/svg">
<path fill-rule="evenodd" clip-rule="evenodd" d="M4 20C2.89543 20 2 19.1046 2 18L2 6C2 4.89543 2.89543 4 4 4L19.999 4C21.1036 4 21.999 4.89543 21.999 6V18C21.999 19.1046 21.1036 20 19.999 20L4 20ZM20.1016 18.9951C20.6057 18.9438 20.999 18.5177 20.999 18V6L20.9941 5.89746C20.9462 5.42704 20.572 5.05278 20.1016 5.00488L19.999 5L7.99902 5L7.99902 19L19.999 19L20.1016 18.9951ZM6.99902 5L4 5C3.44772 5 3 5.44772 3 6L3 18C3 18.5523 3.44772 19 4 19H6.99902L6.99902 5Z" fill="#EC0000"/>
<path d="M16.7701 12.6164C16.9412 12.371 16.9176 12.0305 16.6988 11.8113L14.1527 9.26055L14.0657 9.18771C13.8208 9.01775 13.4822 9.04203 13.2641 9.26055C13.0187 9.50639 13.0187 9.90497 13.2641 10.1508L15.3639 12.2545L13.2661 14.3374L13.193 14.4243C13.0223 14.6689 13.045 15.0082 13.2621 15.2277C13.5064 15.4746 13.9043 15.4764 14.1507 15.2317L16.6968 12.7036L16.7701 12.6164Z" fill="#EC0000"/>
</svg>
