<svg width="24" height="24" viewBox="0 0 24 24" fill="none" xmlns="http://www.w3.org/2000/svg">
<path d="M8.54543 12.3072C8.76858 12.5304 8.76858 12.8922 8.54543 13.1154C8.32227 13.3385 7.96046 13.3385 7.7373 13.1154L3.16737 8.54543C2.94421 8.32227 2.94421 7.96046 3.16737 7.7373L7.7373 3.16737C7.96046 2.94421 8.32227 2.94421 8.54543 3.16737C8.76858 3.39052 8.76858 3.75233 8.54543 3.97549L4.94857 7.57143H13.2857C17.0728 7.57143 20.1429 10.6415 20.1429 14.4286C20.1429 18.2157 17.0728 21.2857 13.2857 21.2857C12.9701 21.2857 12.7143 21.0299 12.7143 20.7143C12.7143 20.3987 12.9701 20.1429 13.2857 20.1429C16.4416 20.1429 19 17.5845 19 14.4286C19 11.2727 16.4416 8.71429 13.2857 8.71429H4.95314L8.54543 12.3072Z" fill="#EC0000"/>
</svg>
