<svg width="24" height="24" viewBox="0 0 24 24" fill="none" xmlns="http://www.w3.org/2000/svg"><path d="M9.820 2.038 C 9.548 2.078,9.488 2.109,9.410 2.255 C 9.353 2.360,9.339 2.550,9.321 3.420 C 9.310 3.992,9.285 4.483,9.267 4.511 C 9.249 4.540,8.954 4.696,8.613 4.860 C 8.257 5.031,7.734 5.328,7.384 5.559 C 7.049 5.779,6.749 5.960,6.717 5.960 C 6.686 5.960,6.246 5.735,5.740 5.460 C 5.234 5.185,4.761 4.949,4.690 4.936 C 4.428 4.886,4.314 5.030,3.392 6.580 C 2.094 8.761,1.995 8.950,2.030 9.191 C 2.056 9.368,2.177 9.461,3.040 9.960 C 3.439 10.191,3.829 10.434,3.907 10.500 L 4.048 10.621 4.004 10.980 C 3.948 11.441,3.948 12.556,4.004 13.014 C 4.046 13.356,4.044 13.370,3.956 13.464 C 3.873 13.553,3.509 13.778,2.607 14.299 C 2.182 14.544,2.000 14.713,2.000 14.861 C 2.000 15.042,2.703 16.305,3.775 18.052 C 4.390 19.052,4.488 19.149,4.790 19.044 C 4.873 19.015,5.273 18.807,5.680 18.581 C 6.655 18.040,6.671 18.032,6.764 18.061 C 6.808 18.075,7.036 18.217,7.272 18.377 C 7.883 18.791,8.205 18.974,8.724 19.203 C 8.975 19.314,9.207 19.431,9.240 19.463 C 9.289 19.512,9.304 19.711,9.320 20.571 C 9.342 21.722,9.364 21.830,9.592 21.932 C 9.672 21.968,10.290 21.980,12.000 21.980 C 13.710 21.980,14.328 21.968,14.408 21.932 C 14.636 21.830,14.658 21.722,14.680 20.571 C 14.696 19.711,14.711 19.512,14.760 19.463 C 14.793 19.431,15.025 19.314,15.276 19.203 C 15.795 18.974,16.117 18.791,16.728 18.377 C 16.964 18.217,17.192 18.075,17.236 18.061 C 17.329 18.032,17.345 18.040,18.320 18.581 C 18.727 18.807,19.127 19.015,19.210 19.044 C 19.415 19.115,19.546 19.061,19.719 18.831 C 19.996 18.465,21.326 16.246,21.764 15.419 C 22.133 14.722,22.135 14.725,21.040 14.093 C 19.868 13.416,19.938 13.491,20.002 12.979 C 20.051 12.590,20.033 10.987,19.977 10.749 C 19.939 10.590,20.107 10.448,20.807 10.048 C 21.724 9.525,21.892 9.404,21.949 9.231 C 22.029 8.984,21.974 8.874,20.608 6.580 C 19.686 5.030,19.572 4.886,19.310 4.936 C 19.239 4.949,18.766 5.185,18.260 5.460 C 17.754 5.735,17.314 5.960,17.283 5.960 C 17.251 5.960,16.951 5.779,16.616 5.559 C 16.266 5.328,15.743 5.031,15.387 4.860 C 15.046 4.696,14.751 4.540,14.733 4.511 C 14.715 4.483,14.691 3.992,14.679 3.420 C 14.662 2.554,14.648 2.360,14.592 2.258 C 14.462 2.019,14.501 2.023,12.160 2.015 C 10.983 2.011,9.930 2.021,9.820 2.038 M13.647 3.810 C 13.662 4.581,13.668 4.631,13.767 4.846 C 13.940 5.220,14.119 5.361,14.890 5.734 C 15.298 5.931,15.809 6.220,16.140 6.440 C 17.161 7.120,17.304 7.122,18.480 6.482 C 18.843 6.285,19.152 6.136,19.167 6.152 C 19.201 6.186,20.116 7.709,20.513 8.390 L 20.798 8.880 20.649 8.974 C 20.567 9.025,20.347 9.154,20.160 9.261 C 19.455 9.662,19.176 9.896,19.055 10.186 C 18.975 10.378,18.975 13.622,19.055 13.814 C 19.183 14.121,19.421 14.315,20.268 14.803 L 20.797 15.107 20.534 15.564 C 20.102 16.312,19.157 17.880,19.138 17.880 C 19.128 17.880,18.890 17.751,18.610 17.594 C 17.789 17.132,17.624 17.066,17.300 17.065 C 16.946 17.063,16.762 17.145,16.062 17.617 C 15.777 17.809,15.381 18.044,15.182 18.139 C 14.983 18.234,14.685 18.375,14.520 18.454 C 14.112 18.647,13.947 18.794,13.794 19.106 L 13.664 19.370 13.647 20.185 L 13.630 21.000 12.000 21.000 L 10.369 21.000 10.353 20.190 C 10.338 19.419,10.332 19.369,10.233 19.154 C 10.085 18.834,9.865 18.633,9.452 18.439 C 8.651 18.062,8.397 17.924,7.921 17.603 C 7.240 17.146,7.053 17.063,6.700 17.065 C 6.371 17.067,6.246 17.118,5.422 17.578 C 5.119 17.748,4.856 17.872,4.838 17.853 C 4.793 17.807,3.950 16.404,3.540 15.693 L 3.203 15.107 3.732 14.803 C 4.392 14.422,4.593 14.284,4.759 14.095 C 5.003 13.817,5.000 13.842,5.000 11.994 C 5.000 10.364,4.997 10.299,4.917 10.133 C 4.798 9.888,4.542 9.680,3.880 9.290 C 3.561 9.102,3.279 8.932,3.253 8.911 C 3.218 8.885,3.282 8.742,3.489 8.387 C 3.884 7.708,4.799 6.186,4.833 6.152 C 4.848 6.136,5.157 6.285,5.520 6.482 C 5.883 6.680,6.269 6.868,6.377 6.901 C 6.820 7.034,7.094 6.949,7.861 6.439 C 8.190 6.221,8.719 5.923,9.145 5.716 C 9.938 5.329,10.051 5.239,10.234 4.842 C 10.332 4.632,10.338 4.577,10.353 3.810 L 10.369 3.000 12.000 3.000 L 13.631 3.000 13.647 3.810 M11.726 7.886 C 11.241 8.025,10.960 8.440,10.960 9.016 L 10.960 9.301 10.639 9.513 C 10.332 9.716,10.040 10.017,9.848 10.327 C 9.582 10.758,9.480 11.339,9.480 12.429 L 9.480 12.999 9.100 13.509 C 8.880 13.805,8.710 14.075,8.695 14.150 C 8.639 14.454,8.775 14.716,9.057 14.844 C 9.195 14.907,9.324 14.918,9.888 14.919 L 10.557 14.920 10.602 15.090 C 10.701 15.466,11.035 15.848,11.420 16.028 C 11.624 16.123,11.711 16.140,12.000 16.140 C 12.289 16.140,12.376 16.123,12.580 16.028 C 12.963 15.849,13.251 15.525,13.381 15.128 L 13.449 14.920 14.115 14.919 C 14.676 14.918,14.806 14.907,14.943 14.844 C 15.225 14.716,15.361 14.454,15.305 14.150 C 15.290 14.075,15.122 13.808,14.907 13.518 L 14.533 13.016 14.507 12.158 C 14.478 11.169,14.434 10.934,14.192 10.470 C 14.002 10.103,13.580 9.644,13.250 9.442 L 13.040 9.313 13.040 9.024 C 13.040 8.629,12.950 8.387,12.718 8.154 C 12.447 7.883,12.080 7.784,11.726 7.886 M12.161 8.461 C 12.300 8.532,12.400 8.707,12.400 8.878 L 12.400 9.000 11.995 9.000 L 11.590 9.000 11.611 8.811 C 11.627 8.666,11.661 8.597,11.757 8.511 C 11.898 8.385,11.992 8.373,12.161 8.461 M12.440 10.087 C 12.811 10.205,13.190 10.551,13.374 10.939 C 13.518 11.243,13.560 11.534,13.560 12.237 L 13.560 12.860 13.882 13.334 C 14.059 13.595,14.199 13.838,14.192 13.874 C 14.185 13.910,14.125 13.951,14.060 13.965 C 13.897 14.000,10.045 13.999,9.920 13.964 C 9.865 13.949,9.815 13.908,9.808 13.873 C 9.801 13.838,9.938 13.600,10.112 13.344 L 10.429 12.878 10.449 12.038 L 10.469 11.198 10.601 10.938 C 10.753 10.639,11.050 10.318,11.293 10.192 C 11.639 10.011,12.075 9.972,12.440 10.087 M12.439 14.959 C 12.489 14.990,12.479 15.023,12.377 15.168 C 12.219 15.394,12.021 15.454,11.808 15.338 C 11.627 15.240,11.480 15.010,11.564 14.957 C 11.639 14.909,12.364 14.911,12.439 14.959 " fill="#EC0000" stroke="none" fill-rule="evenodd"></path></svg>