<svg width="25" height="25" viewBox="0 0 25 25" fill="none" xmlns="http://www.w3.org/2000/svg"><path d="M17.976 1.999 C 17.879 2.048,17.476 2.418,17.032 2.866 C 16.373 3.531,16.253 3.671,16.227 3.808 C 16.168 4.126,16.402 4.396,16.737 4.396 C 16.914 4.396,16.924 4.387,17.791 3.521 C 18.736 2.577,18.772 2.524,18.653 2.239 C 18.536 1.960,18.252 1.860,17.976 1.999 M13.354 3.752 C 13.153 3.811,11.238 5.766,10.949 6.208 C 10.513 6.876,10.244 7.520,10.076 8.305 C 9.970 8.802,9.949 9.880,10.037 10.329 L 10.089 10.596 5.946 14.746 C 3.239 17.457,1.763 18.965,1.688 19.095 C 1.320 19.737,1.309 20.446,1.657 21.146 C 1.788 21.410,3.492 23.145,3.851 23.381 C 4.469 23.786,5.237 23.819,5.938 23.471 C 6.101 23.389,7.053 22.460,10.318 19.199 L 14.490 15.032 14.860 15.088 C 15.922 15.250,17.146 15.070,18.160 14.602 C 18.837 14.289,19.248 13.966,20.323 12.901 C 21.391 11.844,21.449 11.766,21.372 11.490 C 21.344 11.388,20.394 10.414,17.531 7.552 C 15.440 5.461,13.697 3.750,13.659 3.750 C 13.621 3.750,13.565 3.742,13.535 3.733 C 13.504 3.724,13.423 3.732,13.354 3.752 M20.438 4.215 C 20.308 4.285,18.835 5.757,18.768 5.883 C 18.574 6.249,18.859 6.666,19.265 6.612 C 19.418 6.591,19.511 6.512,20.300 5.720 L 21.167 4.850 21.167 4.650 C 21.167 4.478,21.147 4.430,21.025 4.308 C 20.907 4.190,20.854 4.167,20.702 4.168 C 20.602 4.169,20.483 4.190,20.438 4.215 M16.854 8.291 L 20.187 11.625 19.521 12.296 C 18.743 13.080,18.351 13.387,17.774 13.668 C 16.736 14.173,15.591 14.280,14.460 13.977 C 12.742 13.518,11.401 12.070,11.057 10.305 C 10.962 9.815,10.963 8.970,11.059 8.508 C 11.201 7.827,11.472 7.202,11.868 6.642 C 12.092 6.324,13.395 4.958,13.474 4.958 C 13.500 4.958,15.021 6.458,16.854 8.291 M22.563 6.704 C 22.494 6.748,22.081 7.141,21.646 7.579 L 20.854 8.376 20.854 8.601 C 20.854 8.861,20.957 9.007,21.194 9.085 C 21.449 9.170,21.551 9.097,22.450 8.195 C 23.279 7.362,23.292 7.347,23.292 7.173 C 23.292 6.935,23.192 6.756,23.019 6.684 C 22.829 6.605,22.712 6.610,22.563 6.704 M10.558 11.948 C 11.066 12.993,12.185 14.109,13.183 14.566 L 13.427 14.677 10.672 17.432 L 7.917 20.187 6.438 18.708 C 5.624 17.895,4.958 17.211,4.958 17.188 C 4.958 17.146,10.376 11.708,10.418 11.708 C 10.431 11.708,10.493 11.816,10.558 11.948 M10.458 14.030 C 10.325 14.056,8.780 15.583,8.685 15.783 C 8.511 16.150,8.850 16.577,9.240 16.481 C 9.397 16.442,11.026 14.819,11.084 14.644 C 11.140 14.474,11.060 14.223,10.917 14.122 C 10.799 14.038,10.612 14.001,10.458 14.030 M5.720 19.407 L 7.210 20.898 6.345 21.754 C 5.421 22.667,5.361 22.708,4.958 22.708 C 4.554 22.708,4.499 22.670,3.526 21.711 C 2.505 20.704,2.417 20.580,2.418 20.146 C 2.419 19.734,2.501 19.613,3.384 18.722 C 3.823 18.279,4.193 17.917,4.206 17.917 C 4.219 17.917,4.900 18.588,5.720 19.407 " fill="#127277" stroke="none" fill-rule="evenodd"></path></svg>