<svg width="24" height="24" viewBox="0 0 24 24" fill="none" xmlns="http://www.w3.org/2000/svg">
<path fill-rule="evenodd" clip-rule="evenodd" d="M19.999 4C21.1036 4 21.999 4.89543 21.999 6V18C21.999 19.1046 21.1036 20 19.999 20H4C2.89543 20 2 19.1046 2 18V6C2 4.89543 2.89543 4 4 4H19.999ZM8 19H19.999C20.5513 19 20.999 18.5523 20.999 18V6C20.999 5.44772 20.5513 5 19.999 5H8V19ZM3.89746 5.00488C3.39333 5.05621 3 5.48232 3 6V18L3.00488 18.1025C3.05278 18.573 3.42703 18.9472 3.89746 18.9951L4 19H7V5H4L3.89746 5.00488Z" fill="#EC0000"/>
<path d="M12.1928 11.8738C12.0217 12.1192 12.0453 12.4597 12.2641 12.6789L14.8102 15.2297L14.8972 15.3025C15.1421 15.4725 15.4807 15.4482 15.6988 15.2297C15.9442 14.9838 15.9442 14.5853 15.6988 14.3394L13.599 12.2358L15.6968 10.1528L15.7699 10.0659C15.9406 9.82135 15.9179 9.48204 15.7008 9.26254C15.4565 9.01561 15.0586 9.01383 14.8122 9.25857L12.2661 11.7867L12.1928 11.8738Z" fill="#EC0000"/>
</svg>
