<svg width="24" height="24" viewBox="0 0 24 24" fill="none" xmlns="http://www.w3.org/2000/svg"><path d="M2.744 8.029 C 2.236 8.045,2.112 8.103,2.035 8.361 C 1.996 8.491,1.999 8.547,2.056 8.695 C 2.093 8.793,2.155 8.885,2.192 8.900 C 2.229 8.915,2.485 8.943,2.760 8.962 C 3.332 9.002,20.887 9.013,21.393 8.974 C 21.689 8.951,21.739 8.935,21.842 8.832 C 22.057 8.617,22.022 8.265,21.767 8.092 C 21.665 8.023,21.266 8.020,12.420 8.018 C 7.338 8.016,2.984 8.021,2.744 8.029 M2.744 15.029 C 2.236 15.045,2.112 15.103,2.035 15.361 C 1.996 15.491,1.999 15.547,2.056 15.695 C 2.093 15.793,2.155 15.885,2.192 15.900 C 2.229 15.915,2.485 15.943,2.760 15.962 C 3.332 16.002,20.887 16.013,21.393 15.974 C 21.689 15.951,21.739 15.935,21.842 15.832 C 22.057 15.617,22.022 15.265,21.767 15.092 C 21.665 15.023,21.266 15.020,12.420 15.018 C 7.338 15.016,2.984 15.021,2.744 15.029 " fill="#EC0000" stroke="none" fill-rule="evenodd"></path></svg>