<svg width="24" height="24" viewBox="0 0 24 24" fill="none" xmlns="http://www.w3.org/2000/svg"><path d="M3.520 7.860 L 3.520 8.360 11.500 8.360 L 19.480 8.360 19.480 7.860 L 19.480 7.360 11.500 7.360 L 3.520 7.360 3.520 7.860 M3.520 10.860 L 3.520 11.360 11.500 11.360 L 19.480 11.360 19.480 10.860 L 19.480 10.360 11.500 10.360 L 3.520 10.360 3.520 10.860 M3.520 13.860 L 3.520 14.360 11.500 14.360 L 19.480 14.360 19.480 13.860 L 19.480 13.360 11.500 13.360 L 3.520 13.360 3.520 13.860 M3.520 16.860 L 3.520 17.360 11.500 17.360 L 19.480 17.360 19.480 16.860 L 19.480 16.360 11.500 16.360 L 3.520 16.360 3.520 16.860 " stroke="none" fill-rule="evenodd"></path></svg>