<svg width="24" height="24" viewBox="0 0 24 24" fill="none" xmlns="http://www.w3.org/2000/svg"><path d="M7.473 9.041 C 6.476 9.209,5.566 9.821,5.026 10.688 C 4.848 10.975,4.657 11.440,4.560 11.830 L 4.517 12.000 4.108 12.000 C 3.312 12.001,3.079 12.090,3.018 12.418 C 2.983 12.601,3.100 12.841,3.260 12.917 C 3.334 12.952,3.583 12.983,3.920 12.998 C 4.473 13.022,4.560 13.042,4.560 13.142 C 4.560 13.173,4.614 13.366,4.679 13.570 C 4.968 14.469,5.670 15.262,6.529 15.659 C 7.058 15.903,7.426 15.981,8.040 15.976 C 8.502 15.973,8.631 15.957,8.932 15.866 C 10.240 15.470,11.171 14.461,11.426 13.163 C 11.468 12.953,11.482 12.677,11.473 12.262 L 11.460 11.663 11.600 11.631 C 11.832 11.577,13.076 11.579,13.324 11.634 L 13.548 11.683 13.529 12.272 C 13.515 12.715,13.526 12.936,13.574 13.168 C 13.836 14.433,14.735 15.443,15.950 15.835 C 17.345 16.285,18.953 15.749,19.835 14.540 C 20.021 14.285,20.268 13.762,20.371 13.408 C 20.422 13.229,20.478 13.068,20.495 13.052 C 20.511 13.036,20.784 13.010,21.102 12.996 C 21.747 12.967,21.824 12.939,21.938 12.699 C 22.022 12.522,21.998 12.348,21.867 12.184 C 21.755 12.044,21.560 12.007,20.912 12.003 L 20.483 12.000 20.439 11.830 C 20.251 11.097,19.988 10.596,19.550 10.135 C 19.068 9.628,18.433 9.263,17.735 9.095 C 17.316 8.993,16.588 9.003,16.160 9.115 C 15.296 9.342,14.472 9.933,14.031 10.643 L 13.967 10.746 13.614 10.670 C 13.116 10.562,11.935 10.556,11.408 10.657 C 11.203 10.697,11.031 10.723,11.025 10.715 C 10.643 10.178,10.181 9.732,9.757 9.492 C 9.066 9.101,8.168 8.924,7.473 9.041 M8.620 10.105 C 9.704 10.369,10.479 11.367,10.479 12.500 C 10.479 13.748,9.509 14.840,8.280 14.978 C 7.988 15.011,7.428 14.945,7.138 14.843 C 6.616 14.659,6.062 14.160,5.799 13.638 C 5.301 12.648,5.481 11.516,6.259 10.740 C 6.889 10.111,7.723 9.887,8.620 10.105 M17.620 10.105 C 18.704 10.369,19.479 11.367,19.479 12.500 C 19.479 13.748,18.509 14.840,17.280 14.978 C 16.988 15.011,16.428 14.945,16.138 14.843 C 15.616 14.659,15.062 14.160,14.799 13.638 C 14.301 12.648,14.481 11.516,15.259 10.740 C 15.889 10.111,16.723 9.887,17.620 10.105 " fill="#EC0000" stroke="none" fill-rule="evenodd"></path></svg>