<svg width="24" height="24" viewBox="0 0 24 24" fill="none" xmlns="http://www.w3.org/2000/svg"><path d="M5.338 2.037 L 3.456 2.060 3.144 2.214 C 2.715 2.426,2.420 2.728,2.194 3.183 L 2.020 3.534 2.020 12.000 L 2.020 20.466 2.194 20.817 C 2.427 21.287,2.713 21.573,3.183 21.806 L 3.534 21.980 12.000 21.980 L 20.466 21.980 20.817 21.806 C 21.287 21.573,21.573 21.287,21.806 20.817 L 21.980 20.466 21.980 13.903 C 21.980 8.696,21.969 7.294,21.929 7.117 C 21.810 6.604,21.565 6.324,19.819 4.715 C 17.627 2.694,17.238 2.359,16.900 2.198 L 16.580 2.046 11.900 2.030 C 9.326 2.022,6.373 2.025,5.338 2.037 M7.000 5.414 L 7.000 7.827 7.125 8.076 C 7.288 8.403,7.596 8.713,7.916 8.872 L 8.173 9.000 12.000 9.000 L 15.827 9.000 16.084 8.872 C 16.404 8.713,16.712 8.403,16.875 8.076 L 17.000 7.827 17.000 5.652 L 17.000 3.476 18.570 4.928 C 19.433 5.727,20.314 6.551,20.527 6.760 C 20.910 7.136,20.915 7.143,20.947 7.380 C 20.965 7.512,20.980 10.464,20.980 13.940 L 20.980 20.260 20.858 20.476 C 20.719 20.720,20.486 20.909,20.256 20.962 C 20.170 20.982,19.852 20.999,19.550 20.999 L 19.000 21.000 19.000 17.086 L 19.000 13.173 18.872 12.916 C 18.711 12.595,18.441 12.322,18.126 12.163 L 17.882 12.040 12.000 12.040 L 6.118 12.040 5.874 12.163 C 5.559 12.322,5.289 12.595,5.128 12.916 L 5.000 13.173 5.000 17.090 L 5.000 21.008 4.350 20.993 C 3.630 20.976,3.555 20.955,3.305 20.697 C 3.005 20.388,3.028 20.742,3.008 16.060 C 2.998 13.750,3.003 10.010,3.020 7.749 L 3.050 3.639 3.171 3.456 C 3.340 3.201,3.548 3.074,3.851 3.039 C 3.988 3.024,4.753 3.008,5.550 3.005 L 7.000 3.000 7.000 5.414 M15.992 5.332 C 15.981 7.499,15.975 7.671,15.908 7.774 C 15.868 7.834,15.787 7.905,15.728 7.932 C 15.572 8.001,8.428 8.001,8.272 7.932 C 8.213 7.905,8.132 7.834,8.092 7.774 C 8.025 7.671,8.019 7.499,8.008 5.332 L 7.996 3.000 12.000 3.000 L 16.004 3.000 15.992 5.332 M13.753 4.081 C 13.521 4.204,13.501 4.313,13.500 5.442 C 13.500 6.531,13.506 6.560,13.772 6.722 C 13.934 6.820,14.066 6.820,14.228 6.722 C 14.494 6.560,14.500 6.531,14.500 5.442 C 14.499 4.285,14.481 4.193,14.226 4.077 C 14.018 3.983,13.938 3.984,13.753 4.081 M17.774 13.092 C 17.834 13.132,17.905 13.213,17.931 13.272 C 17.966 13.352,17.982 14.370,17.992 17.190 L 18.005 21.000 12.003 21.000 L 6.000 21.000 6.003 17.470 C 6.004 15.528,6.020 13.781,6.037 13.587 C 6.077 13.121,6.126 13.069,6.551 13.036 C 6.721 13.022,9.291 13.013,12.262 13.016 C 17.395 13.020,17.669 13.024,17.774 13.092 M7.644 15.661 C 7.541 15.779,7.520 15.836,7.520 16.000 C 7.520 16.164,7.541 16.221,7.644 16.339 L 7.768 16.480 12.000 16.480 L 16.232 16.480 16.356 16.339 C 16.459 16.221,16.480 16.164,16.480 16.000 C 16.480 15.836,16.459 15.779,16.356 15.661 L 16.232 15.520 12.000 15.520 L 7.768 15.520 7.644 15.661 M7.644 17.661 C 7.541 17.779,7.520 17.836,7.520 18.000 C 7.520 18.164,7.541 18.221,7.644 18.339 L 7.768 18.480 12.000 18.480 L 16.232 18.480 16.356 18.339 C 16.459 18.221,16.480 18.164,16.480 18.000 C 16.480 17.836,16.459 17.779,16.356 17.661 L 16.232 17.520 12.000 17.520 L 7.768 17.520 7.644 17.661 " fill="#EC0000" stroke="none" fill-rule="evenodd"></path></svg>