<svg width="24" height="24" viewBox="0 0 24 24" fill="none" xmlns="http://www.w3.org/2000/svg"><path d="M4.257 4.097 C 4.132 4.151,4.000 4.363,4.000 4.510 C 4.000 4.597,4.270 5.037,5.150 6.385 C 5.912 7.552,8.539 11.530,9.363 12.764 L 9.993 13.708 10.011 16.644 C 10.021 18.329,10.045 19.630,10.066 19.697 C 10.087 19.762,10.154 19.852,10.215 19.897 C 10.323 19.978,10.370 19.980,12.000 19.980 C 13.630 19.980,13.677 19.978,13.785 19.897 C 13.846 19.852,13.912 19.762,13.932 19.697 C 13.952 19.633,13.981 18.256,13.996 16.639 L 14.024 13.697 15.800 11.079 C 17.860 8.041,19.744 5.225,19.994 4.811 C 20.155 4.544,20.164 4.514,20.122 4.387 C 20.098 4.313,20.032 4.209,19.976 4.156 L 19.874 4.060 12.127 4.051 C 5.708 4.044,4.359 4.052,4.257 4.097 " fill="#EC0000" stroke="none" fill-rule="evenodd"></path></svg>