<?xml version="1.0" encoding="UTF-8"?>
<svg width="24px" height="24px" viewBox="0 0 24 24" version="1.1" xmlns="http://www.w3.org/2000/svg" xmlns:xlink="http://www.w3.org/1999/xlink">
    <title>AC482139-DDD8-4AFA-8226-976AEFB2AE76</title>
    <g id="Symbols" stroke="none" stroke-width="1" fill="none" fill-rule="evenodd">
        <g id="Atoms/ico/normal-size/users-24" fill="#EC0000">
            <path d="M12.1244594,12.1922676 C13.7097979,12.1922676 14.822523,12.7020738 15.4158618,13.5980546 L15.5269231,13.7816216 L15.8080871,13.857038 L16.1435378,13.9276519 L16.498306,13.9915757 C16.5552571,14.0010344 16.610173,14.009736 16.6616337,14.0174414 L16.9175756,14.0498051 L16.9860595,14.0535125 L17.0732989,14.0520711 L17.253529,14.0395681 L17.4601896,14.0120776 L17.715795,13.9670075 L18.2097961,13.8678584 C18.8364385,13.7417745 19.2593219,13.6847559 19.747727,13.6847559 C21.3807997,13.6847559 22.5,14.7898627 22.5,16.406898 C22.5,17.7763846 22.2144505,18.973011 21.652726,19.9849473 L21.4926881,20.2563419 L21.4090769,20.3827027 L21.7410809,20.4500035 C22.1626986,20.5439542 22.4297282,20.962579 22.3360605,21.3836638 C22.2574388,21.7453916 21.9382121,22 21.5741562,22 C21.5175362,22 21.4611011,21.9937122 21.4056371,21.9813525 C17.8529331,21.1961562 14.8445342,20.8310724 11.9380264,20.8310724 C9.08581782,20.8310724 6.10857679,21.1901912 2.56737149,21.961915 C2.14294249,22.0551115 1.7304457,21.7880343 1.63611107,21.3623287 C1.54547922,20.9392605 1.81282402,20.5226224 2.23427908,20.4302731 L2.76215385,20.3243243 L2.66717552,20.1818584 C1.91484225,18.9932491 1.58547345,17.5710583 1.51488645,15.851544 L1.50366178,15.4785025 L1.5,15.09622 C1.5,13.3769284 3.06410946,12.1922676 5.24589968,12.1922676 C5.5019285,12.1922676 5.77940532,12.2193881 6.14319131,12.2744309 L6.91038151,12.4011601 L7.26084294,12.4638287 L7.61132937,12.5383738 L7.95349841,12.6229509 L8.24273741,12.7017778 L8.43258805,12.7486641 C8.45899721,12.7544444 8.48321197,12.7592814 8.50586513,12.7632855 L8.62810781,12.7781973 C8.64704597,12.7793112 8.66568821,12.7798129 8.68466737,12.7798129 L8.74528636,12.7764247 L8.91651314,12.7492284 L9.15883463,12.6946042 L9.82038353,12.5253338 C10.6680482,12.3212779 11.4726099,12.1922676 12.1244594,12.1922676 Z M19.747727,15.2524736 C19.5515699,15.2524736 19.3729298,15.2642331 19.1654953,15.2918979 L18.8269591,15.3458422 L17.8761445,15.5320452 L17.6976951,15.5615785 C17.4420878,15.6009646 17.2130957,15.6212302 16.9860595,15.6212302 C16.888217,15.6212302 16.7589007,15.6107915 16.610797,15.5927075 L16.2932986,15.5471734 L15.8650769,15.4691892 L15.864258,15.5251875 C15.8354314,16.924383 15.6499424,18.1228999 15.2083164,19.1992933 L15.1144615,19.4118919 L15.4198682,19.4388093 C16.5906437,19.5477679 17.8078332,19.7130414 19.0887459,19.9364139 L19.7172308,20.0497297 L19.79296,19.968816 C20.5049474,19.146974 20.8812713,18.0849433 20.9313992,16.7258372 L20.9371811,16.406898 C20.9371811,15.5525824 20.4315342,15.2524736 19.747727,15.2524736 Z M12.1244594,13.7599852 C11.7754606,13.7599852 11.3001582,13.8172354 10.755062,13.9246226 L10.4769593,13.9824614 L10.1882132,14.0484978 L9.5017381,14.2238516 L9.21906813,14.2877803 C9.0083714,14.3304065 8.85137408,14.3475305 8.68466737,14.3475305 C8.47628761,14.3475305 8.2803868,14.3215239 8.0505642,14.2691057 L7.87111192,14.2248335 L7.5538756,14.1393552 L7.25784021,14.0660645 L6.96462844,14.0032452 L6.00736109,13.8391939 C5.6749457,13.7866685 5.4316742,13.7599852 5.24589968,13.7599852 C3.90997566,13.7599852 3.06281891,14.3150891 3.06281891,15.09622 C3.06281891,17.2183153 3.40557804,18.7930796 4.38327105,19.897171 L4.47446154,19.9935135 L5.01513552,19.8976558 C7.2944724,19.5093093 9.36313295,19.3028316 11.3457109,19.2684997 L11.9380264,19.2633548 L12.4406149,19.2699106 L13.0329995,19.2904152 L13.4032308,19.3059459 L13.463114,19.2095487 C14.0385154,18.2115215 14.2725331,16.9796956 14.3030285,15.4552826 L14.3065158,15.0982743 C14.3065158,14.2554462 13.5516074,13.7599852 12.1244594,13.7599852 Z M16.8493078,5.01610015 C17.7979156,5.01610015 18.7520532,5.44860569 19.3479346,6.15077823 C19.7580378,6.6348519 19.9777078,7.21902264 19.9801683,7.83526348 L19.972907,8.04177155 L19.6609838,10.8698012 C19.4395479,12.3260584 18.3076161,13.3046376 16.8493078,13.3046376 C15.5363347,13.3046376 14.4776425,12.505798 14.128062,11.2707958 L14.0810001,11.0823195 L14.0443828,10.8793381 L13.7523008,8.23084834 C13.6322572,7.49587246 13.8496163,6.74489345 14.3547617,6.14977077 C14.9490613,5.44814097 15.9019963,5.01610015 16.8493078,5.01610015 Z M8.6830284,2 C9.85978566,2 11.0434709,2.53603905 11.7808174,3.40472313 C12.297403,4.0138704 12.5663908,4.75045438 12.5543236,5.52236599 L12.5422383,5.75490719 L12.1349398,9.21976743 C11.8643417,11.0028782 10.4741136,12.2021684 8.6830284,12.2021684 C7.04731458,12.2021684 5.73650025,11.197286 5.32441409,9.65099827 L5.27580764,9.44627631 L5.23706025,9.22809968 L4.85359592,5.9532277 C4.70600505,5.0482986 4.9700315,4.13294099 5.58939498,3.40260027 C6.32541112,2.53529024 7.50794089,2 8.6830284,2 Z M16.8493078,6.58381779 C16.3499376,6.58381779 15.8466696,6.80915367 15.5456399,7.16438392 C15.4016291,7.3346069 15.30887,7.52847273 15.2882047,7.73713129 L15.2846235,7.86403076 L15.3007202,8.01872984 L15.593267,10.6752871 C15.6913688,11.3211195 16.1795773,11.73692 16.8493078,11.73692 C17.4288651,11.73692 17.871282,11.428669 18.0460023,10.9278237 L18.0840298,10.7986669 L18.1110648,10.6658607 L18.4007432,8.0319893 C18.4568673,7.68376537 18.3582653,7.40312472 18.1572537,7.16665145 C17.8547891,6.80988281 17.350317,6.58381779 16.8493078,6.58381779 Z M8.6830284,3.56771765 C7.9555297,3.56771765 7.22265736,3.89657241 6.7801273,4.41841261 C6.54112152,4.7009733 6.3929706,5.02855347 6.37799257,5.39267685 L6.37985023,5.55094235 L6.78468293,9.01895545 C6.9349319,10.0028001 7.67410445,10.6344508 8.6830284,10.6344508 C9.58048575,10.6344508 10.2650328,10.1368412 10.5133834,9.33177277 L10.5571714,9.16671596 L10.5872592,9.01001548 L10.9679152,5.74614052 C11.052915,5.21965208 10.8994402,4.78505473 10.5914755,4.42096727 C10.1463032,3.89725526 9.41209025,3.56771765 8.6830284,3.56771765 Z" id="🌈-Color"></path>
        </g>
    </g>
</svg>