<?xml version="1.0" encoding="UTF-8"?>
<svg width="24px" height="24px" viewBox="0 0 24 24" version="1.1" xmlns="http://www.w3.org/2000/svg" xmlns:xlink="http://www.w3.org/1999/xlink">
    <title>C1131C7C-415E-424A-9D18-EF45B5CD5B33</title>
    <g id="Styles" stroke="none" stroke-width="1" fill="none" fill-rule="evenodd">
        <g id="Icons" transform="translate(-1262.000000, -414.000000)" fill="#444444">
            <g id="atoms/ico/24/add-24-copy-23" transform="translate(1262.000000, 414.000000)">
                <path d="M12.5,3 C14.337454,3 15.9207149,4.32551829 16.2863636,6.16997288 L16.2863636,6.16997288 L20.2272727,6.16997288 C20.6540382,6.16997288 21,6.5243401 21,6.96147423 C21,7.39860836 20.6540382,7.75297559 20.2272727,7.75297559 L20.2272727,7.75297559 L19.4545455,7.75297559 L19.4545455,19.2297453 C19.4545455,20.7597147 18.2436792,22 16.75,22 L16.75,22 L8.25,22 C6.75632079,22 5.54545455,20.7597147 5.54545455,19.2297453 L5.54545455,19.2297453 L5.54545455,7.75297559 L4.77272727,7.75297559 C4.34596178,7.75297559 4,7.39860836 4,6.96147423 C4,6.5243401 4.34596178,6.16997288 4.77272727,6.16997288 L4.77272727,6.16997288 L8.71363636,6.16997288 C9.07928509,4.32551829 10.662546,3 12.5,3 Z M17.9090909,7.75297559 L7.09090909,7.75297559 L7.09090909,19.2297453 C7.09090909,19.8854464 7.60985177,20.4169973 8.25,20.4169973 L8.25,20.4169973 L16.75,20.4169973 C17.3901482,20.4169973 17.9090909,19.8854464 17.9090909,19.2297453 L17.9090909,19.2297453 L17.9090909,7.75297559 Z M9.40909091,10.1274797 C9.8358564,10.1274797 10.1818182,10.4818469 10.1818182,10.918981 L10.1818182,10.918981 L10.1818182,17.2509919 C10.1818182,17.688126 9.8358564,18.0424932 9.40909091,18.0424932 C8.98232542,18.0424932 8.63636364,17.688126 8.63636364,17.2509919 L8.63636364,17.2509919 L8.63636364,10.918981 C8.63636364,10.4818469 8.98232542,10.1274797 9.40909091,10.1274797 Z M12.5,10.1274797 C12.9267655,10.1274797 13.2727273,10.4818469 13.2727273,10.918981 L13.2727273,10.918981 L13.2727273,17.2509919 C13.2727273,17.688126 12.9267655,18.0424932 12.5,18.0424932 C12.0732345,18.0424932 11.7272727,17.688126 11.7272727,17.2509919 L11.7272727,17.2509919 L11.7272727,10.918981 C11.7272727,10.4818469 12.0732345,10.1274797 12.5,10.1274797 Z M15.5909091,10.1274797 C16.0176746,10.1274797 16.3636364,10.4818469 16.3636364,10.918981 L16.3636364,10.918981 L16.3636364,17.2509919 C16.3636364,17.688126 16.0176746,18.0424932 15.5909091,18.0424932 C15.1641436,18.0424932 14.8181818,17.688126 14.8181818,17.2509919 L14.8181818,17.2509919 L14.8181818,10.918981 C14.8181818,10.4818469 15.1641436,10.1274797 15.5909091,10.1274797 Z M12.5,4.58697016 C11.5199848,4.58979136 10.6475782,5.22355199 10.3209091,6.16997288 L10.3209091,6.16997288 L14.6790909,6.16997288 C14.3524218,5.22355199 13.4800152,4.58979136 12.5,4.58697016 Z" id="Combined-Shape"></path>
            </g>
        </g>
    </g>
</svg>