<!-- Generated by IcoMoon.io -->
<svg version="1.1" xmlns="http://www.w3.org/2000/svg" width="32" height="32" viewBox="0 0 32 32">
<title>info</title>
<path d="M16 0.8c8.288 0 15.008 6.72 15.008 15.008s-6.72 15.008-15.008 15.008c-8.288 0-15.008-6.72-15.008-15.008s6.72-15.008 15.008-15.008zM16 2.816c-7.168 0-12.992 5.824-12.992 12.992s5.824 12.992 12.992 12.992c7.168 0 12.992-5.824 12.992-12.992s-5.824-12.992-12.992-12.992zM16 23.136c0.576 0 1.056 0.48 1.152 1.088v1.344c0 0.672-0.512 1.216-1.152 1.216-0.576 0-1.056-0.48-1.12-1.088l-0.032-0.128v-1.216c0-0.672 0.512-1.216 1.152-1.216zM17.088 5.888c2.4 0.416 4.384 2.336 4.832 4.704 0.416 2.432-0.704 4.832-2.816 6.080l-0.224 0.128c-0.96 0.512-1.6 1.344-1.76 2.272v0.192l-0.032 0.192v0.416c0 0.608-0.48 1.088-1.088 1.088-0.512 0-0.928-0.32-1.056-0.832l-0.032-0.128v-0.544c0-1.792 0.992-3.456 2.688-4.448l0.224-0.128c1.472-0.768 2.208-2.304 1.92-3.872-0.256-1.472-1.504-2.688-3.040-2.944-1.152-0.192-2.272 0.096-3.168 0.8-0.768 0.64-1.248 1.568-1.312 2.56l-0.032 0.224c0 0.64-0.48 1.12-1.088 1.12s-1.088-0.48-1.088-1.12c0-1.728 0.768-3.36 2.144-4.48 1.344-1.12 3.136-1.568 4.928-1.28z"></path>
</svg>
