<!-- Generated by IcoMoon.io -->
<svg version="1.1" xmlns="http://www.w3.org/2000/svg" width="32" height="32" viewBox="0 0 32 32">
<title>market</title>
<path d="M30.176 8.384h-18.976c0 0-0.032 0-0.064 0-0.384 0-0.672-0.288-0.672-0.672s0.288-0.672 0.672-0.672c0.032 0 0.064 0 0.064 0.032v0h19.904c0 0 0 0 0 0 0.384 0 0.672 0.288 0.672 0.64 0 0.064 0 0.128-0.032 0.192v0l-3.872 13.312c-0.32 1.024-1.28 1.76-2.4 1.792v0h-12.928c-1.088-0.064-2.048-0.736-2.432-1.728v0l-4.8-14.144c-0.576-1.344-1.664-2.4-3.008-2.944h-0.032l-1.536-0.48c-0.288-0.096-0.48-0.352-0.48-0.64 0-0.096 0-0.16 0.032-0.224v0c0.096-0.288 0.352-0.48 0.672-0.48 0.064 0 0.128 0 0.192 0.032v0l1.504 0.48c1.792 0.672 3.2 2.048 3.904 3.776l0.032 0.064 4.8 14.112c0.192 0.48 0.64 0.768 1.12 0.8v0h12.96c0.512 0 0.928-0.32 1.088-0.768v-0.032zM11.872 29.632c-1.44-0.032-2.592-1.216-2.592-2.656 0-1.472 1.184-2.656 2.656-2.656s2.656 1.184 2.656 2.656v0c0 1.472-1.216 2.656-2.688 2.656 0 0-0.032 0-0.032 0v0zM11.872 28.288c0.704-0.032 1.28-0.608 1.28-1.312 0-0.736-0.576-1.344-1.312-1.344s-1.312 0.608-1.312 1.344v0c0 0.736 0.608 1.312 1.344 1.312 0 0 0 0 0 0v0zM26.848 29.632c-1.44-0.032-2.592-1.216-2.592-2.656 0-1.472 1.184-2.656 2.656-2.656s2.656 1.184 2.656 2.656v0c-0.032 1.472-1.216 2.656-2.688 2.656-0.032 0-0.032 0-0.032 0v0zM26.848 28.288c0.704-0.032 1.28-0.608 1.28-1.312 0-0.736-0.608-1.344-1.312-1.344-0.736 0-1.344 0.608-1.344 1.344v0c0.032 0.736 0.608 1.312 1.344 1.312 0 0 0.032 0 0.032 0v0z"></path>
</svg>
