<!-- Generated by IcoMoon.io -->
<svg version="1.1" xmlns="http://www.w3.org/2000/svg" width="32" height="32" viewBox="0 0 32 32">
<title>tools</title>
<path d="M4.64 23.744c1.92 0 3.424 1.504 3.424 3.424s-1.504 3.424-3.424 3.424c-1.888 0-3.424-1.536-3.424-3.424s1.536-3.424 3.424-3.424zM16 23.744c1.888 0 3.424 1.504 3.424 3.424s-1.536 3.424-3.424 3.424c-1.888 0-3.424-1.536-3.424-3.424s1.536-3.424 3.424-3.424zM27.36 23.744c1.888 0 3.424 1.504 3.424 3.424s-1.536 3.424-3.424 3.424c-1.888 0-3.424-1.536-3.424-3.424s1.536-3.424 3.424-3.424zM27.36 12.384c1.888 0 3.424 1.536 3.424 3.424s-1.536 3.424-3.424 3.424c-1.888 0-3.424-1.536-3.424-3.424s1.536-3.424 3.424-3.424zM16 12.384c1.888 0 3.424 1.536 3.424 3.424s-1.536 3.424-3.424 3.424c-1.888 0-3.424-1.536-3.424-3.424s1.536-3.424 3.424-3.424zM4.64 12.384c1.92 0 3.424 1.536 3.424 3.424s-1.504 3.424-3.424 3.424c-1.888 0-3.424-1.536-3.424-3.424s1.536-3.424 3.424-3.424zM4.64 1.024c1.92 0 3.424 1.536 3.424 3.424s-1.504 3.424-3.424 3.424c-1.888 0-3.424-1.536-3.424-3.424s1.536-3.424 3.424-3.424zM16 1.024c1.888 0 3.424 1.536 3.424 3.424s-1.536 3.424-3.424 3.424c-1.888 0-3.424-1.536-3.424-3.424s1.536-3.424 3.424-3.424zM27.36 1.024c1.888 0 3.424 1.536 3.424 3.424s-1.536 3.424-3.424 3.424c-1.888 0-3.424-1.536-3.424-3.424s1.536-3.424 3.424-3.424z"></path>
</svg>
