<?xml version="1.0" encoding="UTF-8"?>
<svg width="24px" height="24px" viewBox="0 0 24 24" version="1.1" xmlns="http://www.w3.org/2000/svg" xmlns:xlink="http://www.w3.org/1999/xlink">
    <title>b. icons / a. lineal / 04. functional / FUNC003   | analysis</title>
    <g id="b.-icons-/-a.-lineal-/-04.-functional-/-FUNC003---|-analysis" stroke="none" stroke-width="1" fill="none" fill-rule="evenodd">
        <g id="Group" fill="#EC0000">
            <path d="M10.4862833,3 C13.6862955,3 16.3662882,5.3399658 16.8863077,8.3999633 L16.8863077,8.3999633 L20.1363077,5.1499633 C20.3263102,4.9500121 20.6462565,4.9500121 20.8362589,5.1499633 C21.0362711,5.3399657 21.0362711,5.6599731 20.8362589,5.8499755 L20.8362589,5.8499755 L16.9762735,9.7099609 C16.9463053,10.6900024 16.6963053,11.6199951 16.2663126,12.4500122 C16.2661295,12.4504395 16.2657633,12.4507447 16.2655802,12.4511719 L16.2655802,12.4511719 L21.3754435,17.5610352 C21.7533732,17.9384766 21.961381,18.4404297 21.961381,18.9750977 C21.961381,19.5092774 21.7533732,20.0112305 21.3754435,20.3891602 C20.9975138,20.7670899 20.4955607,20.9750977 19.961381,20.9750977 C19.426713,20.9750977 18.9247599,20.7670899 18.5473185,20.3891602 L18.5473185,20.3891602 L13.4374552,15.2792969 C13.4370279,15.27948 13.4367227,15.2797852 13.4362955,15.2799683 L13.1660415,15.4119145 C12.3456809,15.7893921 11.4402811,16 10.4862833,16 C8.11628819,16 6.03627109,14.7199707 4.90626629,12.8200073 L4.90626629,12.8200073 L3.85627849,13.8800049 C3.75630289,13.9799805 3.62629799,14.0199585 3.49629309,14.0199585 C3.37629789,14.0199585 3.24629309,13.9799805 3.14625639,13.8800049 C2.95625399,13.6900024 2.94630519,13.3699951 3.14625639,13.1699829 L3.14625639,13.1699829 L4.43629549,11.8699951 C4.14625639,11.1400146 3.98628329,10.3399658 3.98628329,9.5 C3.98628329,5.9199829 6.90626619,3 10.4862833,3 Z M15.7277994,13.3274535 C15.727189,13.3282469 15.7268839,13.3291624 15.7262735,13.3299559 C15.3362589,13.869995 14.8562784,14.3499755 14.3163004,14.7399901 C14.3155069,14.7406005 14.3145304,14.7409056 14.3137369,14.741516 L14.3137369,14.741516 L19.2543497,19.6821288 C19.6322794,20.0600585 20.2904825,20.0600585 20.6684122,19.6821288 C20.8573771,19.493164 20.961381,19.2421874 20.961381,18.9750976 C20.961381,18.7080078 20.857377,18.4570312 20.6684122,18.2680664 L20.6684122,18.2680664 Z M10.4862833,4 C7.45625399,4 4.98628329,6.4699707 4.98628329,9.5 C4.98628329,10.0499878 5.06630039,10.5799561 5.21626379,11.0799561 C5.32631009,11.4299927 5.46626379,11.7600098 5.63630769,12.0799561 C6.55629059,13.8099976 8.38630769,15 10.4862833,15 C13.4262857,15 15.8362589,12.6799927 15.9762735,9.7699585 L15.9762735,9.7699585 C15.9862833,9.6799927 15.9862833,9.5899658 15.9862833,9.5 C15.9862833,9.1599731 15.956254,8.8299561 15.8962564,8.5100098 L15.8962564,8.5100098 L15.8962564,8.5 C15.4262857,5.9500122 13.1762857,4 10.4862833,4 Z M13.1363077,7.1499633 C13.3062906,6.9799804 13.5663004,6.9500122 13.7663126,7.079956 L13.7663126,7.079956 L14.5763102,7.6199951 C14.7862711,8.0700073 14.916276,8.5700073 14.9662638,9.0899658 L14.9662638,9.0899658 L13.5462808,8.1400146 L9.83625889,11.8499755 C9.64625639,12.0499877 9.32631009,12.0499877 9.13630769,11.8499755 L9.13630769,11.8499755 L7.48628329,10.2099609 L6.37629789,11.3299561 C6.22627349,10.9899903 6.10627839,10.6199952 6.04628079,10.2399903 L6.04628079,10.2399903 L7.12629789,9.1499634 C7.22627349,9.0499878 7.35627839,9 7.48628329,9 C7.61628819,9 7.74629309,9.0499878 7.83625889,9.1499634 L7.83625889,9.1499634 L9.48628329,10.789978 Z" id="🌈-Color"></path>
        </g>
    </g>
</svg>