<?xml version="1.0" encoding="UTF-8"?>
<svg width="14px" height="18px" viewBox="0 0 14 18" version="1.1" xmlns="http://www.w3.org/2000/svg" xmlns:xlink="http://www.w3.org/1999/xlink">
    <title>atoms/ico/24/sent-24 copy</title>
    <g id="MVP-1" stroke="none" stroke-width="1" fill="none" fill-rule="evenodd">
        <g id="Employee_VDR-Contracts_02D" transform="translate(-1139.000000, -390.000000)" fill="#EC0000">
            <g id="Group-24" transform="translate(47.000000, 360.000000)">
                <g id="Group-8" transform="translate(1083.000000, 23.000000)">
                    <g id="atoms/ico/24/sent-24-copy" transform="translate(6.000000, 6.000000)">
                        <path d="M12.8571429,1.234375 C13.025365,1.234375 13.1866971,1.29933795 13.3057143,1.41490234 L13.3057143,1.41490234 L16.4803175,4.50083984 C16.5983465,4.61738857 16.6651653,4.77396094 16.6666667,4.9375 L16.6666667,4.9375 L16.6666667,5.86328125 C16.6666667,6.20414449 16.382403,6.48046875 16.031746,6.48046875 L16.031746,6.48046875 L13.1746032,6.48046875 C12.1231399,6.47927839 11.2710658,5.65100251 11.2698413,4.62890625 L11.2698413,4.62890625 L11.2698413,2.46875 L5.23809524,2.46875 C4.88743825,2.46875 4.6031746,2.74507426 4.6031746,3.0859375 L4.6031746,3.0859375 L4.6031746,16.6640625 C4.6031746,17.0049257 4.88743825,17.28125 5.23809524,17.28125 L5.23809524,17.28125 L15.2161458,17.28125 C15.5570091,17.28125 15.8333333,17.5575743 15.8333333,17.8984375 C15.8333333,18.2393007 15.5570091,18.515625 15.2161458,18.515625 L15.2161458,18.515625 L5.23809524,18.515625 C4.18663194,18.5144346 3.3345579,17.6861588 3.33333333,16.6640625 L3.33333333,16.6640625 L3.33333333,3.0859375 C3.3345579,2.06384124 4.18663194,1.23556536 5.23809524,1.234375 L5.23809524,1.234375 Z M16.4259867,8.0553798 C16.697125,8.32312883 16.6998725,8.7599833 16.4321234,9.03112156 L16.4259867,9.0372583 L13.9106667,11.5207083 L16.4259867,14.0044084 C16.697125,14.2721574 16.6998725,14.7090119 16.4321234,14.9801501 L16.4259867,14.9862869 C16.1504106,15.2584183 15.7072555,15.2584183 15.4316794,14.9862869 L12.9166667,12.5017083 L10.401654,14.9862869 C10.1260778,15.2584183 9.68292278,15.2584183 9.40734663,14.9862869 C9.13620837,14.7185378 9.13346086,14.2816834 9.40120989,14.0105451 L9.40734663,14.0044084 L11.9216667,11.5207083 L9.40734663,9.0372583 C9.13620837,8.76950927 9.13346086,8.3326548 9.40120989,8.06151654 L9.40734663,8.0553798 C9.68292278,7.78324835 10.1260778,7.78324835 10.401654,8.0553798 L12.9166667,10.5387083 L15.4316794,8.0553798 C15.7072555,7.78324835 16.1504106,7.78324835 16.4259867,8.0553798 Z M12.5942857,2.46875 L12.5396825,2.46875 L12.5396825,4.62890625 C12.5396825,4.96976949 12.8239462,5.24609375 13.1746032,5.24609375 L13.1746032,5.24609375 L15.3968254,5.24609375 L15.3968254,5.19301563 L12.5942857,2.46875 Z" id="Combined-Shape"></path>
                    </g>
                </g>
            </g>
        </g>
    </g>
</svg>