<?xml version="1.0" encoding="UTF-8"?>
<svg width="24px" height="24px" viewBox="0 0 24 24" version="1.1" xmlns="http://www.w3.org/2000/svg" xmlns:xlink="http://www.w3.org/1999/xlink">
    <title>b. icons / a. lineal / 04. functional / FUNC026   | duplicated receipt</title>
    <g id="b.-icons-/-a.-lineal-/-04.-functional-/-FUNC026---|-duplicated-receipt" stroke="none" stroke-width="1" fill="none" fill-rule="evenodd">
        <g id="Group" fill="#EC0000">
            <path d="M16.3041047,2.04940886 C16.6360012,1.89034325 17.0202,2.13225495 17.0202,2.5003 L17.0202,2.5003 L17.0192,5.37668464 L18.3456296,5.98764118 L20.3037047,5.04920886 C20.6356012,4.89014325 21.0198,5.13205495 21.0198,5.5001 L21.0198,21.5401 C21.0198,21.9048687 20.6418209,22.1468678 20.3105364,21.9942021 L18.3498,21.090637 L16.3890636,21.9942021 C16.2562658,22.0553993 16.1033342,22.0553993 15.9705364,21.9942021 L14.0098,21.090637 L12.0490636,21.9942021 C11.9162658,22.0553993 11.7633342,22.0553993 11.6305364,21.9942021 L9.6698,21.090637 L7.70906365,21.9942021 C7.37777914,22.1468678 6.9998,21.9048687 6.9998,21.5401 L6.9992,17.4796846 L3.7091528,18.9945452 C3.40337963,19.1352009 3.05803265,18.939818 3.00671165,18.6221428 L3.0002,18.5403 L3.0002,2.5003 C3.0002,2.13225495 3.38439878,1.89034325 3.71629529,2.04940886 L3.71629529,2.04940886 L5.67437042,2.98784118 L7.63093635,2.08619789 C7.76373425,2.0250007 7.91666575,2.0250007 8.04946365,2.08619789 L8.04946365,2.08619789 L10.0102,2.98976303 L11.9709364,2.08619789 C12.1037342,2.0250007 12.2566658,2.0250007 12.3894636,2.08619789 L12.3894636,2.08619789 L14.3460296,2.98784118 Z M16.1798,6.09063697 L14.2190636,6.99420211 C14.0862658,7.0553993 13.9333342,7.0553993 13.8005364,6.99420211 L11.8398,6.09063697 L9.87906365,6.99420211 C9.74386857,7.05650399 9.58794381,7.05532694 9.45370471,6.99099114 L7.9998,6.29418889 L7.9998,20.7591483 L9.46053635,20.0859979 C9.59333425,20.0248007 9.74626575,20.0248007 9.87906365,20.0859979 L11.8398,20.989563 L13.8005364,20.0859979 C13.9333342,20.0248007 14.0862658,20.0248007 14.2190636,20.0859979 L16.1798,20.989563 L18.1405364,20.0859979 C18.2733342,20.0248007 18.4262658,20.0248007 18.5590636,20.0859979 L20.0198,20.7591483 L20.0198,6.29418889 L18.5658953,6.99099114 C18.4316562,7.05532694 18.2757314,7.05650399 18.1405364,6.99420211 L16.1798,6.09063697 Z M12.1802,3.09083697 L10.2194636,3.99440211 C10.0866658,4.0555993 9.93373425,4.0555993 9.80093635,3.99440211 L9.80093635,3.99440211 L7.8402,3.09083697 L5.87946365,3.99440211 C5.74426857,4.05670399 5.58834381,4.05552694 5.45410471,3.99119114 L5.45410471,3.99119114 L4.0002,3.29438889 L4.0002,17.7599365 L6.9992,16.3796846 L6.9998,5.5001 C6.9998,5.13205495 7.38399878,4.89014325 7.71589529,5.04920886 L9.67397042,5.98764118 L11.6305364,5.08599789 C11.7633342,5.0248007 11.9162658,5.0248007 12.0490636,5.08599789 L14.0098,5.98956303 L15.9705364,5.08599789 L16.0192,5.06768464 L16.0202,3.29438889 L14.5662953,3.99119114 C14.4320562,4.05552694 14.2761314,4.05670399 14.1409364,3.99440211 L14.1409364,3.99440211 L12.1802,3.09083697 Z M17.51,15.0001 C17.7861424,15.0001 18.01,15.2239576 18.01,15.5001 C18.01,15.7762424 17.7861424,16.0001 17.51,16.0001 L17.51,16.0001 L10.51,16.0001 C10.2338576,16.0001 10.01,15.7762424 10.01,15.5001 C10.01,15.2239576 10.2338576,15.0001 10.51,15.0001 L10.51,15.0001 Z M17.51,12.0001 C17.7861424,12.0001 18.01,12.2239576 18.01,12.5001 C18.01,12.7762424 17.7861424,13.0001 17.51,13.0001 L17.51,13.0001 L10.51,13.0001 C10.2338576,13.0001 10.01,12.7762424 10.01,12.5001 C10.01,12.2239576 10.2338576,12.0001 10.51,12.0001 L10.51,12.0001 Z M17.51,9.0001 C17.7861424,9.0001 18.01,9.22395763 18.01,9.5001 C18.01,9.77624237 17.7861424,10.0001 17.51,10.0001 L17.51,10.0001 L10.51,10.0001 C10.2338576,10.0001 10.01,9.77624237 10.01,9.5001 C10.01,9.22395763 10.2338576,9.0001 10.51,9.0001 L10.51,9.0001 Z" id="🌈-Color"></path>
        </g>
    </g>
</svg>