<?xml version="1.0" encoding="UTF-8"?>
<svg width="24px" height="24px" viewBox="0 0 24 24" version="1.1" xmlns="http://www.w3.org/2000/svg" xmlns:xlink="http://www.w3.org/1999/xlink">
    <title>5F83EAD3-6D4D-46CA-A7A4-85452265881A</title>
    <g id="Symbols" stroke="none" stroke-width="1" fill="none" fill-rule="evenodd">
        <g id="Atoms/ico/normal-size/sign-out-24" fill="#EC0000">
            <path d="M8.5127,1.6496 C8.98214204,1.6496 9.3627,2.03015796 9.3627,2.4996 C9.3627,2.83317906 9.16908361,3.1274962 8.86415471,3.26895489 L8.75850196,3.31029054 L8.63293768,3.34022209 L8.5127,3.3496 L5.9727,3.3496 C4.70999308,3.3496 3.60554783,4.60754266 3.38863178,6.28608244 L3.36690867,6.48947249 L3.35411784,6.69082627 L3.3497,6.8996 L3.3497,17.0996 C3.3497,18.8434685 4.30295897,20.317494 5.53327377,20.5992295 L5.68219813,20.6272557 L5.82487649,20.6431265 L5.9727,20.6486 L8.5127,20.6486 C8.98214204,20.6486 9.3627,21.029158 9.3627,21.4986 C9.3627,21.8321791 9.16908361,22.1264962 8.86415471,22.2679549 L8.75850196,22.3092905 L8.63293768,22.3392221 L8.5127,22.3486 L5.9727,22.3486 C3.78180889,22.3486 1.97567224,20.3914452 1.6889423,17.8081695 L1.6670932,17.5716384 L1.65401511,17.3348606 L1.6497,17.0996 L1.6497,6.8996 C1.6497,4.27050781 3.23540791,2.06302079 5.36689844,1.70091393 L5.56829292,1.67241625 L5.77340013,1.65512709 L5.9727,1.6496 L8.5127,1.6496 Z M17.1919592,7.67005924 C17.4249232,7.43709527 17.764354,7.36476031 18.0725931,7.47203876 L18.1924365,7.52404699 L18.3023887,7.59166954 L18.3940503,7.67006881 L22.1311029,11.4089747 L22.2022013,11.4997233 L22.2775348,11.6348177 L22.2917104,11.668978 L22.3147077,11.7363299 L22.3343754,11.817906 L22.3485342,11.9318935 L22.3485342,12.024462 L22.3337839,12.1422703 L22.2995249,12.2665754 L22.2651265,12.3482662 L22.2256251,12.4201583 L22.1986852,12.4611402 L22.1167826,12.5626717 L18.3940408,16.2861408 C18.0620951,16.6180864 17.5239049,16.6180864 17.1919592,16.2861408 C16.9589953,16.0531768 16.8866603,15.713746 16.9962722,15.4013036 L17.045947,15.2856635 L17.1135681,15.175713 L17.1919022,15.0841163 L19.447,12.826 L9.021,12.8281 C8.76636688,12.8281 8.53278939,12.714998 8.37293348,12.5223298 L8.30909091,12.4349841 L8.25519675,12.3384822 L8.21030946,12.223902 L8.18037791,12.0983377 L8.171,11.9781 C8.171,11.6445209 8.36461639,11.3502038 8.66954529,11.2087451 L8.77519804,11.1674095 L8.90076153,11.137478 L9.0209786,11.1281 L19.447,11.127 L17.1919592,8.87214076 C17.0183369,8.69851842 16.9329233,8.46437548 16.9478474,8.22436548 L16.9637271,8.10412458 L16.9966667,7.984424 L17.045947,7.87166345 L17.1135695,7.7617113 L17.1919592,7.67005924 Z" id="🌈-Color"></path>
        </g>
    </g>
</svg>