<?xml version="1.0" encoding="UTF-8"?>
<svg width="24px" height="24px" viewBox="0 0 24 24" version="1.1" xmlns="http://www.w3.org/2000/svg" xmlns:xlink="http://www.w3.org/1999/xlink">
    <title>atoms/ico/24/inbox-24</title>
    <g id="atoms/ico/24/inbox-24" stroke="none" stroke-width="1" fill="none" fill-rule="evenodd">
        <path d="M22.9447381,12.828 L18.7542619,4.29466667 C18.6652143,4.11386667 18.4842381,4 18.2857143,4 L5.71428571,4 C5.5157619,4 5.33452381,4.11413333 5.2457381,4.29466667 L1.0552619,12.828 C1.01885714,12.9021333 1,12.9837333 1,13.0666667 L1,18.4 C1,19.2824 1.70478571,20 2.57142857,20 L21.4285714,20 C22.2952143,20 23,19.2824 23,18.4 L23,13.0666667 C23,12.9837333 22.9811429,12.9021333 22.9447381,12.828 Z M6.038,5.06666667 L17.9617381,5.06666667 L21.6284048,12.5333333 L17.2380952,12.5333333 C17.0395714,12.5333333 16.8585952,12.6474667 16.7695476,12.828 L15.8667619,14.6666667 L8.1332381,14.6666667 L7.23045238,12.828 C7.14166667,12.6474667 6.96042857,12.5333333 6.76190476,12.5333333 L2.37133333,12.5333333 L6.038,5.06666667 Z M21.952381,18.4 C21.952381,18.6944 21.7177143,18.9333333 21.4285714,18.9333333 L2.57142857,18.9333333 C2.28228571,18.9333333 2.04761905,18.6944 2.04761905,18.4 L2.04761905,13.6 L6.43819048,13.6 L7.34097619,15.4386667 C7.4297619,15.6192 7.611,15.7333333 7.80952381,15.7333333 L16.1904762,15.7333333 C16.389,15.7333333 16.5699762,15.6192 16.6590238,15.4386667 L17.5618095,13.6 L21.952381,13.6 L21.952381,18.4 Z M17.1677343,9.7 L6.83226571,9.7 C6.46855637,9.7 6.13651014,9.9068642 5.97619048,10.2333333 C5.88607627,10.4168386 5.9617847,10.638651 6.14528999,10.7287652 C6.19606808,10.7537009 6.25188585,10.7666667 6.30845619,10.7666667 L17.6915438,10.7666667 C17.8959815,10.7666667 18.061711,10.6009372 18.061711,10.3964995 C18.061711,10.3399292 18.0487452,10.2841114 18.0238095,10.2333333 C17.8634899,9.9068642 17.5314436,9.7 17.1677343,9.7 Z M16.1201152,7 L7.87988476,7 C7.51617541,7 7.18412919,7.2068642 7.02380952,7.53333333 C6.93369532,7.71683862 7.00940375,7.93865104 7.19290904,8.02876524 C7.24368713,8.05370091 7.2995049,8.06666667 7.35607523,8.06666667 L16.6439248,8.06666667 C16.8483624,8.06666667 17.0140919,7.90093719 17.0140919,7.69649953 C17.0140919,7.6399292 17.0011261,7.58411143 16.9761905,7.53333333 C16.8158708,7.2068642 16.4838246,7 16.1201152,7 Z" id="Shape" fill="#7F7F7F"></path>
    </g>
</svg>