<svg width="21" height="20" viewBox="0 0 21 20" fill="none" xmlns="http://www.w3.org/2000/svg"><path d="M3.500 0.036 C 1.676 0.254,0.245 1.705,0.033 3.553 C 0.008 3.762,0.000 5.994,0.008 10.220 C 0.020 16.560,0.020 16.573,0.095 16.872 C 0.395 18.080,1.144 19.032,2.223 19.574 C 2.545 19.735,3.064 19.899,3.413 19.949 C 3.616 19.978,5.467 19.986,10.168 19.978 L 16.643 19.968 16.975 19.875 C 17.725 19.665,18.296 19.337,18.817 18.817 C 19.343 18.292,19.670 17.722,19.874 16.978 L 19.966 16.643 19.978 14.508 C 19.989 12.535,19.985 12.364,19.929 12.258 C 19.802 12.018,19.462 11.929,19.225 12.074 C 19.006 12.208,19.012 12.141,18.996 14.386 C 18.982 16.351,18.978 16.444,18.904 16.730 C 18.708 17.491,18.197 18.174,17.520 18.581 C 17.220 18.761,16.696 18.928,16.292 18.971 C 16.054 18.996,13.970 19.005,9.748 18.997 L 3.553 18.987 3.273 18.908 C 2.683 18.742,2.222 18.465,1.818 18.034 C 1.414 17.603,1.174 17.134,1.064 16.561 C 0.991 16.177,0.991 3.807,1.064 3.424 C 1.277 2.318,2.094 1.429,3.204 1.099 C 3.390 1.044,3.641 1.035,5.536 1.017 C 7.611 0.998,7.662 0.996,7.757 0.925 C 7.930 0.796,7.998 0.673,7.995 0.496 C 7.992 0.294,7.909 0.159,7.731 0.068 C 7.604 0.003,7.515 0.000,5.663 0.005 C 4.598 0.007,3.625 0.021,3.500 0.036 M14.281 0.061 C 13.911 0.247,13.910 0.750,14.279 0.936 L 14.435 1.015 16.361 1.015 L 18.287 1.015 13.923 5.381 C 10.928 8.378,9.552 9.778,9.536 9.844 C 9.471 10.112,9.669 10.419,9.929 10.454 C 10.010 10.465,10.120 10.463,10.174 10.450 C 10.243 10.433,11.589 9.110,14.639 6.062 L 19.005 1.698 19.005 3.675 C 19.005 5.575,19.008 5.657,19.074 5.765 C 19.264 6.076,19.772 6.056,19.927 5.730 C 19.980 5.618,19.985 5.361,19.985 2.977 C 19.985 0.074,19.995 0.209,19.765 0.069 C 19.656 0.002,19.569 0.000,17.027 0.000 C 14.598 0.000,14.393 0.005,14.281 0.061 " fill="#EC0000" stroke="none" fill-rule="evenodd"></path></svg>