<!-- Generated by IcoMoon.io -->
<svg version="1.1" xmlns="http://www.w3.org/2000/svg" width="32" height="32" viewBox="0 0 32 32">
<title>eye-show</title>
<path d="M16 4.8c6.080 0 11.616 3.808 14.848 10.144 0.192 0.448 0.192 0.96 0 1.376-3.232 6.368-8.768 10.144-14.848 10.144s-11.616-3.776-14.848-10.144c-0.192-0.416-0.192-0.928 0-1.376 3.232-6.336 8.8-10.144 14.848-10.144zM16 7.712c-4.8 0-9.248 2.944-12 7.936 2.752 4.96 7.2 7.904 12 7.904s9.248-2.944 12.032-7.904c-2.784-4.992-7.232-7.936-12.032-7.936zM16 10.048c2.944 0 5.344 2.528 5.344 5.6s-2.4 5.568-5.344 5.568c-2.944 0-5.344-2.496-5.344-5.568s2.4-5.6 5.344-5.6zM16 12.96c-1.408 0-2.56 1.216-2.56 2.688s1.152 2.656 2.56 2.656c1.408 0 2.56-1.184 2.56-2.656s-1.152-2.688-2.56-2.688z"></path>
</svg>
