<?xml version="1.0" encoding="UTF-8"?>
<svg width="24px" height="24px" viewBox="0 0 24 24" version="1.1" xmlns="http://www.w3.org/2000/svg" xmlns:xlink="http://www.w3.org/1999/xlink">
    <title>atoms/ico/24/apps-24</title>
    <g id="atoms/ico/24/apps-24" stroke="none" stroke-width="1" fill="none" fill-rule="evenodd">
        <path d="M5.7037037,7.90740741 C4.48663177,7.90740741 3.5,6.92077564 3.5,5.7037037 C3.5,4.48663177 4.48663177,3.5 5.7037037,3.5 C6.92077564,3.5 7.90740741,4.48663177 7.90740741,5.7037037 C7.90740741,6.92077564 6.92077564,7.90740741 5.7037037,7.90740741 Z M12,7.90740741 C10.7829281,7.90740741 9.7962963,6.92077564 9.7962963,5.7037037 C9.7962963,4.48663177 10.7829281,3.5 12,3.5 C13.2170719,3.5 14.2037037,4.48663177 14.2037037,5.7037037 C14.2037037,6.92077564 13.2170719,7.90740741 12,7.90740741 Z M18.2962963,7.90740741 C17.0792244,7.90740741 16.0925926,6.92077564 16.0925926,5.7037037 C16.0925926,4.48663177 17.0792244,3.5 18.2962963,3.5 C19.5133682,3.5 20.5,4.48663177 20.5,5.7037037 C20.5,6.92077564 19.5133682,7.90740741 18.2962963,7.90740741 Z M18.2962963,14.2037037 C17.0792244,14.2037037 16.0925926,13.2170719 16.0925926,12 C16.0925926,10.7829281 17.0792244,9.7962963 18.2962963,9.7962963 C19.5133682,9.7962963 20.5,10.7829281 20.5,12 C20.5,13.2170719 19.5133682,14.2037037 18.2962963,14.2037037 Z M12,14.2037037 C10.7829281,14.2037037 9.7962963,13.2170719 9.7962963,12 C9.7962963,10.7829281 10.7829281,9.7962963 12,9.7962963 C13.2170719,9.7962963 14.2037037,10.7829281 14.2037037,12 C14.2037037,13.2170719 13.2170719,14.2037037 12,14.2037037 Z M5.7037037,14.2037037 C4.48663177,14.2037037 3.5,13.2170719 3.5,12 C3.5,10.7829281 4.48663177,9.7962963 5.7037037,9.7962963 C6.92077564,9.7962963 7.90740741,10.7829281 7.90740741,12 C7.90740741,13.2170719 6.92077564,14.2037037 5.7037037,14.2037037 Z M5.7037037,20.5 C4.48663177,20.5 3.5,19.5133682 3.5,18.2962963 C3.5,17.0792244 4.48663177,16.0925926 5.7037037,16.0925926 C6.92077564,16.0925926 7.90740741,17.0792244 7.90740741,18.2962963 C7.90740741,19.5133682 6.92077564,20.5 5.7037037,20.5 Z M12,20.5 C10.7829281,20.5 9.7962963,19.5133682 9.7962963,18.2962963 C9.7962963,17.0792244 10.7829281,16.0925926 12,16.0925926 C13.2170719,16.0925926 14.2037037,17.0792244 14.2037037,18.2962963 C14.2037037,19.5133682 13.2170719,20.5 12,20.5 Z M18.2962963,20.5 C17.0792244,20.5 16.0925926,19.5133682 16.0925926,18.2962963 C16.0925926,17.0792244 17.0792244,16.0925926 18.2962963,16.0925926 C19.5133682,16.0925926 20.5,17.0792244 20.5,18.2962963 C20.5,19.5133682 19.5133682,20.5 18.2962963,20.5 Z" id="Shape" fill="#7F7F7F"></path>
    </g>
</svg>