<?xml version="1.0" encoding="UTF-8"?>
<svg width="16px" height="20px" viewBox="0 0 16 20" version="1.1" xmlns="http://www.w3.org/2000/svg" xmlns:xlink="http://www.w3.org/1999/xlink">
    <title>Atoms/ico/normal size/lsecurity</title>
    <g id="Finance" stroke="none" stroke-width="1" fill="none" fill-rule="evenodd">
        <g id="Group" transform="translate(-4.000000, -2.000000)" fill="#EC0000">
            <path d="M12.0001154,2 L12.0646039,2.04564029 C13.9406356,3.36209501 16.0386022,4.05941092 19.0596501,4.07508901 L19.4289658,4.07580692 C19.737844,4.08902935 19.9858764,4.33764912 19.9994176,4.64736077 L20,4.67405304 L20,13.0814835 C20,17.6313731 16.509969,21.3911154 12.1329071,21.9830351 L12,22 C7.5609441,21.4669892 4,17.6773316 4,13.0814835 L4,4.67405304 C4,4.35204812 4.25333456,4.08940713 4.57104241,4.07580692 L4.83582089,4.07535937 C7.94816594,4.07535937 10.0860534,3.36126987 12.0001154,2 Z M12.000125,3.20404238 L11.9735512,3.22098507 C10.0374335,4.43889751 7.90810324,5.02848576 5.17221071,5.07266932 L4.99987501,5.07466738 L4.99987501,13.0814835 C4.99987501,17.0233425 7.99112216,20.3897264 11.8811712,20.974943 L12,20.9919174 L12.1172222,20.9751601 C15.9735717,20.3953359 18.9395623,17.0877287 18.9990878,13.2006543 L19,13.0814835 L19,5.07466738 L18.9452466,5.07422373 C16.1896706,5.04549295 14.0472761,4.47165548 12.1021398,3.26797976 L12.000125,3.20404238 Z M12,6.49991738 C13.3807119,6.49991738 14.5,7.61920551 14.5,8.99991738 L14.5,11.4999174 L14.875,11.4999174 C15.4272848,11.4999174 15.875,11.9476326 15.875,12.4999174 L15.875,15.4999174 C15.875,16.6044869 14.9795695,17.4999174 13.875,17.4999174 L10.125,17.4999174 C9.02043051,17.4999174 8.12500001,16.6044869 8.12500001,15.4999174 L8.12500001,12.4999174 C8.12500001,11.9476326 8.57271526,11.4999174 9.12500001,11.4999174 L9.50000001,11.4999174 L9.50000001,8.99991738 C9.50000001,7.61920551 10.6192881,6.49991738 12,6.49991738 Z M14.625,12.4999174 L9.37500001,12.4999174 C9.25665328,12.4999174 9.15751319,12.5821508 9.13160269,12.6925947 L9.12500001,12.7499174 L9.12500001,15.4999174 C9.12500001,16.0127532 9.5110402,16.4354245 10.0083789,16.4931897 L10.125,16.4999174 L13.875,16.4999174 C14.3878358,16.4999174 14.8105072,16.1138772 14.8682723,15.6165385 L14.875,15.4999174 L14.875,12.7499174 C14.875,12.6118462 14.7630712,12.4999174 14.625,12.4999174 Z M12,13.4999174 C12.2761424,13.4999174 12.5,13.723775 12.5,13.9999174 L12.5,14.9999174 C12.5,15.2760598 12.2761424,15.4999174 12,15.4999174 C11.7238576,15.4999174 11.5,15.2760598 11.5,14.9999174 L11.5,13.9999174 C11.5,13.723775 11.7238576,13.4999174 12,13.4999174 Z M12,7.49991738 C11.2203039,7.49991738 10.5795513,8.09480547 10.5068666,8.85545737 L10.5,8.99991738 L10.5,11.4999174 L13.5,11.4999174 L13.5,8.99991738 C13.5,8.17149026 12.8284271,7.49991738 12,7.49991738 Z" id="🌈-Color"></path>
        </g>
    </g>
</svg>