<?xml version="1.0" encoding="UTF-8" standalone="no"?>
<!-- Created with Inkscape (http://www.inkscape.org/) -->

<svg
   xmlns:dc="http://purl.org/dc/elements/1.1/"
   xmlns:cc="http://creativecommons.org/ns#"
   xmlns:rdf="http://www.w3.org/1999/02/22-rdf-syntax-ns#"
   xmlns:svg="http://www.w3.org/2000/svg"
   xmlns="http://www.w3.org/2000/svg"
   xmlns:sodipodi="http://sodipodi.sourceforge.net/DTD/sodipodi-0.dtd"
   xmlns:inkscape="http://www.inkscape.org/namespaces/inkscape"
   width="32"
   height="32"
   viewBox="0 0 8.4666659 8.4666659"
   version="1.1"
   id="svg8"
   inkscape:version="0.92.3 (2405546, 2018-03-11)"
   sodipodi:docname="i-tradeportal.svg">
  <defs
     id="defs2" />
  <sodipodi:namedview
     id="base"
     pagecolor="#ffffff"
     bordercolor="#666666"
     borderopacity="1.0"
     inkscape:pageopacity="0.0"
     inkscape:pageshadow="2"
     inkscape:zoom="2.8284271"
     inkscape:cx="78.756146"
     inkscape:cy="35.804861"
     inkscape:document-units="mm"
     inkscape:current-layer="layer1"
     showgrid="false"
     units="px"
     inkscape:window-width="1366"
     inkscape:window-height="705"
     inkscape:window-x="-8"
     inkscape:window-y="-8"
     inkscape:window-maximized="1" />
  <metadata
     id="metadata5">
    <rdf:RDF>
      <cc:Work
         rdf:about="">
        <dc:format>image/svg+xml</dc:format>
        <dc:type
           rdf:resource="http://purl.org/dc/dcmitype/StillImage" />
        <dc:title></dc:title>
      </cc:Work>
    </rdf:RDF>
  </metadata>
  <g
     inkscape:label="Capa 1"
     inkscape:groupmode="layer"
     id="layer1"
     transform="translate(0,-288.53334)">
    <g
       transform="matrix(0.41606096,0,0,0.41606096,0.26334305,173.2909)"
       id="layer1-6"
       inkscape:label="Capa 1">
      <g
         transform="matrix(0.47875361,0,0,0.47875361,0.90490475,278.89902)"
         id="Capa_2"
         data-name="Capa 2">
        <g
           id="Capa_1-2"
           data-name="Capa 1">
          <path
             inkscape:connector-curvature="0"
             d="m 35.13,18.75 a 5.29,5.29 0 0 0 0.08,-1.08 16.17,16.17 0 0 0 -2.32,-8.39 c 1.41,-3.24 1.49,-6 0,-7.65 C 31.06,-0.53 27.15,-0.53 22.17,1.55 A 15.11,15.11 0 0 0 18.84,1.22 v 0 a 14,14 0 0 0 -3.32,0.33 c -5,-2.08 -8.9,-2.08 -10.73,0.08 -1.49,1.66 -1.41,4.49 0,7.65 a 16.17,16.17 0 0 0 -2.32,8.39 5.29,5.29 0 0 0 0.08,1.08 c -2.74,4.57 -3.32,8.48 -1.5,10.64 a 5.39,5.39 0 0 0 4.24,1.66 12.18,12.18 0 0 0 3.33,-0.5 16.39,16.39 0 0 0 10.22,3.58 H 19 a 16.41,16.41 0 0 0 10.22,-3.58 12.12,12.12 0 0 0 3.32,0.5 5.38,5.38 0 0 0 4.24,-1.66 c 1.68,-2.16 1.09,-6.07 -1.65,-10.64 z M 17.5,32.08 a 7.66,7.66 0 0 1 -4,-3.6 39.22,39.22 0 0 0 5.24,-3.16 29.13,29.13 0 0 0 5.26,3.16 7.49,7.49 0 0 1 -4,3.59 1.3,1.3 0 0 1 -0.44,0.06 H 17.85 A 1,1 0 0 1 17.5,32.08 Z M 14.1,5.87 C 14.19,5.7 14.72,5.13 14.77,5.04 l 1,-0.91 A 7,7 0 0 1 18.84,3 4.79,4.79 0 0 1 21.33,3.75 c 0,0 0.92,0.58 1,0.67 0.08,0.09 1.17,1.37 1.25,1.58 a 28.58,28.58 0 0 1 2,4.16 H 12 a 15.37,15.37 0 0 1 2.1,-4.29 z m 19.45,11.72 a 14.63,14.63 0 0 1 -1.33,6 h -4.49 a 27.18,27.18 0 0 0 0.67,-6 v -1.08 a 33.39,33.39 0 0 0 3.41,-4.91 h 0.41 a 14.68,14.68 0 0 1 1.33,5.99 z m -5.82,-6 h 2.16 c -0.49,0.84 -1.08,1.67 -1.66,2.5 A 25.12,25.12 0 0 0 27.73,11.6 Z M 25.32,4.46 a 13.12,13.12 0 0 1 3.74,2.66 l 0.09,0.08 0.58,0.58 c 0.5,0.58 0.91,1.17 1.33,1.75 A 1.83,1.83 0 0 1 30.81,9.94 H 27.24 A 15.64,15.64 0 0 0 23.91,3.79 c 0.33,0.21 1.25,0.58 1.41,0.67 z m -14.46,14 c 1.17,1.25 2.5,2.5 3.91,3.74 0.58,0.5 1.16,1 1.74,1.42 h -4.9 A 24.38,24.38 0 0 1 10.86,18.5 Z M 12,25.32 h 3.74 c -1.08,0.66 -2,1.25 -3,1.74 z M 15.93,21 a 40.1,40.1 0 0 1 -5,-4.91 25.16,25.16 0 0 1 0.67,-4.4 h 14.3 a 24.26,24.26 0 0 1 0.66,4.4 38.76,38.76 0 0 1 -5,4.91 22.9,22.9 0 0 1 -2.82,2.24 A 32.58,32.58 0 0 1 15.93,21 Z m 10,2.66 H 21 c 0.58,-0.42 1.17,-0.92 1.75,-1.42 a 54,54 0 0 0 3.9,-3.74 25.06,25.06 0 0 1 -0.74,5.16 z m -0.42,1.66 a 16.3,16.3 0 0 1 -0.75,1.74 c -1,-0.49 -1.91,-1.08 -3,-1.74 z M 13.6,3.79 A 15.63,15.63 0 0 0 10.28,9.94 H 6.71 A 1.53,1.53 0 0 1 6.46,9.53 9.25,9.25 0 0 1 7.79,7.78 4,4 0 0 1 8.37,7.2 L 8.45,7.12 A 13.26,13.26 0 0 1 12.19,4.46 C 12.27,4.37 13.27,4 13.6,3.79 Z M 9.37,14.1 A 18.42,18.42 0 0 1 7.7,11.6 h 2.16 a 14,14 0 0 0 -0.49,2.5 z m -0.25,2.41 v 1.08 a 27.8,27.8 0 0 0 0.66,6 H 5.29 a 14.63,14.63 0 0 1 -1.33,-6 14.68,14.68 0 0 1 1.33,-6 h 0.42 a 39.79,39.79 0 0 0 3.41,4.92 z m -2.83,8.81 h 3.91 c 0.25,0.83 0.58,1.66 0.91,2.49 -0.58,0.25 -1.16,0.5 -1.66,0.67 -0.17,0.08 -0.33,0.08 -0.42,0.16 A 14.78,14.78 0 0 1 6.29,25.32 Z m 4.24,4.49 a 9.32,9.32 0 0 1 1.41,-0.58 25.26,25.26 0 0 0 1.58,2.16 13.13,13.13 0 0 1 -2.99,-1.58 z M 24,31.39 a 10,10 0 0 0 1.58,-2.16 12.11,12.11 0 0 0 1.42,0.58 13.41,13.41 0 0 1 -3,1.58 z m 4.08,-2.91 c -0.5,-0.17 -1.08,-0.42 -1.67,-0.67 0.34,-0.83 0.67,-1.66 0.92,-2.49 h 3.9 a 16.89,16.89 0 0 1 -2.65,3.32 C 28.4,28.56 28.23,28.56 28.07,28.48 Z M 31.64,2.71 c 0.83,1 0.91,2.74 0.17,5 A 16.61,16.61 0 0 0 24.74,2.39 C 28,1.3 30.56,1.47 31.64,2.71 Z m -25.76,0 C 7,1.47 9.53,1.3 12.77,2.38 A 16.64,16.64 0 0 0 5.71,7.7 C 5,5.45 5,3.71 5.88,2.71 Z M 2.13,28.23 C 1.05,26.9 1.3,24.49 2.72,21.41 A 15.82,15.82 0 0 0 7,29.06 c -2.29,0.5 -4,0.17 -4.87,-0.83 z m 33.25,0 c -0.83,1 -2.58,1.33 -4.82,0.83 a 15.9,15.9 0 0 0 4.24,-7.65 c 1.41,3.08 1.66,5.49 0.58,6.82 z"
             style="fill:#ec0000"
             id="path12" />
        </g>
      </g>
    </g>
  </g>
</svg>
