<?xml version="1.0" encoding="UTF-8"?>
<svg width="25px" height="24px" viewBox="0 0 25 24" version="1.1" xmlns="http://www.w3.org/2000/svg" xmlns:xlink="http://www.w3.org/1999/xlink">
    <title>0DAAB4FE-4A28-4205-BF8B-3723F4634641</title>
    <g id="Styles" stroke="none" stroke-width="1" fill="none" fill-rule="evenodd">
        <g id="Icons" transform="translate(-703.000000, -414.000000)" fill="#444444">
            <g id="atoms/ico/24/add-24-copy-8" transform="translate(703.388889, 414.000000)">
                <path d="M15.1685604,2.82617304 L4.22428131,14.0180196 C2.574942,15.7058781 2.26338069,18.321399 3.52478215,20.1819491 C5.19697106,22.6492566 8.61386232,22.9580924 10.6787168,20.8477402 L19.0102536,12.327738 C19.299853,12.0315876 19.2945424,11.5567435 18.998392,11.2671441 C18.7022417,10.9775447 18.2273976,10.9828553 17.9377982,11.2790057 L9.60641178,19.7988542 C8.20469813,21.2314536 5.90614424,21.0219806 4.76640876,19.3403059 C3.91225131,18.0804352 4.13908949,16.2514353 5.29698728,15.0664956 L16.2412469,3.87466881 C17.0518664,3.04498099 18.3561124,3.04161168 19.1619701,3.86569845 C19.964097,4.68669672 19.9430718,6.00402531 19.1103132,6.85562152 L8.97970595,17.2153905 C8.61742411,17.5858674 8.04008973,17.5877752 7.68179029,17.2213707 C7.31398434,16.8452448 7.31556577,16.2256048 7.68666358,15.8461125 L15.068732,8.29705624 C15.3583314,8.00090587 15.3530208,7.52606183 15.0568704,7.2364624 C14.7607201,6.94686297 14.285876,6.95217357 13.9962766,7.24832395 L6.61420819,14.7973802 C5.67355927,15.7593072 5.67095497,17.3104963 6.60933489,18.270103 C7.55671012,19.2389086 9.10218366,19.2355897 10.0521613,18.2641228 L20.1827685,7.90435382 C21.5817918,6.47368363 21.610608,4.22552532 20.2346575,2.81720352 C18.8395219,1.3905088 16.566768,1.39507493 15.1685604,2.82617304 Z" id="🌈-Color"></path>
            </g>
        </g>
    </g>
</svg>