<?xml version="1.0" encoding="UTF-8"?>
<svg width="24px" height="24px" viewBox="0 0 24 24" version="1.1" xmlns="http://www.w3.org/2000/svg" xmlns:xlink="http://www.w3.org/1999/xlink">
    <title>atoms/ico/24/meeting-24</title>
    <g id="atoms/ico/24/meeting-24" stroke="none" stroke-width="1" fill="none" fill-rule="evenodd">
        <path d="M13.1119875,13.2128938 C14.1580313,13.2128938 14.9419228,13.6408252 15.2620051,14.3680947 L15.318,14.514 L15.3618159,14.4964026 C15.484139,14.4501306 15.6143851,14.4127862 15.7520144,14.384603 L15.9639283,14.3492283 L16.1865124,14.3277706 L16.4309467,14.321848 L16.5801628,14.3430879 L16.8551384,14.4140347 L17.1749249,14.4873962 L17.3754591,14.5259376 C17.4635267,14.5409632 17.530133,14.5492229 17.561048,14.5489253 L17.6618905,14.5377753 C17.7082578,14.5306664 17.765957,14.5203597 17.8307251,14.5074386 L18.084794,14.4515929 L18.5236866,14.340276 L18.6752275,14.3207281 C20.0457092,14.3207281 20.9562043,15.0616838 20.9562043,16.189486 C20.9562043,17.4280127 20.7156205,18.6443121 20.2366999,19.8128632 L20.0858758,20.1619705 L19.9119515,20.5227306 L19.894,20.547 L20.3574561,20.6303422 L20.681212,20.6925541 L21.0024181,20.7571454 L21.6369317,20.893419 C21.9736923,20.9688822 22.1854631,21.3023458 22.1096419,21.6383014 C22.0338536,21.9741113 21.6994782,22.1849536 21.3628625,22.1095228 C20.2055102,21.8501767 18.9929543,21.6406288 17.7409274,21.4828088 C15.8824362,21.2485429 13.9369747,21.1282544 11.9559999,21.1282544 C8.67169026,21.1282544 5.48753364,21.4582029 2.63563605,22.0899284 C2.2988348,22.1645335 1.96497969,21.9528709 1.89002083,21.6168749 C1.81502981,21.2807347 2.02762269,20.9477929 2.36456745,20.8731561 C2.7781191,20.78155 3.19869826,20.6960124 3.62567652,20.6166606 L4.094,20.533 L4.04306759,20.445949 C3.49527258,19.3436045 3.16673797,18.1489534 3.07244296,16.9260824 L3.05119663,16.5584386 L3.04409455,16.189486 C3.04409455,15.1628507 3.76766578,14.4600285 4.92610276,14.3391752 L5.10309371,14.3254443 L5.30676656,14.321848 L5.45598265,14.3430879 L5.73095821,14.4140347 L6.05074471,14.4873962 L6.25127889,14.5259376 C6.33934653,14.5409632 6.4059528,14.5492229 6.43686779,14.5489253 C6.46602798,14.5487303 6.53027715,14.5400278 6.61522729,14.5247865 L6.96061382,14.4515929 L7.39950646,14.340276 L7.55104735,14.3207281 C7.9490426,14.3207281 8.31226677,14.3826176 8.62734152,14.5025255 L8.673,14.522 L8.72477811,14.381159 C8.97275148,13.7859287 9.52508017,13.3885374 10.2856386,13.2588965 L10.4648047,13.2337641 L10.6511006,13.2183296 L10.8686572,13.214007 L11.0174404,13.2351213 L11.2933459,13.3060931 L11.6138071,13.3794067 L11.8143508,13.4179015 C11.9024625,13.4329483 11.9691129,13.4412877 11.9998079,13.441091 C12.0288854,13.4408965 12.0929094,13.4322164 12.1775392,13.417013 L12.5222766,13.3438257 L12.6969403,13.3011236 L12.9600989,13.2325331 L13.1119875,13.2128938 Z M18.754,15.568 L18.520152,15.6288104 L18.1994137,15.7038854 C17.9198263,15.7646851 17.7228913,15.7943042 17.5713028,15.7953151 C17.4437389,15.7965491 17.2873448,15.77844 17.0809915,15.739777 L16.7280464,15.6651936 L16.4286614,15.590438 C16.4005156,15.5825512 16.3749055,15.5749492 16.3526602,15.5677768 C15.7961853,15.5790704 15.5087662,15.737366 15.4371582,16.0213277 L15.4229394,16.1018715 L15.4182639,16.189447 L15.419,20.004 L16.14263,20.0601414 C16.6995903,20.1083066 17.2508029,20.1661134 17.7950854,20.2334195 L18.529,20.331 L18.8370288,19.8928921 C19.3569132,18.8450089 19.649889,17.7029072 19.6988608,16.5391803 L19.7062151,16.189486 C19.7062151,15.8360443 19.4423789,15.6171701 18.8834998,15.5747194 L18.754,15.568 Z M5.22848006,15.5677768 C4.57748347,15.5809887 4.29408377,15.7933932 4.29408377,16.189486 C4.29408377,17.2239934 4.48646121,18.250249 4.85467633,19.1993228 L5.00096709,19.5514729 L5.14324349,19.8557447 L5.417,20.326 L6.15958098,20.2278304 C6.71391455,20.1598647 7.2754406,20.1017467 7.84292244,20.0536232 L8.581,19.997 L8.5820349,16.189486 C8.5820349,15.8356745 8.31865771,15.6170907 7.7594359,15.5747064 L7.63,15.568 L7.11477524,15.695137 L7.07523349,15.7038854 C6.79564616,15.7646851 6.59871109,15.7943042 6.44712261,15.7953151 C6.31955872,15.7965491 6.16316466,15.77844 5.95681131,15.739777 L5.6038662,15.6651936 L5.30448118,15.590438 C5.27633541,15.5825512 5.25072529,15.5749492 5.22848006,15.5677768 Z M13.2097793,14.4556672 L12.9492022,14.5230707 L12.6372022,14.5961171 L12.33926,14.6542648 C12.2076112,14.6760058 12.1000461,14.6868818 12.0080157,14.6874972 C11.8809253,14.6883116 11.7249108,14.6700948 11.519585,14.6316715 L11.1675154,14.5574395 L10.885841,14.4893832 L10.774,14.46 L10.6453015,14.4667076 C10.182184,14.5014348 9.93110415,14.6573106 9.8566347,14.9151844 L9.83955675,14.9955874 L9.832,15.0776637 L9.832,19.927 L10.4493659,19.9045162 C10.6993398,19.8969586 10.9499434,19.8912849 11.2010809,19.8875006 L11.9559999,19.8818213 C12.4802685,19.8818213 13.0027069,19.8900324 13.522447,19.9064031 L14.169,19.932 L14.1679747,17.1751393 L14.1683563,15.09944 C14.1544339,14.7023296 13.837626,14.4739138 13.2097793,14.4556672 Z M17.5683395,7.7076009 C18.9298682,7.7076009 20.0774448,8.7028411 20.0676065,9.91586449 L20.0608099,10.0624229 L19.8077443,12.0296419 C19.6319255,13.1456385 18.7231691,13.9063065 17.5683395,13.9063065 C16.5373699,13.9063065 15.7013384,13.2992861 15.4094616,12.3557024 L15.3636736,12.1857489 L15.3304492,12.0122752 L15.1018321,10.2336104 C14.8766983,8.88369863 16.0824827,7.7076009 17.5683395,7.7076009 Z M6.44435927,7.7076009 C7.80588801,7.7076009 8.95346465,8.7028411 8.94362632,9.91586449 L8.93682975,10.0624229 L8.6837641,12.0296419 C8.50794534,13.1456385 7.5991889,13.9063065 6.44435927,13.9063065 C5.41338967,13.9063065 4.57735826,13.2992861 4.28548139,12.3557024 L4.23969345,12.1857489 L4.20646901,12.0122752 L3.97785192,10.2336104 C3.75271814,8.88369863 4.95850248,7.7076009 6.44435927,7.7076009 Z M12.0067994,6.59877015 C13.3678696,6.59877015 14.5160214,7.59537223 14.5052911,8.80824655 L14.4983803,8.95477964 L14.2453209,10.9200677 C14.0708138,12.0365294 13.1617847,12.7984722 12.0067994,12.7984722 C10.9763653,12.7984722 10.1403024,12.1912212 9.84735947,11.2472001 L9.80137256,11.0771673 L9.76791483,10.9034889 L9.53919581,9.12519754 C9.31537508,7.77531071 10.5216401,6.59877015 12.0067994,6.59877015 Z M17.5683395,8.954034 C16.9263151,8.954034 16.3882211,9.3635908 16.3320365,9.8392481 L16.3275109,9.94206124 L16.3382656,10.0520087 L16.5678958,11.8369477 C16.6472005,12.3443235 17.0274086,12.6598734 17.5683395,12.6598734 C18.0201703,12.6598734 18.3643638,12.4392732 18.5086859,12.0796735 L18.5458941,11.9677052 L18.5704202,11.8535253 L18.805696,10.0297123 C18.8958871,9.48576031 18.3026875,8.954034 17.5683395,8.954034 Z M6.44435927,8.954034 C5.80233495,8.954034 5.26424091,9.3635908 5.20805634,9.8392481 L5.2035307,9.94206124 L5.21428544,10.0520087 L5.44391566,11.8369477 C5.52322036,12.3443235 5.90342844,12.6598734 6.44435927,12.6598734 C6.89619016,12.6598734 7.24038363,12.4392732 7.3847057,12.0796735 L7.42191394,11.9677052 L7.44643999,11.8535253 L7.68171582,10.0297123 C7.77190687,9.48576031 7.17870731,8.954034 6.44435927,8.954034 Z M12.0067994,7.84520325 C11.3651017,7.84520325 10.826377,8.25541904 10.7697106,8.73141035 L10.7650844,8.83428973 L10.7757201,8.94413228 L11.0052391,10.7273736 C11.0853252,11.2357142 11.4661989,11.5520391 12.0067994,11.5520391 C12.4583175,11.5520391 12.802402,11.3310916 12.9463676,10.9711677 L12.983461,10.8591032 L13.0078858,10.7446503 L13.2432521,8.9212994 C13.3338914,8.37782215 12.7402921,7.84520325 12.0067994,7.84520325 Z M6.05827832,5.35316047 C9.37428454,2.04894651 14.6257143,2.04894651 17.9417205,5.35316047 C18.1860062,5.59657743 18.1860062,5.9914194 17.9417205,6.23483637 C17.6976812,6.47800784 17.3021992,6.47800784 17.0581598,6.23483637 C14.2302322,3.41696535 9.76976662,3.41696535 6.94183902,6.23483637 C6.6977997,6.47800784 6.30231763,6.47800784 6.05827832,6.23483637 C5.81399263,5.9914194 5.81399263,5.59657743 6.05827832,5.35316047 Z" id="🌈-Color" fill="#EC0000"></path>
    </g>
</svg>