<?xml version="1.0" encoding="UTF-8"?>
<svg width="24px" height="24px" viewBox="0 0 24 24" version="1.1" xmlns="http://www.w3.org/2000/svg" xmlns:xlink="http://www.w3.org/1999/xlink">
    <title>962D57AE-04D7-453E-9DC8-1F4D3D10DD1C</title>
    <g id="Styles" stroke="none" stroke-width="1" fill="none" fill-rule="evenodd">
        <g id="Icons" transform="translate(-1012.000000, -600.000000)" fill="#444444">
            <g id="atoms/ico/24/add-24-copy-34" transform="translate(1012.000000, 600.000000)">
                <g id="atoms/ico/20/chevron_down-20" transform="translate(4.000000, 2.000000)">
                    <path d="M13.7951645,1.9235708 L15.157722,1.92440071 L15.1915873,1.93222007 L15.2565329,1.92462753 C15.331856,1.92185169 15.4070946,1.93084501 15.479627,1.95140224 L15.586068,1.99088534 L15.6864832,2.04756036 C15.9473138,2.22441352 16.0589258,2.54525044 15.9696528,2.85260829 L15.9323842,2.95434568 L15.8791117,3.0484847 L10.0923597,11.585771 L10.0923597,17.0598004 C10.0923597,17.391707 9.86841186,17.6709726 9.56327188,17.7548415 L9.46943688,17.7739976 L9.37158689,17.7805732 C9.05654327,17.7805732 8.78416857,17.5774914 8.68570499,17.2728244 L8.65950498,17.1676456 L8.65081405,17.0598004 L8.65081405,11.3658827 C8.65081405,11.302001 8.6592557,11.23864 8.6788868,11.1709875 L8.71706898,11.0656886 L8.77477363,10.9617432 L13.9220661,3.36607751 L12.7428643,3.36511648 L13.7951645,1.9235708 Z M7.20926837,10.9072575 L7.20926837,17.0598004 C7.20926837,17.4615649 6.89028704,17.7805732 6.48849553,17.7805732 C6.17053811,17.7805732 5.89951001,17.5794798 5.80211185,17.2736941 L5.77625034,17.1680203 L5.7677227,17.0598004 L5.7677227,12.946562 L5.81441725,12.8042347 L7.20926837,10.9072575 Z M12.6369727,0.292666162 C12.8285506,0.0292649 13.1646038,-0.063368848 13.4588694,0.0435106329 L13.5551547,0.0865659371 L13.6468116,0.144636589 L13.7284904,0.213319033 C13.886792,0.368743244 13.9626686,0.590724361 13.9359619,0.78963874 L13.9139667,0.886758777 C13.906488,0.931585234 13.8930192,0.975627587 13.8715865,1.02252446 L13.8332177,1.09546548 L13.7938896,1.15265935 L12.9484819,2.30549232 L12.2465304,3.26701377 L6.75998827,10.74256 L6.1533342,11.5802944 L3.54389823,15.1204409 L3.53966301,15.1356263 L3.22633065,15.562818 C3.09669061,15.7500271 2.87170146,15.8585123 2.64437373,15.8585123 C2.48929624,15.8585123 2.33375001,15.8091719 2.21479239,15.7164424 C1.96022624,15.5313611 1.86189134,15.2067567 1.96608096,14.9011184 L2.00837524,14.8001587 L2.06627656,14.7072488 L5.09980653,10.5757279 L0.184132349,3.13443173 L0.114988964,3.04078683 C-0.0277884871,2.81246474 -0.0396467109,2.536038 0.0908662586,2.30404607 C0.152531003,2.19615621 0.221011344,2.11137671 0.319956463,2.0407414 C0.39065474,1.99362519 0.464722092,1.9616195 0.549709776,1.94260229 L0.638617247,1.92783598 L0.722312829,1.9235708 L11.4406854,1.92453183 L12.6369727,0.292666162 Z M10.386435,3.36607751 L2.07159958,3.36607751 L6.00798031,9.32734939 L10.386435,3.36607751 Z" id="🌈-Color"></path>
                </g>
            </g>
        </g>
    </g>
</svg>