<?xml version="1.0" encoding="UTF-8"?>
<svg width="24px" height="25px" viewBox="0 0 24 25" version="1.1" xmlns="http://www.w3.org/2000/svg" xmlns:xlink="http://www.w3.org/1999/xlink">
    <title>atoms/ico/24/alerts-24</title>
    <g id="atoms/ico/24/alerts-24" stroke="none" stroke-width="1" fill="none" fill-rule="evenodd">
        <path d="M15,0.557142857 C15.407841,0.557142857 15.7444016,0.862331004 15.7937669,1.25679256 L15.8,1.35714286 L15.8,2.69914286 L18,2.7 C20.579319,2.7 22.6834694,4.73443903 22.7953232,7.28618919 L22.8,7.5 L22.8,18.5 C22.8,21.1509668 20.6509668,23.3 18,23.3 L18,23.3 L6,23.3 C3.3490332,23.3 1.2,21.1509668 1.2,18.5 L1.2,18.5 L1.2,7.5 C1.2,4.8490332 3.3490332,2.7 6,2.7 L6,2.7 L8.199,2.69914286 L8.2,1.35714286 C8.2,0.915315057 8.5581722,0.557142857 9,0.557142857 C9.40784105,0.557142857 9.74440158,0.862331004 9.79376686,1.25679256 L9.8,1.35714286 L9.799,2.69914286 L14.2,2.69914286 L14.2,1.35714286 C14.2,0.915315057 14.5581722,0.557142857 15,0.557142857 Z M8.199,4.29914286 L6,4.3 C4.2326888,4.3 2.8,5.7326888 2.8,7.5 L2.8,7.5 L2.8,18.5 C2.8,20.2673112 4.2326888,21.7 6,21.7 L6,21.7 L18,21.7 C19.7673112,21.7 21.2,20.2673112 21.2,18.5 L21.2,18.5 L21.2,7.5 C21.2,5.7326888 19.7673112,4.3 18,4.3 L18,4.3 L15.8,4.29914286 L15.8,5.64285714 C15.8,6.08468494 15.4418278,6.44285714 15,6.44285714 C14.592159,6.44285714 14.2555984,6.137669 14.2062331,5.74320744 L14.2,5.64285714 L14.2,4.29914286 L9.799,4.29914286 L9.8,5.64285714 C9.8,6.08468494 9.4418278,6.44285714 9,6.44285714 C8.59215895,6.44285714 8.25559842,6.137669 8.20623314,5.74320744 L8.2,5.64285714 L8.199,4.29914286 Z" id="Combined-Shape" fill="#7F7F7F"></path>
        <text id="18" font-family="Helvetica" font-size="10" font-weight="normal" fill="#4C4C4C">
            <tspan x="5.93847656" y="16.5">18</tspan>
        </text>
    </g>
</svg>