<?xml version="1.0" encoding="UTF-8"?>
<svg width="24px" height="24px" viewBox="0 0 24 24" version="1.1" xmlns="http://www.w3.org/2000/svg" xmlns:xlink="http://www.w3.org/1999/xlink">
    <title>463B76B6-4200-49E7-97EF-DD818347BB95SVG/</title>
    <g id="Financiation-(versión-táctico)" stroke="none" stroke-width="1" fill="none" fill-rule="evenodd">
        <g id="EmployeeView_Financing_Request-Batches_02" transform="translate(-1176.000000, -737.000000)" fill="#EC0000">
            <g id="Group-16" transform="translate(1160.000000, 721.000000)">
                <g id="Group" transform="translate(16.000000, 16.000000)">
                    <g id="Atoms/ico/normal-size/refresh-24-Copy" transform="translate(12.000000, 12.000000) scale(1, -1) rotate(-180.000000) translate(-12.000000, -12.000000) ">
                        <path d="M21.4970702,15 C21.7734374,15 21.9970702,15.223228 21.9970702,15.4990948 L21.9970702,18.0345356 C21.9970702,20.2209998 20.2148437,22 18.024414,22 L5.9726562,22 C3.7822266,22 2,20.2209998 2,18.0345356 L2,15.4990948 C2,15.223228 2.2236328,15 2.5,15 C2.7763672,15 3,15.223228 3,15.4990948 L3,18.0345356 C3,19.6702409 4.3339844,21.0018103 5.9726562,21.0018103 L18.0244141,21.0018103 C19.6630859,21.0018103 20.9970703,19.6702409 20.9970703,18.0345356 L20.9970703,15.4990948 C20.9970703,15.223228 21.220703,15 21.4970702,15 Z M12.2042131,2.03940876 C12.2700208,2.06587158 12.3293,2.10413806 12.3787865,2.15236777 L16.3433148,6.0060498 C16.5522284,6.20912233 16.5522284,6.53809988 16.3433148,6.74117231 C16.1344011,6.94424473 15.7959609,6.94424484 15.5870474,6.74117231 L12.534819,3.77428266 L12.534819,16.4801343 C12.534819,16.767482 12.2956128,17 12,17 C11.7043872,17 11.4651811,16.767482 11.4651811,16.4801343 L11.4651811,3.77428277 L8.41295263,6.74117241 C8.20403898,6.94424494 7.86559881,6.94424494 7.65668527,6.74117241 C7.55222849,6.6396362 7.5,6.50662368 7.5,6.37361116 C7.5,6.24059864 7.55222839,6.10758612 7.65668527,6.0060499 L11.6212135,2.15236787 C11.6706999,2.10413817 11.7299792,2.06587169 11.795787,2.03940876 C11.9264886,1.98686375 12.0735116,1.98686375 12.2042131,2.03940876 Z" id="icon-color"></path>
                    </g>
                </g>
            </g>
        </g>
    </g>
</svg>