<svg xmlns="http://www.w3.org/2000/svg" xmlns:xlink="http://www.w3.org/1999/xlink" width="74" height="74"><path d="M32.437 13.275 C 23.117 14.687,15.319 21.604,12.882 30.622 C 11.790 34.664,11.794 39.348,12.891 43.411 C 15.071 51.480,21.701 58.034,29.847 60.173 C 33.669 61.177,38.007 61.202,41.847 60.242 C 49.673 58.285,56.121 52.288,58.686 44.580 C 59.477 42.202,60.054 38.622,59.915 36.952 L 59.863 36.315 60.609 35.820 C 61.578 35.177,61.913 34.680,61.913 33.892 C 61.913 32.827,61.439 32.273,59.946 31.595 L 59.166 31.241 58.871 30.221 C 56.298 21.308,48.523 14.567,39.305 13.256 C 37.699 13.028,34.001 13.038,32.437 13.275 M34.874 20.258 L 34.842 24.975 34.163 24.941 C 32.313 24.849,29.552 24.199,27.654 23.410 L 26.756 23.037 27.264 22.094 C 28.166 20.422,28.884 19.451,30.149 18.192 C 30.831 17.513,31.708 16.771,32.099 16.541 C 32.903 16.070,34.209 15.556,34.627 15.546 L 34.906 15.540 34.874 20.258 M39.158 16.213 C 41.167 17.196,42.803 18.872,44.369 21.553 C 44.793 22.278,45.140 22.914,45.140 22.966 C 45.140 23.340,40.738 24.644,38.788 24.848 C 38.381 24.891,37.840 24.956,37.586 24.992 L 37.123 25.058 37.123 20.285 L 37.123 15.513 37.586 15.591 C 37.840 15.635,38.548 15.915,39.158 16.213 M45.448 17.544 C 46.551 18.094,48.259 19.170,49.056 19.817 L 49.580 20.243 49.241 20.525 C 49.054 20.681,48.520 21.068,48.052 21.387 L 47.203 21.966 46.568 20.819 C 45.832 19.488,45.060 18.319,44.355 17.466 C 43.903 16.921,43.885 16.873,44.159 16.958 C 44.325 17.010,44.906 17.274,45.448 17.544 M26.362 19.206 C 25.999 19.747,25.494 20.589,25.238 21.076 L 24.772 21.962 24.318 21.688 C 24.069 21.537,23.732 21.329,23.569 21.225 L 23.272 21.037 24.024 20.345 C 24.812 19.621,26.889 18.091,26.972 18.174 C 26.998 18.201,26.724 18.665,26.362 19.206 M53.152 23.806 C 55.008 26.221,56.429 29.290,57.080 32.297 L 57.326 33.430 56.999 33.595 C 56.535 33.829,55.217 34.243,54.208 34.471 C 53.471 34.638,50.529 35.150,50.306 35.150 C 50.264 35.150,50.193 34.609,50.146 33.947 C 49.921 30.732,49.073 26.599,48.164 24.282 C 48.106 24.132,48.342 23.910,49.110 23.392 C 49.674 23.013,50.413 22.480,50.752 22.209 L 51.368 21.715 51.903 22.297 C 52.198 22.617,52.759 23.296,53.152 23.806 M23.159 23.591 C 23.903 24.046,23.894 23.858,23.266 25.856 C 22.546 28.144,22.107 30.620,21.766 34.299 L 21.691 35.113 20.620 34.943 C 19.514 34.767,17.465 34.280,16.863 34.051 C 16.596 33.949,16.534 33.859,16.579 33.641 C 16.953 31.826,17.120 31.186,17.539 29.971 C 18.324 27.694,19.957 24.741,21.277 23.214 L 21.733 22.686 22.120 22.939 C 22.334 23.079,22.801 23.372,23.159 23.591 M26.655 25.453 C 28.515 26.274,31.620 27.052,33.732 27.227 L 34.842 27.318 34.874 31.624 L 34.907 35.930 31.544 35.848 C 28.452 35.773,25.977 35.632,24.520 35.449 L 23.941 35.375 23.992 34.800 C 24.219 32.275,24.356 31.183,24.616 29.834 C 25.034 27.660,25.748 25.160,25.951 25.160 C 25.974 25.160,26.291 25.292,26.655 25.453 M46.427 26.178 C 47.181 28.665,47.726 31.612,47.919 34.248 L 48.002 35.381 47.588 35.448 C 46.610 35.606,43.484 35.783,40.422 35.853 L 37.123 35.928 37.123 31.592 L 37.123 27.257 37.709 27.256 C 39.343 27.254,42.640 26.509,44.708 25.674 C 45.387 25.401,45.982 25.173,46.030 25.168 C 46.079 25.164,46.258 25.618,46.427 26.178 M57.555 38.634 C 57.321 42.728,55.518 47.196,52.704 50.658 L 52.279 51.180 51.383 50.399 C 50.890 49.969,50.069 49.335,49.559 48.991 L 48.631 48.364 49.100 46.521 C 49.598 44.569,50.007 42.038,50.146 40.058 L 50.230 38.860 50.799 38.781 C 51.956 38.619,55.467 37.853,56.363 37.566 C 57.744 37.126,57.646 37.039,57.555 38.634 M17.760 38.291 C 18.337 38.466,19.447 38.724,20.227 38.864 C 21.007 39.005,21.667 39.141,21.694 39.167 C 21.721 39.193,21.790 39.785,21.847 40.482 C 22.046 42.894,22.654 46.271,23.132 47.628 C 23.230 47.905,23.310 48.175,23.310 48.229 C 23.310 48.403,20.941 49.974,20.839 49.868 C 20.785 49.811,20.376 49.218,19.930 48.549 C 17.960 45.592,16.651 41.932,16.358 38.560 C 16.303 37.923,16.320 37.846,16.503 37.905 C 16.618 37.942,17.183 38.116,17.760 38.291 M47.893 39.991 C 47.771 41.527,47.361 44.079,46.987 45.628 L 46.604 47.211 45.509 46.736 C 43.453 45.845,40.610 45.110,38.601 44.951 C 36.947 44.820,37.123 45.134,37.123 42.325 L 37.123 39.886 40.546 39.724 C 42.428 39.635,44.634 39.493,45.448 39.409 C 46.262 39.326,47.159 39.249,47.441 39.239 L 47.953 39.220 47.893 39.991 M29.230 39.707 C 31.028 39.783,33.026 39.858,33.670 39.872 L 34.842 39.898 34.875 42.331 L 34.909 44.764 34.628 44.817 C 34.474 44.846,33.720 44.932,32.951 45.009 C 31.223 45.181,28.704 45.818,27.072 46.497 C 25.152 47.295,25.369 47.391,24.936 45.553 C 24.511 43.745,24.222 41.976,24.103 40.449 L 24.020 39.396 24.991 39.481 C 25.525 39.529,27.432 39.630,29.230 39.707 M34.903 52.787 C 34.903 59.241,35.024 58.658,33.779 58.230 C 31.025 57.282,28.665 54.882,26.873 51.205 C 25.998 49.409,25.996 49.418,27.195 48.884 C 29.369 47.916,32.304 47.188,34.256 47.132 L 34.903 47.113 34.903 52.787 M40.364 47.491 C 41.027 47.626,42.026 47.880,42.584 48.056 C 43.518 48.351,45.699 49.235,45.841 49.376 C 45.874 49.410,45.570 50.130,45.164 50.977 C 43.979 53.456,42.658 55.263,41.070 56.579 C 40.201 57.298,38.329 58.282,37.586 58.409 L 37.123 58.487 37.123 52.783 L 37.123 47.078 38.141 47.162 C 38.700 47.208,39.701 47.356,40.364 47.491 M50.030 52.223 L 50.730 52.858 49.877 53.571 C 48.668 54.582,47.008 55.674,45.639 56.359 C 43.807 57.275,43.761 57.271,44.554 56.284 C 45.582 55.005,46.448 53.621,47.217 52.028 L 47.910 50.591 48.620 51.089 C 49.011 51.363,49.645 51.873,50.030 52.223 M24.749 52.021 C 25.100 52.747,25.690 53.800,26.061 54.359 C 26.431 54.919,26.703 55.377,26.664 55.377 C 26.468 55.377,24.237 53.544,23.390 52.687 L 22.422 51.708 23.133 51.199 C 23.524 50.919,23.904 50.692,23.978 50.695 C 24.051 50.698,24.399 51.295,24.749 52.021 " stroke="none" fill-rule="evenodd" fill="black"></path></svg>