<?xml version="1.0" encoding="UTF-8"?>
<svg width="24px" height="24px" viewBox="0 0 24 24" version="1.1" xmlns="http://www.w3.org/2000/svg" xmlns:xlink="http://www.w3.org/1999/xlink">
    <title>atoms/ico/24/messages_deseable-24</title>
    <g id="atoms/ico/24/messages_deseable-24" stroke="none" stroke-width="1" fill="none" fill-rule="evenodd">
        <path d="M18,4.2 C20.6509668,4.2 22.8,6.3490332 22.8,9 L22.8,9 L22.8,15 C22.8,17.6509668 20.6509668,19.8 18,19.8 L18,19.8 L6,19.8 C3.3490332,19.8 1.2,17.6509668 1.2,15 L1.2,15 L1.2,9 C1.2,6.3490332 3.3490332,4.2 6,4.2 L6,4.2 Z M3.48893163,7.01622409 C3.05754021,7.56153832 2.8,8.25069329 2.8,9 L2.8,9 L2.8,15 C2.8,16.7673112 4.2326888,18.2 6,18.2 L6,18.2 L18,18.2 C19.7673112,18.2 21.2,16.7673112 21.2,15 L21.2,15 L21.2,9 C21.2,8.25207833 20.943411,7.56408624 20.5134588,7.01924949 L13.6219516,11.8513007 C12.7150546,12.4871694 11.525034,12.5254476 10.5839631,11.965726 L10.4105595,11.8537703 Z M18,5.8 L6,5.8 C5.59384774,5.8 5.20536833,5.87566649 4.8478895,6.01367173 L11.3270921,10.5422948 C11.7029165,10.8049419 12.1915799,10.8284694 12.5875863,10.6130353 L12.703403,10.5412364 L19.1581044,6.01599267 C18.7989757,5.87651507 18.4084234,5.8 18,5.8 L18,5.8 Z" id="Combined-Shape" fill="#7F7F7F"></path>
    </g>
</svg>