<!-- Generated by IcoMoon.io -->
<svg version="1.1" xmlns="http://www.w3.org/2000/svg" width="17" height="32" viewBox="0 0 17 32">
<title>menu</title>
<path d="M11.104 8.608c0 1.376-1.12 2.496-2.464 2.496s-2.496-1.12-2.496-2.496c0-1.344 1.12-2.464 2.496-2.464s2.464 1.12 2.464 2.464zM11.104 15.968c0 1.376-1.12 2.496-2.464 2.496s-2.496-1.12-2.496-2.496c0-1.344 1.12-2.464 2.496-2.464s2.464 1.12 2.464 2.464zM11.104 23.392c0 1.376-1.12 2.496-2.464 2.496s-2.496-1.12-2.496-2.496c0-1.344 1.12-2.464 2.496-2.464s2.464 1.12 2.464 2.464z"></path>
</svg>
