<?xml version="1.0" encoding="UTF-8"?>
<svg width="22px" height="22px" viewBox="0 0 22 22" version="1.1" xmlns="http://www.w3.org/2000/svg" xmlns:xlink="http://www.w3.org/1999/xlink">
    <title>atoms/ico/24/edit-24</title>
    <g id="Confirming---MVP02-V02" stroke="none" stroke-width="1" fill="none" fill-rule="evenodd">
        <g id="Debits-01A" transform="translate(-1200.000000, -769.000000)" fill="#EC0000">
            <g id="Group-9-Copy-2" transform="translate(1183.000000, 712.000000)">
                <g id="🌈-Color" transform="translate(16.000000, 56.000000)">
                    <path d="M17.4897461,1.7514648 C17.869648,1.7514648 18.1832714,2.03342977 18.2329038,2.39964701 L18.2397461,2.5014648 L18.239,3.716 L20.1782227,3.7163086 C21.2092817,3.7163086 22.065391,4.47868517 22.212526,5.469414 L22.2292122,5.61966922 L22.2348633,5.7729492 L22.2318041,8.38593636 C22.2431695,8.42311823 22.25,8.45744563 22.25,8.5 L22.2453178,8.55871559 L22.234,8.607 L22.2348632,20.1835937 C22.2348632,21.2146527 21.4724866,22.070762 20.4817578,22.217897 L20.3315026,22.2345832 L20.1782226,22.2402343 L3.8134765,22.2402343 C2.73086453,22.2402343 1.8411347,21.3997141 1.76248697,20.3368737 L1.7568359,20.1835937 L1.757,8.565 L1.75,8.5 L1.75641383,8.43929028 L1.756836,5.7729492 C1.756836,4.69033723 2.59735616,3.8006074 3.66019662,3.72195967 L3.8134766,3.7163086 L5.76,3.716 L5.7602539,2.5014648 C5.7602539,2.15609948 5.9932828,1.86550969 6.31079613,1.77823991 L6.40843611,1.75830712 L6.5102539,1.7514648 C6.89015576,1.7514648 7.20377921,2.03342977 7.25341158,2.39964701 L7.2602539,2.5014648 L7.26,3.716 L16.739,3.716 L16.7397461,2.5014648 C16.7397461,2.15609948 16.972775,1.86550969 17.2902883,1.77823991 L17.3879283,1.75830712 L17.4897461,1.7514648 Z M20.734,9.25 L3.256,9.25 L3.256836,20.1835938 C3.256836,20.4596715 3.45924495,20.6896882 3.72334968,20.7329308 L3.8134766,20.7402344 L20.1782227,20.7402344 C20.4543004,20.7402344 20.6843171,20.5378255 20.7275597,20.2737207 L20.7348633,20.1835938 L20.734,9.25 Z M5.76,5.216 L3.8134766,5.2163086 C3.53739881,5.2163086 3.30738207,5.41871754 3.26413951,5.68282228 L3.2568359,5.7729492 L3.256,7.749 L20.734,7.749 L20.7348633,5.7729492 C20.7348633,5.49687149 20.5324544,5.26685477 20.2683496,5.22361221 L20.1782227,5.2163086 L18.239,5.216 L18.2397461,6.5 C18.2397461,6.91443839 17.9041845,7.25 17.4897461,7.25 C17.1098442,7.25 16.7962208,6.96803503 16.7465884,6.60181779 L16.7397461,6.5 L16.739,5.216 L7.26,5.216 L7.2602539,6.5 C7.2602539,6.87990186 6.97828893,7.19352531 6.61207169,7.24315768 L6.5102539,7.25 C6.13035204,7.25 5.81672859,6.96803503 5.76709622,6.60181779 L5.7602539,6.5 L5.76,5.216 Z"></path>
                </g>
            </g>
        </g>
    </g>
</svg>
