<!-- Generated by IcoMoon.io -->
<svg version="1.1" xmlns="http://www.w3.org/2000/svg" width="32" height="32" viewBox="0 0 32 32">
<title>global</title>
<path d="M29.344 7.136c-0.224-0.352-0.48-0.672-0.736-0.992-2.944-3.776-7.488-6.144-12.576-6.144 0 0 0 0 0 0v0c0 0-0.032 0-0.032 0-5.088 0-9.632 2.368-12.576 6.112l-0.032 0.032c-0.256 0.32-0.48 0.672-0.736 1.024-1.664 2.464-2.656 5.536-2.656 8.832 0 0 0 0 0 0v0c0 0.032 0 0.032 0 0.032 0 3.296 0.992 6.336 2.72 8.896l-0.064-0.064c0.256 0.352 0.48 0.704 0.736 1.024 2.976 3.744 7.52 6.144 12.608 6.144 0 0 0.032 0 0.032 0v0c0 0 0 0 0 0 5.088 0 9.632-2.4 12.576-6.112v-0.032c0.256-0.32 0.512-0.672 0.736-1.024 1.696-2.464 2.688-5.536 2.688-8.832 0 0 0 0 0-0.032v0c0 0 0 0 0-0.032 0-3.264-0.992-6.336-2.72-8.864l0.032 0.032zM12.192 1.824c-1.6 1.856-2.784 4.128-3.36 6.624l-0.032 0.128c-1.6-0.416-3.040-0.992-4.352-1.728l0.064 0.032c1.92-2.4 4.576-4.192 7.584-5.024l0.096-0.032zM3.776 7.904c1.376 0.832 2.976 1.472 4.672 1.92h0.128c-0.352 1.664-0.544 3.552-0.576 5.504v0h-6.656c0.128-2.784 1.024-5.344 2.464-7.488l-0.032 0.064zM1.376 16.64h6.624v0.064c0 1.952 0.224 3.84 0.576 5.664l-0.032-0.192c-1.824 0.448-3.424 1.12-4.864 1.984l0.064-0.032c-1.408-2.112-2.272-4.704-2.4-7.456v-0.032zM4.576 25.152c1.216-0.704 2.624-1.312 4.128-1.664l0.096-0.032c0.608 2.624 1.792 4.896 3.456 6.784v-0.032c-3.136-0.864-5.792-2.624-7.712-5.024l-0.032-0.032zM15.392 30.56c-2.272-0.48-4.192-3.36-5.216-7.392 1.568-0.32 3.36-0.48 5.216-0.48v0zM15.392 21.344c0 0-0.032 0-0.032 0-1.952 0-3.84 0.192-5.664 0.576l0.192-0.032c-0.32-1.536-0.48-3.328-0.48-5.152 0-0.032 0-0.064 0-0.096v0h5.984zM15.392 15.328h-6.048c0-0.032 0-0.032 0-0.064 0-1.824 0.16-3.584 0.512-5.312l-0.032 0.192c1.632 0.32 3.52 0.512 5.472 0.512 0 0 0.032 0 0.032 0v0zM15.392 9.344c-1.856 0-3.648-0.192-5.408-0.512l0.16 0.032c1.024-4.096 2.976-6.976 5.248-7.456zM30.72 15.328h-6.688c0 0 0-0.032 0-0.032 0-1.92-0.192-3.808-0.576-5.664l0.032 0.192c1.824-0.448 3.392-1.12 4.864-1.984l-0.096 0.064c1.408 2.080 2.304 4.64 2.432 7.392v0.032zM27.52 6.88c-1.216 0.704-2.656 1.28-4.192 1.664l-0.096 0.032c-0.608-2.624-1.76-4.896-3.392-6.752v0c3.136 0.864 5.76 2.656 7.648 5.024l0.032 0.032zM16.64 1.408c2.304 0.448 4.256 3.328 5.28 7.424-1.568 0.32-3.36 0.512-5.184 0.512-0.032 0-0.064 0-0.096 0v0zM16.64 10.656c0.032 0 0.096 0 0.128 0 1.952 0 3.84-0.192 5.664-0.576l-0.192 0.032c0.32 1.568 0.48 3.328 0.48 5.152 0 0.032 0 0.032 0 0.064v0h-6.080zM16.64 16.64h6.048c0 0.032 0 0.064 0 0.096 0 1.824-0.16 3.616-0.512 5.344l0.032-0.192c-1.664-0.352-3.552-0.544-5.472-0.544-0.032 0-0.064 0-0.096 0v0zM16.64 30.592v-7.904c0.032 0 0.064 0 0.096 0 1.824 0 3.616 0.16 5.344 0.512l-0.16-0.032c-1.024 4.064-2.976 6.976-5.28 7.424zM19.744 30.208c1.664-1.856 2.88-4.128 3.456-6.656l0.032-0.096c1.632 0.384 3.072 0.992 4.384 1.728l-0.064-0.032c-1.952 2.432-4.64 4.224-7.712 5.024l-0.096 0.032zM28.256 24.128c-1.376-0.832-2.976-1.504-4.672-1.92l-0.128-0.032c0.352-1.632 0.544-3.52 0.576-5.44v-0.096h6.656c-0.128 2.784-1.024 5.376-2.464 7.52l0.032-0.032z"></path>
</svg>
