<!-- Generated by IcoMoon.io -->
<svg version="1.1" xmlns="http://www.w3.org/2000/svg" width="32" height="32" viewBox="0 0 32 32">
<title>logo</title>
<path d="M22.784 14.304c-0.064-1.216-0.384-2.304-0.928-3.296l0.032 0.032-4.896-8.896c-0.352-0.608-0.64-1.344-0.8-2.112v-0.032l-0.16 0.352c-0.576 1.024-0.928 2.272-0.928 3.584s0.352 2.528 0.928 3.584v-0.032l3.904 7.136c0.576 1.024 0.896 2.24 0.896 3.552s-0.32 2.528-0.928 3.584l0.032-0.032-0.224 0.384c-0.16-0.832-0.416-1.536-0.8-2.208v0.032l-3.552-6.496-2.304-4.16c-0.352-0.64-0.64-1.344-0.8-2.112v-0.064l-0.192 0.384c-0.576 1.024-0.896 2.24-0.896 3.552s0.32 2.528 0.928 3.584l-0.032-0.032 3.968 7.136c0.544 1.024 0.896 2.24 0.896 3.552s-0.352 2.528-0.928 3.584l0.032-0.032-0.224 0.352c-0.16-0.8-0.448-1.536-0.832-2.176l0.032 0.032-4.864-8.864c-0.576-1.024-0.896-2.24-0.896-3.552 0-0.128 0-0.224 0-0.352v0.032c-5.248 1.44-8.832 4.48-8.832 8 0 4.928 6.976 8.928 15.616 8.928s15.616-4 15.616-8.928c0-3.52-3.616-6.56-8.864-8z"></path>
</svg>
