<!-- Generated by IcoMoon.io -->
<svg version="1.1" xmlns="http://www.w3.org/2000/svg" width="35" height="32" viewBox="0 0 35 32">
<title>refresh</title>
<path d="M31.392 21.056c-2.112 5.76-7.584 9.824-13.984 9.824-6.080 0-11.328-3.648-13.632-8.864l-0.032-0.096 1.568-0.352c0.352-0.032 0.64-0.352 0.64-0.736 0-0.16-0.064-0.352-0.192-0.48v0l-2.976-3.392c-0.128-0.16-0.32-0.256-0.544-0.256-0.32 0-0.576 0.192-0.672 0.48v0l-1.536 4.32c-0.032 0.064-0.032 0.16-0.032 0.256 0 0.416 0.32 0.736 0.704 0.736 0.096 0 0.16-0.032 0.224-0.032v0l1.632-0.32c2.464 5.856 8.192 9.888 14.816 9.888 6.944 0 12.832-4.384 15.104-10.528l0.032-0.096c0-0.032 0-0.064 0-0.096s0-0.064 0-0.096v0c-0.032-0.288-0.224-0.512-0.48-0.576v0c0 0-0.032 0-0.064 0-0.256 0-0.48 0.16-0.576 0.384v0.032zM17.408 0c-6.912 0-12.8 4.384-15.040 10.496l-0.032 0.128c-0.032 0.064-0.032 0.128-0.032 0.192 0 0.256 0.16 0.448 0.384 0.544v0c0.064 0 0.128 0.032 0.192 0.032 0.256 0 0.448-0.16 0.544-0.384v0c2.112-5.792 7.584-9.856 14.016-9.856 6.080 0 11.296 3.648 13.632 8.864l0.032 0.096-1.664 0.32c-0.32 0.064-0.544 0.352-0.544 0.672 0 0.192 0.064 0.352 0.192 0.48v0l2.944 3.456c0.16 0.16 0.32 0.256 0.544 0.256 0.32 0 0.576-0.192 0.672-0.48v0l1.504-4.352c0.032-0.064 0.032-0.128 0.032-0.192 0-0.384-0.32-0.704-0.704-0.704-0.032 0-0.096 0-0.128 0.032v0l-1.792 0.352c-2.4-5.888-8.128-9.952-14.752-9.952v0z"></path>
</svg>
