<svg width="20" height="20" viewBox="0 0 20 20" fill="none" xmlns="http://www.w3.org/2000/svg"><path d="M9.333 0.021 C 6.398 0.240,3.763 1.669,2.007 3.995 C 0.994 5.336,0.369 6.849,0.091 8.633 C -0.011 9.286,-0.011 10.714,0.091 11.367 C 0.519 14.111,1.844 16.360,3.994 17.992 C 5.322 18.999,6.852 19.631,8.633 19.909 C 9.286 20.011,10.714 20.011,11.367 19.909 C 12.593 19.718,13.710 19.356,14.691 18.833 C 16.431 17.903,17.903 16.431,18.833 14.691 C 19.356 13.710,19.718 12.593,19.909 11.367 C 20.011 10.714,20.011 9.286,19.909 8.633 C 19.631 6.850,18.999 5.322,17.990 3.991 C 16.337 1.813,13.976 0.444,11.250 0.083 C 10.860 0.031,9.700 -0.006,9.333 0.021 M10.421 1.275 C 11.516 2.393,12.500 3.920,13.112 5.453 C 13.216 5.711,13.300 5.940,13.300 5.961 C 13.300 5.991,12.498 6.000,10.000 6.000 C 7.502 6.000,6.700 5.991,6.700 5.961 C 6.700 5.877,7.088 4.957,7.320 4.491 C 7.887 3.354,8.582 2.348,9.459 1.394 L 9.817 1.006 9.984 1.003 C 10.151 1.000,10.152 1.001,10.421 1.275 M8.282 1.202 C 8.270 1.221,8.126 1.405,7.961 1.610 C 7.037 2.761,6.166 4.357,5.718 5.725 L 5.628 6.000 3.778 6.000 L 1.929 6.000 2.069 5.742 C 2.458 5.027,2.961 4.345,3.533 3.754 C 4.723 2.526,6.134 1.705,7.783 1.281 C 8.259 1.159,8.314 1.150,8.282 1.202 M12.100 1.251 C 13.964 1.698,15.670 2.757,16.908 4.233 C 17.199 4.580,17.711 5.335,17.931 5.742 L 18.071 6.000 16.222 6.000 L 14.372 6.000 14.282 5.725 C 13.836 4.366,12.984 2.799,12.048 1.617 C 11.888 1.415,11.742 1.231,11.725 1.208 C 11.680 1.152,11.697 1.154,12.100 1.251 M5.325 7.092 C 5.316 7.142,5.271 7.386,5.224 7.633 C 5.066 8.471,5.020 9.007,5.020 10.000 C 5.020 10.993,5.066 11.529,5.224 12.367 C 5.271 12.614,5.316 12.858,5.325 12.908 L 5.341 13.000 3.426 13.000 L 1.511 13.000 1.405 12.658 C 1.128 11.767,1.021 11.026,1.021 10.000 C 1.021 8.974,1.128 8.233,1.405 7.342 L 1.511 7.000 3.426 7.000 L 5.341 7.000 5.325 7.092 M13.697 7.341 C 13.901 8.300,13.978 9.026,13.978 10.000 C 13.978 10.974,13.901 11.700,13.697 12.659 L 13.624 13.000 9.995 13.000 C 8.000 13.000,6.367 12.993,6.367 12.985 C 6.367 12.977,6.315 12.710,6.252 12.393 C 6.077 11.510,6.022 10.942,6.022 10.000 C 6.022 9.058,6.077 8.490,6.252 7.607 C 6.315 7.290,6.367 7.023,6.367 7.015 C 6.367 7.007,8.000 7.000,9.995 7.000 L 13.624 7.000 13.697 7.341 M18.596 7.346 C 18.876 8.259,18.979 8.974,18.979 10.000 C 18.979 11.026,18.876 11.741,18.596 12.654 L 18.489 13.000 16.578 13.000 C 15.218 13.000,14.667 12.989,14.667 12.964 C 14.667 12.944,14.698 12.776,14.735 12.590 C 14.948 11.549,15.035 10.356,14.973 9.325 C 14.932 8.622,14.852 7.984,14.735 7.410 C 14.698 7.224,14.667 7.056,14.667 7.036 C 14.667 7.011,15.218 7.000,16.578 7.000 L 18.489 7.000 18.596 7.346 M5.718 14.275 C 6.170 15.655,7.032 17.231,7.982 18.416 C 8.158 18.636,8.287 18.821,8.270 18.827 C 8.217 18.844,7.474 18.645,7.060 18.502 C 5.695 18.031,4.559 17.304,3.533 16.246 C 2.961 15.656,2.458 14.973,2.069 14.258 L 1.929 14.000 3.778 14.000 L 5.628 14.000 5.718 14.275 M13.300 14.039 C 13.300 14.060,13.216 14.289,13.112 14.547 C 12.500 16.080,11.516 17.607,10.421 18.725 C 10.152 18.999,10.151 19.000,9.984 18.997 L 9.817 18.994 9.458 18.605 C 8.584 17.657,7.903 16.674,7.331 15.533 C 7.088 15.050,6.768 14.298,6.716 14.092 L 6.693 14.000 9.996 14.000 C 12.497 14.000,13.300 14.009,13.300 14.039 M17.931 14.258 C 17.854 14.400,17.652 14.727,17.482 14.983 C 16.483 16.493,15.028 17.682,13.367 18.344 C 12.805 18.569,11.821 18.858,11.729 18.826 C 11.714 18.821,11.845 18.637,12.020 18.417 C 12.987 17.200,13.822 15.670,14.282 14.275 L 14.372 14.000 16.222 14.000 L 18.071 14.000 17.931 14.258 " fill="#EC0000" stroke="none" fill-rule="evenodd"></path></svg>