<?xml version="1.0" encoding="UTF-8"?>
<svg width="24px" height="24px" viewBox="0 0 24 24" version="1.1" xmlns="http://www.w3.org/2000/svg" xmlns:xlink="http://www.w3.org/1999/xlink">
    <title>b. icons / a. lineal / 02. chanels / CHAN036   | team managament</title>
    <g id="b.-icons-/-a.-lineal-/-02.-chanels-/-CHAN036---|-team-managament" stroke="none" stroke-width="1" fill="none" fill-rule="evenodd">
        <g id="Group" fill="#EC0000">
            <path d="M13.2802,9.8608 C14.3816264,9.8608 15.1580844,10.3354787 15.4201753,11.1060934 C15.7604723,10.9147771 16.1899451,10.8092 16.6926,10.8092 L16.6926,10.8092 L16.812243,10.8237254 C16.9379069,10.8546947 17.138942,10.9017751 17.3591653,10.9486837 C17.4415128,10.9660772 17.4415128,10.9660772 17.5246982,10.9829596 C17.788846,11.0359341 17.993026,11.0668845 18.0653533,11.0662105 C18.1344525,11.0657618 18.335231,11.0337798 18.5953529,10.9804829 C18.6705963,10.9649118 18.6705963,10.9649118 18.7452004,10.9489404 C18.963,10.9019748 19.1630615,10.8548333 19.2886607,10.8237986 L19.2886607,10.8237986 L19.4086,10.8092 C20.7661023,10.8092 21.6206,11.5787786 21.6206,12.7112 L21.6206,12.7112 L21.6206,14.2182 C21.6206,15.9003875 21.2756446,17.563556 20.5946344,19.1198785 L20.5946344,19.1198785 L20.2721062,19.7257931 C20.7074085,19.8005479 21.1476745,19.8805036 21.5936595,19.9655504 C21.8649139,20.0172771 22.0428763,20.2791051 21.9911496,20.5503595 C21.9394229,20.8216139 21.6775949,20.9995763 21.4063405,20.9478496 C18.024525,20.3029563 14.985586,19.9567 11.951,19.9567 C8.95458104,19.9567 5.96713901,20.2949277 2.59248138,20.9300728 C2.3211037,20.9811488 2.05970329,20.8025591 2.00862723,20.5311814 C1.95755118,20.2598037 2.13614094,19.9984033 2.40751862,19.9473272 C2.85511555,19.8630849 3.29616768,19.7839627 3.73157298,19.7100586 L3.46927232,19.2524417 C2.73074642,17.6533454 2.3462,15.8877827 2.3462,14.0978 L2.3462,14.0978 L2.3462,12.7218 C2.3462,11.5839087 3.19984043,10.8098 4.5582,10.8098 L4.5582,10.8098 L4.67858245,10.8245083 C4.80473226,10.8558012 5.00549728,10.9033266 5.22380025,10.9506743 C5.29727397,10.9664985 5.29727397,10.9664985 5.3713564,10.9819387 L5.49632155,11.0070006 C5.69521288,11.0456448 5.84438664,11.06826 5.90187269,11.0688218 C5.97242796,11.0694812 6.17647193,11.0383081 6.44036902,10.9849734 C6.52351393,10.9679685 6.52351393,10.9679685 6.6058258,10.9504481 C6.82602309,10.9031828 7.02704407,10.855743 7.15268992,10.8245399 L7.15268992,10.8245399 L7.2732,10.8098 C7.77345067,10.8098 8.20107536,10.9146945 8.54150698,11.1045358 C8.79091032,10.3364224 9.5467631,9.8608 10.6492,9.8608 L10.6492,9.8608 L10.7618018,9.87364414 C10.8854809,9.90223148 11.0833759,9.94567442 11.3004053,9.98896655 C11.3826627,10.0052344 11.3826627,10.0052344 11.4658021,10.0210169 C11.726067,10.0698232 11.9269389,10.0982717 12.0009427,10.0978106 C12.0701571,10.0973597 12.2572155,10.0689264 12.4989815,10.0210337 C12.5753323,10.0057341 12.5753323,10.0057341 12.6509637,9.98998027 C12.8567017,9.94677403 13.0447772,9.90340059 13.1623569,9.87488539 L13.1623569,9.87488539 Z M19.4664942,11.8097786 C19.4002298,11.8258376 19.3217053,11.8444228 19.2351964,11.8642873 L18.9559921,11.9264714 C18.8768205,11.9434211 18.8768205,11.9434211 18.7960752,11.9601311 C18.4683558,12.0272782 18.230546,12.0651589 18.0732727,12.0661782 C17.9077886,12.0677247 17.6632299,12.0306537 17.3280646,11.9634366 C17.2384486,11.9452488 17.2384486,11.9452488 17.1508343,11.9267421 C16.9515249,11.8842882 16.7682264,11.8419609 16.6348759,11.8097708 C15.8591483,11.8253035 15.5166,12.1570788 15.5166,12.7112 L15.5166,12.7112 L15.5166,19.0592 C15.5166,19.0757479 15.5157961,19.092108 15.5142253,19.1082434 C16.7273384,19.2081645 17.9608324,19.3586299 19.2328487,19.5558538 L19.6943701,18.6861366 C20.3039046,17.2900442 20.6206,15.7631287 20.6206,14.2182 L20.6206,14.2182 L20.6206,12.7112 C20.6206,12.1688818 20.2537701,11.8256933 19.4664942,11.8097786 Z M7.33133563,11.8103833 C7.1979857,11.8428169 7.01483069,11.8854331 6.81569535,11.9281775 C6.72808398,11.9468266 6.72808398,11.9468266 6.6384682,11.9651553 C6.30305209,12.0329444 6.05835748,12.070328 5.89231424,12.0687761 C5.73428868,12.0672319 5.49677802,12.0289125 5.16919303,11.9612905 C5.08976312,11.9447356 5.08976312,11.9447356 5.0118385,11.9279523 C4.8151071,11.8852832 4.63305166,11.8427446 4.50009768,11.8103883 C3.71342403,11.8265005 3.3462,12.1725436 3.3462,12.7218 L3.3462,12.7218 L3.3462,14.0978 C3.3462,15.7436327 3.69957747,17.3660898 4.3571983,18.7945149 L4.3571983,18.7945149 L4.78361941,19.540082 C6.04109016,19.3475526 7.25588758,19.201007 8.45097556,19.1029475 L8.4502,12.7218 C8.4502,12.1606925 8.10715827,11.826148 7.33133563,11.8103833 Z M13.3372238,10.861302 C13.2123845,10.8909407 13.0417508,10.9297259 12.8564866,10.9686326 C12.7758032,10.9854393 12.7758032,10.9854393 12.693301,11.001972 C12.3879145,11.0624677 12.1621687,11.0967815 12.0073152,11.0977903 C11.846177,11.0987943 11.6068855,11.0649047 11.2814892,11.0038845 C11.1921283,10.9869206 11.1921283,10.9869206 11.1047833,10.9696459 C10.9073292,10.9302586 10.7259687,10.8909838 10.5947214,10.861251 C9.80884738,10.8744107 9.46580505,11.1746845 9.4502,11.6478 L9.4502,11.6478 L9.45086093,19.0320278 C10.2881661,18.9821029 11.1188513,18.9567 11.951,18.9567 C12.8041564,18.9567 13.6568495,18.9833573 14.51626,19.0356265 L14.5164862,11.6647156 C14.5003341,11.1875544 14.1320259,10.8754491 13.3372238,10.861302 Z M5.8994,3.9664 C7.3013964,3.9664 8.53261027,5.07126117 8.31135713,6.3978549 L8.31135713,6.3978549 L8.07038631,8.27971446 C7.90031946,9.36632481 7.02228389,10.1044 5.8994,10.1044 C4.77770395,10.1044 3.90250875,9.36650503 3.73044287,8.2658549 L3.73044287,8.2658549 L3.49419057,6.41652468 C3.27017599,5.07117864 4.49798397,3.9664 5.8994,3.9664 Z M18.0664,3.9664 C19.467961,3.9664 20.6966205,5.07119944 20.4753571,6.3978549 L20.2343863,8.27971446 C20.0642628,9.36668711 19.1889085,10.1044 18.0664,10.1044 C16.9443288,10.1044 16.0664521,9.36614282 15.8944429,8.2658549 L15.6581906,6.41652468 C15.4341863,5.07124071 16.6645489,3.9664 18.0664,3.9664 Z M12.0068,3.0001 C13.4094131,3.0001 14.6401387,4.1044805 14.4177571,5.4315549 L14.4177571,5.4315549 L14.1768762,7.31283823 C14.0080762,8.39965022 13.1299704,9.1381 12.0068,9.1381 C10.8851039,9.1381 10.0099088,8.40020503 9.83784287,7.2995549 L9.83784287,7.2995549 L9.60165295,5.45059843 C9.37645104,4.10441939 10.6046232,3.0001 12.0068,3.0001 Z M5.8994,4.9664 C5.06079353,4.9664 4.36999667,5.58797734 4.48335713,6.2709451 L4.48335713,6.2709451 L4.72038631,8.12508554 C4.81383114,8.72213378 5.26722569,9.1044 5.8994,9.1044 C6.53337579,9.1044 6.98909584,8.72132251 7.08044287,8.1389451 L7.08044287,8.1389451 L7.32219057,6.25227532 C7.4326587,5.58884595 6.7390294,4.9664 5.8994,4.9664 Z M18.0664,4.9664 C17.2270262,4.9664 16.5341052,5.58862905 16.6473571,6.2709451 L16.8843863,8.12508554 C16.9776898,8.72123068 17.4333243,9.1044 18.0664,9.1044 C18.6994747,9.1044 19.1529545,8.72222571 19.2444429,8.1389451 L19.4861906,6.25227532 C19.5967671,5.58819474 18.9052624,4.9664 18.0664,4.9664 Z M12.0068,4.0001 C11.1674749,4.0001 10.4767887,4.62113526 10.5907571,5.3046451 L10.5907571,5.3046451 L10.8277863,7.15878554 C10.9212311,7.75583378 11.3746257,8.1381 12.0068,8.1381 C12.6407765,8.1381 13.0961937,7.75511338 13.1868429,7.1726451 L13.1868429,7.1726451 L13.428653,5.28560157 C13.5397024,4.62178644 12.8468928,4.0001 12.0068,4.0001 Z" id="🌈-Color"></path>
        </g>
    </g>
</svg>