<svg xmlns="http://www.w3.org/2000/svg" xmlns:xlink="http://www.w3.org/1999/xlink" width="74" height="74"><path d="M14.060 37.000 L 14.060 63.023 32.930 63.023 L 51.800 63.023 51.800 61.852 L 51.800 60.681 34.071 60.650 L 16.342 60.618 16.342 37.000 L 16.342 13.382 29.259 13.350 L 42.177 13.319 42.209 17.605 L 42.242 21.892 46.466 21.924 L 50.690 21.957 50.690 29.170 L 50.690 36.383 51.862 36.383 L 53.033 36.383 53.033 28.334 L 53.033 20.285 48.460 15.631 L 43.886 10.977 28.973 10.977 L 14.060 10.977 14.060 37.000 M45.945 16.434 C 46.622 17.129,47.563 18.101,48.036 18.593 L 48.895 19.487 46.709 19.487 L 44.523 19.487 44.523 17.328 C 44.523 16.141,44.566 15.170,44.618 15.170 C 44.670 15.170,45.267 15.739,45.945 16.434 M23.063 27.503 L 23.063 28.983 33.547 28.983 L 44.030 28.983 44.030 27.503 L 44.030 26.023 33.547 26.023 L 23.063 26.023 23.063 27.503 M23.063 37.493 L 23.063 38.973 27.997 38.973 L 32.930 38.973 32.930 37.493 L 32.930 36.013 27.997 36.013 L 23.063 36.013 23.063 37.493 M47.607 37.374 C 46.681 37.501,44.933 38.023,44.215 38.386 C 41.717 39.649,39.611 42.080,38.742 44.701 C 36.406 51.746,41.614 58.953,49.041 58.953 C 54.236 58.953,58.689 55.257,59.658 50.139 C 59.911 48.804,59.814 46.399,59.460 45.202 C 58.121 40.679,54.220 37.574,49.562 37.325 C 48.928 37.291,48.048 37.313,47.607 37.374 M51.183 39.770 C 54.181 40.576,56.705 43.162,57.409 46.147 C 57.673 47.269,57.649 49.089,57.354 50.243 C 56.576 53.286,54.149 55.712,51.106 56.491 C 49.160 56.988,46.959 56.731,45.024 55.780 C 44.324 55.436,43.827 55.059,43.031 54.270 C 41.254 52.508,40.446 50.656,40.420 48.285 C 40.403 46.755,40.590 45.861,41.198 44.554 C 42.462 41.835,44.878 40.034,47.915 39.547 C 48.541 39.446,50.468 39.578,51.183 39.770 M47.895 43.596 C 46.749 43.804,45.833 44.299,45.570 44.853 C 45.400 45.211,45.376 45.700,45.409 48.159 L 45.448 51.044 45.810 51.422 C 46.009 51.629,46.481 51.923,46.859 52.074 C 47.465 52.318,47.767 52.349,49.457 52.349 C 51.147 52.349,51.448 52.318,52.055 52.074 C 52.432 51.923,52.904 51.629,53.103 51.422 L 53.465 51.044 53.502 48.165 C 53.546 44.752,53.519 44.636,52.552 44.110 C 51.860 43.734,50.396 43.418,49.395 43.429 C 49.056 43.433,48.381 43.508,47.895 43.596 M51.533 44.590 C 51.891 44.697,52.300 44.900,52.443 45.043 L 52.703 45.303 52.422 45.531 C 51.923 45.935,50.838 46.179,49.518 46.184 C 48.194 46.189,47.268 46.009,46.636 45.625 C 46.307 45.425,46.263 45.347,46.368 45.150 C 46.771 44.398,49.785 44.071,51.533 44.590 M47.334 46.832 C 48.633 47.230,51.146 47.094,52.457 46.555 C 52.649 46.477,52.677 46.515,52.642 46.816 C 52.500 48.052,48.201 48.386,46.530 47.291 C 46.201 47.076,46.122 46.421,46.440 46.543 C 46.544 46.583,46.946 46.713,47.334 46.832 M23.063 48.470 L 23.063 49.950 25.530 49.950 L 27.997 49.950 27.997 48.470 L 27.997 46.990 25.530 46.990 L 23.063 46.990 23.063 48.470 M47.237 48.566 C 47.628 48.699,48.282 48.755,49.457 48.755 C 51.036 48.755,51.489 48.684,52.457 48.283 C 52.823 48.131,52.683 48.942,52.293 49.225 C 51.511 49.795,49.111 50.009,47.663 49.638 C 46.699 49.391,46.322 49.109,46.272 48.595 C 46.237 48.244,46.262 48.202,46.457 48.283 C 46.580 48.334,46.931 48.462,47.237 48.566 M46.709 50.260 C 47.749 50.778,50.775 50.827,52.023 50.344 L 52.678 50.091 52.640 50.418 C 52.557 51.125,51.356 51.553,49.457 51.553 C 47.546 51.553,46.356 51.125,46.273 50.409 C 46.227 50.017,46.224 50.018,46.709 50.260 " stroke="none" fill-rule="evenodd" fill="black"></path></svg>