<?xml version="1.0" encoding="UTF-8"?>
<svg width="20px" height="20px" viewBox="0 0 20 20" version="1.1" xmlns="http://www.w3.org/2000/svg" xmlns:xlink="http://www.w3.org/1999/xlink">
    <title>Atoms/ico/normal size/clock-24</title>
    <g id="Page-1" stroke="none" stroke-width="1" fill="none" fill-rule="evenodd">
        <g id="Shape" transform="translate(-2.000000, -2.000000)" fill="#EC0000">
            <path d="M12,2.75 C17.1008212,2.75 21.25,6.89917881 21.25,12 C21.25,17.1008212 17.1008212,21.25 12,21.25 C6.89917881,21.25 2.75,17.1008212 2.75,12 C2.75,6.89917881 6.89917881,2.75 12,2.75 Z M12,4.75 C8.00257119,4.75 4.75,8.00257119 4.75,12 C4.75,15.9974288 8.00257119,19.25 12,19.25 C15.9974288,19.25 19.25,15.9974288 19.25,12 C19.25,8.00257119 15.9974288,4.75 12,4.75 Z M12,5.75 C12.5126375,5.75 12.9354788,6.13622433 12.9932692,6.63341833 L13,6.75 L13,11.382 L15.4470534,12.6058932 C15.8704548,12.8175939 16.0779497,13.2893182 15.9730413,13.7308797 L15.94025,13.8404737 L15.8941068,13.9478034 C15.7230926,14.2898319 15.3752281,14.5 14.99925,14.5 C14.8842737,14.5 14.7697365,14.4800914 14.6603887,14.4407113 L14.5529466,14.3948568 L11.552683,12.8947248 C11.2514979,12.743688 11.0490652,12.4535177 11.0077985,12.1248559 L11,12 L11,6.75 C11,6.19792881 11.4479288,5.75 12,5.75 Z"></path>
        </g>
    </g>
</svg>