<svg xmlns="http://www.w3.org/2000/svg" xmlns:xlink="http://www.w3.org/1999/xlink" width="24px" height="24px" viewBox="0 0 24 24" version="1.1">
    <title>Atoms/ico/normal size/file_csv-24</title>
    <g id="Atoms/ico/normal-size/file_csv-24" stroke="none" stroke-width="1" fill="none" fill-rule="evenodd">
        <path d="M5.5,2 L13.5,2 L13.5,2 C13.6355957,2 13.7539649,2.05753907 13.8422012,2.14661719 L13.9025268,2.2189331 L18.8295898,7.1459961 C18.9117676,7.21928714 18.9715234,7.31687501 18.9921387,7.42897852 L19,7.515625 L19,10 L19.0126953,10 C20.0585937,10 20.9185236,10.8123891 20.9945381,11.8392203 L21,11.9873047 L21,16.0126953 C21,17.0585937 20.1876109,17.9185236 19.1607797,17.9945381 L19,18 L19,21.5 C19,21.7456597 18.8233025,21.9496528 18.5899348,21.9919517 L18.5,22 L5.5,22 C5.25434027,22 5.05034722,21.8233025 5.00804827,21.5899348 L5,21.5 L5,18 L4.9873047,18 C3.94140629,18 3.08147639,17.1876109 3.00546189,16.1607797 L3,16.0126953 L3,11.9873047 C3,10.9414063 3.81238906,10.0814764 4.8392203,10.0054619 L5,10 L5,2.5 C5,2.2236328 5.2236328,2 5.5,2 Z M18,18 L6,18 L6,21 L18,21 L18,18 Z M19.0126953,11 L4.9873047,11 C4.48221264,11 4.06385025,11.3822844 4.0066612,11.8724095 L4,11.9873047 L4,16.0126953 C4,16.5177874 4.38228438,16.9361497 4.87240949,16.9933388 L4.9873047,17 L19.0126953,17 C19.5177874,17 19.9361497,16.6177156 19.9933388,16.1275905 L20,16.0126953 L20,11.9873047 C20,11.4822126 19.6177156,11.0638503 19.1275905,11.0066612 L19.0126953,11 Z M8.1395,16.1155 C8.4475,16.1155 8.6785,16.0605 8.9095,15.9725 C8.9755,15.714 9.0195,15.4225 9.047,15.164 C8.827,15.274 8.5685,15.3455 8.2275,15.3455 C7.6115,15.3455 7.166,14.8725 7.166,14.0255 C7.166,13.1785 7.584,12.733 8.233,12.733 C8.5135,12.733 8.772,12.788 8.9645,12.8705 C9.0305,12.678 9.0635,12.403 9.0635,12.1335 C8.838,12.029 8.5575,11.9685 8.145,11.9685 C7.0065,11.9685 6.22,12.7055 6.22,14.009 C6.22,15.318 6.957,16.1155 8.1395,16.1155 Z M11.6255,16.1155 C12.6375,16.1155 13.16,15.604 13.16,14.9 C13.16,14.3225 12.885,13.965 12.258,13.7285 L11.9005,13.591 C11.5265,13.448 11.356,13.3105 11.356,13.085 C11.356,12.8705 11.499,12.6835 11.9665,12.6835 C12.247,12.6835 12.577,12.744 12.918,12.8705 C12.9565,12.612 12.984,12.4195 13.0005,12.1555 C12.676,12.029 12.2965,11.9685 11.906,11.9685 C10.7895,11.9685 10.4375,12.546 10.4375,13.129 C10.4375,13.8 10.784,14.075 11.2735,14.284 L11.62,14.4325 C12.104,14.636 12.2415,14.746 12.2415,14.9715 C12.2415,15.252 12.016,15.384 11.609,15.384 C11.224,15.384 10.839,15.2795 10.553,15.109 C10.498,15.362 10.4705,15.582 10.4595,15.8515 C10.729,16.0165 11.18,16.1155 11.6255,16.1155 Z M16.5635,16 L17.735,12.0785 L16.8275,12.0785 L16.0465,15.087 L15.3095,12.0785 L14.314,12.0785 L15.535,16 L16.5635,16 Z M13.0023193,3 L6,3 L6,10 L18,10 L18,8.0136719 L13.5214844,8 C13.2775608,7.99913191 13.0745322,7.8238812 13.0317403,7.59153163 L13.0234375,7.5019531 L13.0023193,3 Z M14.0059204,3.7363892 L14.0214844,7.0019532 L17.2814331,7.0119019 L14.0059204,3.7363892 Z" id="icon-color" fill="#EC0000"/>
    </g>
</svg>
