<?xml version="1.0" encoding="UTF-8"?>
<svg width="25px" height="24px" viewBox="0 0 25 24" version="1.1" xmlns="http://www.w3.org/2000/svg" xmlns:xlink="http://www.w3.org/1999/xlink">
    <title>B12D01FE-F460-409B-8342-DDF774D47589</title>
    <g id="Styles" stroke="none" stroke-width="1" fill="none" fill-rule="evenodd">
        <g id="Icons" transform="translate(-1199.000000, -476.000000)" fill="#EC0000">
            <g id="atoms/ico/24/add-24-copy-17" transform="translate(1199.833333, 476.000000)">
                <g id="icon/20/calendar-20" transform="translate(2.000000, 5.000000)">
                    <path d="M10,-3.60600438e-12 C14.0424173,-3.60600438e-12 17.7401529,2.62735279 19.8918059,7.0279853 C20.0360647,7.32316279 20.0360647,7.67659056 19.8918059,7.97176806 C17.7401529,12.3726472 14.04219,15 10,15 C5.95780999,15 2.25984709,12.3726472 0.108194059,7.97176806 C-0.0360646863,7.67659056 -0.0360646863,7.32316279 0.108194059,7.0279853 C2.25984709,2.62735279 5.95758273,-3.60600438e-12 10,-3.60600438e-12 Z M10,2.01340323 C6.79981058,2.01340323 3.83627628,4.05384142 1.98853898,7.49987668 C3.83627628,10.9461586 6.79981058,12.9865968 10,12.9865968 C13.2001894,12.9865968 16.1637237,10.9461586 18.011461,7.49987668 C16.1637237,4.05384142 13.2001894,2.01340323 10,2.01340323 Z M10,3.63946039 C11.9614222,3.63946039 13.5571015,5.3712036 13.5571015,7.49987668 C13.5571015,9.62854976 11.9614222,11.360293 10,11.360293 C8.0385778,11.360293 6.44289849,9.62854976 6.44289849,7.49987668 C6.44289849,5.3712036 8.0385778,3.63946039 10,3.63946039 Z M10,5.65286361 C9.0615239,5.65286361 8.29810765,6.48137652 8.29810765,7.49987668 C8.29810765,8.51837683 9.0615239,9.34688975 10,9.34688975 C10.9384761,9.34688975 11.7018924,8.51837683 11.7018924,7.49987668 C11.7018924,6.48137652 10.9384761,5.65286361 10,5.65286361 Z" id="Combined-Shape"></path>
                </g>
            </g>
        </g>
    </g>
</svg>