<?xml version="1.0" encoding="UTF-8"?>
<svg width="25px" height="24px" viewBox="0 0 25 24" version="1.1" xmlns="http://www.w3.org/2000/svg" xmlns:xlink="http://www.w3.org/1999/xlink">
    <title>5BFE4221-A4FB-4E20-8BB6-FF62ED295A14</title>
    <g id="Styles" stroke="none" stroke-width="1" fill="none" fill-rule="evenodd">
        <g id="Icons" transform="translate(-827.000000, -476.000000)" fill="#444444">
            <g id="atoms/ico/24/add-24-copy-10" transform="translate(827.500000, 476.000000)">
                <path d="M7.27478777,3 C7.54729332,3 7.80509852,3.07382891 8.06024714,3.22285726 C8.2388399,3.34400947 8.39252289,3.49793897 8.50930752,3.67807122 L8.58979023,3.81798071 L9.36249781,5.43130451 C9.3756398,5.45725497 9.38801686,5.47161222 9.39594185,5.47736281 L9.4284547,5.48956902 L9.4692846,5.49476924 L19.1546978,5.49476924 C19.5403005,5.49476924 19.9111664,5.64909387 20.1797157,5.9142356 C20.4134773,6.14503109 20.562769,6.44409712 20.6006531,6.76942271 L20.6101865,6.93407931 L20.6099162,8.27341935 L22.0476022,8.27400956 C22.1591617,8.27400956 22.2685335,8.28494473 22.3772338,8.30853957 L22.53997,8.35364215 L22.7028357,8.41902761 C22.8876367,8.52348375 23.0458222,8.65402246 23.2034018,8.83931327 C23.3451151,9.03568548 23.4349021,9.2262033 23.4753176,9.438244 C23.5059448,9.59928233 23.5078185,9.7624022 23.4823351,9.92995712 L23.4477843,10.0990776 L20.7441921,19.93258 C20.663233,20.2401538 20.4773504,20.5048186 20.2194021,20.7021298 C20.0092281,20.8633004 19.7637853,20.9627076 19.5020254,20.9913664 L19.3431631,21 L1.95548875,21 C1.56973928,21 1.19889636,20.845936 0.93047082,20.5809165 C0.697940519,20.3513368 0.547769315,20.0445718 0.509608773,19.7156433 L0.5,19.5495868 L0.5,4.45003038 C0.5,4.06007514 0.659274771,3.68722124 0.93047082,3.41946636 C1.16073894,3.19212008 1.46584508,3.04633091 1.79131123,3.00931659 L1.95548875,3 L7.27478777,3 Z M22.0510098,9.60992067 C22.0597929,9.61638642 22.0634223,9.61871455 22.05937,9.61954821 L4.90345923,9.62039114 L4.84915475,9.62828717 L4.83444954,9.63360271 L4.83444954,9.63360271 C4.81956292,9.64589379 4.81085033,9.65576331 4.80451189,9.6695587 L2.08127831,19.5635116 L2.09290485,19.5870246 L2.11561478,19.6192258 L2.34688503,19.6203089 L2.34673745,19.6412903 L19.3427753,19.6417495 C19.3641838,19.6417495 19.3787226,19.6394953 19.3957681,19.6305373 L19.4243884,19.6115164 L19.4384777,19.5956714 L19.4499504,19.5684403 L22.1483011,9.76932257 L22.1602437,9.70546178 L22.1422249,9.66901146 C22.1288782,9.65248202 22.1237591,9.64861339 22.0510098,9.60992067 Z M7.31557769,4.35262581 L7.31744981,4.35722449 L1.95548875,4.35710189 C1.92000636,4.35710189 1.88894613,4.36973468 1.87161448,4.38693966 L1.8548331,4.41364412 L1.84818862,4.44964751 L1.8474676,15.339871 L3.49494816,9.32883488 C3.57512887,9.06838759 3.7134125,8.83874966 3.9038219,8.65718912 L4.02427481,8.55416023 C4.23424221,8.40453091 4.48544193,8.30920295 4.74614837,8.28158334 L4.90345923,8.27324382 L19.2613266,8.27225806 L19.2619979,6.93331358 C19.2619979,6.92310625 19.2574883,6.90919627 19.2459873,6.89235272 L19.2231819,6.86498332 C19.2152856,6.85591069 19.2021881,6.84834267 19.1845286,6.8443054 L19.1546978,6.84115082 L9.4692846,6.84115082 C9.19656115,6.84115082 8.93868188,6.76753514 8.69380679,6.62514177 C8.5528099,6.53802266 8.42813228,6.42664416 8.3273529,6.29623817 L8.25158508,6.18425806 L8.23170118,6.18453184 L7.37390707,4.40509319 C7.36469499,4.38394158 7.36420706,4.3833746 7.31557769,4.35262581 Z" id="Shape"></path>
            </g>
        </g>
    </g>
</svg>