<?xml version="1.0" encoding="UTF-8"?>
<svg width="24px" height="24px" viewBox="0 0 24 24" version="1.1" xmlns="http://www.w3.org/2000/svg" xmlns:xlink="http://www.w3.org/1999/xlink">
    <title>B. Digital,  Tech &amp; Docs/e. Arrows/BE180-arrow right | SYMBOLS, arrow, right, flecha, derecha</title>
    <g id="B.-Digital,--Tech-&amp;-Docs/e.-Arrows/BE180-arrow-right-|-SYMBOLS,-arrow,-right,-flecha,-derecha" stroke="none" stroke-width="1" fill="none" fill-rule="evenodd">
        <path d="M15.32,4.17197953 L22.85,11.6719795 C22.9497772,11.7645929 23.0044964,11.8959189 23,12.0319795 C23.0019661,12.1675653 22.9476584,12.2979039 22.85,12.3919795 L15.32,19.8919795 C15.2358883,19.978903 15.1209246,20.0291997 15,20.0319795 C14.8686909,20.0374535 14.7413108,19.9865015 14.65,19.8919795 C14.5553437,19.7980962 14.5021008,19.6702983 14.5021008,19.5369795 C14.5021008,19.4036608 14.5553437,19.2758628 14.65,19.1819795 L21.301,12.521 L1.5,12.5219795 C1.22771619,12.522034 1.00544567,12.3042089 1,12.0319795 C1,11.7558372 1.22385763,11.5319795 1.5,11.5319795 L21.289,11.531 L14.62,4.88197953 C14.4765182,4.76077807 14.4130626,4.5693905 14.4557131,4.38647589 C14.4983635,4.20356128 14.6399247,4.05997775 14.822216,4.0147372 C15.0045073,3.96949665 15.1967756,4.03023128 15.32,4.17197953 Z" id="icon-color" fill="#EC0000" fill-rule="nonzero"></path>
    </g>
</svg>