<?xml version="1.0" encoding="UTF-8"?>
<svg width="24px" height="24px" viewBox="0 0 24 24" version="1.1" xmlns="http://www.w3.org/2000/svg" xmlns:xlink="http://www.w3.org/1999/xlink">
    <title>b. icons / a. lineal / 04. functional / FUNC024   | digital</title>
    <g id="b.-icons-/-a.-lineal-/-04.-functional-/-FUNC024---|-digital" stroke="none" stroke-width="1" fill="none" fill-rule="evenodd">
        <g id="Group" fill="#EC0000">
            <path d="M4.5,2.0001 C5.88014237,2.0001 7,3.11995763 7,4.5001 C7,5.70888963 6.14095387,6.71801406 5.00037654,6.94995835 L5.00037654,9.55024165 C6.14095387,9.78218594 7,10.7913104 7,12.0001 C7,12.6376058 6.76106308,13.2195762 6.36790483,13.6612958 L10.3388042,17.6321952 C10.7805238,17.2390369 11.3624942,17.0001 12,17.0001 C13.2091481,17.0001 14.2185126,17.8596557 14.4500645,19.0007383 L17.0499355,19.0007383 C17.2814874,17.8596557 18.2908519,17.0001 19.5,17.0001 C20.8801424,17.0001 22,18.1199576 22,19.5001 C22,20.8802424 20.8801424,22.0001 19.5,22.0001 C18.2912104,22.0001 17.2820859,21.1410539 17.0501417,20.0004765 L14.4498583,20.0004765 C14.2179141,21.1410539 13.2087896,22.0001 12,22.0001 C10.6198576,22.0001 9.5,20.8802424 9.5,19.5001 C9.5,19.1221533 9.58398004,18.7637258 9.73428778,18.4424699 L5.55763009,14.2658122 C5.23637416,14.41612 4.87794668,14.5001 4.5,14.5001 C3.11985763,14.5001 2,13.3802424 2,12.0001 C2,10.7909519 2.85955572,9.78158743 4.00063828,9.5500355 L4.00063828,6.9501645 C2.85955572,6.71861257 2,5.70924811 2,4.5001 C2,3.11995763 3.11985763,2.0001 4.5,2.0001 Z M4.5,17.0001 C5.88014237,17.0001 7,18.1199576 7,19.5001 C7,20.8802424 5.88014237,22.0001 4.5,22.0001 C3.11985763,22.0001 2,20.8802424 2,19.5001 C2,18.1199576 3.11985763,17.0001 4.5,17.0001 Z M12,18.0001 C11.1721424,18.0001 10.5,18.6722424 10.5,19.5001 C10.5,20.3279576 11.1721424,21.0001 12,21.0001 C12.8278576,21.0001 13.5,20.3279576 13.5,19.5001 C13.5,18.6722424 12.8278576,18.0001 12,18.0001 Z M19.5,18.0001 C18.6721424,18.0001 18,18.6722424 18,19.5001 C18,20.3279576 18.6721424,21.0001 19.5,21.0001 C20.3278576,21.0001 21,20.3279576 21,19.5001 C21,18.6722424 20.3278576,18.0001 19.5,18.0001 Z M4.5,18.0001 C3.67214237,18.0001 3,18.6722424 3,19.5001 C3,20.3279576 3.67214237,21.0001 4.5,21.0001 C5.32785763,21.0001 6,20.3279576 6,19.5001 C6,18.6722424 5.32785763,18.0001 4.5,18.0001 Z M12,9.5001 C13.3801424,9.5001 14.5,10.6199576 14.5,12.0001 C14.5,13.3802424 13.3801424,14.5001 12,14.5001 C10.6198576,14.5001 9.5,13.3802424 9.5,12.0001 C9.5,10.6199576 10.6198576,9.5001 12,9.5001 Z M12,2.0001 C13.3801424,2.0001 14.5,3.11995763 14.5,4.5001 C14.5,4.87688852 14.4165339,5.23427728 14.2670921,5.55477572 L18.4453243,9.73300786 C18.7658227,9.58356614 19.1232115,9.5001 19.5,9.5001 C20.8801424,9.5001 22,10.6199576 22,12.0001 C22,13.3802424 20.8801424,14.5001 19.5,14.5001 C18.1198576,14.5001 17,13.3802424 17,12.0001 C17,11.3616341 17.2396572,10.778871 17.6338725,10.3369095 L13.6631905,6.36622747 C13.221229,6.76044285 12.6384659,7.0001 12,7.0001 C10.6198576,7.0001 9.5,5.88024237 9.5,4.5001 C9.5,3.11995763 10.6198576,2.0001 12,2.0001 Z M12,10.5001 C11.1721424,10.5001 10.5,11.1722424 10.5,12.0001 C10.5,12.8279576 11.1721424,13.5001 12,13.5001 C12.8278576,13.5001 13.5,12.8279576 13.5,12.0001 C13.5,11.1722424 12.8278576,10.5001 12,10.5001 Z M19.5,10.5001 C18.6721424,10.5001 18,11.1722424 18,12.0001 C18,12.8279576 18.6721424,13.5001 19.5,13.5001 C20.3278576,13.5001 21,12.8279576 21,12.0001 C21,11.1722424 20.3278576,10.5001 19.5,10.5001 Z M4.5,10.5001 C3.67214237,10.5001 3,11.1722424 3,12.0001 C3,12.8279576 3.67214237,13.5001 4.5,13.5001 C5.32785763,13.5001 6,12.8279576 6,12.0001 C6,11.1722424 5.32785763,10.5001 4.5,10.5001 Z M19.5,2.0001 C20.8801424,2.0001 22,3.11995763 22,4.5001 C22,5.88024237 20.8801424,7.0001 19.5,7.0001 C18.1198576,7.0001 17,5.88024237 17,4.5001 C17,3.11995763 18.1198576,2.0001 19.5,2.0001 Z M12,3.0001 C11.1721424,3.0001 10.5,3.67224237 10.5,4.5001 C10.5,5.32795763 11.1721424,6.0001 12,6.0001 C12.8278576,6.0001 13.5,5.32795763 13.5,4.5001 C13.5,3.67224237 12.8278576,3.0001 12,3.0001 Z M19.5,3.0001 C18.6721424,3.0001 18,3.67224237 18,4.5001 C18,5.32795763 18.6721424,6.0001 19.5,6.0001 C20.3278576,6.0001 21,5.32795763 21,4.5001 C21,3.67224237 20.3278576,3.0001 19.5,3.0001 Z M4.5,3.0001 C3.67214237,3.0001 3,3.67224237 3,4.5001 C3,5.32795763 3.67214237,6.0001 4.5,6.0001 C5.32785763,6.0001 6,5.32795763 6,4.5001 C6,3.67224237 5.32785763,3.0001 4.5,3.0001 Z" id="🌈-Color"></path>
        </g>
    </g>
</svg>