<svg xmlns="http://www.w3.org/2000/svg" xmlns:xlink="http://www.w3.org/1999/xlink" width="74" height="74"><path d="M14.060 37.000 L 14.060 63.023 32.930 63.023 L 51.800 63.023 51.800 61.852 L 51.800 60.681 34.071 60.650 L 16.342 60.618 16.342 37.000 L 16.342 13.382 29.259 13.350 L 42.177 13.319 42.209 17.605 L 42.242 21.892 46.466 21.924 L 50.690 21.957 50.690 29.170 L 50.690 36.383 51.862 36.383 L 53.033 36.383 53.033 28.334 L 53.033 20.285 48.460 15.631 L 43.886 10.977 28.973 10.977 L 14.060 10.977 14.060 37.000 M45.945 16.434 C 46.622 17.129,47.563 18.101,48.036 18.593 L 48.895 19.487 46.709 19.487 L 44.523 19.487 44.523 17.328 C 44.523 16.141,44.566 15.170,44.618 15.170 C 44.670 15.170,45.267 15.739,45.945 16.434 M23.063 27.503 L 23.063 28.983 33.547 28.983 L 44.030 28.983 44.030 27.503 L 44.030 26.023 33.547 26.023 L 23.063 26.023 23.063 27.503 M23.063 37.493 L 23.063 38.973 27.997 38.973 L 32.930 38.973 32.930 37.493 L 32.930 36.013 27.997 36.013 L 23.063 36.013 23.063 37.493 M47.607 37.374 C 46.681 37.501,44.933 38.023,44.215 38.386 C 41.717 39.649,39.611 42.080,38.742 44.701 C 36.406 51.746,41.614 58.953,49.041 58.953 C 54.236 58.953,58.689 55.257,59.658 50.139 C 59.911 48.804,59.814 46.399,59.460 45.202 C 58.121 40.679,54.220 37.574,49.562 37.325 C 48.928 37.291,48.048 37.313,47.607 37.374 M51.183 39.770 C 54.181 40.576,56.705 43.162,57.409 46.147 C 57.673 47.269,57.649 49.089,57.354 50.243 C 56.576 53.286,54.149 55.712,51.106 56.491 C 49.160 56.988,46.959 56.731,45.024 55.780 C 44.324 55.436,43.827 55.059,43.031 54.270 C 41.254 52.508,40.446 50.656,40.420 48.285 C 40.403 46.755,40.590 45.861,41.198 44.554 C 42.462 41.835,44.878 40.034,47.915 39.547 C 48.541 39.446,50.468 39.578,51.183 39.770 M48.473 43.444 C 48.475 44.073,48.766 49.837,48.837 50.659 C 48.839 50.676,49.145 50.690,49.518 50.690 C 49.891 50.690,50.199 50.676,50.201 50.659 C 50.246 50.363,50.561 44.088,50.563 43.444 L 50.567 42.550 49.518 42.550 L 48.470 42.550 48.473 43.444 M23.063 48.470 L 23.063 49.950 25.530 49.950 L 27.997 49.950 27.997 48.470 L 27.997 46.990 25.530 46.990 L 23.063 46.990 23.063 48.470 M48.649 52.473 C 48.416 52.706,48.347 52.905,48.347 53.342 C 48.347 54.094,48.738 54.513,49.441 54.513 C 50.102 54.513,50.297 54.422,50.510 54.011 C 50.791 53.467,50.740 52.825,50.387 52.473 C 49.960 52.045,49.077 52.045,48.649 52.473 " stroke="none" fill-rule="evenodd" fill="black"></path></svg>