<?xml version="1.0" encoding="utf-8"?>
<!-- Generator: Adobe Illustrator 23.0.4, SVG Export Plug-In . SVG Version: 6.00 Build 0)  -->
<svg version="1.1" id="Capa_1" xmlns="http://www.w3.org/2000/svg" xmlns:xlink="http://www.w3.org/1999/xlink" x="0px" y="0px"
	 viewBox="0 0 24 25" style="enable-background:new 0 0 24 25;" xml:space="preserve">
<style type="text/css">
	.st0{fill:#FFFFFF;}
</style>
<title>picture</title>
<desc>Created with Sketch.</desc>
<g id="Desktop">
	<g transform="translate(-516.000000, -677.000000)">
		<g id="picture" transform="translate(516.000000, 677.000000)">
			<path id="Shape" class="st0" d="M8.4,11.9c0.9,0,1.7-0.7,1.7-1.7c0-0.9-0.7-1.7-1.7-1.7s-1.7,0.7-1.7,1.7S7.5,11.9,8.4,11.9z
				 M8.4,9.2c0.6,0,1.1,0.5,1.1,1.1c0,0.6-0.5,1.1-1.1,1.1c-0.6,0-1.1-0.5-1.1-1.1C7.4,9.7,7.8,9.2,8.4,9.2z"/>
			<path class="st0" d="M4.6,4.8v11.9v3.6h14.9v-3.6V4.8H4.6z M5.2,5.4h13.7v8l-3.1-2.8c-0.1-0.1-0.1-0.1-0.2-0.1
				c-0.1,0-0.2,0-0.2,0.1l-2.9,3.2L11,12.3c-0.1-0.1-0.3-0.1-0.4,0l-5,4.4H5.2V5.4z M18.8,19.6H5.2v-2.4h13.7V19.6z M6.5,16.7
				l4.3-3.8l3.1,3.1c0.1,0.1,0.3,0.1,0.4,0c0.1-0.1,0.1-0.3,0-0.4l-1.4-1.4l2.7-3l3.3,3v2.5H6.5z"/>
		</g>
	</g>
</g>
</svg>
