<svg xmlns="http://www.w3.org/2000/svg" xmlns:xlink="http://www.w3.org/1999/xlink" width="74" height="74"><path d="M14.060 37.000 L 14.060 63.023 32.930 63.023 L 51.800 63.023 51.800 61.852 L 51.800 60.681 34.071 60.650 L 16.342 60.618 16.342 37.000 L 16.342 13.382 29.259 13.350 L 42.177 13.319 42.209 17.605 L 42.242 21.892 46.466 21.924 L 50.690 21.957 50.690 29.170 L 50.690 36.383 51.862 36.383 L 53.033 36.383 53.033 28.334 L 53.033 20.285 48.460 15.631 L 43.886 10.977 28.973 10.977 L 14.060 10.977 14.060 37.000 M45.945 16.434 C 46.622 17.129,47.563 18.101,48.036 18.593 L 48.895 19.487 46.709 19.487 L 44.523 19.487 44.523 17.328 C 44.523 16.141,44.566 15.170,44.618 15.170 C 44.670 15.170,45.267 15.739,45.945 16.434 M23.063 27.503 L 23.063 28.983 33.547 28.983 L 44.030 28.983 44.030 27.503 L 44.030 26.023 33.547 26.023 L 23.063 26.023 23.063 27.503 M23.063 37.493 L 23.063 38.973 27.997 38.973 L 32.930 38.973 32.930 37.493 L 32.930 36.013 27.997 36.013 L 23.063 36.013 23.063 37.493 M47.607 37.374 C 46.681 37.501,44.933 38.023,44.215 38.386 C 41.717 39.649,39.611 42.080,38.742 44.701 C 36.406 51.746,41.614 58.953,49.041 58.953 C 54.236 58.953,58.689 55.257,59.658 50.139 C 59.911 48.804,59.814 46.399,59.460 45.202 C 58.121 40.679,54.220 37.574,49.562 37.325 C 48.928 37.291,48.048 37.313,47.607 37.374 M51.183 39.770 C 54.181 40.576,56.705 43.162,57.409 46.147 C 57.673 47.269,57.649 49.089,57.354 50.243 C 56.576 53.286,54.149 55.712,51.106 56.491 C 49.160 56.988,46.959 56.731,45.024 55.780 C 44.324 55.436,43.827 55.059,43.031 54.270 C 41.254 52.508,40.446 50.656,40.420 48.285 C 40.403 46.755,40.590 45.861,41.198 44.554 C 42.462 41.835,44.878 40.034,47.915 39.547 C 48.541 39.446,50.468 39.578,51.183 39.770 M43.921 45.145 C 43.691 45.197,43.308 45.435,43.068 45.674 C 42.704 46.039,42.625 46.215,42.581 46.765 C 42.537 47.306,42.579 47.496,42.817 47.841 C 43.368 48.641,44.464 48.945,45.279 48.523 C 45.644 48.335,45.669 48.341,46.326 48.794 C 47.180 49.382,47.262 49.486,47.312 50.042 C 47.357 50.546,47.628 50.973,48.147 51.361 C 48.625 51.717,49.795 51.717,50.273 51.361 C 50.800 50.967,51.055 50.549,51.090 50.024 C 51.119 49.578,51.184 49.501,51.946 48.994 C 52.740 48.465,52.786 48.451,53.224 48.595 C 53.833 48.796,54.649 48.689,55.133 48.345 C 56.521 47.356,55.779 45.129,54.054 45.103 C 53.321 45.092,52.728 45.401,52.313 46.010 C 52.070 46.366,52.034 46.540,52.088 47.084 L 52.152 47.733 51.448 48.211 C 50.749 48.686,50.743 48.687,50.459 48.458 C 50.079 48.150,49.301 47.950,48.875 48.051 C 48.686 48.095,48.329 48.243,48.082 48.378 L 47.632 48.624 46.982 48.128 C 46.339 47.638,46.331 47.625,46.322 46.950 C 46.314 46.461,46.238 46.170,46.052 45.920 C 45.568 45.271,44.726 44.965,43.921 45.145 M45.101 46.271 C 45.628 46.767,45.366 47.634,44.642 47.793 C 43.882 47.960,43.247 47.176,43.596 46.501 C 43.696 46.307,43.849 46.121,43.935 46.086 C 44.309 45.935,44.832 46.019,45.101 46.271 M54.637 46.250 C 55.009 46.623,54.966 47.277,54.546 47.607 C 53.947 48.078,53.033 47.680,53.033 46.948 C 53.033 46.137,54.072 45.685,54.637 46.250 M23.063 48.470 L 23.063 49.950 25.530 49.950 L 27.997 49.950 27.997 48.470 L 27.997 46.990 25.530 46.990 L 23.063 46.990 23.063 48.470 M49.894 49.266 C 50.293 49.665,50.276 50.013,49.836 50.453 C 49.392 50.897,49.094 50.907,48.603 50.494 C 48.157 50.119,48.119 49.746,48.479 49.288 C 48.822 48.852,49.470 48.842,49.894 49.266 " stroke="none" fill-rule="evenodd" fill="black"></path></svg>