<!-- Generated by IcoMoon.io -->
<svg version="1.1" xmlns="http://www.w3.org/2000/svg" width="42" height="32" viewBox="0 0 42 32">
<title>communicationChanel</title>
<path d="M30.56 9.504c2.944 0 5.728 1.152 7.808 3.264s3.232 4.896 3.232 7.872c0 2.976-1.152 5.792-3.232 7.904s-4.864 3.264-7.808 3.264c-2.944 0-5.728-1.152-7.808-3.264s-3.232-4.928-3.232-7.904c0-2.976 1.152-5.76 3.232-7.872s4.864-3.264 7.808-3.264zM26.176 26.336c-0.672 0.224-1.312 0.48-1.856 0.8 1.024 1.024 2.24 1.76 3.584 2.176-0.704-0.896-1.28-1.92-1.728-2.976zM35.264 26.432c-0.416 0.96-0.96 1.888-1.568 2.72 1.152-0.416 2.208-1.12 3.136-2.016-0.48-0.256-1.024-0.512-1.568-0.704zM31.584 25.664v2.784c0.672-0.768 1.216-1.632 1.664-2.56-0.544-0.096-1.088-0.16-1.664-0.224v0zM29.536 25.664c-0.448 0.032-0.896 0.096-1.312 0.16 0.352 0.8 0.8 1.536 1.312 2.208v0zM25.056 21.696h-3.392c0.16 1.376 0.608 2.656 1.312 3.808 0.768-0.448 1.632-0.832 2.528-1.152-0.224-0.864-0.384-1.76-0.448-2.656v0zM39.488 21.696h-3.072c-0.064 0.96-0.224 1.888-0.48 2.784 0.8 0.288 1.536 0.608 2.208 1.024 0.736-1.152 1.184-2.432 1.344-3.808v0zM26.624-0.192c1.056 0 1.92 0.8 2.016 1.824l0.032 0.224v5.376c-6.016 1.152-10.72 5.92-11.712 11.936h-10.88l-4.928 4.96c-0.384 0.416-1.056 0.192-1.152-0.352v-21.92c0-1.056 0.8-1.92 1.824-2.048h24.8zM34.336 21.696h-2.752v1.888c0.832 0.064 1.6 0.16 2.368 0.32 0.192-0.704 0.32-1.472 0.384-2.208v0zM29.536 21.696h-2.4c0.064 0.736 0.192 1.44 0.352 2.144 0.672-0.128 1.344-0.224 2.048-0.256v0-1.888zM27.552 17.248c-0.192 0.768-0.352 1.536-0.416 2.368v0h2.4v-2.144c-0.672-0.032-1.344-0.096-1.984-0.224zM33.888 17.184c-0.736 0.16-1.504 0.256-2.304 0.288v0 2.144h2.752c-0.064-0.832-0.224-1.664-0.448-2.432zM23.104 15.616c-0.8 1.184-1.28 2.56-1.44 4v0h3.392c0.096-0.992 0.256-1.952 0.512-2.88-0.896-0.288-1.728-0.672-2.464-1.12zM38.048 15.616c-0.672 0.384-1.376 0.736-2.144 1.024 0.256 0.928 0.448 1.952 0.512 2.976v0h3.072c-0.16-1.44-0.672-2.816-1.44-4zM29.536 13.28c-0.48 0.608-0.896 1.28-1.216 1.984 0.384 0.064 0.8 0.096 1.216 0.128v0zM31.584 12.832v2.56c0.544-0.032 1.056-0.096 1.568-0.192-0.416-0.832-0.928-1.632-1.568-2.368v0zM27.904 11.968c-1.28 0.416-2.432 1.088-3.456 2.048 0.576 0.288 1.152 0.544 1.824 0.768 0.416-0.992 0.96-1.952 1.632-2.816zM33.696 12.128c0.576 0.8 1.088 1.632 1.472 2.528 0.544-0.16 1.056-0.384 1.504-0.64-0.864-0.832-1.888-1.472-2.976-1.888zM5.696 7.872c-0.896 0-1.632 0.736-1.632 1.632s0.736 1.6 1.632 1.6c0.896 0 1.632-0.736 1.632-1.6s-0.736-1.632-1.632-1.632zM11.808 7.872c-0.896 0-1.632 0.736-1.632 1.632s0.736 1.6 1.632 1.6c0.896 0 1.632-0.736 1.632-1.6s-0.736-1.632-1.632-1.632zM17.888 7.872c-0.896 0-1.6 0.736-1.6 1.632s0.704 1.6 1.6 1.6c0.928 0 1.632-0.736 1.632-1.6s-0.704-1.632-1.632-1.632z"></path>
</svg>
