<?xml version="1.0" encoding="UTF-8" standalone="no"?>
<!-- Generated by IcoMoon.io -->

<svg
   xmlns:dc="http://purl.org/dc/elements/1.1/"
   xmlns:cc="http://creativecommons.org/ns#"
   xmlns:rdf="http://www.w3.org/1999/02/22-rdf-syntax-ns#"
   xmlns:svg="http://www.w3.org/2000/svg"
   xmlns="http://www.w3.org/2000/svg"
   xmlns:sodipodi="http://sodipodi.sourceforge.net/DTD/sodipodi-0.dtd"
   xmlns:inkscape="http://www.inkscape.org/namespaces/inkscape"
   version="1.1"
   width="14"
   height="16"
   viewBox="0 0 14 16"
   id="svg6"
   sodipodi:docname="i-padlock--white.svg"
   inkscape:version="0.92.3 (2405546, 2018-03-11)">
  <metadata
     id="metadata12">
    <rdf:RDF>
      <cc:Work
         rdf:about="">
        <dc:format>image/svg+xml</dc:format>
        <dc:type
           rdf:resource="http://purl.org/dc/dcmitype/StillImage" />
        <dc:title>i-padlock</dc:title>
      </cc:Work>
    </rdf:RDF>
  </metadata>
  <defs
     id="defs10" />
  <sodipodi:namedview
     pagecolor="#ffffff"
     bordercolor="#666666"
     borderopacity="1"
     objecttolerance="10"
     gridtolerance="10"
     guidetolerance="10"
     inkscape:pageopacity="0"
     inkscape:pageshadow="2"
     inkscape:window-width="1366"
     inkscape:window-height="705"
     id="namedview8"
     showgrid="false"
     inkscape:zoom="7.375"
     inkscape:cx="-6.0338983"
     inkscape:cy="16"
     inkscape:window-x="253"
     inkscape:window-y="1072"
     inkscape:window-maximized="1"
     inkscape:current-layer="svg6" />
  <title
     id="title2">i-padlock</title>
  <path
     d="m 7.0169988,8.8637238 c 0.6708493,0 1.2195914,0.4879352 1.2195914,1.0366768 0,0.3658294 -0.182914,0.6708504 -0.5487421,0.8537644 v 1.219592 c 0,0.30502 -0.3050211,0.548741 -0.6708493,0.548741 -0.3658281,0 -0.6708492,-0.243721 -0.6708492,-0.548741 V 10.754165 C 6.0411274,10.571251 5.7974074,10.26623 5.7974074,9.9004006 c 0,-0.5487416 0.5487422,-1.0366768 1.2195914,-1.0366768 z M 11.346621,5.936606 H 10.249138 V 3.4974236 c 0,-1.768333 -1.4638066,-3.17133262 -3.2321392,-3.17133262 -1.7683336,0 -3.2321391,1.46380622 -3.2321391,3.17133262 V 5.936606 H 2.6873752 c -0.9758703,0 -1.76833252,0.7929567 -1.76833252,1.7683331 V 13.80339 c 0,0.97587 0.79295732,1.768332 1.76833252,1.768332 h 8.6597408 c 0.975871,0 1.768333,-0.792955 1.768333,-1.768332 V 7.7049391 c 0,-0.9758708 -0.792956,-1.7683331 -1.768333,-1.7683331 z M 5.0044512,3.4974236 c 0,-1.0974837 0.9145692,-1.951247 2.0125476,-1.951247 1.0979784,0 2.0125477,0.8537633 2.0125477,1.951247 V 5.936606 H 4.9436441 V 3.4974236 Z M 11.895857,13.80339 c 0,0.305021 -0.243719,0.610043 -0.610042,0.610043 H 2.6873752 c -0.305021,0 -0.6100421,-0.243721 -0.6100421,-0.610043 V 7.7049391 c 0,-0.3050214 0.2437201,-0.6100428 0.6100421,-0.6100428 h 8.5984398 c 0.305022,0 0.610042,0.2437205 0.610042,0.6100428 z"
     id="path4"
     style="fill:#ffffff;stroke-width:1"
     inkscape:connector-curvature="0" />
</svg>
