<?xml version="1.0" encoding="utf-8"?>
<!-- Generator: Adobe Illustrator 23.0.1, SVG Export Plug-In . SVG Version: 6.00 Build 0)  -->
<svg version="1.1" id="Capa_1" xmlns="http://www.w3.org/2000/svg" xmlns:xlink="http://www.w3.org/1999/xlink" x="0px" y="0px"
	 viewBox="0 0 22 19" style="enable-background:new 0 0 22 19;" xml:space="preserve">
<style type="text/css">
	.st0{fill-rule:evenodd;clip-rule:evenodd;fill:#EC0000;}
</style>
<g id="Chatbot">
	<g id="input-enviar" transform="translate(-322.000000, -26.000000)">
		<path id="Fill-1" class="st0" d="M343.3,34.9L323,26.2c-0.2-0.1-0.5-0.1-0.7,0.1c-0.2,0.2-0.3,0.5-0.2,0.7l2.5,7.3l7.7,0.8
			c0.2,0,0.2,0.3,0,0.3l-7.2,1.2l-2.8,7.7c-0.1,0.2,0,0.5,0.2,0.7c0.2,0.2,0.5,0.2,0.7,0.1l20.3-9c0.2-0.1,0.4-0.4,0.4-0.6
			C343.8,35.1,343.5,35,343.3,34.9z"/>
	</g>
</g>
</svg>
