<!-- Generated by IcoMoon.io -->
<svg version="1.1" xmlns="http://www.w3.org/2000/svg" width="32" height="32" viewBox="0 0 32 32">
<title>padlock</title>
<path d="M16.032 17.92c-0.064 0-0.128 0-0.192 0-1.248 0-2.272 0.96-2.4 2.144v0.032c0.032 0.8 0.512 1.472 1.184 1.792v0 2.56c0.064 0.672 0.608 1.184 1.28 1.184 0.032 0 0.096 0 0.128 0v0c0 0 0.064 0 0.096 0 0.672 0 1.216-0.512 1.28-1.184v0-2.56c0.672-0.32 1.152-0.992 1.184-1.792v0c-0.128-1.216-1.152-2.176-2.4-2.176-0.064 0-0.128 0-0.192 0h0.032zM22.784 11.744v-5.12c0-3.776-3.008-6.784-6.752-6.784s-6.784 3.008-6.784 6.784v5.12h-2.272c0 0 0 0 0 0-2.080 0-3.776 1.696-3.776 3.776v12.768c0 2.048 1.696 3.744 3.776 3.744 0 0 0 0 0 0h18.080c0 0 0 0 0 0 2.080 0 3.776-1.696 3.776-3.744v-12.768c0-2.080-1.696-3.776-3.776-3.776 0 0 0 0 0 0zM11.744 6.624c0.096-2.304 1.984-4.096 4.256-4.096s4.192 1.792 4.288 4.064v5.152h-8.544zM26.304 28.288c0 0.672-0.544 1.248-1.248 1.248h-18.080c-0.704 0-1.248-0.576-1.248-1.248v0-12.768c0-0.704 0.544-1.28 1.248-1.28v0h18.080c0.704 0 1.248 0.576 1.248 1.28v0z"></path>
</svg>
