<svg width="24" height="25" viewBox="0 0 24 25" fill="none" xmlns="http://www.w3.org/2000/svg">
<path fill-rule="evenodd" clip-rule="evenodd" d="M18.3886 8.39998C18.2683 4.96352 15.4632 2.21512 12.0201 2.21512C8.50139 2.21512 5.64866 5.0872 5.64866 8.63007L5.64846 9.87381C3.87263 10.1012 2.5 11.6273 2.5 13.4762C2.5 15.4821 4.11546 17.1079 6.10864 17.1079C6.26984 17.1079 6.41326 17.0313 6.50503 16.9129C6.59511 16.8217 6.65078 16.696 6.65078 16.5572V8.63007L6.65526 8.40723C6.77134 5.52481 9.129 3.22392 12.0201 3.22392C14.9863 3.22392 17.3905 5.64417 17.3905 8.63007L17.3903 16.1671L17.3845 16.3939C17.3034 17.9727 16.38 19.3663 15.0179 20.0632L15.0171 19.428C15.0171 19.1494 14.7928 18.9236 14.516 18.9236H11.7702C10.8013 18.9236 10.0165 19.714 10.0165 20.689C10.0165 21.6639 10.8013 22.4544 11.7702 22.4544H14.516C14.7928 22.4544 15.0171 22.2285 15.0171 21.95L15.0181 21.1683C16.7467 20.4812 17.9993 18.9239 18.315 17.0829C20.108 16.8718 21.5 15.3373 21.5 13.476C21.5 11.6418 20.1481 10.1248 18.3928 9.87916L18.3926 8.63007L18.3886 8.39998ZM11.7702 19.9324H14.015V21.4456H11.7702C11.3549 21.4456 11.0186 21.1069 11.0186 20.689C11.0186 20.271 11.3549 19.9324 11.7702 19.9324ZM5.64833 10.8941C4.42818 11.1128 3.50212 12.1857 3.50212 13.4762C3.50212 14.7668 4.42818 15.8396 5.64833 16.0584V10.8941ZM20.4979 13.476C20.4979 14.7518 19.592 15.8153 18.3924 16.0505V10.9016C19.592 11.1368 20.4979 12.2003 20.4979 13.476Z" fill="#EC0000"/>
</svg>
