<!-- Generated by IcoMoon.io -->
<svg version="1.1" xmlns="http://www.w3.org/2000/svg" width="41" height="32" viewBox="0 0 41 32">
<title>comm</title>
<path d="M29.536 10.72c2.752 0 5.344 1.056 7.328 2.944s3.008 4.416 3.008 7.104c0 2.688-1.056 5.216-3.040 7.136s-4.544 2.944-7.296 2.944c-2.784 0-5.376-1.056-7.328-2.944s-3.040-4.448-3.040-7.136c0-2.688 1.088-5.216 3.040-7.104s4.544-2.944 7.328-2.944zM25.408 25.888c-0.64 0.224-1.216 0.448-1.76 0.736 0.96 0.928 2.112 1.6 3.392 1.984-0.672-0.832-1.216-1.76-1.632-2.72zM33.92 25.984c-0.384 0.864-0.864 1.696-1.472 2.464 1.088-0.384 2.080-0.992 2.944-1.824-0.448-0.224-0.928-0.448-1.472-0.64zM30.496 25.312v2.496c0.608-0.672 1.12-1.472 1.536-2.304-0.48-0.096-1.024-0.16-1.536-0.192v0zM28.544 25.312c-0.416 0.032-0.832 0.064-1.216 0.128 0.32 0.704 0.736 1.376 1.216 1.984v0zM26.688 0.704c1.6 0 2.976 1.184 3.168 2.848v0 5.344c-0.032 0-0.064 0-0.096 0-0.608 0-1.184 0.032-1.76 0.096v-5.632c-0.032-0.288-0.32-0.512-0.672-0.512v0h-24.192c-0.352 0.032-0.576 0.288-0.576 0.576v0 18.912l4.096-3.968h10.72c-0.128 0.768-0.224 1.536-0.224 2.336h-9.248l-4.224 4.128c-1.056 1.024-2.752 0.544-3.2-0.896v0l-0.032-0.192-0.032-0.256v-19.648c0-1.632 1.248-2.944 2.912-3.104v0l0.288-0.032zM24.384 21.728h-3.232c0.16 1.216 0.576 2.4 1.28 3.424 0.704-0.416 1.504-0.768 2.336-1.024-0.192-0.8-0.352-1.6-0.384-2.4v0zM37.888 21.728h-2.88c-0.064 0.832-0.192 1.696-0.416 2.496 0.736 0.256 1.408 0.576 2.048 0.928 0.672-1.024 1.088-2.208 1.248-3.424v0zM33.056 21.728h-2.56v1.696c0.768 0.064 1.504 0.16 2.208 0.288 0.192-0.64 0.32-1.312 0.352-1.984v0zM28.544 21.728h-2.24c0.064 0.64 0.192 1.312 0.352 1.92 0.608-0.096 1.248-0.192 1.888-0.224v0-1.696zM26.72 17.696c-0.224 0.704-0.352 1.408-0.416 2.144v0h2.24v-1.92c-0.608-0.032-1.248-0.096-1.824-0.224zM32.672 17.664c-0.704 0.128-1.44 0.224-2.176 0.256v0 1.92h2.56c-0.064-0.768-0.192-1.472-0.384-2.176zM22.528 16.256c-0.736 1.056-1.216 2.304-1.376 3.584v0h3.232c0.064-0.896 0.192-1.76 0.448-2.592-0.832-0.256-1.632-0.608-2.304-0.992zM36.544 16.256c-0.608 0.352-1.312 0.64-2.016 0.896 0.256 0.864 0.416 1.76 0.48 2.688v0h2.88c-0.16-1.312-0.608-2.528-1.344-3.584zM28.544 14.112c-0.416 0.576-0.8 1.184-1.12 1.792 0.352 0.064 0.736 0.096 1.12 0.128v0zM30.496 13.728v2.304c0.48-0.032 0.992-0.096 1.44-0.16-0.384-0.768-0.864-1.472-1.44-2.144v0zM27.040 12.96c-1.216 0.352-2.304 0.992-3.232 1.824 0.512 0.288 1.088 0.512 1.664 0.704 0.416-0.896 0.928-1.76 1.568-2.528zM32.448 13.12c0.544 0.704 1.024 1.472 1.408 2.272 0.48-0.16 0.96-0.384 1.408-0.608-0.832-0.736-1.792-1.312-2.816-1.664zM7.904 12.16c0.832 0 1.504-0.64 1.504-1.44s-0.672-1.472-1.504-1.472c-0.864 0-1.536 0.672-1.536 1.472s0.672 1.44 1.536 1.44zM13.632 12.16c0.832 0 1.504-0.64 1.504-1.44s-0.672-1.472-1.504-1.472c-0.864 0-1.536 0.672-1.536 1.472s0.672 1.44 1.536 1.44zM19.328 12.16c0.864 0 1.536-0.64 1.536-1.44s-0.672-1.472-1.536-1.472c-0.832 0-1.504 0.672-1.504 1.472s0.672 1.44 1.504 1.44z"></path>
</svg>
