<svg width="24" height="24" viewBox="0 0 24 24" fill="none" xmlns="http://www.w3.org/2000/svg">
<path d="M7.4084 3.94646C9.95381 1.35117 14.0793 1.35117 16.6248 3.94654C19.1376 6.50967 19.1084 10.6192 16.6372 13.3334L16.5251 13.4502L16.33 13.631L15.9742 13.9117C15.442 14.3248 15.2654 14.6515 15.2464 15.7066L15.2447 15.9132L15.2453 16.2716C15.8071 16.6041 16.1992 17.2023 16.2562 17.8977L16.2633 18.0734V19.9181C16.2633 21.0158 15.4305 21.9148 14.3746 21.9943L14.2223 22H9.4964C8.41993 22 7.53796 21.151 7.46 20.0735L7.4544 19.9181V18.0734C7.4544 17.1771 8.00967 16.4134 8.7885 16.12L8.78844 15.9132C8.78844 14.7638 8.64316 14.3938 8.15458 13.9883L7.7031 13.631L7.62652 13.562C7.57217 13.513 7.52022 13.4633 7.47369 13.4158L7.40833 13.3465C4.86388 10.7511 4.86388 6.54193 7.4084 3.94646ZM14.2223 16.9881H9.4964C9.46698 16.9881 9.43785 16.9893 9.40903 16.9917L9.34491 17.0083L9.27076 17.0134C8.82782 17.1099 8.48745 17.4878 8.4377 17.9549L8.43143 18.0734V19.9181C8.43143 20.4777 8.84665 20.9381 9.38033 20.997L9.4964 21.0034H14.2223C14.7706 21.0034 15.2223 20.5802 15.2801 20.0364L15.2863 19.9181V18.0734C15.2863 17.474 14.8097 16.9881 14.2223 16.9881ZM8.0992 4.65123C5.9363 6.85743 5.9363 10.4356 8.11157 12.6549L8.18927 12.7358L8.33199 12.868L8.65055 13.1186C9.41522 13.7121 9.73 14.3118 9.76261 15.6662L9.765 15.991H11.365L11.3655 12.1386L9.79081 9.46149C9.652 9.22551 9.72701 8.91942 9.95837 8.77783C10.164 8.65198 10.424 8.69845 10.5767 8.87607L10.6286 8.94875L11.852 11.03L13.0766 8.94875C13.2 8.73899 13.4508 8.65522 13.6675 8.73864L13.7468 8.77783C13.9525 8.90369 14.0346 9.15952 13.9528 9.38056L13.9144 9.46149L12.342 12.134V15.991L14.2677 15.992L14.2676 15.9132C14.2676 14.4674 14.5399 13.8204 15.2523 13.2235L15.7011 12.868L15.7601 12.8147C15.8183 12.7623 15.8714 12.7099 15.9214 12.6551C18.0422 10.3257 18.067 6.82707 15.934 4.65131C13.7701 2.44501 10.263 2.44501 8.0992 4.65123Z" fill="#EC0000"/>
</svg>
