<?xml version="1.0" encoding="UTF-8"?>
<svg width="24px" height="24px" viewBox="0 0 24 24" version="1.1" xmlns="http://www.w3.org/2000/svg" xmlns:xlink="http://www.w3.org/1999/xlink">
    <title>atoms/ico/24/sent-24</title>
    <g id="Profile" stroke="none" stroke-width="1" fill="none" fill-rule="evenodd">
        <g id="SCIB_GP_02_Teams_C1.2_team" transform="translate(-1141.000000, -286.000000)" fill="#FFFFFF">
            <g id="members" transform="translate(48.000000, 274.000000)">
                <g id="Elements-/-Buttons-/-Primary-S-/-Active-" transform="translate(1069.000000, 4.000000)">
                    <g id="atoms/ico/24/sent-24" transform="translate(24.000000, 8.000000)">
                        <path d="M18.2,14 C18.6418278,14 19,14.3581722 19,14.8 L19,17.699 L21.9,17.7 C22.3418278,17.7 22.7,18.0581722 22.7,18.5 C22.7,18.9418278 22.3418278,19.3 21.9,19.3 L19,19.299 L19,22.2 C19,22.6418278 18.6418278,23 18.2,23 C17.7581722,23 17.4,22.6418278 17.4,22.2 L17.4,19.299 L14.5,19.3 C14.0581722,19.3 13.7,18.9418278 13.7,18.5 C13.7,18.0581722 14.0581722,17.7 14.5,17.7 L17.4,17.699 L17.4,14.8 C17.4,14.3581722 17.7581722,14 18.2,14 Z M13.7148963,12.7092733 C14.6901367,12.7092733 15.602968,12.8942948 16.3707411,13.2462929 L16.398,13.26 L15.2763729,14.5482849 C14.815738,14.3999889 14.2847968,14.3213789 13.7148963,14.3213789 C13.2929417,14.3213789 12.7242172,14.3980577 12.0724416,14.5417801 L11.7882101,14.6074521 L11.2721131,14.7417183 L11.0368088,14.8077775 C10.4263507,14.9785896 10.1330598,15.034905 9.82953127,15.034905 C9.61865718,15.034905 9.42367194,15.0120037 9.18602202,14.9577569 L8.99887006,14.9110626 L8.55184023,14.7811825 C8.39717192,14.737815 8.2448644,14.6985231 8.09646352,14.6636044 L7.87698541,14.6145436 L6.6683996,14.3953163 C6.35274594,14.345115 6.1178827,14.3213789 5.94334381,14.3213789 C4.39065023,14.3213789 3.04035081,15.0634561 2.85582693,15.8919991 L2.83844898,16.0005064 L2.8337103,16.0930706 L2.8337103,16.7920515 C2.8337103,16.9525354 2.91343381,17.0835618 3.00265683,17.1301347 L3.04773486,17.1461287 L3.09607022,17.1512362 L12.7989241,17.15266 L12.4510574,17.4951197 L11.2152875,18.6905377 L10.9942221,18.7646346 L3.09594043,18.7633417 C2.14401517,18.7633417 1.35619479,18.0363771 1.22030021,17.0778223 L1.20433196,16.9246192 L1.2,16.7920515 L1.2,16.0930706 C1.2,14.198734 3.34975799,12.7092733 5.94334381,12.7092733 C6.12468452,12.7092733 6.32359769,12.7228348 6.55687628,12.7511149 L6.73854114,12.7751027 L6.92836521,12.8037506 C7.1706658,12.8422859 7.99696551,13.0063569 8.53621392,13.1229173 L8.81834841,13.185768 L9.12417227,13.2672711 L9.30195607,13.320109 C9.56266909,13.3963769 9.70220803,13.4227995 9.82953127,13.4227995 C9.90218662,13.4227995 10.0170706,13.4041285 10.1986794,13.3604578 L10.4502057,13.2956481 L11.1109373,13.1138295 C12.1326728,12.8493577 13.0247361,12.7092733 13.7148963,12.7092733 Z M9.82632362,1.8 C12.1369708,1.8 14.0591047,3.48920131 14.0532986,5.51997064 L14.0474023,5.7054895 L14.0329727,5.86994687 L14.0127073,6.01587159 L13.5872639,9.4868007 C13.2941553,11.3750979 11.7734859,12.6556226 9.82632362,12.6556226 C8.08881582,12.6556226 6.68418588,11.6331141 6.19743261,10.0353635 L6.14346546,9.84090094 L6.10196586,9.65689682 L6.06761633,9.46140348 L5.65049532,6.04918882 C5.27924996,3.8082086 7.29480757,1.8 9.82632362,1.8 Z M9.82632362,3.41210557 C8.45272659,3.41210557 7.3065334,4.34369742 7.24407609,5.42682732 L7.24197533,5.5629514 L7.2491026,5.6822265 L7.68601624,9.24270612 C7.85696072,10.3439842 8.68665176,11.043517 9.82632362,11.043517 C10.805512,11.043517 11.5657972,10.5267005 11.8627245,9.6882504 L11.9129088,9.52731952 L11.9447786,9.39602616 L11.9688763,9.26800285 L12.3955459,5.78942545 C12.5969007,4.57078015 11.3671606,3.41210557 9.82632362,3.41210557 Z" id="Combined-Shape"></path>
                    </g>
                </g>
            </g>
        </g>
    </g>
</svg>