<?xml version="1.0" encoding="UTF-8"?>
<svg width="24px" height="24px" viewBox="0 0 24 24" version="1.1" xmlns="http://www.w3.org/2000/svg" xmlns:xlink="http://www.w3.org/1999/xlink">
    <title>b. icons / a. lineal / 04. functional / FUNC140   | file</title>
    <g id="b.-icons-/-a.-lineal-/-04.-functional-/-FUNC140---|-file" stroke="none" stroke-width="1" fill="none" fill-rule="evenodd">
        <g id="Group" fill="#EC0000">
            <path d="M16.5,4.0002 C16.7454599,4.0002 16.9496084,4.17707516 16.9919443,4.41032437 L17,4.5002 L17,4.9992 L17.8516,5.0002 C18.3953949,5.0002 18.8929208,5.29433165 19.1570679,5.76192261 L19.2231812,5.89365739 L21.8257197,11.7982213 C21.9369882,12.0078436 22,12.2470882 22,12.5012 L22,18.5012 C22,19.3303424 21.3291424,20.0012 20.5,20.0012 L3.5,20.0012 C2.67085763,20.0012 2,19.3303424 2,18.5012 L2,12.5012 C2,12.2511867 2.06099557,12.015565 2.16893407,11.8083874 L2.17263083,11.8002266 L4.74770585,5.89905475 C4.96634315,5.39852659 5.43815521,5.06034572 5.97424265,5.00745813 L6.1219,5.0002 L7,4.9992 L7,4.5002 C7,4.25474011 7.17687516,4.05059163 7.41012437,4.00825567 L7.5,4.0002 L16.5,4.0002 Z M7.494,12.0012 L3.5,12.0012 C3.22314237,12.0012 3,12.2243424 3,12.5012 L3,18.5012 C3,18.7780576 3.22314237,19.0012 3.5,19.0012 L20.5,19.0012 C20.7768576,19.0012 21,18.7780576 21,18.5012 L21,12.5012 C21,12.2243424 20.7768576,12.0012 20.5,12.0012 L16.503,12.0012 C16.3445143,12.0012 16.1958764,12.0758565 16.1015062,12.2031811 L14.9185062,13.7971811 C14.8241861,13.9242701 14.6752653,13.9992 14.517,13.9992 L9.5,13.9992 C9.3431301,13.9992 9.1953537,13.9255787 9.10086924,13.8003555 L7.89238396,12.1987113 C7.79912376,12.074695 7.65132307,12.0012 7.494,12.0012 Z M14.5,15.0011 C14.7761424,15.0011 15,15.2249576 15,15.5011 L15,15.5011 L15,17.5011 C15,17.7772424 14.7761424,18.0011 14.5,18.0011 L14.5,18.0011 L9.5,18.0011 C9.22385763,18.0011 9,17.7772424 9,17.5011 L9,17.5011 L9,15.5011 C9,15.2249576 9.22385763,15.0011 9.5,15.0011 L9.5,15.0011 Z M14,16.0011 L10,16.0011 L10,17.0011 L14,17.0011 L14,16.0011 Z M18,10.0011 L6,10.0011 L6,11.0002 L7.494,11.0012 C7.96505561,11.0012 8.40910242,11.2220057 8.69113076,11.5970445 L9.74909694,12.9992 L14.2654237,12.9992 L15.2983051,11.6074732 C15.5813247,11.2256215 16.0281385,11.0012 16.503,11.0012 L18,11.0002 L18,10.0011 Z M17,5.9992 L17,6.5002 L17.499,6.5002 C17.7444599,6.5002 17.9486084,6.67707516 17.9909443,6.91032437 L17.999,7.0002 L17.999,9.0002 L18.5,9.0011 C18.7454599,9.0011 18.9496084,9.17797516 18.9919443,9.41122437 L19,9.5011 L19,11.0002 L20.38,11.0002 L18.3082784,6.29733108 C18.2399104,6.14264838 18.0983615,6.03483564 17.9349123,6.00718879 L17.8516,6.0002 L17,5.9992 Z M7,5.9992 L6.1219,6.0002 C5.95168239,6.0002 5.79518378,6.08659469 5.70404993,6.2255011 L5.66416917,6.29917341 L3.612,11.0002 L5,11.0002 L5,9.5011 C5,9.25564011 5.17687516,9.05149163 5.41012437,9.00915567 L5.5,9.0011 L6.001,9.0002 L6.001,7.0002 C6.001,6.75474011 6.17787516,6.55059163 6.41112437,6.50825567 L6.501,6.5002 L7,6.5002 L7,5.9992 Z M16.999,7.5002 L7.001,7.5002 L7.001,9.0002 L16.999,9.0002 L16.999,7.5002 Z M16,5.0002 L8,5.0002 L8,6.5002 L16,6.5002 L16,5.0002 Z" id="🌈-Color"></path>
        </g>
    </g>
</svg>