<?xml version="1.0" encoding="UTF-8"?>
<svg width="26px" height="26px" viewBox="0 0 26 26" version="1.1" xmlns="http://www.w3.org/2000/svg" xmlns:xlink="http://www.w3.org/1999/xlink">
    <title>retry</title>
    <g id="retry" stroke="none" stroke-width="1" fill="none" fill-rule="evenodd">
        <path d="M12.6949558,3.18058477 C7.44383704,3.18058477 3.18066079,7.58934259 3.18066079,13.0000551 C3.18066079,18.4106755 7.44385462,22.8194152 12.6949558,22.8194152 C16.5314209,22.8194152 19.9735416,20.4599622 21.4638288,16.816156 C21.6987581,16.2420664 21.4381736,15.5779976 20.8710842,15.329813 C20.2935144,15.0785617 19.6294212,15.3561805 19.3907163,15.939944 C18.2472979,18.7355478 15.619068,20.5371341 12.6949558,20.5371341 C8.69160856,20.5371341 5.42572542,17.1597572 5.42572542,13.0000551 C5.42572542,8.84025865 8.69159331,5.4628659 12.6949558,5.4628659 L12.9295092,5.46676281 C15.0347122,5.53676598 16.9781111,6.54608604 18.2902363,8.18552936 L18.3456887,8.25818513 L16.8181673,7.7368554 C16.2250163,7.53226897 15.5857802,7.86255919 15.3924496,8.46244061 C15.2016616,9.05341342 15.5120555,9.69617121 16.097917,9.8985883 L20.2945888,11.3330805 C20.6461978,11.4384528 20.9597028,11.3862353 21.2039474,11.2467901 C21.4504876,11.1060213 21.6472282,10.8721527 21.7396337,10.541011 L22.7890369,5.98843897 C22.9314666,5.38573259 22.5696888,4.76958861 21.9676886,4.61749788 L21.8603293,4.5958715 C21.2887906,4.50954766 20.7420021,4.88216541 20.6055461,5.45796663 L20.2456492,7.02363434 L20.2042075,6.96734473 C18.4249332,4.60737191 15.6678899,3.18058477 12.6949558,3.18058477 Z" id="Path" fill="#000000" fill-rule="nonzero"></path>
    </g>
</svg>