<?xml version="1.0" encoding="UTF-8"?>
<svg width="24px" height="24px" viewBox="0 0 24 24" version="1.1" xmlns="http://www.w3.org/2000/svg" xmlns:xlink="http://www.w3.org/1999/xlink">
    <title>atoms/ico/24/sign-24</title>
    <g id="atoms/ico/24/sign-24" stroke="none" stroke-width="1" fill="none" fill-rule="evenodd">
        <path d="M14.9285714,1.5 C15.130438,1.5 15.3240366,1.57894231 15.4668571,1.719375 L15.4668571,1.719375 L19.276381,5.469375 C19.4180158,5.61100383 19.4981984,5.80126899 19.5,6 L19.5,6 L19.5,7.125 C19.5,7.53921356 19.1588836,7.875 18.7380952,7.875 L18.7380952,7.875 L15.3095238,7.875 C14.0477678,7.87355348 13.025279,6.86704103 13.0238095,5.625 L13.0238095,5.625 L13.0238095,3 L5.78571429,3 C5.3649259,3 5.02380952,3.33578644 5.02380952,3.75 L5.02380952,3.75 L5.02380952,20.25 C5.02380952,20.6642136 5.3649259,21 5.78571429,21 L5.78571429,21 L7.46428571,21 C7.87849928,21 8.21428571,21.3357864 8.21428571,21.75 C8.21428571,22.1642136 7.87849928,22.5 7.46428571,22.5 L7.46428571,22.5 L5.78571429,22.5 C4.52395832,22.4985535 3.50146948,21.492041 3.5,20.25 L3.5,20.25 L3.5,3.75 C3.50146948,2.50795897 4.52395832,1.50144652 5.78571429,1.5 L5.78571429,1.5 Z M20.174002,8.98346921 L20.3392163,9.06846008 L20.5132023,9.18224267 L20.6636768,9.30378021 L21.6772834,10.2167919 C22.2998573,10.7764524 22.4736655,11.6677472 22.1275553,12.4239993 L22.0454049,12.5838163 L21.9396185,12.7472558 L21.8181606,12.8975744 L13.7092469,21.9016096 C13.6612784,21.954876 13.6074541,21.9997486 13.5424942,22.0386534 L13.4360427,22.0928378 L13.3092154,22.1359731 L13.1736401,22.1570435 L10.6233427,22.2906989 C10.3448643,22.3052934 10.0895745,22.170387 9.93413283,21.9281432 L9.87385162,21.8178756 L9.82551894,21.6764938 L9.80852272,21.5571726 L9.67489894,19.0074791 C9.67114775,18.935902 9.67747381,18.8661203 9.69589531,18.7926855 L9.73285142,18.6791124 L9.79203083,18.5589485 L9.87299907,18.4482055 L17.9821736,9.44451776 C18.5402908,8.82395627 19.4310263,8.64750586 20.174002,8.98346921 Z M17.0047225,12.8115856 L11.1864135,19.2705638 L11.2644445,20.7594833 L12.7488775,20.6816874 L18.5681548,14.2192024 L17.0047225,12.8115856 Z M19.295004,10.316109 L19.2190898,10.3281487 L19.1592018,10.3493109 L19.0947294,10.3862458 L19.0316407,10.4449536 L17.7806527,11.8331822 L19.4590145,13.345369 L20.7087215,11.957334 C20.7947042,11.861732 20.8278177,11.7298688 20.8093101,11.621175 L20.78577,11.5449275 L20.7496158,11.4814436 L20.6795975,11.4050907 L19.5827952,10.4157821 C19.5228586,10.3617536 19.4492928,10.3287741 19.3724946,10.3186068 L19.295004,10.316109 Z M14.6131429,3 L14.547619,3 L14.547619,5.625 C14.547619,6.03921356 14.8887354,6.375 15.3095238,6.375 L15.3095238,6.375 L17.9761905,6.375 L17.9761905,6.3105 L14.6131429,3 Z" id="Combined-Shape" fill="#EC0000"></path>
    </g>
</svg>