<svg width="24" height="24" viewBox="0 0 24 24" fill="none" xmlns="http://www.w3.org/2000/svg">
<path fill-rule="evenodd" clip-rule="evenodd" d="M19.7774 2.08859C19.5825 1.9536 19.3131 1.97288 19.1395 2.14645L19.0817 2.21569C18.9467 2.41056 18.966 2.67999 19.1395 2.85355L20.285 4H15.4931L15.4032 4.00806C15.17 4.05039 14.9931 4.25454 14.9931 4.5L15.0012 4.58988C15.0435 4.82312 15.2476 5 15.4931 5H20.285L19.1395 6.14645L19.0817 6.21569C18.9467 6.41056 18.966 6.67999 19.1395 6.85355C19.3348 7.04882 19.6514 7.04882 19.8467 6.85355L21.8755 4.82214L21.9159 4.76701L21.9553 4.69104L21.9802 4.61335L21.9913 4.54274L21.9913 4.45777L21.9802 4.38705L21.9464 4.2886L21.9043 4.21534L21.8755 4.17788L19.8467 2.14645L19.7774 2.08859ZM17.1395 6.14645C17.3348 5.95118 17.6514 5.95118 17.8467 6.14645C18.0202 6.32001 18.0395 6.58944 17.9045 6.78431L17.8467 6.85355L16.7 8H21.4931C21.7386 8 21.9427 8.17688 21.985 8.41012L21.9931 8.5C21.9931 8.74546 21.8162 8.94961 21.583 8.99194L21.4931 9H16.7L17.8467 10.1464C18.0202 10.32 18.0395 10.5894 17.9045 10.7843L17.8467 10.8536C17.6731 11.0271 17.4037 11.0464 17.2088 10.9114L17.1395 10.8536L15.1107 8.82212L15.0819 8.78466L15.0398 8.7114L15.0164 8.6512L14.9986 8.57392L14.9947 8.54029L14.9951 8.45559L15.01 8.37084L15.0309 8.30896L15.0703 8.23299L15.1107 8.17786L17.1395 6.14645ZM9.49695 7C11.4873 7 13.2249 8.54274 13.0395 10.4051L13.0164 10.5806L12.6372 13.7386C12.3918 15.3425 11.13 16.429 9.49695 16.429C7.92878 16.429 6.70626 15.4282 6.39292 13.9146L6.35853 13.7227L5.98342 10.6012C5.66471 8.64019 7.44523 7 9.49695 7ZM9.49691 8C8.06619 8 6.85386 9.06797 6.95569 10.3165L7.34922 13.5877C7.51931 14.7049 8.35846 15.429 9.49691 15.429C10.5756 15.429 11.3884 14.778 11.6143 13.774L11.6465 13.6034L12.0264 10.4405C12.2365 9.15238 10.9837 8 9.49691 8ZM12.98 16.9469C15.2658 16.9469 17 18.1416 17 19.7999V20.4379C17 21.291 16.3543 21.9999 15.5329 21.9999L3.467 21.9979C2.64573 21.9979 2 21.289 2 20.4359V19.7979C2 18.1815 3.86609 16.9469 6.018 16.9469C6.20928 16.9469 6.42207 16.9656 6.67147 17.0011L6.97865 17.0497L7.66381 17.1755C8.00408 17.2355 8.3468 17.3156 8.69317 17.4154L8.96333 17.4958C9.20967 17.5686 9.3563 17.5979 9.499 17.5979C9.54955 17.5979 9.61172 17.5912 9.69039 17.5769L9.87117 17.5379L10.1046 17.4772L10.7061 17.3083C11.5548 17.0856 12.35 16.9469 12.98 16.9469ZM12.98 17.9469C12.5201 17.9469 11.91 18.0433 11.2473 18.2031L10.8731 18.2988L10.3448 18.4483L10.0504 18.5237C9.82966 18.5749 9.66341 18.5979 9.499 18.5979C9.2897 18.5979 9.1031 18.569 8.86724 18.5073L8.41666 18.3764C8.20776 18.3162 8.00106 18.2641 7.7959 18.2201L6.8101 18.0354L6.70486 18.0178C6.41768 17.971 6.19249 17.9469 6.018 17.9469C4.35248 17.9469 3 18.8417 3 19.7979V20.4359C3 20.7565 3.21993 20.9979 3.46708 20.9979L15.533 20.9999C15.7801 20.9999 16 20.7584 16 20.4379V19.7999C16 18.7903 14.7757 17.9469 12.98 17.9469Z" fill="#EC0000"/>
</svg>
