<?xml version="1.0" encoding="UTF-8"?>
<svg width="24px" height="24px" viewBox="0 0 24 24" version="1.1" xmlns="http://www.w3.org/2000/svg" xmlns:xlink="http://www.w3.org/1999/xlink">
    <title>b. icons / a. lineal / 01. banking / BAN017   | deal handshake</title>
    <g id="b.-icons-/-a.-lineal-/-01.-banking-/-BAN017---|-deal-handshake" stroke="none" stroke-width="1" fill="none" fill-rule="evenodd">
        <g id="Group" fill="#EC0000">
            <path d="M21.5,7 L17.5,7 C17.2236328,7 17,7.2236328 17,7.5 L17,8.7614136 L13.5253906,7.371582 C12.8847656,7.1152343 12.2207031,6.8500976 11.3124904,7.1743164 L9.6987305,8 L7,8 L7,7.5 C7,7.2236328 6.7763672,7 6.5,7 L2.5,7 C2.2236328,7 2,7.2236328 2,7.5 L2,14.0136719 C2,15.1088867 2.890625,16 3.9863281,16 L6.5,16 C6.7763672,16 7,15.7763672 7,15.5 L7,14.4815674 L8.6396484,15.6738281 C9.6445312,16.4047852 10.8222656,16.7705078 12,16.7705078 C13.1777344,16.7705078 14.3554688,16.4047851 15.3603516,15.6738281 L16.9138184,14.5442505 L17,14.6217651 L17,15.5 C17,15.7763672 17.2236328,16 17.5,16 L20.0136719,16 C21.109375,16 22,15.1088867 22,14.0136719 L22,7.5 C22,7.2236328 21.7763672,7 21.5,7 Z M11.7060547,8.0913086 C12.1708985,7.9282227 12.5429688,8.0566406 13.1542969,8.300293 L17,9.838562 L17,13.2455444 L16.9805908,13.2596435 L12.6367187,9.3544921 C12.4921875,9.2246093 12.2861328,9.1889648 12.1044921,9.267578 C12.0771483,9.2792968 11.4072265,9.5693358 10.2783202,10.1801757 C9.8134764,10.430664 9.2490233,10.5263671 9.0703124,10.2216796 C8.9960936,10.0966796 8.9755858,9.9750976 9.0078124,9.8500976 C9.0703124,9.6069335 9.3251952,9.3432617 9.6972655,9.1230468 L11.7060547,8.0913086 Z M6,15 L3.9863281,15 C3.4423828,15 3,14.5576172 3,14.0136719 L3,8 L6,8 L6,15 Z M14.7724609,14.8652344 C13.1142578,16.0712891 10.8857421,16.0712891 9.227539,14.8652344 L7,13.2455444 L7,9 L8.348877,9 C8.2052002,9.1917114 8.09375,9.3913574 8.0400391,9.6005859 C7.9404297,9.9848632 7.9990235,10.3754882 8.2089844,10.7304687 C8.6660156,11.5034179 9.6874905,11.6367187 10.7548828,11.0600585 C11.4179687,10.7006835 11.9208984,10.455078 12.211914,10.317871 L16.1536254,13.8609618 L14.7724609,14.8652344 Z M21,14.0136719 C21,14.5576172 20.5576172,15 20.0136719,15 L18,15 L18,8 L21,8 L21,14.0136719 Z" id="🌈-Color"></path>
        </g>
    </g>
</svg>