<?xml version="1.0" encoding="UTF-8"?>
<svg width="24px" height="24px" viewBox="0 0 24 24" version="1.1" xmlns="http://www.w3.org/2000/svg" xmlns:xlink="http://www.w3.org/1999/xlink">
    <title>atoms/ico/24/write-24</title>
    <g id="atoms/ico/24/write-24" stroke="none" stroke-width="1" fill="none" fill-rule="evenodd">
        <path d="M12.2435484,3.80718954 C12.6822581,3.80718954 13.0177419,4.14705882 13.0177419,4.59150327 C13.0177419,5.03594771 12.6822581,5.37581699 12.2435484,5.37581699 L12.2435484,5.37581699 L2.7983871,5.37581699 L2.7983871,20.9313725 L18.0758065,20.9313725 L18.0758065,12.2777778 C18.0758065,11.8333333 18.4112903,11.4934641 18.85,11.4934641 C19.2629032,11.4934641 19.6241935,11.8594771 19.6241935,12.2777778 L19.6241935,12.2777778 L19.6241935,20.9313725 C19.6241935,21.7941176 18.9274194,22.5 18.0758065,22.5 L18.0758065,22.5 L2.7983871,22.5 C1.94677419,22.5 1.25,21.7941176 1.25,20.9313725 L1.25,20.9313725 L1.25,5.37581699 C1.25,4.5130719 1.94677419,3.80718954 2.7983871,3.80718954 L2.7983871,3.80718954 Z M19.0417051,1.73529412 C19.325576,1.42156863 19.8158986,1.42156863 20.125576,1.73529412 L20.125576,1.73529412 L22.525576,4.16666667 C22.6804147,4.29738562 22.7578341,4.48039216 22.7578341,4.68954248 C22.7578341,4.89869281 22.6804147,5.08169935 22.525576,5.23856209 L22.525576,5.23856209 L12.0739631,15.8267974 C12.0223502,15.9052288 11.9449309,15.9575163 11.8675115,15.9836601 L11.8675115,15.9836601 L7.96863449,17.4806557 C7.86540868,17.5329433 7.73637643,17.5590871 7.63315062,17.5590871 C7.42669901,17.5590871 7.24605385,17.4806557 7.09121514,17.323793 C6.85895707,17.0884988 6.80734417,16.7224858 6.93637643,16.4349041 L6.93637643,16.4349041 L8.43525346,12.5065359 C8.48686636,12.4281046 8.53847926,12.3496732 8.59009217,12.2973856 L8.59009217,12.2973856 Z M17.2352535,5.7875817 L9.77718894,13.3431373 L8.61589862,15.8267974 L11.0675115,14.6503268 L18.5513825,7.12091503 L17.2352535,5.7875817 Z M19.5578341,3.38235294 L18.293318,4.66339869 L19.609447,5.99673203 L20.8739631,4.71568627 L19.5578341,3.38235294 Z" id="Combined-Shape" fill="#FFFFFF"></path>
    </g>
</svg>