<!-- Generated by IcoMoon.io -->
<svg version="1.1" xmlns="http://www.w3.org/2000/svg" width="32" height="32" viewBox="0 0 32 32">
<title>i-pdf</title>
<path d="M17.702 13.585c-0.227-0.195-0.486-0.324-0.778-0.421-0.292-0.065-0.616-0.097-1.005-0.097h-1.491c-0.259 0-0.421 0.065-0.551 0.162-0.097 0.097-0.162 0.292-0.162 0.551v4.182c0 0.195 0 0.324 0.065 0.454 0.032 0.13 0.097 0.195 0.195 0.259s0.259 0.097 0.486 0.097h1.491c0.259 0 0.486-0.032 0.713-0.065 0.195-0.032 0.389-0.097 0.584-0.162 0.195-0.097 0.357-0.195 0.486-0.324 0.195-0.195 0.357-0.389 0.486-0.616s0.227-0.486 0.292-0.778c0.065-0.292 0.097-0.584 0.097-0.94 0-1.005-0.292-1.783-0.908-2.302zM16.859 17.605c-0.097 0.065-0.195 0.13-0.292 0.162-0.13 0.032-0.227 0.065-0.324 0.065s-0.259 0-0.454 0h-0.875v-3.891h0.778c0.357 0 0.648 0.032 0.908 0.13 0.259 0.065 0.454 0.259 0.616 0.551s0.259 0.713 0.259 1.264c-0.032 0.843-0.227 1.394-0.616 1.718z"></path>
<path d="M28.012 6.387l-0.032-0.032v-0.032l-6.192-6.192c0 0-0.032 0-0.032-0.032 0 0-0.032 0-0.032-0.032-0.097-0.065-0.195-0.065-0.324-0.065h-15.271c-0.584 0-1.135 0.227-1.524 0.616l-0.032 0.032c-0.389 0.389-0.648 0.973-0.648 1.556v27.591c0 0.616 0.259 1.167 0.648 1.556s0.973 0.648 1.556 0.648h19.745c0.616 0 1.167-0.259 1.556-0.648s0.648-0.973 0.648-1.556v-23.084c0-0.13-0.032-0.227-0.065-0.324zM22.014 2.334l3.664 3.664h-2.691c-0.259 0-0.519-0.097-0.681-0.292-0.162-0.162-0.292-0.421-0.292-0.681v-2.691zM26.683 29.795c0 0.227-0.097 0.421-0.259 0.584s-0.357 0.259-0.584 0.259h-19.712c-0.227 0-0.421-0.097-0.584-0.227-0.162-0.162-0.227-0.357-0.227-0.584v-27.656c0-0.227 0.097-0.421 0.259-0.584l0.032-0.032c0.162-0.13 0.357-0.227 0.551-0.227h14.525v3.664c0 0.648 0.259 1.232 0.713 1.686 0.421 0.421 1.038 0.681 1.686 0.681h3.599v22.436z"></path>
<path d="M12.223 13.52c-0.162-0.162-0.357-0.259-0.616-0.324-0.227-0.065-0.584-0.097-1.005-0.097h-1.491c-0.259 0-0.454 0.065-0.551 0.162-0.13 0.097-0.162 0.292-0.162 0.551v4.409c0 0.227 0.065 0.389 0.162 0.519s0.259 0.162 0.421 0.162 0.292-0.065 0.421-0.195c0.097-0.13 0.162-0.292 0.162-0.519v-1.621h1.070c0.713 0 1.232-0.162 1.589-0.454s0.551-0.746 0.551-1.329c0-0.259-0.032-0.519-0.13-0.746-0.13-0.195-0.259-0.389-0.421-0.519zM11.445 15.335c-0.097 0.13-0.227 0.227-0.421 0.292s-0.421 0.097-0.681 0.097h-0.778v-1.751h0.778c0.519 0 0.843 0.097 1.037 0.259 0.162 0.162 0.227 0.357 0.227 0.616-0.032 0.195-0.065 0.357-0.162 0.486z"></path>
<path d="M20.328 13.033c-0.195 0.032-0.324 0.065-0.421 0.13-0.097 0.032-0.195 0.13-0.227 0.227-0.065 0.097-0.065 0.227-0.065 0.421v4.377c0 0.227 0.065 0.421 0.162 0.519 0.097 0.13 0.259 0.162 0.421 0.162s0.292-0.065 0.421-0.162c0.097-0.13 0.162-0.292 0.162-0.519v-1.88h1.913c0.162 0 0.292-0.032 0.389-0.13 0.097-0.065 0.13-0.195 0.13-0.324s-0.032-0.227-0.13-0.324c-0.097-0.065-0.227-0.13-0.389-0.13h-1.913v-1.459h2.27c0.195 0 0.324-0.032 0.421-0.13s0.13-0.195 0.13-0.324c0-0.13-0.032-0.227-0.13-0.324s-0.227-0.13-0.421-0.13h-2.723z"></path>
</svg>
