<!-- Generated by IcoMoon.io -->
<svg version="1.1" xmlns="http://www.w3.org/2000/svg" width="28" height="22" viewBox="0 0 42 32">
<title>i-communicationChanel</title>
<path fill="white" d="M30.565 9.682c2.948 0 5.719 1.161 7.803 3.268s3.232 4.91 3.232 7.891c-0 2.981-1.148 5.783-3.232 7.89s-4.855 3.269-7.803 3.269c-2.948 0-5.719-1.161-7.803-3.268s-3.232-4.91-3.232-7.89c0-2.981 1.148-5.783 3.233-7.89s4.855-3.269 7.803-3.269zM26.17 26.519c-0.67 0.223-1.294 0.499-1.861 0.821 1.030 1.014 2.258 1.75 3.596 2.168-0.702-0.915-1.282-1.92-1.735-2.989zM35.261 26.625c-0.42 0.967-0.946 1.88-1.571 2.721 1.157-0.434 2.22-1.112 3.129-2.007-0.48-0.273-1.002-0.512-1.558-0.714zM31.597 25.872v2.782c0.659-0.779 1.209-1.645 1.643-2.574-0.533-0.099-1.082-0.17-1.643-0.208v0zM29.532 25.872c-0.448 0.031-0.889 0.083-1.32 0.152 0.36 0.781 0.8 1.519 1.32 2.198v0zM25.068 21.885h-3.413c0.154 1.367 0.61 2.666 1.335 3.816 0.756-0.462 1.602-0.848 2.511-1.152-0.224-0.862-0.369-1.753-0.433-2.664v0zM39.474 21.885h-3.064c-0.066 0.951-0.22 1.88-0.46 2.776 0.787 0.286 1.524 0.633 2.19 1.039 0.725-1.15 1.181-2.448 1.335-3.816v0zM26.625 0c1.055 0 1.922 0.802 2.027 1.83l0.011 0.208-0.001 5.394c-6.014 1.134-10.726 5.914-11.707 11.933l-10.878-0-4.916 4.972c-0.398 0.402-1.058 0.166-1.15-0.36l-0.011-0.126v-21.813c0-1.056 0.802-1.923 1.829-2.028l0.208-0.011h24.588zM34.34 21.885h-2.742v1.897c0.808 0.049 1.6 0.155 2.362 0.315 0.191-0.716 0.319-1.456 0.38-2.213v0zM29.532 21.885h-2.394c0.059 0.734 0.18 1.452 0.362 2.147 0.66-0.124 1.34-0.207 2.033-0.249v0-1.897zM27.559 17.439c-0.213 0.76-0.355 1.549-0.421 2.358v0h2.394v-2.121c-0.672-0.041-1.332-0.12-1.973-0.237zM33.901 17.372c-0.745 0.153-1.516 0.256-2.303 0.304v0 2.121h2.742c-0.068-0.832-0.216-1.643-0.439-2.424zM23.093 15.818c-0.786 1.19-1.276 2.547-1.438 3.979v0h3.412c0.069-0.984 0.229-1.945 0.484-2.87-0.887-0.294-1.714-0.665-2.459-1.109zM38.037 15.817c-0.655 0.391-1.375 0.725-2.144 1.001 0.272 0.959 0.446 1.957 0.517 2.979v0h3.064c-0.162-1.432-0.652-2.79-1.437-3.979zM29.532 13.46c-0.473 0.618-0.882 1.285-1.223 1.989 0.4 0.062 0.808 0.109 1.223 0.137v0zM31.597 13.028v2.558c0.527-0.036 1.043-0.099 1.545-0.189-0.418-0.851-0.935-1.647-1.545-2.369v0zM27.905 12.175c-1.275 0.399-2.45 1.086-3.449 2.027 0.551 0.3 1.156 0.555 1.799 0.764 0.44-0.995 0.991-1.932 1.65-2.791zM33.69 12.335c0.584 0.785 1.083 1.631 1.488 2.527 0.53-0.188 1.033-0.408 1.496-0.661-0.876-0.826-1.889-1.455-2.985-1.866zM5.696 8.069c-0.899 0-1.627 0.723-1.627 1.614s0.729 1.614 1.627 1.614c0.899 0 1.627-0.723 1.627-1.614s-0.729-1.614-1.627-1.614zM11.799 8.069c-0.899 0-1.627 0.723-1.627 1.614s0.729 1.614 1.627 1.614c0.899 0 1.627-0.723 1.627-1.614s-0.729-1.614-1.627-1.614zM17.902 8.069c-0.899 0-1.627 0.723-1.627 1.614s0.729 1.614 1.627 1.614c0.899 0 1.627-0.723 1.627-1.614s-0.729-1.614-1.627-1.614z"></path>
</svg>
