<?xml version="1.0" encoding="UTF-8"?>
<svg width="18px" height="18px" viewBox="0 0 18 18" version="1.1" xmlns="http://www.w3.org/2000/svg" xmlns:xlink="http://www.w3.org/1999/xlink">
    <title>atoms/ico/24/agenda-24 </title>
    <g id="MVP-1" stroke="none" stroke-width="1" fill="none" fill-rule="evenodd">
        <g id="MyProfile_02-edit-2" transform="translate(-1309.000000, -526.000000)" fill="#EC0000">
            <g id="Group-5" transform="translate(48.000000, 445.000000)">
                <g id="Group-17" transform="translate(0.000000, 56.000000)">
                    <g id="Group-9" transform="translate(1222.000000, 24.000000)">
                        <g id="atoms/ico/24/agenda-24-" transform="translate(38.000000, 0.000000)">
                            <path d="M14.1666667,1.5625 L14.2403236,1.59300971 L18.4375,5.83333333 L18.4375,16.25 C18.4375,17.4116566 17.5320108,18.3618249 16.3883409,18.4331964 L16.25,18.4375 L3.75,18.4375 C2.58834337,18.4375 1.63817508,17.5320108 1.56680364,16.3883409 L1.5625,16.25 L1.5625,3.75 C1.5625,2.58834337 2.46798919,1.63817508 3.61165906,1.56680364 L3.75,1.5625 L14.1666667,1.5625 Z M14.0625,11.1458333 L5.9375,11.1458333 L5.9375,17.1875 L14.0625,17.1875 L14.0625,11.1458333 Z M5.72916667,2.81166667 L3.75011959,2.81249993 C3.26703866,2.81305452 2.86945551,3.17846924 2.8181084,3.64790868 L2.81249993,3.75 L2.81249993,16.2498804 C2.81305452,16.7329613 3.17846924,17.1305445 3.64790868,17.1818916 L3.75,17.1875001 L4.68666667,17.1875001 L4.6875,11.0416667 C4.6875,10.4460655 5.1419284,9.9566017 5.72298194,9.90107864 L5.83333333,9.89583333 L14.1666667,9.89583333 C14.7622679,9.89583333 15.2517316,10.3502617 15.3072547,10.9313153 L15.3124999,11.0416667 L15.3124999,17.1875001 L16.2498804,17.1875001 C16.7329613,17.1869455 17.1305445,16.8215308 17.1818916,16.3520913 L17.1875,16.25 L17.2180106,6.33842865 L14.2708333,3.39166667 L14.2708333,6.875 C14.2708333,7.4706012 13.8164049,7.96006496 13.2353514,8.01558803 L13.125,8.02083333 L6.875,8.02083333 C6.2793988,8.02083333 5.78993504,7.56640494 5.73441197,6.9853514 L5.72916667,6.875 L5.72916667,2.81166667 Z M12.5,14.8958333 C12.7876483,14.8958333 13.0208333,15.1290184 13.0208333,15.4166667 C13.0208333,15.6413689 12.8775802,15.8362124 12.6664177,15.9089839 L12.5841957,15.930371 L12.5,15.9375 L7.5,15.9375 C7.21235169,15.9375 6.97916667,15.704315 6.97916667,15.4166667 C6.97916667,15.1919645 7.12241984,14.9971209 7.33358231,14.9243494 L7.41580433,14.9029623 L7.5,14.8958333 L12.5,14.8958333 Z M12.5,12.8125 C12.7876483,12.8125 13.0208333,13.045685 13.0208333,13.3333333 C13.0208333,13.5580355 12.8775802,13.7528791 12.6664177,13.8256506 L12.5841957,13.8470377 L12.5,13.8541667 L7.5,13.8541667 C7.21235169,13.8541667 6.97916667,13.6209816 6.97916667,13.3333333 C6.97916667,13.1086311 7.12241984,12.9137876 7.33358231,12.8410161 L7.41580433,12.819629 L7.5,12.8125 L12.5,12.8125 Z M13.0208333,2.8125 L6.97916667,2.8125 L6.97916667,6.77083333 L13.0208333,6.77083333 L13.0208333,2.8125 Z M11.25,4.0625 C11.4747022,4.0625 11.6695457,4.20575317 11.7423173,4.41691564 L11.7637044,4.49913766 L11.7708333,4.58333333 L11.7708333,5.41666667 C11.7708333,5.70431497 11.5376483,5.9375 11.25,5.9375 C11.0252978,5.9375 10.8304543,5.79424683 10.7576827,5.58308436 L10.7362956,5.50086234 L10.7291667,5.41666667 L10.7291667,4.58333333 C10.7291667,4.29568503 10.9623517,4.0625 11.25,4.0625 Z" id="Shape"></path>
                        </g>
                    </g>
                </g>
            </g>
        </g>
    </g>
</svg>