<svg id="Capa_2" data-name="Capa 2" xmlns="http://www.w3.org/2000/svg" viewBox="0 0 100 100"><defs><style>.cls-1{fill:#e41513;}</style></defs><title>i-recommendation</title><path id="path4-3" class="cls-1" d="M41.83,74.45v1a1.51,1.51,0,0,0,1.62,1.33h28A1.51,1.51,0,0,0,73,75.49v-1c0-1.92-3.11-3.4-7.55-3.4a21,21,0,0,0-4.88.59,2.55,2.55,0,0,0-.88.15h-.15a18,18,0,0,1-2.22.29,8.3,8.3,0,0,1-1.78-.14h-.29c-.15,0-.3,0-.3-.15a11.28,11.28,0,0,0-2.22-.3c-.14,0-1-.15-1-.15A1.16,1.16,0,0,1,51,71.2a8.39,8.39,0,0,0-1.78-.15c-4,0-7.39,1.62-7.39,3.4Zm-2.22.3c0-3.26,4.14-5.92,9.17-5.92A9,9,0,0,1,50.7,69c.3,0,.59.14.89.14,0,0,.89.15,1,.15a16.56,16.56,0,0,1,2.51.59c.15,0,.15,0,.44.15.15,0,.15,0,.3.15a8.49,8.49,0,0,0,1.48.3A8.58,8.58,0,0,0,59.43,70h.15c.59-.15.74-.15.89-.29A27.54,27.54,0,0,1,65.94,69c5.32,0,9.17,2.51,9.17,5.91v1.48a3,3,0,0,1-3,3H42.57a3,3,0,0,1-3-3ZM57.36,45.61c-3.85,0-7.1,3-6.51,6.36l.89,7.1A5.69,5.69,0,0,0,63,59.21l.89-7.1C64.46,48.56,61.21,45.61,57.36,45.61Zm0-1.93c4.73,0,9,3.85,8.28,8.29l-.88,7.69a7.34,7.34,0,0,1-7.4,6.21,7.08,7.08,0,0,1-7.25-6.21l-.89-7.55C48.34,47.53,52.48,43.68,57.36,43.68Z"/><path class="cls-1" d="M58.27,33l.66-3.88-2.81-2.75L60,25.8l1.74-3.53,1.74,3.53,3.89.56-2.81,2.75L65.23,33l-3.48-1.83Zm3.48-3.27,1.8,1-.35-2,1.46-1.42-2-.29-.9-1.82L60.85,27l-2,.29,1.46,1.42-.35,2Z"/><path class="cls-1" d="M50.11,33l-3.48-1.83L43.15,33l.66-3.88L41,26.36l3.89-.56,1.74-3.53,1.74,3.53,3.89.56-2.81,2.75Zm-6.38-5.74,1.45,1.42-.35,2,1.8-1,1.8,1-.35-2,1.46-1.42-2-.29-.9-1.82L45.73,27Z"/><path class="cls-1" d="M35.41,33l-3.48-1.83L28.45,33l.67-3.88L26.3,26.36l3.89-.56,1.74-3.53,1.74,3.53,3.9.56-2.82,2.75ZM29,27.25l1.45,1.42-.34,2,1.79-1,1.8,1-.34-2,1.45-1.42-2-.29-.9-1.82L31,27Z"/><path class="cls-1" d="M47.49,45.83l-6.35-7.54H26.94a5.06,5.06,0,0,1-5.05-5V22.72a5.06,5.06,0,0,1,5.05-5H66.32a5,5,0,0,1,5.05,5V33.24a5.06,5.06,0,0,1-5.05,5H50.46ZM26.94,19.57a3.15,3.15,0,0,0-3.15,3.15V33.24a3.15,3.15,0,0,0,3.15,3.14H42.12l5.13,5.82,2.06-5.82h17a3.15,3.15,0,0,0,3.15-3.14V22.72a3.15,3.15,0,0,0-3.15-3.15Z"/></svg>