<?xml version="1.0" encoding="UTF-8"?>
<svg width="24px" height="24px" viewBox="0 0 24 24" version="1.1" xmlns="http://www.w3.org/2000/svg" xmlns:xlink="http://www.w3.org/1999/xlink">
    <title>3DD32387-17E3-421B-A110-0F6E0EF2C442</title>
    <g id="Symbols" stroke="none" stroke-width="1" fill="none" fill-rule="evenodd">
        <g id="Atoms/ico/normal-size/copy-24" fill="#EC0000">
            <path d="M16.75,2 C17.0776319,2 17.3611373,2.21144533 17.463662,2.52839418 L17.4909461,2.63780601 L17.5,2.75 L17.5,6 L19.75,6 C20.0412283,6 20.2975913,6.16706791 20.4229718,6.42679743 L20.463662,6.52839418 L20.4909461,6.63780601 L20.5,6.75 L20.5,21.75 C20.5,22.0776319 20.2885547,22.3611373 19.9716058,22.463662 L19.862194,22.4909461 L19.75,22.5 L7.75,22.5 C7.42236813,22.5 7.13886271,22.2885547 7.03633805,21.9716058 L7.00905388,21.862194 L7,21.75 L7,18.5 L4.75,18.5 C4.45877167,18.5 4.20240869,18.3329321 4.0770282,18.0732026 L4.03633805,17.9716058 L4.00905388,17.862194 L4,17.75 L4,2.75 C4,2.42236813 4.21144533,2.13886271 4.52839418,2.03633805 L4.63780601,2.00905388 L4.75,2 L16.75,2 Z M19,7.5 L8.5,7.5 L8.5,21 L19,21 L19,7.5 Z M16,3.5 L5.5,3.5 L5.5,17 L7,17 L7,6.75 C7,6.42236813 7.21144533,6.13886271 7.52839418,6.03633805 L7.63780601,6.00905388 L7.75,6 L16,6 L16,3.5 Z M16.577381,15.1111111 C16.8568107,15.1111111 17.0833333,15.3847149 17.0833333,15.7222222 C17.0833333,16.0597296 16.8568107,16.3333333 16.577381,16.3333333 L16.577381,16.3333333 L10.5059524,16.3333333 C10.2265226,16.3333333 10,16.0597296 10,15.7222222 C10,15.3847149 10.2265226,15.1111111 10.5059524,15.1111111 L10.5059524,15.1111111 Z M16.577381,12.0555556 C16.8568107,12.0555556 17.0833333,12.3291593 17.0833333,12.6666667 C17.0833333,13.004174 16.8568107,13.2777778 16.577381,13.2777778 L16.577381,13.2777778 L10.5059524,13.2777778 C10.2265226,13.2777778 10,13.004174 10,12.6666667 C10,12.3291593 10.2265226,12.0555556 10.5059524,12.0555556 L10.5059524,12.0555556 Z M16.577381,9 C16.8568107,9 17.0833333,9.27360376 17.0833333,9.61111111 C17.0833333,9.94861846 16.8568107,10.2222222 16.577381,10.2222222 L16.577381,10.2222222 L10.5059524,10.2222222 C10.2265226,10.2222222 10,9.94861846 10,9.61111111 C10,9.27360376 10.2265226,9 10.5059524,9 L10.5059524,9 Z" id="Combined-Shape"></path>
        </g>
    </g>
</svg>