<?xml version="1.0" encoding="UTF-8"?>
<svg width="24px" height="24px" viewBox="0 0 24 24" version="1.1" xmlns="http://www.w3.org/2000/svg" xmlns:xlink="http://www.w3.org/1999/xlink">
    <title>86FE70D3-E79D-4194-ACC6-8AC5D270513D</title>
    <g id="Styles" stroke="none" stroke-width="1" fill="none" fill-rule="evenodd">
        <g id="Icons" transform="translate(-269.000000, -476.000000)" fill="#444444">
            <g id="atoms/ico/24/add-24-copy" transform="translate(269.000000, 476.000000)">
                <path d="M15.9515459,2.77376814 C16.8873782,1.83664864 18.3621797,1.74608043 19.4016354,2.52752727 L19.5505261,2.64839209 L19.6848619,2.77354436 L21.2275019,4.31714848 C22.1646042,5.25296359 22.2552025,6.7277619 21.4660407,7.77584953 L21.3529715,7.91603498 L21.2279119,8.05027827 L7.52398153,21.7546906 C7.42321519,21.8554659 7.29914184,21.9285095 7.14924405,21.9697328 L7.03193929,21.9946201 L6.92755995,22.001752 L2.84343016,22.001752 C2.4681478,22.001752 2.1443841,21.7551016 2.03392379,21.3820187 L2.00920832,21.2772244 L2,21.1583218 L2,17.074192 C2,16.9316888 2.03608549,16.7923152 2.11292772,16.657181 L2.17827426,16.5566425 L2.24703497,16.4777969 L15.9515459,2.77376814 Z M13.7338003,7.37599834 L3.68589639,17.4239023 L3.68589639,20.3146989 L6.57765693,20.3146989 L16.624597,10.266795 L13.7338003,7.37599834 Z M17.3198671,3.82740881 L17.2224674,3.89625885 L17.1446382,3.96625628 L14.9271335,6.18266516 L17.8179301,9.07346177 L20.0351216,6.8574879 C20.3512854,6.54132403 20.4010924,6.05416504 20.183608,5.69692667 L20.1176663,5.60294528 L20.0349354,5.51016237 L18.4918854,3.96614847 C18.2044673,3.67873043 17.7757271,3.61143273 17.4231408,3.77229672 L17.3198671,3.82740881 Z" id="write"></path>
            </g>
        </g>
    </g>
</svg>