<svg width="24" height="24" viewBox="0 0 24 24" fill="none" xmlns="http://www.w3.org/2000/svg">
<path d="M5.85225 12.1438C6.04751 12.3391 6.04751 12.6557 5.85225 12.8509C5.65699 13.0462 5.3404 13.0462 5.14514 12.8509L1.14645 8.85225C0.951184 8.65699 0.951184 8.3404 1.14645 8.14514L5.14514 4.14645C5.3404 3.95118 5.65699 3.95118 5.85225 4.14645C6.04751 4.34171 6.04751 4.65829 5.85225 4.85355L2.705 8H17C20.3137 8 23 10.6863 23 14C23 17.3137 20.3137 20 17 20C16.7239 20 16.5 19.7761 16.5 19.5C16.5 19.2239 16.7239 19 17 19C19.7614 19 22 16.7614 22 14C22 11.2386 19.7614 9 17 9H2.709L5.85225 12.1438Z" fill="#EC0000"/>
</svg>
