<?xml version="1.0" encoding="UTF-8"?>
<svg width="25px" height="24px" viewBox="0 0 25 24" version="1.1" xmlns="http://www.w3.org/2000/svg" xmlns:xlink="http://www.w3.org/1999/xlink">
    <title>94028636-5B25-4E49-ACA9-C333FAC3E7FF</title>
    <g id="Styles" stroke="none" stroke-width="1" fill="none" fill-rule="evenodd">
        <g id="Icons" transform="translate(-517.000000, -476.000000)">
            <g id="atoms/ico/24/add-24-copy-6" transform="translate(517.222222, 476.000000)">
                <path d="M5.39818221,1.75684232 L5.5,1.75 L13.5,1.75 C13.6760835,1.75 13.8386065,1.81357636 13.9582281,1.91096501 L14.0246182,1.97321757 L14.0793035,2.0421564 L18.9959902,6.95941927 C19.128911,7.07796604 19.2166928,7.23532289 19.2422612,7.4093705 L19.25,7.515625 L19.25,9.764 L19.3288181,9.77225595 C20.3073959,9.91121419 21.0840864,10.6855789 21.2265714,11.6630318 L21.2443725,11.8277469 L21.25,11.9873047 L21.25,16.0126953 C21.25,17.0828604 20.4949762,17.9797974 19.4895731,18.1988618 L19.3288181,18.2277441 L19.25,18.236 L19.25,21.5 C19.25,21.8453653 19.0169711,22.1359551 18.6994578,22.2232249 L18.6018178,22.2431577 L18.5,22.25 L5.5,22.25 C5.12009814,22.25 4.80647469,21.968035 4.75684232,21.6018178 L4.75,21.5 L4.75,18.236 L4.67118191,18.2277441 C3.69260411,18.0887858 2.91591358,17.3144211 2.77342863,16.3369682 L2.75562754,16.1722531 L2.75,16.0126953 L2.75,11.9873047 C2.75,10.9171396 3.50502384,10.0202026 4.51042692,9.80113819 L4.67118191,9.77225595 L4.75,9.763 L4.75,2.5 C4.75,2.15463468 4.9830289,1.86404489 5.30054223,1.77677511 L5.39818221,1.75684232 Z M17.75,18.25 L6.25,18.25 L6.25,20.75 L17.75,20.75 L17.75,18.25 Z M19.0126953,11.25 L4.9873047,11.25 C4.61525343,11.25 4.3057554,11.5284938 4.25675608,11.8875358 L4.25,11.9873047 L4.25,16.0126953 C4.25,16.3847466 4.52849376,16.6942446 4.8875358,16.7432439 L4.9873047,16.75 L19.0126953,16.75 C19.3847466,16.75 19.6942446,16.4715062 19.7432439,16.1124642 L19.75,16.0126953 L19.75,11.9873047 C19.75,11.5814306 19.4185694,11.25 19.0126953,11.25 Z M12.753,3.25 L6.25,3.25 L6.25,9.75 L17.75,9.75 L17.75,8.262 L13.5205947,8.25 C13.1428785,8.24865418 12.8310529,7.96857282 12.7805792,7.60438794 L12.7734403,7.50312581 L12.753,3.25 Z M14.258,4.342 L14.27,6.752 L16.675,6.759 L14.258,4.342 Z" id="🌈-Color" fill="#767676"></path>
                <path d="M19,9.75 C20.190864,9.75 21.1656449,10.6751616 21.2448092,11.8459512 L21.25,12 L21.25,16 C21.25,17.190864 20.3248384,18.1656449 19.1540488,18.2448092 L19,18.25 L5,18.25 C3.80913601,18.25 2.83435508,17.3248384 2.75519081,16.1540488 L2.75,16 L2.75,12 C2.75,10.809136 3.67516159,9.83435508 4.84595119,9.75519081 L5,9.75 L19,9.75 Z M19,11.25 L5,11.25 C4.62030423,11.25 4.30650904,11.5321539 4.25684662,11.8982294 L4.25,12 L4.25,16 C4.25,16.3796958 4.53215388,16.693491 4.89822944,16.7431534 L5,16.75 L19,16.75 C19.3796958,16.75 19.693491,16.4678461 19.7431534,16.1017706 L19.75,16 L19.75,12 C19.75,11.5857864 19.4142136,11.25 19,11.25 Z" id="Combined-Shape" fill="#EC0000"></path>
                <path d="M8.6801758,11.8833008 C9.27622363,11.8833008 9.7143086,12.01289 9.98980071,12.2808199 C10.2638812,12.5463017 10.4008789,12.8961975 10.4008789,13.3227538 C10.4008789,13.6214558 10.3369048,13.8839887 10.2075565,14.1095465 C10.0766844,14.3377616 9.88414029,14.5149131 9.63218193,14.6398246 C9.43283159,14.738655 9.20267387,14.7976815 8.94297199,14.8173389 L8.7426758,14.824707 L8.445,14.824 L8.4458008,15.9916993 L8.3208008,16.1166993 L7.590332,16.1166993 L7.465332,15.9916993 L7.465332,12.1030274 L7.56990953,11.979707 C7.72546461,11.9539463 7.90665223,11.9311117 8.11308629,11.9111679 C8.31594507,11.892548 8.50563635,11.8833008 8.6801758,11.8833008 Z M8.6977539,12.7338869 L8.51693961,12.7393009 L8.445,12.745 L8.445,13.979004 L8.7368164,13.979004 C8.91865853,13.979004 9.06021639,13.9433288 9.16411505,13.8745101 L9.23501897,13.8167212 C9.34300178,13.7079444 9.3979492,13.5552229 9.3979492,13.3510744 C9.3979492,12.9283724 9.18157691,12.7338869 8.6977539,12.7338869 Z" id="Shape" fill="#EC0000"></path>
                <path d="M11.9731445,11.8833008 C12.5691923,11.8833008 13.0072773,12.01289 13.2827694,12.2808199 C13.5568499,12.5463017 13.6938476,12.8961975 13.6938476,13.3227538 C13.6938476,13.6214558 13.6298735,13.8839887 13.5005252,14.1095465 C13.3696531,14.3377616 13.177109,14.5149131 12.9251506,14.6398246 C12.7258003,14.738655 12.4956426,14.7976815 12.2359407,14.8173389 L12.0356445,14.824707 L11.738,14.824 L11.7387695,15.9916993 L11.6137695,16.1166993 L10.8833007,16.1166993 L10.7583007,15.9916993 L10.7583007,12.1030274 L10.8628782,11.979707 C11.0184333,11.9539463 11.1996209,11.9311117 11.406055,11.9111679 C11.6089138,11.892548 11.798605,11.8833008 11.9731445,11.8833008 Z M11.9907226,12.7338869 L11.8099083,12.7393009 L11.738,12.745 L11.738,13.979004 L12.0297851,13.979004 C12.2116272,13.979004 12.3531851,13.9433288 12.4570838,13.8745101 L12.5279877,13.8167212 C12.6359705,13.7079444 12.6909179,13.5552229 12.6909179,13.3510744 C12.6909179,12.9283724 12.4745456,12.7338869 11.9907226,12.7338869 Z" id="Shape" fill="#EC0000"></path>
                <path d="M16.6245117,11.9780274 L13.7875976,11.9780274 L13.6647549,12.0799042 C13.6539404,12.1373571 13.6444436,12.2034212 13.6359733,12.2796502 L13.6056487,12.6326247 C13.6036238,12.6667788 13.6021193,12.6988247 13.6011407,12.7288363 L13.7260743,12.8579102 L14.679,12.857 L14.6791993,15.9916993 L14.8041993,16.1166993 L15.5405274,16.1166993 L15.6655274,15.9916993 L15.665,12.857 L16.5629883,12.8579102 L16.6860418,12.754884 C16.7021901,12.664453 16.7160145,12.5561618 16.7265845,12.4341263 L16.7449704,12.2032017 C16.7469838,12.1691639 16.7484746,12.1371942 16.7494467,12.1070576 L16.6245117,11.9780274 Z" id="Path" fill="#EC0000"></path>
            </g>
        </g>
    </g>
</svg>