<?xml version="1.0" encoding="UTF-8"?>
<svg width="24px" height="24px" viewBox="0 0 24 24" version="1.1" xmlns="http://www.w3.org/2000/svg" xmlns:xlink="http://www.w3.org/1999/xlink">
    <title>Atoms/ico/normal size/read-24</title>
    <g id="Atoms/ico/normal-size/read-24" stroke="none" stroke-width="1" fill="none" fill-rule="evenodd">
        <path d="M6.86928837,6.77806608 C8.59367009,6.57464326 10.247058,7.4304382 11.0903023,8.90287889 L11.1914349,9.09011366 L11.252,9.217 L11.2929445,9.19943131 C11.6906038,9.04296892 12.1279727,9.02341112 12.5355594,9.14075791 L12.7082134,9.19943131 L12.748,9.217 L12.8098162,9.09017867 C13.5534122,7.62876404 15.0713332,6.71843872 16.7102545,6.75025421 L16.9246593,6.75977915 L17.1314801,6.7791554 C18.8554645,6.98254654 20.264109,8.19910599 20.7418553,9.82687814 L20.7966806,10.0324478 L20.838,10.223 L22.4210527,10.2234491 C22.8789057,10.2235789 23.25,10.5947786 23.25,11.0526316 C23.25,11.5103367 22.8789567,11.8813801 22.4212515,11.8813801 C22.4211852,11.8813801 22.4211189,11.8813801 22.4210527,11.8813801 L20.837,11.881 L20.837,11.881 L20.795318,12.0779832 C20.3403697,13.9610454 18.6697976,15.3099543 16.7331527,15.3579919 L16.5246802,15.358126 L16.3144309,15.3480949 C14.0632187,15.1861372 12.3217306,13.308851 12.3289474,11.0526316 C12.3289474,10.870959 12.1816726,10.7236842 12,10.7236842 C11.8183274,10.7236842 11.6710526,10.870959 11.671052,11.0520892 C11.6759452,13.3074053 9.9350867,15.1820881 7.68558001,15.3439347 C5.64696456,15.4906083 3.82041386,14.1852348 3.25915653,12.2773393 L3.20565215,12.0778564 L3.163,11.881 L1.57894734,11.8813801 C1.1212422,11.8814899 0.75010984,11.5105356 0.750000024,11.0528304 C0.750000008,11.0527641 0.75,11.0526979 0.75,11.0526316 C0.75,10.5947786 1.12109433,10.2235789 1.57894734,10.2234491 L3.162,10.223 L3.162,10.223 L3.2038002,10.0324034 C3.58657256,8.43761623 4.85112942,7.19855983 6.45280822,6.84800075 L6.66358993,6.80735818 L6.86928837,6.77806608 Z M7.36842105,8.40789474 C5.90777323,8.40789474 4.72368421,9.59198375 4.72368421,11.0526316 C4.72368421,12.5132794 5.90777323,13.6973685 7.36819137,13.6973685 C8.82841005,13.696027 10.0118164,12.5126206 10.0131579,11.0526316 C10.0131579,9.59198375 8.82906888,8.40789474 7.36842105,8.40789474 Z M16.6315789,8.40789474 C15.1709311,8.40789474 13.9868421,9.59198375 13.9868421,11.0526316 C13.9868421,12.5132794 15.1709311,13.6973685 16.6313493,13.6973685 C18.0915679,13.696027 19.2749743,12.5126206 19.2763158,11.0526316 C19.2763158,9.59198375 18.0922268,8.40789474 16.6315789,8.40789474 Z" id="Shape" fill="#9BC3D3"></path>
    </g>
</svg>