<svg xmlns="http://www.w3.org/2000/svg" viewBox="0 0 24 24"><path d="M11.220 0.025 C 8.036 0.279,5.307 1.591,3.163 3.900 C 1.532 5.656,0.503 7.832,0.109 10.359 C -0.013 11.143,-0.013 12.857,0.109 13.641 C 0.504 16.175,1.544 18.370,3.174 20.110 C 5.153 22.222,7.468 23.440,10.359 23.891 C 11.143 24.013,12.857 24.013,13.641 23.891 C 16.173 23.496,18.371 22.455,20.110 20.826 C 22.221 18.848,23.440 16.530,23.891 13.641 C 24.013 12.857,24.013 11.143,23.891 10.359 C 23.443 7.488,22.231 5.172,20.150 3.212 C 18.359 1.525,16.030 0.435,13.500 0.100 C 13.035 0.039,11.628 -0.008,11.220 0.025 M12.880 1.241 C 14.273 1.362,15.532 1.713,16.757 2.324 C 17.915 2.900,18.719 3.478,19.621 4.379 C 20.532 5.290,21.110 6.099,21.681 7.260 C 22.043 7.997,22.230 8.485,22.422 9.196 C 22.995 11.321,22.895 13.646,22.141 15.704 C 21.954 16.214,21.430 17.280,21.144 17.734 C 20.350 18.992,19.211 20.160,17.960 20.998 C 15.452 22.680,12.267 23.220,9.340 22.460 C 7.375 21.950,5.796 21.044,4.359 19.603 C 3.476 18.718,2.893 17.902,2.323 16.757 C 1.023 14.142,0.851 11.130,1.843 8.343 C 2.041 7.789,2.535 6.775,2.856 6.266 C 3.695 4.937,4.937 3.695,6.266 2.856 C 6.775 2.535,7.789 2.040,8.337 1.846 C 9.821 1.319,11.386 1.111,12.880 1.241 M8.104 5.971 C 8.018 6.020,7.915 6.123,7.874 6.199 C 7.803 6.333,7.800 6.564,7.800 11.993 C 7.800 18.253,7.781 17.816,8.055 18.011 C 8.149 18.078,8.235 18.100,8.400 18.098 C 8.617 18.097,8.679 18.063,13.514 15.278 C 17.047 13.244,18.432 12.427,18.494 12.340 C 18.614 12.172,18.614 11.827,18.493 11.660 C 18.431 11.574,17.044 10.758,13.553 8.752 C 10.884 7.219,8.649 5.945,8.587 5.922 C 8.416 5.858,8.276 5.872,8.104 5.971 M13.072 9.860 C 15.100 11.026,16.760 11.990,16.760 12.002 C 16.760 12.018,11.132 15.271,9.232 16.352 L 9.000 16.485 9.000 12.002 L 9.000 7.518 9.192 7.629 C 9.298 7.690,11.044 8.694,13.072 9.860 " fill="#EC0000" stroke="none" fill-rule="evenodd"></path></svg>