<!-- Generated by IcoMoon.io -->
<svg version="1.1" xmlns="http://www.w3.org/2000/svg" width="32" height="32" viewBox="0 0 32 32">
<title>sign-out</title>
<path d="M10.944 0.896c0.576 0 1.088 0.48 1.088 1.088 0 0.48-0.32 0.896-0.768 1.056l-0.16 0.032h-3.872c-1.984 0-3.712 2.048-3.936 4.704v0.32l-0.032 0.288v14.848c0 2.72 1.568 4.992 3.52 5.28h0.224l0.224 0.032h3.712c0.576 0 1.088 0.48 1.088 1.088 0 0.48-0.32 0.896-0.768 1.024l-0.32 0.064h-3.712c-3.232 0-5.824-3.008-6.112-6.816l-0.032-0.352v-15.168c0-3.872 2.4-7.104 5.568-7.456l0.288-0.032h4zM23.648 9.6c0.352-0.32 0.864-0.384 1.28-0.192l0.16 0.096 5.632 5.632 0.096 0.192 0.032 0.032v0.096l0.032 0.096 0.032 0.16v0.128l-0.032 0.128-0.032 0.16-0.032 0.128-0.064 0.096-0.032 0.032-0.096 0.128-5.44 5.44c-0.416 0.416-1.088 0.416-1.536 0-0.32-0.352-0.416-0.864-0.192-1.28l0.096-0.16 0.096-0.128 3.552-3.52h-15.52c-0.448 0-0.8-0.256-0.992-0.608l-0.064-0.16-0.032-0.16v-0.16c0-0.48 0.288-0.896 0.768-1.024l0.16-0.064h15.68l-3.552-3.52c-0.288-0.32-0.384-0.736-0.256-1.152l0.064-0.128 0.096-0.16 0.096-0.128z"></path>
</svg>
