<?xml version="1.0" encoding="UTF-8"?>
<svg width="24px" height="24px" viewBox="0 0 24 24" version="1.1" xmlns="http://www.w3.org/2000/svg" xmlns:xlink="http://www.w3.org/1999/xlink">
    <title>Atoms/ico/normal size/unread-24</title>
    <g id="Atoms/ico/normal-size/unread-24" stroke="none" stroke-width="1" fill="none" fill-rule="evenodd">
        <path d="M15.5743148,2.00709941 C15.7803832,1.60876157 16.2703512,1.45289634 16.668689,1.65896467 L16.668689,1.65896467 L16.7964274,1.73691805 C17.1647942,1.97427369 17.2923416,2.45277498 17.0909916,2.84199211 L17.0909916,2.84199211 L7.62568517,21.1387855 C7.41961684,21.5371234 6.92964882,21.6929886 6.53131098,21.4869203 C6.51998678,21.4808328 6.51243731,21.4767745 6.50619141,21.4733143 L6.50619141,21.4733143 L6.40357262,21.4089669 C6.03520581,21.1716112 5.90765836,20.6931099 6.10900837,20.3038928 L6.10900837,20.3038928 Z M16.7102545,7.75025421 L16.9246593,7.75977915 L17.1314801,7.7791554 C18.8554645,7.98254654 20.264109,9.19910599 20.7418553,10.8268781 L20.7966806,11.0324478 L20.838,11.223 L22.4210527,11.2234491 C22.8789057,11.2235789 23.25,11.5947786 23.25,12.0526316 C23.25,12.4751287 22.9338447,12.8237837 22.5252079,12.874923 L22.4210527,12.8813801 L20.837,12.881 L20.795318,13.0779832 C20.3403697,14.9610454 18.6697976,16.3099543 16.7331527,16.3579919 L16.5246802,16.358126 L16.3144309,16.3480949 C14.3720569,16.2083558 12.8091446,14.7916482 12.4215123,12.9563614 L14.9337415,8.09911238 C15.4847714,7.86158277 16.0888145,7.73819053 16.7102545,7.75025421 Z M11.0025617,9.75652107 L9.99139584,11.711774 C9.82416952,10.4121282 8.71357093,9.40789474 7.36842105,9.40789474 C5.90777323,9.40789474 4.72368421,10.5919838 4.72368421,12.0526316 C4.72368421,13.5132794 5.90777323,14.6973685 7.36819137,14.6973685 C7.81511637,14.6969579 8.2361104,14.5858149 8.60521851,14.389901 L7.592,16.3473614 L7.47548841,16.353963 C5.52250006,16.3998661 3.80106016,15.1194453 3.25915653,13.2773393 L3.20565215,13.0778564 L3.163,12.881 L1.57894734,12.8813801 C1.15645029,12.8814814 0.807719391,12.5654098 0.756482093,12.1567853 L0.75,12.0526316 C0.75,11.5947786 1.12109433,11.2235789 1.57894734,11.2234491 L3.162,11.223 L3.2038002,11.0324034 C3.58657256,9.43761623 4.85112942,8.19855983 6.45280822,7.84800075 L6.66358993,7.80735818 L6.86928837,7.77806608 C8.53571435,7.58148022 10.1358385,8.37410888 11.0025617,9.75652107 Z M16.6315789,9.40789474 C15.1709311,9.40789474 13.9868421,10.5919838 13.9868421,12.0526316 C13.9868421,13.5132794 15.1709311,14.6973685 16.6313493,14.6973685 C18.0915679,14.696027 19.2749743,13.5126206 19.2763158,12.0526316 C19.2763158,10.5919838 18.0922268,9.40789474 16.6315789,9.40789474 Z" id="Combined-Shape" fill="#9BC3D3"></path>
    </g>
</svg>