<?xml version="1.0" encoding="UTF-8"?>
<svg width="18px" height="18px" viewBox="0 0 18 18" version="1.1" xmlns="http://www.w3.org/2000/svg" xmlns:xlink="http://www.w3.org/1999/xlink">
    <title>atoms/ico/24/postsit-24</title>
    <g id="🔺-Supplier" stroke="none" stroke-width="1" fill="none" fill-rule="evenodd">
        <g id="CV-Supp---Offer-Detail---candidate-actions" transform="translate(-1189.000000, -431.000000)" fill="#EC0000">
            <g id="Group-2" transform="translate(1170.000000, 411.000000)">
                <g id="atoms/ico/24/password-24-copy-3" transform="translate(16.000000, 16.000000)">
                    <path d="M18.61,4 C19.4384271,4 20.11,4.67157288 20.11,5.5 L20.11,16.61 C20.11,19.0952814 18.0952814,21.11 15.61,21.11 L4.5,21.11 C3.67157288,21.11 3,20.4384271 3,19.61 L3,5.5 C3,4.67157288 3.67157288,4 4.5,4 L18.61,4 Z M18.61,5 L4.5,5 C4.22385763,5 4,5.22385763 4,5.5 L4,19.61 C4,19.8861424 4.22385763,20.11 4.5,20.11 L14.5527149,20.1113741 C14.7763645,19.3718923 14.7874066,18.2506545 14.4290331,16.6646121 C14.3731634,16.3746902 14.463051,16.0758038 14.6695717,15.8647935 C14.8760924,15.6537833 15.1729768,15.5574896 15.4893037,15.6120936 C16.9793478,15.9459021 18.0931489,15.9485942 18.8759805,15.7520992 L19.0386807,15.7069924 C19.0648193,15.699025 19.0893983,15.6911849 19.1124395,15.6835307 L19.11,5.5 C19.11,5.22385763 18.8861424,5 18.61,5 Z M15.4441941,16.6253508 L15.512273,16.9615436 C15.7621053,18.2761502 15.762817,19.3167245 15.5855066,20.1112572 L15.61,20.11 C17.5047394,20.11 19.0478294,18.60441 19.1081679,16.7243323 C18.2607833,16.9344275 17.1505892,16.9514649 15.7680744,16.6905377 L15.4441941,16.6253508 Z M11.66,11.1 C11.9361424,11.1 12.16,11.3238576 12.16,11.6 C12.16,11.8454599 11.9831248,12.0496084 11.7498756,12.0919443 L11.66,12.1 L6.6,12.1 C6.32385763,12.1 6.1,11.8761424 6.1,11.6 C6.1,11.3545401 6.27687516,11.1503916 6.51012437,11.1080557 L6.6,11.1 L11.66,11.1 Z M16.51,7.16 C16.7861424,7.16 17.01,7.38385763 17.01,7.66 C17.01,7.90545989 16.8331248,8.10960837 16.5998756,8.15194433 L16.51,8.16 L6.6,8.16 C6.32385763,8.16 6.1,7.93614237 6.1,7.66 C6.1,7.41454011 6.27687516,7.21039163 6.51012437,7.16805567 L6.6,7.16 L16.51,7.16 Z" id="icon-color"></path>
                </g>
            </g>
        </g>
    </g>
</svg>