<!-- Generated by IcoMoon.io -->
<svg version="1.1" xmlns="http://www.w3.org/2000/svg" width="32" height="32" viewBox="0 0 32 32">
<title>lens</title>
<path d="M16.416 17.376c-0.384 0-0.672-0.288-0.672-0.64 0 0 0 0 0 0v0-10.432c0-0.352 0.288-0.64 0.672-0.64s0.64 0.288 0.64 0.64v10.432c0 0 0 0 0 0.032 0 0.32-0.288 0.608-0.608 0.608-0.032 0-0.032 0-0.032 0v0zM13.152 8.128c0.352 0 0.64 0.288 0.64 0.672v7.936c0 0.352-0.288 0.64-0.64 0.64s-0.64-0.288-0.64-0.64v0-7.936c0 0 0-0.032 0-0.064 0-0.32 0.256-0.608 0.608-0.608 0 0 0.032 0 0.032 0v0zM9.888 10.624c0.032 0 0.032 0 0.064 0 0.32 0 0.608 0.256 0.608 0.608 0 0 0 0.032 0 0.032v0 5.536c0 0.384-0.288 0.672-0.672 0.672s-0.64-0.288-0.64-0.672v0-5.504c0-0.032 0-0.064 0-0.064 0-0.352 0.256-0.608 0.608-0.608 0 0 0.032 0 0.032 0v0zM6.656 13.024c0 0 0 0 0 0 0.352 0 0.64 0.288 0.64 0.64 0 0 0 0 0 0v0 3.072c0 0 0 0 0 0.032 0 0.32-0.288 0.608-0.608 0.608-0.032 0-0.032 0-0.032 0v0c-0.032 0-0.032 0-0.032 0-0.352 0-0.64-0.288-0.64-0.608 0-0.032 0-0.032 0-0.032v0-3.072c0 0 0-0.032 0-0.032 0-0.352 0.288-0.608 0.64-0.608 0 0 0 0 0.032 0v0zM29.536 29.536c-0.48 0.448-1.12 0.736-1.824 0.736s-1.344-0.288-1.824-0.736v0l-5.856-5.856 3.648-3.68 5.856 5.856c0.512 0.48 0.8 1.12 0.8 1.856s-0.288 1.376-0.8 1.824v0zM19.456 19.456c0.608-0.608 1.12-1.248 1.568-1.952l0.032-0.064 1.696 1.696-3.648 3.648-1.696-1.696c0.768-0.544 1.44-1.088 2.080-1.632h-0.032zM4.576 18.56c-1.792-1.824-2.88-4.288-2.88-7.008s1.088-5.184 2.88-7.008v0c1.792-1.76 4.224-2.848 6.944-2.848s5.184 1.088 6.976 2.848v0c1.76 1.792 2.88 4.256 2.88 6.976 0 1.6-0.416 3.136-1.088 4.48l0.032-0.064c-0.064 0.064-0.096 0.096-0.096 0.16 0 0.032 0 0.032 0 0.032v0c-0.48 0.896-1.056 1.696-1.728 2.368v0c-0.672 0.672-1.472 1.248-2.304 1.728h-0.032c-0.064 0-0.16 0.064-0.224 0.128-1.28 0.672-2.784 1.056-4.416 1.056-2.72 0-5.152-1.088-6.944-2.848v0zM30.528 24.96l-8.832-8.8c0.64-1.376 1.024-2.944 1.024-4.64 0-3.072-1.248-5.856-3.264-7.872v0c-2.016-2.016-4.8-3.264-7.904-3.264s-5.888 1.248-7.904 3.264v0c-2.016 1.952-3.232 4.704-3.232 7.744 0 0.032 0 0.096 0 0.128v0c0 0 0 0 0 0 0 6.144 4.96 11.136 11.104 11.136 0 0 0 0 0 0v0c1.696-0.032 3.264-0.384 4.704-1.056h-0.064l8.8 8.832c0.704 0.736 1.696 1.184 2.784 1.184 2.176 0 3.904-1.728 3.904-3.904 0-1.056-0.416-1.984-1.088-2.688v0z"></path>
</svg>
