<!-- Generated by IcoMoon.io -->
<svg version="1.1" xmlns="http://www.w3.org/2000/svg" width="32" height="32" viewBox="0 0 32 32">
<title>custom</title>
<path d="M30.56 13.184l-3.168-0.256c-0.256-1.12-0.736-2.176-1.312-3.136l2.080-2.432c0.544-0.608 0.48-1.536-0.064-2.048l-1.568-1.568c-0.576-0.576-1.504-0.64-2.048-0.096l-2.464 2.080c-0.928-0.544-1.984-1.024-3.104-1.312l-0.32-3.2c-0.096-0.8-0.736-1.408-1.536-1.408h-2.208c-0.768 0-1.44 0.608-1.536 1.408l-0.256 3.168c-1.12 0.256-2.176 0.736-3.136 1.312l-2.432-2.112c-0.608-0.512-1.536-0.48-2.048 0.096l-1.568 1.568c-0.576 0.576-0.608 1.504-0.096 2.048l2.112 2.464c-0.576 0.96-1.056 1.984-1.312 3.136l-3.168 0.288c-0.8 0.096-1.408 0.736-1.408 1.536v2.208c0 0.8 0.608 1.44 1.408 1.536l3.168 0.256c0.256 1.152 0.736 2.176 1.312 3.136l-2.112 2.464c-0.512 0.608-0.48 1.504 0.096 2.048l1.568 1.568c0.32 0.288 0.704 0.416 1.088 0.416 0.352 0 0.704-0.128 0.992-0.32l2.464-2.112c0.96 0.576 1.984 0.992 3.136 1.312v0l0.256 3.168c0.064 0.8 0.736 1.408 1.504 1.408h2.24c0.768 0 1.44-0.608 1.504-1.408l0.288-3.168c1.12-0.32 2.176-0.736 3.104-1.312l2.464 2.112c0.288 0.192 0.64 0.32 0.992 0.32 0.384 0 0.768-0.128 1.088-0.416l1.568-1.568c0.576-0.576 0.608-1.504 0.096-2.048l-2.112-2.464c0.576-0.96 1.056-1.984 1.312-3.136v0l3.2-0.256c0.768-0.032 1.376-0.736 1.376-1.536v-2.208c-0.032-0.8-0.64-1.472-1.44-1.536zM21.216 15.808c0 2.88-2.368 5.216-5.248 5.216s-5.216-2.336-5.216-5.216c0-2.88 2.368-5.248 5.216-5.248s5.248 2.368 5.248 5.248z"></path>
</svg>
