<svg xmlns="http://www.w3.org/2000/svg" xmlns:xlink="http://www.w3.org/1999/xlink" width="74" height="74"><path d="M27.349 13.084 C 26.608 13.258,25.684 13.782,25.157 14.325 C 24.240 15.270,24.043 15.883,22.475 22.693 L 21.013 29.045 16.951 29.112 C 14.383 29.154,12.772 29.229,12.572 29.316 C 11.621 29.729,11.152 30.926,11.245 32.702 C 11.309 33.920,11.636 34.633,12.329 35.064 L 12.765 35.335 37.000 35.372 C 50.329 35.392,61.529 35.374,61.889 35.331 C 63.216 35.174,63.825 34.186,63.825 32.190 C 63.825 31.185,63.781 30.931,63.517 30.408 C 63.150 29.681,62.746 29.362,62.019 29.221 C 61.724 29.164,59.837 29.115,57.826 29.112 L 54.170 29.107 54.103 28.829 C 54.066 28.677,53.419 25.832,52.666 22.508 C 51.552 17.595,51.216 16.299,50.867 15.579 C 50.232 14.268,49.149 13.411,47.704 13.078 C 47.038 12.924,28.002 12.930,27.349 13.084 M47.869 15.099 C 48.304 15.282,48.961 15.908,49.193 16.360 C 49.321 16.610,51.923 28.605,51.923 28.946 C 51.923 29.077,49.231 29.107,37.362 29.107 C 23.551 29.107,22.803 29.096,22.866 28.891 C 22.902 28.772,23.571 25.967,24.353 22.658 C 25.135 19.349,25.859 16.478,25.962 16.280 C 26.203 15.814,26.725 15.315,27.195 15.101 C 27.757 14.846,47.264 14.844,47.869 15.099 M62.160 32.282 L 62.160 33.793 37.493 33.793 L 12.827 33.793 12.827 32.334 C 12.827 31.531,12.850 30.851,12.878 30.823 C 12.906 30.795,24.006 30.772,37.545 30.772 L 62.160 30.772 62.160 32.282 M22.323 37.941 C 19.101 38.402,17.242 39.098,15.997 40.307 C 15.739 40.557,15.378 41.067,15.195 41.440 C 14.890 42.061,14.863 42.234,14.877 43.475 C 14.913 46.588,15.980 50.100,17.628 52.527 C 19.125 54.731,21.278 56.343,23.490 56.914 C 24.463 57.165,26.875 57.161,28.376 56.906 C 31.386 56.394,33.883 55.256,36.788 53.072 L 37.995 52.165 38.949 52.892 C 42.776 55.805,46.262 57.103,50.254 57.103 C 51.908 57.103,52.766 56.934,53.980 56.369 C 58.106 54.449,61.063 49.119,61.101 43.537 C 61.111 42.097,61.090 41.954,60.785 41.378 C 59.965 39.828,58.117 38.755,55.250 38.165 C 53.975 37.903,49.971 37.794,48.210 37.973 C 44.248 38.378,40.109 39.471,38.568 40.520 L 38.101 40.838 36.842 40.224 C 33.773 38.729,29.204 37.845,24.728 37.880 C 23.575 37.889,22.493 37.917,22.323 37.941 M28.490 39.726 C 32.030 40.102,35.708 41.207,37.240 42.355 C 37.819 42.789,38.237 42.759,38.973 42.230 C 41.817 40.187,49.804 38.952,54.760 39.789 C 57.278 40.215,58.861 41.088,59.383 42.341 C 59.731 43.174,59.321 46.438,58.623 48.393 C 57.444 51.698,55.197 54.260,52.703 55.145 C 50.740 55.842,47.136 55.419,44.153 54.141 C 42.787 53.555,41.705 52.891,39.911 51.534 C 38.830 50.717,38.199 50.320,37.982 50.320 C 37.768 50.320,37.242 50.645,36.413 51.290 C 32.802 54.098,29.953 55.262,26.208 55.460 C 24.534 55.549,23.753 55.399,22.429 54.736 C 19.040 53.040,16.529 48.244,16.527 43.463 C 16.527 42.419,16.552 42.306,16.886 41.845 C 17.526 40.961,18.595 40.384,20.382 39.960 C 22.418 39.477,25.344 39.392,28.490 39.726 M44.462 43.769 C 44.190 43.893,43.874 44.102,43.758 44.232 C 43.158 44.907,42.556 46.905,42.552 48.233 C 42.550 48.807,42.600 48.968,42.856 49.208 C 43.152 49.486,43.208 49.493,44.675 49.418 C 47.316 49.282,49.538 48.762,51.216 47.886 C 52.612 47.158,53.332 46.308,53.482 45.214 C 53.633 44.118,52.977 43.856,49.592 43.659 C 46.388 43.473,45.043 43.502,44.462 43.769 M25.407 43.745 C 23.268 43.905,22.570 44.221,22.570 45.030 C 22.570 47.369,26.493 49.237,31.676 49.364 C 32.884 49.393,32.962 49.380,33.186 49.104 C 33.752 48.408,33.146 45.415,32.220 44.335 C 31.649 43.669,31.593 43.658,28.678 43.682 C 27.184 43.693,25.712 43.722,25.407 43.745 M31.206 45.788 C 31.499 46.436,31.766 47.579,31.651 47.693 C 31.506 47.838,28.985 47.500,27.762 47.172 C 26.121 46.732,24.327 45.809,24.594 45.542 C 24.725 45.411,26.479 45.304,28.835 45.282 L 30.969 45.263 31.206 45.788 M50.725 45.468 C 51.430 45.542,51.436 45.546,51.218 45.792 C 50.653 46.432,47.881 47.371,46.065 47.538 C 45.590 47.581,45.014 47.646,44.784 47.682 L 44.366 47.748 44.427 47.201 C 44.461 46.901,44.636 46.334,44.816 45.941 L 45.143 45.227 47.577 45.310 C 48.916 45.355,50.333 45.426,50.725 45.468 " stroke="none" fill-rule="evenodd" fill="black"></path></svg>