<?xml version="1.0" encoding="UTF-8"?>
<svg width="24px" height="24px" viewBox="0 0 24 24" version="1.1" xmlns="http://www.w3.org/2000/svg" xmlns:xlink="http://www.w3.org/1999/xlink">
    <title>SVG/C. People &amp; Nature/a. People/CA010-circle account user | PEOPLE, profile, circle, account, user, perfil, circulo, usuario, cuenta</title>
    <g id="C.-People-&amp;-Nature/a.-People/CA010-circle-account-user-|-PEOPLE,-profile,-circle,-account,-user,-perfil,-circulo,-usuario,-cuenta" stroke="none" stroke-width="1" fill="none" fill-rule="evenodd">
        <path d="M17.5,13 C19.9851424,13 22,15.0148576 22,17.5 C22,19.9851424 19.9851424,22 17.5,22 C15.0148576,22 13,19.9851424 13,17.5 C13,15.0148576 15.0148576,13 17.5,13 Z M17.5,14 C15.5671424,14 14,15.5671424 14,17.5 C14,19.4328576 15.5671424,21 17.5,21 C19.4328576,21 21,19.4328576 21,17.5 C21,15.5671424 19.4328576,14 17.5,14 Z M17.5,15 C17.7454599,15 17.9496084,15.1768752 17.9919443,15.4101244 L18,15.5 L18,17 L19.5,17 C19.7454599,17 19.9496084,17.1768752 19.9919443,17.4101244 L20,17.5 C20,17.7454599 19.8231248,17.9496084 19.5898756,17.9919443 L19.5,18 L18,18 L18,19.5 C18,19.7454599 17.8231248,19.9496084 17.5898756,19.9919443 L17.5,20 C17.2545401,20 17.0503916,19.8231248 17.0080557,19.5898756 L17,19.5 L17,18 L15.5,18 C15.2545401,18 15.0503916,17.8231248 15.0080557,17.5898756 L15,17.5 C15,17.2545401 15.1768752,17.0503916 15.4101244,17.0080557 L15.5,17 L17,17 L17,15.5 C17,15.2545401 17.1768752,15.0503916 17.4101244,15.0080557 L17.5,15 Z M10.9972627,2 C15.9665774,2 19.9945254,6.02794797 19.9945254,10.9972627 C19.9945254,11.2734051 19.7706678,11.4972627 19.4945254,11.4972627 C19.218383,11.4972627 18.9945254,11.2734051 18.9945254,10.9972627 C18.9945254,6.58023272 15.4142927,3 10.9972627,3 C6.58023272,3 3,6.58023272 3,10.9972627 C3,12.6864367 3.52359966,14.2532313 4.4173631,15.5442107 C4.90222432,14.5546909 6.29665869,13.8902644 7.86669223,13.8902644 C8.02795372,13.8902644 8.20609336,13.9036387 8.41210977,13.929113 L8.83934102,13.9916342 L8.83934102,13.9916342 L9.34734677,14.077232 L9.34734677,14.077232 C9.55396105,14.1103153 9.76075553,14.1505676 9.96672482,14.1976906 L10.5174791,14.3394289 C10.7370803,14.3985109 10.8691324,14.4224614 10.9972627,14.4224614 L11.0533482,14.4200494 L11.0533482,14.4200494 L11.1987222,14.400043 L11.1987222,14.400043 L11.3981608,14.358215 L11.3981608,14.358215 L12.0810543,14.1864723 L12.0810543,14.1864723 C12.3497065,14.1225928 12.6192768,14.2885939 12.6831563,14.5572461 C12.7470358,14.8258983 12.5810347,15.0954686 12.3123825,15.1593481 L11.7366234,15.3056288 L11.7366234,15.3056288 L11.4425798,15.3722012 C11.2685263,15.4068182 11.1323117,15.4224614 10.9972627,15.4224614 C10.8082066,15.4224614 10.6387823,15.3985906 10.4261925,15.3480449 L10.0202898,15.2405256 L10.0202898,15.2405256 C9.83652151,15.1921656 9.65163357,15.1498492 9.46633665,15.1138081 L8.67923203,14.978735 L8.67923203,14.978735 L8.48151716,14.9478123 L8.48151716,14.9478123 L8.19920261,14.9111485 C8.07064615,14.8973092 7.96051829,14.8902644 7.86669223,14.8902644 C6.46093299,14.8902644 5.33765436,15.5389332 5.24263535,16.2210571 L5.23612176,16.3142236 L5.23694696,16.5449963 C6.69165743,18.0551026 8.7346758,18.9945254 10.9972627,18.9945254 C11.2734051,18.9945254 11.4972627,19.218383 11.4972627,19.4945254 C11.4972627,19.7706678 11.2734051,19.9945254 10.9972627,19.9945254 C6.02794797,19.9945254 2,15.9665774 2,10.9972627 C2,6.02794797 6.02794797,2 10.9972627,2 Z M10.995116,4.32565608 C12.8476175,4.32565608 14.4671272,5.76150496 14.2985171,7.50106806 L13.9267441,10.4664912 C13.6979015,11.9631005 12.5190392,12.9785592 10.995116,12.9785592 C9.53591299,12.9785592 8.395434,12.0463292 8.09978766,10.6390152 L8.06605945,10.4527959 L7.72166888,7.68864263 C7.42319542,5.85560393 9.08336626,4.32565608 10.995116,4.32565608 Z M10.995116,5.32565608 C9.70329226,5.32565608 8.61034989,6.28524883 8.69459318,7.40558464 L9.05647091,10.3153406 C9.21089239,11.3252426 9.96754273,11.9785592 10.995116,11.9785592 C11.9672803,11.9785592 12.6987286,11.3950207 12.9053883,10.4915773 L12.9363523,10.3288789 L13.2868848,7.52819933 C13.4751847,6.36777681 12.3417816,5.32565608 10.995116,5.32565608 Z" id="icon-color" fill="#EC0000" fill-rule="nonzero"></path>
    </g>
</svg>