<!-- Generated by IcoMoon.io -->
<svg version="1.1" xmlns="http://www.w3.org/2000/svg" width="32" height="32" viewBox="0 0 32 32">
<title>star-brd</title>
<path d="M25.6 31.104c-0.096 0-0.192 0-0.288-0.096l-9.312-6.816-9.312 6.816c-0.192 0.096-0.384 0.096-0.576 0s-0.224-0.288-0.224-0.512l3.616-10.88-9.312-6.624c-0.192-0.096-0.192-0.384-0.192-0.576 0.096-0.224 0.288-0.32 0.512-0.32h11.392l3.584-11.296c0.128-0.384 0.8-0.384 0.928 0l3.68 11.296h11.392c0.224 0 0.416 0.096 0.512 0.32s0 0.384-0.192 0.48l-9.312 6.624 3.616 10.88c0.096 0.224 0 0.416-0.224 0.512-0.096 0.192-0.192 0.192-0.288 0.192zM2.016 13.12l8.384 5.888c0.192 0.096 0.192 0.288 0.192 0.512l-3.2 9.792 8.416-6.112c0.192-0.096 0.384-0.096 0.608 0l8.384 6.112-3.2-9.792c-0.096-0.224 0-0.416 0.192-0.512l8.416-5.888h-10.4c-0.192 0-0.416-0.128-0.512-0.32l-3.296-10.304-3.296 10.208c-0.096 0.192-0.288 0.288-0.512 0.288h-10.176z"></path>
</svg>
