<?xml version="1.0" encoding="UTF-8"?>
<svg width="24px" height="24px" viewBox="0 0 24 24" version="1.1" xmlns="http://www.w3.org/2000/svg" xmlns:xlink="http://www.w3.org/1999/xlink">
    <title>b. icons / a. lineal / 04. functional / FUNC115   | change account associate Currency</title>
    <g id="b.-icons-/-a.-lineal-/-04.-functional-/-FUNC115---|-change-account-associate-Currency" stroke="none" stroke-width="1" fill="none" fill-rule="evenodd">
        <g id="Group" fill="#EC0000">
            <path d="M6.24925359,8.32370169 C7.89999389,7.18840296 9.89532982,6.76376414 11.8618682,7.12983214 C12.1337376,7.17961729 12.3128687,7.44025768 12.2625949,7.71163607 C12.2123211,7.98301447 11.9502135,8.1626317 11.6802965,8.11187033 C9.97537762,7.79949236 8.24703009,8.16360792 6.81593298,9.14759855 C5.385812,10.130613 4.42426317,11.6114799 4.1084651,13.3178446 C3.79217891,15.0251854 4.15971513,16.7520499 5.14322832,18.1821553 C6.1262535,19.6122608 7.60762452,20.5737993 9.31400769,20.890082 C11.0194147,21.2024599 12.7482503,20.8383444 14.1783712,19.8543537 C15.6084922,18.8713393 16.5700412,17.3904724 16.8863272,15.6841077 C17.0298275,14.9119485 17.0278751,14.117337 16.8814463,13.3227254 C16.8306843,13.0513472 17.0103036,12.7907068 17.2816849,12.7409215 C17.5472091,12.6901601 17.8137094,12.8688013 17.8634952,13.1411558 C18.0333526,14.0568137 18.0343288,14.9734478 17.8683762,15.8666536 C17.5042567,17.8346349 16.3953028,19.5439282 14.7445625,20.6782507 C13.4803941,21.5480282 12.0151303,22 10.5132592,22 C10.0544491,22 9.59271034,21.9580242 9.13243594,21.8721203 C7.1634571,21.5080047 5.45414535,20.3990629 4.31932242,18.7483405 C3.18498761,17.0985943 2.76083229,15.1052323 3.12543992,13.1362749 C3.49004755,11.1673175 4.59948952,9.45802419 6.24925359,8.32370169 Z M10.4971521,9.00312379 C10.7734143,9.00312379 10.9969623,9.22666927 10.9969623,9.50292855 L10.9969623,9.50292855 L10.9969623,10.4349986 C12.0637568,10.6037558 12.9129826,11.1032555 12.9552029,11.1292465 C13.1914413,11.2717689 13.266608,11.5782899 13.124084,11.8145257 C12.9820481,12.0497853 12.6755239,12.1269037 12.4387974,11.9853574 C12.4285474,11.978524 11.408915,11.3752441 10.3321755,11.3752441 C9.49801971,11.3752441 8.65361379,11.7530262 8.65361379,12.4754002 C8.65361379,13.2807497 9.52828161,13.6868411 10.8622477,14.2149551 C12.1122613,14.7089028 13.5292037,15.2692308 13.5292037,16.6544319 C13.5292037,17.9110211 12.5894361,18.7037412 10.9969623,18.8465077 L10.9969623,18.8465077 L10.9969623,19.7538071 C10.9969623,20.0300664 10.7734143,20.2536119 10.4971521,20.2536119 C10.2208898,20.2536119 9.99734188,20.0300664 9.99734188,19.7538071 L9.99734188,19.7538071 L9.99734188,18.8490702 C8.43549602,18.7180789 7.69664092,17.9883834 7.6637555,17.9537291 C7.47193385,17.7555644 7.47779093,17.4392816 7.67644598,17.2469739 C7.87558906,17.0575948 8.19187524,17.0605234 8.38320878,17.2606405 C8.40419691,17.2811403 9.02847153,17.8766108 10.4698186,17.8766108 C11.2390578,17.8766108 12.5295833,17.7174933 12.5295833,16.654432 C12.5295833,15.9984383 11.723737,15.6304179 10.4947116,15.1442797 C9.16318597,14.618118 7.65399351,14.0206951 7.65399351,12.4754003 C7.65399351,11.3498634 8.62384009,10.5189502 9.99734188,10.399734 L9.99734188,10.399734 L9.99734188,9.50292855 C9.99734188,9.22666927 10.2208898,9.00312379 10.4971521,9.00312379 Z M16.1463739,6.14486529 C16.3416121,5.94962906 16.6578983,5.94962916 16.8531367,6.14486529 C17.048375,6.34010143 17.048375,6.65638418 16.8531367,6.85162042 L16.8531367,6.85162042 L15.7070875,7.99765715 L20.4982368,7.99765715 C20.774499,7.99765715 20.9980469,8.22120253 20.9980469,8.49746181 C20.9980469,8.7737211 20.774499,8.99726658 20.4982368,8.99726658 L20.4982368,8.99726658 L15.7070875,8.99726658 L16.8531367,10.1433033 C17.048375,10.3385394 17.048375,10.6548222 16.8531367,10.8500584 C16.7555175,10.9476766 16.6276364,10.9964856 16.4997553,10.9964856 C16.3718741,10.9964856 16.243993,10.9476765 16.1463739,10.8500584 L16.1463739,10.8500584 L14.1477433,8.85144954 C14.1013742,8.805203 14.064584,8.74980464 14.0391419,8.68830526 C13.988624,8.56616068 13.988624,8.42876315 14.0391419,8.30661846 C14.064584,8.24511908 14.1013742,8.18972072 14.1477433,8.14347419 L14.1477433,8.14347419 Z M18.1456146,2.14642718 C18.3408529,1.95119094 18.657139,1.95119094 18.8523774,2.14642718 L18.8523774,2.14642718 L20.8510081,4.14503607 C20.8973772,4.19128271 20.9341674,4.24668097 20.9596093,4.30818044 C21.0101273,4.43032503 21.0101273,4.56772256 20.9596093,4.68986725 C20.9341673,4.75136663 20.8973771,4.80676499 20.851008,4.85301152 L20.851008,4.85301152 L18.8523774,6.85162042 C18.7547583,6.94923858 18.6268771,6.99804762 18.498996,6.99804762 C18.3711149,6.99804762 18.2432337,6.94923848 18.1456146,6.85162042 C17.9503763,6.65638428 17.9503763,6.34010153 18.1456146,6.14486529 L18.1456146,6.14486529 L19.2916638,4.99882856 L14.5005145,4.99882856 C14.2242522,4.99882856 14.0007043,4.77528308 14.0007043,4.4990238 C14.0007043,4.22276451 14.2242522,3.99921903 14.5005145,3.99921903 L14.5005145,3.99921903 L19.2916638,3.99921903 L18.1456146,2.8531823 C17.9503763,2.65794617 17.9503764,2.34166341 18.1456146,2.14642718 Z" id="🌈-Color"></path>
        </g>
    </g>
</svg>