<?xml version="1.0" encoding="UTF-8"?>
<svg width="14px" height="14px" viewBox="0 0 14 14" version="1.1" xmlns="http://www.w3.org/2000/svg" xmlns:xlink="http://www.w3.org/1999/xlink">
    <!-- Generator: Sketch 50.2 (55047) - http://www.bohemiancoding.com/sketch -->
    <title>Shape</title>
    <desc>Created with Sketch.</desc>
    <defs></defs>
    <g id="Symbols" stroke="none" stroke-width="1" fill="none" fill-rule="evenodd">
        <g id="CARDS/-Fx-1024" transform="translate(-101.000000, -274.000000)" fill="#EC0000" fill-rule="nonzero">
            <g id="Group-3">
                <g id="CARDS/-Fx">
                    <g id="Group-7" transform="translate(52.252252, 109.726115)">
                        <g id="Group-19">
                            <g id="Group-6-Copy-2">
                                <g id="Group-5" transform="translate(15.913570, 163.050955)">
                                    <g id="Group-2" transform="translate(33.699324, 1.025478)">
                                        <path d="M11.2514508,5.17449374 C11.2514508,4.84220743 11.5190608,4.57809617 11.855749,4.57809617 C12.1924372,4.57809617 12.46875,4.84220743 12.46875,5.17449374 L12.46875,12.7322628 C12.46875,13.0645491 12.1924372,13.3372493 11.855749,13.3372493 L4.20656286,13.3372493 C3.86987465,13.3372493 3.59356188,13.0645491 3.59356188,12.7322628 C3.59356188,12.3999765 3.86987465,12.1272762 4.20656286,12.1272762 L10.3877014,12.1272762 L0.175007157,2.05615578 C-0.058335719,1.81781147 -0.058335719,1.44258024 0.175007157,1.20423593 C0.416508875,0.965891631 0.805413668,0.965891631 1.03821262,1.20423593 L11.2514508,11.2839454 L11.2514508,5.17449374 Z" id="Shape"></path>
                                    </g>
                                </g>
                            </g>
                        </g>
                    </g>
                </g>
            </g>
        </g>
    </g>
</svg>