<?xml version="1.0" encoding="UTF-8"?>
<svg width="24px" height="24px" viewBox="0 0 24 24" version="1.1" xmlns="http://www.w3.org/2000/svg" xmlns:xlink="http://www.w3.org/1999/xlink">
    <title>atoms/ico/24/player-24</title>
    <g id="atoms/ico/24/player-24" stroke="none" stroke-width="1" fill="none" fill-rule="evenodd">
        <path d="M5.25,3 C4.28350169,3 3.5,3.78350169 3.5,4.75 L3.5,18.8103476 C3.5,19.0303062 3.54146691,19.2482933 3.62222836,19.452889 C3.9770942,20.3518824 4.99354798,20.792985 5.89254144,20.4381192 L19.8125884,14.3381006 C20.5207156,14.0585768 21.0812834,13.4980089 21.3608073,12.7898817 C21.9184536,11.3771778 21.2252924,9.77989323 19.8125884,9.22224692 L5.89254144,3.12222836 C5.68794574,3.04146691 5.46995866,3 5.25,3 Z M5.25,4.5 C5.28142267,4.5 5.31256368,4.50592384 5.34179163,4.51746119 L19.2618386,10.6174798 C19.9039768,10.8709553 20.2190501,11.5969938 19.9655745,12.2391319 C19.8385182,12.5610079 19.5837146,12.8158115 19.2618386,12.9428678 L5.34179163,19.0428864 C5.213364,19.0935815 5.06815631,19.0305668 5.01746119,18.9021392 C5.00592384,18.8729112 5,18.8417702 5,18.8103476 L5,4.75 C5,4.61192881 5.11192881,4.5 5.25,4.5 Z" id="Rectangle" fill="#EC0000"></path>
    </g>
</svg>