<!-- Generated by IcoMoon.io -->
<svg version="1.1" xmlns="http://www.w3.org/2000/svg" width="32" height="32" viewBox="0 0 32 32">
<title>bank</title>
<path d="M30.496 26.72h-2.144v-12.832h2.304c0.288 0 0.512-0.224 0.512-0.512 0 0 0 0 0 0v0-1.984c-0.032-0.192-0.128-0.352-0.256-0.448v0l-13.6-8.224c-0.384-0.192-0.8-0.32-1.28-0.32s-0.896 0.128-1.28 0.352l0.032-0.032-13.632 8.224c-0.128 0.096-0.224 0.256-0.224 0.448v1.984c0 0 0 0 0 0 0 0.288 0.192 0.512 0.48 0.512h2.272v12.832h-2.144c-0.864 0-1.536 0.672-1.536 1.536 0 0 0 0 0 0v0 0.128c0 0.832 0.704 1.504 1.536 1.536h28.96c0.864-0.032 1.536-0.704 1.536-1.536v-0.128c0 0 0 0 0 0 0-0.864-0.672-1.536-1.536-1.536v0zM24.832 13.888h2.528v12.832h-2.528zM8.192 13.888h5.568v12.832h-5.568zM14.752 13.888h2.528v12.832h-2.528zM18.272 13.888h5.568v12.832h-5.568zM1.888 12.896v-1.216l13.344-7.936c0.192-0.128 0.48-0.224 0.736-0.224s0.544 0.096 0.768 0.224v0l13.376 7.936v1.216zM4.672 13.888h2.528v12.832h-2.528zM31.168 28.384c0 0.352-0.288 0.672-0.672 0.672h-28.96c-0.384 0-0.672-0.32-0.672-0.672v-0.128c0 0 0 0 0 0 0-0.384 0.288-0.672 0.672-0.672h28.96c0.384 0 0.672 0.288 0.672 0.672 0 0 0 0 0 0v0z"></path>
</svg>
