<!-- Generated by IcoMoon.io -->
<svg version="1.1" xmlns="http://www.w3.org/2000/svg" width="32" height="32" viewBox="0 0 32 32">
<title>zip</title>
<path d="M24.928 28.064h-17.856v-5.12h-1.216v6.368l20.288 0.032v-6.4h-1.216v5.12zM7.072 3.52h13.472v4.416h4.384v3.84h1.216v-4.704l-4.768-4.8h-15.52v9.536h1.216zM21.728 4.384v0l2.336 2.304h-2.336zM21.408 15.040c-0.256-0.032-0.576-0.064-0.896-0.064-0.064 0-0.128 0-0.192 0v0h-0.704v2.112h0.8c0.064 0.032 0.16 0.032 0.224 0.032 0.352 0 0.672-0.064 0.992-0.128h-0.032c0.224-0.064 0.384-0.192 0.48-0.384v0c0.096-0.16 0.16-0.352 0.16-0.544 0 0 0-0.032 0-0.032v0c0 0 0 0 0-0.032 0-0.224-0.064-0.448-0.224-0.64v0c-0.16-0.16-0.352-0.288-0.608-0.32v0zM26.912 11.808h-21.824c-0.544 0-0.96 0.416-0.96 0.96v0 9.216c0 0.512 0.416 0.96 0.96 0.96v0h21.824c0.544 0 0.96-0.448 0.96-0.96v0-9.216c0 0 0 0 0 0 0-0.544-0.416-0.96-0.96-0.96 0 0 0 0 0 0v0zM14.24 21.184h-6.048v-1.344l3.904-4.864h-3.456v-1.248h5.44v1.184l-4.064 5.024h4.224zM16.672 21.184h-1.504v-7.456h1.504zM23.552 17.184c-0.16 0.288-0.352 0.544-0.64 0.736v0c-0.224 0.16-0.48 0.288-0.768 0.352v0c-0.416 0.064-0.896 0.096-1.376 0.096-0.064 0-0.128 0-0.192 0v0h-0.96v2.816h-1.504v-7.456h2.4c0.096 0 0.224 0 0.352 0 0.512 0 0.992 0.032 1.504 0.128l-0.064-0.032c0.448 0.128 0.8 0.384 1.056 0.736v0c0.288 0.384 0.448 0.864 0.448 1.344 0 0.064 0 0.096 0 0.128v0c0 0.032 0 0.064 0 0.096 0 0.384-0.096 0.736-0.256 1.056v0z"></path>
</svg>
