<?xml version="1.0" encoding="UTF-8"?>
<svg width="24px" height="24px" viewBox="0 0 24 24" version="1.1" xmlns="http://www.w3.org/2000/svg" xmlns:xlink="http://www.w3.org/1999/xlink">
    <title>atoms/ico/24/bulletines_diseable-24</title>
    <g id="atoms/ico/24/bulletines_diseable-24" stroke="none" stroke-width="1" fill="none" fill-rule="evenodd">
        <path d="M22.2666667,14.2033898 L18.38,14.2033898 L18.38,2.75329567 C18.38,2.33898305 18.05,2 17.6466667,2 L1.73333333,2 C1.33,2 1,2.33898305 1,2.75329567 L1,18.5348399 C1,20.4557439 2.50333333,22 4.37333333,22 L17.6466667,22 C20.58,22 23,19.5517891 23,16.5009416 L23,14.9943503 C23,14.5423729 22.67,14.2033898 22.2666667,14.2033898 Z M16.9133333,14.9566855 L16.9133333,20.4557439 L4.37333333,20.4557439 C3.31,20.4557439 2.46666667,19.5894539 2.46666667,18.4971751 L2.46666667,3.50659134 L16.9133333,3.50659134 L16.9133333,14.9566855 Z M21.5333333,16.4632768 C21.5333333,18.4218456 20.1766667,20.0414313 18.38,20.3804143 L18.38,15.7099812 L21.5333333,15.7099812 L21.5333333,16.4632768 Z M5.10666667,7.66854991 C5.10666667,7.25423729 5.43666667,6.91525424 5.84,6.91525424 L13.54,6.91525424 C13.9433333,6.91525424 14.2733333,7.25423729 14.2733333,7.66854991 C14.2733333,8.08286252 13.9433333,8.42184557 13.54,8.42184557 L5.84,8.42184557 C5.43666667,8.42184557 5.10666667,8.08286252 5.10666667,7.66854991 Z M5.10666667,11.3220339 C5.10666667,10.9077213 5.43666667,10.5687382 5.84,10.5687382 L13.54,10.5687382 C13.9433333,10.5687382 14.2733333,10.9077213 14.2733333,11.3220339 C14.2733333,11.7363465 13.9433333,12.0753296 13.54,12.0753296 L5.84,12.0753296 C5.43666667,12.0753296 5.10666667,11.7363465 5.10666667,11.3220339 Z M5.10666667,14.9755179 C5.10666667,14.5612053 5.43666667,14.2222222 5.84,14.2222222 L13.54,14.2222222 C13.9433333,14.2222222 14.2733333,14.5612053 14.2733333,14.9755179 C14.2733333,15.3898305 13.9433333,15.7288136 13.54,15.7288136 L5.84,15.7288136 C5.43666667,15.7288136 5.10666667,15.3898305 5.10666667,14.9755179 Z" id="Shape" fill="#7F7F7F"></path>
    </g>
</svg>