<?xml version="1.0" encoding="UTF-8"?>
<svg width="28px" height="22px" viewBox="0 0 28 22" version="1.1" xmlns="http://www.w3.org/2000/svg" xmlns:xlink="http://www.w3.org/1999/xlink">
    <title>2D258DF0-E47B-49C2-8980-170C00916EE8</title>
    <defs>
        <filter id="filter-1">
            <feColorMatrix in="SourceGraphic" type="matrix" values="0 0 0 0 1.000000 0 0 0 0 1.000000 0 0 0 0 1.000000 0 0 0 1.000000 0"></feColorMatrix>
        </filter>
    </defs>
    <g id="Page-1" stroke="none" stroke-width="1" fill="none" fill-rule="evenodd">
        <g id="Cliente_Footer" transform="translate(-1282.000000, -12.000000)">
            <g id="header">
                <g id="Elements-/-Header-/-Desktop">
                    <g id="Group" transform="translate(1114.000000, 9.000000)">
                        <g id="Group-16" transform="translate(149.000000, 3.000000)">
                            <g filter="url(#filter-1)" id="atoms/ico/24/vdr-24">
                                <g transform="translate(19.000000, 0.000000)">
                                    <path d="M20.2989539,7.50107296 C22.200263,7.50107296 23.9876834,8.2203505 25.3318702,9.52673065 C26.6763899,10.832949 27.4166667,12.5696661 27.4166667,14.4172031 C27.4165002,16.2645784 26.6760569,18.0012955 25.3317037,19.3075139 C23.9875169,20.613894 22.19993,21.3333333 20.2984544,21.3333333 C18.3971453,21.3333333 16.6095584,20.613894 15.2653717,19.3076756 C13.9206854,18.0014573 13.1804087,16.2647401 13.1805751,14.4172031 C13.1805751,12.5698279 13.9210184,10.8331108 15.2657047,9.52689243 C16.6098914,8.22051228 18.3974783,7.50107296 20.2989539,7.50107296 Z M17.4640569,17.9362596 C17.031979,18.0744204 16.6293724,18.245261 16.2638961,18.4450603 C16.9282471,19.0735788 17.7201401,19.5294772 18.5832968,19.78865 C18.1305724,19.2212847 17.7564379,18.5985903 17.4640569,17.9362596 Z M23.3279946,18.0022662 C23.0570926,18.6018259 22.7179239,19.1672499 22.3144848,19.6886695 C23.0607557,19.4194662 23.7467521,18.999645 24.3330127,18.4448985 C24.0233153,18.275514 23.6864777,18.1276463 23.3279946,18.0022662 Z M20.9646369,17.535205 L20.9646369,19.2593032 C21.3895551,18.7763874 21.7445416,18.2399222 22.0244348,17.6639825 C21.6807706,17.6028293 21.3266166,17.558825 20.9646369,17.535205 L20.9646369,17.535205 Z M19.6326049,17.535205 C19.3433875,17.5542951 19.0594982,17.5866513 18.78127,17.629685 C19.0133766,18.113895 19.2972659,18.5712493 19.6326049,18.9920413 L19.6326049,18.9920413 Z M18.3406042,0.625 C19.4531613,0.625 20.3941358,1.44198386 20.5206258,2.57678614 L20.5206258,2.57678614 L20.5297049,2.76338378 L20.5299755,6.2560378 C20.5082804,6.25590905 20.4865746,6.25584458 20.4648582,6.25584458 C20.0479866,6.25584458 19.642318,6.27743091 19.2487231,6.31968951 L19.25,2.54041561 L19.2462631,2.44804467 C19.2239098,2.25020533 19.0326184,2.08455295 18.7896448,2.08455295 L18.7896448,2.08455295 L2.26107772,2.08333333 L2.15888375,2.08737181 C1.92353701,2.11182206 1.75487735,2.29090549 1.75487735,2.48941266 L1.75487735,2.48941266 L1.75,15.5 L4.56616047,12.7709217 L11.952919,12.7709259 C11.8551892,13.2836725 11.798965,13.8197188 11.7867191,14.3764691 L5.44133333,14.3753333 L2.52501963,17.2115288 C1.8116458,17.9046665 0.629058421,17.5799673 0.338980062,16.5955267 L0.338980062,16.5955267 L0.303758824,16.450443 L0.291666667,16.2826431 L0.291666667,2.76338378 C0.291666667,1.66068819 1.14536343,0.751861132 2.29233665,0.633582585 L2.29233665,0.633582585 L2.48076743,0.625 Z M16.7527518,15.0640029 L14.551569,15.0640029 C14.6509719,15.9115726 14.9448515,16.7162704 15.4123947,17.4290767 C15.9000849,17.1430482 16.4457185,16.9037744 17.0318125,16.7149762 C16.8874536,16.1807759 16.7935453,15.628618 16.7527518,15.0640029 L16.7527518,15.0640029 Z M26.0453398,15.0640029 L24.0687709,15.0640029 C24.0261458,15.6532086 23.927076,16.2289866 23.7718942,16.7847037 C24.2795649,16.9616919 24.7549338,17.1768604 25.1843476,17.4289149 C25.6518908,16.7161086 25.9459369,15.9114108 26.0453398,15.0640029 L26.0453398,15.0640029 Z M22.7335753,15.0640029 L20.9646369,15.0640029 L20.9646369,16.2399877 C21.4859609,16.2704025 21.9964621,16.3362473 22.4883149,16.4354189 C22.6116944,15.9918159 22.6939474,15.5331673 22.7335753,15.0640029 L22.7335753,15.0640029 Z M19.6326049,15.0640029 L18.0881139,15.0640029 C18.1264098,15.5187688 18.2045002,15.9638278 18.3215525,16.3944884 C18.7474697,16.3176425 19.1860412,16.2661962 19.6326049,16.2399877 L19.6326049,16.2399877 L19.6326049,15.0640029 Z M18.3596819,12.3083901 C18.2221496,12.7796577 18.1305724,13.2685593 18.0881139,13.7697563 L18.0881139,13.7697563 L19.6326049,13.7697563 L19.6326049,12.4554489 C19.1993615,12.4300493 18.7734443,12.3813533 18.3596819,12.3083901 Z M22.450352,12.2672978 C21.969988,12.3622631 21.4726406,12.4256812 20.9646369,12.4554489 L20.9646369,12.4554489 L20.9646369,13.7697563 L22.7335753,13.7697563 C22.6899513,13.2541608 22.5945445,12.7511842 22.450352,12.2672978 Z M15.4789963,11.3035694 C14.9721581,12.0408046 14.6559671,12.8822267 14.5517355,13.7697563 L14.5517355,13.7697563 L16.7527518,13.7697563 C16.7970419,13.1601662 16.9004409,12.5641656 17.0649468,11.9906526 C16.4928391,11.8086492 15.9591938,11.5782733 15.4789963,11.3035694 Z M25.1185785,11.3034076 C24.6958249,11.5454318 24.2316118,11.7529966 23.7357629,11.9235135 C23.9114246,12.5178963 24.0231488,13.1362226 24.0689374,13.7697563 L24.0689374,13.7697563 L26.0455063,13.7697563 C25.9412748,12.8820649 25.6252502,12.0408046 25.1185785,11.3034076 Z M19.6326049,9.84236503 C19.3272366,10.225462 19.0634943,10.6386502 18.8435425,11.0751349 C19.1017902,11.1133152 19.3648665,11.1425975 19.6326049,11.1600698 L19.6326049,11.1600698 Z M20.9646369,9.57494133 L20.9646369,11.1600698 C21.304305,11.1377441 21.6374795,11.0984313 21.9613298,11.0431023 C21.6917598,10.5153733 21.3582523,10.0222653 20.9646369,9.57494133 L20.9646369,9.57494133 Z M18.5829638,9.04591804 C17.7606005,9.29295736 17.0026743,9.71892626 16.3583039,10.3023079 C16.7139564,10.4883559 17.1039088,10.6462539 17.5188367,10.7758404 C17.8028925,10.1592937 18.1583786,9.57833873 18.5829638,9.04591804 Z M22.3141518,9.14541325 C22.6907838,9.63204996 23.0128025,10.1563816 23.2742138,10.7116134 C23.616213,10.5949694 23.9402298,10.4585882 24.2392709,10.3019844 C23.6739899,9.79027161 23.0211277,9.40005626 22.3141518,9.14541325 Z M5.42419552,8.50125179 C6.00396756,8.50125179 6.47396566,8.05345647 6.47396566,7.50107296 C6.47396566,6.94868945 6.00396756,6.50089413 5.42419552,6.50089413 C4.84442347,6.50089413 4.37442537,6.94868945 4.37442537,7.50107296 C4.37442537,8.05345647 4.84442347,8.50125179 5.42419552,8.50125179 Z M9.36083357,8.50125179 C9.94060561,8.50125179 10.4106037,8.05345647 10.4106037,7.50107296 C10.4106037,6.94868945 9.94060561,6.50089413 9.36083357,6.50089413 C8.78106152,6.50089413 8.31106342,6.94868945 8.31106342,7.50107296 C8.31106342,8.05345647 8.78106152,8.50125179 9.36083357,8.50125179 Z M13.2974716,8.50125179 C13.8772437,8.50125179 14.3472418,8.05345647 14.3472418,7.50107296 C14.3472418,6.94868945 13.8772437,6.50089413 13.2974716,6.50089413 C12.7176996,6.50089413 12.2477015,6.94868945 12.2477015,7.50107296 C12.2477015,8.05345647 12.7176996,8.50125179 13.2974716,8.50125179 Z" id="Combined-Shape" fill="#EC0000"></path>
                                </g>
                            </g>
                        </g>
                    </g>
                </g>
            </g>
        </g>
    </g>
</svg>