<?xml version="1.0" encoding="UTF-8"?>
<svg width="24px" height="24px" viewBox="0 0 24 24" version="1.1" xmlns="http://www.w3.org/2000/svg" xmlns:xlink="http://www.w3.org/1999/xlink">
    <title>14F729DB-09AD-4E62-8132-24407811FB3A</title>
    <g id="Styles" stroke="none" stroke-width="1" fill="none" fill-rule="evenodd">
        <g id="Icons" transform="translate(-517.000000, -600.000000)" fill="#444444">
            <g id="atoms/ico/24/add-24-copy-25" transform="translate(517.000000, 600.000000)">
                <path d="M18,1.25 C19.5187831,1.25 20.75,2.48121694 20.75,4 L20.75,4 L20.75,21 C20.75,22.5187831 19.5187831,23.75 18,23.75 L18,23.75 L6,23.75 C4.48121694,23.75 3.25,22.5187831 3.25,21 L3.25,21 L3.25,4 C3.25,2.48121694 4.48121694,1.25 6,1.25 L6,1.25 Z M18,2.75 L9.673,2.75 L9.67199119,3.666 L10.3852558,3.66636993 C10.5977769,3.66636993 10.779455,3.79768643 10.849706,3.98343947 L10.8727565,4.06615662 L10.8807533,4.15419464 C10.8807533,4.39535004 10.7052616,4.59444504 10.4741745,4.63571112 L10.385145,4.64356156 L9.67199119,4.642 L9.67199119,4.994 L10.3852558,4.99440566 C10.5978371,4.99440566 10.7794818,5.12607537 10.8497149,5.31212252 L10.872759,5.3949609 L10.8807533,5.48310569 C10.8807533,5.7234404 10.7050406,5.92182342 10.4740729,5.96294139 L10.3851051,5.97076361 L9.67199119,5.969 L9.67199119,6.322 L10.3852558,6.32223297 C10.5976733,6.32223297 10.779409,6.4539791 10.8496906,6.63976544 L10.8727521,6.72247019 L10.8807533,6.81043282 C10.8807533,7.05157687 10.7052791,7.25002202 10.4741243,7.29114378 L10.3850652,7.29896603 L9.67199119,7.297 L9.67199119,7.65 L10.3852558,7.65031038 C10.5978807,7.65031038 10.7795011,7.7818865 10.8497213,7.96796485 L10.8727609,8.05082488 L10.8807533,8.13901042 C10.8807533,8.3801264 10.7052711,8.57856044 10.4741859,8.61968014 L10.3851567,8.62750202 L9.67199119,8.626 L9.67199119,8.978 L10.3852558,8.97847116 C10.5978327,8.97847116 10.7794798,9.11003542 10.8497142,9.29601966 L10.8727589,9.37883412 L10.8807533,9.46696278 C10.8807533,9.70733262 10.7050375,9.90614939 10.4741493,9.94736336 L10.3852155,9.95520431 L9.67199119,9.954 L9.67199119,10.57 L10.4724674,10.5707302 C10.6668177,10.5707302 10.8380191,10.6823601 10.9189807,10.8481398 L10.9479581,10.922336 L10.964712,11.0021573 L11.3378609,14.1512271 C11.3997093,14.6791988 11.223614,15.2003738 10.8448542,15.6168164 C10.4245684,16.0766227 9.80328582,16.35 9.17787314,16.35 C8.54900958,16.35 7.9243215,16.0756159 7.50398238,15.6146799 C7.16793344,15.2460163 6.99179658,14.7938673 7.00029358,14.327209 L7.01218295,14.1516667 L7.38531346,11.0020862 C7.41136231,10.7830229 7.58175277,10.6125809 7.79533091,10.5774095 L7.87724957,10.5707302 L8.68199119,10.57 L8.68199119,9.954 L7.97133929,9.95520432 C7.75922129,9.95520432 7.57752461,9.82335866 7.50724549,9.63758589 L7.4841835,9.55489449 L7.47618131,9.46696278 C7.47618131,9.22617663 7.65176959,9.02748606 7.8824107,8.98630528 L7.9712463,8.97847118 L8.68199119,8.978 L8.68199119,8.626 L7.97133929,8.62750205 C7.75900013,8.62750205 7.57742632,8.49599423 7.50721273,8.30999118 L7.48417413,8.22716366 L7.47618131,8.13901042 C7.47618131,7.89805646 7.6517209,7.69933173 7.88241676,7.65814543 L7.97127803,7.65031039 L8.68199119,7.65 L8.68199119,7.297 L7.97133929,7.29896613 C7.75899228,7.29896613 7.57742283,7.1674522 7.50721157,6.98143157 L7.4841738,6.89859581 L7.47618131,6.81043282 C7.47618131,6.57017329 7.65193146,6.37130366 7.88249767,6.33007658 L7.97129331,6.32223298 L8.68199119,6.322 L8.68199119,5.969 L7.97133929,5.97076368 C7.75921824,5.97076368 7.57752325,5.83924726 7.50724504,5.6536393 L7.48418337,5.57100704 L7.47618131,5.48310569 C7.47618131,5.24228931 7.6517651,5.04345758 7.88241828,5.0022458 L7.97125922,4.99440568 L8.68199119,4.994 L8.68199119,4.642 L7.97133929,4.64356159 C7.75900073,4.64356159 7.57742658,4.51156961 7.50721282,4.32531609 L7.48417416,4.24239764 L7.47618131,4.15419464 C7.47618131,3.91360952 7.65181745,3.71528953 7.88244069,3.67418862 L7.97126628,3.66636994 L8.68299119,3.666 L8.683,2.75 L6,2.75 C5.35279131,2.75 4.8204661,3.24187466 4.75645361,3.87219476 L4.75,4 L4.75,21 C4.75,21.6903559 5.30964406,22.25 6,22.25 L6,22.25 L18,22.25 C18.6903559,22.25 19.25,21.6903559 19.25,21 L19.25,21 L19.25,4 C19.25,3.30964406 18.6903559,2.75 18,2.75 L18,2.75 Z M10.0309912,11.547 L8.31899119,11.547 L7.99571271,14.2634989 C7.9721375,14.4674745 8.02761736,14.6729732 8.15551198,14.8550741 L8.24088541,14.9613276 C8.47483172,15.2181485 8.82649596,15.3724332 9.17787314,15.3724332 C9.52561472,15.3724332 9.87513256,15.2184846 10.1077007,14.9628421 C10.2651439,14.7904142 10.3508434,14.590195 10.3586997,14.3860788 L10.3540234,14.2633325 L10.0309912,11.547 Z M9.17499119,13.175 C9.72727594,13.175 10.1749912,13.6227153 10.1749912,14.175 C10.1749912,14.7272847 9.72727594,15.175 9.17499119,15.175 C8.62270644,15.175 8.17499119,14.7272847 8.17499119,14.175 C8.17499119,13.6227153 8.62270644,13.175 9.17499119,13.175 Z M9.17499119,13.8416667 C8.99089627,13.8416667 8.84165786,13.9909051 8.84165786,14.175 C8.84165786,14.3590949 8.99089627,14.5083333 9.17499119,14.5083333 C9.35908611,14.5083333 9.50832452,14.3590949 9.50832452,14.175 C9.50832452,13.9909051 9.35908611,13.8416667 9.17499119,13.8416667 Z" id="Combined-Shape"></path>
            </g>
        </g>
    </g>
</svg>