<?xml version="1.0" encoding="UTF-8"?>
<svg width="20px" height="22px" viewBox="0 0 20 22" version="1.1" xmlns="http://www.w3.org/2000/svg" xmlns:xlink="http://www.w3.org/1999/xlink">
    <title>atoms/ico/24/password-24@1x</title>
    <g id="Finance" stroke="none" stroke-width="1" fill="none" fill-rule="evenodd">
        <g id="ISM-Operation---Invoices" transform="translate(-1306.000000, -540.000000)" fill="#EC0000" fill-rule="nonzero">
            <g id="table" transform="translate(48.000000, 490.000000)">
                <g id="fila-copy-5" transform="translate(0.000000, 37.000000)">
                    <g id="Group" transform="translate(1256.000000, 12.000000)">
                        <g id="refresh-24-Copy" transform="translate(2.000000, 1.000000)">
                            <path d="M11.9285714,0.5 C12.130438,0.5 12.3240366,0.57894231 12.4668571,0.719375 L12.4668571,0.719375 L16.276381,4.469375 C16.4180158,4.61100383 16.4981984,4.80126899 16.5,5 L16.5,5 L16.5,6.125 C16.5,6.53921356 16.1588836,6.875 15.7380952,6.875 L15.7380952,6.875 L12.3095238,6.875 C11.0477678,6.87355348 10.025279,5.86704103 10.0238095,4.625 L10.0238095,4.625 L10.0238095,2 L2.78571429,2 C2.3649259,2 2.02380952,2.33578644 2.02380952,2.75 L2.02380952,2.75 L2.02380952,19.25 C2.02380952,19.6642136 2.3649259,20 2.78571429,20 L2.78571429,20 L6.46428571,20 C6.87849928,20 7.2142857,20.3357864 7.2142857,20.75 C7.2142857,21.1642136 6.87849928,21.5 6.46428571,21.5 L6.46428571,21.5 L2.78571429,21.5 C1.52395832,21.4985535 0.50146948,20.492041 0.5,19.25 L0.5,19.25 L0.5,2.75 C0.50146948,1.50795897 1.52395832,0.50144652 2.78571429,0.5 L2.78571429,0.5 L11.9285714,0.5 Z M12.5,9.5 C15.3296921,9.5 17.918107,11.2515685 19.4242642,14.1853235 C19.5252453,14.3821085 19.5252453,14.617727 19.4242642,14.814512 C17.918107,17.7484315 15.329533,19.5 12.5,19.5 C9.670467,19.5 7.081893,17.7484315 5.57573584,14.814512 C5.47475472,14.617727 5.47475472,14.3821085 5.57573584,14.1853235 C7.081893,11.2515685 9.6703079,9.5 12.5,9.5 Z M12.5,10.8422688 C10.2598674,10.8422688 8.1853934,12.2025609 6.89197729,14.4999178 C8.1853934,16.7974391 10.2598674,18.1577312 12.5,18.1577312 C14.7401326,18.1577312 16.8146066,16.7974391 18.1080227,14.4999178 C16.8146066,12.2025609 14.7401326,10.8422688 12.5,10.8422688 Z M12.5,11.7222222 C13.984566,11.7222222 15.1923077,12.9683049 15.1923077,14.5 C15.1923077,16.0316951 13.984566,17.2777778 12.5,17.2777778 C11.015434,17.2777778 9.8076923,16.0316951 9.8076923,14.5 C9.8076923,12.9683049 11.015434,11.7222222 12.5,11.7222222 Z M12.5,13.1709745 C11.7896839,13.1709745 11.2118676,13.7671342 11.2118676,14.5 C11.2118676,15.2328658 11.7896839,15.8290255 12.5,15.8290255 C13.2103161,15.8290255 13.7881324,15.2328658 13.7881324,14.5 C13.7881324,13.7671342 13.2103161,13.1709745 12.5,13.1709745 Z M11.6131429,2 L11.547619,2 L11.547619,4.625 C11.547619,5.03921356 11.8887354,5.375 12.3095238,5.375 L12.3095238,5.375 L14.9761905,5.375 L14.9761905,5.3105 L11.6131429,2 Z" id="Combined-Shape"></path>
                        </g>
                    </g>
                </g>
            </g>
        </g>
    </g>
</svg>