<svg width="18" height="18" viewBox="0 0 18 18" fill="none" xmlns="http://www.w3.org/2000/svg"><path d="M4.305 0.043 C 4.081 0.142,3.958 0.397,4.020 0.631 C 4.052 0.751,4.173 0.883,5.169 1.883 L 6.283 3.000 3.341 3.000 L 0.399 3.000 0.269 3.069 C 0.001 3.211,-0.078 3.558,0.104 3.797 C 0.260 4.001,0.083 3.990,3.329 3.990 C 4.947 3.990,6.270 4.000,6.270 4.013 C 6.270 4.025,5.772 4.533,5.164 5.141 C 3.988 6.316,3.959 6.353,4.006 6.580 C 4.036 6.725,4.153 6.885,4.269 6.940 C 4.400 7.002,4.596 7.004,4.720 6.945 C 4.772 6.920,5.476 6.236,6.285 5.425 C 7.093 4.613,7.735 3.963,7.710 3.980 C 7.685 3.997,6.916 4.615,6.000 5.354 C 5.084 6.094,4.308 6.719,4.275 6.745 C 4.242 6.771,5.032 5.973,6.030 4.971 L 7.845 3.150 6.315 1.617 C 5.445 0.746,4.743 0.066,4.688 0.042 C 4.568 -0.010,4.423 -0.010,4.305 0.043 M12.660 2.270 C 10.938 2.447,9.648 3.223,9.245 4.325 L 9.165 4.545 9.157 7.072 C 9.152 8.463,9.143 9.600,9.137 9.600 C 9.130 9.600,9.053 9.552,8.965 9.493 C 8.713 9.324,8.173 9.074,7.843 8.972 C 5.545 8.264,2.842 9.026,2.102 10.591 C 1.919 10.978,1.917 11.010,1.927 13.110 L 1.936 15.015 2.022 15.251 C 2.392 16.269,3.617 17.049,5.184 17.264 C 5.627 17.324,6.466 17.324,6.904 17.263 C 7.962 17.116,8.889 16.704,9.474 16.121 L 9.662 15.934 9.787 16.070 C 9.967 16.265,10.384 16.570,10.680 16.723 C 11.466 17.130,12.269 17.311,13.284 17.309 C 13.859 17.309,14.259 17.264,14.752 17.145 C 15.588 16.944,16.275 16.577,16.757 16.075 C 17.039 15.781,17.184 15.554,17.300 15.225 L 17.385 14.985 17.385 9.780 L 17.385 4.575 17.300 4.335 C 17.184 4.006,17.039 3.779,16.757 3.485 C 16.137 2.839,15.143 2.409,13.974 2.282 C 13.704 2.252,12.903 2.245,12.660 2.270 M7.860 3.512 C 7.860 3.818,7.864 3.846,7.905 3.793 C 7.988 3.684,8.018 3.512,7.979 3.371 C 7.959 3.299,7.924 3.226,7.901 3.207 C 7.867 3.178,7.860 3.227,7.860 3.512 M14.325 3.420 C 15.324 3.633,16.082 4.098,16.306 4.632 C 16.383 4.818,16.369 5.096,16.271 5.295 C 15.982 5.885,15.018 6.384,13.922 6.511 C 13.470 6.564,12.611 6.533,12.225 6.450 C 11.345 6.262,10.662 5.891,10.357 5.433 C 10.147 5.119,10.127 4.849,10.288 4.533 C 10.537 4.048,11.342 3.588,12.232 3.422 C 12.697 3.335,12.704 3.335,13.395 3.346 C 13.898 3.353,14.086 3.368,14.325 3.420 M10.845 7.110 C 11.613 7.479,12.455 7.641,13.468 7.612 C 14.492 7.583,15.385 7.341,16.076 6.907 C 16.219 6.818,16.346 6.737,16.360 6.729 C 16.374 6.720,16.381 7.076,16.375 7.520 L 16.365 8.326 16.267 8.526 C 16.005 9.057,15.248 9.495,14.243 9.696 C 13.957 9.753,13.809 9.763,13.275 9.763 C 12.600 9.763,12.341 9.731,11.831 9.583 C 11.083 9.366,10.481 8.958,10.267 8.522 L 10.185 8.355 10.175 7.537 L 10.166 6.719 10.355 6.842 C 10.460 6.910,10.680 7.030,10.845 7.110 M7.009 9.868 C 7.453 9.950,7.836 10.078,8.203 10.268 C 8.441 10.392,8.556 10.476,8.747 10.665 C 9.044 10.959,9.130 11.124,9.131 11.400 C 9.132 11.664,9.005 11.904,8.729 12.160 C 7.660 13.148,5.253 13.304,3.792 12.478 C 3.479 12.301,3.147 11.977,3.040 11.742 C 2.784 11.184,3.162 10.607,4.061 10.184 C 4.477 9.988,4.888 9.883,5.580 9.798 C 5.832 9.767,6.686 9.809,7.009 9.868 M10.395 10.097 C 11.637 10.885,13.528 11.082,15.086 10.585 C 15.438 10.473,15.913 10.253,16.166 10.085 C 16.270 10.016,16.361 9.960,16.370 9.960 C 16.379 9.960,16.381 10.321,16.375 10.762 C 16.365 11.552,16.363 11.568,16.287 11.730 C 16.020 12.301,15.210 12.758,14.130 12.948 C 13.700 13.024,12.829 13.023,12.405 12.947 C 11.365 12.761,10.585 12.333,10.288 11.785 L 10.185 11.595 10.175 10.774 C 10.167 10.100,10.173 9.958,10.205 9.978 C 10.227 9.991,10.313 10.044,10.395 10.097 M3.156 13.322 C 3.999 13.869,5.311 14.166,6.476 14.073 C 7.433 13.997,8.303 13.732,8.934 13.322 C 9.037 13.255,9.129 13.200,9.138 13.200 C 9.147 13.200,9.150 13.561,9.145 14.002 L 9.135 14.805 9.052 14.974 C 8.892 15.300,8.593 15.564,8.115 15.803 C 6.715 16.502,4.507 16.344,3.445 15.468 C 3.210 15.274,3.017 14.997,2.973 14.789 C 2.941 14.644,2.925 13.200,2.954 13.200 C 2.962 13.200,3.053 13.255,3.156 13.322 M10.412 13.338 C 11.236 13.872,12.548 14.165,13.698 14.074 C 14.650 13.998,15.459 13.757,16.105 13.355 C 16.242 13.270,16.362 13.200,16.370 13.200 C 16.379 13.200,16.381 13.561,16.375 14.002 C 16.365 14.738,16.358 14.816,16.301 14.940 C 15.793 16.040,13.506 16.578,11.731 16.015 C 11.011 15.787,10.467 15.399,10.263 14.970 C 10.186 14.807,10.185 14.796,10.176 14.002 C 10.171 13.561,10.174 13.200,10.182 13.200 C 10.191 13.200,10.294 13.262,10.412 13.338 " fill="#EC0000" stroke="none" fill-rule="evenodd"></path></svg>