<?xml version="1.0" encoding="UTF-8"?>
<svg width="24px" height="24px" viewBox="0 0 24 24" version="1.1" xmlns="http://www.w3.org/2000/svg" xmlns:xlink="http://www.w3.org/1999/xlink">
    <title>96BE2A53-5A62-4EB9-8DCB-18A104CC15F0</title>
    <g id="Styles" stroke="none" stroke-width="1" fill="none" fill-rule="evenodd">
        <g id="Icons" transform="translate(-703.000000, -600.000000)" fill="#444444">
            <g id="atoms/ico/24/add-24-copy-29" transform="translate(703.000000, 600.000000)">
                <path d="M12,1 C15.0375661,1 17.5,3.43413004 17.5,6.43678161 L17.5,6.43678161 L17.5,7.70358077 L15.7093023,7.70358077 L15.7093023,6.43678161 L15.7041607,6.24204878 C15.601756,4.30753464 13.9825075,2.77011494 12,2.77011494 C9.95140889,2.77011494 8.29069767,4.41173753 8.29069767,6.43678161 L8.29069767,6.43678161 L8.29,11.25 L19,11.25 C20.4625318,11.25 21.6584043,12.3917046 21.7449812,13.8324777 L21.75,14 L21.75,17 C21.75,20.1756373 19.1756373,22.75 16,22.75 L16,22.75 L8,22.75 C4.82436269,22.75 2.25,20.1756373 2.25,17 L2.25,17 L2.25,14 C2.25,12.4812169 3.48121694,11.25 5,11.25 L5,11.25 L6.5,11.25 L6.5,6.43678161 L6.5043672,6.21811708 C6.62046086,3.31684001 9.03652085,1 12,1 Z M19,12.75 L5,12.75 C4.30964406,12.75 3.75,13.3096441 3.75,14 L3.75,14 L3.75,17 C3.75,19.3472102 5.65278981,21.25 8,21.25 L8,21.25 L16,21.25 C18.3472102,21.25 20.25,19.3472102 20.25,17 L20.25,17 L20.25,14 C20.25,13.3096441 19.6903559,12.75 19,12.75 L19,12.75 Z M8.875,17 C9.220459,17 9.5,17.3354492 9.5,17.75 C9.5,18.1645508 9.220459,18.5 8.875,18.5 L8.875,18.5 L7.625,18.5 C7.279541,18.5 7,18.1645508 7,17.75 C7,17.3354492 7.279541,17 7.625,17 L7.625,17 Z M12.875,17 C13.220459,17 13.5,17.3354492 13.5,17.75 C13.5,18.1645508 13.220459,18.5 12.875,18.5 L12.875,18.5 L11.625,18.5 C11.279541,18.5 11,18.1645508 11,17.75 C11,17.3354492 11.279541,17 11.625,17 L11.625,17 Z M16.875,17 C17.220459,17 17.5,17.3354492 17.5,17.75 C17.5,18.1645508 17.220459,18.5 16.875,18.5 L16.875,18.5 L15.625,18.5 C15.279541,18.5 15,18.1645508 15,17.75 C15,17.3354492 15.279541,17 15.625,17 L15.625,17 Z" id="Combined-Shape"></path>
            </g>
        </g>
    </g>
</svg>