<?xml version="1.0" encoding="UTF-8"?>
<svg width="20px" height="20px" viewBox="0 0 20 20" version="1.1" xmlns="http://www.w3.org/2000/svg" xmlns:xlink="http://www.w3.org/1999/xlink">
    <title>6DAD0275-4ABE-4DCD-B12D-B4204EBCEBFA</title>
    <g id="Styles" stroke="none" stroke-width="1" fill="none" fill-rule="evenodd">
        <g id="Icons" transform="translate(-1169.000000, -916.000000)" fill="#444444">
            <g id="atoms/ico/24/add-24-copy-44" transform="translate(1169.000000, 916.000000)">
                <path d="M7.7843055,11.3385912 L7.85355339,11.3964466 L10.4995161,14.042 L13.1464466,11.3964466 C13.320013,11.2228803 13.5894374,11.2035951 13.7843055,11.3385912 L13.8535534,11.3964466 C14.0271197,11.570013 14.0464049,11.8394374 13.9114088,12.0343055 L13.8535534,12.1035534 L10.8535534,15.1035534 C10.679987,15.2771197 10.4105626,15.2964049 10.2156945,15.1614088 L10.1464466,15.1035534 L7.14644661,12.1035534 C6.95118446,11.9082912 6.95118446,11.5917088 7.14644661,11.3964466 C7.29831717,11.2445761 7.52357904,11.210827 7.70806797,11.2951996 L7.7843055,11.3385912 Z M10.7843055,4.08859116 L10.8535534,4.14644661 L13.8535534,7.14644661 C14.0488155,7.34170876 14.0488155,7.65829124 13.8535534,7.85355339 C13.679987,8.02711974 13.4105626,8.04640489 13.2156945,7.91140884 L13.1464466,7.85355339 L10.4995161,5.207 L7.85355339,7.85355339 C7.67998704,8.02711974 7.41056264,8.04640489 7.2156945,7.91140884 L7.14644661,7.85355339 C6.97288026,7.67998704 6.95359511,7.41056264 7.08859116,7.2156945 L7.14644661,7.14644661 L10.1464466,4.14644661 C10.320013,3.97288026 10.5894374,3.95359511 10.7843055,4.08859116 Z" id="Shape-Copy"></path>
            </g>
        </g>
    </g>
</svg>