<!-- Generated by IcoMoon.io -->
<svg version="1.1" xmlns="http://www.w3.org/2000/svg" width="32" height="32" viewBox="0 0 32 32">
<title>info-fill</title>
<path d="M16 0.64c8.384 0 15.168 6.784 15.168 15.168s-6.784 15.168-15.168 15.168c-8.384 0-15.168-6.784-15.168-15.168s6.784-15.168 15.168-15.168zM16 23.744c-0.672 0-1.248 0.608-1.248 1.312v0 1.312l0.032 0.16c0.064 0.672 0.576 1.152 1.216 1.152 0.672 0 1.248-0.576 1.248-1.312v0-1.312l-0.032-0.16c-0.064-0.64-0.576-1.152-1.216-1.152zM17.152 5.056c-1.888-0.32-3.84 0.192-5.312 1.376-1.472 1.216-2.336 3.008-2.336 4.896 0 0.64 0.544 1.184 1.184 1.184s1.216-0.544 1.216-1.184v0-0.256c0.064-1.088 0.576-2.080 1.44-2.784 0.96-0.768 2.176-1.088 3.424-0.864 1.632 0.256 3.008 1.6 3.296 3.168 0.288 1.728-0.512 3.36-2.080 4.192v0l-0.256 0.16c-1.824 1.088-2.912 2.88-2.912 4.832v0 0.576l0.032 0.16c0.16 0.512 0.608 0.864 1.152 0.864 0.672 0 1.184-0.512 1.184-1.184v0-0.416l0.032-0.224v-0.224c0.16-0.96 0.832-1.888 1.92-2.432v0l0.224-0.16c2.304-1.344 3.52-3.936 3.040-6.56-0.448-2.56-2.624-4.672-5.248-5.12z"></path>
</svg>
