<?xml version="1.0" encoding="UTF-8"?>
<svg width="24px" height="24px" viewBox="0 0 24 24" version="1.1" xmlns="http://www.w3.org/2000/svg" xmlns:xlink="http://www.w3.org/1999/xlink">
    <title>drag-hander</title>
    <g id="drag-hander" stroke="none" stroke-width="1" fill="none" fill-rule="evenodd">
        <path d="M19.2962963,13.2962963 C20.5133682,13.2962963 21.5,14.2829281 21.5,15.5 C21.5,16.7170719 20.5133682,17.7037037 19.2962963,17.7037037 C18.0792244,17.7037037 17.0925926,16.7170719 17.0925926,15.5 C17.0925926,14.2829281 18.0792244,13.2962963 19.2962963,13.2962963 Z M12,13.2962963 C13.2170719,13.2962963 14.2037037,14.2829281 14.2037037,15.5 C14.2037037,16.7170719 13.2170719,17.7037037 12,17.7037037 C10.7829281,17.7037037 9.7962963,16.7170719 9.7962963,15.5 C9.7962963,14.2829281 10.7829281,13.2962963 12,13.2962963 Z M4.7037037,13.2962963 C5.92077564,13.2962963 6.90740741,14.2829281 6.90740741,15.5 C6.90740741,16.7170719 5.92077564,17.7037037 4.7037037,17.7037037 C3.48663177,17.7037037 2.5,16.7170719 2.5,15.5 C2.5,14.2829281 3.48663177,13.2962963 4.7037037,13.2962963 Z M4.7037037,6 C5.92077564,6 6.90740741,6.98663177 6.90740741,8.2037037 C6.90740741,9.42077564 5.92077564,10.4074074 4.7037037,10.4074074 C3.48663177,10.4074074 2.5,9.42077564 2.5,8.2037037 C2.5,6.98663177 3.48663177,6 4.7037037,6 Z M12,6 C13.2170719,6 14.2037037,6.98663177 14.2037037,8.2037037 C14.2037037,9.42077564 13.2170719,10.4074074 12,10.4074074 C10.7829281,10.4074074 9.7962963,9.42077564 9.7962963,8.2037037 C9.7962963,6.98663177 10.7829281,6 12,6 Z M19.2962963,6 C20.5133682,6 21.5,6.98663177 21.5,8.2037037 C21.5,9.42077564 20.5133682,10.4074074 19.2962963,10.4074074 C18.0792244,10.4074074 17.0925926,9.42077564 17.0925926,8.2037037 C17.0925926,6.98663177 18.0792244,6 19.2962963,6 Z" id="Shape" fill="#7F7F7F"></path>
    </g>
</svg>