<?xml version="1.0" encoding="UTF-8"?>
<svg width="20px" height="20px" viewBox="0 0 20 20" version="1.1" xmlns="http://www.w3.org/2000/svg" xmlns:xlink="http://www.w3.org/1999/xlink">
    <title>atoms/ico/24/agenda_ok-24</title>
    <g id="🔺-Supplier" stroke="none" stroke-width="1" fill="none" fill-rule="evenodd">
        <g id="CV-Supp---Offer-Detail---candidate-actions" transform="translate(-1188.000000, -469.000000)" fill="#EC0000" fill-rule="nonzero">
            <g id="Group-2" transform="translate(1170.000000, 411.000000)">
                <g id="Group" transform="translate(16.000000, 16.000000)">
                    <g id="icon-color" transform="translate(0.000000, 40.000000)">
                        <path d="M17.4893,2 C17.7347599,2 17.9389084,2.17687516 17.9812443,2.41012437 L17.9893,2.5 L17.989,4 L20.1914849,4 C21.1402424,4 21.9185455,4.72898979 21.9940039,5.65704532 L22,5.80515742 L22,20.1948426 C22,21.1423845 21.2691348,21.9187513 20.3397946,21.9940192 L20.1914849,22 L3.80851512,22 C2.85975756,22 2.08145447,21.2710102 2.00599605,20.3429547 L2,20.1948426 L2,5.80515742 C2,4.85761554 2.73086521,4.08124866 3.66020544,4.00598083 L3.80851512,4 L6.01,4 L6.0107,2.5 C6.0107,2.25454011 6.18757516,2.05039163 6.42082437,2.00805567 L6.5107,2 C6.75615989,2 6.96030837,2.17687516 7.00264433,2.41012437 L7.0107,2.5 L7.01,4 L16.989,4 L16.9893,2.5 C16.9893,2.25454011 17.1661752,2.05039163 17.3994244,2.00805567 L17.4893,2 Z M21,8.998 L3,8.998 L3,20.1948426 C3,20.6051981 3.30805209,20.9440255 3.70700798,20.9937246 L3.80851512,21 L20.1914849,21 C20.6040834,21 20.9438739,20.6927384 20.9937079,20.2958154 L21,20.1948426 L21,8.998 Z M15.049273,11.6810191 C15.2052277,11.4531315 15.5163934,11.3948184 15.7442809,11.550773 C15.9468477,11.6893994 16.0154297,11.9506616 15.9186373,12.1670612 L15.874527,12.2457809 L11.720527,18.3157809 C11.5587459,18.5521822 11.2378699,18.6001863 11.0155069,18.4391944 L10.9453879,18.3777617 L8.17538787,15.4617617 C7.98520217,15.2615517 7.99332842,14.9450736 8.19353834,14.7548879 C8.37150271,14.5858339 8.64133336,14.5734709 8.83267213,14.7134245 L8.90041213,14.7730383 L11.2445145,17.2406927 L15.049273,11.6810191 Z M6.01,5 L3.80851512,5 C3.39591657,5 3.05612613,5.30726162 3.00629209,5.70418465 L3,5.80515742 L3,7.998 L21,7.998 L21,5.80515742 C21,5.39480194 20.6919479,5.05597451 20.292992,5.00627536 L20.1914849,5 L17.989,5 L17.9893,6.499 C17.9893,6.74445989 17.8124248,6.94860837 17.5791756,6.99094433 L17.4893,6.999 C17.2438401,6.999 17.0396916,6.82212484 16.9973557,6.58887563 L16.9893,6.499 L16.989,5 L7.01,5 L7.0107,6.499 C7.0107,6.74445989 6.83382484,6.94860837 6.60057563,6.99094433 L6.5107,6.999 C6.26524011,6.999 6.06109163,6.82212484 6.01875567,6.58887563 L6.0107,6.499 L6.01,5 Z"></path>
                    </g>
                </g>
            </g>
        </g>
    </g>
</svg>