<?xml version="1.0" encoding="UTF-8"?>
<svg width="18px" height="22px" viewBox="0 0 18 22" version="1.1" xmlns="http://www.w3.org/2000/svg" xmlns:xlink="http://www.w3.org/1999/xlink">
    <title>Atoms/ico/normal size/report</title>
    <defs>
        <filter id="filter-1">
            <feColorMatrix in="SourceGraphic" type="matrix" values="0 0 0 0 0.925490 0 0 0 0 0.000000 0 0 0 0 0.000000 0 0 0 1.000000 0"></feColorMatrix>
        </filter>
    </defs>
    <g id="Finance" stroke="none" stroke-width="1" fill="none" fill-rule="evenodd">
        <g id="noun_report_2120939" transform="translate(-3.000000, -1.000000)" filter="url(#filter-1)">
            <g transform="translate(3.000000, 1.000000)" id="Group" fill="#979797" fill-rule="nonzero">
                <path d="M16.3801282,0.792534722 C17.0127553,0.792534722 17.5303307,1.26725122 17.6138562,1.90121264 L17.6246795,2.03003472 L17.6246795,17.5541667 C17.6246795,18.2013749 17.1271088,18.7265026 16.4992824,18.7860428 L16.3801282,18.7916667 L15.1488333,18.7916667 L15.1496795,19.9909722 C15.1496795,20.59773 14.7123615,21.0971903 14.1403837,21.2063124 L14.0242824,21.2228484 L13.9051282,21.2284722 L1.95320513,21.2284722 C1.30299472,21.2284722 0.774269896,20.7343422 0.714316839,20.109561 L0.708653846,19.9909722 L0.708653846,4.48784722 C0.708653846,3.84063896 1.20622457,3.3155113 1.83405093,3.25597105 L1.95320513,3.25034722 L3.16158333,3.24958333 L3.1625,2.03003472 C3.1625,1.42327697 3.59981802,0.923816636 4.17179575,0.814694588 L4.28789708,0.798158553 L4.40705128,0.792534722 L16.3801282,0.792534722 Z M3.16158333,4.33858333 L1.95320513,4.33888889 C1.89424813,4.33888889 1.84613515,4.37351546 1.82924824,4.42517594 L1.82275641,4.46684028 L1.82275641,19.9699653 C1.82275641,20.0272778 1.85759565,20.0747792 1.9104497,20.0914872 L1.95320513,20.0979167 L13.9262821,20.0979167 C13.9704998,20.0979167 14.0086178,20.0784392 14.0320373,20.0469062 L14.0350833,20.03925 L14.0350833,18.7916667 L4.40705128,18.7916667 C3.75684087,18.7916667 3.22811605,18.2975366 3.16816299,17.6727555 L3.1625,17.5541667 L3.16158333,4.33858333 Z M16.3589744,1.88107639 L4.40705128,1.88107639 C4.33878783,1.88107639 4.28272026,1.92319672 4.26302377,1.98261525 L4.25544872,2.03003472 L4.25544872,17.5331597 C4.25544872,17.599676 4.29786359,17.6550996 4.35851816,17.6746083 L4.40705128,17.6821181 L16.3589744,17.6821181 C16.4272378,17.6821181 16.4833054,17.6399977 16.5030019,17.5805792 L16.5105769,17.5331597 L16.5105769,2.03003472 C16.5105769,1.9468894 16.4443037,1.88107639 16.3589744,1.88107639 Z" id="Shape"></path>
                <path d="M13.7547159,4.57817515 L12.5413366,4.74396027 L12.4618017,4.76412079 C12.2085383,4.85705158 12.125763,5.18651433 12.3263408,5.38569921 L12.4795,5.5385 L11.2814167,6.72741667 L10.5973771,6.04780773 C10.3810898,5.83302242 10.0464743,5.83302242 9.83018696,6.04780773 L7.92817776,7.89461503 C7.70916845,8.11208306 7.70916845,8.44711833 7.92634081,8.66278255 L8.00249447,8.72642264 C8.21552628,8.87491618 8.50127561,8.85370282 8.69353099,8.66278255 L10.1814167,7.18391667 L10.8667254,7.86451866 L10.9428791,7.92815875 C11.1559109,8.0766523 11.4416602,8.05543893 11.6339156,7.86451866 L13.2275,6.281 L13.3840331,6.43604643 C13.6065792,6.65704702 14.0285256,6.53134213 14.0285256,6.18940972 L14.1955773,5.00253452 C14.2468006,4.75033666 14.0203153,4.52542417 13.7547159,4.57817515 Z" id="Path"></path>
                <path d="M13.9474359,12.0140625 L6.83974359,12.0140625 C6.56954551,12.0140625 6.33910256,12.2436225 6.33910256,12.5140625 C6.33910256,12.7845025 6.56954551,13.0140625 6.83974359,13.0140625 L13.9685897,13.0140625 C14.2387878,13.0140625 14.4692308,12.7845025 14.4692308,12.5140625 C14.4364453,12.2098669 14.2305279,12.0140625 13.9474359,12.0140625 Z" id="Path"></path>
                <path d="M13.9474359,14.8710069 L6.83974359,14.8710069 C6.56954551,14.8710069 6.33910256,15.100567 6.33910256,15.3710069 C6.33910256,15.6414469 6.56954551,15.8710069 6.83974359,15.8710069 L13.9685897,15.8710069 C14.2387878,15.8710069 14.4692308,15.6414469 14.4692308,15.3710069 C14.4364453,15.0668113 14.2305279,14.8710069 13.9474359,14.8710069 Z" id="Path"></path>
                <path d="M6.83974359,3.85954861 C6.54430368,3.85954861 6.29326923,4.10883976 6.29326923,4.40381944 L6.29326923,9.65555556 C6.29326923,9.95053524 6.54430368,10.1998264 6.83974359,10.1998264 L13.9685897,10.1998264 C14.2640297,10.1998264 14.5150641,9.95053524 14.5150641,9.65555556 L14.4988084,9.55988552 C14.4336401,9.28404258 14.2237578,9.11128472 13.9474359,9.11128472 L7.38558333,9.11075 L7.38621795,4.40381944 C7.38621795,4.10883976 7.1351835,3.85954861 6.83974359,3.85954861 Z" id="Path"></path>
            </g>
        </g>
    </g>
</svg>