<!-- Generated by IcoMoon.io -->
<svg version="1.1" xmlns="http://www.w3.org/2000/svg" width="33" height="32" viewBox="0 0 33 32">
<title>world</title>
<path d="M16.64 30.944c0 0 0 0 0 0-8.256 0-14.912-6.688-14.912-14.912 0-2.272 0.512-4.416 1.408-6.336l-0.032 0.096c0.448 1.76 1.856 2.688 3.040 3.488s1.12 2.080 1.12 3.168 0.864 1.536 1.6 2.080c0.384 0.224 0.704 0.48 0.96 0.8h0.032c0.256 0.576 0.448 1.216 0.544 1.92v0.032c0.096 0.608 0.288 1.152 0.48 1.632v-0.032c0.096 0.48 0.128 1.056 0.128 1.6 0 0.256 0 0.48 0 0.704v-0.032c-0.032 0.16-0.032 0.32-0.032 0.48 0 0.384 0.032 0.8 0.064 1.184v-0.064c0.224 0.864 0.992 1.44 1.888 1.472v0c0 0 0.032 0 0.032 0 0.384 0 0.704-0.192 0.928-0.48v0c0.16-0.224 0.256-0.512 0.256-0.832 0-0.16-0.032-0.32-0.096-0.48v0c-0.032-0.16-0.064-0.352-0.064-0.576 0-0.064 0-0.16 0.032-0.224h-0.032v-0.128c0.096-0.8 0.128-1.088 0.704-1.376 1.12-0.48 1.888-1.504 2.048-2.72v-0.032c0.064-0.864 0.224-1.28 1.312-1.632 1.056-0.352 1.792-1.344 1.792-2.464 0-0.032 0-0.032 0-0.064v0l0.064-0.416c0.256-1.216-0.992-2.496-2.24-3.072-0.288-0.064-0.576-0.128-0.896-0.128-0.576 0-1.12 0.16-1.568 0.416v0c-0.224 0.096-0.48 0.192-0.768 0.256h-0.032c-0.032-0.16-0.064-0.32-0.064-0.512v0c0 0 0-0.032 0-0.032 0-0.608-0.16-1.152-0.448-1.632v0c-0.352-0.48-0.928-0.8-1.568-0.8-0.192 0-0.384 0.032-0.544 0.096v-0.032c-0.256 0-0.576 0.064-0.928 0.064-0.096 0-0.192 0-0.288 0-0.64 0-1.184-0.224-1.664-0.576h0.032c-0.096-0.064-0.16-0.16-0.224-0.224v0c-0.224-0.192-0.608-0.576-0.608-0.896 0.128-0.032 0.256-0.032 0.384-0.032 0.352 0 0.704 0.032 1.024 0.096h-0.032c0.224 0.032 0.48 0.064 0.768 0.064s0.544-0.032 0.8-0.064h-0.032c0.8-0.288 0.896-1.184 0.96-1.792v0l0.128 0.064c0.352 0.192 0.768 0.32 1.216 0.352h0.032c0.896-0.032 1.696-0.544 2.144-1.28h0.032c0.8-1.184-0.736-3.104-0.928-3.296-0.192-0.448-0.288-0.928-0.288-1.44 0-0.256 0.032-0.48 0.064-0.704v0.032c0.032-0.128 0.032-0.288 0.032-0.448v0c0.448-0.064 0.864-0.096 1.312-0.128-0.256 1.472 0.032 1.92 0.128 2.080 0.352 0.608 0.928 1.056 1.6 1.184v0h0.192c0.384 0 0.768-0.16 1.056-0.416v0c0.768-0.672 1.44-1.44 1.984-2.304l0.032-0.032c0.672 0.192 1.248 0.384 1.824 0.64l-0.096-0.032c-0.352 0.224-0.672 0.48-0.928 0.768v0.032c-0.864 1.12-1.376 2.016-1.088 2.72 0.384 0.8 1.12 1.376 1.984 1.536l0.032 0.032c0.032 0 0.096 0 0.16 0s0.128 0 0.192 0h-0.032c0.384-0.032 0.768-0.064 1.12-0.128h-0.064c0.32-0.064 0.704-0.128 1.088-0.128h0.032c0.864-0.032 1.6-0.512 2.016-1.216h0.032l0.48-0.16c0.736 0.768 1.408 1.664 1.984 2.592l0.032 0.096c-0.16 0-0.32 0-0.48 0s-0.352 0-0.512 0v0c-2.080-0.224-3.488-0.192-4.128 0.096l-0.448 0.192c-0.96 0.384-2.432 0.96-1.984 2.656 0.128 0.64 0.576 1.152 1.184 1.408v0c0.288 0.128 0.288 0.128 0.288 0.352 0.192 2.112 1.28 2.528 2.176 2.528 0.032 0 0.064 0 0.096 0 0.288 0 0.544 0.096 0.704 0.288v0c0.096 0.128 0.16 0.288 0.16 0.48 0 0.064 0 0.096 0 0.16v0c-0.16 0.928 0.928 1.152 1.504 1.28l0.16 0.032c-0.192 0.16-0.416 0.352-0.608 0.48-0.704 0.576-1.536 1.184-1.536 2.176 0.032 0.16 0.032 0.384 0.032 0.576 0 0.8-0.064 1.568-0.192 2.336v-0.064c-0.064 0.16-0.096 0.352-0.096 0.544 0 0.256 0.064 0.512 0.192 0.736v0c0.288 0.64 0.832 1.152 1.504 1.344h0.192c-2.72 3.040-6.656 4.928-11.040 4.928 0 0 0 0 0 0v0zM13.696 4.608c0.672 0.8 0.96 1.696 0.8 1.888-0.256 0.416-0.704 0.736-1.184 0.8h-0.032c-0.288-0.032-0.576-0.128-0.8-0.256v0c-0.448-0.192-1.12-0.512-1.536 0.064-0.128 0.224-0.192 0.512-0.192 0.768 0 0.064 0 0.096 0 0.128v0c0 0.288-0.064 0.576-0.16 0.832l0.032-0.032c-0.064 0-0.16 0-0.224 0-0.288 0-0.576-0.032-0.864-0.064h0.032c-1.056-0.128-2.336-0.288-2.624 0.704 0 0.064-0.032 0.192-0.032 0.288 0 0.736 0.384 1.408 0.928 1.792v0l0.128 0.128c0.672 0.608 1.536 0.992 2.528 0.992 0.096 0 0.192 0 0.32 0h-0.032c0.416 0 0.8 0 1.056-0.064 0.736-0.064 0.832-0.032 1.088 0.288 0.128 0.288 0.224 0.608 0.224 0.992 0 0 0 0.032 0 0.064v-0.032c0 0.576 0.096 1.504 0.992 1.632 0 0 0.032 0 0.032 0 0.512 0 1.024-0.128 1.44-0.352v0c0.544-0.224 1.152-0.48 1.536-0.288 0.928 0.416 1.696 1.28 1.6 1.76 0 0.16-0.032 0.32-0.064 0.512-0.064 0.8-0.192 1.312-0.96 1.6-1.216 0.256-2.144 1.312-2.144 2.592 0 0.032 0 0.032 0 0.032v0c-0.096 0.832-0.64 1.504-1.344 1.824v0c-0.8 0.384-1.344 1.216-1.344 2.144 0 0.032 0 0.064 0 0.128v-0.032 0.16c0 0.096-0.032 0.224-0.032 0.352 0 0.288 0.032 0.576 0.128 0.832l-0.032-0.032c0.032 0.064 0.032 0.128 0.032 0.192s0 0.096-0.032 0.16v0c0 0 0 0 0 0-0.16 0-0.32-0.064-0.448-0.128v0c-0.128-0.064-0.256-0.192-0.288-0.352v0c-0.032-0.224-0.032-0.48-0.032-0.704s0-0.512 0.032-0.768v0.032c0-0.224 0.032-0.48 0.032-0.768 0-0.736-0.096-1.44-0.32-2.112l0.032 0.032c-0.16-0.352-0.288-0.8-0.352-1.248v-0.032c-0.16-0.864-0.416-1.632-0.768-2.336l0.032 0.032c-0.352-0.448-0.8-0.832-1.312-1.12l-0.032-0.032c-0.544-0.384-1.088-0.736-1.088-1.12 0-1.184 0-3.040-1.664-4.128-1.312-0.896-2.688-1.792-2.688-3.744 0-0.256 0.032-0.48 0.064-0.704v0.032l0.192-0.32c0.096-0.16 0.192-0.288 0.32-0.416l0.128-0.192c0.096-0.16 0.224-0.288 0.32-0.416v0.032l0.128-0.192 0.32-0.384 0.192-0.192 0.288-0.32 0.224-0.192 0.768-0.768 0.352-0.256 0.192-0.16 0.416-0.256 0.16-0.128 0.448-0.288 0.128-0.096 0.48-0.288 0.128-0.064 0.512-0.288 0.096-0.032 0.544-0.288 0.096-0.032 0.544-0.224h0.096l0.576-0.224h0.096c0.192-0.064 0.384-0.128 0.576-0.192h0.096l0.608-0.16c0 0.224-0.288 2.080 0.512 3.040zM16.896 1.12h0.992c0.48 0.032 0.992 0.096 1.472 0.192h0.128c-0.48 0.64-0.992 1.216-1.568 1.728l-0.032 0.032c-0.16 0.16-0.256 0.128-0.288 0.128-0.224 0-0.512-0.288-0.8-0.704-0.032-0.16-0.064-0.32-0.064-0.48 0-0.32 0.064-0.64 0.16-0.928v0.032zM22.432 3.808c0.32-0.384 0.736-0.704 1.184-0.96v0h0.096l0.448 0.288 0.64 0.384 0.192 0.128 0.608 0.416q0.256 0.192 0.48 0.384l0.064 0.064 0.352 0.32c-0.256 0.064-0.448 0.224-0.544 0.448v0c-0.224 0.352-0.608 0.608-1.056 0.64v0c-0.448 0-0.896 0.064-1.344 0.16l0.064-0.032c-0.288 0.064-0.576 0.096-0.896 0.096-0.032 0-0.096 0-0.16 0v0c-0.48-0.096-0.864-0.384-1.088-0.8v0c0-0.064 0-0.416 0.928-1.6zM31.552 16.736v0.192c0 0.192-0.032 0.384-0.064 0.576l0.032-0.032v0.128c-0.32 2.784-1.376 5.28-2.944 7.36l0.032-0.032c-0.128 0-0.256 0.032-0.384 0.032s-0.288-0.032-0.416-0.032v0c-0.448-0.16-0.768-0.544-0.864-0.992v0c0.192-0.768 0.32-1.632 0.32-2.528 0-0.32 0-0.608-0.032-0.896v0.032c0-0.384 0.384-0.736 1.056-1.248 0.384-0.288 0.704-0.576 0.992-0.896v0c0.192-0.16 0.32-0.416 0.32-0.704 0-0.064 0-0.16-0.032-0.224v0c-0.16-0.512-0.736-0.64-1.312-0.8-0.224-0.032-0.416-0.096-0.608-0.16l0.032 0.032c0-0.032 0-0.064 0-0.096 0-0.48-0.16-0.896-0.448-1.248v0c-0.384-0.448-0.96-0.736-1.6-0.736v0c-0.32 0-0.896 0-1.024-1.472-0.032-0.576-0.416-1.056-0.928-1.248v-0.032c-0.32-0.096-0.544-0.352-0.608-0.672v0c-0.128-0.544 0.096-0.8 1.312-1.28l0.448-0.16c0.352-0.16 1.472-0.224 3.552 0 0.256 0.032 0.512 0.032 0.8 0.032s0.576 0 0.832-0.032h0.096c0.096 0.224 0.192 0.448 0.32 0.704 0.032 0.096 0.064 0.224 0.128 0.352s0.096 0.224 0.128 0.352 0.096 0.288 0.16 0.448 0.064 0.192 0.096 0.288 0.096 0.288 0.128 0.448l0.064 0.288c0 0.16 0.096 0.32 0.128 0.48 0 0.096 0.032 0.192 0.064 0.288v-0.032c0 0.192 0.064 0.352 0.064 0.512s0 0.192 0 0.288 0.064 0.32 0.064 0.48 0 0.256 0 0.416 0 0.224 0 0.352c0 0.288 0 0.544 0 0.8s0 0.48 0 0.704zM29.536 25.632v0c0.128-0.224 0.288-0.416 0.416-0.64 1.28-1.824 2.208-4.032 2.56-6.432l0.032-0.096v-0.064c0-0.224 0.064-0.448 0.096-0.672v-0.128l0.032-0.576v-0.224c0-0.256 0-0.512 0-0.8s0-0.576 0-0.864c0-0.064 0-0.128 0-0.192s0-0.128 0-0.192v0c0-0.096 0-0.32-0.032-0.512s0-0.288-0.064-0.448 0-0.256-0.064-0.384-0.064-0.32-0.096-0.48-0.032-0.256-0.064-0.352-0.064-0.352-0.096-0.512l-0.096-0.32c-0.064-0.224-0.128-0.448-0.224-0.672s-0.128-0.384-0.192-0.576l-0.128-0.352c-0.032-0.096-0.128-0.32-0.192-0.48l-0.16-0.32c-0.064-0.16-0.16-0.352-0.224-0.512s-0.064-0.096-0.096-0.16v0c-0.8-1.504-1.792-2.752-2.912-3.872v0-0.064l-0.288-0.256-0.448-0.416-0.384-0.352c-0.224-0.16-0.48-0.352-0.704-0.544l-0.352-0.256-0.672-0.448-0.224-0.128c-0.32-0.192-0.64-0.384-0.96-0.544l-0.096-0.064h-0.032c-0.96-0.512-2.080-0.96-3.264-1.248l-0.128-0.032h-0.096l-0.8-0.16h-0.192c-0.224-0.064-0.48-0.096-0.704-0.128h-0.224c-0.224 0-0.48-0.032-0.704-0.064h-0.224l-0.896-0.096h-0.224c-0.96 0-1.888 0.096-2.784 0.288l0.096-0.032c-0.256 0-0.48 0.096-0.704 0.16h-0.096l-0.736 0.192h-0.064c-0.256 0.064-0.512 0.128-0.736 0.224v0c-1.92 0.672-3.584 1.664-4.992 2.88v-0.032l-0.192 0.16q-0.192 0.16-0.384 0.352c-0.16 0.128-0.224 0.192-0.32 0.288l-0.256 0.256-0.32 0.352-0.224 0.192-0.32 0.384-0.192 0.224-0.32 0.416-0.16 0.224c-0.096 0.128-0.192 0.256-0.288 0.416l-0.16 0.256-0.16 0.224v0.032c-1.408 2.368-2.272 5.216-2.272 8.256 0 8.896 7.2 16.064 16.064 16.064 4.992 0 9.44-2.272 12.416-5.856v0l0.064-0.064z"></path>
</svg>
