<!-- Generated by IcoMoon.io -->
<svg version="1.1" xmlns="http://www.w3.org/2000/svg" width="31" height="32" viewBox="0 0 31 32">
<title>cookies</title>
<path d="M10.432 0.768c4.896 0 9.056 3.232 10.144 7.648 5.632 0.8 9.984 5.44 9.984 11.104 0 6.208-5.28 11.232-11.744 11.232-6.272 0-11.392-4.704-11.744-10.624-4-1.312-6.88-4.896-7.040-9.088v-0.32c0-5.504 4.672-9.952 10.4-9.952zM18.816 10.144c-5.472 0-9.888 4.192-9.888 9.376s4.416 9.344 9.888 9.344c5.472 0 9.888-4.192 9.888-9.344s-4.416-9.376-9.888-9.376zM18.208 23.488c0.672 0 1.216 0.512 1.216 1.152s-0.544 1.12-1.216 1.12c-0.64 0-1.184-0.512-1.184-1.12s0.544-1.152 1.184-1.152zM14.048 20.064c0.32 0 0.576 0.256 0.576 0.576s-0.256 0.576-0.576 0.576c-0.352 0-0.608-0.256-0.608-0.576s0.256-0.576 0.608-0.576zM23.008 18.944c0.64 0 1.184 0.512 1.184 1.12s-0.544 1.152-1.184 1.152c-0.672 0-1.216-0.512-1.216-1.152s0.544-1.12 1.216-1.12zM10.432 2.464c-4.8 0-8.672 3.68-8.672 8.256 0 3.424 2.176 6.4 5.376 7.648 0.576-5.696 5.6-10.080 11.68-10.080h-0.064c-1.088-3.424-4.448-5.824-8.32-5.824zM17.024 14.4c0.64 0 1.184 0.48 1.184 1.12s-0.544 1.152-1.184 1.152c-0.672 0-1.184-0.512-1.184-1.152s0.512-1.12 1.184-1.12zM22.4 14.4c0.32 0 0.608 0.256 0.608 0.544s-0.288 0.576-0.608 0.576c-0.32 0-0.608-0.256-0.608-0.576s0.288-0.544 0.608-0.544zM5.056 12.416c0.672 0 1.216 0.512 1.216 1.152s-0.544 1.12-1.216 1.12c-0.64 0-1.184-0.48-1.184-1.12s0.544-1.152 1.184-1.152zM9.248 9.024c0.32 0 0.608 0.256 0.608 0.544s-0.288 0.576-0.608 0.576c-0.32 0-0.608-0.256-0.608-0.576s0.288-0.544 0.608-0.544zM6.272 5.6c0.64 0 1.184 0.512 1.184 1.152s-0.544 1.12-1.184 1.12c-0.672 0-1.216-0.512-1.216-1.12s0.544-1.152 1.216-1.152zM12.832 4.448c0.32 0 0.608 0.256 0.608 0.576s-0.288 0.576-0.608 0.576c-0.32 0-0.608-0.256-0.608-0.576s0.288-0.576 0.608-0.576z"></path>
</svg>
