<?xml version="1.0" encoding="UTF-8"?>
<svg width="24px" height="24px" viewBox="0 0 24 24" version="1.1" xmlns="http://www.w3.org/2000/svg" xmlns:xlink="http://www.w3.org/1999/xlink">
    <title>download-u</title>
    <g id="Financiation-(versión-táctico)" stroke="none" stroke-width="1" fill="none" fill-rule="evenodd">
        <g id="EmployeeView_Administration_00" transform="translate(-1316.000000, -311.000000)" fill="#EC0000" fill-rule="nonzero">
            <g id="Tool-bar/batch" transform="translate(48.000000, 309.000000)">
                <g id="Group-22-Copy-2" transform="translate(1261.000000, 2.000000)">
                    <g id="Atoms/ico/normal-size/refresh-24" transform="translate(7.000000, 0.000000)">
                        <path d="M21.4970702,15 C21.7734374,15 21.9970702,15.223228 21.9970702,15.4990948 L21.9970702,18.0345356 C21.9970702,20.2209998 20.2148437,22 18.024414,22 L5.9726562,22 C3.7822266,22 2,20.2209998 2,18.0345356 L2,15.4990948 C2,15.223228 2.2236328,15 2.5,15 C2.7763672,15 3,15.223228 3,15.4990948 L3,18.0345356 C3,19.6702409 4.3339844,21.0018103 5.9726562,21.0018103 L18.0244141,21.0018103 C19.6630859,21.0018103 20.9970703,19.6702409 20.9970703,18.0345356 L20.9970703,15.4990948 C20.9970703,15.223228 21.220703,15 21.4970702,15 Z M12,2 C12.262767,2 12.4809657,2.18371795 12.5262102,2.4263576 L12.534819,2.51986568 L12.534819,15.2257173 L15.5870474,12.2588277 C15.7959609,12.0557552 16.1344011,12.0557553 16.3433148,12.2588277 C16.5290158,12.4393365 16.5496492,12.7193259 16.4052151,12.9219416 L16.3433148,12.9939502 L12.3787865,16.8476322 C12.3293,16.8958619 12.2700208,16.9341284 12.2042131,16.9605912 C12.0735116,17.0131363 11.9264886,17.0131363 11.795787,16.9605912 C11.7519152,16.9429493 11.7109448,16.9200613 11.6738433,16.8924726 L11.6212135,16.8476321 L7.65668527,12.9939501 C7.55222839,12.8924139 7.5,12.7594014 7.5,12.6263888 C7.5,12.4933763 7.55222849,12.3603638 7.65668527,12.2588276 C7.84238619,12.0783187 8.13042915,12.0582621 8.33887282,12.198658 L8.41295263,12.2588276 L11.4651811,15.2257172 L11.4651811,2.51986568 C11.4651811,2.23251803 11.7043872,2 12,2 Z" id="icon-color"></path>
                    </g>
                </g>
            </g>
        </g>
    </g>
</svg>