<?xml version="1.0" encoding="UTF-8"?>
<svg width="20px" height="20px" viewBox="0 0 20 20" version="1.1" xmlns="http://www.w3.org/2000/svg" xmlns:xlink="http://www.w3.org/1999/xlink">
    <title>icon</title>
    <defs>
        <filter id="filter-1">
            <feColorMatrix in="SourceGraphic" type="matrix" values="0 0 0 0 0.227451 0 0 0 0 0.513725 0 0 0 0 0.250980 0 0 0 1.000000 0"></feColorMatrix>
        </filter>
        <path d="M2.9287109,17.0708008 C4.8173828,18.9599609 7.3291016,20 10,20 C12.6708984,20 15.1826172,18.9599609 17.0712891,17.0708008 C20.9697266,13.171875 20.9697266,6.828125 17.0712891,2.9291992 C15.1826172,1.0400391 12.6708984,0 10,0 C7.3291016,0 4.8173828,1.0400391 2.9287109,2.9291992 C-0.9697266,6.828125 -0.9697266,13.171875 2.9287109,17.0708008 Z M10,1 C12.4042969,1 14.6640625,1.9360352 16.3642578,3.6362305 C19.8730469,7.1450196 19.8730469,12.8549805 16.3642578,16.3637696 C14.6640625,18.0639648 12.4042969,19 10,19 C7.5957031,19 5.3359375,18.0639648 3.6357422,16.3637695 C0.1269531,12.8549804 0.1269531,7.1450195 3.6357422,3.6362304 C5.3359375,1.9360352 7.5957031,1 10,1 Z M13.7224524,5.796797 C13.8960278,5.582003 14.210844,5.54860435 14.4256141,5.72219904 C14.6238635,5.88244029 14.6675683,6.16304216 14.5365973,6.37420481 L14.5002038,6.42543898 L8.84286337,13.4262178 C8.66859432,13.6418703 8.35605325,13.6719729 8.14458216,13.5048026 L8.09768422,13.4627176 L4.75502466,10.067063 C4.56129325,9.87026013 4.5637654,9.55365207 4.76054637,9.3598991 C4.94219034,9.18105021 5.22590549,9.16939928 5.42085416,9.32345589 L5.46763159,9.36542143 L8.41682812,12.3618134 L13.7224524,5.796797 Z" id="path-2"></path>
    </defs>
    <g id="Symbols" stroke="none" stroke-width="1" fill="none" fill-rule="evenodd">
        <g id="Components/Overlays/Toasters/Confirmation/desktop_width" transform="translate(-18.000000, -18.000000)">
            <g id="icon-color" transform="translate(18.000000, 18.000000)" filter="url(#filter-1)">
                <g>
                    <mask id="mask-3" fill="white">
                        <use xlink:href="#path-2"></use>
                    </mask>
                    <use id="Icon-color" fill="#EC0000" xlink:href="#path-2"></use>
                </g>
            </g>
        </g>
    </g>
</svg>