<?xml version="1.0" encoding="UTF-8"?>
<svg width="24px" height="24px" viewBox="0 0 24 24" version="1.1" xmlns="http://www.w3.org/2000/svg" xmlns:xlink="http://www.w3.org/1999/xlink">
    <title>chevron-top</title>
    <g id="chevron-top" stroke="none" stroke-width="1" fill="none" fill-rule="evenodd">
        <path d="M9.00434245,19.0041084 C8.73892421,19.0056284 8.48381582,18.9012781 8.29537016,18.7140916 C8.10633154,18.526325 8,18.2707292 8,18.0040916 C8,17.7374541 8.10633154,17.4818582 8.29537016,17.2940916 L13.5876985,12.0040916 L8.29537016,6.71409162 C7.90381559,6.32196944 7.90381559,5.6862138 8.29537017,5.29409163 C8.68692475,4.90196946 9.32176015,4.90196946 9.71331474,5.29409162 L15.7046298,11.2940916 C15.8936685,11.4818582 16,11.7374541 16,12.0040916 C16,12.2707292 15.8936685,12.526325 15.7046298,12.7140916 L9.71331474,18.7140916 C9.52486907,18.9012781 9.26976069,19.0056284 9.00434245,19.0041084 Z" id="🌈-Color" fill="#000000" transform="translate(12.000000, 12.002054) scale(-1, 1) rotate(-90.000000) translate(-12.000000, -12.002054) "></path>
    </g>
</svg>