<!-- Generated by IcoMoon.io -->
<svg version="1.1" xmlns="http://www.w3.org/2000/svg" width="32" height="32" viewBox="0 0 32 32">
<title>config</title>
<path d="M12.48 0.128c0.192 0.16 0.32 0.288 0.512 0.544l0.256 0.352c0 0.032 0.032 0.032 0.032 0.064l0.064 0.064c0.16 0.224 0.352 0.384 0.672 0.608 0.416 0.32 0.896 0.544 1.44 0.64l0.352 0.032c0.064 0 0.128 0 0.256 0 1.184 0 2.304-0.608 2.944-1.6l0.128-0.224c0.256-0.416 0.608-0.672 1.12-0.736s0.864 0 1.44 0.224l0.448 0.16c0.384 0.128 0.736 0.288 1.088 0.48l0.352 0.16c0.736 0.352 1.152 1.152 1.024 1.92l-0.064 0.16c-0.288 1.184 0.032 2.464 0.928 3.36 0.832 0.832 2.016 1.184 3.136 0.96l0.256-0.032c0.8-0.224 1.632 0.096 2.016 0.864 0.384 0.8 0.768 1.664 1.056 2.56 0.224 0.736-0.096 1.568-0.8 1.984-1.088 0.64-1.792 1.824-1.792 3.072 0 1.216 0.608 2.336 1.536 2.944l0.192 0.128c0.704 0.384 1.024 1.216 0.832 2.016-0.256 0.832-0.576 1.632-1.024 2.56-0.384 0.736-1.216 1.12-2.048 0.896-1.184-0.352-2.496-0.032-3.424 0.896-0.864 0.864-1.216 2.112-0.96 3.264l0.064 0.224c0.224 0.736-0.064 1.568-0.736 1.984l-0.128 0.064-0.8 0.384c-0.544 0.256-0.896 0.384-1.312 0.512l-0.16 0.064c-0.832 0.32-1.76 0-2.272-0.704l-0.096-0.128c-0.608-1.056-1.76-1.76-3.008-1.76-1.184 0-2.24 0.608-2.912 1.536l-0.128 0.224c-0.48 0.768-1.44 1.12-2.304 0.864-0.832-0.288-1.664-0.608-2.336-0.992-0.736-0.384-1.088-1.216-0.864-2.016 0.384-1.28 0.032-2.592-0.896-3.52-0.832-0.832-2.016-1.184-3.168-0.96l-0.256 0.064c-0.768 0.224-1.664-0.16-2.048-0.896-0.288-0.608-0.512-1.216-0.768-1.856l-0.192-0.608c-0.352-0.832 0.032-1.76 0.768-2.112 1.088-0.608 1.792-1.76 1.792-3.072 0-1.216-0.576-2.304-1.536-2.944l-0.224-0.096c-0.672-0.384-1.024-1.248-0.8-2.048 0.256-0.896 0.608-1.792 1.056-2.624 0.384-0.64 1.12-0.992 1.824-0.864l0.16 0.032c1.216 0.32 2.496 0 3.392-0.896s1.216-2.144 0.928-3.392c-0.16-0.8 0.224-1.632 0.928-1.984l0.192-0.096c0.224-0.096 0.704-0.32 1.408-0.608l0.32-0.128c0.192-0.096 0.384-0.16 0.576-0.224 0.576-0.128 1.088-0.096 1.568 0.256zM11.392 1.696l-0.096 0.032-0.288 0.128c-0.032 0-0.128 0.032-0.256 0.096l-0.64 0.256c-0.224 0.096-0.384 0.192-0.576 0.256l-0.192 0.096 0.032 0.224c0.32 1.536-0.096 3.168-1.088 4.384l-0.384 0.448c-1.312 1.312-3.136 1.824-4.896 1.472l-0.224-0.032-0.16 0.32c-0.128 0.288-0.256 0.576-0.384 0.896l-0.16 0.448-0.128 0.384 0.16 0.096c1.376 0.864 2.272 2.336 2.432 3.968l0.032 0.288v0.288c0 1.888-0.96 3.584-2.56 4.576l-0.096 0.064 0.128 0.384c0.128 0.32 0.224 0.608 0.352 0.896l0.192 0.448 0.16 0.32 0.16-0.032c1.6-0.352 3.264 0.032 4.544 1.056l0.448 0.384c1.344 1.376 1.856 3.264 1.44 5.088l-0.032 0.192 0.256 0.128c0.256 0.128 0.512 0.256 0.8 0.352l0.416 0.16 0.448 0.16c0.032 0 0.096-0.032 0.096-0.032 0.992-1.632 2.72-2.656 4.672-2.656 1.92 0 3.712 1.024 4.64 2.656 0.032 0.032 0.064 0.032 0.096 0.032l0.32-0.128c0.352-0.096 0.704-0.256 1.248-0.512l0.384-0.192-0.064-0.16c-0.384-1.6 0-3.328 1.056-4.608l0.192-0.256 0.192-0.224c1.376-1.344 3.264-1.856 5.024-1.44l0.16 0.032 0.128-0.288c0.192-0.384 0.352-0.768 0.48-1.12l0.128-0.352 0.064-0.288-0.16-0.096c-1.312-0.864-2.208-2.304-2.368-3.936l-0.032-0.32-0.032-0.288c0-1.856 0.96-3.52 2.464-4.544l0.16-0.096-0.128-0.32c-0.096-0.32-0.224-0.64-0.352-0.928l-0.192-0.448-0.16-0.32-0.192 0.064c-1.568 0.288-3.2-0.096-4.448-1.088l-0.256-0.192-0.224-0.224c-1.28-1.28-1.824-3.104-1.472-4.864l0.064-0.192-0.288-0.16-0.32-0.16-0.32-0.128-0.576-0.224c-0.16-0.064-0.32-0.128-0.416-0.16h-0.096l-0.064-0.032-0.064 0.096c-0.992 1.568-2.688 2.496-4.512 2.496h-0.384c-0.096 0-0.16-0.032-0.224-0.032-0.896-0.096-1.792-0.448-2.56-0.992-0.352-0.256-0.608-0.48-0.864-0.736l-0.16-0.192c-0.032-0.064-0.096-0.128-0.128-0.192l-0.352-0.48zM16.32 6.4c5.376 0 9.728 4.352 9.728 9.728s-4.352 9.728-9.728 9.728c-5.376 0-9.728-4.352-9.728-9.728s4.352-9.728 9.728-9.728zM16.32 20.512c-1.248 0-2.368-0.512-3.168-1.344l-3.040 1.76c1.44 1.856 3.68 3.040 6.208 3.040 2.624 0 4.96-1.312 6.368-3.296l-3.008-1.728c-0.8 0.96-2.016 1.568-3.36 1.568zM8.48 16.128c0 1.12 0.224 2.208 0.672 3.2l3.008-1.76c-0.16-0.448-0.224-0.928-0.224-1.44 0-2.112 1.472-3.872 3.424-4.288v-3.52c-3.872 0.48-6.88 3.776-6.88 7.808zM17.248 8.32v3.52c1.984 0.416 3.456 2.176 3.456 4.288 0 0.384-0.064 0.768-0.16 1.152l3.040 1.76c0.384-0.896 0.576-1.888 0.576-2.912 0-4.032-3.008-7.328-6.912-7.808zM16.32 13.6c-1.376 0-2.528 1.12-2.528 2.528s1.152 2.496 2.528 2.496c1.376 0 2.496-1.12 2.496-2.496s-1.12-2.528-2.496-2.528z"></path>
</svg>
