<!-- Generated by IcoMoon.io -->
<svg version="1.1" xmlns="http://www.w3.org/2000/svg" width="32" height="32" viewBox="0 0 32 32">
<title>collapse</title>
<path d="M28.928 1.696c0.416 0 0.704 0.096 0.992 0.416 0.512 0.576 0.512 1.376 0 1.984l-9.408 9.216c-0.576 0.48-1.376 0.48-1.984 0-0.512-0.608-0.512-1.408 0-2.016l9.408-9.184c0.288-0.32 0.608-0.416 0.992-0.416zM19.424 13.696v0c-0.704 0-1.312-0.576-1.312-1.28v-6.816c0-0.704 0.608-1.312 1.312-1.312v0c0.704 0 1.312 0.608 1.312 1.312v6.72c0 0.8-0.608 1.376-1.312 1.376zM27.52 12.32v0c0 0.672-0.608 1.28-1.28 1.28h-6.72c-0.704 0-1.312-0.608-1.312-1.28v0c0-0.704 0.608-1.312 1.312-1.312h6.72c0.672 0 1.28 0.608 1.28 1.312zM3.104 30.336c-0.384 0-0.704-0.096-0.992-0.416-0.512-0.608-0.512-1.408 0-1.984l9.408-9.216c0.608-0.512 1.408-0.512 1.984 0 0.512 0.608 0.512 1.408 0 1.984l-9.408 9.216c-0.288 0.32-0.576 0.416-0.992 0.416zM12.608 18.304v0c0.704 0 1.312 0.608 1.312 1.312v6.688c0 0.704-0.608 1.312-1.312 1.312v0c-0.704 0-1.28-0.608-1.28-1.312v-6.688c0-0.704 0.576-1.312 1.28-1.312zM4.512 19.712v0c0-0.704 0.608-1.312 1.28-1.312h6.72c0.704 0 1.312 0.608 1.312 1.312v0c0 0.704-0.608 1.312-1.312 1.312h-6.592c-0.8 0-1.408-0.608-1.408-1.312z"></path>
</svg>
