<!-- Generated by IcoMoon.io -->
<svg version="1.1" xmlns="http://www.w3.org/2000/svg" width="32" height="32" viewBox="0 0 32 32">
<title>arrow-large</title>
<path d="M6.848 13.6h23.2c1.12 0 2.016 0.896 2.016 2.016s-0.896 1.984-2.016 1.984v0h-23.2l4.576 4.608c0.352 0.352 0.576 0.864 0.576 1.408 0 1.12-0.896 2.016-1.984 2.016-0.544 0-1.056-0.224-1.408-0.608l-8.032-8c-0.352-0.352-0.576-0.864-0.576-1.408s0.224-1.056 0.576-1.44l8.032-8c0.352-0.352 0.864-0.576 1.408-0.576 1.088 0 1.984 0.896 1.984 2.016 0 0.544-0.224 1.056-0.576 1.408v0z"></path>
</svg>
