<?xml version="1.0" encoding="UTF-8"?>
<svg width="24px" height="24px" viewBox="0 0 24 24" version="1.1" xmlns="http://www.w3.org/2000/svg" xmlns:xlink="http://www.w3.org/1999/xlink">
    <title>atoms/ico/24/configuration-24</title>
    <g id="atoms/ico/24/configuration-24" stroke="none" stroke-width="1" fill="none" fill-rule="evenodd">
        <path d="M22.0122449,10.2016349 L19.8272109,10.0217984 L19.8272109,10.0217984 C19.647619,9.24250681 19.3183673,8.52316076 18.9292517,7.86376022 L20.3659864,6.1852861 C20.7251701,5.76566757 20.6952381,5.13623978 20.3061224,4.77656676 L19.2285714,3.69754768 C18.8394558,3.30790191 18.2108844,3.27792916 17.8217687,3.63760218 L16.1455782,5.07629428 C15.4870748,4.6866485 14.7687075,4.35694823 13.9904762,4.17711172 L13.7809524,1.95912807 C13.7210884,1.41961853 13.2721088,1 12.7333333,1 L11.2068027,1 C10.6680272,1 10.2190476,1.41961853 10.1591837,1.95912807 L9.97959184,4.14713896 C9.20136054,4.32697548 8.4829932,4.65667575 7.8244898,5.04632153 L6.14829932,3.60762943 C5.7292517,3.2479564 5.10068027,3.27792916 4.7414966,3.66757493 L3.66394558,4.74659401 C3.27482993,5.13623978 3.24489796,5.76566757 3.60408163,6.15531335 L5.04081633,7.83378747 C4.65170068,8.49318801 4.32244898,9.21253406 4.14285714,9.99182561 L1.95782313,10.2016349 C1.41904762,10.2615804 1,10.7111717 1,11.2506812 L1,12.7792916 C1,13.3188011 1.41904762,13.7683924 1.95782313,13.8283379 L4.14285714,14.0081744 C4.32244898,14.7874659 4.65170068,15.506812 5.04081633,16.1662125 L3.60408163,17.8446866 C3.24489796,18.2643052 3.27482993,18.893733 3.66394558,19.253406 L4.7414966,20.3324251 C4.95102041,20.5422343 5.22040816,20.6321526 5.48979592,20.6321526 C5.7292517,20.6321526 5.96870748,20.5422343 6.17823129,20.3923706 L7.85442177,18.9536785 C8.51292517,19.3433243 9.23129252,19.6430518 10.0095238,19.852861 L10.0095238,19.852861 L10.1891156,22.0408719 C10.2489796,22.5803815 10.6979592,23 11.2367347,23 L12.7632653,23 C13.3020408,23 13.7510204,22.5803815 13.8108844,22.0408719 L13.9904762,19.852861 L13.9904762,19.852861 C14.7687075,19.6430518 15.4870748,19.3433243 16.1455782,18.9536785 L17.8217687,20.3923706 C18.0312925,20.5422343 18.2707483,20.6321526 18.5102041,20.6321526 C18.7795918,20.6321526 19.0489796,20.5422343 19.2585034,20.3324251 L20.3360544,19.253406 C20.7251701,18.8637602 20.755102,18.2343324 20.3959184,17.8446866 L18.9591837,16.1662125 C19.3482993,15.506812 19.677551,14.7874659 19.8571429,14.0081744 L19.8571429,14.0081744 L22.0421769,13.8283379 C22.5809524,13.7983651 23,13.3188011 23,12.7792916 L23,11.2506812 C22.970068,10.7111717 22.5510204,10.2316076 22.0122449,10.2016349 Z M15.5768707,12 C15.5768707,13.9782016 13.9605442,15.5967302 11.985034,15.5967302 C10.0095238,15.5967302 8.39319728,13.9782016 8.39319728,12 C8.39319728,10.0217984 10.0095238,8.40326975 11.985034,8.40326975 C13.9605442,8.40326975 15.5768707,10.0217984 15.5768707,12 Z" id="Shape" fill="#7F7F7F"></path>
    </g>
</svg>