<?xml version="1.0" encoding="UTF-8"?>
<svg width="10px" height="14px" viewBox="0 0 10 14" version="1.1" xmlns="http://www.w3.org/2000/svg" xmlns:xlink="http://www.w3.org/1999/xlink">
    <title>456B29E0-0937-412E-A066-2A9638BE9457@2x</title>
    <g id="Gloval-Overview" stroke="none" stroke-width="1" fill="none" fill-rule="evenodd">
        <g id="ISM-Dashboard" transform="translate(-1321.000000, -218.000000)" fill="#EC0000">
            <g id="components/covers/VDR-Copy" transform="translate(938.000000, 152.000000)">
                <g id="atoms/ico/24/meeting-24-copy" transform="translate(383.000000, 66.000000)">
                    <path d="M7.05199043,0.43208291 C7.37834493,0.103757275 7.89612952,0.0798829692 8.24422978,0.361332732 L8.31180065,0.422136166 L8.63215772,0.723213461 C8.95875649,1.05178485 8.98096442,1.57090508 8.69929186,1.92353862 L8.63428241,1.99642457 L7.99733333,2.64533333 L8.97530864,2.64573295 C9.12900809,2.64573295 9.26515035,2.73040832 9.33760778,2.86610425 L9.36462741,2.92728524 L9.383042,2.99412493 L9.38888889,3.06080453 L9.38888889,13.4182618 C9.38888889,13.5941219 9.27910189,13.7474965 9.1085827,13.8088695 L9.04188699,13.8274361 L8.97530864,13.8333333 L0.580246914,13.8333333 C0.404590401,13.8333333 0.251865725,13.7227369 0.190928142,13.551781 L0.172513551,13.4849414 L0.166666667,13.4182618 L0.166666667,3.06080453 C0.166666667,2.88494434 0.276453668,2.73156975 0.44697286,2.67019675 L0.513668568,2.65163023 L0.580231569,2.64573295 L4.85066667,2.64533333 L7.05199043,0.43208291 Z M7.18533333,3.47466667 L4.87633387,5.83469947 C4.81414806,5.8982145 4.73368992,5.93956658 4.64716952,5.9535668 L4.58133333,5.95885743 L3.54281481,5.95885743 C3.33496075,5.95885743 3.16322131,5.80509066 3.13371376,5.60507162 L3.12923457,5.54378586 L3.12923457,4.55016623 C3.12923457,4.46226788 3.15701687,4.37721071 3.20773396,4.30686039 L3.24999632,4.25704058 L4.02666667,3.47466667 L0.993333333,3.47533333 L0.993333333,13.0026667 L8.56133333,13.0026667 L8.56133333,3.47533333 L7.18533333,3.47466667 Z M7.33333333,10.2978723 C7.60947571,10.2978723 7.83333333,10.4844204 7.83333333,10.714539 C7.83333333,10.8965567 7.69236978,11.0540597 7.48107054,11.1110179 L7.40812932,11.1261757 L7.33333333,11.1312057 L5.33333333,11.1312057 C5.05719096,11.1312057 4.83333333,10.9446577 4.83333333,10.714539 C4.83333333,10.5325213 4.97429688,10.3750183 5.18559612,10.3180601 L5.25853734,10.3029023 L5.33333333,10.2978723 L7.33333333,10.2978723 Z M7.33333333,9 C7.60947571,9 7.83333333,9.18654802 7.83333333,9.41666667 C7.83333333,9.59868437 7.69236978,9.75618738 7.48107054,9.81314553 L7.40812932,9.8283034 L7.33333333,9.83333333 L2,9.83333333 C1.72385763,9.83333333 1.5,9.64678531 1.5,9.41666667 C1.5,9.23464896 1.64096355,9.07714595 1.85226279,9.0201878 L1.92520401,9.00502993 L2,9 L7.33333333,9 Z M7.33333333,7.5 C7.60947571,7.5 7.83333333,7.68654802 7.83333333,7.91666667 C7.83333333,8.09868437 7.69236978,8.25618738 7.48107054,8.31314553 L7.40812932,8.3283034 L7.33333333,8.33333333 L2,8.33333333 C1.72385763,8.33333333 1.5,8.14678531 1.5,7.91666667 C1.5,7.73464896 1.64096355,7.57714595 1.85226279,7.5201878 L1.92520401,7.50502993 L2,7.5 L7.33333333,7.5 Z M4,6.33333333 C4.27614237,6.33333333 4.5,6.51988135 4.5,6.75 C4.5,6.93201771 4.35903645,7.08952072 4.14773721,7.14647886 L4.07479599,7.16163673 L4,7.16666667 L2,7.16666667 C1.72385763,7.16666667 1.5,6.98011865 1.5,6.75 C1.5,6.56798229 1.64096355,6.41047928 1.85226279,6.35352114 L1.92520401,6.33836327 L2,6.33333333 L4,6.33333333 Z M7.66076098,1.00281883 L7.63762242,1.01833922 L5.31112475,3.36013328 L3.956,4.72133333 L3.956,5.12866667 L4.40733333,5.12866667 L8.04655833,1.41228867 C8.06741074,1.39131032 8.0729557,1.35996226 8.06676251,1.33780946 L8.05678879,1.31944636 L7.73605331,1.01798766 C7.72253521,1.00435231 7.70478642,0.997539838 7.68698362,0.997590206 L7.66076098,1.00281883 Z" id="🌈-Color"></path>
                </g>
            </g>
        </g>
    </g>
</svg>