<?xml version="1.0" encoding="UTF-8"?>
<svg width="23px" height="24px" viewBox="0 0 23 24" version="1.1" xmlns="http://www.w3.org/2000/svg" xmlns:xlink="http://www.w3.org/1999/xlink">
    <title>C2CB1707-79D0-42AD-80E0-1EB70E619BD6</title>
    <g id="Profile" stroke="none" stroke-width="1" fill="none" fill-rule="evenodd">
        <g id="SCIB_GP_02_Teams_A1_no-teams" transform="translate(-1268.000000, -238.000000)" fill="#EC0000" fill-rule="nonzero">
            <g id="Unassigned-people-Copy" transform="translate(48.000000, 189.000000)">
                <g id="Group-10" transform="translate(0.000000, 36.000000)">
                    <g id="Components/Table/Status-table/new/Table-elements/Row-actions-Copy-5" transform="translate(1205.500000, 13.480000)">
                        <g id="Atoms/ico/normal-size/options-24" transform="translate(15.000000, 0.000000)">
                            <path d="M11.25,1.92 C13.7539672,1.92 16.1087036,2.91843754 17.8793335,4.73203123 C21.5341187,8.475 21.5341187,14.565 17.8793335,18.3079688 C16.1087036,20.1215625 13.7539672,21.12 11.25,21.12 C8.74603275,21.12 6.39129637,20.1215625 4.62066647,18.3079688 C0.965881312,14.565 0.965881312,8.475 4.62066647,4.73203123 C6.39129637,2.91843754 8.74603275,1.92 11.25,1.92 Z M11.25,2.88 C8.99597166,2.88 6.87744141,3.77859379 5.28350831,5.41078118 C1.99401853,8.77921872 1.99401853,14.2607812 5.28350831,17.6292187 C6.87744141,19.2614062 8.99597166,20.16 11.25,20.16 C13.5040283,20.16 15.6225586,19.2614062 17.2164917,17.6292188 C20.5059815,14.2607813 20.5059815,8.77921882 17.2164917,5.41078128 C15.6225586,3.77859379 13.5040283,2.88 11.25,2.88 Z M7.27294931,7.44703123 C7.43570965,7.28036457 7.68816916,7.26184605 7.87086272,7.39147568 L7.93579106,7.44703123 L11.25,10.8411914 L14.564209,7.44703133 C14.7473144,7.25953133 15.0439453,7.25953142 15.2270508,7.44703133 C15.3898112,7.61369791 15.4078957,7.87221646 15.2813043,8.05929465 L15.2270508,8.12578128 L11.9127846,11.52 L15.2270507,14.9142188 C15.4101562,15.1017187 15.4101562,15.4054688 15.2270507,15.5929688 C15.135498,15.6867188 15.0155639,15.7335938 14.8956298,15.7335938 C14.8056792,15.7335938 14.7157287,15.7072266 14.6377515,15.6544922 L14.5642089,15.5929688 L11.25,12.1988086 L7.93579097,15.5929688 C7.84423828,15.6867188 7.72430419,15.7335938 7.60437012,15.7335938 C7.484436,15.7335938 7.36450191,15.6867187 7.27294922,15.5929688 C7.1101888,15.4263021 7.09210431,15.1677835 7.21869575,14.9807053 L7.27294922,14.9142187 L10.5872154,11.52 L7.27294931,8.12578118 C7.08984384,7.93828128 7.08984394,7.63453123 7.27294931,7.44703123 Z" id="icon-color"></path>
                        </g>
                    </g>
                </g>
            </g>
        </g>
    </g>
</svg>