<?xml version="1.0" encoding="UTF-8"?>
<svg width="20px" height="20px" viewBox="0 0 20 20" version="1.1" xmlns="http://www.w3.org/2000/svg" xmlns:xlink="http://www.w3.org/1999/xlink">
    <title>Atoms/ico/normal size/financial</title>
    <g id="Finance" stroke="none" stroke-width="1" fill="none" fill-rule="evenodd">
        <g id="Group" transform="translate(-2.000000, -2.000000)" fill="#EC0000">
            <path d="M6,8 C8.2431641,8 10,9.0981445 10,10.5 L10,10.5 L10,14.8450928 C10.7277222,14.328125 11.7865601,14 13,14 C15.2431641,14 17,15.0981445 17,16.5 L17,16.5 L17,19.5 C17,20.9018555 15.2431641,22 13,22 C11.4640503,22 10.1720581,21.4787598 9.5,20.7040405 C8.8279419,21.4787598 7.5359497,22 6,22 C3.7568359,22 2,20.9018555 2,19.5 L2,19.5 L2,10.5 C2,9.0981445 3.7568359,8 6,8 Z M9,18.1549072 C8.2722778,18.671875 7.2134399,19 6,19 C4.7865601,19 3.7277222,18.671875 3,18.1549072 L3,18.1549072 L3,19.5 C3,20.2094727 4.2319336,21 6,21 C7.7680664,21 9,20.2094727 9,19.5 L9,19.5 Z M16,18.1549072 C15.2722778,18.671875 14.2134399,19 13,19 C11.7865601,19 10.7277222,18.671875 10,18.1549072 L10,18.1549072 L10,19.5 C10,20.2094727 11.2319336,21 13,21 C14.7680664,21 16,20.2094727 16,19.5 L16,19.5 Z M9,15.1549072 C8.2722778,15.671875 7.2134399,16 6,16 C4.7865601,16 3.7277222,15.671875 3,15.1549072 L3,15.1549072 L3,16.5 C3,17.2094727 4.2319336,18 6,18 C7.7680664,18 9,17.2094727 9,16.5 L9,16.5 Z M13,15 C11.2319336,15 10,15.7905273 10,16.5 C10,17.2094727 11.2319336,18 13,18 C14.7680664,18 16,17.2094727 16,16.5 C16,15.7905273 14.7680664,15 13,15 Z M9,12.1549072 C8.2722778,12.671875 7.2134399,13 6,13 C4.7865601,13 3.7277222,12.671875 3,12.1549072 L3,12.1549072 L3,13.5 C3,14.2094727 4.2319336,15 6,15 C7.7680664,15 9,14.2094727 9,13.5 L9,13.5 Z M6,9 C4.2319336,9 3,9.7905273 3,10.5 C3,11.2094727 4.2319336,12 6,12 C7.7680664,12 9,11.2094727 9,10.5 C9,9.7905273 7.7680664,9 6,9 Z M18.5090817,1.9994 C18.7852241,1.9994 19.0090817,2.22325763 19.0090817,2.4994 L19.0090817,3.39395915 L19.4552519,3.65019179 L20.2429078,3.20024472 C20.481241,3.06409727 20.7847693,3.14553352 20.9229435,3.38269746 L21.9320253,5.11469746 C22.0718313,5.35466223 21.9892912,5.66258067 21.7482051,5.80044407 L20.9717457,6.24445689 L20.9717457,6.75558783 L21.748523,7.20053788 C21.9893837,7.33850663 22.0717592,7.64626157 21.9320253,7.88610254 L20.9229435,9.61810254 C20.7846979,9.85538897 20.4809493,9.93676595 20.2425921,9.80037481 L19.4550425,9.34972848 L19.0090817,9.60584085 L19.0090817,10.4994 C19.0090817,10.7755424 18.7852241,10.9994 18.5090817,10.9994 L16.4909183,10.9994 C16.2147759,10.9994 15.9909183,10.7755424 15.9909183,10.4994 L15.9909183,9.60584085 L15.5449575,9.34972848 L14.7574079,9.80037481 C14.5190507,9.93676595 14.2153021,9.85538897 14.0770565,9.61810254 L13.0679747,7.88610254 C12.9282408,7.64626157 13.0106163,7.33850663 13.251477,7.20053788 L14.0282543,6.75558783 L14.0282543,6.24445689 L13.2517949,5.80044407 C13.0107088,5.66258067 12.9281687,5.35466223 13.0679747,5.11469746 L14.0770565,3.38269746 C14.2152307,3.14553352 14.518759,3.06409727 14.7570922,3.20024472 L15.5447481,3.65019179 L15.9909183,3.39395915 L15.9909183,2.4994 C15.9909183,2.22325763 16.2147759,1.9994 16.4909183,1.9994 L18.5090817,1.9994 Z M18.0090817,2.9994 L16.9909183,2.9994 L16.9909183,3.6834 C16.9909183,3.86244293 16.8951844,4.02782018 16.7399236,4.11698547 L15.794414,4.65998547 C15.6405747,4.74833435 15.4514396,4.74855119 15.2973982,4.66055528 L14.6915411,4.31446044 L14.185769,5.18257379 L14.7764593,5.52035593 C14.9321706,5.6093983 15.0282543,5.7750274 15.0282543,5.9544 L15.0282543,7.0454 C15.0282543,7.22464167 14.9323096,7.39017079 14.7767772,7.47926212 L14.1855832,7.81790726 L14.6913595,8.68602792 L15.2970825,8.33942519 C15.4511726,8.25125282 15.6404622,8.25140101 15.794414,8.33981453 L16.7399236,8.88281453 C16.8951844,8.97197982 16.9909183,9.13735707 16.9909183,9.3164 L16.9909183,9.9994 L18.0090817,9.9994 L18.0090817,9.3164 C18.0090817,9.13735707 18.1048156,8.97197982 18.2600764,8.88281453 L19.205586,8.33981453 C19.3595378,8.25140101 19.5488274,8.25125282 19.7029175,8.33942519 L20.3086405,8.68602792 L20.8144168,7.81790726 L20.2232228,7.47926212 C20.0676904,7.39017079 19.9717457,7.22464167 19.9717457,7.0454 L19.9717457,5.9544 C19.9717457,5.7750274 20.0678294,5.6093983 20.2235407,5.52035593 L20.814231,5.18257379 L20.3084589,4.31446044 L19.7026018,4.66055528 C19.5485604,4.74855119 19.3594253,4.74833435 19.205586,4.65998547 L18.2600764,4.11698547 C18.1048156,4.02782018 18.0090817,3.86244293 18.0090817,3.6834 L18.0090817,2.9994 Z M17.4995,5.5095 C18.0466424,5.5095 18.4905,5.95335763 18.4905,6.5005 C18.4905,7.04776758 18.0465187,7.4905 17.4995,7.4905 C16.9523576,7.4905 16.5095,7.04764237 16.5095,6.5005 C16.5095,5.95348131 16.9522324,5.5095 17.4995,5.5095 Z" id="🌈-Color"></path>
        </g>
    </g>
</svg>