<!-- Generated by IcoMoon.io -->
<svg version="1.1" xmlns="http://www.w3.org/2000/svg" width="31" height="32" viewBox="0 0 31 32">
<title>i-big-link</title>
<path fill="#e20714" d="M12.698 11.31l-0.006 0.534c-1.050 0.038-2.092 0.479-2.873 1.258-1.66 1.66-1.707 4.298-0.103 5.903 1.614 1.614 4.261 1.575 5.921-0.085 0.78-0.779 1.212-1.784 1.269-2.835l0.516 0.001c-0.046 1.173-0.535 2.356-1.408 3.229-1.868 1.868-4.861 1.914-6.682 0.094s-1.765-4.805 0.103-6.673c0.883-0.882 1.887-1.354 3.263-1.426z"></path>
<path fill="#e20714" d="M14.952 12.745c1.868-1.868 4.852-1.924 6.673-0.103s1.774 4.814-0.094 6.682c-0.873 0.873-2.083 1.362-3.257 1.408l-0.001-0.515c1.051-0.057 2.084-0.489 2.863-1.269 1.66-1.66 1.699-4.308 0.085-5.921-1.606-1.605-4.243-1.557-5.903 0.103-0.779 0.78-1.257 1.883-1.257 2.938h-0.543c0.034-1.346 0.552-2.44 1.434-3.323z"></path>
</svg>
