<!-- Generated by IcoMoon.io -->
<svg version="1.1" xmlns="http://www.w3.org/2000/svg" width="32" height="32" viewBox="0 0 32 32">
<title>graphic</title>
<path d="M27.264 19.328h-11.424v-10.944c0-0.288-0.224-0.512-0.48-0.512s-0.48 0.224-0.48 0.512v0 10.944h-11.456c-0.256 0-0.48 0.224-0.48 0.48s0.224 0.512 0.48 0.512h11.456v11.2c0 0.288 0.192 0.48 0.48 0.48s0.48-0.192 0.48-0.48v0-11.2h11.424c0 0 0.032 0 0.032 0 0.256 0 0.48-0.224 0.48-0.48 0 0 0 0 0-0.032v0c0 0 0 0 0 0 0-0.256-0.224-0.48-0.512-0.48 0 0 0 0 0 0v0zM6.464 27.232c-0.032 0-0.064 0-0.096 0-0.416 0-0.736-0.352-0.736-0.768s0.32-0.768 0.736-0.768c0.032 0 0.064 0 0.096 0v0c0.352 0.032 0.768 0.032 1.184 0.032 3.072 0 6.112-0.16 9.12-0.48l-0.384 0.032c0.416-0.64 1.376-2.816 2.176-4.608 1.056-2.4 2.24-5.024 3.168-6.656 1.408-2.528 3.072-4.992 6.432-5.248 0.032 0 0.064 0 0.064 0 0.416 0 0.768 0.32 0.768 0.736s-0.32 0.736-0.704 0.768v0c-2.656 0.192-3.936 2.144-5.248 4.48-0.864 1.568-2.048 4.224-3.104 6.56-2.208 4.928-2.4 5.248-2.976 5.408h-0.128c-2.816 0.32-6.080 0.512-9.376 0.512-0.352 0-0.704 0-1.056 0h0.064zM10.752 4.928l-2.432-4.704c-0.096-0.128-0.256-0.224-0.416-0.224 0 0 0 0 0 0v0c-0.192 0-0.32 0.096-0.416 0.224v0l-2.4 4.704c-0.032 0.064-0.064 0.128-0.064 0.224s0.032 0.16 0.064 0.224v-0.032c0.064 0.16 0.224 0.256 0.384 0.256v0h4.864c0 0 0 0 0 0 0.16 0 0.288-0.096 0.384-0.192v-0.032c0.064-0.064 0.064-0.128 0.064-0.224s0-0.16-0.032-0.224v0zM9.6 4.672h-3.392l1.696-3.264zM15.264 5.6c-0.192 0-0.352-0.096-0.416-0.256v0l-2.368-4.672c-0.032-0.064-0.032-0.128-0.032-0.224 0-0.16 0.096-0.32 0.256-0.416v0c0.064-0.032 0.128-0.032 0.224-0.032 0.16 0 0.32 0.096 0.416 0.256v0l1.92 3.808 1.92-3.808c0.096-0.128 0.224-0.224 0.384-0.224 0.256 0 0.48 0.224 0.48 0.48 0 0.064 0 0.096-0.032 0.16v0l-2.336 4.64c-0.096 0.16-0.256 0.256-0.416 0.256v0zM22.592 0c-1.152 0-2.080 1.216-2.080 2.784s0.928 2.816 2.080 2.816 2.112-1.216 2.112-2.784-0.896-2.816-2.112-2.816zM22.592 0.928c0.544 0 1.024 0.608 1.152 1.376h-2.272c0.128-0.8 0.608-1.376 1.12-1.376zM22.592 4.64c-0.512 0-0.992-0.608-1.12-1.408h2.272c-0.128 0.8-0.608 1.408-1.152 1.408z"></path>
</svg>
