<svg width="26px" height="26px" viewBox="0 0 26 26" version="1.1" xmlns="http://www.w3.org/2000/svg" xmlns:xlink="http://www.w3.org/1999/xlink"><path d="M11.483 0.307 C 9.139 0.529,6.895 1.451,4.983 2.975 C 4.468 3.387,3.507 4.356,3.079 4.897 C 1.236 7.226,0.260 10.031,0.260 13.000 C 0.260 15.968,1.237 18.775,3.079 21.103 C 3.507 21.644,4.468 22.613,4.983 23.025 C 8.846 26.106,13.934 26.604,18.271 24.325 C 18.735 24.081,19.755 23.412,20.172 23.077 C 21.209 22.246,22.179 21.159,22.923 19.998 C 23.264 19.467,23.877 18.264,24.008 17.871 C 24.429 16.606,23.151 15.485,21.966 16.080 C 21.669 16.229,21.430 16.527,21.210 17.019 C 20.640 18.295,20.113 19.067,19.156 20.023 C 18.539 20.640,18.297 20.840,17.658 21.263 C 15.215 22.880,12.233 23.228,9.447 22.223 C 8.959 22.047,8.055 21.596,7.613 21.307 C 6.436 20.539,5.269 19.322,4.568 18.131 C 2.839 15.193,2.702 11.591,4.202 8.558 C 4.728 7.496,5.332 6.670,6.180 5.850 C 8.450 3.658,11.542 2.764,14.571 3.423 C 15.925 3.718,17.422 4.459,18.525 5.380 C 18.923 5.713,19.665 6.462,19.840 6.708 L 19.938 6.844 18.842 6.472 C 17.761 6.105,17.743 6.100,17.397 6.119 C 17.102 6.134,17.009 6.159,16.804 6.276 C 15.910 6.788,15.782 7.986,16.546 8.677 C 16.644 8.765,16.798 8.869,16.888 8.907 C 17.287 9.077,22.496 10.837,22.722 10.879 C 22.986 10.928,23.261 10.893,23.541 10.775 C 23.788 10.671,24.114 10.338,24.234 10.066 C 24.380 9.738,25.740 3.824,25.740 3.519 C 25.740 3.247,25.606 2.875,25.421 2.632 C 24.905 1.956,23.881 1.902,23.264 2.519 C 23.006 2.777,22.914 3.028,22.657 4.171 C 22.529 4.737,22.414 5.200,22.400 5.200 C 22.385 5.200,22.255 5.046,22.109 4.858 C 21.739 4.380,20.972 3.593,20.466 3.169 C 18.148 1.232,15.436 0.240,12.527 0.266 C 12.155 0.269,11.686 0.288,11.483 0.307 " stroke="none" fill="#EC0000" fill-rule="evenodd"></path></svg>