<?xml version="1.0" encoding="UTF-8"?>
<svg width="23px" height="24px" viewBox="0 0 23 24" version="1.1" xmlns="http://www.w3.org/2000/svg" xmlns:xlink="http://www.w3.org/1999/xlink">
    <title>b. icons/ 01. banking / BAN005   | bank branch</title>
    <g id="Confirming---MVP01-V02" stroke="none" stroke-width="1" fill="none" fill-rule="evenodd">
        <g id="Components/Navigation/App-Bar/Desktop-Copy" transform="translate(-1272.000000, -17.000000)" fill="#EC0000">
            <g id="Group" transform="translate(774.533254, 12.000000)">
                <g id="Group-3" transform="translate(0.000000, 5.000000)">
                    <g id="🌈-Color" transform="translate(497.000000, 0.000000)">
                        <path d="M9.2687,0.85 C10.2111558,0.85 11.0898269,1.23570629 11.7256729,1.89051432 L11.8680146,2.04634775 L12,2.21 L12.130944,2.04763788 C12.6346475,1.46091461 13.3227528,1.05746714 14.0893715,0.910887816 L14.3003163,0.877335559 L14.5146771,0.856852312 L14.7313,0.85 L22.45,0.85 C22.7597775,0.85 23.0270553,1.05274614 23.1185175,1.3473117 L23.1423103,1.44874877 L23.15,1.55 L23.15,15.85 C23.15,16.1597775 22.9472539,16.4270553 22.6526883,16.5185175 L22.5512512,16.5423103 L22.45,16.55 L20.4,16.549 L20.4,17.4197 C20.4,20.3444068 18.1941823,22.7755714 15.3403451,23.1106994 L15.1137242,23.132773 L14.8903391,23.145742 L14.6686,23.15 L13.7138,23.15 C10.721539,23.15 8.24617868,20.8325299 8.01718256,17.8788331 L8.0042468,17.6561392 L8,17.4351 L8,16.549 L1.55,16.55 C1.27464224,16.55 1.03286444,16.3898055 0.918298732,16.1473239 L0.881482535,16.0526883 L0.857689724,15.9512512 L0.85,15.85 L0.85,1.55 C0.85,1.24022252 1.05274614,0.972944673 1.3473117,0.881482535 L1.44874877,0.857689724 L1.55,0.85 L9.2687,0.85 Z M12,6.65 C11.8318156,6.65 11.6849526,6.75557904 11.627609,6.8987825 L11.606713,6.973205 L11.6,7.05 L11.6,16.95 C11.6,17.3364427 11.2864427,17.65 10.9,17.65 C10.5902225,17.65 10.3229447,17.4472539 10.2314825,17.1526883 L10.2076897,17.0512512 L10.2,16.95 L10.2,13.65 C10.2,13.4299166 10.0203316,13.25 9.8,13.25 C9.63181557,13.25 9.48495257,13.355579 9.42760904,13.4987825 L9.40671296,13.573205 L9.4,13.65 L9.4,17.4351 C9.4,19.6695578 11.1096014,21.5232448 13.3006452,21.7305961 L13.5074285,21.7451734 L13.7138,21.75 L14.6686,21.75 C16.9106241,21.75 18.7722632,20.0332601 18.9805116,17.8343435 L18.9951522,17.6268202 L19,17.4197 L19,14.75 C19,14.5299166 18.8203316,14.35 18.6,14.35 C18.3796684,14.35 18.2,14.5299166 18.2,14.75 C18.2,15.1364427 17.8864427,15.45 17.5,15.45 C17.1902225,15.45 16.9229447,15.2472539 16.8314825,14.9526883 L16.8076897,14.8512512 L16.8,14.75 L16.8,13.65 C16.8,13.4299166 16.6203316,13.25 16.4,13.25 C16.2318156,13.25 16.0849526,13.355579 16.027609,13.4987825 L16.006713,13.573205 L16,13.65 L16,14.75 C16,15.1364427 15.6864427,15.45 15.3,15.45 C14.9902225,15.45 14.7229447,15.2472539 14.6314825,14.9526883 L14.6076897,14.8512512 L14.6,14.75 L14.6,12.55 C14.6,12.3299166 14.4203316,12.15 14.2,12.15 C14.0318156,12.15 13.8849526,12.255579 13.827609,12.3987825 L13.806713,12.473205 L13.8,12.55 L13.8,14.75 C13.8,15.1364427 13.4864427,15.45 13.1,15.45 C12.7902225,15.45 12.5229447,15.2472539 12.4314825,14.9526883 L12.4076897,14.8512512 L12.4,14.75 L12.4,7.05 C12.4,6.82991657 12.2203316,6.65 12,6.65 Z M21.75,2.249 L14.7313,2.25 C13.7190867,2.25 12.8690541,2.99820093 12.7225957,3.9750377 L12.7053965,4.13109935 L12.7,4.2813 L12.7,5.4 L12.7383706,5.41552663 C13.2783355,5.65925532 13.6687404,6.15334319 13.7728951,6.74234189 L13.7928911,6.89147891 L13.8,7.05 L13.8,10.801 L13.9001151,10.7780344 C13.9500544,10.7687821 13.9999677,10.7617735 14.0499252,10.7570779 L14.2,10.75 C14.9126685,10.75 15.5413793,11.1728861 15.8292165,11.800708 L15.881,11.928 L15.8924606,11.9248323 C16.0021606,11.89198 16.114402,11.869672 16.2282174,11.8584502 L16.4,11.85 C17.1135197,11.85 17.7462438,12.2712323 18.0346749,12.8963647 L18.087,13.024 C18.2047025,12.9898635 18.3157914,12.9686561 18.42891,12.9580081 L18.6,12.95 C19.4828713,12.95 20.2269262,13.591432 20.3741101,14.4481266 L20.3937946,14.6014558 L20.4,14.75 L20.4,15.149 L21.75,15.149 L21.75,2.249 Z M9.2687,2.25 L2.249,2.249 L2.249,15.149 L8,15.149 L8,13.65 C8,12.7070844 8.7287302,11.9312084 9.65258453,11.8559781 L9.8,11.85 C9.90201147,11.85 10.0037243,11.8599095 10.1071568,11.8795959 L10.2,11.901 L10.2,7.05 C10.2,6.39236073 10.559537,5.80118882 11.1252886,5.4847484 L11.2594375,5.41669538 L11.3,5.399 L11.3,4.2813 C11.3,3.21272713 10.4691681,2.33332375 9.42000026,2.25558578 L9.2687,2.25 Z M8.5,6.85 C8.85884271,6.85 9.15,7.14115729 9.15,7.5 C9.15,7.78031475 8.97114419,8.0235312 8.70637607,8.11456162 L8.60324242,8.14133953 L8.5,8.15 L3.5,8.15 C3.14115729,8.15 2.85,7.85884271 2.85,7.5 C2.85,7.21968525 3.02885581,6.9764688 3.29362393,6.88543838 L3.39675758,6.85866047 L3.5,6.85 L8.5,6.85 Z M20.5,6.85 C20.8588427,6.85 21.15,7.14115729 21.15,7.5 C21.15,7.78031475 20.9711442,8.0235312 20.7063761,8.11456162 L20.6032424,8.14133953 L20.5,8.15 L15.5,8.15 C15.1411573,8.15 14.85,7.85884271 14.85,7.5 C14.85,7.21968525 15.0288558,6.9764688 15.2936239,6.88543838 L15.3967576,6.85866047 L15.5,6.85 L20.5,6.85 Z M20.5,3.85 C20.8588427,3.85 21.15,4.14115729 21.15,4.5 C21.15,4.78031475 20.9711442,5.0235312 20.7063761,5.11456162 L20.6032424,5.14133953 L20.5,5.15 L15.5,5.15 C15.1411573,5.15 14.85,4.85884271 14.85,4.5 C14.85,4.21968525 15.0288558,3.9764688 15.2936239,3.88543838 L15.3967576,3.85866047 L15.5,3.85 L20.5,3.85 Z M8.5,3.85 C8.85884271,3.85 9.15,4.14115729 9.15,4.5 C9.15,4.78031475 8.97114419,5.0235312 8.70637607,5.11456162 L8.60324242,5.14133953 L8.5,5.15 L3.5,5.15 C3.14115729,5.15 2.85,4.85884271 2.85,4.5 C2.85,4.21968525 3.02885581,3.9764688 3.29362393,3.88543838 L3.39675758,3.85866047 L3.5,3.85 L8.5,3.85 Z"></path>
                    </g>
                </g>
            </g>
        </g>
    </g>
</svg>