<?xml version="1.0" encoding="UTF-8"?>
<svg width="24px" height="24px" viewBox="0 0 24 24" version="1.1" xmlns="http://www.w3.org/2000/svg" xmlns:xlink="http://www.w3.org/1999/xlink">
    <title>DC00F4FE-365E-4A9F-A08E-9F482D700020</title>
    <g id="Symbols" stroke="none" stroke-width="1" fill="none" fill-rule="evenodd">
        <g id="Atoms/ico/normal-size/guide-24" fill="#EC0000">
            <path d="M9.767,4 C10.6563093,4 11.4845494,4.36219825 12.0834024,4.97758802 L12.2174506,5.12404596 L12.25,5.165 L12.2816506,5.12707759 C12.748241,4.58235598 13.3861459,4.20539551 14.1004719,4.06280836 L14.3169674,4.02713003 L14.5189634,4.00711967 L14.733,4 L21.75,4 C22.0776319,4 22.3611373,4.21144533 22.463662,4.52839418 L22.4909461,4.63780601 L22.5,4.75 L22.5,16.7504 C22.5,17.0780319 22.2885547,17.3615373 21.9716058,17.464062 L21.862194,17.4913461 L21.75,17.5004 L14.733,17.5004 C13.9861193,17.5004 13.1624588,18.4456105 13.0214541,19.4474137 L13.004974,19.6059339 L13,19.75 C13,20.1642136 12.6642136,20.5 12.25,20.5 C11.8703042,20.5 11.556509,20.2178461 11.5068466,19.8517706 L11.5,19.75 C11.5,18.7551013 10.7514989,17.701795 9.99619305,17.5264773 L9.87698582,17.5062284 L9.767,17.5 L2.75,17.5 C2.42236813,17.5 2.13886271,17.2885547 2.03633805,16.9716058 L2.00905388,16.862194 L2,16.75 L2,4.75 C2,4.42236813 2.21144533,4.13886271 2.52839418,4.03633805 L2.63780601,4.00905388 L2.75,4 L9.767,4 Z M9.767,5.5 L3.5,5.5 L3.5,16 L9.767,16 C10.3625586,16 10.9446473,16.2206898 11.4537486,16.613206 L11.5,16.652 L11.5001689,7.24218759 L11.4952374,7.1034517 C11.4324335,6.25269252 10.7571624,5.57868358 9.91690272,5.50641949 L9.767,5.5 Z M21,5.5 L14.733,5.5 C13.8748783,5.5 13.1554229,6.12674454 13.0225416,6.94747392 L13.0052721,7.09423411 L13,7.23300288 L12.999,16.652 L13.0441039,16.6151686 C13.438146,16.3113734 13.8777716,16.1095761 14.3378065,16.0334634 L14.5361405,16.0086077 L14.7329847,16.0004 L21,16 L21,5.5 Z M19.75,13 C20.1642136,13 20.5,13.3357864 20.5,13.75 C20.5,14.0776319 20.2885547,14.3611373 19.9716058,14.463662 L19.862194,14.4909461 L19.75,14.5 L14.75,14.5 C14.3357864,14.5 14,14.1642136 14,13.75 C14,13.4223681 14.2114453,13.1388627 14.5283942,13.036338 L14.637806,13.0090539 L14.75,13 L19.75,13 Z M9.75,13 C10.1642136,13 10.5,13.3357864 10.5,13.75 C10.5,14.0776319 10.2885547,14.3611373 9.97160582,14.463662 L9.86219399,14.4909461 L9.75,14.5 L4.75,14.5 C4.33578644,14.5 4,14.1642136 4,13.75 C4,13.4223681 4.21144533,13.1388627 4.52839418,13.036338 L4.63780601,13.0090539 L4.75,13 L9.75,13 Z M19.75,10 C20.1642136,10 20.5,10.3357864 20.5,10.75 C20.5,11.0776319 20.2885547,11.3611373 19.9716058,11.463662 L19.862194,11.4909461 L19.75,11.5 L14.75,11.5 C14.3357864,11.5 14,11.1642136 14,10.75 C14,10.4223681 14.2114453,10.1388627 14.5283942,10.036338 L14.637806,10.0090539 L14.75,10 L19.75,10 Z M9.75,10 C10.1642136,10 10.5,10.3357864 10.5,10.75 C10.5,11.0776319 10.2885547,11.3611373 9.97160582,11.463662 L9.86219399,11.4909461 L9.75,11.5 L4.75,11.5 C4.33578644,11.5 4,11.1642136 4,10.75 C4,10.4223681 4.21144533,10.1388627 4.52839418,10.036338 L4.63780601,10.0090539 L4.75,10 L9.75,10 Z M19.75,7 C20.1642136,7 20.5,7.33578644 20.5,7.75 C20.5,8.07763187 20.2885547,8.36113729 19.9716058,8.46366195 L19.862194,8.49094612 L19.75,8.5 L14.75,8.5 C14.3357864,8.5 14,8.16421356 14,7.75 C14,7.42236813 14.2114453,7.13886271 14.5283942,7.03633805 L14.637806,7.00905388 L14.75,7 L19.75,7 Z M9.75,7 C10.1642136,7 10.5,7.33578644 10.5,7.75 C10.5,8.07763187 10.2885547,8.36113729 9.97160582,8.46366195 L9.86219399,8.49094612 L9.75,8.5 L4.75,8.5 C4.33578644,8.5 4,8.16421356 4,7.75 C4,7.42236813 4.21144533,7.13886271 4.52839418,7.03633805 L4.63780601,7.00905388 L4.75,7 L9.75,7 Z" id="🌈-Color"></path>
        </g>
    </g>
</svg>