<svg width="24" height="24" viewBox="0 0 24 24" fill="none" xmlns="http://www.w3.org/2000/svg"><path d="M11.200 4.044 C 8.467 4.307,6.006 6.031,4.800 8.529 C 2.880 12.503,4.549 17.278,8.529 19.200 C 10.730 20.264,13.270 20.264,15.471 19.200 C 18.233 17.867,19.999 15.057,19.999 12.000 C 19.999 8.917,18.217 6.108,15.412 4.773 C 14.124 4.159,12.651 3.904,11.200 4.044 M12.686 5.042 C 14.238 5.199,15.639 5.834,16.793 6.902 C 17.782 7.817,18.558 9.192,18.841 10.529 C 19.093 11.723,19.019 13.072,18.639 14.211 C 18.054 15.963,16.783 17.427,15.125 18.258 C 11.887 19.881,7.938 18.752,6.039 15.660 C 4.538 13.217,4.688 10.083,6.416 7.787 C 7.877 5.846,10.272 4.797,12.686 5.042 M11.200 6.058 C 10.483 6.161,9.933 6.332,9.320 6.640 C 7.658 7.475,6.527 8.951,6.111 10.830 C 5.986 11.395,5.986 12.605,6.111 13.170 C 6.651 15.608,8.393 17.350,10.826 17.887 C 11.397 18.013,12.603 18.013,13.174 17.887 C 15.605 17.351,17.351 15.605,17.887 13.174 C 18.013 12.603,18.013 11.397,17.887 10.826 C 17.341 8.351,15.474 6.529,13.041 6.097 C 12.552 6.010,11.660 5.991,11.200 6.058 M12.750 10.510 L 12.740 13.500 12.000 13.500 L 11.260 13.500 11.250 10.510 L 11.239 7.520 12.000 7.520 L 12.761 7.520 12.750 10.510 M12.760 15.260 L 12.760 16.000 12.000 16.000 L 11.240 16.000 11.240 15.260 L 11.240 14.520 12.000 14.520 L 12.760 14.520 12.760 15.260 " fill="#222222" stroke="none" fill-rule="evenodd"></path></svg>