<?xml version="1.0" encoding="UTF-8"?>
<svg width="25px" height="24px" viewBox="0 0 25 24" version="1.1" xmlns="http://www.w3.org/2000/svg" xmlns:xlink="http://www.w3.org/1999/xlink">
    <title>275D0C8A-0FD2-419A-ABEE-0303C1C20004</title>
    <g id="Styles" stroke="none" stroke-width="1" fill="none" fill-rule="evenodd">
        <g id="Icons" transform="translate(-579.000000, -476.000000)">
            <g id="atoms/ico/24/add-24-copy-5" transform="translate(579.277778, 476.000000)">
                <path d="M5.39818221,1.75684232 L5.5,1.75 L13.5,1.75 C13.6760835,1.75 13.8386065,1.81357636 13.9582281,1.91096501 L14.0246182,1.97321757 L14.0793035,2.0421564 L18.9959902,6.95941927 C19.128911,7.07796604 19.2166928,7.23532289 19.2422612,7.4093705 L19.25,7.515625 L19.25,9.764 L19.3288181,9.77225595 C20.3073959,9.91121419 21.0840864,10.6855789 21.2265714,11.6630318 L21.2443725,11.8277469 L21.25,11.9873047 L21.25,16.0126953 C21.25,17.0828604 20.4949762,17.9797974 19.4895731,18.1988618 L19.3288181,18.2277441 L19.25,18.236 L19.25,21.5 C19.25,21.8453653 19.0169711,22.1359551 18.6994578,22.2232249 L18.6018178,22.2431577 L18.5,22.25 L5.5,22.25 C5.12009814,22.25 4.80647469,21.968035 4.75684232,21.6018178 L4.75,21.5 L4.75,18.236 L4.67118191,18.2277441 C3.69260411,18.0887858 2.91591358,17.3144211 2.77342863,16.3369682 L2.75562754,16.1722531 L2.75,16.0126953 L2.75,11.9873047 C2.75,10.9171396 3.50502384,10.0202026 4.51042692,9.80113819 L4.67118191,9.77225595 L4.75,9.763 L4.75,2.5 C4.75,2.15463468 4.9830289,1.86404489 5.30054223,1.77677511 L5.39818221,1.75684232 Z M17.75,18.25 L6.25,18.25 L6.25,20.75 L17.75,20.75 L17.75,18.25 Z M19.0126953,11.25 L4.9873047,11.25 C4.61525343,11.25 4.3057554,11.5284938 4.25675608,11.8875358 L4.25,11.9873047 L4.25,16.0126953 C4.25,16.3847466 4.52849376,16.6942446 4.8875358,16.7432439 L4.9873047,16.75 L19.0126953,16.75 C19.3847466,16.75 19.6942446,16.4715062 19.7432439,16.1124642 L19.75,16.0126953 L19.75,11.9873047 C19.75,11.5814306 19.4185694,11.25 19.0126953,11.25 Z M12.753,3.25 L6.25,3.25 L6.25,9.75 L17.75,9.75 L17.75,8.262 L13.5205947,8.25 C13.1428785,8.24865418 12.8310529,7.96857282 12.7805792,7.60438794 L12.7734403,7.50312581 L12.753,3.25 Z M14.258,4.342 L14.27,6.752 L16.675,6.759 L14.258,4.342 Z" id="🌈-Color" fill="#767676"></path>
                <path d="M19,9.75 C20.190864,9.75 21.1656449,10.6751616 21.2448092,11.8459512 L21.25,12 L21.25,16 C21.25,17.190864 20.3248384,18.1656449 19.1540488,18.2448092 L19,18.25 L5,18.25 C3.80913601,18.25 2.83435508,17.3248384 2.75519081,16.1540488 L2.75,16 L2.75,12 C2.75,10.809136 3.67516159,9.83435508 4.84595119,9.75519081 L5,9.75 L19,9.75 Z M19,11.25 L5,11.25 C4.62030423,11.25 4.30650904,11.5321539 4.25684662,11.8982294 L4.25,12 L4.25,16 C4.25,16.3796958 4.53215388,16.693491 4.89822944,16.7431534 L5,16.75 L19,16.75 C19.3796958,16.75 19.693491,16.4678461 19.7431534,16.1017706 L19.75,16 L19.75,12 C19.75,11.5857864 19.4142136,11.25 19,11.25 Z" id="Combined-Shape" fill="#3A8340" fill-rule="nonzero"></path>
                <polygon id="Path" fill="#3A8340" fill-rule="nonzero" points="8.5473633 11.9301758 7.7163086 11.9301758 7.61012214 12.1211261 8.748 13.953 7.50393905 15.8759434 7.6088867 16.0688477 8.4350586 16.0688477 8.54234544 16.0079923 9.261 14.806 9.98011546 16.0079923 10.0874023 16.0688477 10.918457 16.0688477 11.0246889 15.8779706 9.807 13.915 10.9344786 12.1216403 10.8286133 11.9301758 10.0083008 11.9301758 9.89985367 11.993013 9.287 13.06 8.65493239 11.9915056"></polygon>
                <path d="M12.2739259,12.0053711 L12.1489259,11.8803711 C12.0214494,11.8803711 11.8877858,11.8897912 11.74735,11.9088504 C11.6050547,11.9291751 11.4849572,11.952584 11.3857802,11.9794444 L11.2934571,12.1000977 L11.2934571,15.9438477 L11.4184571,16.0688477 L13.463379,16.0688477 L13.5868091,15.9635965 C13.6019052,15.8692455 13.6148864,15.7632328 13.6278079,15.6329417 L13.6457088,15.4075188 C13.6478131,15.3745962 13.6494907,15.3437284 13.650761,15.3145117 L13.525879,15.1840821 L12.273,15.184 L12.2739259,12.0053711 Z" id="Path" fill="#3A8340" fill-rule="nonzero"></path>
                <path d="M15.2231445,11.8295899 C14.8872432,11.8295899 14.6069922,11.8805446 14.3808584,11.9845873 C14.1520375,12.0887912 13.9795866,12.2350295 13.8678544,12.4216224 C13.7586507,12.6028997 13.7045898,12.8134096 13.7045898,13.050293 C13.7045898,13.3708747 13.7862036,13.6324222 13.9527537,13.8300618 C14.1123703,14.0205383 14.3364252,14.1746418 14.6242863,14.2945839 L14.9442,14.4291825 C15.1021047,14.4940412 15.2255453,14.5531602 15.3103711,14.6038714 C15.3851389,14.6493869 15.4388708,14.6978624 15.4726537,14.7485368 C15.5028716,14.7938637 15.5190428,14.8546815 15.5190428,14.932129 C15.5190428,15.052109 15.4749289,15.1368278 15.3813458,15.1992165 C15.2745937,15.2698487 15.1193294,15.307129 14.913574,15.307129 C14.7583749,15.307129 14.5968845,15.2877778 14.4280095,15.2488067 C14.258522,15.2099079 14.1088599,15.1558378 13.9780591,15.0863782 L13.7985186,15.1650814 C13.7713111,15.2688731 13.7514284,15.3719017 13.738758,15.4732654 C13.7271204,15.5747712 13.7193007,15.685004 13.7153978,15.8050194 L13.7794849,15.9182731 C13.9189235,15.9959756 14.0893191,16.0565896 14.2936843,16.102004 C14.4982105,16.1474542 14.7045602,16.1704103 14.913574,16.1704103 C15.2484422,16.1704103 15.5352601,16.1174593 15.7743772,16.0100146 C16.0166963,15.9017218 16.2027705,15.7480676 16.32865,15.5499443 C16.453699,15.3542162 16.5161131,15.1307247 16.5161131,14.8823244 C16.5161131,14.5562608 16.4244075,14.288855 16.2390748,14.0868755 C16.0615416,13.8933962 15.821172,13.739528 15.5195139,13.6248566 L15.1831466,13.4951831 C15.051784,13.4461457 14.950106,13.3987418 14.8792381,13.3544494 C14.8163961,13.3156558 14.7721758,13.2723491 14.7427143,13.2227677 C14.7162175,13.1763618 14.7016601,13.1135832 14.7016601,13.0336914 C14.7016601,12.9285278 14.7384997,12.8508659 14.8169737,12.7892078 C14.9001608,12.722516 15.0454657,12.6860352 15.2563476,12.6860352 C15.3810517,12.6860352 15.5198685,12.6994766 15.6734065,12.7261789 C15.8230348,12.7531328 15.9666459,12.7931404 16.1048216,12.8465684 L16.2717217,12.7579989 C16.2947143,12.6580309 16.3138886,12.558375 16.3290981,12.4600209 C16.3444334,12.3661197 16.3558668,12.2619762 16.3644227,12.1432631 L16.2862351,12.0182439 C15.971521,11.8921532 15.6170805,11.8295899 15.2231445,11.8295899 Z" id="Path" fill="#3A8340" fill-rule="nonzero"></path>
            </g>
        </g>
    </g>
</svg>