<svg xmlns="http://www.w3.org/2000/svg" xmlns:xlink="http://www.w3.org/1999/xlink" width="74" height="74"><path d="M14.060 37.000 L 14.060 63.023 32.930 63.023 L 51.800 63.023 51.800 61.852 L 51.800 60.681 34.071 60.650 L 16.342 60.618 16.342 37.000 L 16.342 13.382 29.259 13.350 L 42.177 13.319 42.209 17.605 L 42.242 21.892 46.466 21.924 L 50.690 21.957 50.690 29.170 L 50.690 36.383 51.862 36.383 L 53.033 36.383 53.033 28.334 L 53.033 20.285 48.460 15.631 L 43.886 10.977 28.973 10.977 L 14.060 10.977 14.060 37.000 M45.945 16.434 C 46.622 17.129,47.563 18.101,48.036 18.593 L 48.895 19.487 46.709 19.487 L 44.523 19.487 44.523 17.328 C 44.523 16.141,44.566 15.170,44.618 15.170 C 44.670 15.170,45.267 15.739,45.945 16.434 M23.063 27.503 L 23.063 28.983 33.547 28.983 L 44.030 28.983 44.030 27.503 L 44.030 26.023 33.547 26.023 L 23.063 26.023 23.063 27.503 M23.063 37.493 L 23.063 38.973 27.997 38.973 L 32.930 38.973 32.930 37.493 L 32.930 36.013 27.997 36.013 L 23.063 36.013 23.063 37.493 M47.607 37.374 C 46.681 37.501,44.933 38.023,44.215 38.386 C 41.717 39.649,39.611 42.080,38.742 44.701 C 36.406 51.746,41.614 58.953,49.041 58.953 C 54.236 58.953,58.689 55.257,59.658 50.139 C 59.911 48.804,59.814 46.399,59.460 45.202 C 58.121 40.679,54.220 37.574,49.562 37.325 C 48.928 37.291,48.048 37.313,47.607 37.374 M51.183 39.770 C 54.181 40.576,56.705 43.162,57.409 46.147 C 57.673 47.269,57.649 49.089,57.354 50.243 C 56.576 53.286,54.149 55.712,51.106 56.491 C 49.160 56.988,46.959 56.731,45.024 55.780 C 44.324 55.436,43.827 55.059,43.031 54.270 C 41.254 52.508,40.446 50.656,40.420 48.285 C 40.403 46.755,40.590 45.861,41.198 44.554 C 42.462 41.835,44.878 40.034,47.915 39.547 C 48.541 39.446,50.468 39.578,51.183 39.770 M48.794 43.595 C 47.916 43.907,47.282 44.684,46.881 45.937 L 46.682 46.558 46.065 46.620 C 45.506 46.676,45.448 46.710,45.448 46.990 C 45.448 47.270,45.502 47.302,46.034 47.336 L 46.620 47.374 46.620 47.915 L 46.620 48.456 46.108 48.494 C 45.112 48.568,45.178 49.333,46.180 49.333 L 46.697 49.333 46.911 50.043 C 47.386 51.617,48.374 52.417,49.846 52.417 C 51.483 52.417,53.184 51.099,52.281 50.530 C 52.130 50.436,51.903 50.517,51.330 50.871 C 50.418 51.433,49.712 51.544,49.087 51.221 C 48.655 50.997,48.195 50.322,48.034 49.672 L 47.950 49.333 48.857 49.331 C 49.897 49.329,50.112 49.239,50.053 48.826 C 50.013 48.545,49.964 48.530,48.933 48.496 L 47.853 48.460 47.853 47.915 L 47.853 47.370 48.933 47.334 C 49.992 47.299,50.012 47.293,50.012 46.990 C 50.012 46.689,49.988 46.681,48.994 46.646 C 47.843 46.605,47.809 46.564,48.210 45.695 C 48.669 44.700,49.435 44.319,50.455 44.578 C 50.760 44.656,51.207 44.869,51.447 45.053 C 51.968 45.450,52.369 45.484,52.478 45.140 C 52.606 44.738,52.453 44.485,51.832 44.070 C 50.859 43.420,49.764 43.249,48.794 43.595 M23.063 48.470 L 23.063 49.950 25.530 49.950 L 27.997 49.950 27.997 48.470 L 27.997 46.990 25.530 46.990 L 23.063 46.990 23.063 48.470 " stroke="none" fill-rule="evenodd" fill="black"></path></svg>