<svg width="39" height="39" viewBox="0 0 39 39" fill="none" xmlns="http://www.w3.org/2000/svg">
<path fill-rule="evenodd" clip-rule="evenodd" d="M30.7401 8.00925C24.4035 1.6727 14.0949 1.6727 7.75995 8.00925C4.69006 11.0783 3 15.1599 3 19.5001C3 23.8403 4.69006 27.9218 7.75995 30.9909C10.9274 34.1584 15.0891 35.7422 19.25 35.7422C23.4109 35.7422 27.5726 34.1584 30.7401 30.9909C33.8099 27.9218 35.5 23.8403 35.5 19.5001C35.5 15.1599 33.8099 11.0783 30.7401 8.00925ZM8.90887 9.15817C11.7598 6.30649 15.5049 4.88144 19.25 4.88144C22.9951 4.88144 26.7402 6.30649 29.5911 9.15817C32.3539 11.921 33.875 15.5931 33.875 19.5001C33.875 23.4071 32.3539 27.0792 29.5911 29.842C23.8893 35.5454 14.6107 35.5454 8.90887 29.842C6.14606 27.0792 4.625 23.4071 4.625 19.5001C4.625 15.5931 6.14606 11.921 8.90887 9.15817Z" fill="#767676"/>
<path d="M23.2468 21.0002C23.6955 20.9915 24.0662 21.3482 24.0748 21.7968C24.1292 24.6127 21.912 26.9501 19.0549 27.0449C17.6947 27.0196 16.4009 26.4522 15.461 25.4687C14.6777 24.6491 14.1942 23.5971 14.0757 22.4822L14.0514 22.13C14.0183 22.0418 14.0002 21.9463 14 21.8466C13.9993 21.4823 14.2384 21.1736 14.5685 21.0698C14.6655 21.033 14.7719 21.0136 14.8829 21.0165C14.9317 21.0178 14.9793 21.0234 15.0254 21.0329L23.0994 21.0164C23.1471 21.0067 23.1964 21.0011 23.2468 21.0002Z" fill="#767676"/>
<path d="M12.3187 14C13.426 14.0061 14.3775 14.7875 14.5988 15.8725C14.6884 16.3122 14.4047 16.7413 13.965 16.8309C13.5742 16.9106 13.1917 16.6953 13.0486 16.3376L12.9711 16.0775C12.8655 15.8096 12.6059 15.6266 12.3099 15.625C12.0138 15.6234 11.7522 15.8036 11.6437 16.0702L11.5634 16.3296C11.4164 16.6856 11.0316 16.8968 10.6417 16.8129C10.203 16.7184 9.92393 16.2863 10.0184 15.8476C10.2514 14.765 11.2113 13.994 12.3187 14Z" fill="#767676"/>
<path d="M26.381 14C27.5486 14.0588 28.51 14.9384 28.6722 16.0963C28.7345 16.5406 28.4247 16.9514 27.9803 17.0136C27.5853 17.069 27.2169 16.8303 27.0962 16.4645L27.0307 16.1817C26.929 15.8667 26.6501 15.6401 26.3821 15.6229C26.0392 15.6406 25.7503 15.8706 25.6496 16.1885L25.5866 16.4729C25.4696 16.8399 25.1036 17.0823 24.7081 17.031C24.263 16.9732 23.9491 16.5657 24.0068 16.1207C24.1583 14.9533 25.1225 14.0609 26.381 14Z" fill="#767676"/>
</svg>
