<?xml version="1.0" encoding="utf-8"?>
<!-- Generator: Adobe Illustrator 23.0.4, SVG Export Plug-In . SVG Version: 6.00 Build 0)  -->
<svg version="1.1" xmlns="http://www.w3.org/2000/svg" xmlns:xlink="http://www.w3.org/1999/xlink" x="0px" y="0px"
	 viewBox="0 0 100 100" style="enable-background:new 0 0 100 100;" xml:space="preserve">
<style type="text/css">
	.st0{display:none;}
	.st1{fill:#FFFFFF;stroke:#D92A1E;stroke-width:2;stroke-miterlimit:10;}
	.st2{fill:#FFFFFF;}
	.st3{fill:#D92A1E;}
	.st4{fill:#D92A1E;stroke:#D92A1E;stroke-width:0.25;stroke-miterlimit:10;}
	.st5{fill:#D52E29;}
	.st6{fill:none;stroke:#D52E29;stroke-width:2;stroke-miterlimit:10;}
	.st7{filter:url(#Adobe_OpacityMaskFilter);}
	.st8{fill-rule:evenodd;clip-rule:evenodd;fill:#FFFFFF;}
	.st9{mask:url(#b_1_);fill-rule:evenodd;clip-rule:evenodd;fill:#E41713;}
	.st10{fill-rule:evenodd;clip-rule:evenodd;fill:#E41713;}
	.st11{filter:url(#Adobe_OpacityMaskFilter_1_);}
	.st12{mask:url(#d_3_);fill-rule:evenodd;clip-rule:evenodd;fill:#E41713;}
	.st13{filter:url(#Adobe_OpacityMaskFilter_2_);}
	.st14{mask:url(#d_1_);fill-rule:evenodd;clip-rule:evenodd;fill:#E41713;}
	.st15{fill:none;stroke:#DA2A1E;stroke-width:2;stroke-miterlimit:10;}
	.st16{fill:#DA2A1E;}
	.st17{fill-rule:evenodd;clip-rule:evenodd;fill:#DA2A1E;stroke:#DB2A1E;stroke-miterlimit:10;}
	.st18{fill-rule:evenodd;clip-rule:evenodd;fill:none;stroke:#DA2A1E;stroke-miterlimit:10;}
	.st19{fill-rule:evenodd;clip-rule:evenodd;fill:#DA2A1E;}
	.st20{fill-rule:evenodd;clip-rule:evenodd;fill:#991914;}
	.st21{fill-rule:evenodd;clip-rule:evenodd;fill:#DB2A1E;}
	.st22{fill-rule:evenodd;clip-rule:evenodd;fill:#EE706C;}
	.st23{fill:#E41513;}
	.st24{fill:#E41713;}
</style>
<g id="Capa_1" class="st0">
</g>
<g id="Capa_3" class="st0">
</g>
<g id="Capa_2">
	<g>
		<g>
			<path class="st10" d="M16.3,12.9v74.2h53.9v-3.4H19.7V16.3h33.9l3,0v12.1h12v20.7h3.3V31.6l0-5.5l-13-13.1h-0.7v0H16.3z
				 M59.9,18.7l6.3,6.4h-6.3V18.7L59.9,18.7z"/>
		</g>
	</g>
	<g>
		<g>
			<polygon class="st24" points="33.8,61.4 33.8,61.4 33.8,61.4 			"/>
			<path class="st24" d="M59.3,61.6C59.3,61.6,59.3,61.6,59.3,61.6C59.3,61.6,59.3,61.6,59.3,61.6L59.3,61.6z"/>
			<path class="st24" d="M78.7,70.1L78.7,70.1L78.6,70L62.8,55.8c0.9-2.4,1.4-5.1,1.3-8c-0.3-5.3-2.6-9.9-6.3-13.2
				c-3.6-3.3-8.5-5.1-13.8-4.8c-5.3,0.3-9.9,2.7-13.2,6.3c-3.2,3.5-5.1,8.3-4.8,13.5c0,0.1,0,0.2,0,0.2c0,0,0,0,0,0c0,0,0,0,0,0
				c0.6,10.5,9.5,18.5,20,18c0,0,0,0,0,0c2.9-0.2,5.5-1,7.9-2.2l-0.1,0.1l15.8,14.2c1.3,1.2,3,1.9,4.9,1.8c3.7-0.2,6.5-3.3,6.3-7
				C80.7,72.8,79.9,71.2,78.7,70.1z M53.1,61.8L53.1,61.8c-0.2,0.1-0.3,0.2-0.4,0.3c-2,1.1-4.4,1.9-6.9,2c-4.3,0.2-8.3-1.3-11.3-3.9
				l0,0c-3-2.7-4.9-6.5-5.1-10.8c-0.2-4.3,1.3-8.3,4-11.3l0,0c2.7-2.9,6.5-4.9,10.8-5.1c4.3-0.2,8.3,1.3,11.3,3.9l0,0
				c3,2.7,4.9,6.5,5.2,10.8c0.1,2.6-0.4,5-1.3,7.2l0-0.1c-0.1,0.1-0.1,0.2-0.1,0.3c0,0,0,0,0,0c-0.7,1.5-1.6,2.7-2.6,3.9l0,0
				C55.6,60,54.4,61,53.1,61.8z M55.9,64.6c1.2-1,2.3-2,3.3-3c0.9-1.1,1.8-2.2,2.5-3.5l0-0.1l3,2.7L59,67.3L55.9,64.6z M77.4,77.9
				L77.4,77.9c-0.8,0.8-1.8,1.4-3,1.4c-1.2,0.1-2.3-0.4-3.2-1.1l0,0l-10.6-9.5l5.9-6.6l10.5,9.5c0.9,0.7,1.5,1.8,1.5,3.1
				C78.7,75.9,78.2,77.1,77.4,77.9z"/>
		</g>
	</g>
</g>
</svg>
