<svg xmlns="http://www.w3.org/2000/svg" xmlns:xlink="http://www.w3.org/1999/xlink" width="24px" height="24px" viewBox="0 0 24 24" version="1.1">
    <title>Atoms/ico/normal size/file_doc-24</title>
    <g id="Atoms/ico/normal-size/file_doc-24" stroke="none" stroke-width="1" fill="none" fill-rule="evenodd">
        <g id="Group" fill="#EC0000">
            <path d="M13.4765625,2 C13.4803467,2 13.4837036,2.0021362 13.4874878,2.0021973 C13.491211,2.0020752 13.4943238,2 13.5,2 C13.6694946,2 13.8120728,2.0899048 13.9025268,2.2189331 L13.9025268,2.2189331 L18.8295898,7.1459961 C18.932312,7.2376099 19,7.3671875 19,7.515625 L19,7.515625 L19,10 L19.0126953,10 C20.1083984,10 21,10.8916016 21,11.9873047 L21,11.9873047 L21,16.0126953 C21,17.1083984 20.1083984,18 19.0126953,18 L19.0126953,18 L19,18 L19,21.5 C19,21.7763672 18.7763672,22 18.5,22 L18.5,22 L5.5,22 C5.2236328,22 5,21.7763672 5,21.5 L5,21.5 L5,18 L4.9873047,18 C3.8916016,18 3,17.1083984 3,16.0126953 L3,16.0126953 L3,11.9873047 C3,10.8916016 3.8916016,10 4.9873047,10 L4.9873047,10 L5,10 L5,2.5 C5,2.2236328 5.2236328,2 5.5,2 L5.5,2 Z M18,18 L6,18 L6,21 L18,21 L18,18 Z M19.0126953,11 L4.9873047,11 C4.4433594,11 4,11.4433594 4,11.9873047 L4,11.9873047 L4,16.0126953 C4,16.5566406 4.4433594,17 4.9873047,17 L4.9873047,17 L19.0126953,17 C19.5566406,17 20,16.5566406 20,16.0126953 L20,16.0126953 L20,11.9873047 C20,11.4433594 19.5566406,11 19.0126953,11 L19.0126953,11 Z M12.2294922,11.9545898 C12.6074219,11.9545898 12.9296875,12.0375976 13.1953125,12.2045898 C13.4619141,12.371582 13.6630859,12.6079102 13.7998047,12.9155273 C13.9365234,13.2221679 14.0048828,13.5834961 14.0048828,13.9995117 C14.0048828,14.4272461 13.9355469,14.793457 13.796875,15.1010742 C13.6582031,15.4086914 13.4560547,15.6420898 13.1904297,15.8032226 C12.9238282,15.9643554 12.6074219,16.0454101 12.2402344,16.0454101 C11.866211,16.0454101 11.5458985,15.9624023 11.2792969,15.7973632 C11.0136719,15.6333007 10.8115235,15.3969726 10.6728516,15.0893554 C10.5341797,14.7827147 10.4648438,14.4194335 10.4648438,13.9995116 C10.4648438,13.5766601 10.5351563,13.2124023 10.6757813,12.9067382 C10.8164063,12.6020507 11.0185547,12.3666992 11.2822266,12.2016601 C11.546875,12.036621 11.8623047,11.9545898 12.2294922,11.9545898 Z M16.2626954,11.9545899 C16.6230469,11.9545899 16.9189454,12.0122071 17.1503907,12.128418 C17.147461,12.3725587 17.1152344,12.5786133 17.0556641,12.7465821 C16.9580078,12.6977539 16.8447265,12.659668 16.7158203,12.6313477 C16.5859375,12.6030274 16.4541015,12.5893555 16.3193359,12.5893555 C16.0761719,12.5893555 15.8681641,12.6430664 15.6953125,12.7495117 C15.5234375,12.855957 15.3916016,13.0141604 15.2998047,13.2241213 C15.2080078,13.4340822 15.1621094,13.6909181 15.1621094,13.9936525 C15.1621094,14.2934572 15.2099609,14.5493165 15.3046875,14.7612306 C15.4003906,14.9731447 15.5351562,15.133301 15.7099609,15.2416994 C15.883789,15.3500978 16.0849609,15.4047853 16.3134765,15.4047853 C16.4746094,15.4047853 16.6240234,15.3881837 16.7626953,15.3569337 C16.9013672,15.3247072 17.0253907,15.2807619 17.1337891,15.2250978 C17.1035156,15.5053713 17.0664063,15.73584 17.0214844,15.9155275 C16.7558594,16.001465 16.4990235,16.0454103 16.2519532,16.0454103 C15.8623048,16.0454103 15.529297,15.9594728 15.2519532,15.7895509 C14.9746095,15.6186524 14.7626954,15.3793946 14.6171876,15.0698243 C14.4707032,14.7612305 14.397461,14.400879 14.397461,13.9887696 C14.397461,13.5766602 14.4726563,13.2182618 14.6220704,12.9125977 C14.772461,12.6069337 14.9873048,12.3715821 15.2685548,12.2045899 C15.5498048,12.0375977 15.8808595,11.9545899 16.2626954,11.9545899 Z M8.1044922,11.9545898 C8.7792969,11.9545898 9.2753907,12.1342773 9.5937501,12.4936523 C9.9121095,12.8530273 10.0712892,13.3422851 10.0712892,13.9604492 C10.0712892,14.3803711 9.998047,14.737793 9.8525392,15.0336914 C9.7060548,15.3295898 9.4892579,15.5551758 9.2001954,15.7104492 C8.9121094,15.8657226 8.5546876,15.9438476 8.1269532,15.9438476 L8.1269532,15.9438476 L6.9697266,15.9438476 L6.9697266,12.0610351 C7.2958984,11.989746 7.6738281,11.9545898 8.1044922,11.9545898 Z M12.2294922,12.5893555 C11.8994141,12.5893555 11.6503907,12.7094727 11.4824219,12.9487305 C11.3134766,13.1889648 11.2294922,13.5385742 11.2294922,13.9995117 C11.2294922,14.456543 11.3154297,14.8051758 11.4873047,15.0444336 C11.6601563,15.284668 11.9111328,15.4047852 12.2402344,15.4047852 C12.5742188,15.4047852 12.8251953,15.2866211 12.9931641,15.050293 C13.1621094,14.8149414 13.2460938,14.4643555 13.2460938,13.9995118 C13.2460938,13.5424805 13.1591797,13.1938477 12.9853516,12.9516602 C12.8105469,12.7104493 12.5585938,12.5893555 12.2294922,12.5893555 Z M8.1103515,12.5834961 C7.9609375,12.5834961 7.8242187,12.5913086 7.7001953,12.605957 L7.7001953,12.605957 L7.7001953,15.3149414 L8.1445313,15.3149414 C8.5449219,15.3149414 8.8388672,15.2036133 9.0263672,14.9799805 C9.2138672,14.7573242 9.3076172,14.4174805 9.3076172,13.9604492 C9.3076172,13.5073242 9.2109375,13.1645508 9.0175781,12.9321289 C8.8251953,12.699707 8.5224609,12.5834961 8.1103515,12.5834961 Z M13.0023193,3 L6,3 L6,10 L18,10 L18,8.0136719 L13.5214844,8 C13.2470703,7.9990234 13.0244141,7.7773438 13.0234375,7.5019531 L13.0234375,7.5019531 L13.0023193,3 Z M14.0059204,3.7363892 L14.0214844,7.0019532 L17.2814331,7.0119019 L14.0059204,3.7363892 Z" id="🌈-Color"/>
        </g>
    </g>
</svg>
