<?xml version="1.0" encoding="UTF-8"?>
<svg width="18px" height="19px" viewBox="0 0 18 19" version="1.1" xmlns="http://www.w3.org/2000/svg" xmlns:xlink="http://www.w3.org/1999/xlink">
    <title>atoms/ico/24/lock-24  </title>
    <g id="MVP-1" stroke="none" stroke-width="1" fill="none" fill-rule="evenodd">
        <g id="Desktop_Client-Hub-Store_MyWorkplace_04" transform="translate(-1276.000000, -355.000000)" fill="#767676">
            <g id="Group-3" transform="translate(48.000000, 152.000000)">
                <g id="Group" transform="translate(660.000000, 162.000000)">
                    <g id="Group-12" transform="translate(545.000000, 14.000000)">
                        <g id="atoms/ico/24/lock-24--" transform="translate(22.000000, 27.000000)">
                            <path d="M10,0.833333333 C12.5313051,0.833333333 14.5833333,2.86177503 14.5833333,5.36398467 L14.5833333,5.36398467 L14.583,9.37433333 L15.8333333,9.375 C17.0462504,9.375 18.0390828,10.3172942 18.1197131,11.5097651 L18.125,11.6666667 L18.125,14.1666667 C18.125,16.8130311 15.9796978,18.9583333 13.3333333,18.9583333 L13.3333333,18.9583333 L6.66666667,18.9583333 C4.02030224,18.9583333 1.875,16.8130311 1.875,14.1666667 L1.875,14.1666667 L1.875,11.6666667 C1.875,10.4010141 2.90101411,9.375 4.16666667,9.375 L4.16666667,9.375 L5.416,9.37433333 L5.41666667,5.36398467 L5.420306,5.18176423 C5.51705072,2.76403334 7.53043405,0.833333333 10,0.833333333 Z M15.8333333,10.625 L4.16666667,10.625 C3.59137005,10.625 3.125,11.0913701 3.125,11.6666667 L3.125,11.6666667 L3.125,14.1666667 C3.125,16.1226752 4.71065818,17.7083333 6.66666667,17.7083333 L6.66666667,17.7083333 L13.3333333,17.7083333 C15.2893418,17.7083333 16.875,16.1226752 16.875,14.1666667 L16.875,14.1666667 L16.875,11.6666667 C16.875,11.0913701 16.4086299,10.625 15.8333333,10.625 L15.8333333,10.625 Z M7.39583333,14.1666667 C7.68371583,14.1666667 7.91666667,14.4462077 7.91666667,14.7916667 C7.91666667,15.1371257 7.68371583,15.4166667 7.39583333,15.4166667 L7.39583333,15.4166667 L6.35416667,15.4166667 C6.06628417,15.4166667 5.83333333,15.1371257 5.83333333,14.7916667 C5.83333333,14.4462077 6.06628417,14.1666667 6.35416667,14.1666667 L6.35416667,14.1666667 Z M10.7291667,14.1666667 C11.0170492,14.1666667 11.25,14.4462077 11.25,14.7916667 C11.25,15.1371257 11.0170492,15.4166667 10.7291667,15.4166667 L10.7291667,15.4166667 L9.6875,15.4166667 C9.3996175,15.4166667 9.16666667,15.1371257 9.16666667,14.7916667 C9.16666667,14.4462077 9.3996175,14.1666667 9.6875,14.1666667 L9.6875,14.1666667 Z M14.0625,14.1666667 C14.3503825,14.1666667 14.5833333,14.4462077 14.5833333,14.7916667 C14.5833333,15.1371257 14.3503825,15.4166667 14.0625,15.4166667 L14.0625,15.4166667 L13.0208333,15.4166667 C12.7329508,15.4166667 12.5,15.1371257 12.5,14.7916667 C12.5,14.4462077 12.7329508,14.1666667 13.0208333,14.1666667 L13.0208333,14.1666667 Z M10,2.30842912 C8.29284074,2.30842912 6.90891473,3.67644794 6.90891473,5.36398467 L6.90891473,5.36398467 L6.908,9.37433333 L13.091,9.37433333 L13.0910853,5.36398467 L13.0868006,5.20170732 C13.0014634,3.5896122 11.6520896,2.30842912 10,2.30842912 Z" id="Combined-Shape"></path>
                        </g>
                    </g>
                </g>
            </g>
        </g>
    </g>
</svg>