<!-- Generated by IcoMoon.io -->
<svg version="1.1" xmlns="http://www.w3.org/2000/svg" width="32" height="32" viewBox="0 0 32 32">
<title>dragg</title>
<path d="M14.592 17.44h-9.344l1.824 1.824c0.256 0.256 0.416 0.608 0.416 0.992 0 0.8-0.64 1.44-1.408 1.44-0.384 0-0.736-0.16-0.992-0.416l-4.288-4.256c-0.256-0.256-0.416-0.608-0.416-1.024s0.16-0.736 0.416-0.992l4.256-4.256c0.256-0.256 0.608-0.416 0.992-0.416 0.8 0 1.44 0.64 1.44 1.408 0 0.416-0.16 0.768-0.416 1.024v0l-1.824 1.824h9.344v-9.344l-1.824 1.824c-0.256 0.256-0.608 0.416-0.992 0.416-0.8 0-1.44-0.64-1.44-1.408 0-0.384 0.16-0.768 0.416-1.024l4.256-4.256c0.256-0.256 0.608-0.416 1.024-0.416s0.736 0.16 0.992 0.416l4.256 4.256c0.256 0.256 0.416 0.608 0.416 0.992 0 0.8-0.64 1.44-1.408 1.44-0.416 0-0.768-0.16-1.024-0.416v0l-1.824-1.824v9.344h9.344l-1.824-1.824c-0.256-0.256-0.416-0.608-0.416-1.024 0-0.768 0.64-1.408 1.408-1.408 0.384 0 0.736 0.16 0.992 0.416l4.288 4.256c0.256 0.256 0.416 0.608 0.416 0.992s-0.16 0.768-0.416 1.024l-4.256 4.256c-0.256 0.256-0.608 0.416-0.992 0.416-0.8 0-1.44-0.64-1.44-1.44 0-0.384 0.16-0.736 0.416-0.992l1.856-1.824h-9.376v9.344l1.824-1.824c0.256-0.256 0.608-0.416 1.024-0.416 0.768 0 1.408 0.608 1.408 1.408 0 0.384-0.16 0.736-0.416 0.992l-4.256 4.288c-0.256 0.256-0.608 0.416-0.992 0.416s-0.768-0.16-1.024-0.416l-4.256-4.256c-0.256-0.256-0.416-0.608-0.416-1.024 0-0.768 0.64-1.408 1.44-1.408 0.384 0 0.736 0.16 0.992 0.416l1.824 1.824z"></path>
</svg>
