<?xml version="1.0" encoding="UTF-8"?>
<svg width="24px" height="24px" viewBox="0 0 24 24" version="1.1" xmlns="http://www.w3.org/2000/svg" xmlns:xlink="http://www.w3.org/1999/xlink">
    <title>1CCEB476-810A-463D-AE67-DDC815BBC8EE</title>
    <g id="Confirming---MVP01-V02" stroke="none" stroke-width="1" fill="none" fill-rule="evenodd">
        <g id="02A" transform="translate(-71.000000, -377.000000)" fill="#EC0000">
            <g id="KPIS-top" transform="translate(48.000000, 226.000000)">
                <g id="Group-20" transform="translate(23.000000, 151.000000)">
                    <g id="Group" transform="translate(12.000000, 12.000000) scale(-1, 1) translate(-12.000000, -12.000000) ">
                        <path d="M21.5,19 C21.7763672,19 22,19.2236328 22,19.5 C22,19.7763672 21.7763672,20 21.5,20 L21.5,20 L2.5,20 C2.2236328,20 2,19.7763672 2,19.5 C2,19.2236328 2.2236328,19 2.5,19 L2.5,19 Z M20,4 C21.1030273,4 22,4.8974609 22,6 C22,7.1025391 21.1030273,8 20,8 C19.6931763,8 19.4033203,7.9261475 19.1372681,7.7971802 L19.1372681,7.7971802 L16.3674317,10.9503784 C16.5599976,11.2598877 16.6699219,11.6188354 16.6699219,12 C16.6699219,13.1025391 15.7729492,14 14.6699219,14 C13.5668946,14 12.6699219,13.1025391 12.6699219,12 C12.6699219,11.7558594 12.7247925,11.5259399 12.8068847,11.3069458 L12.8068847,11.3069458 L10.5736694,9.5587769 C10.2271728,9.8397827 9.7946777,10 9.3300781,10 C9.0045776,10 8.6923828,9.9135132 8.4106446,9.7648316 L8.4106446,9.7648316 L5.6192017,12.8356934 C5.8563843,13.1644287 6,13.5646973 6,14 C6,15.1025391 5.1030273,16 4,16 C2.8969727,16 2,15.1025391 2,14 C2,12.8974609 2.8969727,12 4,12 C4.3048096,12 4.5906372,12.0739136 4.8493653,12.1963501 L4.8493653,12.1963501 L7.6668091,9.0968628 C7.4547119,8.7780151 7.3300781,8.3986206 7.3300781,8 C7.3300781,6.8974609 8.2270508,6 9.3300781,6 C10.4331054,6 11.3300781,6.8974609 11.3300781,8 C11.3300781,8.263855 11.2623901,8.5127563 11.1629638,8.7505492 L11.1629638,8.7505492 L13.3845825,10.489746 C14.0047607,9.9888915 14.9298096,9.8979492 15.6364746,10.267456 L15.6364746,10.267456 L18.3751831,7.1497192 C18.1367798,6.8134155 18,6.4156494 18,6 C18,4.8974609 18.8969727,4 20,4 Z M4,13 C3.4487305,13 3,13.4482422 3,14 C3,14.5517578 3.4487305,15 4,15 C4.5512695,15 5,14.5517578 5,14 C5,13.4482422 4.5512695,13 4,13 Z M14.6699219,11 C14.3339844,11 14.0332031,11.1601562 13.8447266,11.4394531 C13.7280274,11.6044922 13.6699219,11.7949219 13.6699219,12 C13.6699219,12.5517578 14.1186524,13 14.6699219,13 C15.2211914,13 15.6699219,12.5517578 15.6699219,12 C15.6699219,11.7265625 15.5644531,11.4746094 15.3725586,11.2890625 C15.1835938,11.1005859 14.9360352,11 14.6699219,11 Z M9.3300781,7 C8.7788086,7 8.3300781,7.4482422 8.3300781,8 C8.3300781,8.2841797 8.449707,8.5517578 8.6586914,8.7333984 C9.0947266,9.1337891 9.7929688,9.0517578 10.1264648,8.5947266 C10.2617187,8.4160156 10.3300781,8.2128906 10.3300781,8 C10.3300781,7.4482422 9.8813476,7 9.3300781,7 Z M20,5 C19.4487305,5 19,5.4482422 19,6 C19,6.2929688 19.1323242,6.5732422 19.3637695,6.7695312 C19.5419922,6.9199219 19.762207,7 20,7 C20.5512695,7 21,6.5517578 21,6 C21,5.4482422 20.5512695,5 20,5 Z" id="🌈-Color"></path>
                    </g>
                </g>
            </g>
        </g>
    </g>
</svg>