<svg width="24" height="24" viewBox="0 0 24 24" fill="none" xmlns="http://www.w3.org/2000/svg">
<path d="M2 5.028V14.4901C2 16.1612 3.35486 17.5161 5.026 17.5161L9.878 17.516L9.104 20.999L8.5049 20.9998L8.41502 21.0079C8.18178 21.0502 8.0049 21.2543 8.0049 21.4998C8.0049 21.7759 8.22876 21.9998 8.5049 21.9998H15.5049L15.5948 21.9917C15.828 21.9494 16.0049 21.7453 16.0049 21.4998L15.9968 21.4099C15.9545 21.1767 15.7504 20.9998 15.5049 20.9998L14.906 20.999L14.132 17.516L18.971 17.5161C20.644 17.5161 22 16.1604 22 14.4881V5.026L21.9949 4.84821C21.9028 3.25981 20.5855 2 18.974 2H5.028L4.8501 2.00514C3.26074 2.09725 2 3.41558 2 5.028ZM13.503 6.83155L12.2505 4.55132C12.155 4.37742 12.089 4.19109 12.0523 4L12 4.09529C11.69 4.65971 11.69 5.35497 12 5.91939L13.002 7.74366C13.312 8.30802 13.312 9.00339 13.002 9.56781L12.9497 9.6631C12.913 9.47202 12.847 9.28569 12.7515 9.11179L11.2485 6.37547C11.153 6.20157 11.087 6.01524 11.0503 5.82415L10.998 5.91945C10.6891 6.48196 10.6881 7.17448 10.995 7.73789L12 9.56781C12.31 10.1322 12.31 10.8275 12 11.392L11.9477 11.4873C11.911 11.2962 11.845 11.1098 11.7495 10.936L10.497 8.65571C10.329 8.3499 10.2523 8.00563 10.2663 7.66455C8.92547 8.03278 8 8.8146 8 9.71982C8 10.9791 9.79086 12 12 12C14.2091 12 16 10.9791 16 9.71982C16 8.81455 15.0746 8.0325 13.7337 7.66432C13.7218 7.37604 13.645 7.09005 13.503 6.83155ZM10.903 17.516H13.107L13.882 20.999H10.128L10.903 17.516ZM21 14.0001V14.4881C21 15.6081 20.0917 16.5161 18.971 16.5161H5.026C3.90714 16.5161 3 15.609 3 14.4901V14.0001H21ZM5.028 3H18.974L19.1252 3.00556C20.1735 3.0829 21 3.958 21 5.026V13H3V5.028L3.00556 4.87667C3.083 3.82746 3.95905 3 5.028 3Z" fill="#EC0000"/>
</svg>
