<svg xmlns:dc="http://purl.org/dc/elements/1.1/" xmlns:cc="http://creativecommons.org/ns#" xmlns:rdf="http://www.w3.org/1999/02/22-rdf-syntax-ns#" xmlns:svg="http://www.w3.org/2000/svg" xmlns="http://www.w3.org/2000/svg" xmlns:xlink="http://www.w3.org/1999/xlink" xmlns:sodipodi="http://sodipodi.sourceforge.net/DTD/sodipodi-0.dtd" xmlns:inkscape="http://www.inkscape.org/namespaces/inkscape" width="40" height="40" viewBox="0 0 40 40" version="1.1" id="svg32" sodipodi:docname="i-edit-circle.svg" inkscape:version="0.92.3 (2405546, 2018-03-11)"><path d="M19.167 1.506 C 17.329 1.643,15.804 1.932,14.300 2.429 C 11.351 3.403,8.967 4.879,6.767 7.094 C 3.747 10.134,1.945 13.882,1.428 18.200 C 1.297 19.294,1.299 21.450,1.431 22.557 C 2.178 28.802,5.936 34.233,11.500 37.109 C 14.228 38.520,17.047 39.200,20.167 39.200 C 23.220 39.200,25.782 38.606,28.500 37.267 C 30.442 36.311,32.006 35.196,33.502 33.701 C 36.572 30.635,38.460 26.685,38.938 22.333 C 39.048 21.338,39.032 19.199,38.908 18.167 C 38.174 12.040,34.658 6.823,29.230 3.804 C 27.260 2.709,24.811 1.919,22.493 1.631 C 21.728 1.536,19.756 1.462,19.167 1.506 M23.483 13.985 L 25.067 15.572 25.067 15.868 L 25.067 16.164 21.034 20.199 L 17.001 24.233 15.351 24.251 C 13.521 24.270,13.447 24.257,13.248 23.866 C 13.143 23.659,13.132 23.458,13.148 22.050 L 13.167 20.467 17.167 16.461 C 19.367 14.258,21.227 12.429,21.300 12.396 C 21.373 12.363,21.538 12.349,21.666 12.366 C 21.866 12.393,22.124 12.622,23.483 13.985 M18.083 17.550 L 14.600 21.034 14.600 21.917 L 14.600 22.800 15.517 22.800 L 16.434 22.800 19.900 19.333 L 23.366 15.867 22.466 14.967 L 21.566 14.067 18.083 17.550 M26.802 26.434 C 27.241 26.662,27.303 27.213,26.928 27.572 L 26.725 27.767 20.167 27.767 L 13.609 27.767 13.410 27.576 C 13.300 27.471,13.192 27.311,13.169 27.219 C 13.104 26.961,13.255 26.605,13.490 26.462 C 13.693 26.338,13.909 26.334,20.153 26.334 C 25.792 26.333,26.631 26.346,26.802 26.434 " stroke="none" fill-rule="evenodd" fill="black"></path></svg>