<svg width="24" height="24" viewBox="0 0 24 24" fill="none" xmlns="http://www.w3.org/2000/svg"><path d="M13.660 2.055 C 12.704 2.195,11.850 2.545,11.115 3.098 C 10.760 3.365,10.266 3.862,10.087 4.133 L 9.986 4.286 9.783 4.253 C 9.671 4.235,9.301 4.222,8.960 4.224 C 8.409 4.227,8.301 4.239,7.988 4.334 C 6.600 4.755,5.669 5.852,5.567 7.187 L 5.540 7.539 5.157 7.663 C 4.369 7.920,3.730 8.314,3.183 8.881 C 2.440 9.652,2.063 10.502,2.013 11.520 C 1.953 12.752,2.413 13.845,3.368 14.740 C 4.076 15.403,4.961 15.816,5.979 15.957 C 6.623 16.047,6.881 15.989,7.018 15.724 C 7.203 15.366,6.941 15.000,6.499 15.000 C 6.384 15.000,6.136 14.973,5.948 14.940 C 4.547 14.696,3.432 13.720,3.093 12.440 C 3.007 12.115,2.997 11.352,3.075 11.040 C 3.391 9.777,4.462 8.808,5.859 8.520 C 6.313 8.427,6.379 8.396,6.482 8.227 C 6.547 8.121,6.560 8.025,6.560 7.652 C 6.560 7.104,6.606 6.867,6.788 6.484 C 6.888 6.274,7.005 6.112,7.194 5.924 C 7.887 5.234,8.901 5.025,10.006 5.345 C 10.221 5.407,10.240 5.407,10.386 5.335 C 10.497 5.281,10.601 5.169,10.760 4.932 C 11.080 4.456,11.316 4.198,11.698 3.912 C 12.871 3.032,14.387 2.777,15.800 3.222 C 16.924 3.577,17.821 4.342,18.289 5.344 C 18.505 5.806,18.567 6.075,18.590 6.652 C 18.611 7.193,18.577 7.464,18.432 7.924 C 18.288 8.378,18.368 8.495,19.048 8.830 C 19.839 9.219,20.316 9.678,20.662 10.380 C 20.910 10.882,20.976 11.165,20.976 11.720 C 20.976 12.258,20.911 12.548,20.685 13.020 C 20.136 14.164,18.973 14.904,17.592 14.988 C 17.117 15.017,16.972 15.090,16.883 15.347 C 16.833 15.490,16.833 15.531,16.884 15.665 C 16.918 15.754,17.001 15.859,17.081 15.914 C 17.212 16.003,17.245 16.007,17.640 15.987 C 18.809 15.926,19.861 15.477,20.687 14.688 C 21.208 14.191,21.538 13.690,21.757 13.065 C 22.134 11.988,22.066 10.931,21.552 9.900 C 21.173 9.140,20.444 8.406,19.688 8.024 C 19.531 7.944,19.481 7.899,19.495 7.848 C 19.634 7.360,19.656 6.501,19.544 5.968 C 19.281 4.722,18.556 3.648,17.496 2.938 C 17.138 2.698,16.560 2.413,16.160 2.279 C 15.470 2.048,14.379 1.950,13.660 2.055 M11.748 9.564 C 11.669 9.610,9.117 12.656,9.045 12.790 C 8.900 13.061,9.082 13.414,9.408 13.494 C 9.662 13.557,9.778 13.455,10.643 12.410 L 11.460 11.422 11.480 16.521 C 11.499 21.351,11.504 21.627,11.573 21.753 C 11.646 21.888,11.842 22.000,12.003 22.000 C 12.150 22.000,12.361 21.874,12.432 21.745 C 12.495 21.630,12.502 21.229,12.520 16.525 L 12.540 11.431 13.299 12.345 C 13.717 12.848,14.108 13.307,14.168 13.365 C 14.547 13.728,15.188 13.262,14.947 12.799 C 14.866 12.644,12.331 9.608,12.243 9.561 C 12.143 9.508,11.841 9.510,11.748 9.564 " fill="#EC0000" stroke="none" fill-rule="evenodd"></path></svg>