<!-- Generated by IcoMoon.io -->
<svg version="1.1" xmlns="http://www.w3.org/2000/svg" width="32" height="32" viewBox="0 0 32 32">
<title>alert</title>
<path d="M29.216 25.504v0c-2.336-2.208-3.808-5.312-3.808-8.768 0-0.032 0-0.032 0-0.032v0-4.992c0-3.392-2.016-6.304-4.896-7.616l-0.032-0.032c-0.512-0.224-1.088-0.448-1.664-0.608l-0.096-0.032v-0.032c0-1.728-1.376-3.136-3.104-3.136s-3.136 1.408-3.136 3.136v0 0.096c-0.608 0.192-1.12 0.384-1.6 0.608l0.064-0.032c-2.944 1.376-4.992 4.256-5.12 7.616v5.024c0 0.064 0 0.128 0 0.224 0 3.36-1.376 6.4-3.616 8.576v0c-0.16 0.16-0.256 0.384-0.256 0.64 0 0.096 0 0.192 0.032 0.288v0c0.096 0.32 0.352 0.544 0.704 0.608v0l5.28 0.928c0.896 0.128 1.728 0.288 2.56 0.384 0.992 1.888 2.944 3.136 5.184 3.136s4.192-1.248 5.152-3.104l0.032-0.032c0.8-0.096 1.632-0.224 2.56-0.384l5.248-0.928c0.448-0.064 0.768-0.448 0.768-0.896 0-0.256-0.096-0.48-0.256-0.64v0zM19.008 26.752l-1.056 0.096h-0.16l-0.896 0.032h-0.16c-0.704 0-1.344 0-2.048 0h-0.192l-0.896-0.032h-0.192c-0.32 0-0.672-0.032-1.056-0.096s-0.8-0.064-1.152-0.128c-0.928-0.096-1.888-0.256-2.976-0.448l-3.616-0.64c1.888-2.336 3.008-5.344 3.008-8.608 0-0.064 0-0.128 0-0.224v0.032-5.024c0.128-2.656 1.76-4.928 4.032-5.984l0.032-0.032c0.544-0.224 1.152-0.448 1.792-0.608h0.16c0.608-0.128 1.28-0.224 1.984-0.224s1.408 0.096 2.080 0.224h-0.032c0.768 0.16 1.44 0.384 2.080 0.672l-0.064-0.032c2.304 1.088 3.872 3.36 3.904 6.016v0 4.992c0 3.36 1.216 6.464 3.2 8.832v0l-3.648 0.608c-1.088 0.192-2.048 0.352-2.976 0.448l-1.184 0.128zM18.432 28.64c-0.736 0.64-1.664 1.056-2.72 1.056s-2.016-0.416-2.72-1.088v0.032c0.832 0.064 1.76 0.096 2.72 0.096s1.888-0.032 2.816-0.128l-0.096 0.032zM14.304 3.104c0.16-0.576 0.672-1.024 1.312-1.024s1.152 0.448 1.28 1.024v0c-0.384-0.032-0.832-0.064-1.28-0.064s-0.896 0.032-1.344 0.064h0.032z"></path>
</svg>
