<svg width="21" height="20" viewBox="0 0 21 20" fill="none" xmlns="http://www.w3.org/2000/svg"><path d="M8.103 0.049 C 8.045 0.075,7.958 0.139,7.910 0.191 L 7.823 0.286 7.805 1.359 C 7.793 2.088,7.774 2.455,7.746 2.504 C 7.721 2.548,7.535 2.648,7.270 2.760 C 6.727 2.991,6.161 3.310,5.678 3.658 C 5.474 3.806,5.259 3.934,5.200 3.943 C 5.111 3.957,4.943 3.874,4.218 3.462 C 3.440 3.021,3.321 2.964,3.150 2.951 C 3.003 2.940,2.933 2.952,2.851 3.003 C 2.772 3.053,2.458 3.555,1.617 4.979 C 0.997 6.029,0.480 6.935,0.469 6.993 C 0.440 7.135,0.506 7.319,0.622 7.427 C 0.675 7.475,1.064 7.709,1.488 7.946 C 2.377 8.443,2.445 8.487,2.483 8.588 C 2.498 8.629,2.489 8.818,2.463 9.013 C 2.400 9.474,2.401 10.529,2.464 10.969 C 2.517 11.329,2.504 11.423,2.393 11.518 C 2.357 11.549,1.981 11.768,1.558 12.005 C 1.134 12.242,0.735 12.474,0.670 12.522 C 0.526 12.629,0.441 12.818,0.467 12.975 C 0.477 13.039,0.929 13.843,1.472 14.762 C 2.766 16.955,2.750 16.931,2.882 16.999 C 3.122 17.124,3.202 17.096,4.192 16.539 C 5.238 15.950,5.191 15.962,5.523 16.217 C 6.028 16.606,6.760 17.022,7.378 17.274 C 7.573 17.353,7.720 17.436,7.746 17.479 C 7.774 17.530,7.793 17.886,7.805 18.626 L 7.823 19.699 7.910 19.793 C 8.096 19.992,7.998 19.985,10.455 19.985 C 13.029 19.985,12.895 20.000,13.046 19.704 C 13.122 19.555,13.125 19.518,13.125 18.550 C 13.125 17.722,13.134 17.538,13.177 17.476 C 13.206 17.435,13.351 17.351,13.501 17.290 C 14.143 17.024,14.767 16.666,15.487 16.149 C 15.623 16.051,15.685 16.028,15.767 16.042 C 15.825 16.051,16.264 16.280,16.742 16.549 C 17.219 16.818,17.649 17.049,17.697 17.060 C 17.826 17.093,18.034 17.023,18.136 16.914 C 18.186 16.861,18.719 15.983,19.321 14.963 C 20.505 12.956,20.519 12.926,20.386 12.681 C 20.316 12.549,20.270 12.520,19.206 11.920 C 18.798 11.690,18.463 11.478,18.440 11.436 C 18.410 11.379,18.412 11.263,18.449 10.957 C 18.476 10.734,18.498 10.301,18.498 9.993 C 18.498 9.684,18.476 9.251,18.449 9.028 C 18.413 8.729,18.410 8.605,18.439 8.551 C 18.460 8.512,18.821 8.286,19.240 8.050 C 20.265 7.474,20.318 7.439,20.388 7.291 C 20.508 7.039,20.496 7.012,19.322 5.022 C 18.614 3.819,18.185 3.128,18.104 3.054 C 17.997 2.957,17.952 2.940,17.803 2.940 C 17.642 2.940,17.554 2.982,16.726 3.447 C 16.231 3.727,15.786 3.955,15.739 3.955 C 15.691 3.955,15.576 3.900,15.483 3.833 C 14.776 3.325,14.136 2.958,13.528 2.712 C 13.094 2.536,13.125 2.634,13.125 1.454 C 13.125 0.466,13.123 0.430,13.046 0.281 C 12.894 -0.015,13.028 -0.000,10.466 0.001 C 8.662 0.002,8.186 0.012,8.103 0.049 M12.110 1.761 C 12.110 2.340,12.122 2.549,12.165 2.694 C 12.275 3.063,12.531 3.354,12.889 3.517 C 13.943 3.998,14.191 4.134,14.728 4.527 C 15.176 4.855,15.395 4.945,15.750 4.944 C 16.085 4.943,16.201 4.896,16.975 4.454 C 17.312 4.262,17.599 4.115,17.613 4.127 C 17.682 4.187,19.244 6.880,19.223 6.901 C 19.209 6.914,18.914 7.084,18.568 7.278 C 17.850 7.681,17.628 7.874,17.505 8.203 C 17.396 8.493,17.383 8.692,17.445 9.127 C 17.515 9.633,17.515 10.354,17.444 10.858 C 17.381 11.304,17.392 11.481,17.500 11.769 C 17.631 12.119,17.824 12.288,18.581 12.716 C 19.175 13.052,19.246 13.101,19.216 13.159 C 19.127 13.325,17.633 15.840,17.612 15.859 C 17.598 15.872,17.281 15.710,16.906 15.500 C 16.531 15.290,16.161 15.101,16.083 15.080 C 16.006 15.059,15.817 15.049,15.663 15.057 C 15.314 15.075,15.121 15.161,14.666 15.500 C 14.250 15.809,13.776 16.081,13.290 16.288 C 12.674 16.552,12.539 16.640,12.339 16.913 C 12.147 17.173,12.110 17.390,12.110 18.238 L 12.110 19.006 10.456 18.997 L 8.803 18.988 8.785 18.148 C 8.768 17.335,8.765 17.301,8.677 17.115 C 8.497 16.733,8.314 16.585,7.697 16.322 C 7.165 16.095,6.710 15.840,6.300 15.539 C 5.782 15.159,5.602 15.076,5.258 15.057 C 5.084 15.048,4.907 15.058,4.813 15.085 C 4.728 15.109,4.355 15.299,3.985 15.507 C 3.381 15.847,3.307 15.880,3.271 15.827 C 3.249 15.794,2.947 15.287,2.600 14.700 C 2.253 14.113,1.898 13.512,1.811 13.365 L 1.653 13.098 2.321 12.721 C 3.052 12.307,3.223 12.165,3.384 11.838 C 3.471 11.661,3.483 11.599,3.483 11.305 C 3.483 11.122,3.461 10.754,3.434 10.487 C 3.392 10.072,3.392 9.930,3.433 9.507 C 3.460 9.235,3.482 8.863,3.482 8.680 C 3.482 8.393,3.469 8.320,3.389 8.148 C 3.242 7.834,3.061 7.685,2.320 7.268 L 1.648 6.890 1.748 6.726 C 1.802 6.636,2.158 6.035,2.539 5.390 C 2.919 4.745,3.248 4.191,3.270 4.160 C 3.305 4.108,3.383 4.143,3.956 4.465 C 4.700 4.884,4.865 4.949,5.180 4.946 C 5.499 4.943,5.761 4.839,6.118 4.573 C 6.691 4.147,7.111 3.910,7.805 3.620 C 8.144 3.478,8.238 3.421,8.402 3.257 C 8.508 3.150,8.634 2.984,8.682 2.888 C 8.765 2.719,8.768 2.683,8.779 1.864 L 8.790 1.015 10.450 1.015 L 12.110 1.015 12.110 1.761 M9.993 6.269 C 9.172 6.355,8.328 6.762,7.717 7.368 C 6.587 8.486,6.288 10.166,6.963 11.606 C 7.730 13.243,9.647 14.129,11.428 13.670 C 11.850 13.561,12.455 13.272,12.785 13.021 C 14.400 11.794,14.780 9.637,13.680 7.945 C 13.599 7.820,13.389 7.574,13.215 7.398 C 12.564 6.743,11.790 6.370,10.868 6.266 C 10.514 6.226,10.393 6.227,9.993 6.269 M10.996 7.294 C 12.548 7.592,13.555 9.057,13.244 10.562 C 12.874 12.355,10.856 13.314,9.181 12.494 C 7.490 11.666,7.081 9.503,8.359 8.148 C 9.037 7.430,10.028 7.109,10.996 7.294 " fill="#EC0000" stroke="none" fill-rule="evenodd"></path></svg>