<?xml version="1.0" encoding="UTF-8"?>
<svg width="24px" height="24px" viewBox="0 0 24 24" version="1.1" xmlns="http://www.w3.org/2000/svg" xmlns:xlink="http://www.w3.org/1999/xlink">
    <title>Atoms/ico/normal size/admin-24</title>
    <g id="🟢-Employee-supplier-onboarding" stroke="none" stroke-width="1" fill="none" fill-rule="evenodd">
        <g id="SMT-06A" transform="translate(-1190.000000, -326.000000)" fill="#EC0000">
            <g id="Submenú" transform="translate(1174.000000, 230.000000)">
                <g id="🌈-Color" transform="translate(16.000000, 96.000000)">
                    <path d="M6.7523754,3.99626494 C6.84953899,3.99626494 6.94625627,4.01545786 7.03906626,4.05288466 C7.08099989,4.07003933 7.11189361,4.08742915 7.14736922,4.11293806 L7.20597179,4.15827622 L7.22899127,4.17260363 L7.28321229,4.21551307 L11.2838924,8.21619319 C11.5765566,8.50885741 11.5765566,8.98420256 11.2838924,9.27686679 C11.1411434,9.41961579 10.9505584,9.49711509 10.7530555,9.49711509 C10.643762,9.49711509 10.5356907,9.47306558 10.4279912,9.42036297 L10.320384,9.35793882 L10.2232188,9.27686679 L7.50211023,6.55576494 L7.50246042,19.7489004 C7.50246042,20.0939988 7.26915007,20.3848256 6.95172827,20.4721818 L6.85412758,20.4921353 L6.7523754,20.4989854 C6.42417627,20.4989854 6.14089468,20.2875512 6.03854141,19.9704665 L6.01131128,19.8610038 L6.00229039,19.7489004 L6.00211023,6.55676494 L3.281532,9.27686679 C3.04503566,9.51336313 2.68924966,9.55875132 2.40696537,9.41303135 L2.3049307,9.34942817 L2.2208584,9.27686679 C1.98937795,9.04538634 1.93846726,8.69517684 2.08994417,8.39856473 L2.14796224,8.3019155 L2.2208584,8.21619319 L6.22040851,4.21666267 C6.29343393,4.14515861 6.37733533,4.08872269 6.4649331,4.05402959 C6.51644395,4.03223654 6.56836837,4.01840574 6.62069782,4.01040399 L6.7523754,3.99626494 Z M17.7503451,3.99626494 C18.0787264,3.99626494 18.3619357,4.20724351 18.4642107,4.52450214 L18.4914149,4.63404769 L18.5004301,4.74634996 L18.5001102,17.9367649 L21.2211885,15.2173834 C21.4576848,14.980887 21.8134708,14.9354989 22.0957551,15.0812188 L22.1977898,15.144822 L22.2818621,15.2173834 C22.5133425,15.4488638 22.5642532,15.7990733 22.4127763,16.0956854 L22.3547582,16.1923347 L22.2818621,16.278057 L18.2841825,20.2757366 C18.2123023,20.3476168 18.1264581,20.4051017 18.0339931,20.4417892 C17.9832542,20.4622799 17.931049,20.4759409 17.8877365,20.4826354 L17.7329553,20.4983799 L17.650539,20.4920425 C17.5874453,20.4832614 17.5255093,20.4663105 17.4617779,20.440589 C17.42047,20.4232973 17.3894897,20.4056274 17.3537337,20.3798818 L17.2946302,20.3342445 L17.2737292,20.3216465 L17.2195303,20.2787592 L13.2178279,16.278057 C12.9251637,15.9853928 12.9251637,15.5100476 13.2178279,15.2173834 C13.4493083,14.9859029 13.7995178,14.9349922 14.0961299,15.0864692 L14.1927792,15.1444872 L14.2784734,15.2173553 L17.0001102,17.9387649 L17.00026,4.74634996 C17.00026,4.40064134 17.2333839,4.11022138 17.5508989,4.02301774 L17.6485365,4.00310107 L17.7503451,3.99626494 Z" transform="translate(12.251360, 12.247625) rotate(-270.000000) translate(-12.251360, -12.247625) "></path>
                </g>
            </g>
        </g>
    </g>
</svg>