<svg width="24" height="24" viewBox="0 0 24 24" fill="none" xmlns="http://www.w3.org/2000/svg">
<path fill-rule="evenodd" clip-rule="evenodd" d="M22 12C22 6.48584 17.5142 2 12 2C6.48584 2 2 6.48584 2 12C2 17.5142 6.48584 22 12 22C17.5142 22 22 17.5142 22 12ZM3 12C3 7.0376 7.0376 3 12 3C16.9624 3 21 7.0376 21 12C21 16.9624 16.9624 21 12 21C7.0376 21 3 16.9624 3 12Z" fill="#EC0000"/>
<path d="M9 7.41667C9 7.18636 9.22363 7 9.5 7C9.74566 7 9.94965 7.14725 9.99195 7.34172L10 7.41667L10 16.5833C10 16.8136 9.77637 17 9.5 17C9.25434 17 9.05035 16.8528 9.00805 16.6583L9 16.5833L9 7.41667Z" fill="#EC0000"/>
<path d="M14 7.41667C14 7.18636 14.2236 7 14.5 7C14.7457 7 14.9497 7.14725 14.992 7.34172L15 7.41667L15 16.5833C15 16.8136 14.7764 17 14.5 17C14.2543 17 14.0503 16.8528 14.008 16.6583L14 16.5833L14 7.41667Z" fill="#EC0000"/>
</svg>
