<svg width="22" height="18" viewBox="0 0 22 18" fill="none" xmlns="http://www.w3.org/2000/svg">
<path fill-rule="evenodd" clip-rule="evenodd" d="M21.0681 9C21.0681 4.06306 16.9994 0.0608807 11.9804 0.0608807C7.17174 0.0608807 3.23538 3.73474 2.91399 8.38464L1.87107 6.6064C1.7327 6.37065 1.43065 6.28972 1.19294 6.42472L1.10541 6.48513C0.927225 6.63838 0.878446 6.90169 1.00163 7.11156L3.02194 10.5537C3.16031 10.7894 3.46236 10.8703 3.70006 10.7353L3.77389 10.6862L3.87065 10.595L3.911 10.5453L6.23009 7.28746L6.27833 7.20348C6.37469 6.98977 6.30765 6.7312 6.10774 6.59351L6.0219 6.54397C5.80817 6.44713 5.54946 6.51196 5.40867 6.70974L3.90453 8.82146C4.00104 4.51552 7.57979 1.05412 11.9804 1.05412C16.4417 1.05412 20.0583 4.61161 20.0583 9C20.0583 13.3884 16.4417 16.9459 11.9804 16.9459C9.38716 16.9459 7.0793 15.7438 5.60128 13.8753L5.53867 13.8063C5.44809 13.7214 5.32545 13.6693 5.19044 13.6693C4.91161 13.6693 4.68558 13.8916 4.68558 14.1659C4.68558 14.2634 4.71413 14.3543 4.76347 14.431L4.79079 14.4694L4.98991 14.7122C6.65687 16.6839 9.16962 17.9391 11.9804 17.9391C16.9994 17.9391 21.0681 13.9369 21.0681 9ZM11.9648 2.93333C11.9648 2.65905 11.7425 2.43671 11.4682 2.43671C11.1939 2.43671 10.9716 2.65905 10.9716 2.93333V9.51312C10.9716 9.78739 11.1939 10.0097 11.4682 10.0097H15.9344C16.2105 10.0097 16.4344 9.78588 16.4344 9.50974L16.4263 9.41013C16.384 9.17688 16.1798 9 15.9344 9L11.9646 8.99971L11.9648 2.93333Z" fill="#EC0000"/>
</svg>
