<!-- Generated by IcoMoon.io -->
<svg version="1.1" xmlns="http://www.w3.org/2000/svg" width="42" height="32" viewBox="0 0 42 32">
<title>folder-fill</title>
<path d="M12.608 0.192c0.48 0 0.928 0.128 1.376 0.416 0.288 0.192 0.576 0.448 0.768 0.768l0.128 0.256 1.344 2.784c0.032 0.064 0.064 0.064 0.064 0.096h0.064l0.064 0.032h16.8c0.64 0 1.312 0.256 1.76 0.704 0.416 0.416 0.672 0.928 0.736 1.504v2.592h2.496c0.192 0 0.384 0.032 0.576 0.064l0.288 0.064 0.288 0.128c0.32 0.192 0.576 0.416 0.864 0.736 0.256 0.32 0.384 0.672 0.48 1.024 0.032 0.288 0.032 0.576 0 0.864l-0.064 0.288-4.672 17.056c-0.16 0.512-0.48 0.992-0.928 1.312-0.352 0.288-0.768 0.448-1.248 0.512h-30.4c-0.672 0-1.312-0.256-1.792-0.704-0.384-0.416-0.64-0.928-0.704-1.504l-0.032-0.288v-26.176c0-0.672 0.288-1.312 0.736-1.792 0.416-0.384 0.928-0.64 1.504-0.704l0.288-0.032h9.216zM12.672 2.56v0h-9.28c-0.064 0-0.128 0.032-0.16 0.064v0.032l-0.032 0.064v18.88l2.848-10.432c0.16-0.448 0.384-0.832 0.736-1.152l0.192-0.192c0.352-0.256 0.8-0.416 1.248-0.448l0.288-0.032h24.864v-2.304c0-0.032 0-0.064 0-0.096l-0.064-0.032c0-0.032-0.032-0.032-0.064-0.032h-16.832c-0.48 0-0.928-0.128-1.344-0.384-0.256-0.16-0.448-0.352-0.64-0.576l-0.128-0.192h-0.032l-1.504-3.072c0-0.064 0-0.064-0.096-0.096z"></path>
</svg>
