<?xml version="1.0" encoding="UTF-8"?>
<svg width="13px" height="16px" viewBox="0 0 13 16" version="1.1" xmlns="http://www.w3.org/2000/svg" xmlns:xlink="http://www.w3.org/1999/xlink">
    <title>1E5F7403-2503-4982-B63F-1565F1B68B42@2x</title>
    <defs>
        <filter id="filter-1">
            <feColorMatrix in="SourceGraphic" type="matrix" values="0 0 0 0 0.925490 0 0 0 0 0.000000 0 0 0 0 0.000000 0 0 0 1.000000 0"></feColorMatrix>
        </filter>
    </defs>
    <g id="Gloval-Overview" stroke="none" stroke-width="1" fill="none" fill-rule="evenodd">
        <g id="ISM-Dashboard" transform="translate(-1320.000000, -253.000000)">
            <g id="components/covers/VDR-Copy" transform="translate(938.000000, 152.000000)">
                <g id="noun_report_2120939" transform="translate(382.000000, 101.000000)" filter="url(#filter-1)">
                    <g transform="translate(0.000000, 0.666667)" id="Group" fill="#979797" fill-rule="nonzero">
                        <path d="M10.9200855,0.528356481 C11.3418369,0.528356481 11.6868871,0.844834148 11.7425708,1.2674751 L11.7497863,1.35335648 L11.7497863,11.7027778 C11.7497863,12.13425 11.4180725,12.4843351 10.9995216,12.5240286 L10.9200855,12.5277778 L10.0992222,12.5277778 L10.0997863,13.3273148 C10.0997863,13.73182 9.80824098,14.0647935 9.42692249,14.1375416 L9.3495216,14.1485656 L9.27008547,14.1523148 L1.30213675,14.1523148 C0.868663144,14.1523148 0.51617993,13.8228948 0.476211226,13.406374 L0.472435897,13.3273148 L0.472435897,2.99189815 C0.472435897,2.56042597 0.804149713,2.21034087 1.22270062,2.17064737 L1.30213675,2.16689815 L2.10772222,2.16638889 L2.10833333,1.35335648 C2.10833333,0.948851315 2.39987868,0.615877757 2.78119717,0.543129725 L2.85859806,0.532105702 L2.93803419,0.528356481 L10.9200855,0.528356481 Z M2.10772222,2.89238889 L1.30213675,2.89259259 C1.26283209,2.89259259 1.23075677,2.91567697 1.21949882,2.9501173 L1.21517094,2.97789352 L1.21517094,13.3133102 C1.21517094,13.3515185 1.2383971,13.3831861 1.27363313,13.3943248 L1.30213675,13.3986111 L9.28418803,13.3986111 C9.31366653,13.3986111 9.33907853,13.3856261 9.35469156,13.3646042 L9.35672222,13.3595 L9.35672222,12.5277778 L2.93803419,12.5277778 C2.50456058,12.5277778 2.15207737,12.1983577 2.11210866,11.781837 L2.10833333,11.7027778 L2.10772222,2.89238889 Z M10.9059829,1.25405093 L2.93803419,1.25405093 C2.89252522,1.25405093 2.85514684,1.28213114 2.84201585,1.3217435 L2.83696581,1.35335648 L2.83696581,11.6887731 C2.83696581,11.7331173 2.8652424,11.7700664 2.90567877,11.7830722 L2.93803419,11.7880787 L10.9059829,11.7880787 C10.9514919,11.7880787 10.9888703,11.7599985 11.0020012,11.7203861 L11.0070513,11.6887731 L11.0070513,1.35335648 C11.0070513,1.29792627 10.9628691,1.25405093 10.9059829,1.25405093 Z" id="Shape"></path>
                        <path d="M9.16981061,3.05211677 L8.36089106,3.16264018 L8.30786782,3.17608053 C8.13902552,3.23803439 8.08384202,3.45767622 8.21756054,3.59046614 L8.31966667,3.69233333 L7.52094444,4.48494444 L7.06491809,4.03187182 C6.92072656,3.88868162 6.69764951,3.88868162 6.55345797,4.03187182 L5.28545184,5.26307668 C5.13944563,5.40805537 5.13944563,5.63141222 5.2842272,5.77518836 L5.33499631,5.81761509 C5.47701752,5.91661079 5.66751707,5.90246855 5.79568733,5.77518836 L6.78761111,4.78927778 L7.24448361,5.24301244 L7.29525272,5.28543917 C7.43727393,5.38443486 7.62777348,5.37029262 7.75594374,5.24301244 L8.81833333,4.18733333 L8.92268874,4.29069762 C9.07105277,4.43803134 9.35235043,4.35422808 9.35235043,4.12627315 L9.46371823,3.33502301 C9.49786704,3.1668911 9.34687684,3.01694945 9.16981061,3.05211677 Z" id="Path"></path>
                        <path d="M9.2982906,8.009375 L4.55982906,8.009375 C4.37969701,8.009375 4.22606838,8.23893502 4.22606838,8.509375 C4.22606838,8.77981498 4.37969701,9.009375 4.55982906,9.009375 L9.31239316,9.009375 C9.49252522,9.009375 9.64615385,8.77981498 9.64615385,8.509375 C9.62429684,8.20517938 9.48701861,8.009375 9.2982906,8.009375 Z" id="Path"></path>
                        <path d="M9.2982906,9.91400463 L4.55982906,9.91400463 C4.37969701,9.91400463 4.22606838,10.1435646 4.22606838,10.4140046 C4.22606838,10.6844446 4.37969701,10.9140046 4.55982906,10.9140046 L9.31239316,10.9140046 C9.49252522,10.9140046 9.64615385,10.6844446 9.64615385,10.4140046 C9.62429684,10.109809 9.48701861,9.91400463 9.2982906,9.91400463 Z" id="Path"></path>
                        <path d="M4.55982906,2.57303241 C4.36286912,2.57303241 4.19551282,2.73922651 4.19551282,2.93587963 L4.19551282,6.43703704 C4.19551282,6.63369016 4.36286912,6.79988426 4.55982906,6.79988426 L9.31239316,6.79988426 C9.5093531,6.79988426 9.6767094,6.63369016 9.6767094,6.43703704 L9.6658723,6.37325701 C9.6224267,6.18936172 9.48250521,6.07418981 9.2982906,6.07418981 L4.92372222,6.07383333 L4.9241453,2.93587963 C4.9241453,2.73922651 4.756789,2.57303241 4.55982906,2.57303241 Z" id="Path"></path>
                    </g>
                </g>
            </g>
        </g>
    </g>
</svg>