<?xml version="1.0" encoding="UTF-8"?>
<svg width="17px" height="20px" viewBox="0 0 17 20" version="1.1" xmlns="http://www.w3.org/2000/svg" xmlns:xlink="http://www.w3.org/1999/xlink">
    <title>Atoms/ico/normal size/leido-24</title>
    <g id="Issue-Log" stroke="none" stroke-width="1" fill="none" fill-rule="evenodd">
        <g id="ISM--Incidents---Open-Issue---servicios" transform="translate(-350.000000, -994.000000)" fill="#EC0000">
            <g id="Detail" transform="translate(290.000000, 337.000000)">
                <g id="card/Service-Copy-2" transform="translate(40.000000, 636.000000)">
                    <g id="color" transform="translate(16.000000, 19.000000)">
                        <path d="M12.9952203,2.00041163 L13.1725155,2.00523172 C13.6425619,2.03923111 14.0872174,2.24100322 14.4233129,2.5770987 C14.8027244,2.95651015 15.0109582,3.47426731 15,4.00041163 L17.5,4.00041163 C17.7761424,4.00041163 18,4.22426926 18,4.50041163 L18,4.50041163 L18.0011112,14.1934493 C19.1548873,14.6131753 20.0196063,15.5597108 20.3516515,16.71055 C20.4627338,17.0862083 20.5175461,17.4863793 20.5056165,17.8997454 C20.4464982,19.9482203 18.7697536,21.5786635 16.7243472,21.5803927 C15.9802252,21.5868627 15.2513536,21.3694093 14.6324158,20.9562806 L14.6672717,20.9783698 C14.6207141,20.9926986 14.5712578,21.0004116 14.52,21.0004116 L14.52,21.0004116 L4.5,21.0004116 C4.22385763,21.0004116 4,20.776554 4,20.5004116 L4,20.5004116 L4,4.50041163 C4,4.22426926 4.22385763,4.00041163 4.5,4.00041163 L4.5,4.00041163 L7,4 L7.00447431,3.83276042 C7.03742932,3.36091813 7.23943245,2.91435332 7.57668707,2.5770987 C7.95609852,2.19768726 8.47385568,1.98945347 9,2.00041163 L12.9952203,2.00041163 Z M16.8804723,15.0051947 C15.3744499,14.9169068 14.0710319,16.0417489 13.9380538,17.5444848 C13.9370814,17.5554737 13.9357604,17.5663481 13.9341028,17.5770979 C13.9327796,17.5860992 13.9310634,17.5954928 13.9290887,17.6047908 C13.924909,17.6241988 13.9197486,17.642932 13.9135767,17.6611627 C13.9105888,17.6700283 13.9073549,17.6787397 13.9038891,17.6873327 C13.8810857,18.4466831 14.1709896,19.2055346 14.7455462,19.7688624 C14.8765018,19.9013069 15.0218482,20.018702 15.1788795,20.1188624 C15.180676,20.1200082 15.1824626,20.1211636 15.1842394,20.1223284 C15.6396925,20.4263159 16.1721027,20.5851566 16.7195735,20.5804118 C18.2281811,20.5791251 19.4625129,19.378878 19.5060327,17.8708977 L19.5060327,17.8708977 L19.5000305,17.7948853 C19.5026164,17.5609452 19.4761414,17.3321029 19.4235816,17.112298 C19.4180385,17.0877061 19.4117138,17.0638018 19.405081,17.0400213 L19.4235816,17.112298 C19.4140962,17.07263 19.4037612,17.0332564 19.3925942,16.9942003 L19.405081,17.0400213 C19.0930615,15.9213451 18.0990337,15.0766307 16.8804723,15.0051947 Z M7,5 L5,5.00041163 L5,20.0004116 L13.6278612,20.0006028 C13.1962803,19.4083165 12.9521165,18.7122827 12.907549,18.0006367 L10.5,18.0004116 C10.2238576,18.0004116 10,17.776554 10,17.5004116 C10,17.2242693 10.2238576,17.0004116 10.5,17.0004116 L10.5,17.0004116 L12.9773139,17.0005546 C13.0568721,16.6123004 13.1983484,16.2317742 13.4037601,15.8735744 C13.5931896,15.5432447 13.8264687,15.250254 14.0929165,14.9990194 L10.5,15.0004116 C10.2238576,15.0004116 10,14.776554 10,14.5004116 C10,14.2242693 10.2238576,14.0004116 10.5,14.0004116 L10.5,14.0004116 L14.5,14.0004116 C14.732465,14.0004116 14.9278769,14.1590546 14.9838777,14.3739824 C15.5974007,14.0627056 16.2950328,13.9193989 17.0002251,13.9755113 L17,5.00041163 L15,5 L15,5.50041163 C15,5.77655401 14.7761424,6.00041163 14.5,6.00041163 L7.5,6.00041163 C7.22385763,6.00041163 7,5.77655401 7,5.50041163 L7,5 Z M16.91,15.5504116 C17.1861424,15.5504116 17.41,15.7742693 17.41,16.0504116 L17.41,16.0504116 L17.41,17.9904116 C17.41,18.266554 17.1861424,18.4904116 16.91,18.4904116 L16.91,18.4904116 L14.97,18.4904116 C14.6938576,18.4904116 14.47,18.266554 14.47,17.9904116 C14.47,17.7142693 14.6938576,17.4904116 14.97,17.4904116 L14.97,17.4904116 L16.41,17.4904116 L16.41,16.0504116 C16.41,15.7742693 16.6338576,15.5504116 16.91,15.5504116 Z M8.5,17.0004116 C8.77614237,17.0004116 9,17.2242693 9,17.5004116 C9,17.776554 8.77614237,18.0004116 8.5,18.0004116 L8.5,18.0004116 L7.5,18.0004116 C7.22385763,18.0004116 7,17.776554 7,17.5004116 C7,17.2242693 7.22385763,17.0004116 7.5,17.0004116 L7.5,17.0004116 Z M8.5,14.0004116 C8.77614237,14.0004116 9,14.2242693 9,14.5004116 C9,14.776554 8.77614237,15.0004116 8.5,15.0004116 L8.5,15.0004116 L7.5,15.0004116 C7.22385763,15.0004116 7,14.776554 7,14.5004116 C7,14.2242693 7.22385763,14.0004116 7.5,14.0004116 L7.5,14.0004116 Z M14.5,11.0004116 C14.7761424,11.0004116 15,11.2242693 15,11.5004116 C15,11.776554 14.7761424,12.0004116 14.5,12.0004116 L14.5,12.0004116 L10.5,12.0004116 C10.2238576,12.0004116 10,11.776554 10,11.5004116 C10,11.2242693 10.2238576,11.0004116 10.5,11.0004116 L10.5,11.0004116 Z M8.5,11.0004116 C8.77614237,11.0004116 9,11.2242693 9,11.5004116 C9,11.776554 8.77614237,12.0004116 8.5,12.0004116 L8.5,12.0004116 L7.5,12.0004116 C7.22385763,12.0004116 7,11.776554 7,11.5004116 C7,11.2242693 7.22385763,11.0004116 7.5,11.0004116 L7.5,11.0004116 Z M14.5,8.00041163 C14.7761424,8.00041163 15,8.22426926 15,8.50041163 C15,8.77655401 14.7761424,9.00041163 14.5,9.00041163 L14.5,9.00041163 L10.5,9.00041163 C10.2238576,9.00041163 10,8.77655401 10,8.50041163 C10,8.22426926 10.2238576,8.00041163 10.5,8.00041163 L10.5,8.00041163 Z M8.5,8.00041163 C8.77614237,8.00041163 9,8.22426926 9,8.50041163 C9,8.77655401 8.77614237,9.00041163 8.5,9.00041163 L8.5,9.00041163 L7.5,9.00041163 C7.22385763,9.00041163 7,8.77655401 7,8.50041163 C7,8.22426926 7.22385763,8.00041163 7.5,8.00041163 L7.5,8.00041163 Z M13.0103104,3.00030531 L8.9896896,3.00030531 C8.72554692,2.99485732 8.47061066,3.09738868 8.28379385,3.28420548 C8.09697705,3.47102229 7.99444569,3.72595855 8,4.00041163 L8,5.00041163 L14.0000352,5.00041163 L14.0001063,3.99010123 C14.0055543,3.72595855 13.9030229,3.47102229 13.7162061,3.28420548 C13.5293893,3.09738868 13.2744531,2.99485732 13.0103104,3.00030531 Z"></path>
                    </g>
                </g>
            </g>
        </g>
    </g>
</svg>