<?xml version="1.0" encoding="UTF-8"?>
<svg width="24px" height="24px" viewBox="0 0 24 24" version="1.1" xmlns="http://www.w3.org/2000/svg" xmlns:xlink="http://www.w3.org/1999/xlink">
    <title>atoms/ico/24/messages_active-24</title>
    <g id="atoms/ico/24/messages_active-24" stroke="none" stroke-width="1" fill="none" fill-rule="evenodd">
        <path d="M21.0419985,6.559898 L14.4419996,2.22834854 C12.9634376,1.25721715 11.0365624,1.25721715 9.55800041,2.22834854 L2.95800153,6.559898 C1.73384625,7.36393258 0.999046036,8.71720172 1.00000093,10.1659129 L1.00000093,18.1684505 C1.00000093,20.5606993 2.96994863,22.5 5.40000112,22.5 L18.5999989,22.5 C21.0300514,22.5 23.0000009,20.5606993 23.0000009,18.1684505 L23.0000009,10.1659129 C23.000954,8.71720172 22.2661538,7.36393258 21.0419985,6.559898 Z M10.7790002,4.02594156 C11.5182812,3.54037587 12.4817188,3.54037587 13.2209998,4.02594156 L19.8209987,8.35749102 C19.8983477,8.4140459 19.9718393,8.47554193 20.0409986,8.54158187 L13.3529998,13.5986659 C12.5576511,14.2093361 11.4423489,14.2093361 10.6470002,13.5986659 L3.95900136,8.54158187 C4.02816071,8.47554193 4.10165227,8.4140459 4.17900132,8.35749102 L10.7790002,4.02594156 Z" id="Shape" fill="#FFFFFF"></path>
    </g>
</svg>