<?xml version="1.0" encoding="UTF-8"?>
<svg width="24px" height="24px" viewBox="0 0 24 24" version="1.1" xmlns="http://www.w3.org/2000/svg" xmlns:xlink="http://www.w3.org/1999/xlink">
    <title>B6779721-0039-4301-9238-188A7CD7CE0D</title>
    <g id="Styles" stroke="none" stroke-width="1" fill="none" fill-rule="evenodd">
        <g id="Icons" transform="translate(-1138.000000, -600.000000)" fill="#444444">
            <g id="atoms/ico/24/add-24-copy-34" transform="translate(1138.000000, 600.000000)">
                <path d="M15.4285714,1.5 C15.630438,1.5 15.8240366,1.57894231 15.9668571,1.719375 L15.9668571,1.719375 L19.776381,5.469375 C19.9180158,5.61100383 19.9981984,5.80126899 20,6 L20,6 L20,7.125 C20,7.53921356 19.6588836,7.875 19.2380952,7.875 L19.2380952,7.875 L15.8095238,7.875 C14.5477678,7.87355348 13.525279,6.86704103 13.5238095,5.625 L13.5238095,5.625 L13.5238095,3 L6.28571429,3 C5.8649259,3 5.52380952,3.33578644 5.52380952,3.75 L5.52380952,3.75 L5.52380952,20.25 C5.52380952,20.6642136 5.8649259,21 6.28571429,21 L6.28571429,21 L17.7142857,21 C18.1350741,21 18.4761905,20.6642136 18.4761905,20.25 L18.4761905,20.25 L18.4761905,10.125 C18.4761905,9.71078644 18.8173069,9.375 19.2380952,9.375 C19.6588836,9.375 20,9.71078644 20,10.125 L20,10.125 L20,20.25 C19.9985305,21.492041 18.9760417,22.4985535 17.7142857,22.5 L17.7142857,22.5 L6.28571429,22.5 C5.02395832,22.4985535 4.00146948,21.492041 4,20.25 L4,20.25 L4,3.75 C4.00146948,2.50795897 5.02395832,1.50144652 6.28571429,1.5 L6.28571429,1.5 Z M12,8.5 C12.5522847,8.5 13,8.94771525 13,9.5 L13,11.999 L15.5,12 C16.0522847,12 16.5,12.4477153 16.5,13 C16.5,13.5522847 16.0522847,14 15.5,14 L13,14 L13,16.5 C13,17.0522847 12.5522847,17.5 12,17.5 C11.4477153,17.5 11,17.0522847 11,16.5 L11,14 L8.5,14 C7.94771525,14 7.5,13.5522847 7.5,13 C7.5,12.4477153 7.94771525,12 8.5,12 L11,12 L11,9.5 C11,8.94771525 11.4477153,8.5 12,8.5 Z M15.1131429,3 L15.047619,3 L15.047619,5.625 C15.047619,6.03921356 15.3887354,6.375 15.8095238,6.375 L15.8095238,6.375 L18.4761905,6.375 L18.4761905,6.3105 L15.1131429,3 Z" id="Combined-Shape"></path>
            </g>
        </g>
    </g>
</svg>