<?xml version="1.0" encoding="UTF-8"?>
<svg width="24px" height="24px" viewBox="0 0 24 24" version="1.1" xmlns="http://www.w3.org/2000/svg" xmlns:xlink="http://www.w3.org/1999/xlink">
    <title>39910D35-5042-46EB-8A75-5639F3E04532</title>
    <defs>
        <filter id="filter-1">
            <feColorMatrix in="SourceGraphic" type="matrix" values="0 0 0 0 0.925490 0 0 0 0 0.000000 0 0 0 0 0.000000 0 0 0 1.000000 0"></feColorMatrix>
        </filter>
    </defs>
    <g id="Symbols" stroke="none" stroke-width="1" fill="none" fill-rule="evenodd">
        <g id="b.-icons-/-04.-functional-/-FUNC069---|-renovation" filter="url(#filter-1)">
            <g transform="translate(1.000000, 2.000000)" id="Group" fill="#EC0000">
                <path d="M1.5,0.7471 L6.529,0.7471 L6.60709824,0.756481006 L6.62506677,0.761608706 L6.69862408,0.772609069 L6.72447975,0.778549435 L6.77394088,0.794111053 L6.8334461,0.818558765 L6.89333207,0.850955545 C6.94298071,0.878514742 6.97816331,0.901246696 7.02382017,0.940397815 L7.08441167,1.00499474 C7.09484211,1.0177015 7.10629014,1.03227414 7.12003323,1.05005601 L7.14787044,1.07933654 L7.16939996,1.10952444 L7.21944835,1.22361739 L7.25951747,1.36624497 L7.26749646,1.40840499 L7.26796038,1.42001866 L7.27142698,1.43707854 L7.279,1.50014546 L7.279,6.55977675 C7.279,6.97519033 6.94341217,7.31282221 6.529,7.31282221 C6.20051054,7.31282221 5.91736087,7.10023685 5.8151795,6.78209016 L5.78800762,6.67227839 L5.779,6.55977675 L5.779,3.006 L5.76388184,3.02061904 C4.12607468,4.54355662 2.99592942,6.9774507 2.82853783,9.38362935 L2.8122014,9.69724442 L2.807,9.99758945 C2.807,14.5430097 6.48321263,18.2410091 11,18.2410091 C11.4144122,18.2410091 11.75,18.5786409 11.75,18.9940545 C11.75,19.4094681 11.4144122,19.7471 11,19.7471 C5.65440572,19.7471 1.307,15.373854 1.307,9.99758945 C1.307,7.40382158 2.33416483,4.68707525 3.98709792,2.73172156 L4.20621368,2.48106602 L4.418,2.253 L1.5,2.25319093 C1.15465653,2.25319093 0.864052176,2.01872435 0.776776933,1.70016744 L0.756842823,1.60222803 L0.75,1.50014546 C0.75,1.17097636 0.961092259,0.886479794 1.27826745,0.783570354 L1.38777747,0.756180469 L1.5,0.7471 Z M11,0.25 C16.3450712,0.25 20.693,4.59792881 20.693,9.943 C20.693,12.5211411 19.66545,15.2225529 18.0123861,17.1664083 L17.7932548,17.415586 L17.583,17.639 L20.5,17.639 C20.8450593,17.639 21.1358531,17.8722839 21.2231994,18.1896697 L21.2431507,18.2872594 L21.25,18.389 C21.25,18.7165137 21.0384732,19.0000735 20.7215702,19.1026415 L20.6121786,19.1299394 L20.5,19.139 L15.471,19.139 C15.3808549,19.139 15.2950776,19.1211737 15.2186255,19.0912276 L15.1093504,19.0384403 L15.0574059,19.0033969 C15.0055873,18.968519 14.9592524,18.9279981 14.9183878,18.8821333 L14.886,18.841 L14.8701469,18.826253 L14.8204607,18.7604107 L14.7755269,18.6512422 L14.7372746,18.5049659 L14.721,18.389 L14.721,13.36 C14.721,12.9451967 15.0566603,12.61 15.471,12.61 C15.7993441,12.61 16.0825213,12.8209547 16.184785,13.1381792 L16.2119862,13.2477131 L16.221,13.36 L16.221,16.888 L16.2366168,16.8753458 C17.8739107,15.3627515 19.0040652,12.9436476 19.1714614,10.552981 L19.1877984,10.241393 L19.193,9.943 C19.193,5.42542091 15.5172786,1.75 11,1.75 C10.5859288,1.75 10.25,1.41407119 10.25,1 C10.25,0.585196705 10.5856603,0.25 11,0.25 Z" id="🌈-Color"></path>
            </g>
        </g>
    </g>
</svg>