<!-- Generated by IcoMoon.io -->
<svg version="1.1" xmlns="http://www.w3.org/2000/svg" width="32" height="32" viewBox="0 0 32 32">
<title>avatar</title>
<path d="M2.4 27.488v0.928c0.096 0.672 0.672 1.184 1.344 1.184 0.064 0 0.096-0.032 0.16-0.032h24.576c0.064 0 0.096 0.032 0.16 0.032 0.672 0 1.248-0.512 1.344-1.184v0-0.928c0-1.696-2.72-3.040-6.656-3.040-1.536 0.032-3.008 0.224-4.448 0.512l-0.64 0.128h-0.16c-0.544 0.16-1.216 0.256-1.92 0.288v0c-0.544 0-1.088-0.096-1.568-0.192h0.032l-0.224-0.032-0.288-0.064c-0.672-0.128-1.312-0.224-1.984-0.32l-1.632-0.224c-0.448-0.064-0.96-0.096-1.504-0.096v0c-3.648 0-6.592 1.408-6.592 3.040zM0.416 27.744c0-2.912 3.68-5.152 8.064-5.152 0.608 0 1.216 0.032 1.792 0.16l-0.064-0.032 0.8 0.128 0.96 0.16c0.864 0.16 1.6 0.288 2.304 0.512l-0.16-0.032 0.352 0.096 0.224 0.064c0.416 0.128 0.864 0.192 1.312 0.224h0.032c0.64-0.064 1.248-0.192 1.824-0.352h-0.064l0.16-0.032 0.8-0.224c1.408-0.384 3.072-0.64 4.768-0.672h0.032c4.672 0 8.064 2.144 8.064 5.152v1.248c0 1.472-1.152 2.624-2.624 2.624v0h-25.952c-1.472 0-2.624-1.152-2.624-2.624v0zM16.032 2.112c-3.36 0-6.208 2.624-5.728 5.6l0.8 6.176c0.288 2.432 2.336 4.288 4.8 4.288 0.032 0 0.064 0 0.128 0v0c0.032 0 0.096 0 0.16 0 2.432 0 4.448-1.824 4.768-4.192v-0.032l0.8-6.208c0.448-3.008-2.4-5.632-5.728-5.632zM16.032 0.384c4.224 0 7.872 3.36 7.2 7.328l-0.8 6.688c-0.416 3.104-3.040 5.504-6.208 5.504-0.096 0-0.16-0.032-0.224-0.032h0.032c-0.064 0-0.16 0.032-0.224 0.032-3.168 0-5.792-2.4-6.208-5.472v-0.032l-0.8-6.688c-0.64-3.968 2.976-7.328 7.232-7.328z"></path>
</svg>
