<!-- Generated by IcoMoon.io -->
<svg version="1.1" xmlns="http://www.w3.org/2000/svg" width="32" height="32" viewBox="0 0 32 32">
<title>trash</title>
<path d="M16 1.344c2.944 0 5.472 2.112 6.048 5.024v0h6.304c0.704 0 1.248 0.544 1.248 1.248s-0.544 1.248-1.248 1.248v0h-1.216v18.112c0 2.432-1.952 4.384-4.32 4.384v0h-13.6c-2.4 0-4.352-1.952-4.352-4.384v0-18.112h-1.216c-0.704 0-1.248-0.576-1.248-1.248s0.544-1.248 1.248-1.248v0h6.304c0.576-2.912 3.104-5.024 6.048-5.024zM24.672 8.864h-17.312v18.112c0 1.056 0.832 1.888 1.856 1.888v0h13.6c1.024 0 1.856-0.832 1.856-1.888v0-18.112zM11.072 12.608c0.672 0 1.216 0.544 1.216 1.248v0 10.016c0 0.672-0.544 1.248-1.216 1.248s-1.248-0.576-1.248-1.248v0-10.016c0-0.704 0.544-1.248 1.248-1.248zM16 12.608c0.672 0 1.248 0.544 1.248 1.248v0 10.016c0 0.672-0.576 1.248-1.248 1.248s-1.248-0.576-1.248-1.248v0-10.016c0-0.704 0.576-1.248 1.248-1.248zM20.96 12.608c0.672 0 1.216 0.544 1.216 1.248v0 10.016c0 0.672-0.544 1.248-1.216 1.248s-1.248-0.576-1.248-1.248v0-10.016c0-0.704 0.544-1.248 1.248-1.248zM16 3.84c-1.568 0.032-2.976 1.024-3.488 2.528v0h6.976c-0.512-1.504-1.92-2.496-3.488-2.528z"></path>
</svg>
