<?xml version="1.0" encoding="UTF-8"?>
<svg width="24px" height="24px" viewBox="0 0 24 24" version="1.1" xmlns="http://www.w3.org/2000/svg" xmlns:xlink="http://www.w3.org/1999/xlink">
    <title>5244BC37-01D9-40D0-8A01-BABBFE19CD10</title>
    <g id="Styles" stroke="none" stroke-width="1" fill="none" fill-rule="evenodd">
        <g id="Icons" transform="translate(-951.000000, -600.000000)" fill="#444444">
            <g id="atoms/ico/24/add-24-copy-33" transform="translate(951.000000, 600.000000)">
                <g id="atoms/ico/20/chevron_down-20" transform="translate(4.000000, 4.000000)">
                    <path d="M0.72069713,0 L0.64558034,0.00932082127 L0.657507449,0.00939302063 C0.610003454,0.0134209373 0.564011996,0.0229334314 0.514738412,0.0377792249 L0.444827871,0.0623398279 L0.405087517,0.0816982885 L0.357608153,0.101332773 C0.348920125,0.105869744 0.337811982,0.111785182 0.323001126,0.119672432 L0.264422408,0.169838226 C0.232647847,0.197422047 0.197986129,0.232018155 0.166151054,0.271328343 C0.137175319,0.307211051 0.113151534,0.342631582 0.0922509352,0.381384689 C0.0705542909,0.421405565 0.0534916252,0.462890019 0.0392742182,0.508493078 L0.0212525667,0.578568331 L0.0139227472,0.629238411 L0.00642159948,0.659087452 C0.00468125608,0.670519792 0.00312083738,0.687245572 -4.12114787e-13,0.72069713 L0.00368595821,0.75914986 C0.00565432571,0.77841154 0.00692781485,0.786787625 0.0115311541,0.803243185 L0.00951457649,0.784992511 C0.0135081093,0.831345439 0.0228753211,0.876531052 0.0374620884,0.925305667 L0.0621820381,0.995990213 L0.0816470812,1.03588815 L0.0911477204,1.06331782 L0.119523137,1.11816731 L5.76461611,9.65628673 L5.76557704,15.1346397 C5.76557704,15.5328858 6.08802809,15.8553369 6.48627417,15.8553369 C6.88452025,15.8553369 7.2069713,15.5328858 7.2069713,15.1346397 L7.2069713,9.44132007 L7.19926287,9.33615472 C7.18392459,9.23214315 7.14593254,9.13236675 7.08740862,9.04379003 L2.06119379,1.44130038 L13.9190639,1.44130038 L8.77231212,9.03722309 C8.69151546,9.15595834 8.64836556,9.29687823 8.64836556,9.44132007 L8.64836556,15.1346397 C8.64836556,15.5328858 8.97081661,15.8553369 9.36906269,15.8553369 L9.46690241,15.8487619 C9.81881136,15.8010687 10.0897598,15.4996986 10.0897598,15.1346397 L10.0887989,9.66205231 L15.875904,1.12479574 C16.0991449,0.795216204 16.013001,0.347529349 15.6832957,0.123976538 L15.5825001,0.0671245503 C15.4783465,0.018937693 15.3651068,-0.00318615194 15.2516709,0.0013615961 L15.1972867,0.00648088668 L15.1346397,0 L0.72069713,0 Z" id="🌈-Color-Copy"></path>
                </g>
            </g>
        </g>
    </g>
</svg>