<?xml version="1.0" encoding="UTF-8"?>
<svg width="24px" height="24px" viewBox="0 0 24 24" version="1.1" xmlns="http://www.w3.org/2000/svg" xmlns:xlink="http://www.w3.org/1999/xlink">
    <title>atoms/ico/24/awarness-24 </title>
    <g id="atoms/ico/24/awarness-24-" stroke="none" stroke-width="1" fill="none" fill-rule="evenodd">
        <path d="M10.0527909,3.86646363 C10.6753989,2.79104971 12.0519177,2.42397804 13.1273316,3.04658609 C13.4675575,3.243559 13.7502362,3.52623771 13.9472091,3.86646363 L13.9472091,3.86646363 L22.3455382,18.3726684 C22.9681463,19.4480823 22.6010746,20.8246011 21.5256607,21.4472091 C21.1830637,21.6455548 20.7941999,21.75 20.3983291,21.75 L20.3983291,21.75 L3.60167093,21.75 C2.35903024,21.75 1.35167093,20.7426407 1.35167093,19.5 C1.35167093,19.1041292 1.45611614,18.7152654 1.65446178,18.3726684 L1.65446178,18.3726684 Z M12.3757772,4.34472552 C12.0173059,4.1371895 11.5584663,4.25954673 11.3509303,4.61801803 L11.3509303,4.61801803 L2.95260121,19.1242228 C2.886486,19.2384218 2.85167093,19.3680431 2.85167093,19.5 C2.85167093,19.9142136 3.18745736,20.25 3.60167093,20.25 L3.60167093,20.25 L20.3983291,20.25 C20.530286,20.25 20.6599073,20.2151849 20.7741063,20.1490697 C21.1325776,19.9415337 21.2549348,19.4826941 21.0473988,19.1242228 L21.0473988,19.1242228 L12.6490697,4.61801803 C12.5834121,4.50460939 12.4891858,4.41038316 12.3757772,4.34472552 Z M12,16.25 C12.3796958,16.25 12.693491,16.5321539 12.7431534,16.8982294 L12.75,17 L12.75,17.5 C12.75,17.9142136 12.4142136,18.25 12,18.25 C11.6203042,18.25 11.306509,17.9678461 11.2568466,17.6017706 L11.25,17.5 L11.25,17 C11.25,16.5857864 11.5857864,16.25 12,16.25 Z M12,7.75 C12.3796958,7.75 12.693491,8.03215388 12.7431534,8.39822944 L12.75,8.5 L12.75,13.5 C12.75,13.9142136 12.4142136,14.25 12,14.25 C11.6203042,14.25 11.306509,13.9678461 11.2568466,13.6017706 L11.25,13.5 L11.25,8.5 C11.25,8.08578644 11.5857864,7.75 12,7.75 Z" id="Combined-Shape" fill="#EC0000"></path>
    </g>
</svg>