<?xml version="1.0" encoding="UTF-8"?>
<svg width="25px" height="24px" viewBox="0 0 25 24" version="1.1" xmlns="http://www.w3.org/2000/svg" xmlns:xlink="http://www.w3.org/1999/xlink">
    <title>D3F2B11A-8DD8-48FD-9DD7-E7C369B426A4</title>
    <g id="Styles" stroke="none" stroke-width="1" fill="none" fill-rule="evenodd">
        <g id="Icons" transform="translate(-455.000000, -476.000000)">
            <g id="atoms/ico/24/add-24-copy-4" transform="translate(455.166667, 476.000000)">
                <path d="M5.39818221,1.75684232 L5.5,1.75 L13.5,1.75 C13.6760835,1.75 13.8386065,1.81357636 13.9582281,1.91096501 L14.0246182,1.97321757 L14.0793035,2.0421564 L18.9959902,6.95941927 C19.128911,7.07796604 19.2166928,7.23532289 19.2422612,7.4093705 L19.25,7.515625 L19.25,9.764 L19.3288181,9.77225595 C20.3073959,9.91121419 21.0840864,10.6855789 21.2265714,11.6630318 L21.2443725,11.8277469 L21.25,11.9873047 L21.25,16.0126953 C21.25,17.0828604 20.4949762,17.9797974 19.4895731,18.1988618 L19.3288181,18.2277441 L19.25,18.236 L19.25,21.5 C19.25,21.8453653 19.0169711,22.1359551 18.6994578,22.2232249 L18.6018178,22.2431577 L18.5,22.25 L5.5,22.25 C5.12009814,22.25 4.80647469,21.968035 4.75684232,21.6018178 L4.75,21.5 L4.75,18.236 L4.67118191,18.2277441 C3.69260411,18.0887858 2.91591358,17.3144211 2.77342863,16.3369682 L2.75562754,16.1722531 L2.75,16.0126953 L2.75,11.9873047 C2.75,10.9171396 3.50502384,10.0202026 4.51042692,9.80113819 L4.67118191,9.77225595 L4.75,9.763 L4.75,2.5 C4.75,2.15463468 4.9830289,1.86404489 5.30054223,1.77677511 L5.39818221,1.75684232 Z M17.75,18.25 L6.25,18.25 L6.25,20.75 L17.75,20.75 L17.75,18.25 Z M19.0126953,11.25 L4.9873047,11.25 C4.61525343,11.25 4.3057554,11.5284938 4.25675608,11.8875358 L4.25,11.9873047 L4.25,16.0126953 C4.25,16.3847466 4.52849376,16.6942446 4.8875358,16.7432439 L4.9873047,16.75 L19.0126953,16.75 C19.3847466,16.75 19.6942446,16.4715062 19.7432439,16.1124642 L19.75,16.0126953 L19.75,11.9873047 C19.75,11.5814306 19.4185694,11.25 19.0126953,11.25 Z M12.753,3.25 L6.25,3.25 L6.25,9.75 L17.75,9.75 L17.75,8.262 L13.5205947,8.25 C13.1428785,8.24865418 12.8310529,7.96857282 12.7805792,7.60438794 L12.7734403,7.50312581 L12.753,3.25 Z M14.258,4.342 L14.27,6.752 L16.675,6.759 L14.258,4.342 Z" id="🌈-Color" fill="#767676"></path>
                <path d="M19,9.75 C20.190864,9.75 21.1656449,10.6751616 21.2448092,11.8459512 L21.25,12 L21.25,16 C21.25,17.190864 20.3248384,18.1656449 19.1540488,18.2448092 L19,18.25 L5,18.25 C3.80913601,18.25 2.83435508,17.3248384 2.75519081,16.1540488 L2.75,16 L2.75,12 C2.75,10.809136 3.67516159,9.83435508 4.84595119,9.75519081 L5,9.75 L19,9.75 Z M19,11.25 L5,11.25 C4.62030423,11.25 4.30650904,11.5321539 4.25684662,11.8982294 L4.25,12 L4.25,16 C4.25,16.3796958 4.53215388,16.693491 4.89822944,16.7431534 L5,16.75 L19,16.75 C19.3796958,16.75 19.693491,16.4678461 19.7431534,16.1017706 L19.75,16 L19.75,12 C19.75,11.5857864 19.4142136,11.25 19,11.25 Z" id="Combined-Shape" fill="#990000" fill-rule="nonzero"></path>
                <path d="M8.4741211,11.8862305 C9.07016898,11.8862305 9.50825394,12.0158197 9.78374601,12.2837497 C10.0578265,12.5492315 10.1948242,12.8991273 10.1948242,13.3256836 C10.1948242,13.6243856 10.1308501,13.8869185 10.0015018,14.1124763 C9.87062969,14.3406914 9.67808559,14.5178429 9.42612723,14.6427544 C9.22677689,14.7415848 8.99661917,14.8006113 8.73691729,14.8202687 L8.5366211,14.8276368 L8.239,14.827 L8.2397461,15.994629 L8.1147461,16.119629 L7.3842773,16.119629 L7.2592773,15.994629 L7.2592773,12.1059571 L7.36385483,11.9826367 C7.51940991,11.956876 7.70059753,11.9340414 7.90703159,11.9140976 C8.10989037,11.8954777 8.29958165,11.8862305 8.4741211,11.8862305 Z M8.4916992,12.7368165 L8.31088491,12.7422305 L8.239,12.748 L8.239,13.981 L8.5307617,13.9819336 C8.71260383,13.9819336 8.85416169,13.9462584 8.95806037,13.8774397 L9.0289643,13.8196508 C9.13694709,13.7108741 9.1918945,13.5581526 9.1918945,13.354004 C9.1918945,12.931302 8.97552221,12.7368165 8.4916992,12.7368165 Z" id="Shape" fill="#990000" fill-rule="nonzero"></path>
                <path d="M11.7495117,11.8803711 C12.4572276,11.8803711 12.9875787,12.0723723 13.3323359,12.461546 C13.6724529,12.8454817 13.8413087,13.3642213 13.8413087,14.0112305 C13.8413087,14.4485495 13.7644957,14.8249077 13.609583,15.1399303 C13.4513616,15.4595375 13.2158784,15.7040166 12.9045218,15.8712654 C12.6477255,16.0096742 12.3425397,16.0898763 11.9895201,16.1127657 L11.7719727,16.1196289 L10.6147461,16.1196289 L10.4897461,15.9946289 L10.4897461,12.1118164 L10.5880558,11.9896991 C10.9227611,11.9165449 11.3091975,11.8803711 11.7495117,11.8803711 Z M11.7553711,12.7592773 L11.6164044,12.7617023 L11.47,12.769 L11.47,15.24 L11.7895508,15.2407226 C12.1036826,15.2407226 12.3384283,15.1686541 12.500665,15.0269113 L12.5757728,14.9502447 C12.7415665,14.7533648 12.8276368,14.44136 12.8276368,14.0112304 C12.8276368,13.5849169 12.738803,13.2699607 12.5663053,13.0626143 C12.4001489,12.8618772 12.1330873,12.7592773 11.7553711,12.7592773 Z" id="Shape" fill="#990000" fill-rule="nonzero"></path>
                <path d="M16.6157227,11.980957 L14.340332,11.980957 L14.215332,12.105957 L14.215332,15.9946289 L14.340332,16.1196289 L15.0708008,16.1196289 L15.1958008,15.9946289 L15.195,14.489 L16.4135742,14.4897461 L16.5357587,14.3911269 C16.5562703,14.2961258 16.5722324,14.1867082 16.5830149,14.0641804 L16.5982151,13.8386783 C16.5994727,13.8031854 16.6000977,13.7688499 16.6000977,13.7358399 L16.4750977,13.6108399 L15.195,13.61 L15.195,12.854 L16.5541992,12.8549805 L16.6763837,12.7563613 C16.6967142,12.662199 16.7127488,12.5540949 16.7235992,12.4357269 C16.735121,12.3195847 16.7407227,12.2088234 16.7407227,12.105957 L16.6157227,11.980957 Z" id="Path" fill="#990000" fill-rule="nonzero"></path>
            </g>
        </g>
    </g>
</svg>