<?xml version="1.0" encoding="utf-8"?>
<!-- Generator: Adobe Illustrator 22.1.0, SVG Export Plug-In . SVG Version: 6.00 Build 0)  -->
<svg version="1.1" id="Capa_1" xmlns="http://www.w3.org/2000/svg" xmlns:xlink="http://www.w3.org/1999/xlink" x="0px" y="0px"
	 width="24px" height="25px" viewBox="0 0 24 25" style="enable-background:new 0 0 24 25;" xml:space="preserve">
<style type="text/css">
	.st0{fill:#F9F9F9;}
</style>
<title>Group 3</title>
<desc>Created with Sketch.</desc>
<g id="Desktop">
	<g id="_x32_8---Santander-CGB" transform="translate(-453.000000, -372.000000)">
		<g id="Group-3" transform="translate(453.000000, 372.000000)">
			<path id="Shape-Copy" class="st0" d="M20.1,1.9c-1.8,0-3.2,1.4-3.2,3.2s1.4,3.2,3.2,3.2s3.2-1.4,3.2-3.2S21.9,1.9,20.1,1.9z
				 M20.1,7.6c-1.4,0-2.5-1.1-2.5-2.5s1.1-2.5,2.5-2.5c1.4,0,2.5,1.1,2.5,2.5S21.5,7.6,20.1,7.6z"/>
			<path id="Shape-Copy-2" class="st0" d="M21.2,5.9c0-0.1,0-0.1-0.1-0.2c0,0,0-0.1-0.1-0.2c0,0-0.1-0.1-0.1-0.1
				c0,0-0.1-0.1-0.2-0.1c0,0-0.1-0.1-0.2-0.1c-0.1,0-0.1-0.1-0.2-0.1c-0.1,0-0.1,0-0.2-0.1c0,0-0.1,0-0.1,0c0,0-0.1,0-0.1,0
				c0,0-0.1,0-0.1,0s0,0-0.1-0.1c0,0,0,0,0-0.1c0,0,0-0.1,0-0.1c0,0,0-0.1,0-0.1c0,0,0-0.1,0-0.1c0,0,0-0.1,0-0.1c0,0,0,0,0.1-0.1
				c0,0,0.1,0,0.1,0c0,0,0.1,0,0.1,0c0,0,0,0,0.1,0c0,0,0,0,0.1,0c0,0,0.1,0,0.1,0c0,0,0.1,0,0.1,0s0.1,0,0.1,0c0,0,0.1,0,0.1,0
				l0.1,0l0-0.1l0-0.4V3.9l-0.1,0c0,0-0.1,0-0.1,0s0,0-0.1,0c0,0-0.1,0-0.1,0s-0.1,0-0.1,0h0V3.4V3.3h-0.1h-0.3h-0.1v0.1v0.3h0
				c-0.1,0-0.1,0-0.2,0.1c-0.1,0-0.1,0.1-0.2,0.1c0,0-0.1,0.1-0.1,0.2c0,0-0.1,0.1-0.1,0.2c0,0.1,0,0.1-0.1,0.2c0,0.1,0,0.2,0,0.2
				c0,0.1,0,0.1,0,0.2c0,0.1,0,0.1,0.1,0.2c0,0,0.1,0.1,0.1,0.2c0,0,0.1,0.1,0.1,0.1c0,0,0.1,0.1,0.2,0.1c0,0,0.1,0.1,0.2,0.1
				c0.1,0,0.1,0.1,0.2,0.1c0.1,0,0.1,0,0.2,0.1c0,0,0.1,0,0.1,0c0,0,0.1,0,0.1,0c0,0,0,0,0.1,0c0,0,0,0,0.1,0.1c0,0,0,0,0,0.1
				c0,0,0,0.1,0,0.1c0,0,0,0.1,0,0.1c0,0,0,0.1,0,0.1c0,0,0,0-0.1,0.1c0,0,0,0-0.1,0.1c0,0-0.1,0-0.1,0c0,0-0.1,0-0.1,0
				c0,0,0,0-0.1,0c0,0-0.1,0-0.1,0c0,0-0.1,0-0.1,0c0,0-0.1,0-0.1,0c0,0-0.1,0-0.1,0c0,0-0.1,0-0.1,0c0,0,0,0-0.1,0c0,0,0,0-0.1,0
				l-0.1-0.1l0,0.2l0,0.4V7l0.1,0c0.1,0,0.1,0,0.2,0c0,0,0.1,0,0.2,0c0,0,0.1,0,0.2,0s0.1,0,0.2,0h0v0.3v0.1H20h0.3h0.1V7.4V7.1h0
				c0.1,0,0.1,0,0.2-0.1c0.1,0,0.1-0.1,0.2-0.1c0,0,0.1-0.1,0.1-0.2c0,0,0.1-0.1,0.1-0.2c0-0.1,0-0.1,0.1-0.2s0-0.1,0-0.2
				C21.2,6.1,21.2,6,21.2,5.9z"/>
			<path id="Shape-Copy-3" class="st0" d="M18.3,9.1c-0.1-0.2-0.4-0.2-0.5-0.1L14,12.1L9.2,10c-0.1,0-0.3,0-0.3,0l-5.2,3.8
				c-0.2,0.1-0.2,0.4-0.1,0.5c0.1,0.1,0.2,0.2,0.3,0.2c0.1,0,0.1,0,0.2-0.1l5-3.7l4.8,2.1c0.1,0,0.3,0,0.4,0l3.9-3.2
				C18.4,9.5,18.4,9.3,18.3,9.1z"/>
			<path id="Shape-Copy-4" class="st0" d="M23.7,22.3H22V11.5c0-0.2-0.2-0.4-0.4-0.4h-3.3c-0.2,0-0.4,0.2-0.4,0.4v10.9h-1.2v-7.1
				c0-0.2-0.2-0.4-0.4-0.4H13c-0.2,0-0.4,0.2-0.4,0.4v7.1h-1.2v-7.7c0-0.2-0.2-0.4-0.4-0.4H7.7c-0.2,0-0.4,0.2-0.4,0.4v7.7H6.1v-5.5
				c0-0.2-0.2-0.4-0.4-0.4H2.4c-0.2,0-0.4,0.2-0.4,0.4v5.5H0.4c-0.2,0-0.4,0.2-0.4,0.4s0.2,0.4,0.4,0.4h2h3.3h2H11H13h3.3h1.9h3.3h2
				c0.2,0,0.4-0.2,0.4-0.4C24,22.5,23.9,22.3,23.7,22.3z M5.4,22.3H2.8v-5.1h2.6V22.3z M10.7,22.3H8.1V15h2.6V22.3z M16,22.3h-2.6
				v-6.7H16V22.3z M21.3,22.3h-2.6V11.8h2.6V22.3z"/>
		</g>
	</g>
</g>
</svg>
