<?xml version="1.0" encoding="UTF-8"?>
<svg width="13px" height="14px" viewBox="0 0 13 14" version="1.1" xmlns="http://www.w3.org/2000/svg" xmlns:xlink="http://www.w3.org/1999/xlink">
    <!-- Generator: Sketch 50.2 (55047) - http://www.bohemiancoding.com/sketch -->
    <title>Shape</title>
    <desc>Created with Sketch.</desc>
    <defs></defs>
    <g id="Symbols" stroke="none" stroke-width="1" fill="none" fill-rule="evenodd">
        <g id="CARDS/-Fx-1024" transform="translate(-241.000000, -274.000000)" fill="#63BA68" fill-rule="nonzero">
            <g id="Group-3">
                <g id="CARDS/-Fx">
                    <g id="Group-7" transform="translate(52.252252, 109.726115)">
                        <g id="Group-19">
                            <g id="Group-6-Copy-2">
                                <g id="Group-5" transform="translate(15.913570, 163.050955)">
                                    <g id="Group-2" transform="translate(33.699324, 1.025478)">
                                        <path d="M150.993638,5.17449374 C150.993638,4.84220743 151.261248,4.57809617 151.597937,4.57809617 C151.934625,4.57809617 152.210938,4.84220743 152.210938,5.17449374 L152.210938,12.7322628 C152.210938,13.0645491 151.934625,13.3372493 151.597937,13.3372493 L143.94875,13.3372493 C143.612062,13.3372493 143.335749,13.0645491 143.335749,12.7322628 C143.335749,12.3999765 143.612062,12.1272762 143.94875,12.1272762 L150.129889,12.1272762 L139.917195,2.05615578 C139.683852,1.81781147 139.683852,1.44258024 139.917195,1.20423593 C140.158696,0.965891631 140.547601,0.965891631 140.7804,1.20423593 L150.993638,11.2839454 L150.993638,5.17449374 Z" id="Shape" transform="translate(145.976563, 7.181364) rotate(-90.000000) translate(-145.976563, -7.181364) "></path>
                                    </g>
                                </g>
                            </g>
                        </g>
                    </g>
                </g>
            </g>
        </g>
    </g>
</svg>