<?xml version="1.0" encoding="UTF-8"?>
<svg width="24px" height="24px" viewBox="0 0 24 24" version="1.1" xmlns="http://www.w3.org/2000/svg" xmlns:xlink="http://www.w3.org/1999/xlink">
    <title>5CCDC3B5-8F7D-44AB-AFE7-C442C1B4C482</title>
    <g id="Styles" stroke="none" stroke-width="1" fill="none" fill-rule="evenodd">
        <g id="Icons" transform="translate(-1076.000000, -600.000000)" fill="#444444">
            <g id="atoms/ico/24/add-24-copy-34" transform="translate(1076.000000, 600.000000)">
                <path d="M20.7,3.3 C21.2522847,3.3 21.7,3.74771525 21.7,4.3 L21.7,20.9 C21.7,21.4522847 21.2522847,21.9 20.7,21.9 L3,21.9 C2.44771525,21.9 2,21.4522847 2,20.9 L2,4.3 C2,3.74771525 2.44771525,3.3 3,3.3 L20.7,3.3 Z M16.8108274,4.66727436 L12.3383823,4.66727436 L6.38024237,20.3029116 L8.91577994,20.3029116 L10.234626,16.7628212 C10.3447364,16.4672595 10.5878335,16.2409682 10.8905131,16.1522773 L10.8905131,16.1522773 L14.3397183,15.1415939 L14.3397183,20.3029116 L16.8108274,20.3029116 L16.8108274,4.66727436 Z M14.3725725,7.21091882 L14.3725725,12.9591329 L11.1332286,14.0542035 L13.4846544,7.21091882 L14.3725725,7.21091882 Z" id="Combined-Shape"></path>
            </g>
        </g>
    </g>
</svg>