<?xml version="1.0" encoding="UTF-8"?>
<svg width="24px" height="24px" viewBox="0 0 24 24" version="1.1" xmlns="http://www.w3.org/2000/svg" xmlns:xlink="http://www.w3.org/1999/xlink">
    <title>Atoms/ico/normal size/hide-24</title>
    <g id="Atoms/ico/normal-size/hide-24" stroke="none" stroke-width="1" fill="none" fill-rule="evenodd">
        <path d="M12.8534117,15.6950162 C13.2640792,15.6950162 13.6029723,16.0023194 13.6526797,16.3995148 L13.6589561,16.5005606 L13.6589561,19.7227383 C13.6589561,20.1676282 13.2983015,20.5282827 12.8534117,20.5282827 C12.4427441,20.5282827 12.103851,20.2209794 12.0541436,19.8237841 L12.0478672,19.7227383 L12.0478672,16.5005606 C12.0478672,16.0556707 12.4085218,15.6950162 12.8534117,15.6950162 Z M8.78270533,14.8588932 C9.13835391,15.064227 9.27819229,15.499806 9.12264248,15.868641 L9.07755506,15.9592874 L7.69662177,18.351134 C7.47417682,18.7364199 6.98151358,18.8684287 6.59622763,18.6459837 C6.24057905,18.4406499 6.10074067,18.0050709 6.25629048,17.636236 L6.3013779,17.5455896 L7.68231119,15.153743 C7.90475614,14.768457 8.39741938,14.6364483 8.78270533,14.8588932 Z M16.4638069,14.8588932 C16.8490928,14.6364483 17.3417561,14.768457 17.564201,15.153743 L17.564201,15.153743 L18.9451343,17.5455896 L18.9902217,17.636236 C19.1457715,18.0050709 19.0059331,18.4406499 18.6502846,18.6459837 C18.2649986,18.8684287 17.7723354,18.7364199 17.5498904,18.351134 L17.5498904,18.351134 L16.1689571,15.9592874 L16.1238697,15.868641 C15.9683199,15.499806 16.1081583,15.064227 16.4638069,14.8588932 Z M4.67710674,12.7598536 C4.96547601,13.0482228 4.98950678,13.500831 4.74919905,13.8165734 L4.67710674,13.8990654 L3.37515034,15.2010218 C3.06056568,15.5156065 2.55052316,15.5156065 2.2359385,15.2010218 C1.94756922,14.9126525 1.92353845,14.4600444 2.16384618,14.1443019 L2.2359385,14.0618099 L3.53789489,12.7598536 C3.85247956,12.4452689 4.36252207,12.4452689 4.67710674,12.7598536 Z M20.3228933,12.7598536 C20.6374779,12.4452689 21.1475204,12.4452689 21.4621051,12.7598536 L21.4621051,12.7598536 L22.7640615,14.0618099 L22.8361538,14.1443019 C23.0764615,14.4600444 23.0524308,14.9126525 22.7640615,15.2010218 C22.4494768,15.5156065 21.9394343,15.5156065 21.6248497,15.2010218 L21.6248497,15.2010218 L20.3228933,13.8990654 L20.2508009,13.8165734 C20.0104932,13.500831 20.034524,13.0482228 20.3228933,12.7598536 Z M21.7539289,7.08204509 C22.153607,7.27745345 22.3192004,7.75986636 22.123792,8.15954447 C20.0151207,12.472511 16.3429301,15.081617 12.2934947,15.081617 C8.2440593,15.081617 4.5718687,12.472511 2.46319739,8.15954447 C2.26778902,7.75986636 2.43338237,7.27745345 2.83306048,7.08204509 C3.23273859,6.88663672 3.71515149,7.05223006 3.91055986,7.45190817 C5.7635631,11.2419446 8.90018683,13.4705282 12.2934947,13.4705282 C15.6868026,13.4705282 18.8234263,11.2419446 20.6764296,7.45190817 C20.8718379,7.05223006 21.3542508,6.88663672 21.7539289,7.08204509 Z" id="Combined-Shape" fill="#EC0000"></path>
    </g>
</svg>