<!-- Generated by IcoMoon.io -->
<svg version="1.1" xmlns="http://www.w3.org/2000/svg" width="32" height="32" viewBox="0 0 32 32">
<title>eye-hide</title>
<path d="M16.672 18.656c0.576 0 1.088 0.448 1.152 1.024v4.8c0 0.672-0.512 1.184-1.152 1.184-0.608 0-1.088-0.448-1.152-1.024l-0.032-0.16v-4.64c0-0.672 0.544-1.184 1.184-1.184zM10.784 17.44c0.512 0.32 0.704 0.928 0.48 1.472l-0.064 0.128-2.016 3.456c-0.32 0.576-1.024 0.768-1.568 0.448-0.512-0.32-0.736-0.928-0.512-1.472l0.064-0.128 2.016-3.456c0.32-0.576 1.024-0.768 1.6-0.448zM21.888 17.44c0.576-0.32 1.28-0.128 1.6 0.448v0l2.016 3.456 0.064 0.128c0.224 0.544 0 1.152-0.512 1.472-0.544 0.32-1.248 0.128-1.6-0.448v0l-1.984-3.456-0.064-0.128c-0.224-0.544-0.032-1.152 0.48-1.472zM4.832 14.4c0.416 0.416 0.448 1.088 0.096 1.536l-0.096 0.128-1.888 1.888c-0.448 0.448-1.184 0.448-1.664 0-0.416-0.416-0.448-1.088-0.096-1.536l0.096-0.128 1.888-1.888c0.48-0.448 1.216-0.448 1.664 0zM27.488 14.4c0.448-0.448 1.184-0.448 1.664 0v0l1.856 1.888 0.128 0.128c0.352 0.448 0.288 1.12-0.128 1.536-0.448 0.448-1.184 0.448-1.632 0v0l-1.888-1.888-0.096-0.128c-0.352-0.448-0.32-1.12 0.096-1.536zM29.568 6.176c0.576 0.288 0.8 0.992 0.512 1.568-3.040 6.24-8.352 10.016-14.208 10.016s-11.2-3.776-14.24-10.016c-0.288-0.576-0.064-1.28 0.512-1.568s1.28-0.032 1.568 0.544c2.688 5.504 7.232 8.704 12.16 8.704s9.44-3.2 12.128-8.704c0.288-0.576 0.992-0.8 1.568-0.544z"></path>
</svg>
