<?xml version="1.0" encoding="UTF-8" standalone="no"?>
<!-- Generated by IcoMoon.io -->

<svg
   xmlns:dc="http://purl.org/dc/elements/1.1/"
   xmlns:cc="http://creativecommons.org/ns#"
   xmlns:rdf="http://www.w3.org/1999/02/22-rdf-syntax-ns#"
   xmlns:svg="http://www.w3.org/2000/svg"
   xmlns="http://www.w3.org/2000/svg"
   xmlns:sodipodi="http://sodipodi.sourceforge.net/DTD/sodipodi-0.dtd"
   xmlns:inkscape="http://www.inkscape.org/namespaces/inkscape"
   version="1.1"
   width="32"
   height="32"
   viewBox="0 0 32 32"
   id="svg24"
   sodipodi:docname="i-boat.svg"
   inkscape:version="0.92.3 (2405546, 2018-03-11)">
  <metadata
     id="metadata30">
    <rdf:RDF>
      <cc:Work
         rdf:about="">
        <dc:format>image/svg+xml</dc:format>
        <dc:type
           rdf:resource="http://purl.org/dc/dcmitype/StillImage" />
      </cc:Work>
    </rdf:RDF>
  </metadata>
  <defs
     id="defs28" />
  <sodipodi:namedview
     pagecolor="#ffffff"
     bordercolor="#666666"
     borderopacity="1"
     objecttolerance="10"
     gridtolerance="10"
     guidetolerance="10"
     inkscape:pageopacity="0"
     inkscape:pageshadow="2"
     inkscape:window-width="1920"
     inkscape:window-height="1017"
     id="namedview26"
     showgrid="false"
     inkscape:zoom="7.375"
     inkscape:cx="16"
     inkscape:cy="16"
     inkscape:window-x="-8"
     inkscape:window-y="-8"
     inkscape:window-maximized="1"
     inkscape:current-layer="svg24" />
  <title
     id="title2">i-boat</title>
  <path
     d="M31.648 18.2h-31.296c-0.115 0.001-0.216 0.057-0.279 0.143l-0.001 0.001c-0.045 0.057-0.072 0.129-0.072 0.208 0 0.037 0.006 0.073 0.017 0.106l-0.001-0.002 1.504 5.040c0.928 3.104 3.72 4.8 7.864 4.8h16c1.385-0.005 2.576-0.832 3.111-2.018l0.009-0.022 3.496-7.76c0.026-0.049 0.042-0.107 0.042-0.168s-0.015-0.119-0.043-0.17l0.001 0.002c-0.061-0.1-0.17-0.165-0.294-0.165-0.021 0-0.041 0.002-0.060 0.005l0.002-0zM30.992 19.2l-2.92 6.608c-0.543 1.204-1.731 2.027-3.111 2.032h-15.577c-2.696 0-6.128-0.752-7.2-4.312l-1.288-4.392-0.096-0.224h30.296z"
     id="path4"
     style="fill:#ec0000;fill-opacity:1" />
  <path
     d="M23.512 13.976c0-0.002 0-0.005 0-0.008 0-1.195-0.966-2.163-2.16-2.168h-14.4c-1.19 0.009-2.152 0.976-2.152 2.168 0 0.003 0 0.006 0 0.008v-0 4.576c-0 0.002-0 0.005-0 0.008 0 0.194 0.158 0.352 0.352 0.352 0 0 0 0 0 0h18.048c0.195-0.004 0.352-0.164 0.352-0.36 0-0 0-0 0-0v0zM22.808 18.024v0.176h-17.328v-4.224c0 0 0 0 0-0 0-0.806 0.651-1.459 1.456-1.464h14.4c0.809 0 1.464 0.655 1.464 1.464v0z"
     id="path6"
     style="fill:#ec0000;fill-opacity:1" />
  <path
     d="M9.544 12.16c0.004 0.195 0.164 0.352 0.36 0.352 0 0 0 0 0 0h3.2c0 0 0 0 0 0 0.196 0 0.355-0.157 0.36-0.352v-4c-0.004-0.195-0.164-0.352-0.36-0.352-0 0-0 0-0 0h-3.2c-0 0-0 0-0 0-0.196 0-0.355 0.157-0.36 0.352v0zM10.256 11.624v-3.144h2.472v3.32h-2.472z"
     id="path8"
     style="fill:#ec0000;fill-opacity:1" />
  <path
     d="M18.92 4.864h-3.2c-0.199 0-0.36 0.161-0.36 0.36v6.936c0.004 0.195 0.164 0.352 0.36 0.352 0 0 0 0 0 0h3.2c0.194 0 0.352-0.158 0.352-0.352v0-6.936c0-0 0-0 0-0 0-0.196-0.157-0.355-0.352-0.36h-0zM18.56 5.76v6.040h-2.472v-6.2h2.472z"
     id="path10"
     style="fill:#ec0000;fill-opacity:1" />
  <path
     d="M28.992 13.952h-1.6c-0.194 0-0.352 0.158-0.352 0.352v0 4.248c0 0 0 0 0 0 0 0.196 0.157 0.355 0.352 0.36h1.6c0 0 0 0 0 0 0.194 0 0.352-0.158 0.352-0.352 0-0.003-0-0.006-0-0.008v0-4.248c0-0.194-0.158-0.352-0.352-0.352v0zM28.64 14.84v3.36h-0.88v-3.536h0.88z"
     id="path12"
     style="fill:#ec0000;fill-opacity:1" />
  <path
     d="M13.712 13.936c-0.002 0-0.005-0-0.008-0-0.786 0-1.424 0.638-1.424 1.424s0.638 1.424 1.424 1.424c0.786 0 1.424-0.638 1.424-1.424v0c0-0.002 0-0.005 0-0.008 0-0.782-0.634-1.416-1.416-1.416 0 0-0 0-0 0v0zM13.712 16.064c-0.007 0-0.016 0-0.024 0-0.393 0-0.712-0.319-0.712-0.712s0.319-0.712 0.712-0.712c0.393 0 0.712 0.319 0.712 0.712 0 0.003 0 0.005-0 0.008v-0c0 0.389-0.315 0.704-0.704 0.704v0z"
     id="path14"
     style="fill:#ec0000;fill-opacity:1" />
  <path
     d="M19.152 13.936c-0.005-0-0.010-0-0.016-0-0.786 0-1.424 0.638-1.424 1.424s0.638 1.424 1.424 1.424c0.786 0 1.424-0.637 1.424-1.424v0c0-0.002 0-0.005 0-0.008 0-0.779-0.629-1.411-1.408-1.416h-0zM19.152 16.064c-0.002 0-0.005 0-0.008 0-0.393 0-0.712-0.319-0.712-0.712s0.319-0.712 0.712-0.712c0.393 0 0.712 0.319 0.712 0.712 0 0.003-0 0.006-0 0.008v-0c-0.004 0.387-0.317 0.7-0.704 0.704h-0z"
     id="path16"
     style="fill:#ec0000;fill-opacity:1" />
  <path
     d="M14.552 22.112h15.384c0.174-0.027 0.306-0.176 0.306-0.356s-0.132-0.329-0.304-0.356l-0.002-0h-15.384c-0.174 0.027-0.306 0.176-0.306 0.356s0.132 0.329 0.304 0.356l0.002 0z"
     id="path18"
     style="fill:#ec0000;fill-opacity:1" />
  <path
     d="M28.952 23.528h-7.952c-0.199 0-0.36 0.161-0.36 0.36s0.161 0.36 0.36 0.36h7.952c0.199 0 0.36-0.161 0.36-0.36s-0.161-0.36-0.36-0.36v0z"
     id="path20"
     style="fill:#ec0000;fill-opacity:1" />
  <path
     d="M28.496 13.072c0.107-0.010 0.199-0.067 0.255-0.151l0.001-0.001 0.048-0.072c0.408-0.6 1.664-2.4 1.248-4-0.231-0.753-0.776-1.348-1.479-1.642l-0.017-0.006c-2.504-1.232-1.504-3.368-1.464-3.456 0.022-0.044 0.035-0.097 0.035-0.152 0-0.192-0.155-0.347-0.347-0.347-0.136 0-0.254 0.079-0.311 0.193l-0.001 0.002c-0.185 0.396-0.293 0.86-0.293 1.349 0 1.374 0.851 2.549 2.055 3.027l0.022 0.008c0.544 0.222 0.957 0.671 1.124 1.226l0.004 0.014c0.224 0.848-0.16 2-1.144 3.424l-0.056 0.080c-0.037 0.054-0.059 0.121-0.059 0.193 0 0.12 0.061 0.225 0.154 0.287l0.001 0.001c0.053 0.041 0.121 0.065 0.194 0.065 0.011 0 0.021-0.001 0.031-0.002l-0.001 0z"
     id="path22"
     style="fill:#ec0000;fill-opacity:1" />
</svg>
