<svg xmlns="http://www.w3.org/2000/svg" width="74" height="74"><path fill="#EC0000" fill-rule="evenodd" stroke="#EC0000" stroke-width=".4" d="M15.09 58.448V46.805c0-.428.347-.776.774-.776h10.045v-5.433c0-.429.346-.776.773-.776h10.045v-5.433c0-.429.346-.776.773-.776h10.045v-5.434c0-.148.081-.336.243-.564.216-.141.393-.212.53-.212h10.818c.427 0 .773.348.773.776v30.27h2.318V60H12.773v-1.552h2.318zm34-29.494v29.494h9.274V28.954H49.09zM38.274 58.448h9.272V35.163h-9.272v23.285zm-10.818 0h9.272V41.372h-9.272v17.076zm-10.819 0h9.273V47.58h-9.273v10.867zm9.402-31.894l4.532 1.22a.777.777 0 0 1-.4 1.5l-6.334-1.705a.777.777 0 0 1-.546-.95l1.697-6.362a.772.772 0 1 1 1.493.401l-1.214 4.552 19.13-11.094.772 1.345-19.13 11.093z"/></svg>