<?xml version="1.0" encoding="UTF-8"?>
<svg width="20px" height="20px" viewBox="0 0 20 20" version="1.1" xmlns="http://www.w3.org/2000/svg" xmlns:xlink="http://www.w3.org/1999/xlink">
    <title>atoms/ico/24/agenda_pending-24</title>
    <g id="🔺-Supplier" stroke="none" stroke-width="1" fill="none" fill-rule="evenodd">
        <g id="CV-Supp---Offer-Detail---candidate-actions" transform="translate(-1188.000000, -509.000000)" fill="#EC0000">
            <g id="Group-2" transform="translate(1170.000000, 411.000000)">
                <g id="Group" transform="translate(16.000000, 16.000000)">
                    <g id="atoms/ico/24/password-24-copy-3" transform="translate(0.000000, 80.000000)">
                        <path d="M17.4897,2 C17.7657,2 17.9897,2.224 17.9897,2.5 L17.989,3.999 L20.1920112,3.9999 C21.189108,3.9999 22,4.80982011 22,5.80449387 L22,20.1963048 C22,21.1909786 21.189108,21.9999 20.1920112,21.9999 L3.80898989,21.9999 C2.81189308,21.9999 2,21.1909786 2,20.1963048 L2,5.80449387 C2,4.80982011 2.81189308,3.9999 3.80898989,3.9999 L6.01,3.999 L6.0103,2.5 C6.0103,2.224 6.2343,2 6.5103,2 C6.7863,2 7.0103,2.224 7.0103,2.5 L7.01,3.999 L16.989,3.999 L16.9897,2.5 C16.9897,2.224 17.2137,2 17.4897,2 Z M20.998,8.999 L3.001,8.999 L3.001,20.1963048 C3.001,20.6397136 3.36349985,21.0012316 3.80898989,21.0012316 L20.1920112,21.0012316 C20.6375013,21.0012316 20.9988988,20.6397136 20.9988988,20.1963048 L20.998,8.999 Z M6.01,4.998 L3.80898989,4.99856844 C3.36349985,4.99856844 3.001,5.36008642 3.001,5.80449387 L3.001,7.999 L20.998,7.999 L20.9988988,5.80449387 C20.9988988,5.36008642 20.6375013,4.99856844 20.1920112,4.99856844 L17.989,4.998 L17.9897,6.499 C17.9897,6.775 17.7657,6.999 17.4897,6.999 C17.2137,6.999 16.9897,6.775 16.9897,6.499 L16.989,4.998 L7.01,4.998 L7.0103,6.499 C7.0103,6.775 6.7863,6.999 6.5103,6.999 C6.2343,6.999 6.0103,6.775 6.0103,6.499 L6.01,4.998 Z M12.8822,18.95189 L12.8822,18.17789 C12.8822,17.9017476 12.6583424,17.67789 12.3822,17.67789 C12.1060576,17.67789 11.8822,17.9017476 11.8822,18.17789 L11.8822,18.95189 C11.8822,19.2280324 12.1060576,19.45189 12.3822,19.45189 C12.6583424,19.45189 12.8822,19.2280324 12.8822,18.95189 Z M11.0004,13.38259 C11.0004,12.5239986 11.7708711,11.86995 12.6369087,12.0220524 C13.1869992,12.1186998 13.6461244,12.5776098 13.7418324,13.1264803 C13.8401317,13.6879086 13.6053692,14.2207105 13.1628907,14.5230492 L13.0480161,14.5937158 C12.3367797,14.9857567 11.8824,15.6824485 11.8824,16.46459 L11.8824,16.62159 C11.8824,16.8977324 12.1062576,17.12159 12.3824,17.12159 C12.6585424,17.12159 12.8824,16.8977324 12.8824,16.62159 L12.8824,16.46459 C12.8824,16.1094394 13.0740317,15.776153 13.4016455,15.5493629 L13.5307662,15.469474 C14.4164301,14.9812402 14.9079192,13.9881875 14.7269079,12.9543577 C14.5588252,11.9904281 13.7746607,11.2066313 12.8099215,11.0371329 C11.329205,10.7770742 10.0004,11.9050893 10.0004,13.38259 C10.0004,13.6587324 10.2242576,13.88259 10.5004,13.88259 C10.7765424,13.88259 11.0004,13.6587324 11.0004,13.38259 Z" id="icon-color"></path>
                    </g>
                </g>
            </g>
        </g>
    </g>
</svg>