<?xml version="1.0" encoding="UTF-8"?>
<svg width="20px" height="20px" viewBox="0 0 20 20" version="1.1" xmlns="http://www.w3.org/2000/svg" xmlns:xlink="http://www.w3.org/1999/xlink">
    <title>icon</title>
    <defs>
        <filter id="filter-1">
            <feColorMatrix in="SourceGraphic" type="matrix" values="0 0 0 0 0.800000 0 0 0 0 0.000000 0 0 0 0 0.000000 0 0 0 1.000000 0"></feColorMatrix>
        </filter>
        <path d="M10,0 C12.6708984,0 15.1826172,1.0400391 17.0712891,2.9291992 C20.9697266,6.828125 20.9697266,13.171875 17.0712891,17.0708008 C15.1826172,18.9599609 12.6708984,20 10,20 C7.3291016,20 4.8173828,18.9599609 2.9287109,17.0708008 C-0.9697266,13.171875 -0.9697266,6.828125 2.9287109,2.9291992 C4.8173828,1.0400391 7.3291016,0 10,0 Z M10,1 C7.5957031,1 5.3359375,1.9360352 3.6357422,3.6362304 C0.1269531,7.1450195 0.1269531,12.8549804 3.6357422,16.3637695 C5.3359375,18.0639648 7.5957031,19 10,19 C12.4042969,19 14.6640625,18.0639648 16.3642578,16.3637696 C19.8730469,12.8549805 19.8730469,7.1450196 16.3642578,3.6362305 C14.6640625,1.9360352 12.4042969,1 10,1 Z M5.7578126,5.7573242 C5.953125,5.5620117 6.2695313,5.5620117 6.4648438,5.7573242 L6.4648438,5.7573242 L10,9.2929077 L13.5351563,5.7573243 C13.7304687,5.5620118 14.046875,5.5620119 14.2421875,5.7573243 C14.4375,5.9526367 14.4375,6.269043 14.2421875,6.4643555 L14.2421875,6.4643555 L10.7069702,10 L14.2421874,13.5356446 C14.4374999,13.730957 14.4374999,14.0473633 14.2421874,14.2426758 C14.1445312,14.3403321 14.0166015,14.3891602 13.8886718,14.3891602 C13.7607421,14.3891602 13.6328124,14.340332 13.5351562,14.2426758 L13.5351562,14.2426758 L10,10.7070923 L6.4648437,14.2426758 C6.3671875,14.3403321 6.2392578,14.3891602 6.11132812,14.3891602 C5.9833984,14.3891602 5.8554687,14.340332 5.7578125,14.2426758 C5.5625,14.0473633 5.5625,13.730957 5.7578125,13.5356445 L5.7578125,13.5356445 L9.2930298,10 L5.7578126,6.4643554 C5.5625001,6.269043 5.5625002,5.9526367 5.7578126,5.7573242 Z" id="path-2"></path>
    </defs>
    <g id="Symbols" stroke="none" stroke-width="1" fill="none" fill-rule="evenodd">
        <g id="Components/Overlays/Toasters/Error/desktop_width" transform="translate(-18.000000, -18.000000)">
            <g id="icon-color" transform="translate(18.000000, 18.000000)" filter="url(#filter-1)">
                <g>
                    <mask id="mask-3" fill="white">
                        <use xlink:href="#path-2"></use>
                    </mask>
                    <use id="Icon-color" fill="#EC0000" xlink:href="#path-2"></use>
                </g>
            </g>
        </g>
    </g>
</svg>