<svg xmlns="http://www.w3.org/2000/svg" width="74" height="74"><path fill="#EC0000" fill-rule="evenodd" d="M61 40.296l-10.582-5.029c-3.504 1.673-6.966 3.324-10.693 5.102l10.57 4.963L61 40.296m-47.679.001l10.714 5.036 10.561-4.974-10.7-5.09-10.575 5.028M47.881 19.22l-10.735-5.094-10.699 5.107 10.722 5.09 10.712-5.103M38.26 42.022v12.533l10.904 5.15V47.17L38.26 42.022m-13.05 5.126v12.543l10.817-5.129V42.037L25.21 47.148m37.138 7.426V41.971L51.432 47.17v12.533l10.915-5.128m-39.41 5.15V47.19a38236.66 38236.66 0 0 0-10.98-5.224v12.6l10.98 5.156m15.375-33.63v12.603l10.92-5.21V20.888l-10.92 5.205m-2.249 12.624V26.114l-10.99-5.23v12.604c3.638 1.731 7.227 3.438 10.99 5.23m1.096 17.7c-4.4 2.071-8.763 4.127-13.135 6.187-4.735-2.233-9.424-4.445-14.146-6.67V39.547l13.037-6.168V18.515l14.241-6.723 14.212 6.703v14.868l13.096 6.194v16.364l-14.162 6.684-13.143-6.188"/></svg>