<?xml version="1.0" encoding="UTF-8"?>
<svg width="24px" height="24px" viewBox="0 0 24 24" version="1.1" xmlns="http://www.w3.org/2000/svg" xmlns:xlink="http://www.w3.org/1999/xlink">
    <title>987B6976-358D-4CA5-B616-268CFC67AF34</title>
    <g id="Styles" stroke="none" stroke-width="1" fill="none" fill-rule="evenodd">
        <g id="Icons" transform="translate(-1324.000000, -414.000000)" fill="#444444">
            <g id="atoms/ico/24/add-24-copy-20" transform="translate(1324.000000, 414.000000)">
                <path d="M15.8095238,7.875 L19.2380952,7.875 C19.6588836,7.875 20,7.53921356 20,7.125 L20,6 C19.9981984,5.80126899 19.9180158,5.61100383 19.776381,5.469375 L15.9668571,1.719375 C15.8240366,1.57894231 15.630438,1.5 15.4285714,1.5 L6.28571429,1.5 C5.02395832,1.50144652 4.00146948,2.50795897 4,3.75 L4,20.25 C4.00146948,21.492041 5.02395832,22.4985535 6.28571429,22.5 L17.7142857,22.5 C18.9760417,22.4985535 19.9985305,21.492041 20,20.25 L20,10.125 C20,9.71078644 19.6588836,9.375 19.2380952,9.375 C18.8173069,9.375 18.4761905,9.71078644 18.4761905,10.125 L18.4761905,20.25 C18.4761905,20.6642136 18.1350741,21 17.7142857,21 L6.28571429,21 C5.8649259,21 5.52380952,20.6642136 5.52380952,20.25 L5.52380952,3.75 C5.52380952,3.33578644 5.8649259,3 6.28571429,3 L13.5238095,3 L13.5238095,5.625 C13.525279,6.86704103 14.5477678,7.87355348 15.8095238,7.875 Z M18.4761905,6.3105 L18.4761905,6.375 L15.8095238,6.375 C15.3887354,6.375 15.047619,6.03921356 15.047619,5.625 L15.047619,3 L15.1131429,3 L18.4761905,6.3105 Z" id="Shape"></path>
            </g>
        </g>
    </g>
</svg>