<?xml version="1.0" encoding="UTF-8"?>
<svg width="24px" height="24px" viewBox="0 0 24 24" version="1.1" xmlns="http://www.w3.org/2000/svg" xmlns:xlink="http://www.w3.org/1999/xlink">
    <title>atoms/ico/24/awarness full-24 </title>
    <g id="atoms/ico/24/awarness-full-24-" stroke="none" stroke-width="1" fill="none" fill-rule="evenodd">
        <g id="atoms/ico/24/sent-24-copy" transform="translate(3.000000, 4.000000)" fill="#1BB3BC">
            <path d="M7.37732571,1.22205302 C7.89616576,0.325874761 9.04326475,0.0199816988 9.93944301,0.538821745 C10.2229646,0.702965829 10.4585302,0.938531423 10.6226743,1.22205302 L10.6226743,1.22205302 L17.6212818,13.310557 C18.1401219,14.2067353 17.8342288,15.3538342 16.9380506,15.8726743 C16.652553,16.0379623 16.3284999,16.125 15.9986076,16.125 L15.9986076,16.125 L2.00139244,16.125 C0.965858533,16.125 0.126392439,15.2855339 0.126392439,14.25 C0.126392439,13.9201076 0.213430114,13.5960545 0.378718153,13.310557 L0.378718153,13.310557 Z M9,11.5416667 C8.65482203,11.5416667 8.375,11.8214887 8.375,12.1666667 L8.375,12.1666667 L8.375,12.5833333 L8.38070551,12.6681421 C8.42209087,12.9732051 8.68358686,13.2083333 9,13.2083333 C9.34517797,13.2083333 9.625,12.9285113 9.625,12.5833333 L9.625,12.5833333 L9.625,12.1666667 L9.61929449,12.0818579 C9.57790913,11.7767949 9.31641314,11.5416667 9,11.5416667 Z M9,4.45833333 C8.65482203,4.45833333 8.375,4.73815536 8.375,5.08333333 L8.375,5.08333333 L8.375,9.25 L8.38070551,9.3348088 C8.42209087,9.63987177 8.68358686,9.875 9,9.875 C9.34517797,9.875 9.625,9.59517797 9.625,9.25 L9.625,9.25 L9.625,5.08333333 L9.61929449,4.99852454 C9.57790913,4.69346157 9.31641314,4.45833333 9,4.45833333 Z" id="Combined-Shape"></path>
        </g>
    </g>
</svg>