<?xml version="1.0" encoding="UTF-8"?>
<svg width="34px" height="34px" viewBox="0 0 34 34" version="1.1" xmlns="http://www.w3.org/2000/svg" xmlns:xlink="http://www.w3.org/1999/xlink">
    <title>66729C65-B074-48B3-AF5F-FE2741B76BB3</title>
    <g id="MVP-1" stroke="none" stroke-width="1" fill="none" fill-rule="evenodd">
        <g id="Client_SSI_01" transform="translate(-894.000000, -877.000000)">
            <g id="Group-20-Copy" transform="translate(56.000000, 857.000000)">
                <g id="Group-18" transform="translate(839.000000, 21.000000)">
                    <g id="molecules-/-Buttons-/-S-/-Secondary-/-Icon" transform="translate(-0.000000, 0.000000)">
                        <g id="Primery-btn" fill="#FFFFFF" stroke="#B5B5B5">
                            <rect id="Rectangle" x="0" y="0" width="32" height="32" rx="16"></rect>
                        </g>
                        <g id="Group" transform="translate(6.000000, 6.000000)"></g>
                    </g>
                    <g id="atoms/ico/24/sent-24" transform="translate(9.000000, 9.000000)" fill="#CCCCCC">
                        <path d="M1.28546667,0.291666667 C1.53933275,0.291666667 1.78268603,0.391639635 1.96145895,0.569373851 L1.96145895,0.569373851 L6.99807752,5.5452238 L12.0346961,0.569373851 C12.4080363,0.201234023 13.0133404,0.201234023 13.3866807,0.569373851 C13.7600209,0.937513679 13.7600209,1.53438627 13.3866807,1.9025261 L13.3866807,1.9025261 L8.53533333,6.68566667 L13.3866807,11.4690796 C13.7600209,11.8372194 13.7600209,12.434092 13.3866807,12.8022319 C13.0133404,13.1703717 12.4080363,13.1703717 12.0346961,12.8022319 L6.99807752,7.82638191 L1.96145895,12.8022319 C1.78268603,12.9799661 1.53933275,13.079939 1.28546667,13.079939 C1.03160059,13.079939 0.788247304,12.9799661 0.609474384,12.8022319 C0.431253765,12.6250551 0.331901709,12.3852021 0.333263205,12.1356557 C0.331901709,11.8861094 0.431253765,11.6462563 0.609474384,11.4690796 L5.46033333,6.68566667 L0.609474384,1.9025261 C0.460957202,1.75487884 0.367209855,1.56370635 0.340874119,1.35967009 L0.333263205,1.23594998 C0.331901709,0.986403604 0.431253765,0.746550565 0.609474384,0.569373851 C0.788247304,0.391639635 1.03160059,0.291666667 1.28546667,0.291666667 Z" id="Combined-Shape"></path>
                    </g>
                </g>
            </g>
        </g>
    </g>
</svg>