<?xml version="1.0" encoding="UTF-8"?>
<svg width="22px" height="20px" viewBox="0 0 22 20" version="1.1" xmlns="http://www.w3.org/2000/svg" xmlns:xlink="http://www.w3.org/1999/xlink">
    <title>atoms/ico/24/edit-24</title>
    <g id="Confirming---MVP02-V02" stroke="none" stroke-width="1" fill="none" fill-rule="evenodd">
        <g id="Batches-processed-01A" transform="translate(-1190.000000, -805.000000)" fill="#EC0000">
            <g id="Group-26" transform="translate(48.000000, 568.000000)">
                <g id="Group-9-Copy-2" transform="translate(1125.000000, 179.000000)">
                    <g id="Group-18-Copy" transform="translate(16.000000, 56.000000)">
                        <g id="Group-9" transform="translate(1.000000, 2.000000)">
                            <g id="Group">
                                <path d="M18.3011068,0 L3.70187718,0 C1.66086152,0 0,1.66026471 0,3.70128037 L0,12.1876085 C0,14.2166883 1.6417643,15.8697917 3.66666667,15.8888889 L3.66666667,18.9444444 C3.66666667,19.1915147 3.81526689,19.4147135 4.04383687,19.5090061 C4.11962894,19.5400391 4.19900177,19.5555556 4.27777778,19.5555556 C4.43652342,19.5555556 4.59288194,19.4934896 4.7098524,19.3765191 L8.19748258,15.8888889 L18.2981228,15.8888889 C20.3391385,15.8888889 22,14.2286242 22,12.1876085 L22,3.69889324 C22,1.65907121 20.3409288,0 18.3011068,0 Z M20.5,12.1538696 C20.5,13.4816895 19.4191895,14.5625 18.0907898,14.5625 L8.03125,14.5625 C7.87353516,14.5625 7.72277835,14.6251221 7.61145023,14.7364502 L5.0625,17.2854004 L5.0625,15.15625 C5.0625,14.8280639 4.79693605,14.5625 4.46875,14.5625 L3.90921021,14.5625 C2.58081049,14.5625 1.5,13.4816895 1.5,12.1538696 L1.5,3.90863036 C1.5,2.58081049 2.58081049,1.5 3.90921021,1.5 L18.0936889,1.5 C19.4203491,1.5 20.5,2.57965089 20.5,3.90631105 L20.5,12.1538696 Z" id="🌈-Color"></path>
                            </g>
                            <rect id="Rectangle" x="3" y="10" width="4" height="1.5" rx="0.75"></rect>
                            <rect id="Rectangle" x="9" y="10" width="4" height="1.5" rx="0.75"></rect>
                            <rect id="Rectangle" x="15" y="10" width="4" height="1.5" rx="0.75"></rect>
                        </g>
                    </g>
                </g>
            </g>
        </g>
    </g>
</svg>
