<!-- Generated by IcoMoon.io -->
<svg version="1.1" xmlns="http://www.w3.org/2000/svg" width="32" height="32" viewBox="0 0 32 32">
<title>warning</title>
<path d="M13.184 3.968c0.896-1.568 2.88-2.080 4.448-1.184 0.512 0.288 0.928 0.704 1.216 1.184v0l12.192 21.12c0.928 1.536 0.384 3.552-1.184 4.448-0.512 0.288-1.056 0.448-1.632 0.448v0h-24.448c-1.792 0-3.264-1.472-3.264-3.264 0-0.576 0.16-1.152 0.448-1.632v0zM16.544 4.672c-0.512-0.288-1.184-0.128-1.472 0.384v0l-12.224 21.12c-0.096 0.16-0.16 0.352-0.16 0.544 0 0.608 0.48 1.088 1.088 1.088v0h24.448c0.192 0 0.384-0.064 0.544-0.16 0.512-0.288 0.704-0.96 0.384-1.472v0l-12.192-21.12c-0.096-0.16-0.256-0.288-0.416-0.384zM16 21.984c0.544 0 1.024 0.416 1.088 0.96v0.864c0 0.608-0.48 1.088-1.088 1.088-0.544 0-0.992-0.416-1.088-0.928v-0.896c0-0.608 0.48-1.088 1.088-1.088zM16 9.632c0.544 0 1.024 0.416 1.088 0.928v7.424c0 0.608-0.48 1.088-1.088 1.088-0.544 0-0.992-0.416-1.088-0.928v-7.424c0-0.608 0.48-1.088 1.088-1.088z"></path>
</svg>
