<svg xmlns="http://www.w3.org/2000/svg" xmlns:xlink="http://www.w3.org/1999/xlink" width="74" height="74"><path d="M23.773 16.153 C 20.540 16.743,17.728 18.895,16.275 21.892 C 15.483 23.527,15.288 24.303,15.207 26.156 C 15.096 28.682,15.614 30.607,16.942 32.602 C 17.568 33.543,19.346 35.397,19.622 35.397 C 19.683 35.397,19.733 35.445,19.733 35.503 C 19.733 35.562,19.359 35.734,18.901 35.887 C 16.758 36.598,13.976 38.238,12.053 39.922 C 9.452 42.200,7.273 45.500,6.148 48.865 C 5.414 51.062,5.177 52.406,5.095 54.852 L 5.023 56.980 37.476 56.980 L 69.930 56.980 69.930 55.460 C 69.930 49.110,66.286 43.310,60.540 40.513 C 59.905 40.204,59.183 39.891,58.935 39.817 L 58.484 39.682 59.371 38.803 C 61.330 36.863,62.213 34.449,61.915 31.841 C 61.848 31.253,61.743 30.605,61.682 30.402 C 60.956 27.972,59.362 26.055,57.185 24.990 C 55.819 24.322,54.949 24.125,53.403 24.136 C 50.982 24.152,49.046 25.027,47.332 26.878 C 44.890 29.515,44.354 33.258,45.955 36.497 C 46.415 37.430,46.727 37.860,47.531 38.676 L 48.534 39.692 48.095 39.823 C 46.728 40.233,43.912 41.916,42.791 42.993 C 42.551 43.224,42.301 43.412,42.236 43.411 C 42.171 43.409,41.952 43.174,41.750 42.888 C 39.716 40.015,36.109 37.333,32.498 36.008 C 31.888 35.784,31.364 35.581,31.334 35.557 C 31.304 35.534,31.415 35.422,31.581 35.308 C 32.312 34.807,33.605 33.419,34.191 32.506 C 35.348 30.704,35.890 28.833,35.890 26.640 C 35.890 21.901,32.963 17.876,28.490 16.464 C 27.642 16.196,27.147 16.125,25.900 16.089 C 25.052 16.065,24.095 16.094,23.773 16.153 M27.900 19.072 C 30.355 19.845,32.398 22.042,33.056 24.617 C 33.768 27.401,32.981 30.288,30.955 32.325 C 27.892 35.404,23.179 35.404,20.099 32.324 C 18.434 30.659,17.674 28.652,17.788 26.225 C 17.883 24.200,18.591 22.542,19.982 21.092 C 22.074 18.909,25.007 18.161,27.900 19.072 M55.157 27.008 C 58.648 28.087,60.353 32.024,58.773 35.363 C 57.780 37.463,55.828 38.733,53.579 38.743 C 51.871 38.751,50.750 38.297,49.489 37.086 C 46.990 34.686,47.027 30.705,49.569 28.327 C 50.207 27.730,51.386 27.075,52.140 26.897 C 52.977 26.700,54.317 26.749,55.157 27.008 M28.428 37.574 C 30.072 37.829,31.887 38.438,33.573 39.301 C 38.914 42.032,42.619 47.432,43.356 53.558 L 43.442 54.267 25.537 54.267 L 7.632 54.267 7.709 53.681 C 8.020 51.342,8.534 49.537,9.428 47.650 C 11.138 44.039,13.981 41.094,17.486 39.301 C 21.006 37.500,24.454 36.956,28.428 37.574 M55.323 41.572 C 58.988 42.082,62.376 44.129,64.650 47.206 C 65.350 48.155,66.139 49.689,66.592 50.983 C 67.017 52.201,67.398 54.135,67.242 54.291 C 67.187 54.346,62.374 54.377,56.547 54.360 L 45.952 54.328 45.798 53.095 C 45.516 50.846,45.037 49.103,44.126 47.012 L 43.625 45.861 44.290 45.187 C 46.026 43.427,49.012 41.958,51.633 41.576 C 52.684 41.422,54.233 41.421,55.323 41.572 " stroke="none" fill-rule="evenodd" fill="black"></path></svg>