<svg width="24px" height="24px" viewBox="0 0 24 24" version="1.1" xmlns="http://www.w3.org/2000/svg" xmlns:xlink="http://www.w3.org/1999/xlink"><path d="M21.960 1.037 C 21.905 1.054,21.806 1.096,21.740 1.131 C 21.674 1.166,17.107 5.710,11.591 11.227 C 4.414 18.408,1.545 21.302,1.501 21.409 C 1.425 21.593,1.422 21.999,1.495 22.174 C 1.573 22.361,1.786 22.591,1.966 22.683 C 2.197 22.801,2.431 22.820,2.704 22.742 L 2.940 22.675 12.953 12.667 C 18.514 7.108,23.011 2.584,23.067 2.488 C 23.137 2.371,23.176 2.236,23.190 2.060 C 23.208 1.837,23.196 1.773,23.103 1.582 C 23.043 1.461,22.929 1.307,22.847 1.240 C 22.612 1.045,22.225 0.957,21.960 1.037 M11.340 5.028 C 11.230 5.035,10.942 5.069,10.700 5.103 C 7.257 5.589,4.140 8.045,2.254 11.760 C 2.035 12.191,2.021 12.237,2.021 12.500 C 2.022 12.766,2.035 12.805,2.289 13.300 C 2.919 14.527,3.670 15.600,4.608 16.612 L 4.860 16.884 5.536 16.206 L 6.211 15.528 5.777 15.044 C 5.538 14.778,5.185 14.349,4.992 14.090 C 4.644 13.623,4.000 12.591,4.000 12.501 C 4.000 12.475,4.128 12.239,4.283 11.977 C 5.730 9.542,7.797 7.856,10.060 7.267 C 10.767 7.082,11.205 7.028,11.980 7.026 C 12.770 7.024,13.084 7.062,13.853 7.249 L 14.366 7.373 15.124 6.617 L 15.882 5.860 15.646 5.754 C 14.427 5.207,12.794 4.931,11.340 5.028 M18.173 8.527 L 17.487 9.220 17.876 9.600 C 18.325 10.038,18.746 10.536,19.161 11.122 C 19.478 11.568,20.000 12.426,20.000 12.500 C 20.000 12.525,19.872 12.761,19.717 13.023 C 18.266 15.465,16.218 17.131,13.920 17.737 C 13.230 17.920,12.795 17.973,12.000 17.973 C 11.051 17.973,10.418 17.871,9.543 17.577 L 9.229 17.472 8.495 18.205 C 8.091 18.609,7.760 18.950,7.760 18.964 C 7.760 19.000,8.574 19.342,9.030 19.498 C 10.659 20.055,12.442 20.140,14.140 19.740 C 17.234 19.012,20.017 16.639,21.729 13.269 C 21.963 12.808,21.977 12.764,21.977 12.500 C 21.977 12.238,21.962 12.191,21.743 11.760 C 21.078 10.451,20.264 9.304,19.235 8.227 L 18.860 7.834 18.173 8.527 M11.496 8.681 C 10.076 8.937,8.966 10.008,8.574 11.500 C 8.484 11.841,8.469 11.988,8.466 12.500 C 8.464 12.830,8.477 13.125,8.496 13.155 C 8.521 13.195,9.109 12.631,10.725 11.015 C 11.932 9.808,12.920 8.810,12.920 8.797 C 12.920 8.701,11.860 8.615,11.496 8.681 M13.004 13.696 L 10.628 16.073 10.956 16.176 C 11.650 16.395,12.249 16.408,12.911 16.216 C 14.126 15.864,15.073 14.841,15.426 13.500 C 15.517 13.152,15.531 13.022,15.530 12.500 C 15.529 12.050,15.510 11.827,15.454 11.609 L 15.380 11.319 13.004 13.696 " stroke="none" fill-rule="evenodd" fill="black"></path></svg>