<?xml version="1.0" encoding="UTF-8"?>
<svg width="24px" height="24px" viewBox="0 0 24 24" version="1.1" xmlns="http://www.w3.org/2000/svg" xmlns:xlink="http://www.w3.org/1999/xlink">
    <title>refresh-one-line</title>
    <defs>
        <path d="M19.5004246,19.0008493 L15.5427886,19.0008493 C18.1425788,17.1654094 19.9830144,13.5115152 19.9830144,9.99150722 C19.9830144,4.48219014 15.5008243,0 9.99150722,0 C4.48318929,0 0,4.48219014 0,9.99150722 C0,15.5018235 4.48318929,19.9830144 9.99150722,19.9830144 C10.268272,19.9830144 10.4910826,19.7602038 10.4910826,19.4834391 C10.4910826,19.2076735 10.268272,18.9838637 9.99150722,18.9838637 C5.03372134,18.9838637 0.999150722,14.9502923 0.999150722,9.99150722 C0.999150722,5.03372134 5.03372134,0.999150722 9.99150722,0.999150722 C14.9502923,0.999150722 18.9838637,5.03372134 18.9838637,9.99150722 C18.9838637,13.1927861 17.3342659,16.5029725 15.0042464,18.163561 L15.0042464,14.7334765 C15.0042464,14.4577109 14.7804366,14.2339012 14.504671,14.2339012 C14.2289054,14.2339012 14.0050957,14.4577109 14.0050957,14.7334765 L14.0050957,19.5004246 C14.0050957,19.7761902 14.2289054,20 14.504671,20 L19.5004246,20 C19.7761902,20 20,19.7761902 20,19.5004246 C20,19.224659 19.7761902,19.0008493 19.5004246,19.0008493" id="path-1"></path>
    </defs>
    <g id="Financiation-(versión-táctico)" stroke="none" stroke-width="1" fill="none" fill-rule="evenodd">
        <g id="EmployeeView_Administration_00" transform="translate(-1265.000000, -311.000000)">
            <g id="Tool-bar/batch" transform="translate(48.000000, 309.000000)">
                <g id="Group-22" transform="translate(1197.000000, 2.000000)">
                    <g id="Atoms/ico/normal-size/refresh-24" transform="translate(21.999600, 1.999600)">
                        <mask id="mask-2" fill="white">
                            <use xlink:href="#path-1"></use>
                        </mask>
                        <use id="icon-color" fill="#EC0000" fill-rule="nonzero" xlink:href="#path-1"></use>
                    </g>
                </g>
            </g>
        </g>
    </g>
</svg>