<?xml version="1.0" encoding="UTF-8"?>
<svg width="24px" height="24px" viewBox="0 0 24 24" version="1.1" xmlns="http://www.w3.org/2000/svg" xmlns:xlink="http://www.w3.org/1999/xlink">
    <title>20514589-5006-4272-8AEA-D5993C5DEAB4</title>
    <g id="Symbols" stroke="none" stroke-width="1" fill="none" fill-rule="evenodd">
        <g id="Atoms/ico/normal-size/presentation" fill="#EC0000">
            <path d="M21.625,2 C22.38125,2 23,2.60967742 23,3.35483871 L23,15.5483871 C23,16.2935484 22.38125,16.9032258 21.625,16.9032258 L14.0625,16.9032258 C13.684375,16.9032258 13.375,16.5983871 13.375,16.2258065 C13.375,15.8532258 13.684375,15.5483871 14.0625,15.5483871 L21.625,15.5483871 L21.625,3.35483871 L2.375,3.35483871 L2.375,15.5483871 L12,15.5483871 C12.378125,15.5483871 12.6875,15.8532258 12.6875,16.2258065 L12.687,17.973 L16.613125,21.8416129 C16.88125,22.1058065 16.88125,22.5325806 16.613125,22.7967742 C16.475625,22.9322581 16.30375,23 16.125,23 C15.94625,23 15.774375,22.9322581 15.636875,22.8035484 L12,19.2132258 L8.363125,22.7967742 C8.095,23.0609677 7.661875,23.0609677 7.39375,22.7967742 C7.125625,22.5325806 7.125625,22.1058065 7.39375,21.8416129 L11.312,17.98 L11.3125,16.9032258 L2.375,16.9032258 C1.61875,16.9032258 1,16.2935484 1,15.5483871 L1,3.35483871 C1,2.60967742 1.61875,2 2.375,2 L21.625,2 Z M11.3125,10.1290323 C11.690625,10.1290323 12,10.433871 12,10.8064516 C12,11.1790323 11.690625,11.483871 11.3125,11.483871 L7.875,11.483871 C7.496875,11.483871 7.1875,11.1790323 7.1875,10.8064516 C7.1875,10.433871 7.496875,10.1290323 7.875,10.1290323 L11.3125,10.1290323 Z M16.125,7.41935484 C16.503125,7.41935484 16.8125,7.72419355 16.8125,8.09677419 C16.8125,8.46935484 16.503125,8.77419355 16.125,8.77419355 L7.875,8.77419355 C7.496875,8.77419355 7.1875,8.46935484 7.1875,8.09677419 C7.1875,7.72419355 7.496875,7.41935484 7.875,7.41935484 L16.125,7.41935484 Z" id="Combined-Shape"></path>
        </g>
    </g>
</svg>