<?xml version="1.0" encoding="UTF-8"?>
<svg width="20px" height="20px" viewBox="0 0 20 20" version="1.1" xmlns="http://www.w3.org/2000/svg" xmlns:xlink="http://www.w3.org/1999/xlink">
    <title>Atoms/ico/normal size/options-24</title>
    <g id="🔺-Supplier" stroke="none" stroke-width="1" fill="none" fill-rule="evenodd">
        <g id="CV-Supp---Offer-Detail---candidate-actions" transform="translate(-1318.000000, -285.000000)" fill="#EC0000" fill-rule="nonzero">
            <g id="total-facts" transform="translate(48.000000, 266.000000)">
                <g id="Group-4" transform="translate(1257.000000, 17.000000)">
                    <g id="Atoms/ico/normal-size/refresh-24" transform="translate(11.000000, 0.000000)">
                        <path d="M6.5,13 C8.98514237,13 11,15.0148576 11,17.5 C11,19.9851424 8.98514237,22 6.5,22 C4.01485763,22 2,19.9851424 2,17.5 C2,15.0148576 4.01485763,13 6.5,13 Z M17.5,13 C19.9851424,13 22,15.0148576 22,17.5 C22,19.9851424 19.9851424,22 17.5,22 C15.0148576,22 13,19.9851424 13,17.5 C13,15.0148576 15.0148576,13 17.5,13 Z M6.5,14 C4.56714237,14 3,15.5671424 3,17.5 C3,19.4328576 4.56714237,21 6.5,21 C8.43285763,21 10,19.4328576 10,17.5 C10,15.5671424 8.43285763,14 6.5,14 Z M17.5,14 C15.5671424,14 14,15.5671424 14,17.5 C14,19.4328576 15.5671424,21 17.5,21 C19.4328576,21 21,19.4328576 21,17.5 C21,15.5671424 19.4328576,14 17.5,14 Z M6.5,2 C8.98514237,2 11,4.01485763 11,6.5 C11,8.98514237 8.98514237,11 6.5,11 C4.01485763,11 2,8.98514237 2,6.5 C2,4.01485763 4.01485763,2 6.5,2 Z M17.5,2 C19.9851424,2 22,4.01485763 22,6.5 C22,8.98514237 19.9851424,11 17.5,11 C15.0148576,11 13,8.98514237 13,6.5 C13,4.01485763 15.0148576,2 17.5,2 Z M6.5,3 C4.56714237,3 3,4.56714237 3,6.5 C3,8.43285763 4.56714237,10 6.5,10 C8.43285763,10 10,8.43285763 10,6.5 C10,4.56714237 8.43285763,3 6.5,3 Z M17.5,3 C15.5671424,3 14,4.56714237 14,6.5 C14,8.43285763 15.5671424,10 17.5,10 C19.4328576,10 21,8.43285763 21,6.5 C21,4.56714237 19.4328576,3 17.5,3 Z" id="icon-color"></path>
                    </g>
                </g>
            </g>
        </g>
    </g>
</svg>