<!-- Generated by IcoMoon.io -->
<svg version="1.1" xmlns="http://www.w3.org/2000/svg" width="32" height="32" viewBox="0 0 32 32">
<title>doc</title>
<path d="M21.088 10.304h4.576c0.544 0 0.992-0.448 0.992-0.992v-1.504c0-0.256-0.096-0.512-0.288-0.704l-5.088-4.992c-0.192-0.192-0.448-0.32-0.704-0.32h-12.192c-1.696 0.032-3.040 1.344-3.040 3.008v22.016c0 1.664 1.344 2.976 3.040 3.008h15.232c1.696-0.032 3.040-1.344 3.040-3.008v-13.504c0-0.544-0.448-0.992-0.992-0.992s-1.024 0.448-1.024 0.992v13.504c0 0.544-0.448 0.992-1.024 0.992h-15.232c-0.576 0-1.024-0.448-1.024-0.992v-22.016c0-0.544 0.448-0.992 1.024-0.992h9.664v3.488c0 1.664 1.344 3.008 3.040 3.008zM24.64 8.224v0.096h-3.552c-0.576 0-1.024-0.448-1.024-1.024v-3.488h0.096l4.48 4.416z"></path>
</svg>
