<!-- Generated by IcoMoon.io -->
<svg version="1.1" xmlns="http://www.w3.org/2000/svg" width="32" height="32" viewBox="0 0 32 32">
<title>excel</title>
<path d="M31.008 3.68h-11.296v3.68h3.744v2.496h-3.744v2.464h3.712v2.464h-3.712v2.464h3.712v2.464h-3.712v2.464h3.712v2.464h-3.712v3.68h11.296c0.576 0 1.024-0.48 1.024-1.056v-22.496c0-0.608-0.448-1.088-1.024-1.088zM29.568 24.64h-4.928v-2.464h4.928v2.464zM29.568 19.712h-4.928v-2.464h4.928v2.464zM29.568 14.784h-4.928v-2.464h4.928v2.464zM29.568 9.856h-4.928v-2.464h4.928v2.464zM0 3.552v24.928l18.496 3.552v-32.032l-18.496 3.552zM11.68 22.272l-2.144-4.064c-0.064-0.16-0.16-0.448-0.256-0.832h-0.032c-0.032 0.192-0.128 0.48-0.288 0.864l-2.144 4.032h-3.36l3.968-6.24-3.616-6.24h3.424l1.76 3.744c0.16 0.288 0.288 0.64 0.384 1.056h0.032c0.064-0.256 0.192-0.608 0.384-1.088l1.984-3.712h3.136l-3.744 6.176 3.84 6.304h-3.328z"></path>
</svg>
