<?xml version="1.0" encoding="UTF-8"?>
<svg width="24px" height="24px" viewBox="0 0 24 24" version="1.1" xmlns="http://www.w3.org/2000/svg" xmlns:xlink="http://www.w3.org/1999/xlink">
    <title>Atoms/ico/normal size/Go to-24</title>
    <g id="Atoms/ico/normal-size/Go-to-24" stroke="none" stroke-width="1" fill="none" fill-rule="evenodd">
        <g id="Group-39" transform="translate(1.000000, 1.000000)" fill="#EC0000">
            <g id="B.-Digital,--Tech-&amp;-Docs/a.-Devices/BA010-mobile-|-🔍-DEVICES,-mobile,-phone,-iphone,-android,-smartphone,-móvil,-teléfono,-apple">
                <path d="M8.5,0 C13.194668,0 17,3.805332 17,8.5 C17,13.194668 13.194668,17 8.5,17 C3.805332,17 0,13.194668 0,8.5 C0,3.805332 3.805332,0 8.5,0 Z M10.8054458,12.4218795 L6.19455422,12.4218795 L6.25089671,12.5582503 C6.64743938,13.4698624 7.23301814,14.3255473 7.99214929,15.0927317 L8.22507972,15.3201994 L8.37580855,15.4929699 L8.49916318,15.4949274 L8.55733474,15.5197826 C9.46365328,14.7137973 10.163495,13.7949798 10.6364403,12.8052563 L10.7597845,12.5336052 L10.8054458,12.4218795 Z M4.71985542,12.3571566 L2.13421687,12.3571566 L2.16199011,12.4034846 C3.05300388,13.8432617 4.58373587,14.9075497 6.38882494,15.3316745 L6.58207229,15.3737349 L6.56180321,15.3523745 C5.79411182,14.5062506 5.20479055,13.5740629 4.80805825,12.5875591 L4.71985542,12.3571566 Z M14.8649639,12.3571566 L12.2793253,12.3571566 L12.1919408,12.5875924 C11.8393164,13.4643484 11.3345236,14.2983046 10.6875857,15.0671664 L10.4171084,15.3737349 L10.6131202,15.3313044 C12.3424656,14.9244384 13.8219188,13.9296889 14.7263532,12.5773276 L14.8649639,12.3571566 Z M11.3887711,6.14457831 L5.61040964,6.14457831 L5.55346061,6.38829434 C5.24924807,7.78199094 5.24924807,9.21834497 5.55346061,10.6120416 L5.61040964,10.8554217 L11.3887711,10.8554217 L11.4464988,10.6122278 C11.7271868,9.32643214 11.7491109,8.00369931 11.5116791,6.71215736 L11.4469175,6.38996111 L11.3887711,6.14457831 Z M4.28318072,6.14375904 L1.59185542,6.14457831 L1.52546021,6.36556467 C1.36003676,6.95285355 1.26339298,7.56365409 1.23915646,8.18720761 L1.23308893,8.49999731 C1.23308893,9.23208725 1.33246619,9.9492596 1.52546021,10.63443 L1.59185542,10.8546024 L4.28236145,10.8546024 L4.23270104,10.5989646 C4.00430247,9.32915871 3.98482621,8.02937866 4.17504152,6.75236202 L4.23839763,6.36999267 L4.28318072,6.14375904 Z M12.7168193,6.14375904 L12.761891,6.37150911 C13.0168567,7.76844044 13.0186721,9.20131878 12.7673354,10.5987649 L12.7168193,10.8546024 L15.4073253,10.8546024 L15.4745398,10.63443 C15.6399632,10.0471411 15.736607,9.43634054 15.7608435,8.81278701 L15.7669111,8.49999731 C15.7669111,7.8714104 15.693656,7.25364071 15.5509499,6.65856584 L15.4738268,6.36297462 L15.4073253,6.14457831 L12.7168193,6.14375904 Z M10.4171084,1.62626506 L10.5372054,1.75834301 C11.2525732,2.57032828 11.8059664,3.4587222 12.1852183,4.39602119 L12.2793253,4.6420241 L14.8649639,4.6420241 L14.8376938,4.59598452 C13.9441098,3.15250887 12.4053892,2.08395193 10.5901137,1.66336945 L10.4171084,1.62626506 Z M6.35050772,1.88806915 L6.57961446,1.62626506 L6.53225397,1.63623148 C4.66249118,2.037095 3.07342541,3.12145522 2.15985504,4.59989003 L2.13421687,4.6420241 L4.7206747,4.6420241 L4.80870235,4.41091644 C5.1679216,3.51831712 5.68512802,2.66961498 6.35050772,1.88806915 Z M8.44284285,1.48063089 C7.46110049,2.35322493 6.72170615,3.35867308 6.24996365,4.44396058 L6.19455422,4.5773012 L10.8046265,4.5773012 L10.7490996,4.44180886 C10.3525407,3.53027205 9.76696742,2.67466204 9.00790864,1.90758878 L8.77500197,1.68015552 L8.6232366,1.50641345 L8.50113532,1.50510181 L8.44284285,1.48063089 Z" id="Shape"></path>
            </g>
            <path d="M20.3493111,14.5129058 L15.1610132,14.5129058 C14.802836,14.5129058 14.512476,14.8032478 14.512476,15.1614028 L14.512476,20.3493788 C14.512476,20.7075338 14.802836,20.9978758 15.1610132,20.9978758 L15.2490159,20.9919558 C15.5655674,20.9490145 15.8095505,20.6776875 15.8095505,20.3493788 L15.8092627,16.7263948 L20.3303762,21.2475584 C20.5836472,21.5008136 20.9942783,21.5008136 21.2475478,21.2475598 L21.3103419,21.1748257 C21.4987242,20.9209508 21.4777929,20.5606773 21.2475478,20.3304466 L16.7267267,15.8098524 L20.3493111,15.8098998 C20.7074883,15.8098998 20.9978483,15.5195578 20.9978483,15.1614028 C20.9978483,14.8032478 20.7074883,14.5129058 20.3493111,14.5129058 Z" id="Path" fill-rule="nonzero"></path>
        </g>
    </g>
</svg>