<?xml version="1.0" encoding="UTF-8"?>
<svg width="24px" height="24px" viewBox="0 0 24 24" version="1.1" xmlns="http://www.w3.org/2000/svg" xmlns:xlink="http://www.w3.org/1999/xlink">
    <title>fill-clear</title>
    <g id="fill-clear" stroke="none" stroke-width="1" fill="none" fill-rule="evenodd">
        <path d="M12,21 C13.6442308,21 15.1658654,20.5889423 16.5649038,19.7668269 C17.9206731,18.9879808 18.9879808,17.9206731 19.7668269,16.5649038 C20.5889423,15.1658654 21,13.6442308 21,12 C21,10.3557692 20.5889423,8.83413462 19.7668269,7.43509615 C18.9879808,6.07932692 17.9206731,5.01201923 16.5649038,4.23317308 C15.1658654,3.41105769 13.6442308,3 12,3 C10.3701923,3 8.85576923,3.41105769 7.45673077,4.23317308 C6.10096154,5.02644231 5.02644231,6.10096154 4.23317308,7.45673077 C3.41105769,8.85576923 3,10.3701923 3,12 C3,13.6298077 3.41105769,15.1442308 4.23317308,16.5432692 C5.01201923,17.8990385 6.07932692,18.9735577 7.43509615,19.7668269 C8.83413462,20.5889423 10.3557692,21 12,21 Z M15.2451923,16.5216346 L12,13.2764423 L8.75480769,16.5216346 L7.47836538,15.2451923 L10.7235577,12 L7.47836538,8.75480769 L8.75480769,7.47836538 L12,10.7235577 L15.2451923,7.47836538 L16.5216346,8.75480769 L13.2764423,12 L16.5216346,15.2451923 L15.2451923,16.5216346 Z" id="" fill="#000000"></path>
    </g>
</svg>