<?xml version="1.0" encoding="UTF-8"?>
<svg width="20px" height="20px" viewBox="0 0 20 20" version="1.1" xmlns="http://www.w3.org/2000/svg" xmlns:xlink="http://www.w3.org/1999/xlink">
    <title>Atoms/ico/normal size/success</title>
    <g id="Finance" stroke="none" stroke-width="1" fill="none" fill-rule="evenodd">
        <g id="Group" transform="translate(-2.000000, -2.000000)" fill="#EC0000">
            <path d="M19.0112465,15.473983 C18.8768168,15.3398599 18.6795878,15.2958049 18.4970773,15.3525869 L16.6674349,15.960791 L15.7039198,14.9963532 C16.9290578,13.6157178 17.6797055,11.8069534 17.6797055,9.82221351 C17.6797055,5.50873756 14.1629456,2 9.83960742,2 C5.51675987,2 2,5.50873756 2,9.82221351 C2,14.1356895 5.51675987,17.644427 9.83960742,17.644427 C11.8126947,17.644427 13.612716,16.9080351 14.9922151,15.7034363 L15.9516213,16.6638969 L15.3365073,18.5049684 C15.2766517,18.6851044 15.3237512,18.8838415 15.4581809,19.0179646 L18.3008298,21.8531499 C18.39601,21.948113 18.5245522,22 18.6560382,22 C18.6943065,22 18.733556,21.996084 18.7718244,21.986294 C18.9405975,21.947134 19.0779709,21.8218219 19.1329203,21.6573498 L19.7638569,19.7688579 L21.6566665,19.1393607 C21.8215147,19.0845366 21.9471132,18.9474766 21.9863628,18.7790885 C22.0265936,18.6097214 21.9765504,18.4315433 21.8529143,18.3091683 L19.0112465,15.473983 Z M9.83960742,16.6419306 C6.07066914,16.6419306 3.00478853,13.5825542 3.00478853,9.82221351 C3.00478853,6.0618728 6.07066914,3.00249645 9.83960742,3.00249645 C13.6085457,3.00249645 16.6749169,6.0618728 16.6749169,9.82221351 C16.6749169,11.529835 16.0380929,13.088832 14.9947295,14.2865167 L12.9910398,12.2809118 C13.5262443,11.5997723 13.8587616,10.7530593 13.8587616,9.82221351 C13.8587616,7.61065151 12.0557353,5.81222772 9.83960742,5.81222772 C7.62347959,5.81222772 5.82045329,7.61065151 5.82045329,9.82221351 C5.82045329,12.0337755 7.62347959,13.8321993 9.83960742,13.8321993 C10.7608067,13.8321993 11.6001952,13.5091292 12.2787831,12.9871384 L14.2831474,14.993661 C13.0868946,16.0183685 11.5361694,16.6419306 9.83960742,16.6419306 Z M10.2070814,9.4942484 C10.0118149,9.29649034 9.69340285,9.29844831 9.49666456,9.49229043 C9.30041679,9.68809051 9.29943552,10.0052867 9.49568328,10.2010867 L11.5698995,12.2774854 C11.0792799,12.6227666 10.4844039,12.8297029 9.83960742,12.8297029 C8.17738887,12.8297029 6.82524182,11.4806403 6.82524182,9.82221351 C6.82524182,8.16378675 8.17738887,6.81472417 9.83960742,6.81472417 C11.501826,6.81472417 12.853973,8.16378675 12.853973,9.82221351 C12.853973,10.4760022 12.6383458,11.0771697 12.2819108,11.5710754 L10.2070814,9.4942484 Z M18.4362406,20.5706593 L16.3883953,18.5284644 L16.7457502,17.4588452 L18.7916331,19.5069141 L18.4362406,20.5706593 Z M19.5024179,18.798485 L17.4603986,16.7545156 L18.5206272,16.4020755 L20.5674913,18.4442704 L19.5024179,18.798485 Z" id="🌈-Color"></path>
        </g>
    </g>
</svg>