<svg width="69px" height="69px" viewBox="0 0 69 69" version="1.1" xmlns="http://www.w3.org/2000/svg" xmlns:xlink="http://www.w3.org/1999/xlink"><path d="M17.949 19.675 C 14.615 20.329,11.835 22.854,10.680 26.277 L 10.408 27.082 10.375 36.570 C 10.339 46.879,10.344 46.980,10.983 48.553 C 12.094 51.286,14.756 53.583,17.583 54.247 C 18.385 54.435,19.237 54.453,27.830 54.453 C 37.726 54.453,37.587 54.459,39.100 53.917 C 41.764 52.962,44.049 50.513,44.928 47.668 L 45.248 46.633 45.284 37.513 C 45.324 27.409,45.309 27.146,44.600 25.442 C 43.638 23.132,41.613 21.101,39.359 20.185 C 37.807 19.555,37.697 19.549,27.691 19.563 C 22.613 19.570,18.229 19.620,17.949 19.675 M32.890 27.370 C 33.017 27.497,33.120 27.704,33.120 27.830 C 33.120 27.957,33.017 28.164,32.890 28.290 C 32.666 28.514,32.507 28.520,26.557 28.520 C 22.289 28.520,20.379 28.559,20.204 28.648 C 20.066 28.719,19.863 28.887,19.754 29.022 C 19.570 29.249,19.555 29.848,19.553 37.010 L 19.550 44.753 19.886 45.089 L 20.222 45.425 28.003 45.425 L 35.783 45.425 36.119 45.089 L 36.455 44.753 36.455 39.594 C 36.455 35.112,36.478 34.403,36.634 34.181 C 36.848 33.875,37.325 33.844,37.625 34.115 C 37.823 34.294,37.835 34.616,37.835 39.582 C 37.835 44.091,37.809 44.919,37.656 45.285 C 37.430 45.827,36.985 46.298,36.398 46.614 C 35.939 46.862,35.913 46.863,28.003 46.863 L 20.068 46.863 19.597 46.611 C 18.992 46.287,18.445 45.661,18.284 45.111 C 18.197 44.810,18.169 42.246,18.193 36.724 L 18.227 28.770 18.573 28.271 C 18.800 27.945,19.134 27.663,19.543 27.456 L 20.166 27.140 26.413 27.140 C 32.507 27.140,32.666 27.146,32.890 27.370 M37.240 28.141 C 38.342 28.957,38.344 30.382,37.244 31.196 C 36.234 31.944,34.678 31.241,34.429 29.924 C 34.348 29.495,34.623 28.653,34.936 28.370 C 35.582 27.784,36.620 27.681,37.240 28.141 M35.558 32.315 C 35.672 32.315,35.765 32.344,35.765 32.380 C 35.765 32.416,33.902 34.687,31.625 37.428 C 27.318 42.612,27.171 42.757,26.639 42.391 C 26.503 42.298,25.110 40.963,23.542 39.424 C 20.988 36.919,20.692 36.589,20.696 36.262 C 20.700 35.855,21.136 35.420,21.541 35.420 C 21.688 35.420,22.422 36.052,23.509 37.115 C 24.462 38.047,25.631 39.184,26.105 39.641 L 26.968 40.472 30.629 36.058 L 34.291 31.643 34.821 31.979 C 35.112 32.164,35.443 32.315,35.558 32.315 " stroke="none" fill-rule="evenodd" fill="black"></path></svg>