<?xml version="1.0" encoding="UTF-8"?>
<svg width="24px" height="24px" viewBox="0 0 24 24" version="1.1" xmlns="http://www.w3.org/2000/svg" xmlns:xlink="http://www.w3.org/1999/xlink">
    <title>617F7890-11DC-46F6-97D5-210C2764D6BC</title>
    <g id="Symbols" stroke="none" stroke-width="1" fill="none" fill-rule="evenodd">
        <g id="Atoms/ico/normal-size/share-24" fill="#EC0000">
            <path d="M8.65876896,7.79384134 C9.08765218,7.79384134 9.43533072,8.14151988 9.43533072,8.5704031 C9.43533072,8.99928632 9.08765218,9.34696486 8.65876896,9.34696486 L8.65876896,9.34696486 L5.2338926,9.34696486 L5.2338926,20.0524234 L18.7718599,20.0524234 L18.7718599,9.34696486 L15.3469835,9.34696486 C14.9181003,9.34696486 14.5704217,8.99928632 14.5704217,8.5704031 C14.5704217,8.14151988 14.9181003,7.79384134 15.3469835,7.79384134 L15.3469835,7.79384134 L19.0286144,7.79384134 C19.7988781,7.79384134 20.4057525,8.39845014 20.3999589,9.13063694 L20.3999589,9.13063694 L20.3999589,20.279845 C20.3999589,21.0120318 19.7930427,21.6 19.0227791,21.6 L19.0227791,21.6 L4.97713805,21.6 C4.20687439,21.6 3.6,21.0120318 3.6,20.279845 L3.6,20.279845 L3.6,9.13063694 C3.6,8.39845014 4.20687439,7.79384134 4.97713805,7.79384134 L4.97713805,7.79384134 Z M11.3434839,1.38720685 C11.6469211,1.13759772 12.1020769,1.13759772 12.4055141,1.38720685 L12.4055141,1.38720685 L16.1368136,4.42464201 C16.146387,4.43243515 16.1557682,4.44046148 16.1649487,4.4487138 C16.4756114,4.72796717 16.5010737,5.20618863 16.2218203,5.51685134 C15.9245771,5.84752737 15.4199888,5.88636491 15.075643,5.6050712 L15.075643,5.6050712 L12.7031159,3.66697029 L12.7031159,13.3003265 C12.7031159,13.7515135 12.3373566,14.1172728 11.8861696,14.1172728 C11.4349826,14.1172728 11.0692233,13.7515135 11.0692233,13.3003265 L11.0692233,13.3003265 L11.0692233,3.66697029 L8.68749914,5.60501375 C8.34132631,5.8866996 7.83518947,5.8479505 7.53593057,5.51685134 C7.52730039,5.50730293 7.51891523,5.49753587 7.5107833,5.48755971 C7.2467535,5.16365093 7.295295,4.68703253 7.61920378,4.42300272 L7.61920378,4.42300272 Z" id="Combined-Shape"></path>
        </g>
    </g>
</svg>