<!-- Generated by IcoMoon.io -->
<svg version="1.1" xmlns="http://www.w3.org/2000/svg" width="32" height="32" viewBox="0 0 32 32">
<title>admin-fill</title>
<path d="M10.016 0.128c0.448-0.16 1.184-0.544 1.6-0.224 0.32 0.224 0.48 0.64 0.736 0.928 0.256 0.32 0.544 0.576 0.928 0.832 0.64 0.48 1.408 0.8 2.208 0.896 0.192 0.032 0.384 0.032 0.544 0.032 1.6 0 3.104-0.864 4-2.208 0.16-0.288 0.256-0.512 0.608-0.544 0.544-0.064 1.056 0.192 1.536 0.384 0.512 0.16 0.992 0.384 1.44 0.64 0.416 0.192 0.608 0.608 0.48 1.024-0.384 1.568 0 3.296 1.248 4.512s2.976 1.664 4.544 1.248c0.416-0.096 0.8 0.032 0.992 0.416 0.416 0.8 0.768 1.664 1.056 2.56 0.128 0.352-0.032 0.768-0.384 0.992-1.44 0.832-2.368 2.368-2.368 4.096 0 1.792 0.928 3.328 2.336 4.128 0.32 0.192 0.512 0.608 0.384 0.992-0.256 0.928-0.608 1.76-1.024 2.56-0.16 0.352-0.576 0.544-0.992 0.448-1.568-0.48-3.328-0.096-4.608 1.184s-1.696 3.136-1.216 4.736c0.096 0.352-0.032 0.8-0.384 0.992-0.768 0.352-1.536 0.704-2.336 0.96-0.48 0.192-1.024-0.032-1.28-0.48-0.8-1.376-2.336-2.336-4.096-2.336s-3.232 0.96-4.096 2.336c-0.256 0.448-0.8 0.64-1.28 0.48-0.8-0.256-1.6-0.576-2.304-0.96-0.384-0.192-0.512-0.608-0.416-0.992 0.48-1.664 0.064-3.456-1.216-4.736-1.216-1.216-3.008-1.632-4.608-1.184-0.384 0.096-0.8-0.096-0.992-0.448-0.416-0.832-0.736-1.664-1.024-2.56-0.16-0.352 0.032-0.8 0.384-0.992 1.44-0.8 2.432-2.336 2.432-4.128s-0.96-3.296-2.368-4.096c-0.352-0.192-0.512-0.64-0.416-1.024 0.256-0.896 0.608-1.76 1.056-2.56 0.192-0.352 0.576-0.512 0.992-0.416 1.568 0.416 3.328 0 4.544-1.248 1.216-1.184 1.664-2.912 1.248-4.48-0.064-0.416 0.128-0.832 0.48-1.024 0.544-0.288 1.088-0.512 1.632-0.736zM11.008 20.192l-3.52 2.048c1.952 2.56 5.024 4.224 8.48 4.224s6.56-1.664 8.512-4.224l-3.52-2.048c-1.184 1.472-2.976 2.4-4.96 2.4-2.016 0-3.808-0.928-4.992-2.4zM14.656 5.184c-5.28 0.672-9.344 5.152-9.344 10.592 0 1.472 0.288 2.88 0.832 4.16l3.648-2.112c-0.16-0.576-0.256-1.184-0.256-1.824 0-3.168 2.208-5.824 5.12-6.464zM17.312 5.216v4.32c2.944 0.64 5.152 3.296 5.152 6.464 0 0.64-0.096 1.248-0.256 1.824l3.616 2.112c0.512-1.28 0.832-2.688 0.832-4.16 0-5.44-4.064-9.92-9.344-10.56zM16 12.704c-1.792 0-3.232 1.472-3.232 3.296s1.44 3.296 3.232 3.296c1.792 0 3.232-1.472 3.232-3.296s-1.44-3.296-3.232-3.296z"></path>
</svg>
