<svg width="28" height="22" viewBox="0 0 28 22" fill="none" xmlns="http://www.w3.org/2000/svg">
<path fill-rule="evenodd" clip-rule="evenodd" d="M18.6663 0.333313C18.9936 0.333313 19.2658 0.569147 19.3223 0.880145L19.333 0.99998V4.33331H26.667C27.0352 4.33331 27.3337 4.63179 27.3337 4.99998V17.64C27.3337 19.8642 25.5312 21.6666 23.307 21.6666H4.69233C2.46831 21.6666 0.666992 19.8643 0.666992 17.64V4.99998C0.666992 4.63179 0.965469 4.33331 1.33366 4.33331H8.66632V0.99998C8.66632 0.6727 8.90216 0.400502 9.21316 0.344054L9.33299 0.333313H18.6663ZM26.0002 12.6337C25.3516 13.2179 24.5121 13.5941 23.5865 13.6577L23.3063 13.6673L16.6663 13.6666V15.6666C16.6663 15.9939 16.4305 16.2661 16.1195 16.3226L15.9997 16.3333H11.9997C11.6724 16.3333 11.4002 16.0975 11.3437 15.7865L11.333 15.6666V13.6666L4.69299 13.6673C3.65768 13.6673 2.71375 13.2768 2.00044 12.6349L2.00033 17.64C2.00033 19.1281 3.20485 20.3333 4.69233 20.3333H23.307C24.7948 20.3333 26.0003 19.1278 26.0003 17.64L26.0002 12.6337ZM12.6663 11H15.333V15H12.6663V11ZM26.0003 5.66665H2.00033L1.99966 9.64065C1.99966 11.0608 3.09808 12.2238 4.49195 12.3266L4.69299 12.334L11.333 12.3333V10.3333C11.333 10.006 11.5688 9.73383 11.8798 9.67739L11.9997 9.66665H15.9997C16.3269 9.66665 16.5991 9.90248 16.6556 10.2135L16.6663 10.3333V12.3333L23.3063 12.334C24.7265 12.334 25.8895 11.2356 25.9923 9.84169L25.9997 9.64065L26.0003 5.66665ZM9.99966 1.66665H17.9997V4.33331H9.99966V1.66665Z" fill="black"/>
</svg>
