<svg xmlns="http://www.w3.org/2000/svg" xmlns:xlink="http://www.w3.org/1999/xlink" width="74" height="74"><path d="M14.322 15.438 C 13.971 15.611,13.658 15.900,13.427 16.263 L 13.073 16.822 13.073 22.409 L 13.073 27.997 12.333 27.997 C 11.183 27.997,11.099 28.133,11.103 30.001 C 11.106 31.677,11.261 32.216,11.917 32.831 C 12.712 33.577,12.230 33.547,23.460 33.546 C 30.247 33.546,33.890 33.501,34.198 33.416 C 34.804 33.248,35.501 32.628,35.783 32.006 C 35.961 31.616,36.008 31.195,36.011 30.010 C 36.013 28.533,36.008 28.504,35.688 28.252 C 35.451 28.066,35.184 27.997,34.702 27.997 L 34.040 27.997 34.040 22.504 C 34.040 18.107,34.006 16.933,33.870 16.615 C 33.662 16.132,32.992 15.478,32.521 15.301 C 32.288 15.213,29.322 15.170,23.518 15.170 C 14.887 15.170,14.860 15.171,14.322 15.438 M32.181 17.098 C 32.431 17.416,32.437 17.548,32.437 22.710 L 32.437 27.997 23.557 27.997 L 14.677 27.997 14.677 22.632 C 14.677 17.431,14.684 17.259,14.923 17.020 C 15.165 16.778,15.334 16.773,23.548 16.773 L 31.925 16.773 32.181 17.098 M40.083 18.993 C 39.948 19.129,39.837 19.379,39.837 19.548 C 39.837 19.718,39.948 19.968,40.083 20.103 C 40.323 20.343,40.494 20.350,45.880 20.350 L 51.430 20.350 51.430 26.663 L 51.430 32.977 50.153 31.720 C 49.079 30.664,48.814 30.463,48.488 30.463 C 48.033 30.463,47.607 30.835,47.607 31.230 C 47.607 31.634,51.884 35.890,52.289 35.890 C 52.508 35.890,53.144 35.335,54.721 33.767 C 55.896 32.599,56.888 31.547,56.925 31.428 C 56.997 31.202,56.792 30.712,56.561 30.558 C 56.486 30.508,56.257 30.466,56.053 30.465 C 55.744 30.464,55.470 30.675,54.449 31.699 L 53.218 32.935 53.157 26.016 C 53.097 19.347,53.086 19.090,52.856 18.922 C 52.656 18.776,51.583 18.747,46.473 18.747 C 40.494 18.747,40.323 18.753,40.083 18.993 M21.286 30.032 C 21.567 30.335,21.603 30.340,23.480 30.340 C 25.335 30.340,25.398 30.331,25.754 30.032 L 26.121 29.723 30.204 29.723 L 34.287 29.723 34.287 30.546 C 34.287 31.957,35.442 31.820,23.547 31.820 L 13.215 31.820 12.959 31.495 C 12.766 31.250,12.703 30.992,12.703 30.447 L 12.703 29.723 16.852 29.723 L 21.000 29.723 21.286 30.032 M18.473 42.647 C 16.550 44.570,16.403 44.748,16.403 45.168 C 16.403 45.495,16.479 45.672,16.677 45.811 C 17.215 46.188,17.468 46.062,18.813 44.754 L 20.097 43.504 20.131 50.376 L 20.165 57.249 20.456 57.484 C 20.734 57.709,21.024 57.720,26.760 57.720 C 32.657 57.720,32.780 57.715,33.098 57.464 C 33.535 57.121,33.535 56.592,33.098 56.249 C 32.781 55.999,32.651 55.993,27.302 55.993 L 21.830 55.993 21.830 49.680 L 21.830 43.366 23.168 44.685 C 23.977 45.481,24.605 46.003,24.755 46.003 C 24.892 46.003,25.150 45.888,25.328 45.748 C 25.965 45.247,25.838 45.034,23.530 42.712 C 21.587 40.757,21.371 40.577,20.975 40.577 C 20.581 40.577,20.363 40.756,18.473 42.647 M41.995 41.491 C 41.509 41.709,41.006 42.254,40.768 42.824 C 40.605 43.215,40.577 44.082,40.577 48.713 L 40.577 54.143 39.926 54.143 C 39.536 54.143,39.165 54.220,39.001 54.335 C 38.741 54.518,38.727 54.612,38.727 56.190 C 38.727 57.607,38.763 57.924,38.972 58.334 C 39.247 58.874,39.813 59.343,40.441 59.553 C 40.741 59.653,43.792 59.693,51.178 59.693 L 61.495 59.693 62.144 59.370 C 62.566 59.159,62.909 58.872,63.124 58.547 C 63.438 58.073,63.457 57.957,63.495 56.294 C 63.533 54.583,63.527 54.535,63.251 54.342 C 63.078 54.220,62.716 54.143,62.318 54.143 L 61.667 54.143 61.666 48.809 C 61.666 45.520,61.616 43.299,61.538 43.016 C 61.374 42.425,60.896 41.862,60.299 41.558 C 59.843 41.325,59.523 41.317,51.096 41.321 C 44.076 41.325,42.292 41.359,41.995 41.491 M59.666 43.112 L 59.940 43.304 59.940 48.724 L 59.940 54.143 51.122 54.143 L 42.303 54.143 42.303 48.724 L 42.303 43.304 42.577 43.112 C 42.819 42.943,43.836 42.920,51.122 42.920 C 58.407 42.920,59.424 42.943,59.666 43.112 M48.890 56.178 C 49.193 56.481,49.235 56.487,51.122 56.487 C 53.008 56.487,53.050 56.481,53.353 56.178 L 53.661 55.870 57.787 55.870 L 61.913 55.870 61.913 56.648 C 61.913 57.261,61.860 57.484,61.662 57.697 L 61.410 57.967 51.117 57.967 C 39.205 57.967,40.330 58.102,40.330 56.672 L 40.330 55.870 44.456 55.870 L 48.582 55.870 48.890 56.178 " stroke="none" fill-rule="evenodd" fill="black"></path></svg>