<?xml version="1.0" encoding="UTF-8"?>
<svg width="24px" height="24px" viewBox="0 0 24 24" version="1.1" xmlns="http://www.w3.org/2000/svg" xmlns:xlink="http://www.w3.org/1999/xlink">
    <title>C117EA5E-B5E3-47E2-A30D-DFE013C99AE2SVG/</title>
    <g id="Financiation-(versión-táctico)" stroke="none" stroke-width="1" fill="none" fill-rule="evenodd">
        <g id="EmployeeView_Financing_Request-Batches_02" transform="translate(-1176.000000, -777.000000)" fill="#EC0000">
            <g id="Group-16" transform="translate(1160.000000, 721.000000)">
                <g id="Group" transform="translate(16.000000, 56.000000)">
                    <g id="Atoms/ico/normal-size/refresh-24-Copy" transform="translate(12.000000, 12.000000) scale(-1, -1) rotate(-180.000000) translate(-12.000000, -12.000000) ">
                        <path d="M2.5042,1.9997 C2.55342323,2.00067057 2.59975855,2.00800066 2.643204,2.02095452 L2.72021434,2.04877007 L4.67927242,2.987241 L6.63485678,2.08563457 C6.74110876,2.03664795 6.86025752,2.02684205 6.9716737,2.05621867 L7.05346365,2.08559789 L9.0142,2.98916303 L10.9749364,2.08559789 C11.0811747,2.03664014 11.2002985,2.02684859 11.311691,2.05622324 L11.3934636,2.08559789 L13.3500296,2.98724118 L15.3081047,2.04880886 L15.5242,1.9997 C15.7741043,1.9997 15.9787466,2.17657516 16.0211375,2.40982437 L16.0292,2.4997 L16.0292,9.5377 C16.0292,9.81384237 15.8053424,10.0377 15.5292,10.0377 C15.2837401,10.0377 15.0795916,9.86082484 15.0372557,9.62757563 L15.0292,9.5377 L15.0292,3.29139258 L13.5702953,3.99059114 C13.462904,4.04205978 13.3416339,4.05310682 13.2282016,4.02356833 L13.1449364,3.99380211 L11.1842,3.09023697 L9.22346365,3.99380211 C9.11722533,4.04275986 8.99810151,4.05255141 8.88670899,4.02317676 L8.80493635,3.99380211 L6.84424824,3.0902592 L4.88454322,3.99376543 C4.77639644,4.04362564 4.65497565,4.05286207 4.54199722,4.02163481 L4.45918566,3.99062993 L2.9999,3.2917 L2.9999,20.7574492 L4.46279533,20.0839247 C4.56898412,20.0350348 4.68803149,20.0252654 4.79935824,20.0546146 L4.88108413,20.0839613 L6.84294816,20.9876296 L8.80579533,20.0839247 C8.91198412,20.0350348 9.03103149,20.0252654 9.14235824,20.0546146 L9.22408413,20.0839613 L11.3950841,21.0839613 C11.645898,21.1994905 11.7555679,21.4964702 11.6400387,21.7472841 C11.5373461,21.9702298 11.2912851,22.0816543 11.0617181,22.0225231 L10.9767159,21.9922387 L9.01485184,21.0885704 L7.05200467,21.9922753 C6.94581588,22.0411652 6.82676851,22.0509346 6.71544176,22.0215854 L6.63371587,21.9922387 L4.67185184,21.0885704 L2.70900467,21.9922753 C2.40321783,22.1330612 2.05775301,21.9376893 2.00641397,21.6199582 L1.9999,21.5381 L1.9999,2.5001 C1.9999,2.40805254 2.02477307,2.3218145 2.06816466,2.24774043 C2.08312605,2.22264907 2.09971337,2.19930926 2.1181449,2.17755636 L2.17775636,2.11769373 C2.24301506,2.06266253 2.32255591,2.02403165 2.41002437,2.00815567 L2.5042,1.9997 Z M12.6256466,12.6107466 C14.7728937,10.4634996 18.2554063,10.4634996 20.4037534,12.6107466 C22.5520155,14.7590088 22.5520306,18.2416272 20.4037081,20.3888987 C18.2554272,22.5371306 14.7728088,22.5371155 12.6257372,20.3889439 C10.4773694,18.2416762 10.4773694,14.7590238 12.6256466,12.6107466 Z M19.6967372,13.3179439 C17.9389937,11.5611004 15.0895063,11.5611004 13.3327534,13.3178534 C11.5750306,15.0755762 11.5750306,17.9249238 13.3328439,19.6818372 C15.0895762,21.4394694 17.9389238,21.4394694 19.6967372,19.6816561 C21.4543694,17.9249238 21.4543694,15.0755762 19.6967372,13.3179439 Z M14.8704841,14.8889091 C15.0440198,14.7153121 15.3134408,14.6959793 15.5083328,14.8309409 L15.5775909,14.8887841 L16.6369,15.9487 L17.6996091,14.8886841 C17.8732061,14.7151484 18.142634,14.6959109 18.3374782,14.8309414 L18.4067159,14.8888091 C18.5802516,15.0624061 18.5994891,15.331834 18.4644586,15.5266782 L18.4065909,15.5959159 L17.3449,16.6557 L18.4065909,17.7167841 C18.5801879,17.8903198 18.5995207,18.1597408 18.4645591,18.3546328 L18.4067159,18.4238909 C18.2331802,18.5974879 17.9637592,18.6168207 17.7688672,18.4818591 L17.6996091,18.4240159 L16.6379,17.3627 L15.5775909,18.4239159 C15.4039939,18.5974516 15.134566,18.6166891 14.9397218,18.4816586 L14.8704841,18.4237909 C14.6969484,18.2501939 14.6777109,17.980766 14.8127414,17.7859218 L14.8706091,17.7166841 L15.9299,16.6557 L14.8706091,15.5960159 C14.6970121,15.4224802 14.6776793,15.1530592 14.8126409,14.9581672 L14.8704841,14.8889091 Z M9.5145,13.0001 C9.79064237,13.0001 10.0145,13.2239576 10.0145,13.5001 C10.0145,13.7455599 9.83762484,13.9497084 9.60437563,13.9920443 L9.5145,14.0001 L5.5145,14.0001 C5.23835763,14.0001 5.0145,13.7762424 5.0145,13.5001 C5.0145,13.2546401 5.19137516,13.0504916 5.42462437,13.0081557 L5.5145,13.0001 L9.5145,13.0001 Z M12.5145,10.0001 C12.7906424,10.0001 13.0145,10.2239576 13.0145,10.5001 C13.0145,10.7455599 12.8376248,10.9497084 12.6043756,10.9920443 L12.5145,11.0001 L5.5145,11.0001 C5.23835763,11.0001 5.0145,10.7762424 5.0145,10.5001 C5.0145,10.2546401 5.19137516,10.0504916 5.42462437,10.0081557 L5.5145,10.0001 L12.5145,10.0001 Z M12.5145,7.0001 C12.7906424,7.0001 13.0145,7.22395763 13.0145,7.5001 C13.0145,7.74555989 12.8376248,7.94970837 12.6043756,7.99204433 L12.5145,8.0001 L5.5145,8.0001 C5.23835763,8.0001 5.0145,7.77624237 5.0145,7.5001 C5.0145,7.25464011 5.19137516,7.05049163 5.42462437,7.00815567 L5.5145,7.0001 L12.5145,7.0001 Z" id="icon-color"></path>
                    </g>
                </g>
            </g>
        </g>
    </g>
</svg>