<?xml version="1.0" encoding="UTF-8"?>
<svg width="24px" height="24px" viewBox="0 0 24 24" version="1.1" xmlns="http://www.w3.org/2000/svg" xmlns:xlink="http://www.w3.org/1999/xlink">
    <title>3AB579EE-55E7-411D-A2BA-1EA90296F493</title>
    <g id="Confirming---MVP02-V03" stroke="none" stroke-width="1" fill="none" fill-rule="evenodd">
        <g id="Selector-01A" transform="translate(-1328.000000, -102.000000)" fill="#767676" fill-rule="nonzero">
            <g id="Group-38" transform="translate(950.000000, 0.000000)">
                <g id="Forms,-data-input-and-selections/Text-input/sky/b.-with-icon/a.-default" transform="translate(32.000000, 90.000000)">
                    <g id="icon" transform="translate(346.000000, 12.000000)">
                        <path d="M9.2156,1.9998 C13.2007424,1.9998 16.4316,5.23065763 16.4316,9.2158 C16.4316,10.4145077 16.1392812,11.54497 15.6220435,12.5397867 L21.3616534,18.2800466 C22.2129155,19.1313088 22.2129155,20.5108912 21.3613836,21.362423 C20.5527006,22.1698732 19.267381,22.2102457 18.4119415,21.4833352 L18.2805767,21.3621835 L12.5385892,15.6227621 C11.5440143,16.1396766 10.4139071,16.4318 9.2156,16.4318 C5.23045763,16.4318 1.9996,13.2009424 1.9996,9.2158 C1.9996,5.23065763 5.23045763,1.9998 9.2156,1.9998 Z M13.4162456,15.0836947 L18.9876534,20.6550466 C19.4474362,21.1148294 20.1940617,21.1148294 20.6545466,20.6550466 C21.0823746,20.2272186 21.1129338,19.5530648 20.746224,19.0900474 L20.6545466,18.9871534 L15.0834947,13.4164456 C14.622643,14.0590526 14.0588526,14.622843 13.4162456,15.0836947 Z M9.2156,2.9998 C5.78274237,2.9998 2.9996,5.78294237 2.9996,9.2158 C2.9996,12.6486576 5.78274237,15.4318 9.2156,15.4318 C12.6484576,15.4318 15.4316,12.6486576 15.4316,9.2158 C15.4316,5.78294237 12.6484576,2.9998 9.2156,2.9998 Z" id="icon-color"></path>
                    </g>
                </g>
            </g>
        </g>
    </g>
</svg>