<?xml version="1.0" encoding="UTF-8"?>
<svg width="24px" height="24px" viewBox="0 0 24 24" version="1.1" xmlns="http://www.w3.org/2000/svg" xmlns:xlink="http://www.w3.org/1999/xlink">
    <title>SVG/B. Digital,  Tech &amp; Docs/e. Arrows/BE210-trade | SYMBOLS, arrow, trade, exchange, comercio, cambio</title>
    <g id="B.-Digital,--Tech-&amp;-Docs/e.-Arrows/BE210-trade-|-SYMBOLS,-arrow,-trade,-exchange,-comercio,-cambio" stroke="none" stroke-width="1" fill="none" fill-rule="evenodd">
        <path d="M21.5,7.9982 C21.7454599,7.9982 21.9496084,8.17507516 21.9919443,8.40832437 L22,8.4982 L22,12.4982 C22,12.7743424 21.7761424,12.9982 21.5,12.9982 C21.2545401,12.9982 21.0503916,12.8213248 21.0080557,12.5880756 L21,12.4982 L21,9.7219 L10.8582298,19.8515768 C10.6845538,20.0250334 10.4151173,20.0441482 10.2203345,19.909029 L10.1511232,19.8511298 C9.97766659,19.6774538 9.95855175,19.4080173 10.093671,19.2132345 L10.1515702,19.1440232 L20.31,8.9979 L17.5,8.9982 C17.2545401,8.9982 17.0503916,8.82132484 17.0080557,8.58807563 L17,8.4982 C17,8.25274011 17.1768752,8.04859163 17.4101244,8.00625567 L17.5,7.9982 L21.5,7.9982 Z M13.1471319,4.14576225 C13.3427168,3.95082337 13.6592989,3.95134706 13.8542377,4.14693193 C14.0275168,4.32078516 14.0463562,4.59024109 13.911038,4.78488566 L13.8530681,4.85403775 L3.69,14.9829 L6.5,14.9836 C6.74545989,14.9836 6.94960837,15.1604752 6.99194433,15.3937244 L7,15.4836 C7,15.7290599 6.82312484,15.9332084 6.58987563,15.9755443 L6.5,15.9836 L2.5,15.9836 C2.25454011,15.9836 2.05039163,15.8067248 2.00805567,15.5734756 L2,15.4836 L2,11.4836 C2,11.2074576 2.22385763,10.9836 2.5,10.9836 C2.74545989,10.9836 2.94960837,11.1604752 2.99194433,11.3937244 L3,11.4836 L3,14.2579 L13.1471319,4.14576225 Z" id="icon-color" fill="#EC0000" fill-rule="nonzero"></path>
    </g>
</svg>