<?xml version="1.0" encoding="UTF-8"?>
<svg width="28px" height="21px" viewBox="0 0 28 21" version="1.1" xmlns="http://www.w3.org/2000/svg" xmlns:xlink="http://www.w3.org/1999/xlink">
    <!-- Generator: sketchtool 64 (101010) - https://sketch.com -->
    <title>5041C449-BD95-41A5-A4E2-91C11EE9B235</title>
    <desc>Created with sketchtool.</desc>
    <g id="Dashboard" stroke="none" stroke-width="1" fill="none" fill-rule="evenodd">
        <g id="dashboard_1400_dev" transform="translate(-1311.000000, -13.000000)" fill="#FFFFFF">
            <g id="atoms/ico/24/vdr-24" transform="translate(1311.000000, 13.000000)">
                <path d="M20.2989539,6.50107296 C22.200263,6.50107296 23.9876834,7.2203505 25.3318702,8.52673065 C26.6763899,9.83294901 27.4166667,11.5696661 27.4166667,13.4172031 C27.4165002,15.2645784 26.6760569,17.0012955 25.3317037,18.3075139 C23.9875169,19.613894 22.19993,20.3333333 20.2984544,20.3333333 C18.3971453,20.3333333 16.6095584,19.613894 15.2653717,18.3076756 C13.9206854,17.0014573 13.1804087,15.2647401 13.1805751,13.4172031 C13.1805751,11.5698279 13.9210184,9.83311079 15.2657047,8.52689243 C16.6098914,7.22051228 18.3974783,6.50107296 20.2989539,6.50107296 Z M17.4640569,16.9362596 C17.031979,17.0744204 16.6293724,17.245261 16.2638961,17.4450603 C16.9282471,18.0735788 17.7201401,18.5294772 18.5832968,18.78865 C18.1305724,18.2212847 17.7564379,17.5985903 17.4640569,16.9362596 Z M23.3279946,17.0022662 C23.0570926,17.6018259 22.7179239,18.1672499 22.3144848,18.6886695 C23.0607557,18.4194662 23.7467521,17.999645 24.3330127,17.4448985 C24.0233153,17.275514 23.6864777,17.1276463 23.3279946,17.0022662 Z M20.9646369,16.535205 L20.9646369,18.2593032 C21.3895551,17.7763874 21.7445416,17.2399222 22.0244348,16.6639825 C21.6807706,16.6028293 21.3266166,16.558825 20.9646369,16.535205 L20.9646369,16.535205 Z M19.6326049,16.535205 C19.3433875,16.5542951 19.0594982,16.5866513 18.78127,16.629685 C19.0133766,17.113895 19.2972659,17.5712493 19.6326049,17.9920413 L19.6326049,17.9920413 Z M16.7527518,14.0640029 L14.551569,14.0640029 C14.6509719,14.9115726 14.9448515,15.7162704 15.4123947,16.4290767 C15.9000849,16.1430482 16.4457185,15.9037744 17.0318125,15.7149762 C16.8874536,15.1807759 16.7935453,14.628618 16.7527518,14.0640029 L16.7527518,14.0640029 Z M26.0453398,14.0640029 L24.0687709,14.0640029 C24.0261458,14.6532086 23.927076,15.2289866 23.7718942,15.7847037 C24.2795649,15.9616919 24.7549338,16.1768604 25.1843476,16.4289149 C25.6518908,15.7161086 25.9459369,14.9114108 26.0453398,14.0640029 L26.0453398,14.0640029 Z M17.7572709,0.5 C18.4377287,0.5 18.9972994,0.997087232 19.0645878,1.63420001 L19.0713716,1.76338378 L19.0715064,5.3402121 C15.0110667,5.84495693 12.2740566,8.57632383 11.8436326,12.5022054 L4.50233333,12.502 L1.33193273,15.5839735 C1.07547971,15.8331518 0.649820574,15.6870944 0.59032056,15.3609949 L0.583333333,15.2826431 L0.583333333,1.76338378 C0.583333333,1.10918787 1.10037552,0.57121339 1.7630644,0.506522034 L1.89743409,0.5 L17.7572709,0.5 Z M22.7335753,14.0640029 L20.9646369,14.0640029 L20.9646369,15.2399877 C21.4859609,15.2704025 21.9964621,15.3362473 22.4883149,15.4354189 C22.6116944,14.9918159 22.6939474,14.5331673 22.7335753,14.0640029 L22.7335753,14.0640029 Z M19.6326049,14.0640029 L18.0881139,14.0640029 C18.1264098,14.5187688 18.2045002,14.9638278 18.3215525,15.3944884 C18.7474697,15.3176425 19.1860412,15.2661962 19.6326049,15.2399877 L19.6326049,15.2399877 L19.6326049,14.0640029 Z M18.3596819,11.3083901 C18.2221496,11.7796577 18.1305724,12.2685593 18.0881139,12.7697563 L18.0881139,12.7697563 L19.6326049,12.7697563 L19.6326049,11.4554489 C19.1993615,11.4300493 18.7734443,11.3813533 18.3596819,11.3083901 Z M22.450352,11.2672978 C21.969988,11.3622631 21.4726406,11.4256812 20.9646369,11.4554489 L20.9646369,11.4554489 L20.9646369,12.7697563 L22.7335753,12.7697563 C22.6899513,12.2541608 22.5945445,11.7511842 22.450352,11.2672978 Z M15.4789963,10.3035694 C14.9721581,11.0408046 14.6559671,11.8822267 14.5517355,12.7697563 L14.5517355,12.7697563 L16.7527518,12.7697563 C16.7970419,12.1601662 16.9004409,11.5641656 17.0649468,10.9906526 C16.4928391,10.8086492 15.9591938,10.5782733 15.4789963,10.3035694 Z M25.1185785,10.3034076 C24.6958249,10.5454318 24.2316118,10.7529966 23.7357629,10.9235135 C23.9114246,11.5178963 24.0231488,12.1362226 24.0689374,12.7697563 L24.0689374,12.7697563 L26.0455063,12.7697563 C25.9412748,11.8820649 25.6252502,11.0408046 25.1185785,10.3034076 Z M19.6326049,8.84236503 C19.3272366,9.22546202 19.0634943,9.63865024 18.8435425,10.0751349 C19.1017902,10.1133152 19.3648665,10.1425975 19.6326049,10.1600698 L19.6326049,10.1600698 Z M20.9646369,8.57494133 L20.9646369,10.1600698 C21.304305,10.1377441 21.6374795,10.0984313 21.9613298,10.0431023 C21.6917598,9.51537326 21.3582523,9.02226531 20.9646369,8.57494133 L20.9646369,8.57494133 Z M18.5829638,8.04591804 C17.7606005,8.29295736 17.0026743,8.71892626 16.3583039,9.30230791 C16.7139564,9.48835586 17.1039088,9.64625394 17.5188367,9.77584038 C17.8028925,9.15929367 18.1583786,8.57833873 18.5829638,8.04591804 Z M22.3141518,8.14541325 C22.6907838,8.63204996 23.0128025,9.15638161 23.2742138,9.7116134 C23.616213,9.59496942 23.9402298,9.45858819 24.2392709,9.30198435 C23.6739899,8.79027161 23.0211277,8.40005626 22.3141518,8.14541325 Z M4.25752885,5.50089413 C3.67775681,5.50089413 3.2077587,5.94868945 3.2077587,6.50107296 C3.2077587,7.05345647 3.67775681,7.50125179 4.25752885,7.50125179 C4.83730089,7.50125179 5.307299,7.05345647 5.307299,6.50107296 C5.307299,5.94868945 4.83730089,5.50089413 4.25752885,5.50089413 Z M8.1941669,5.50089413 C7.61439486,5.50089413 7.14439675,5.94868945 7.14439675,6.50107296 C7.14439675,7.05345647 7.61439486,7.50125179 8.1941669,7.50125179 C8.77393894,7.50125179 9.24393705,7.05345647 9.24393705,6.50107296 C9.24393705,5.94868945 8.77393894,5.50089413 8.1941669,5.50089413 Z M12.130805,5.50089413 C11.5510329,5.50089413 11.0810348,5.94868945 11.0810348,6.50107296 C11.0810348,7.05345647 11.5510329,7.50125179 12.130805,7.50125179 C12.710577,7.50125179 13.1805751,7.05345647 13.1805751,6.50107296 C13.1805751,5.94868945 12.710577,5.50089413 12.130805,5.50089413 Z" id="Combined-Shape"></path>
            </g>
        </g>
    </g>
</svg>