<?xml version="1.0" encoding="UTF-8"?>
<svg width="24px" height="24px" viewBox="0 0 24 24" version="1.1" xmlns="http://www.w3.org/2000/svg" xmlns:xlink="http://www.w3.org/1999/xlink">
    <title>28781D84-874D-484C-9699-D37557A1461A</title>
    <g id="Symbols" stroke="none" stroke-width="1" fill="none" fill-rule="evenodd">
        <g id="Atoms/ico/normal-size/folder_new-24" fill="#EC0000">
            <path d="M8.77478777,3 C9.04729332,3 9.30509852,3.07382891 9.56024714,3.22285726 C9.7388399,3.34400947 9.89252289,3.49793897 10.0093075,3.67807122 L10.0897902,3.81798071 L10.8624978,5.43130451 C10.8756398,5.45725497 10.8880169,5.47161222 10.8959418,5.47736281 L10.9284547,5.48956902 L10.9692846,5.49476924 L20.6546978,5.49476924 C21.0403005,5.49476924 21.4111664,5.64909387 21.6797157,5.9142356 C21.9134773,6.14503109 22.062769,6.44409712 22.1006531,6.76942271 L22.1101865,6.93407931 L22.1099162,8.27341935 L22.2441921,19.93258 C22.163233,20.2401538 21.9773504,20.5048186 21.7194021,20.7021298 C21.5092281,20.8633004 21.2637853,20.9627076 21.0020254,20.9913664 L20.8431631,21 L3.45548875,21 C3.06973928,21 2.69889636,20.845936 2.43047082,20.5809165 C2.19794052,20.3513368 2.04776932,20.0445718 2.00960877,19.7156433 L2,19.5495868 L2,4.45003038 C2,4.06007514 2.15927477,3.68722124 2.43047082,3.41946636 C2.66073894,3.19212008 2.96584508,3.04633091 3.29131123,3.00931659 L3.45548875,3 L8.77478777,3 Z M8.81557769,4.35262581 L3.45548875,4.35710189 C3.42000636,4.35710189 3.38894613,4.36973468 3.37161448,4.38693966 L3.3548331,4.41364412 L3.34818862,4.44964751 L3.3474676,15.339871 L3.43127171,18.7145021 C3.44474258,19.2569483 3.88835012,19.6896762 4.4309635,19.6896762 L20.064446,19.6896762 C20.6167307,19.6896762 21.064446,19.241961 21.064446,18.6896762 L21.064081,18.662661 L21.064081,18.662661 L20.7721449,7.86025297 C20.757564,7.32072014 20.3174693,6.89010851 19.7777469,6.88728191 L10.9692846,6.84115082 C10.6965611,6.84115082 10.4386819,6.76753514 10.1938068,6.62514177 C10.0528099,6.53802266 9.92813228,6.42664416 9.8273529,6.29623817 L9.75158508,6.18425806 L9.73170118,6.18453184 L8.87390707,4.40509319 C8.86469499,4.38394158 8.86420706,4.3833746 8.81557769,4.35262581 Z M12,9 C12.5522847,9 13,9.44771525 13,10 L13,12.499 L15.5,12.5 C16.0522847,12.5 16.5,12.9477153 16.5,13.5 C16.5,14.0522847 16.0522847,14.5 15.5,14.5 L13,14.5 L13,17 C13,17.5522847 12.5522847,18 12,18 C11.4477153,18 11,17.5522847 11,17 L11,14.5 L8.5,14.5 C7.94771525,14.5 7.5,14.0522847 7.5,13.5 C7.5,12.9477153 7.94771525,12.5 8.5,12.5 L11,12.5 L11,10 C11,9.44771525 11.4477153,9 12,9 Z" id="Shape"></path>
        </g>
    </g>
</svg>