<?xml version="1.0" encoding="UTF-8"?>
<svg width="24px" height="24px" viewBox="0 0 24 24" version="1.1" xmlns="http://www.w3.org/2000/svg" xmlns:xlink="http://www.w3.org/1999/xlink">
    <title>info-circle</title>
    <g id="info-circle" stroke="none" stroke-width="1" fill="none" fill-rule="evenodd">
        <path d="M12,2 C17.5141602,2 22,6.4858398 22,12 C22,17.5141602 17.5141602,22 12,22 C6.4858398,22 2,17.5141602 2,12 C2,6.4858398 6.4858398,2 12,2 Z M12,3 C7.0375977,3 3,7.0375977 3,12 C3,16.9624023 7.0375977,21 12,21 C16.9624023,21 21,16.9624023 21,12 C21,7.0375977 16.9624023,3 12,3 Z M12,16 C12.2763672,16 12.5,16.2236328 12.5,16.5 L12.5,16.5 L12.5,17.5 C12.5,17.7763672 12.2763672,18 12,18 C11.7236328,18 11.5,17.7763672 11.5,17.5 L11.5,17.5 L11.5,16.5 C11.5,16.2236328 11.7236328,16 12,16 Z M12,6 C12.2763672,6 12.5,6.2236328 12.5,6.5 L12.5,6.5 L12.5,14.5 C12.5,14.7763672 12.2763672,15 12,15 C11.7236328,15 11.5,14.7763672 11.5,14.5 L11.5,14.5 L11.5,6.5 C11.5,6.2236328 11.7236328,6 12,6 Z" id="🌈-Color" fill="#000000"></path>
    </g>
</svg>