<?xml version="1.0" encoding="UTF-8"?>
<svg width="24px" height="24px" viewBox="0 0 24 24" version="1.1" xmlns="http://www.w3.org/2000/svg" xmlns:xlink="http://www.w3.org/1999/xlink">
    <title>9DDD6FBA-A1D7-4ECC-B639-63665EDA12B1</title>
    <g id="Styles" stroke="none" stroke-width="1" fill="none" fill-rule="evenodd">
        <g id="Icons" transform="translate(-393.000000, -600.000000)" fill="#444444">
            <g id="atoms/ico/24/add-24-copy-9" transform="translate(393.000000, 600.000000)">
                <path d="M18.0869565,1.75 C20.3164697,1.75 22.1366392,3.50260849 22.2449052,5.70526562 L22.25,5.91304348 L22.25,18.0869565 C22.25,20.3164697 20.4973915,22.1366392 18.2947344,22.2449052 L18.0869565,22.25 L5.91304348,22.25 C3.68353034,22.25 1.86336084,20.4973915 1.75509484,18.2947344 L1.75,18.0869565 L1.75,5.91304348 C1.75,3.68353034 3.50260849,1.86336084 5.70526562,1.75509484 L5.91304348,1.75 L18.0869565,1.75 Z M17.402,3.119 L6.597,3.119 L6.597,20.88 L17.402,20.88 L17.402,3.119 Z M5.228,17.467 L3.119,17.467 L3.11956505,18.0866635 C3.12105556,19.3584412 3.97794302,20.4525563 5.17843383,20.7787402 L5.228,20.79 L5.228,17.467 Z M20.88,17.467 L18.771,17.467 L18.771,20.79 L18.8215662,20.7787403 C19.9674892,20.4673848 20.8003356,19.456342 20.8749776,18.259189 L20.8804348,18.0869565 L20.88,17.467 Z M8.86458345,8.05068236 C9.15812553,7.8733549 9.51410598,7.84164088 9.82838478,7.95724852 L9.96021891,8.01581932 L15.8854296,10.9979891 C16.2654263,11.1873787 16.5055947,11.5754227 16.5055947,12 C16.5055947,12.3821196 16.3110583,12.7346472 15.9957703,12.9390775 L15.8863033,13.0015733 L9.92846934,15.9999853 C9.77587327,16.0720269 9.60937789,16.1098711 9.44052254,16.110896 C9.22835022,16.1120606 9.02045338,16.0512561 8.84451087,15.9373 C8.55636735,15.754834 8.36914242,15.4524912 8.3310942,15.1180521 L8.32391303,14.9913043 L8.32391303,9.00861798 C8.32402129,8.66022838 8.4860655,8.33443705 8.75768996,8.12400552 L8.86458345,8.05068236 Z M5.228,12.684 L3.119,12.684 L3.119,16.097 L5.228,16.097 L5.228,12.684 Z M20.88,12.684 L18.771,12.684 L18.771,16.097 L20.88,16.097 L20.88,12.684 Z M9.693,9.413 L9.693,14.586 L14.826,12 L9.693,9.413 Z M5.228,7.902 L3.119,7.902 L3.119,11.315 L5.228,11.315 L5.228,7.902 Z M20.88,7.902 L18.771,7.902 L18.771,11.315 L20.88,11.315 L20.88,7.902 Z M18.771,3.209 L18.771,6.532 L20.88,6.532 L20.880435,5.91333648 C20.8789444,4.64155881 20.022057,3.54744371 18.8215662,3.22125983 L18.771,3.209 Z M5.228,3.209 L5.17843383,3.22125966 C4.03510925,3.5319092 3.20344305,4.53907638 3.12554189,5.73267 L3.11956522,5.91304348 L3.119,6.532 L5.228,6.532 L5.228,3.209 Z" id="Shape"></path>
            </g>
        </g>
    </g>
</svg>