<?xml version="1.0" encoding="UTF-8"?>
<svg width="24px" height="24px" viewBox="0 0 24 24" version="1.1" xmlns="http://www.w3.org/2000/svg" xmlns:xlink="http://www.w3.org/1999/xlink">
    <title>atoms/ico/24/help empty-24</title>
    <g id="atoms/ico/24/help-empty-24" stroke="none" stroke-width="1" fill="none" fill-rule="evenodd">
        <path d="M12,0.75 C18.2132034,0.75 23.25,5.78679656 23.25,12 C23.25,18.2132034 18.2132034,23.25 12,23.25 C5.78679656,23.25 0.75,18.2132034 0.75,12 C0.75,5.78679656 5.78679656,0.75 12,0.75 Z M12,2.25 C6.61522369,2.25 2.25,6.61522369 2.25,12 C2.25,17.3847763 6.61522369,21.75 12,21.75 C17.3847763,21.75 21.75,17.3847763 21.75,12 C21.75,6.61522369 17.3847763,2.25 12,2.25 Z M11.9999794,17.5 C12.4395509,17.5 12.801839,17.8509456 12.8513517,18.3030717 L12.8571183,18.4090909 L12.8571183,19.3181818 C12.8571183,19.8202589 12.4733641,20.2272728 11.9999794,20.2272728 C11.5604078,20.2272728 11.1981198,19.8763271 11.148607,19.424201 L11.1428404,19.3181818 L11.1428404,18.4090909 C11.1428404,17.9070139 11.5265946,17.5 11.9999794,17.5 Z M12.8068253,4.56765613 C14.619359,4.87658768 16.1089702,6.32467567 16.4302316,8.10014874 C16.7568452,9.90906043 15.9163408,11.7129608 14.3357356,12.6505481 L14.1635724,12.7476496 C13.4281761,13.1417355 12.9559956,13.7632991 12.8505563,14.4404391 L12.8336133,14.5863285 L12.8274618,14.7428445 L12.8274618,15.0410718 C12.8274618,15.5002628 12.4536688,15.8636363 12.0008155,15.8636363 C11.6276196,15.8636363 11.3034462,15.6157977 11.203154,15.2498432 L11.1814837,15.1472064 L11.1741693,15.0410718 L11.1741693,14.7428445 C11.1741693,13.3881552 11.9296355,12.1537622 13.1952574,11.4029385 L13.3795045,11.2990067 C14.4624243,10.7189513 15.0173919,9.58041362 14.8025171,8.39137537 C14.6046022,7.29363767 13.6685544,6.38352517 12.5270933,6.18958071 C11.6616348,6.0418157 10.8219444,6.25688958 10.1640127,6.79295415 C9.5664473,7.28045744 9.20715792,7.97509081 9.15887967,8.72054562 L9.15329255,8.89340466 C9.15329255,9.35259572 8.77949949,9.71596922 8.32664628,9.71596922 C7.87379306,9.71596922 7.5,9.35259572 7.5,8.89340466 C7.5,7.58729008 8.08983005,6.35747538 9.11505187,5.52061314 C10.1346688,4.6879119 11.4794516,4.3415522 12.8068253,4.56765613 Z" id="Combined-Shape" fill="#EC0000"></path>
    </g>
</svg>