<?xml version="1.0" encoding="UTF-8"?>
<svg width="20px" height="20px" viewBox="0 0 20 20" version="1.1" xmlns="http://www.w3.org/2000/svg" xmlns:xlink="http://www.w3.org/1999/xlink">
    <title>Group 9</title>
    <defs>
        <path d="M2.9287109,17.0708008 C4.8173828,18.9599609 7.3291016,20 10,20 C12.6708984,20 15.1826172,18.9599609 17.0712891,17.0708008 C20.9697266,13.171875 20.9697266,6.828125 17.0712891,2.9291992 C15.1826172,1.0400391 12.6708984,0 10,0 C7.3291016,0 4.8173828,1.0400391 2.9287109,2.9291992 C-0.9697266,6.828125 -0.9697266,13.171875 2.9287109,17.0708008 Z M10,1 C12.4042969,1 14.6640625,1.9360352 16.3642578,3.6362305 C19.8730469,7.1450196 19.8730469,12.8549805 16.3642578,16.3637696 C14.6640625,18.0639648 12.4042969,19 10,19 C7.5957031,19 5.3359375,18.0639648 3.6357422,16.3637695 C0.1269531,12.8549804 0.1269531,7.1450195 3.6357422,3.6362304 C5.3359375,1.9360352 7.5957031,1 10,1 Z" id="path-1"></path>
    </defs>
    <g id="Symbols" stroke="none" stroke-width="1" fill="none" fill-rule="evenodd">
        <g id="Components/Overlays/Toasters/Warning/desktop_width" transform="translate(-18.000000, -18.000000)">
            <g id="Group-9" transform="translate(18.000000, 18.000000)">
                <g id="Group-2">
                    <g id="icon">
                        <mask id="mask-2" fill="white">
                            <use xlink:href="#path-1"></use>
                        </mask>
                        <use id="Icon-color" fill="#946F00" xlink:href="#path-1"></use>
                    </g>
                    <g id="Group-7" transform="translate(9.000000, 4.000000)" fill="#946F00">
                        <rect id="Rectangle" x="0.25" y="0" width="1.5" height="8" rx="0.75"></rect>
                        <rect id="Rectangle-Copy" x="0.25" y="10" width="1.5" height="1.5" rx="0.75"></rect>
                    </g>
                </g>
                <g id="Group-3" transform="translate(9.000000, 4.000000)">
                    <g id="Group-4" transform="translate(1.000000, 6.000000) scale(1, -1) translate(-1.000000, -6.000000) "></g>
                </g>
            </g>
        </g>
    </g>
</svg>