<?xml version="1.0" encoding="UTF-8"?>
<svg width="24px" height="24px" viewBox="0 0 24 24" version="1.1" xmlns="http://www.w3.org/2000/svg" xmlns:xlink="http://www.w3.org/1999/xlink">
    <title>EDA4B449-2EE5-41D9-B08A-503C7146C6A2</title>
    <g id="Symbols" stroke="none" stroke-width="1" fill="none" fill-rule="evenodd">
        <g id="Atoms/ico/normal-size/doc-€-24" fill="#EC0000">
            <path d="M16.5,1.75 C16.8276319,1.75 17.1111373,1.96144533 17.213662,2.27839418 L17.2409461,2.38780601 L17.25,2.5 L17.25,5.75 L19.5,5.75 C19.7912283,5.75 20.0475913,5.91706791 20.1729718,6.17679743 L20.213662,6.27839418 L20.2409461,6.38780601 L20.25,6.5 L20.25,21.5 C20.25,21.8276319 20.0385547,22.1111373 19.7216058,22.213662 L19.612194,22.2409461 L19.5,22.25 L7.5,22.25 C7.17236813,22.25 6.88886271,22.0385547 6.78633805,21.7216058 L6.75905388,21.612194 L6.75,21.5 L6.75,18.25 L4.5,18.25 C4.20877167,18.25 3.95240869,18.0829321 3.8270282,17.8232026 L3.78633805,17.7216058 L3.75905388,17.612194 L3.75,17.5 L3.75,2.5 C3.75,2.17236813 3.96144533,1.88886271 4.27839418,1.78633805 L4.38780601,1.75905388 L4.5,1.75 L16.5,1.75 Z M18.75,7.25 L8.25,7.25 L8.25,20.75 L18.75,20.75 L18.75,7.25 Z M14.5928082,14.0402657 C14.8685954,14.0402657 15.0854796,14.2851927 15.0854796,14.5802391 C15.0854796,14.8130114 14.949911,15.0178738 14.7397696,15.0933418 L14.6670443,15.1135662 L14.5928082,15.1202126 L10.9895629,15.11976 L11.0090482,15.1615527 C11.4887781,16.1364705 12.3629056,16.7916239 13.3393838,16.9031332 L13.4943725,16.9161894 L13.6365326,16.9200531 C14.6133875,16.9200531 15.5346571,16.3792212 16.1003874,15.4698702 C16.2563168,15.220634 16.5708757,15.157845 16.7965275,15.337433 C17.0131537,15.5096816 17.0639239,15.8385601 16.9142751,16.0793174 C16.1662347,17.2807709 14.9409648,18 13.6365326,18 C12.062322,18 10.6397052,16.9418998 9.99839613,15.3360815 L9.9348667,15.1680295 L9.91825981,15.11976 L9.49267139,15.1202126 C9.26514699,15.1202126 9.07771338,14.9535092 9.01907956,14.7294898 L9.004427,14.6528439 L9,14.5802391 C9,14.3474668 9.13556866,14.1426045 9.34570997,14.0671364 L9.41843536,14.046912 L9.49267139,14.0402657 L14.5928082,14.0402657 Z M15.75,3.25 L5.25,3.25 L5.25,16.75 L6.75,16.75 L6.75,6.5 C6.75,6.17236813 6.96144533,5.88886271 7.27839418,5.78633805 L7.38780601,5.75905388 L7.5,5.75 L15.75,5.75 L15.75,3.25 Z M13.6544329,9 C14.9401002,9 16.1567814,9.69861635 16.90979,10.8664107 C17.0633988,11.1047774 17.0165983,11.4350012 16.8016739,11.610252 C16.5780581,11.7931393 16.2614747,11.7360509 16.1022748,11.4888026 C15.5327024,10.6056832 14.6173239,10.08 13.6544329,10.08 C12.5618509,10.08 11.5496933,10.7644515 11.0186826,11.8357514 L10.9972151,11.87976 L14.6145444,11.88 C14.8425147,11.88 15.0305287,12.0466147 15.089352,12.2706912 L15.1040526,12.3473618 L15.1084944,12.42 C15.1084944,12.6529245 14.9724166,12.8577692 14.7618194,12.9331624 L14.6889448,12.9533599 L14.6145444,12.96 L9.49394999,12.96 C9.21762229,12.96 9,12.7152033 9,12.42 C9,12.1870755 9.1360778,11.9822308 9.34667502,11.9068376 L9.41954963,11.8866401 L9.49394999,11.88 L9.92104242,11.87976 L9.93732359,11.8329833 C10.5023591,10.2538139 11.8251886,9.15458415 13.3295104,9.01503871 L13.4913559,9.00378153 L13.6544329,9 Z" id="Combined-Shape"></path>
        </g>
    </g>
</svg>