<?xml version="1.0" encoding="UTF-8"?>
<svg width="24px" height="24px" viewBox="0 0 24 24" version="1.1" xmlns="http://www.w3.org/2000/svg" xmlns:xlink="http://www.w3.org/1999/xlink">
    <title>6924D1E6-91E9-49F0-9EAB-BC83ABF1D67D</title>
    <g id="Symbols" stroke="none" stroke-width="1" fill="none" fill-rule="evenodd">
        <g id="Atoms/ico/normal-size/search_file-24" fill="#EC0000">
            <path d="M14.9285714,1.5 C15.130438,1.5 15.3240366,1.57894231 15.4668571,1.719375 L15.4668571,1.719375 L19.276381,5.469375 C19.4180158,5.61100383 19.4981984,5.80126899 19.5,6 L19.5,6 L19.5,7.125 C19.5,7.53921356 19.1588836,7.875 18.7380952,7.875 L18.7380952,7.875 L15.3095238,7.875 C14.0477678,7.87355348 13.025279,6.86704103 13.0238095,5.625 L13.0238095,5.625 L13.0238095,3 L5.78571429,3 C5.3649259,3 5.02380952,3.33578644 5.02380952,3.75 L5.02380952,3.75 L5.02380952,20.25 C5.02380952,20.6642136 5.3649259,21 5.78571429,21 L5.78571429,21 L10.4642857,21 C10.8784993,21 11.2142857,21.3357864 11.2142857,21.75 C11.2142857,22.1642136 10.8784993,22.5 10.4642857,22.5 L10.4642857,22.5 L5.78571429,22.5 C4.52395832,22.4985535 3.50146948,21.492041 3.5,20.25 L3.5,20.25 L3.5,3.75 C3.50146948,2.50795897 4.52395832,1.50144652 5.78571429,1.5 L5.78571429,1.5 Z M18.3696723,11.1557149 C20.3290734,12.9133959 20.6262325,15.8603655 19.0945705,17.9692597 L19.027,18.057 L21.0160017,20.0553228 C21.1119055,20.3581473 21.1280121,20.6026046 21.0519531,20.7841033 L21.0061858,20.8695849 L20.9447141,20.9444459 C20.7116477,21.177746 20.3524249,21.214064 20.0739294,21.0394187 L19.9843712,20.9733709 L18.049,19.036 L17.9614731,19.1034903 C15.9862579,20.5409385 13.2750873,20.3693235 11.4970224,18.7260837 L11.3223881,18.5568594 L11.1543453,18.3778548 C9.34356377,16.3552079 9.42794023,13.2685825 11.3465177,11.3480809 C13.2651745,9.42749974 16.3489567,9.34303182 18.3696723,11.1557149 Z M14.0116929,11.3914702 C12.3909016,11.8261414 11.2637753,13.2963571 11.2636542,14.9761003 C11.263546,16.4773079 12.166877,17.8307154 13.5523372,18.4051845 C14.8717736,18.9522775 16.3810261,18.6902993 17.4351979,17.7497449 L17.58983,17.6035888 L17.736166,17.4487612 C18.8009733,16.2564384 18.9832744,14.5101782 18.1817983,13.1206205 C17.3427912,11.6659936 15.6324394,10.956811 14.0116929,11.3914702 Z M14.6131429,3 L14.547619,3 L14.547619,5.625 C14.547619,6.03921356 14.8887354,6.375 15.3095238,6.375 L15.3095238,6.375 L17.9761905,6.375 L17.9761905,6.3105 L14.6131429,3 Z" id="Combined-Shape"></path>
        </g>
    </g>
</svg>