<?xml version="1.0" encoding="UTF-8"?>
<svg width="24px" height="24px" viewBox="0 0 24 24" version="1.1" xmlns="http://www.w3.org/2000/svg" xmlns:xlink="http://www.w3.org/1999/xlink">
    <title>55D12E78-8A84-4565-91D2-0B1A2C365E1D</title>
    <g id="Styles" stroke="none" stroke-width="1" fill="none" fill-rule="evenodd">
        <g id="Icons" transform="translate(-1200.000000, -538.000000)" fill="#444444">
            <g id="atoms/ico/24/add-24-copy-16" transform="translate(1200.000000, 538.000000)">
                <path d="M22.9203102,1.29289322 C23.2807942,1.65337718 23.3085237,2.22060824 23.0034988,2.61289944 L22.9203102,2.70710678 L3.12132034,22.5060967 C2.73079605,22.8966209 2.09763107,22.8966209 1.70710678,22.5060967 C1.34662282,22.1456127 1.31889328,21.5783816 1.62391817,21.1860904 L1.70710678,21.0918831 L21.5060967,1.29289322 C21.8966209,0.902368927 22.5297859,0.902368927 22.9203102,1.29289322 Z M18.8492951,7.83954027 C20.0415274,8.95077522 21.0774124,10.3623605 21.8918059,12.0279853 C22.0360647,12.3231628 22.0360647,12.6765906 21.8918059,12.9717681 C19.7401529,17.3726472 16.04219,20 12,20 C10.5065672,20 9.06012203,19.641362 7.72128793,18.9671463 L9.22693399,17.4604117 C10.1148161,17.8056139 11.0469126,17.9865968 12,17.9865968 C15.2001894,17.9865968 18.1637237,15.9461586 20.011461,12.4998767 C19.3098039,11.1912842 18.4472473,10.0853808 17.4719321,9.2169295 L18.8492951,7.83954027 Z M12,5 C13.3500538,5 14.6616627,5.29304766 15.8900743,5.84732849 L14.349534,7.38850014 C13.5904937,7.14177488 12.8026913,7.01340323 12,7.01340323 C8.79981058,7.01340323 5.83627628,9.05384142 3.98853898,12.4998767 C4.61830412,13.6744745 5.37768625,14.6857619 6.23187778,15.5086136 L4.86012902,16.8804667 C3.78979568,15.8154774 2.85568391,14.5006449 2.10819406,12.9717681 C1.96393531,12.6765906 1.96393531,12.3231628 2.10819406,12.0279853 C4.25984709,7.62735279 7.95758273,5 12,5 Z M15.3830861,11.306084 C15.4960264,11.6821587 15.5571015,12.0834214 15.5571015,12.4998767 C15.5571015,14.6285498 13.9614222,16.360293 12,16.360293 C11.5136466,16.360293 11.0497805,16.2538186 10.6271527,16.0612197 L15.3830861,11.306084 Z M12,8.63946039 C12.3313534,8.63946039 12.6522689,8.68888284 12.9568165,8.78129225 L8.50700666,13.2316979 C8.46493316,12.9946827 8.44289849,12.7500203 8.44289849,12.4998767 C8.44289849,10.3712036 10.0385778,8.63946039 12,8.63946039 Z" id="Combined-Shape"></path>
            </g>
        </g>
    </g>
</svg>