<?xml version="1.0" encoding="UTF-8"?>
<svg width="24px" height="24px" viewBox="0 0 24 24" version="1.1" xmlns="http://www.w3.org/2000/svg" xmlns:xlink="http://www.w3.org/1999/xlink">
    <title>atoms/ico/20/info-24</title>
    <g id="atoms/ico/20/info-24" stroke="none" stroke-width="1" fill="none" fill-rule="evenodd">
        <path d="M12,9.1 C12.4418278,9.1 12.8,8.7418278 12.8,8.3 C12.8,7.8581722 12.4418278,7.5 12,7.5 C11.5581722,7.5 11.2,7.8581722 11.2,8.3 C11.2,8.7418278 11.5581722,9.1 12,9.1 Z M12,18.4 C8.472,18.4 5.6,15.528 5.6,12 C5.6,8.472 8.472,5.6 12,5.6 C15.528,5.6 18.4,8.472 18.4,12 C18.4,15.528 15.528,18.4 12,18.4 L12,18.4 Z M4,12 C4,14.1217319 4.84285472,16.1565632 6.34314575,17.6568542 C7.84343678,19.1571453 9.87826808,20 12,20 C14.1217319,20 16.1565632,19.1571453 17.6568542,17.6568542 C19.1571453,16.1565632 20,14.1217319 20,12 C20,9.87826808 19.1571453,7.84343678 17.6568542,6.34314575 C16.1565632,4.84285472 14.1217319,4 12,4 C7.581722,4 4,7.581722 4,12 Z M12,16.5 C12.4418278,16.5 12.8,16.1418278 12.8,15.7 L12.8,11.3 C12.8,10.8581722 12.4418278,10.5 12,10.5 C11.5581722,10.5 11.2,10.8581722 11.2,11.3 L11.2,15.7 C11.2,16.1418278 11.5581722,16.5 12,16.5 Z" id="Shape" fill="#EC0000"></path>
    </g>
</svg>