<!-- Generated by IcoMoon.io -->
<svg version="1.1" xmlns="http://www.w3.org/2000/svg" width="32" height="32" viewBox="0 0 32 32">
<title>save</title>
<path d="M23.424 0.8l0.128 0.064 7.456 7.52v18.528c0 2.080-1.632 3.776-3.648 3.904h-22.464c-2.080 0-3.744-1.632-3.872-3.648l-0.032-0.256v-22.208c0-2.080 1.632-3.776 3.648-3.904h18.784zM23.232 17.856h-14.464v10.72h14.464v-10.72zM8.416 3.040h-3.52c-0.864 0-1.568 0.64-1.664 1.472v22.4c0 0.864 0.64 1.568 1.472 1.664h1.856v-10.912c0-1.056 0.8-1.92 1.824-2.048h15.040c1.056 0 1.92 0.8 2.016 1.856v11.104h1.664c0.864 0 1.568-0.64 1.664-1.472v-0.192l0.064-17.6-5.248-5.248v6.176c0 1.056-0.8 1.952-1.824 2.048h-11.328c-1.056 0-1.92-0.8-2.016-1.856v-7.392zM20.448 24.512c0.512 0 0.928 0.416 0.928 0.928 0 0.384-0.256 0.736-0.64 0.864l-0.128 0.032-0.16 0.032h-8.896c-0.512 0-0.928-0.416-0.928-0.928 0-0.416 0.256-0.736 0.64-0.864l0.128-0.064h9.056zM20.448 20.8c0.512 0 0.928 0.416 0.928 0.928 0 0.416-0.256 0.736-0.64 0.864l-0.128 0.064h-9.056c-0.512 0-0.928-0.416-0.928-0.928 0-0.384 0.256-0.736 0.64-0.864l0.128-0.032 0.16-0.032h8.896zM21.376 3.040h-10.752v7.040h10.752v-7.040zM18.208 5.248c0.416 0 0.768 0.256 0.896 0.64l0.032 0.128v1.632c0 0.512-0.416 0.928-0.928 0.928-0.384 0-0.736-0.256-0.864-0.608l-0.032-0.16v-1.632c0-0.512 0.416-0.928 0.896-0.928z"></path>
</svg>
