<svg width="24" height="24" viewBox="0 0 24 24" fill="none" xmlns="http://www.w3.org/2000/svg"><path d="M7.960 2.059 C 7.536 2.154,7.067 2.416,6.741 2.739 C 5.763 3.710,5.760 5.287,6.736 6.258 C 7.726 7.244,9.277 7.242,10.266 6.253 C 11.036 5.483,11.210 4.366,10.716 3.363 C 10.434 2.793,9.868 2.314,9.240 2.116 C 8.898 2.008,8.306 1.982,7.960 2.059 M14.960 2.059 C 14.536 2.154,14.067 2.416,13.741 2.739 C 12.763 3.710,12.760 5.287,13.736 6.258 C 14.726 7.244,16.277 7.242,17.266 6.253 C 18.036 5.483,18.210 4.366,17.716 3.363 C 17.434 2.793,16.868 2.314,16.240 2.116 C 15.898 2.008,15.306 1.982,14.960 2.059 M9.110 3.139 C 9.415 3.278,9.725 3.589,9.866 3.896 C 9.962 4.105,9.978 4.191,9.978 4.500 C 9.979 4.810,9.963 4.893,9.867 5.100 C 9.722 5.415,9.413 5.724,9.104 5.867 C 8.894 5.965,8.811 5.980,8.500 5.980 C 8.190 5.980,8.107 5.965,7.900 5.868 C 7.584 5.721,7.275 5.413,7.134 5.104 C 7.038 4.895,7.022 4.809,7.022 4.500 C 7.021 4.190,7.037 4.107,7.133 3.900 C 7.324 3.489,7.727 3.148,8.150 3.041 C 8.407 2.976,8.852 3.022,9.110 3.139 M16.110 3.139 C 16.415 3.278,16.725 3.589,16.866 3.896 C 16.962 4.105,16.978 4.191,16.978 4.500 C 16.979 4.810,16.963 4.893,16.867 5.100 C 16.722 5.415,16.413 5.724,16.104 5.867 C 15.894 5.965,15.811 5.980,15.500 5.980 C 15.190 5.980,15.107 5.965,14.900 5.868 C 14.584 5.721,14.275 5.413,14.134 5.104 C 14.038 4.895,14.022 4.809,14.022 4.500 C 14.021 4.190,14.037 4.107,14.133 3.900 C 14.324 3.489,14.727 3.148,15.150 3.041 C 15.407 2.976,15.852 3.022,16.110 3.139 M7.866 9.583 C 7.239 9.735,6.546 10.299,6.264 10.888 C 6.063 11.307,5.987 11.688,6.013 12.140 C 6.075 13.222,6.842 14.148,7.900 14.421 C 8.208 14.500,8.792 14.500,9.100 14.421 C 9.552 14.304,9.912 14.094,10.260 13.743 C 11.032 12.965,11.213 11.882,10.736 10.887 C 10.449 10.290,9.759 9.733,9.116 9.581 C 8.799 9.507,8.178 9.508,7.866 9.583 M14.866 9.583 C 14.239 9.735,13.546 10.299,13.264 10.888 C 13.063 11.307,12.987 11.688,13.013 12.140 C 13.075 13.222,13.842 14.148,14.900 14.421 C 15.208 14.500,15.792 14.500,16.100 14.421 C 16.552 14.304,16.912 14.094,17.260 13.743 C 18.032 12.965,18.213 11.882,17.736 10.887 C 17.449 10.290,16.759 9.733,16.116 9.581 C 15.799 9.507,15.178 9.508,14.866 9.583 M9.193 10.679 C 10.258 11.249,10.251 12.796,9.181 13.323 C 8.422 13.696,7.517 13.398,7.158 12.656 C 6.764 11.843,7.161 10.899,8.034 10.574 C 8.130 10.538,8.310 10.523,8.560 10.531 C 8.903 10.542,8.964 10.556,9.193 10.679 M16.193 10.679 C 17.258 11.249,17.251 12.796,16.181 13.323 C 15.422 13.696,14.517 13.398,14.158 12.656 C 13.764 11.843,14.161 10.899,15.034 10.574 C 15.130 10.538,15.310 10.523,15.560 10.531 C 15.903 10.542,15.964 10.556,16.193 10.679 M7.965 17.059 C 7.449 17.176,6.869 17.534,6.559 17.926 C 5.420 19.367,6.127 21.467,7.904 21.921 C 9.010 22.204,10.214 21.654,10.715 20.638 C 11.089 19.879,11.090 19.124,10.719 18.370 C 10.437 17.798,9.866 17.313,9.240 17.116 C 8.899 17.008,8.305 16.982,7.965 17.059 M14.965 17.059 C 14.449 17.176,13.869 17.534,13.559 17.926 C 12.420 19.367,13.127 21.467,14.904 21.921 C 16.010 22.204,17.214 21.654,17.715 20.638 C 18.089 19.879,18.090 19.124,17.719 18.370 C 17.437 17.798,16.866 17.313,16.240 17.116 C 15.899 17.008,15.305 16.982,14.965 17.059 M9.110 18.139 C 9.415 18.278,9.725 18.589,9.866 18.896 C 9.962 19.105,9.978 19.191,9.978 19.500 C 9.979 19.810,9.963 19.893,9.867 20.100 C 9.722 20.415,9.413 20.724,9.104 20.867 C 8.894 20.965,8.811 20.980,8.500 20.980 C 8.180 20.980,8.111 20.966,7.880 20.856 C 7.551 20.698,7.304 20.452,7.145 20.120 C 7.034 19.888,7.020 19.821,7.021 19.500 C 7.021 19.191,7.037 19.106,7.133 18.900 C 7.324 18.489,7.727 18.148,8.150 18.041 C 8.407 17.976,8.852 18.022,9.110 18.139 M16.110 18.139 C 16.415 18.278,16.725 18.589,16.866 18.896 C 16.962 19.105,16.978 19.191,16.978 19.500 C 16.979 19.810,16.963 19.893,16.867 20.100 C 16.722 20.415,16.413 20.724,16.104 20.867 C 15.894 20.965,15.811 20.980,15.500 20.980 C 15.180 20.980,15.111 20.966,14.880 20.856 C 14.551 20.698,14.304 20.452,14.145 20.120 C 14.034 19.888,14.020 19.821,14.021 19.500 C 14.021 19.191,14.037 19.106,14.133 18.900 C 14.324 18.489,14.727 18.148,15.150 18.041 C 15.407 17.976,15.852 18.022,16.110 18.139 " fill="#EC0000" stroke="none" fill-rule="evenodd"></path></svg>