<?xml version="1.0" encoding="UTF-8" standalone="no"?>
<!-- Generated by IcoMoon.io -->

<svg
   xmlns:dc="http://purl.org/dc/elements/1.1/"
   xmlns:cc="http://creativecommons.org/ns#"
   xmlns:rdf="http://www.w3.org/1999/02/22-rdf-syntax-ns#"
   xmlns:svg="http://www.w3.org/2000/svg"
   xmlns="http://www.w3.org/2000/svg"
   xmlns:sodipodi="http://sodipodi.sourceforge.net/DTD/sodipodi-0.dtd"
   xmlns:inkscape="http://www.inkscape.org/namespaces/inkscape"
   version="1.1"
   width="32"
   height="32"
   viewBox="0 0 32 32"
   id="svg20"
   sodipodi:docname="i-synchronize.svg"
   inkscape:version="0.92.3 (2405546, 2018-03-11)">
  <metadata
     id="metadata26">
    <rdf:RDF>
      <cc:Work
         rdf:about="">
        <dc:format>image/svg+xml</dc:format>
        <dc:type
           rdf:resource="http://purl.org/dc/dcmitype/StillImage" />
      </cc:Work>
    </rdf:RDF>
  </metadata>
  <defs
     id="defs24" />
  <sodipodi:namedview
     pagecolor="#ffffff"
     bordercolor="#666666"
     borderopacity="1"
     objecttolerance="10"
     gridtolerance="10"
     guidetolerance="10"
     inkscape:pageopacity="0"
     inkscape:pageshadow="2"
     inkscape:window-width="1920"
     inkscape:window-height="1017"
     id="namedview22"
     showgrid="false"
     inkscape:zoom="7.375"
     inkscape:cx="16"
     inkscape:cy="16"
     inkscape:window-x="-8"
     inkscape:window-y="-8"
     inkscape:window-maximized="1"
     inkscape:current-layer="svg20" />
  <title
     id="title2">i-synchronize</title>
  <path
     d="M8.728 11.28h-1.936c-0.002 0-0.005 0-0.008 0-0.274 0-0.496-0.222-0.496-0.496 0-0 0-0 0-0v0-0.384c-0.001-0.012-0.002-0.027-0.002-0.041 0-0.274 0.222-0.496 0.496-0.496 0.246 0 0.45 0.179 0.489 0.415l0 0.003h0.976c0.057-0.215 0.25-0.371 0.48-0.371 0.272 0 0.493 0.219 0.496 0.491v0.368c0 0.274-0.222 0.496-0.496 0.496v0z"
     id="path4"
     style="fill:#ec0000;fill-opacity:1" />
  <path
     d="M27.096 11.456c-0.091-0.089-0.215-0.143-0.352-0.143s-0.261 0.055-0.352 0.143l0-0-1.368 1.344v-7.808c0-0.278-0.226-0.504-0.504-0.504v0h-6.76c-0.278 0-0.504 0.226-0.504 0.504v0c0 0 0 0 0 0 0 0.274 0.222 0.496 0.496 0.496 0.003 0 0.006-0 0.008-0h6.24v7.312l-1.36-1.36c-0.094-0.089-0.22-0.143-0.36-0.144h-0c-0.275 0.005-0.495 0.229-0.495 0.504 0 0.137 0.055 0.261 0.143 0.352l-0-0 2.24 2.248c0.094 0.086 0.219 0.138 0.356 0.138s0.262-0.052 0.356-0.138l-0 0 2.216-2.216c0.093-0.090 0.151-0.216 0.151-0.356s-0.058-0.266-0.151-0.356l-0-0z"
     id="path6"
     style="fill:#ec0000;fill-opacity:1" />
  <path
     d="M6.272 27.248h6.76c0.019 0.003 0.041 0.004 0.063 0.004 0.278 0 0.504-0.226 0.504-0.504s-0.226-0.504-0.504-0.504c-0.022 0-0.044 0.001-0.066 0.004l0.003-0h-6.256v-7.328l1.368 1.36c0.092 0.085 0.216 0.137 0.352 0.137s0.26-0.052 0.352-0.138l-0 0c0.093-0.090 0.151-0.216 0.151-0.356s-0.058-0.266-0.15-0.356l-2.216-2.216c-0.092-0.089-0.218-0.144-0.356-0.144s-0.264 0.055-0.356 0.144l0-0-2.224 2.216c-0.093 0.090-0.151 0.216-0.151 0.356s0.058 0.266 0.151 0.356l0 0c0.092 0.089 0.218 0.144 0.356 0.144s0.264-0.055 0.356-0.144l1.36-1.36v7.824c0 0.278 0.226 0.504 0.504 0.504v0z"
     id="path8"
     style="fill:#ec0000;fill-opacity:1" />
  <path
     d="M13.416 10.904c-0.002 0-0.005 0-0.008 0-0.27 0-0.488-0.219-0.488-0.488 0-0 0-0 0-0v0-6.584c-0.005-0.244-0.203-0.44-0.448-0.44-0 0-0 0-0 0h-9.424c-0 0-0 0-0 0-0.245 0-0.443 0.196-0.448 0.44v6.568c0 0 0 0 0 0 0 0.27-0.219 0.488-0.488 0.488-0.003 0-0.006-0-0.008-0h0c-0.005 0-0.010 0-0.016 0-0.27 0-0.488-0.219-0.488-0.488 0-0 0-0 0-0v0-6.568c0-0 0-0 0-0 0-0.791 0.641-1.432 1.432-1.432 0.006 0 0.011 0 0.017 0h9.423c0 0 0 0 0 0 0.792 0 1.435 0.64 1.44 1.432v6.568c0 0 0 0 0 0 0 0.27-0.219 0.488-0.488 0.488-0.003 0-0.006-0-0.008-0h0z"
     id="path10"
     style="fill:#ec0000;fill-opacity:1" />
  <path
     d="M13.52 13.16h-11.528c0 0 0 0-0 0-0.837 0-1.515-0.676-1.52-1.512v-1.248c0-0.274 0.222-0.496 0.496-0.496v0h13.6c0.274 0 0.496 0.222 0.496 0.496v0 1.232c0 0.002 0 0.005 0 0.008 0 0.839-0.681 1.52-1.52 1.52-0.008 0-0.017-0-0.025-0l0.001 0zM1.472 10.904v0.744c0 0 0 0 0 0 0 0.289 0.232 0.523 0.52 0.528h11.528c0.29-0.004 0.524-0.238 0.528-0.528v-0.744z"
     id="path12"
     style="fill:#ec0000;fill-opacity:1" />
  <path
     d="M29.832 26.544c-0.274 0-0.496-0.222-0.496-0.496v0-6.576c0-0.247-0.201-0.448-0.448-0.448v0h-9.424c-0.247 0-0.448 0.201-0.448 0.448v0 6.576c0 0.274-0.222 0.496-0.496 0.496v0c-0.274 0-0.496-0.222-0.496-0.496v0-6.576c0.005-0.792 0.648-1.432 1.44-1.432 0 0 0 0 0 0h9.424c0 0 0 0 0 0 0.792 0 1.435 0.64 1.44 1.432v6.576c0 0.274-0.222 0.496-0.496 0.496v0z"
     id="path14"
     style="fill:#ec0000;fill-opacity:1" />
  <path
     d="M29.944 28.8h-11.544c0 0 0 0-0 0-0.837 0-1.515-0.676-1.52-1.512v-1.24c0-0.274 0.222-0.496 0.496-0.496v0h13.6c0 0 0 0 0 0 0.276 0 0.499 0.221 0.504 0.496v1.24c-0.005 0.836-0.683 1.512-1.52 1.512-0.006 0-0.011-0-0.017-0h0.001zM17.888 26.544v0.744c0 0 0 0 0 0 0 0.287 0.233 0.52 0.52 0.52 0.003 0 0.006-0 0.008-0h11.528c0.287 0 0.52-0.233 0.52-0.52v0-0.744z"
     id="path16"
     style="fill:#ec0000;fill-opacity:1" />
  <path
     d="M24.736 25.136h-1.728c-0.243 0-0.44-0.197-0.44-0.44v0-0.328c-0.001-0.011-0.002-0.024-0.002-0.037 0-0.243 0.197-0.44 0.44-0.44 0.216 0 0.396 0.156 0.433 0.362l0 0.003h0.864c0.037-0.209 0.217-0.365 0.434-0.365 0.243 0 0.44 0.197 0.44 0.44 0 0.013-0.001 0.026-0.002 0.039l0-0.002v0.328c0 0.243-0.197 0.44-0.44 0.44v0z"
     id="path18"
     style="fill:#ec0000;fill-opacity:1" />
</svg>
