<?xml version="1.0" encoding="UTF-8"?>
<svg width="24px" height="25px" viewBox="0 0 24 25" version="1.1" xmlns="http://www.w3.org/2000/svg" xmlns:xlink="http://www.w3.org/1999/xlink">
    <title>442CB127-917E-4678-B20D-3763D0CD58F4</title>
    <g id="Version-3" stroke="none" stroke-width="1" fill="none" fill-rule="evenodd">
        <g id="v3_OTP_02" transform="translate(-976.000000, -533.000000)" fill="#444444">
            <g id="Group" transform="translate(976.000000, 134.000000)">
                <g id="Group-16" transform="translate(0.000000, 383.000000)">
                    <g id="A.-Finance/e.-Security/AE020-coordinates-card-|-🔍-password,-pin,-card,-coordinates,-security,-seguridad,-tarjeta,--coordenadas,-contraseña" transform="translate(0.000000, 16.500000)">
                        <path d="M20.0400391,6 C21.1210938,6 22,6.8793945 22,7.9599609 L22,16.0375977 C22,17.1196289 21.1201172,18 20.038086,18 L3.9619141,18 C2.8798828,18 2,17.1196289 2,16.0375976 L2,7.9624023 C2,6.8803711 2.8798828,6 3.9619141,6 L20.0400391,6 Z M20.0400391,7 L3.9619141,7 C3.4316406,7 3,7.4316406 3,7.9624023 L3,16.0819273 C3,16.6095879 3.42775342,17.0373413 3.95541401,17.0373413 L20.044586,17.0373413 C20.5722466,17.0373413 21,16.6095879 21,16.0819273 L21,7.9599609 C21,7.4306641 20.5693359,7 20.0400391,7 Z M8.09600702,10.5714286 C8.2425262,10.5714286 8.36508161,10.6756357 8.39710725,10.8157921 L8.40526775,10.88855 L8.40526775,11.6537912 L9.09566814,11.1855416 C9.23580191,11.0882993 9.42969392,11.1288685 9.52392176,11.2750417 C9.60468849,11.400333 9.58738135,11.5627111 9.49101912,11.667395 L9.43633813,11.7144902 L8.64774592,12.2493229 L9.4544589,12.8021176 C9.59700879,12.8993599 9.63506234,13.096322 9.54023044,13.2418758 C9.48043197,13.333234 9.38257996,13.3827843 9.28291587,13.3827843 C9.24345288,13.3827843 9.20372145,13.3750764 9.1660482,13.359202 L9.11137278,13.3292081 L8.40526769,12.8453191 L8.40526769,13.6193865 C8.40526769,13.7946704 8.26694601,13.9365079 8.09600696,13.9365079 C7.94948778,13.9365079 7.82693238,13.8323008 7.79490673,13.6921444 L7.78674623,13.6193865 L7.78674623,12.83328 L7.06554057,13.3223949 C7.01359441,13.3580091 6.95379601,13.375042 6.89520557,13.375042 C6.79493743,13.375042 6.69648137,13.3251821 6.63728695,13.2328948 C6.55652017,13.1076035 6.57382734,12.9452255 6.67018959,12.8405416 L6.72487058,12.7934464 L7.53135699,12.2464584 L6.74238729,11.705819 C6.59983739,11.6085767 6.56178385,11.4116146 6.65661574,11.2660608 C6.73841798,11.1413004 6.89122396,11.0945816 7.02222162,11.1452117 L7.08547341,11.1787285 L7.7867463,11.6592882 L7.7867463,10.88855 C7.7867463,10.7132661 7.92506798,10.5714286 8.09600702,10.5714286 Z M12.2229299,10.5714286 C12.3703188,10.5714286 12.4936016,10.6756357 12.5258174,10.8157921 L12.5340263,10.88855 L12.5340263,11.664127 L13.2437149,11.1855416 C13.3852881,11.0882993 13.5797234,11.1288685 13.6745105,11.2750417 C13.7557566,11.400333 13.7383468,11.5627111 13.6414126,11.6673949 L13.586407,11.7144902 L12.7843996,12.2553618 L13.5870146,12.8021175 C13.7304106,12.8993598 13.76869,13.096322 13.6732952,13.2418757 C13.6131418,13.333234 13.514709,13.3827842 13.4144533,13.3827842 C13.3747561,13.3827842 13.3347889,13.3750764 13.296892,13.359202 L13.241892,13.329208 L12.5340263,12.8469837 L12.5340263,13.6193865 C12.5340263,13.7946704 12.3948836,13.9365079 12.2229299,13.9365079 C12.0755411,13.9365079 11.9522582,13.8323008 11.9200425,13.6921445 L11.9118336,13.6193865 L11.9118336,12.8438094 L11.202145,13.3223948 C11.1498905,13.358009 11.0897371,13.3750419 11.0307989,13.3750419 C10.9299356,13.3750419 10.8308952,13.325182 10.7713494,13.2328947 C10.6901032,13.1076035 10.7075131,12.9452254 10.8044473,12.8405416 L10.8594528,12.7934463 L11.6614602,12.2525747 L10.8588453,11.705819 C10.7154492,11.6085767 10.6771698,11.4116145 10.7725646,11.2660608 C10.8548524,11.1413004 11.0090117,11.0945816 11.1405319,11.1452117 L11.2039678,11.1787285 L11.9118336,11.6609528 L11.9118336,10.88855 C11.9118336,10.7132661 12.0509763,10.5714286 12.2229299,10.5714286 Z M16.3632223,10.5714286 C16.509771,10.5714286 16.632351,10.6756357 16.6643831,10.8157921 L16.6725452,10.88855 L16.6725452,11.6539073 L17.3630843,11.1855416 C17.5038504,11.0882993 17.6971772,11.1288685 17.791424,11.2750417 C17.872207,11.400333 17.8548963,11.562711 17.7585147,11.6673949 L17.7038228,11.7144902 L16.9151854,12.2494003 L17.7219471,12.8021176 C17.8645257,12.8993599 17.9025868,13.096322 17.8077359,13.2418758 C17.7479254,13.333234 17.6500537,13.3827843 17.5503696,13.3827843 C17.5108987,13.3827843 17.4711593,13.3750764 17.4334785,13.359202 L17.378792,13.3292081 L16.6725451,12.8453191 L16.6725451,13.6193865 C16.6725451,13.7946704 16.5341956,13.9365079 16.3632222,13.9365079 C16.2166736,13.9365079 16.0940935,13.8323008 16.0620615,13.6921444 L16.0538993,13.6193865 L16.0538993,12.833551 L15.3331529,13.3223949 C15.2811963,13.3580091 15.2213858,13.375042 15.1627836,13.375042 C15.0624953,13.375042 14.9640195,13.3251821 14.9048132,13.2328948 C14.8240302,13.1076035 14.8413408,12.9452255 14.9377225,12.8405416 L14.9924145,12.7934463 L15.7986476,12.2466132 L15.0093306,11.705819 C14.8667521,11.6085767 14.8286909,11.4116146 14.9235418,11.2660608 C15.0053605,11.1413004 15.158641,11.0945816 15.2894114,11.1452117 L15.3524857,11.1787285 L16.0538995,11.6592882 L16.0538995,10.88855 C16.0538995,10.7132661 16.1922489,10.5714286 16.3632223,10.5714286 Z" id="icon-color"></path>
                    </g>
                </g>
            </g>
        </g>
    </g>
</svg>