<?xml version="1.0" standalone="no"?>
<!DOCTYPE svg PUBLIC "-//W3C//DTD SVG 20010904//EN"
 "http://www.w3.org/TR/2001/REC-SVG-20010904/DTD/svg10.dtd">
<svg version="1.0" xmlns="http://www.w3.org/2000/svg"
 width="162.000000pt" height="151.000000pt" viewBox="0 0 162.000000 151.000000"
 preserveAspectRatio="xMidYMid meet">

<g transform="translate(0.000000,151.000000) scale(0.100000,-0.100000)"
fill="#000000" stroke="none">
<path d="M670 1334 c-222 -48 -407 -234 -455 -459 -78 -370 209 -725 585 -725
323 0 600 277 600 600 0 219 -136 439 -330 534 -129 62 -264 80 -400 50z m290
-84 c82 -24 148 -66 217 -137 103 -108 146 -217 145 -367 -1 -155 -49 -266
-160 -373 -147 -141 -376 -186 -558 -110 -129 55 -250 175 -294 294 -55 146
-42 330 32 452 134 221 369 313 618 241z"/>
<path d="M702 1189 c-114 -22 -255 -133 -305 -241 -98 -207 -32 -447 158 -572
76 -51 143 -70 245 -70 102 0 169 19 245 70 240 159 272 493 66 694 -112 108
-254 150 -409 119z m165 -276 c-4 -75 -7 -160 -7 -190 l0 -53 -58 0 -59 0 -6
128 c-4 70 -7 153 -7 184 0 63 -2 62 104 66 l39 2 -6 -137z m-12 -343 c26 -29
24 -79 -4 -102 -49 -39 -124 -9 -124 50 0 45 28 72 73 72 24 0 43 -7 55 -20z"/>
</g>
</svg>
