<!-- Generated by IcoMoon.io -->
<svg version="1.1" xmlns="http://www.w3.org/2000/svg" width="32" height="32" viewBox="0 0 32 32">
<title>admin-24</title>
<path d="M27.552 13.12l0.224 0.096 0.256 0.16 0.192 0.16 1.344 1.216c0.832 0.768 1.056 1.952 0.608 2.944l-0.256 0.448-0.16 0.192-10.816 12c-0.064 0.096-0.128 0.128-0.224 0.192l-0.128 0.064-0.192 0.064-0.16 0.032-3.392 0.16c-0.384 0.032-0.736-0.16-0.928-0.48l-0.096-0.128-0.064-0.192v-0.16l-0.192-3.392c0-0.096 0-0.192 0.032-0.288l0.032-0.16 0.192-0.32 2.176-2.4 5.28-5.856c0 0 0 0 0 0l3.36-3.744c0.736-0.832 1.952-1.056 2.912-0.608zM23.328 18.208l-7.744 8.64 0.096 1.984 1.984-0.128 7.776-8.608-2.112-1.888zM17.76 16.768c0.8 0 1.568 0.064 2.304 0.256l-1.664 1.888c-0.224 0-0.416 0-0.64 0-0.576 0-1.312 0.096-2.208 0.288l-0.352 0.096-0.704 0.16-0.32 0.096c-0.8 0.224-1.184 0.288-1.6 0.288-0.288 0-0.544-0.032-0.864-0.096l-0.256-0.064-0.576-0.16c-0.224-0.064-0.416-0.128-0.608-0.16l-0.288-0.064-1.632-0.288c-0.416-0.064-0.736-0.096-0.96-0.096-2.080 0-3.872 0.992-4.128 2.080v0.16l-0.032 0.096v0.96c0 0.192 0.128 0.384 0.224 0.448h0.064l0.064 0.032h11.552l-0.384 0.448-1.664 1.6-0.288 0.096h-9.216c-1.248 0-2.304-0.992-2.496-2.24v-0.224l-0.032-0.16v-0.96c0-2.496 2.88-4.48 6.336-4.48 0.256 0 0.512 0 0.832 0.032l0.224 0.032 0.256 0.032c0.32 0.064 1.44 0.288 2.144 0.448l0.384 0.064 0.416 0.128 0.224 0.064c0.352 0.096 0.544 0.128 0.704 0.128 0.096 0 0.256-0.032 0.48-0.064l0.352-0.096 0.864-0.256c1.376-0.352 2.56-0.512 3.488-0.512zM26.4 14.88l-0.288 0.096-0.064 0.096-1.664 1.856 2.24 2.016 1.664-1.856c0.096-0.128 0.16-0.32 0.128-0.448l-0.032-0.096-0.128-0.192-1.472-1.312c-0.096-0.096-0.192-0.128-0.288-0.128l-0.096-0.032zM12.576 2.208c3.072 0 5.632 2.24 5.632 4.96v0.256l-0.032 0.224-0.032 0.192-0.544 4.608c-0.416 2.528-2.432 4.224-5.024 4.224-2.336 0-4.192-1.344-4.832-3.488l-0.096-0.256-0.032-0.256-0.064-0.256-0.544-4.544c-0.512-2.976 2.176-5.664 5.568-5.664zM12.576 4.352c-1.824 0-3.36 1.248-3.456 2.688v0.352l0.608 4.736c0.224 1.472 1.312 2.4 2.848 2.4 1.312 0 2.304-0.672 2.72-1.792l0.064-0.224 0.032-0.192 0.032-0.16 0.576-4.64c0.256-1.632-1.376-3.168-3.424-3.168z"></path>
</svg>
