<?xml version="1.0" encoding="UTF-8"?>
<svg width="24px" height="24px" viewBox="0 0 24 24" version="1.1" xmlns="http://www.w3.org/2000/svg" xmlns:xlink="http://www.w3.org/1999/xlink">
    <title>Atoms/ico/normal size/admin-24</title>
    <g id="🟢-Employee-supplier-onboarding" stroke="none" stroke-width="1" fill="none" fill-rule="evenodd">
        <g id="SMT-05A" transform="translate(-1190.000000, -326.000000)" fill="#EC0000" fill-rule="nonzero">
            <g id="Submenú" transform="translate(1174.000000, 230.000000)">
                <g id="icon-color" transform="translate(16.000000, 96.000000)">
                    <path d="M12,2 C17.5231424,2 22,6.47685763 22,12 C22,17.5231424 17.5231424,22 12,22 C6.47685763,22 2,17.5231424 2,12 C2,6.47685763 6.47685763,2 12,2 Z M18.7016043,5.99227373 L5.49747547,18.2225581 C7.13582984,19.9341657 9.44335834,21 12,21 C16.9708576,21 21,16.9708576 21,12 C21,9.69112637 20.1307388,7.58542167 18.7016043,5.99227373 Z M12,3 C7.02914237,3 3,7.02914237 3,12 C3,14.054348 3.68817359,15.947852 4.84658688,17.462578 L17.9938395,5.28596436 C16.4023517,3.8642219 14.3021714,3 12,3 Z"></path>
                </g>
            </g>
        </g>
    </g>
</svg>