<?xml version="1.0" encoding="UTF-8"?>
		<svg width="100%" height="100%" viewBox="0 0 413 124" version="1.1"  xmlns="http://www.w3.org/2000/svg" xmlns:xlink="http://www.w3.org/1999/xlink">
			<title>list skeleton</title>
			<g id="MVP-1" stroke="none" stroke-width="1" fill="none" fill-rule="evenodd">
				<g id="Skeleton-VDR-avatar" transform="translate(-724.000000, -302.000000)">
					<g id="Group-3" transform="translate(290.000000, 100.000000)">
						<g id="Group-22" transform="translate(422.000000, 163.000000)">
							<g id="Group-16" transform="translate(12.000000, 41.000000)">
								<g id="Group-14" transform="translate(5.000000, 0.000000)" fill="#C3DEE7">
									<circle id="Mask" stroke="#C3DEE7" stroke-width="2" cx="10" cy="10" r="10"></circle>
									<rect id="Rectangle" x="26" y="4" width="calc(100% - 40px)" height="12" rx="8"></rect>	
								</g>
								<g id="Group-20" transform="translate(0.000000, 26.000000)" fill="#DCDCDC">
									<rect id="Rectangle-Copy-6" x="0" y="0" width="334" height="1"></rect>
								</g>								
								<g id="Group-14-Copy" transform="translate(5.000000, 32.000000)" fill="#C3DEE7">
									<circle id="Mask" stroke="#C3DEE7" stroke-width="2" cx="10" cy="10" r="10"></circle>
									<rect id="Rectangle" x="26" y="4" width="calc(100% - 40px)" height="12" rx="8"></rect>
								</g>
								<g id="Group-31" transform="translate(0.000000, 58.000000)" fill="#DCDCDC">
									<rect id="Rectangle-Copy-6" x="0" y="0" width="334" height="1"></rect>
								</g>
								<g id="Group-14-Copy" transform="translate(5.000000, 65.000000)" fill="#C3DEE7">
									<circle id="Mask" stroke="#C3DEE7" stroke-width="2" cx="10" cy="10" r="10"></circle>
									<rect id="Rectangle" x="26" y="4" width="calc(100% - 40px)" height="12" rx="8"></rect>
								</g>
								<g id="Group-31" transform="translate(0.000000, 91.000000)" fill="#DCDCDC">
									<rect id="Rectangle-Copy-6" x="0" y="0" width="334" height="1"></rect>
								</g>
								<g id="Group-14-Copy-2" transform="translate(5.000000, 99.000000)" fill="#C3DEE7">
									<circle id="Mask" stroke="#C3DEE7" stroke-width="2" cx="10" cy="10" r="10"></circle>
									<rect id="Rectangle" x="26" y="4" width="calc(100% - 40px)" height="12" rx="8"></rect>
								</g>
							</g>
						</g>
					</g>
				</g>
			</g>
		</svg>