<svg width="1240" height="231" viewBox="0 0 1240 231" fill="none" xmlns="http://www.w3.org/2000/svg">
<rect width="1240" height="231" fill="white"/>
<path opacity="0.7" fill-rule="evenodd" clip-rule="evenodd" d="M8 6C3.58172 6 0 9.58172 0 14C0 18.4183 3.58172 22 8 22H102C106.418 22 110 18.4183 110 14C110 9.58172 106.418 6 102 6H8ZM210 6C205.582 6 202 9.58172 202 14C202 18.4183 205.582 22 210 22H304C308.418 22 312 18.4183 312 14C312 9.58172 308.418 6 304 6H210ZM404 14C404 9.58172 407.582 6 412 6H506C510.418 6 514 9.58172 514 14C514 18.4183 510.418 22 506 22H412C407.582 22 404 18.4183 404 14ZM614 6C609.582 6 606 9.58172 606 14C606 18.4183 609.582 22 614 22H708C712.418 22 716 18.4183 716 14C716 9.58172 712.418 6 708 6H614ZM808 14C808 9.58172 811.582 6 816 6H910C914.418 6 918 9.58172 918 14C918 18.4183 914.418 22 910 22H816C811.582 22 808 18.4183 808 14ZM1018 6C1013.58 6 1010 9.58172 1010 14C1010 18.4183 1013.58 22 1018 22H1112C1116.42 22 1120 18.4183 1120 14C1120 9.58172 1116.42 6 1112 6H1018Z" fill="#CEDEE7"/>
<path opacity="0.3" fill-rule="evenodd" clip-rule="evenodd" d="M6.5 35C2.91015 35 0 37.9101 0 41.5C0 45.0899 2.91015 48 6.5 48H163.5C167.09 48 170 45.0899 170 41.5C170 37.9101 167.09 35 163.5 35H6.5ZM208.5 35C204.91 35 202 37.9101 202 41.5C202 45.0899 204.91 48 208.5 48H365.5C369.09 48 372 45.0899 372 41.5C372 37.9101 369.09 35 365.5 35H208.5ZM404 41.5C404 37.9101 406.91 35 410.5 35H567.5C571.09 35 574 37.9101 574 41.5C574 45.0899 571.09 48 567.5 48H410.5C406.91 48 404 45.0899 404 41.5ZM612.5 35C608.91 35 606 37.9101 606 41.5C606 45.0899 608.91 48 612.5 48H769.5C773.09 48 776 45.0899 776 41.5C776 37.9101 773.09 35 769.5 35H612.5ZM808 41.5C808 37.9101 810.91 35 814.5 35H971.5C975.09 35 978 37.9101 978 41.5C978 45.0899 975.09 48 971.5 48H814.5C810.91 48 808 45.0899 808 41.5ZM1016.5 35C1012.91 35 1010 37.9101 1010 41.5C1010 45.0899 1012.91 48 1016.5 48H1173.5C1177.09 48 1180 45.0899 1180 41.5C1180 37.9101 1177.09 35 1173.5 35H1016.5Z" fill="#CEDEE7"/>
<path opacity="0.3" fill-rule="evenodd" clip-rule="evenodd" d="M6.5 55C2.91015 55 0 57.9101 0 61.5C0 65.0899 2.91015 68 6.5 68H163.5C167.09 68 170 65.0899 170 61.5C170 57.9101 167.09 55 163.5 55H6.5ZM208.5 55C204.91 55 202 57.9101 202 61.5C202 65.0899 204.91 68 208.5 68H365.5C369.09 68 372 65.0899 372 61.5C372 57.9101 369.09 55 365.5 55H208.5ZM404 61.5C404 57.9101 406.91 55 410.5 55H567.5C571.09 55 574 57.9101 574 61.5C574 65.0899 571.09 68 567.5 68H410.5C406.91 68 404 65.0899 404 61.5ZM612.5 55C608.91 55 606 57.9101 606 61.5C606 65.0899 608.91 68 612.5 68H769.5C773.09 68 776 65.0899 776 61.5C776 57.9101 773.09 55 769.5 55H612.5ZM808 61.5C808 57.9101 810.91 55 814.5 55H971.5C975.09 55 978 57.9101 978 61.5C978 65.0899 975.09 68 971.5 68H814.5C810.91 68 808 65.0899 808 61.5ZM1016.5 55C1012.91 55 1010 57.9101 1010 61.5C1010 65.0899 1012.91 68 1016.5 68H1173.5C1177.09 68 1180 65.0899 1180 61.5C1180 57.9101 1177.09 55 1173.5 55H1016.5Z" fill="#CEDEE7"/>
<path opacity="0.3" fill-rule="evenodd" clip-rule="evenodd" d="M6.5 75C2.91015 75 0 77.9101 0 81.5C0 85.0899 2.91015 88 6.5 88H163.5C167.09 88 170 85.0899 170 81.5C170 77.9101 167.09 75 163.5 75H6.5ZM208.5 75C204.91 75 202 77.9101 202 81.5C202 85.0899 204.91 88 208.5 88H365.5C369.09 88 372 85.0899 372 81.5C372 77.9101 369.09 75 365.5 75H208.5ZM404 81.5C404 77.9101 406.91 75 410.5 75H567.5C571.09 75 574 77.9101 574 81.5C574 85.0899 571.09 88 567.5 88H410.5C406.91 88 404 85.0899 404 81.5ZM612.5 75C608.91 75 606 77.9101 606 81.5C606 85.0899 608.91 88 612.5 88H769.5C773.09 88 776 85.0899 776 81.5C776 77.9101 773.09 75 769.5 75H612.5ZM808 81.5C808 77.9101 810.91 75 814.5 75H971.5C975.09 75 978 77.9101 978 81.5C978 85.0899 975.09 88 971.5 88H814.5C810.91 88 808 85.0899 808 81.5ZM1016.5 75C1012.91 75 1010 77.9101 1010 81.5C1010 85.0899 1012.91 88 1016.5 88H1173.5C1177.09 88 1180 85.0899 1180 81.5C1180 77.9101 1177.09 75 1173.5 75H1016.5Z" fill="#CEDEE7"/>
<path opacity="0.3" fill-rule="evenodd" clip-rule="evenodd" d="M6.5 95C2.91015 95 0 97.9101 0 101.5C0 105.09 2.91015 108 6.5 108H163.5C167.09 108 170 105.09 170 101.5C170 97.9101 167.09 95 163.5 95H6.5ZM208.5 95C204.91 95 202 97.9101 202 101.5C202 105.09 204.91 108 208.5 108H365.5C369.09 108 372 105.09 372 101.5C372 97.9101 369.09 95 365.5 95H208.5ZM404 101.5C404 97.9101 406.91 95 410.5 95H567.5C571.09 95 574 97.9101 574 101.5C574 105.09 571.09 108 567.5 108H410.5C406.91 108 404 105.09 404 101.5ZM612.5 95C608.91 95 606 97.9101 606 101.5C606 105.09 608.91 108 612.5 108H769.5C773.09 108 776 105.09 776 101.5C776 97.9101 773.09 95 769.5 95H612.5ZM808 101.5C808 97.9101 810.91 95 814.5 95H971.5C975.09 95 978 97.9101 978 101.5C978 105.09 975.09 108 971.5 108H814.5C810.91 108 808 105.09 808 101.5ZM1016.5 95C1012.91 95 1010 97.9101 1010 101.5C1010 105.09 1012.91 108 1016.5 108H1173.5C1177.09 108 1180 105.09 1180 101.5C1180 97.9101 1177.09 95 1173.5 95H1016.5Z" fill="#CEDEE7"/>
<path opacity="0.3" fill-rule="evenodd" clip-rule="evenodd" d="M6.5 115C2.91015 115 0 117.91 0 121.5C0 125.09 2.91015 128 6.5 128H163.5C167.09 128 170 125.09 170 121.5C170 117.91 167.09 115 163.5 115H6.5ZM208.5 115C204.91 115 202 117.91 202 121.5C202 125.09 204.91 128 208.5 128H365.5C369.09 128 372 125.09 372 121.5C372 117.91 369.09 115 365.5 115H208.5ZM404 121.5C404 117.91 406.91 115 410.5 115H567.5C571.09 115 574 117.91 574 121.5C574 125.09 571.09 128 567.5 128H410.5C406.91 128 404 125.09 404 121.5ZM612.5 115C608.91 115 606 117.91 606 121.5C606 125.09 608.91 128 612.5 128H769.5C773.09 128 776 125.09 776 121.5C776 117.91 773.09 115 769.5 115H612.5ZM808 121.5C808 117.91 810.91 115 814.5 115H971.5C975.09 115 978 117.91 978 121.5C978 125.09 975.09 128 971.5 128H814.5C810.91 128 808 125.09 808 121.5ZM1016.5 115C1012.91 115 1010 117.91 1010 121.5C1010 125.09 1012.91 128 1016.5 128H1173.5C1177.09 128 1180 125.09 1180 121.5C1180 117.91 1177.09 115 1173.5 115H1016.5Z" fill="#CEDEE7"/>
<path opacity="0.3" fill-rule="evenodd" clip-rule="evenodd" d="M6.5 135C2.91015 135 0 137.91 0 141.5C0 145.09 2.91015 148 6.5 148H163.5C167.09 148 170 145.09 170 141.5C170 137.91 167.09 135 163.5 135H6.5ZM208.5 135C204.91 135 202 137.91 202 141.5C202 145.09 204.91 148 208.5 148H365.5C369.09 148 372 145.09 372 141.5C372 137.91 369.09 135 365.5 135H208.5ZM404 141.5C404 137.91 406.91 135 410.5 135H567.5C571.09 135 574 137.91 574 141.5C574 145.09 571.09 148 567.5 148H410.5C406.91 148 404 145.09 404 141.5ZM612.5 135C608.91 135 606 137.91 606 141.5C606 145.09 608.91 148 612.5 148H769.5C773.09 148 776 145.09 776 141.5C776 137.91 773.09 135 769.5 135H612.5ZM808 141.5C808 137.91 810.91 135 814.5 135H971.5C975.09 135 978 137.91 978 141.5C978 145.09 975.09 148 971.5 148H814.5C810.91 148 808 145.09 808 141.5ZM1016.5 135C1012.91 135 1010 137.91 1010 141.5C1010 145.09 1012.91 148 1016.5 148H1173.5C1177.09 148 1180 145.09 1180 141.5C1180 137.91 1177.09 135 1173.5 135H1016.5Z" fill="#CEDEE7"/>
<path opacity="0.3" fill-rule="evenodd" clip-rule="evenodd" d="M6.5 155C2.91015 155 0 157.91 0 161.5C0 165.09 2.91015 168 6.5 168H163.5C167.09 168 170 165.09 170 161.5C170 157.91 167.09 155 163.5 155H6.5ZM208.5 155C204.91 155 202 157.91 202 161.5C202 165.09 204.91 168 208.5 168H365.5C369.09 168 372 165.09 372 161.5C372 157.91 369.09 155 365.5 155H208.5ZM404 161.5C404 157.91 406.91 155 410.5 155H567.5C571.09 155 574 157.91 574 161.5C574 165.09 571.09 168 567.5 168H410.5C406.91 168 404 165.09 404 161.5ZM612.5 155C608.91 155 606 157.91 606 161.5C606 165.09 608.91 168 612.5 168H769.5C773.09 168 776 165.09 776 161.5C776 157.91 773.09 155 769.5 155H612.5ZM808 161.5C808 157.91 810.91 155 814.5 155H971.5C975.09 155 978 157.91 978 161.5C978 165.09 975.09 168 971.5 168H814.5C810.91 168 808 165.09 808 161.5ZM1016.5 155C1012.91 155 1010 157.91 1010 161.5C1010 165.09 1012.91 168 1016.5 168H1173.5C1177.09 168 1180 165.09 1180 161.5C1180 157.91 1177.09 155 1173.5 155H1016.5Z" fill="#CEDEE7"/>
<path opacity="0.3" fill-rule="evenodd" clip-rule="evenodd" d="M6.5 175C2.91015 175 0 177.91 0 181.5C0 185.09 2.91015 188 6.5 188H163.5C167.09 188 170 185.09 170 181.5C170 177.91 167.09 175 163.5 175H6.5ZM208.5 175C204.91 175 202 177.91 202 181.5C202 185.09 204.91 188 208.5 188H365.5C369.09 188 372 185.09 372 181.5C372 177.91 369.09 175 365.5 175H208.5ZM404 181.5C404 177.91 406.91 175 410.5 175H567.5C571.09 175 574 177.91 574 181.5C574 185.09 571.09 188 567.5 188H410.5C406.91 188 404 185.09 404 181.5ZM612.5 175C608.91 175 606 177.91 606 181.5C606 185.09 608.91 188 612.5 188H769.5C773.09 188 776 185.09 776 181.5C776 177.91 773.09 175 769.5 175H612.5ZM808 181.5C808 177.91 810.91 175 814.5 175H971.5C975.09 175 978 177.91 978 181.5C978 185.09 975.09 188 971.5 188H814.5C810.91 188 808 185.09 808 181.5ZM1016.5 175C1012.91 175 1010 177.91 1010 181.5C1010 185.09 1012.91 188 1016.5 188H1173.5C1177.09 188 1180 185.09 1180 181.5C1180 177.91 1177.09 175 1173.5 175H1016.5Z" fill="#CEDEE7"/>
<path opacity="0.3" fill-rule="evenodd" clip-rule="evenodd" d="M6.5 195C2.91015 195 0 197.91 0 201.5C0 205.09 2.91015 208 6.5 208H163.5C167.09 208 170 205.09 170 201.5C170 197.91 167.09 195 163.5 195H6.5ZM208.5 195C204.91 195 202 197.91 202 201.5C202 205.09 204.91 208 208.5 208H365.5C369.09 208 372 205.09 372 201.5C372 197.91 369.09 195 365.5 195H208.5ZM404 201.5C404 197.91 406.91 195 410.5 195H567.5C571.09 195 574 197.91 574 201.5C574 205.09 571.09 208 567.5 208H410.5C406.91 208 404 205.09 404 201.5ZM612.5 195C608.91 195 606 197.91 606 201.5C606 205.09 608.91 208 612.5 208H769.5C773.09 208 776 205.09 776 201.5C776 197.91 773.09 195 769.5 195H612.5ZM808 201.5C808 197.91 810.91 195 814.5 195H971.5C975.09 195 978 197.91 978 201.5C978 205.09 975.09 208 971.5 208H814.5C810.91 208 808 205.09 808 201.5ZM1016.5 195C1012.91 195 1010 197.91 1010 201.5C1010 205.09 1012.91 208 1016.5 208H1173.5C1177.09 208 1180 205.09 1180 201.5C1180 197.91 1177.09 195 1173.5 195H1016.5Z" fill="#CEDEE7"/>
<path opacity="0.3" fill-rule="evenodd" clip-rule="evenodd" d="M6.5 215C2.91015 215 0 217.91 0 221.5C0 225.09 2.91015 228 6.5 228H163.5C167.09 228 170 225.09 170 221.5C170 217.91 167.09 215 163.5 215H6.5ZM208.5 215C204.91 215 202 217.91 202 221.5C202 225.09 204.91 228 208.5 228H365.5C369.09 228 372 225.09 372 221.5C372 217.91 369.09 215 365.5 215H208.5ZM404 221.5C404 217.91 406.91 215 410.5 215H567.5C571.09 215 574 217.91 574 221.5C574 225.09 571.09 228 567.5 228H410.5C406.91 228 404 225.09 404 221.5ZM612.5 215C608.91 215 606 217.91 606 221.5C606 225.09 608.91 228 612.5 228H769.5C773.09 228 776 225.09 776 221.5C776 217.91 773.09 215 769.5 215H612.5ZM808 221.5C808 217.91 810.91 215 814.5 215H971.5C975.09 215 978 217.91 978 221.5C978 225.09 975.09 228 971.5 228H814.5C810.91 228 808 225.09 808 221.5ZM1016.5 215C1012.91 215 1010 217.91 1010 221.5C1010 225.09 1012.91 228 1016.5 228H1173.5C1177.09 228 1180 225.09 1180 221.5C1180 217.91 1177.09 215 1173.5 215H1016.5Z" fill="#CEDEE7"/>
<rect y="31" width="1240" height="1" fill="#CEDEE7"/>
<rect y="51" width="1240" height="1" fill="#CEDEE7"/>
<rect y="71" width="1240" height="1" fill="#CEDEE7"/>
<rect y="91" width="1240" height="1" fill="#CEDEE7"/>
<rect y="111" width="1240" height="1" fill="#CEDEE7"/>
<rect y="131" width="1240" height="1" fill="#CEDEE7"/>
<rect y="151" width="1240" height="1" fill="#CEDEE7"/>
<rect y="171" width="1240" height="1" fill="#CEDEE7"/>
<rect y="191" width="1240" height="1" fill="#CEDEE7"/>
<rect y="211" width="1240" height="1" fill="#CEDEE7"/>
</svg>
