<svg width="367" height="480" viewBox="0 0 367 480" fill="none" xmlns="http://www.w3.org/2000/svg">
<rect width="330" height="160" rx="8" fill="#E8F3F6"/>
<rect width="367" height="479" rx="2" fill="#DEEDF2"/>
<rect x="18" y="14" width="94" height="24" rx="12" fill="#CEDEE7"/>
<rect x="18" y="49" width="204" height="10" rx="5" fill="#CEDEE7"/>
<rect x="18" y="70" width="204" height="10" rx="5" fill="#CEDEE7"/>
<rect y="95" width="367" height="1" fill="#CEDEE7"/>
<rect x="299" y="14" width="44" height="8" rx="4" fill="#CEDEE7"/>
<rect x="18" y="110" width="94" height="24" rx="12" fill="#CEDEE7"/>
<rect x="18" y="145" width="204" height="10" rx="5" fill="#CEDEE7"/>
<rect x="18" y="166" width="204" height="10" rx="5" fill="#CEDEE7"/>
<rect y="191" width="367" height="1" fill="#CEDEE7"/>
<rect x="299" y="110" width="44" height="8" rx="4" fill="#CEDEE7"/>
<rect x="18" y="206" width="94" height="24" rx="12" fill="#CEDEE7"/>
<rect x="18" y="241" width="204" height="10" rx="5" fill="#CEDEE7"/>
<rect x="18" y="262" width="204" height="10" rx="5" fill="#CEDEE7"/>
<rect y="287" width="367" height="1" fill="#CEDEE7"/>
<rect x="299" y="206" width="44" height="8" rx="4" fill="#CEDEE7"/>
<rect x="18" y="302" width="94" height="24" rx="12" fill="#CEDEE7"/>
<rect x="18" y="337" width="204" height="10" rx="5" fill="#CEDEE7"/>
<rect x="18" y="358" width="204" height="10" rx="5" fill="#CEDEE7"/>
<rect y="383" width="367" height="1" fill="#CEDEE7"/>
<rect x="299" y="302" width="44" height="8" rx="4" fill="#CEDEE7"/>
<rect x="18" y="398" width="94" height="24" rx="12" fill="#CEDEE7"/>
<rect x="18" y="433" width="204" height="10" rx="5" fill="#CEDEE7"/>
<rect x="18" y="454" width="204" height="10" rx="5" fill="#CEDEE7"/>
<rect y="479" width="367" height="1" fill="#CEDEE7"/>
<rect x="299" y="398" width="44" height="8" rx="4" fill="#CEDEE7"/>
</svg>
