<?xml version="1.0" encoding="UTF-8"?>
<svg width="954px" height="454px" viewBox="0 0 954 454" version="1.1" xmlns="http://www.w3.org/2000/svg" xmlns:xlink="http://www.w3.org/1999/xlink">
    <!-- Generator: Sketch 55.2 (78181) - https://sketchapp.com -->
    <title>tabla_desktop</title>
    <desc>Created with Sketch.</desc>
    <defs>
        <rect id="path-1" x="0" y="0" width="940" height="440"></rect>
        <filter x="-1.1%" y="-2.4%" width="102.2%" height="104.8%" filterUnits="objectBoundingBox" id="filter-2">
            <feOffset dx="0" dy="0" in="SourceAlpha" result="shadowOffsetOuter1"></feOffset>
            <feGaussianBlur stdDeviation="3.5" in="shadowOffsetOuter1" result="shadowBlurOuter1"></feGaussianBlur>
            <feColorMatrix values="0 0 0 0 0   0 0 0 0 0   0 0 0 0 0  0 0 0 0.05 0" type="matrix" in="shadowBlurOuter1"></feColorMatrix>
        </filter>
    </defs>
    <g id="Page-1" stroke="none" stroke-width="1" fill="none" fill-rule="evenodd">
        <g id="Desktop-Facturas-Copy" transform="translate(-70.000000, -798.000000)">
            <g id="tabla_desktop" transform="translate(77.000000, 805.000000)">
                <g id="Group">
                    <g id="table_bg">
                        <use fill="black" fill-opacity="1" filter="url(#filter-2)" xlink:href="#path-1"></use>
                        <use fill="#FFFFFF" fill-rule="evenodd" xlink:href="#path-1"></use>
                    </g>
                    <g id="at/color/grey_01" transform="translate(0.000000, 39.000000)" fill="#50535A" fill-rule="nonzero">
                        <rect id="at/color/grey" x="0" y="0" width="940" height="1"></rect>
                    </g>
                    <rect id="at/color/grey" fill="#EDEDED" fill-rule="nonzero" x="0" y="79" width="940" height="1"></rect>
                    <rect id="at/color/grey" fill="#EDEDED" fill-rule="nonzero" x="0" y="119" width="940" height="1"></rect>
                    <rect id="at/color/grey" fill="#EDEDED" fill-rule="nonzero" x="0" y="159" width="940" height="1"></rect>
                    <rect id="at/color/grey" fill="#EDEDED" fill-rule="nonzero" x="0" y="199" width="940" height="1"></rect>
                    <rect id="at/color/grey" fill="#EDEDED" fill-rule="nonzero" x="0" y="239" width="940" height="1"></rect>
                    <rect id="at/color/grey" fill="#EDEDED" fill-rule="nonzero" x="0" y="279" width="940" height="1"></rect>
                    <rect id="at/color/grey" fill="#EDEDED" fill-rule="nonzero" x="0" y="319" width="940" height="1"></rect>
                    <rect id="at/color/grey" fill="#EDEDED" fill-rule="nonzero" x="0" y="359" width="940" height="1"></rect>
                    <rect id="at/color/grey" fill="#EDEDED" fill-rule="nonzero" x="0" y="399" width="940" height="1"></rect>
                    <rect id="at/color/grey" fill="#EDEDED" fill-rule="nonzero" x="0" y="439" width="940" height="1"></rect>
                </g>
                <g id="Group-2" transform="translate(40.000000, 54.000000)" fill="#EDEDED" fill-rule="nonzero">
                    <rect id="Rectangle-Copy-31" x="0" y="0" width="71" height="11"></rect>
                    <rect id="Rectangle-Copy-32" x="140" y="0" width="93" height="11"></rect>
                    <rect id="Rectangle-Copy-33" x="300" y="0" width="93" height="11"></rect>
                    <rect id="Rectangle-Copy-34" x="440" y="0" width="32" height="11"></rect>
                    <rect id="Rectangle-Copy-35" x="540" y="0" width="43" height="11"></rect>
                    <rect id="Rectangle-Copy-36" x="661" y="0" width="63" height="11"></rect>
                    <rect id="Rectangle-Copy-37" x="803" y="0" width="77" height="11"></rect>
                </g>
                <g id="Group-2-Copy" transform="translate(40.000000, 94.000000)" fill="#EDEDED" fill-rule="nonzero">
                    <rect id="Rectangle-Copy-31" x="0" y="0" width="71" height="11"></rect>
                    <rect id="Rectangle-Copy-32" x="140" y="0" width="93" height="11"></rect>
                    <rect id="Rectangle-Copy-33" x="300" y="0" width="93" height="11"></rect>
                    <rect id="Rectangle-Copy-34" x="440" y="0" width="32" height="11"></rect>
                    <rect id="Rectangle-Copy-35" x="540" y="0" width="43" height="11"></rect>
                    <rect id="Rectangle-Copy-36" x="661" y="0" width="63" height="11"></rect>
                    <rect id="Rectangle-Copy-37" x="803" y="0" width="77" height="11"></rect>
                </g>
                <g id="Group-2-Copy-2" transform="translate(40.000000, 134.000000)" fill="#EDEDED" fill-rule="nonzero">
                    <rect id="Rectangle-Copy-31" x="0" y="0" width="71" height="11"></rect>
                    <rect id="Rectangle-Copy-32" x="140" y="0" width="93" height="11"></rect>
                    <rect id="Rectangle-Copy-33" x="300" y="0" width="93" height="11"></rect>
                    <rect id="Rectangle-Copy-34" x="440" y="0" width="32" height="11"></rect>
                    <rect id="Rectangle-Copy-35" x="540" y="0" width="43" height="11"></rect>
                    <rect id="Rectangle-Copy-36" x="661" y="0" width="63" height="11"></rect>
                    <rect id="Rectangle-Copy-37" x="803" y="0" width="77" height="11"></rect>
                </g>
                <g id="Group-2-Copy-3" transform="translate(40.000000, 174.000000)" fill="#EDEDED" fill-rule="nonzero">
                    <rect id="Rectangle-Copy-31" x="0" y="0" width="71" height="11"></rect>
                    <rect id="Rectangle-Copy-32" x="140" y="0" width="93" height="11"></rect>
                    <rect id="Rectangle-Copy-33" x="300" y="0" width="93" height="11"></rect>
                    <rect id="Rectangle-Copy-34" x="440" y="0" width="32" height="11"></rect>
                    <rect id="Rectangle-Copy-35" x="540" y="0" width="43" height="11"></rect>
                    <rect id="Rectangle-Copy-36" x="661" y="0" width="63" height="11"></rect>
                    <rect id="Rectangle-Copy-37" x="803" y="0" width="77" height="11"></rect>
                </g>
                <g id="Group-2-Copy-4" transform="translate(40.000000, 214.000000)" fill="#EDEDED" fill-rule="nonzero">
                    <rect id="Rectangle-Copy-31" x="0" y="0" width="71" height="11"></rect>
                    <rect id="Rectangle-Copy-32" x="140" y="0" width="93" height="11"></rect>
                    <rect id="Rectangle-Copy-33" x="300" y="0" width="93" height="11"></rect>
                    <rect id="Rectangle-Copy-34" x="440" y="0" width="32" height="11"></rect>
                    <rect id="Rectangle-Copy-35" x="540" y="0" width="43" height="11"></rect>
                    <rect id="Rectangle-Copy-36" x="661" y="0" width="63" height="11"></rect>
                    <rect id="Rectangle-Copy-37" x="803" y="0" width="77" height="11"></rect>
                </g>
                <g id="Group-2-Copy-5" transform="translate(40.000000, 254.000000)" fill="#EDEDED" fill-rule="nonzero">
                    <rect id="Rectangle-Copy-31" x="0" y="0" width="71" height="11"></rect>
                    <rect id="Rectangle-Copy-32" x="140" y="0" width="93" height="11"></rect>
                    <rect id="Rectangle-Copy-33" x="300" y="0" width="93" height="11"></rect>
                    <rect id="Rectangle-Copy-34" x="440" y="0" width="32" height="11"></rect>
                    <rect id="Rectangle-Copy-35" x="540" y="0" width="43" height="11"></rect>
                    <rect id="Rectangle-Copy-36" x="661" y="0" width="63" height="11"></rect>
                    <rect id="Rectangle-Copy-37" x="803" y="0" width="77" height="11"></rect>
                </g>
                <g id="Group-2-Copy-6" transform="translate(40.000000, 294.000000)" fill="#EDEDED" fill-rule="nonzero">
                    <rect id="Rectangle-Copy-31" x="0" y="0" width="71" height="11"></rect>
                    <rect id="Rectangle-Copy-32" x="140" y="0" width="93" height="11"></rect>
                    <rect id="Rectangle-Copy-33" x="300" y="0" width="93" height="11"></rect>
                    <rect id="Rectangle-Copy-34" x="440" y="0" width="32" height="11"></rect>
                    <rect id="Rectangle-Copy-35" x="540" y="0" width="43" height="11"></rect>
                    <rect id="Rectangle-Copy-36" x="661" y="0" width="63" height="11"></rect>
                    <rect id="Rectangle-Copy-37" x="803" y="0" width="77" height="11"></rect>
                </g>
                <g id="Group-2-Copy-7" transform="translate(40.000000, 334.000000)" fill="#EDEDED" fill-rule="nonzero">
                    <rect id="Rectangle-Copy-31" x="0" y="0" width="71" height="11"></rect>
                    <rect id="Rectangle-Copy-32" x="140" y="0" width="93" height="11"></rect>
                    <rect id="Rectangle-Copy-33" x="300" y="0" width="93" height="11"></rect>
                    <rect id="Rectangle-Copy-34" x="440" y="0" width="32" height="11"></rect>
                    <rect id="Rectangle-Copy-35" x="540" y="0" width="43" height="11"></rect>
                    <rect id="Rectangle-Copy-36" x="661" y="0" width="63" height="11"></rect>
                    <rect id="Rectangle-Copy-37" x="803" y="0" width="77" height="11"></rect>
                </g>
                <g id="Group-2-Copy-8" transform="translate(40.000000, 374.000000)" fill="#EDEDED" fill-rule="nonzero">
                    <rect id="Rectangle-Copy-31" x="0" y="0" width="71" height="11"></rect>
                    <rect id="Rectangle-Copy-32" x="140" y="0" width="93" height="11"></rect>
                    <rect id="Rectangle-Copy-33" x="300" y="0" width="93" height="11"></rect>
                    <rect id="Rectangle-Copy-34" x="440" y="0" width="32" height="11"></rect>
                    <rect id="Rectangle-Copy-35" x="540" y="0" width="43" height="11"></rect>
                    <rect id="Rectangle-Copy-36" x="661" y="0" width="63" height="11"></rect>
                    <rect id="Rectangle-Copy-37" x="803" y="0" width="77" height="11"></rect>
                </g>
                <g id="Group-2-Copy-9" transform="translate(40.000000, 414.000000)" fill="#EDEDED" fill-rule="nonzero">
                    <rect id="Rectangle-Copy-31" x="0" y="0" width="71" height="11"></rect>
                    <rect id="Rectangle-Copy-32" x="140" y="0" width="93" height="11"></rect>
                    <rect id="Rectangle-Copy-33" x="300" y="0" width="93" height="11"></rect>
                    <rect id="Rectangle-Copy-34" x="440" y="0" width="32" height="11"></rect>
                    <rect id="Rectangle-Copy-35" x="540" y="0" width="43" height="11"></rect>
                    <rect id="Rectangle-Copy-36" x="661" y="0" width="63" height="11"></rect>
                    <rect id="Rectangle-Copy-37" x="803" y="0" width="77" height="11"></rect>
                </g>
                <rect id="Rectangle-Copy-38" fill="#EDEDED" fill-rule="nonzero" x="40" y="15" width="83" height="11"></rect>
                <rect id="Rectangle-Copy-39" fill="#EDEDED" fill-rule="nonzero" x="180" y="15" width="83" height="11"></rect>
                <rect id="Rectangle-Copy-40" fill="#EDEDED" fill-rule="nonzero" x="340" y="15" width="43" height="11"></rect>
                <rect id="Rectangle-Copy-41" fill="#EDEDED" fill-rule="nonzero" x="462" y="15" width="67" height="11"></rect>
                <rect id="Rectangle-Copy-42" fill="#EDEDED" fill-rule="nonzero" x="580" y="15" width="39" height="11"></rect>
                <rect id="Rectangle-Copy-43" fill="#EDEDED" fill-rule="nonzero" x="701" y="15" width="72" height="11"></rect>
                <rect id="Rectangle-Copy-44" fill="#EDEDED" fill-rule="nonzero" x="880" y="15" width="40" height="11"></rect>
            </g>
        </g>
    </g>
</svg>