<svg width="1240" height="280" viewBox="0 0 1240 280" fill="none" xmlns="http://www.w3.org/2000/svg">
<rect width="1240" height="280" fill="white"/>
<rect y="31" width="1240" height="1" fill="#CEDEE7"/>
<rect y="56" width="1240" height="1" fill="#CEDEE7"/>
<rect y="81" width="1240" height="1" fill="#CEDEE7"/>
<rect y="106" width="1240" height="1" fill="#CEDEE7"/>
<rect y="131" width="1240" height="1" fill="#CEDEE7"/>
<rect y="156" width="1240" height="1" fill="#CEDEE7"/>
<rect y="181" width="1240" height="1" fill="#CEDEE7"/>
<rect y="206" width="1240" height="1" fill="#CEDEE7"/>
<rect y="231" width="1240" height="1" fill="#CEDEE7"/>
<rect y="256" width="1240" height="1" fill="#CEDEE7"/>
<path opacity="0.7" fill-rule="evenodd" clip-rule="evenodd" d="M8 6C3.58172 6 0 9.58172 0 14C0 18.4183 3.58172 22 8 22H102C106.418 22 110 18.4183 110 14C110 9.58172 106.418 6 102 6H8ZM210 6C205.582 6 202 9.58172 202 14C202 18.4183 205.582 22 210 22H304C308.418 22 312 18.4183 312 14C312 9.58172 308.418 6 304 6H210ZM404 14C404 9.58172 407.582 6 412 6H506C510.418 6 514 9.58172 514 14C514 18.4183 510.418 22 506 22H412C407.582 22 404 18.4183 404 14ZM614 6C609.582 6 606 9.58172 606 14C606 18.4183 609.582 22 614 22H708C712.418 22 716 18.4183 716 14C716 9.58172 712.418 6 708 6H614ZM808 14C808 9.58172 811.582 6 816 6H910C914.418 6 918 9.58172 918 14C918 18.4183 914.418 22 910 22H816C811.582 22 808 18.4183 808 14ZM1018 6C1013.58 6 1010 9.58172 1010 14C1010 18.4183 1013.58 22 1018 22H1112C1116.42 22 1120 18.4183 1120 14C1120 9.58172 1116.42 6 1112 6H1018Z" fill="#CEDEE7"/>
<path opacity="0.3" fill-rule="evenodd" clip-rule="evenodd" d="M8.5 35C3.80558 35 0 38.8056 0 43.5C0 48.1944 3.80558 52 8.5 52H161.5C166.194 52 170 48.1944 170 43.5C170 38.8056 166.194 35 161.5 35H8.5ZM210.5 35C205.806 35 202 38.8056 202 43.5C202 48.1944 205.806 52 210.5 52H363.5C368.194 52 372 48.1944 372 43.5C372 38.8056 368.194 35 363.5 35H210.5ZM404 43.5C404 38.8056 407.806 35 412.5 35H565.5C570.194 35 574 38.8056 574 43.5C574 48.1944 570.194 52 565.5 52H412.5C407.806 52 404 48.1944 404 43.5ZM614.5 35C609.806 35 606 38.8056 606 43.5C606 48.1944 609.806 52 614.5 52H767.5C772.194 52 776 48.1944 776 43.5C776 38.8056 772.194 35 767.5 35H614.5ZM808 43.5C808 38.8056 811.806 35 816.5 35H969.5C974.194 35 978 38.8056 978 43.5C978 48.1944 974.194 52 969.5 52H816.5C811.806 52 808 48.1944 808 43.5ZM1018.5 35C1013.81 35 1010 38.8056 1010 43.5C1010 48.1944 1013.81 52 1018.5 52H1171.5C1176.19 52 1180 48.1944 1180 43.5C1180 38.8056 1176.19 35 1171.5 35H1018.5Z" fill="#CEDEE7"/>
<path opacity="0.3" fill-rule="evenodd" clip-rule="evenodd" d="M8.5 60C3.80558 60 0 63.8056 0 68.5C0 73.1944 3.80558 77 8.5 77H161.5C166.194 77 170 73.1944 170 68.5C170 63.8056 166.194 60 161.5 60H8.5ZM210.5 60C205.806 60 202 63.8056 202 68.5C202 73.1944 205.806 77 210.5 77H363.5C368.194 77 372 73.1944 372 68.5C372 63.8056 368.194 60 363.5 60H210.5ZM404 68.5C404 63.8056 407.806 60 412.5 60H565.5C570.194 60 574 63.8056 574 68.5C574 73.1944 570.194 77 565.5 77H412.5C407.806 77 404 73.1944 404 68.5ZM614.5 60C609.806 60 606 63.8056 606 68.5C606 73.1944 609.806 77 614.5 77H767.5C772.194 77 776 73.1944 776 68.5C776 63.8056 772.194 60 767.5 60H614.5ZM808 68.5C808 63.8056 811.806 60 816.5 60H969.5C974.194 60 978 63.8056 978 68.5C978 73.1944 974.194 77 969.5 77H816.5C811.806 77 808 73.1944 808 68.5ZM1018.5 60C1013.81 60 1010 63.8056 1010 68.5C1010 73.1944 1013.81 77 1018.5 77H1171.5C1176.19 77 1180 73.1944 1180 68.5C1180 63.8056 1176.19 60 1171.5 60H1018.5Z" fill="#CEDEE7"/>
<path opacity="0.3" fill-rule="evenodd" clip-rule="evenodd" d="M8.5 85C3.80558 85 0 88.8056 0 93.5C0 98.1944 3.80558 102 8.5 102H161.5C166.194 102 170 98.1944 170 93.5C170 88.8056 166.194 85 161.5 85H8.5ZM210.5 85C205.806 85 202 88.8056 202 93.5C202 98.1944 205.806 102 210.5 102H363.5C368.194 102 372 98.1944 372 93.5C372 88.8056 368.194 85 363.5 85H210.5ZM404 93.5C404 88.8056 407.806 85 412.5 85H565.5C570.194 85 574 88.8056 574 93.5C574 98.1944 570.194 102 565.5 102H412.5C407.806 102 404 98.1944 404 93.5ZM614.5 85C609.806 85 606 88.8056 606 93.5C606 98.1944 609.806 102 614.5 102H767.5C772.194 102 776 98.1944 776 93.5C776 88.8056 772.194 85 767.5 85H614.5ZM808 93.5C808 88.8056 811.806 85 816.5 85H969.5C974.194 85 978 88.8056 978 93.5C978 98.1944 974.194 102 969.5 102H816.5C811.806 102 808 98.1944 808 93.5ZM1018.5 85C1013.81 85 1010 88.8056 1010 93.5C1010 98.1944 1013.81 102 1018.5 102H1171.5C1176.19 102 1180 98.1944 1180 93.5C1180 88.8056 1176.19 85 1171.5 85H1018.5Z" fill="#CEDEE7"/>
<path opacity="0.3" fill-rule="evenodd" clip-rule="evenodd" d="M8.5 110C3.80558 110 0 113.806 0 118.5C0 123.194 3.80558 127 8.5 127H161.5C166.194 127 170 123.194 170 118.5C170 113.806 166.194 110 161.5 110H8.5ZM210.5 110C205.806 110 202 113.806 202 118.5C202 123.194 205.806 127 210.5 127H363.5C368.194 127 372 123.194 372 118.5C372 113.806 368.194 110 363.5 110H210.5ZM404 118.5C404 113.806 407.806 110 412.5 110H565.5C570.194 110 574 113.806 574 118.5C574 123.194 570.194 127 565.5 127H412.5C407.806 127 404 123.194 404 118.5ZM614.5 110C609.806 110 606 113.806 606 118.5C606 123.194 609.806 127 614.5 127H767.5C772.194 127 776 123.194 776 118.5C776 113.806 772.194 110 767.5 110H614.5ZM808 118.5C808 113.806 811.806 110 816.5 110H969.5C974.194 110 978 113.806 978 118.5C978 123.194 974.194 127 969.5 127H816.5C811.806 127 808 123.194 808 118.5ZM1018.5 110C1013.81 110 1010 113.806 1010 118.5C1010 123.194 1013.81 127 1018.5 127H1171.5C1176.19 127 1180 123.194 1180 118.5C1180 113.806 1176.19 110 1171.5 110H1018.5Z" fill="#CEDEE7"/>
<path opacity="0.3" fill-rule="evenodd" clip-rule="evenodd" d="M8.5 135C3.80558 135 0 138.806 0 143.5C0 148.194 3.80558 152 8.5 152H161.5C166.194 152 170 148.194 170 143.5C170 138.806 166.194 135 161.5 135H8.5ZM210.5 135C205.806 135 202 138.806 202 143.5C202 148.194 205.806 152 210.5 152H363.5C368.194 152 372 148.194 372 143.5C372 138.806 368.194 135 363.5 135H210.5ZM404 143.5C404 138.806 407.806 135 412.5 135H565.5C570.194 135 574 138.806 574 143.5C574 148.194 570.194 152 565.5 152H412.5C407.806 152 404 148.194 404 143.5ZM614.5 135C609.806 135 606 138.806 606 143.5C606 148.194 609.806 152 614.5 152H767.5C772.194 152 776 148.194 776 143.5C776 138.806 772.194 135 767.5 135H614.5ZM808 143.5C808 138.806 811.806 135 816.5 135H969.5C974.194 135 978 138.806 978 143.5C978 148.194 974.194 152 969.5 152H816.5C811.806 152 808 148.194 808 143.5ZM1018.5 135C1013.81 135 1010 138.806 1010 143.5C1010 148.194 1013.81 152 1018.5 152H1171.5C1176.19 152 1180 148.194 1180 143.5C1180 138.806 1176.19 135 1171.5 135H1018.5Z" fill="#CEDEE7"/>
<path opacity="0.3" fill-rule="evenodd" clip-rule="evenodd" d="M8.5 160C3.80558 160 0 163.806 0 168.5C0 173.194 3.80558 177 8.5 177H161.5C166.194 177 170 173.194 170 168.5C170 163.806 166.194 160 161.5 160H8.5ZM210.5 160C205.806 160 202 163.806 202 168.5C202 173.194 205.806 177 210.5 177H363.5C368.194 177 372 173.194 372 168.5C372 163.806 368.194 160 363.5 160H210.5ZM404 168.5C404 163.806 407.806 160 412.5 160H565.5C570.194 160 574 163.806 574 168.5C574 173.194 570.194 177 565.5 177H412.5C407.806 177 404 173.194 404 168.5ZM614.5 160C609.806 160 606 163.806 606 168.5C606 173.194 609.806 177 614.5 177H767.5C772.194 177 776 173.194 776 168.5C776 163.806 772.194 160 767.5 160H614.5ZM808 168.5C808 163.806 811.806 160 816.5 160H969.5C974.194 160 978 163.806 978 168.5C978 173.194 974.194 177 969.5 177H816.5C811.806 177 808 173.194 808 168.5ZM1018.5 160C1013.81 160 1010 163.806 1010 168.5C1010 173.194 1013.81 177 1018.5 177H1171.5C1176.19 177 1180 173.194 1180 168.5C1180 163.806 1176.19 160 1171.5 160H1018.5Z" fill="#CEDEE7"/>
<path opacity="0.3" fill-rule="evenodd" clip-rule="evenodd" d="M8.5 185C3.80558 185 0 188.806 0 193.5C0 198.194 3.80558 202 8.5 202H161.5C166.194 202 170 198.194 170 193.5C170 188.806 166.194 185 161.5 185H8.5ZM210.5 185C205.806 185 202 188.806 202 193.5C202 198.194 205.806 202 210.5 202H363.5C368.194 202 372 198.194 372 193.5C372 188.806 368.194 185 363.5 185H210.5ZM404 193.5C404 188.806 407.806 185 412.5 185H565.5C570.194 185 574 188.806 574 193.5C574 198.194 570.194 202 565.5 202H412.5C407.806 202 404 198.194 404 193.5ZM614.5 185C609.806 185 606 188.806 606 193.5C606 198.194 609.806 202 614.5 202H767.5C772.194 202 776 198.194 776 193.5C776 188.806 772.194 185 767.5 185H614.5ZM808 193.5C808 188.806 811.806 185 816.5 185H969.5C974.194 185 978 188.806 978 193.5C978 198.194 974.194 202 969.5 202H816.5C811.806 202 808 198.194 808 193.5ZM1018.5 185C1013.81 185 1010 188.806 1010 193.5C1010 198.194 1013.81 202 1018.5 202H1171.5C1176.19 202 1180 198.194 1180 193.5C1180 188.806 1176.19 185 1171.5 185H1018.5Z" fill="#CEDEE7"/>
<path opacity="0.3" fill-rule="evenodd" clip-rule="evenodd" d="M8.5 210C3.80558 210 0 213.806 0 218.5C0 223.194 3.80558 227 8.5 227H161.5C166.194 227 170 223.194 170 218.5C170 213.806 166.194 210 161.5 210H8.5ZM210.5 210C205.806 210 202 213.806 202 218.5C202 223.194 205.806 227 210.5 227H363.5C368.194 227 372 223.194 372 218.5C372 213.806 368.194 210 363.5 210H210.5ZM404 218.5C404 213.806 407.806 210 412.5 210H565.5C570.194 210 574 213.806 574 218.5C574 223.194 570.194 227 565.5 227H412.5C407.806 227 404 223.194 404 218.5ZM614.5 210C609.806 210 606 213.806 606 218.5C606 223.194 609.806 227 614.5 227H767.5C772.194 227 776 223.194 776 218.5C776 213.806 772.194 210 767.5 210H614.5ZM808 218.5C808 213.806 811.806 210 816.5 210H969.5C974.194 210 978 213.806 978 218.5C978 223.194 974.194 227 969.5 227H816.5C811.806 227 808 223.194 808 218.5ZM1018.5 210C1013.81 210 1010 213.806 1010 218.5C1010 223.194 1013.81 227 1018.5 227H1171.5C1176.19 227 1180 223.194 1180 218.5C1180 213.806 1176.19 210 1171.5 210H1018.5Z" fill="#CEDEE7"/>
<path opacity="0.3" fill-rule="evenodd" clip-rule="evenodd" d="M8.5 235C3.80558 235 0 238.806 0 243.5C0 248.194 3.80558 252 8.5 252H161.5C166.194 252 170 248.194 170 243.5C170 238.806 166.194 235 161.5 235H8.5ZM210.5 235C205.806 235 202 238.806 202 243.5C202 248.194 205.806 252 210.5 252H363.5C368.194 252 372 248.194 372 243.5C372 238.806 368.194 235 363.5 235H210.5ZM404 243.5C404 238.806 407.806 235 412.5 235H565.5C570.194 235 574 238.806 574 243.5C574 248.194 570.194 252 565.5 252H412.5C407.806 252 404 248.194 404 243.5ZM614.5 235C609.806 235 606 238.806 606 243.5C606 248.194 609.806 252 614.5 252H767.5C772.194 252 776 248.194 776 243.5C776 238.806 772.194 235 767.5 235H614.5ZM808 243.5C808 238.806 811.806 235 816.5 235H969.5C974.194 235 978 238.806 978 243.5C978 248.194 974.194 252 969.5 252H816.5C811.806 252 808 248.194 808 243.5ZM1018.5 235C1013.81 235 1010 238.806 1010 243.5C1010 248.194 1013.81 252 1018.5 252H1171.5C1176.19 252 1180 248.194 1180 243.5C1180 238.806 1176.19 235 1171.5 235H1018.5Z" fill="#CEDEE7"/>
<path opacity="0.3" fill-rule="evenodd" clip-rule="evenodd" d="M8.5 260C3.80558 260 0 263.806 0 268.5C0 273.194 3.80558 277 8.5 277H161.5C166.194 277 170 273.194 170 268.5C170 263.806 166.194 260 161.5 260H8.5ZM210.5 260C205.806 260 202 263.806 202 268.5C202 273.194 205.806 277 210.5 277H363.5C368.194 277 372 273.194 372 268.5C372 263.806 368.194 260 363.5 260H210.5ZM404 268.5C404 263.806 407.806 260 412.5 260H565.5C570.194 260 574 263.806 574 268.5C574 273.194 570.194 277 565.5 277H412.5C407.806 277 404 273.194 404 268.5ZM614.5 260C609.806 260 606 263.806 606 268.5C606 273.194 609.806 277 614.5 277H767.5C772.194 277 776 273.194 776 268.5C776 263.806 772.194 260 767.5 260H614.5ZM808 268.5C808 263.806 811.806 260 816.5 260H969.5C974.194 260 978 263.806 978 268.5C978 273.194 974.194 277 969.5 277H816.5C811.806 277 808 273.194 808 268.5ZM1018.5 260C1013.81 260 1010 263.806 1010 268.5C1010 273.194 1013.81 277 1018.5 277H1171.5C1176.19 277 1180 273.194 1180 268.5C1180 263.806 1176.19 260 1171.5 260H1018.5Z" fill="#CEDEE7"/>
</svg>
