<svg width="1240" height="440" viewBox="0 0 1240 440" fill="none" xmlns="http://www.w3.org/2000/svg">
<rect width="1240" height="440" fill="white"/>
<rect y="31" width="1240" height="1" fill="#CEDEE7"/>
<rect y="72" width="1240" height="1" fill="#CEDEE7"/>
<rect y="113" width="1240" height="1" fill="#CEDEE7"/>
<rect y="154" width="1240" height="1" fill="#CEDEE7"/>
<rect y="195" width="1240" height="1" fill="#CEDEE7"/>
<rect y="236" width="1240" height="1" fill="#CEDEE7"/>
<rect y="277" width="1240" height="1" fill="#CEDEE7"/>
<rect y="318" width="1240" height="1" fill="#CEDEE7"/>
<rect y="359" width="1240" height="1" fill="#CEDEE7"/>
<rect y="400" width="1240" height="1" fill="#CEDEE7"/>
<path opacity="0.7" fill-rule="evenodd" clip-rule="evenodd" d="M8 6C3.58172 6 0 9.58172 0 14C0 18.4183 3.58172 22 8 22H102C106.418 22 110 18.4183 110 14C110 9.58172 106.418 6 102 6H8ZM210 6C205.582 6 202 9.58172 202 14C202 18.4183 205.582 22 210 22H304C308.418 22 312 18.4183 312 14C312 9.58172 308.418 6 304 6H210ZM404 14C404 9.58172 407.582 6 412 6H506C510.418 6 514 9.58172 514 14C514 18.4183 510.418 22 506 22H412C407.582 22 404 18.4183 404 14ZM614 6C609.582 6 606 9.58172 606 14C606 18.4183 609.582 22 614 22H708C712.418 22 716 18.4183 716 14C716 9.58172 712.418 6 708 6H614ZM808 14C808 9.58172 811.582 6 816 6H910C914.418 6 918 9.58172 918 14C918 18.4183 914.418 22 910 22H816C811.582 22 808 18.4183 808 14ZM1018 6C1013.58 6 1010 9.58172 1010 14C1010 18.4183 1013.58 22 1018 22H1112C1116.42 22 1120 18.4183 1120 14C1120 9.58172 1116.42 6 1112 6H1018Z" fill="#CEDEE7"/>
<path opacity="0.3" fill-rule="evenodd" clip-rule="evenodd" d="M8.5 43C3.80558 43 0 46.8056 0 51.5C0 56.1944 3.80558 60 8.5 60H161.5C166.194 60 170 56.1944 170 51.5C170 46.8056 166.194 43 161.5 43H8.5ZM210.5 43C205.806 43 202 46.8056 202 51.5C202 56.1944 205.806 60 210.5 60H363.5C368.194 60 372 56.1944 372 51.5C372 46.8056 368.194 43 363.5 43H210.5ZM404 51.5C404 46.8056 407.806 43 412.5 43H565.5C570.194 43 574 46.8056 574 51.5C574 56.1944 570.194 60 565.5 60H412.5C407.806 60 404 56.1944 404 51.5ZM614.5 43C609.806 43 606 46.8056 606 51.5C606 56.1944 609.806 60 614.5 60H767.5C772.194 60 776 56.1944 776 51.5C776 46.8056 772.194 43 767.5 43H614.5ZM808 51.5C808 46.8056 811.806 43 816.5 43H969.5C974.194 43 978 46.8056 978 51.5C978 56.1944 974.194 60 969.5 60H816.5C811.806 60 808 56.1944 808 51.5ZM1018.5 43C1013.81 43 1010 46.8056 1010 51.5C1010 56.1944 1013.81 60 1018.5 60H1171.5C1176.19 60 1180 56.1944 1180 51.5C1180 46.8056 1176.19 43 1171.5 43H1018.5Z" fill="#CEDEE7"/>
<path opacity="0.3" fill-rule="evenodd" clip-rule="evenodd" d="M8.5 84C3.80558 84 0 87.8056 0 92.5C0 97.1944 3.80558 101 8.5 101H161.5C166.194 101 170 97.1944 170 92.5C170 87.8056 166.194 84 161.5 84H8.5ZM210.5 84C205.806 84 202 87.8056 202 92.5C202 97.1944 205.806 101 210.5 101H363.5C368.194 101 372 97.1944 372 92.5C372 87.8056 368.194 84 363.5 84H210.5ZM404 92.5C404 87.8056 407.806 84 412.5 84H565.5C570.194 84 574 87.8056 574 92.5C574 97.1944 570.194 101 565.5 101H412.5C407.806 101 404 97.1944 404 92.5ZM614.5 84C609.806 84 606 87.8056 606 92.5C606 97.1944 609.806 101 614.5 101H767.5C772.194 101 776 97.1944 776 92.5C776 87.8056 772.194 84 767.5 84H614.5ZM808 92.5C808 87.8056 811.806 84 816.5 84H969.5C974.194 84 978 87.8056 978 92.5C978 97.1944 974.194 101 969.5 101H816.5C811.806 101 808 97.1944 808 92.5ZM1018.5 84C1013.81 84 1010 87.8056 1010 92.5C1010 97.1944 1013.81 101 1018.5 101H1171.5C1176.19 101 1180 97.1944 1180 92.5C1180 87.8056 1176.19 84 1171.5 84H1018.5Z" fill="#CEDEE7"/>
<path opacity="0.3" fill-rule="evenodd" clip-rule="evenodd" d="M8.5 125C3.80558 125 0 128.806 0 133.5C0 138.194 3.80558 142 8.5 142H161.5C166.194 142 170 138.194 170 133.5C170 128.806 166.194 125 161.5 125H8.5ZM210.5 125C205.806 125 202 128.806 202 133.5C202 138.194 205.806 142 210.5 142H363.5C368.194 142 372 138.194 372 133.5C372 128.806 368.194 125 363.5 125H210.5ZM404 133.5C404 128.806 407.806 125 412.5 125H565.5C570.194 125 574 128.806 574 133.5C574 138.194 570.194 142 565.5 142H412.5C407.806 142 404 138.194 404 133.5ZM614.5 125C609.806 125 606 128.806 606 133.5C606 138.194 609.806 142 614.5 142H767.5C772.194 142 776 138.194 776 133.5C776 128.806 772.194 125 767.5 125H614.5ZM808 133.5C808 128.806 811.806 125 816.5 125H969.5C974.194 125 978 128.806 978 133.5C978 138.194 974.194 142 969.5 142H816.5C811.806 142 808 138.194 808 133.5ZM1018.5 125C1013.81 125 1010 128.806 1010 133.5C1010 138.194 1013.81 142 1018.5 142H1171.5C1176.19 142 1180 138.194 1180 133.5C1180 128.806 1176.19 125 1171.5 125H1018.5Z" fill="#CEDEE7"/>
<path opacity="0.3" fill-rule="evenodd" clip-rule="evenodd" d="M8.5 166C3.80558 166 0 169.806 0 174.5C0 179.194 3.80558 183 8.5 183H161.5C166.194 183 170 179.194 170 174.5C170 169.806 166.194 166 161.5 166H8.5ZM210.5 166C205.806 166 202 169.806 202 174.5C202 179.194 205.806 183 210.5 183H363.5C368.194 183 372 179.194 372 174.5C372 169.806 368.194 166 363.5 166H210.5ZM404 174.5C404 169.806 407.806 166 412.5 166H565.5C570.194 166 574 169.806 574 174.5C574 179.194 570.194 183 565.5 183H412.5C407.806 183 404 179.194 404 174.5ZM614.5 166C609.806 166 606 169.806 606 174.5C606 179.194 609.806 183 614.5 183H767.5C772.194 183 776 179.194 776 174.5C776 169.806 772.194 166 767.5 166H614.5ZM808 174.5C808 169.806 811.806 166 816.5 166H969.5C974.194 166 978 169.806 978 174.5C978 179.194 974.194 183 969.5 183H816.5C811.806 183 808 179.194 808 174.5ZM1018.5 166C1013.81 166 1010 169.806 1010 174.5C1010 179.194 1013.81 183 1018.5 183H1171.5C1176.19 183 1180 179.194 1180 174.5C1180 169.806 1176.19 166 1171.5 166H1018.5Z" fill="#CEDEE7"/>
<path opacity="0.3" fill-rule="evenodd" clip-rule="evenodd" d="M8.5 207C3.80558 207 0 210.806 0 215.5C0 220.194 3.80558 224 8.5 224H161.5C166.194 224 170 220.194 170 215.5C170 210.806 166.194 207 161.5 207H8.5ZM210.5 207C205.806 207 202 210.806 202 215.5C202 220.194 205.806 224 210.5 224H363.5C368.194 224 372 220.194 372 215.5C372 210.806 368.194 207 363.5 207H210.5ZM404 215.5C404 210.806 407.806 207 412.5 207H565.5C570.194 207 574 210.806 574 215.5C574 220.194 570.194 224 565.5 224H412.5C407.806 224 404 220.194 404 215.5ZM614.5 207C609.806 207 606 210.806 606 215.5C606 220.194 609.806 224 614.5 224H767.5C772.194 224 776 220.194 776 215.5C776 210.806 772.194 207 767.5 207H614.5ZM808 215.5C808 210.806 811.806 207 816.5 207H969.5C974.194 207 978 210.806 978 215.5C978 220.194 974.194 224 969.5 224H816.5C811.806 224 808 220.194 808 215.5ZM1018.5 207C1013.81 207 1010 210.806 1010 215.5C1010 220.194 1013.81 224 1018.5 224H1171.5C1176.19 224 1180 220.194 1180 215.5C1180 210.806 1176.19 207 1171.5 207H1018.5Z" fill="#CEDEE7"/>
<path opacity="0.3" fill-rule="evenodd" clip-rule="evenodd" d="M8.5 248C3.80558 248 0 251.806 0 256.5C0 261.194 3.80558 265 8.5 265H161.5C166.194 265 170 261.194 170 256.5C170 251.806 166.194 248 161.5 248H8.5ZM210.5 248C205.806 248 202 251.806 202 256.5C202 261.194 205.806 265 210.5 265H363.5C368.194 265 372 261.194 372 256.5C372 251.806 368.194 248 363.5 248H210.5ZM404 256.5C404 251.806 407.806 248 412.5 248H565.5C570.194 248 574 251.806 574 256.5C574 261.194 570.194 265 565.5 265H412.5C407.806 265 404 261.194 404 256.5ZM614.5 248C609.806 248 606 251.806 606 256.5C606 261.194 609.806 265 614.5 265H767.5C772.194 265 776 261.194 776 256.5C776 251.806 772.194 248 767.5 248H614.5ZM808 256.5C808 251.806 811.806 248 816.5 248H969.5C974.194 248 978 251.806 978 256.5C978 261.194 974.194 265 969.5 265H816.5C811.806 265 808 261.194 808 256.5ZM1018.5 248C1013.81 248 1010 251.806 1010 256.5C1010 261.194 1013.81 265 1018.5 265H1171.5C1176.19 265 1180 261.194 1180 256.5C1180 251.806 1176.19 248 1171.5 248H1018.5Z" fill="#CEDEE7"/>
<path opacity="0.3" fill-rule="evenodd" clip-rule="evenodd" d="M8.5 289C3.80558 289 0 292.806 0 297.5C0 302.194 3.80558 306 8.5 306H161.5C166.194 306 170 302.194 170 297.5C170 292.806 166.194 289 161.5 289H8.5ZM210.5 289C205.806 289 202 292.806 202 297.5C202 302.194 205.806 306 210.5 306H363.5C368.194 306 372 302.194 372 297.5C372 292.806 368.194 289 363.5 289H210.5ZM404 297.5C404 292.806 407.806 289 412.5 289H565.5C570.194 289 574 292.806 574 297.5C574 302.194 570.194 306 565.5 306H412.5C407.806 306 404 302.194 404 297.5ZM614.5 289C609.806 289 606 292.806 606 297.5C606 302.194 609.806 306 614.5 306H767.5C772.194 306 776 302.194 776 297.5C776 292.806 772.194 289 767.5 289H614.5ZM808 297.5C808 292.806 811.806 289 816.5 289H969.5C974.194 289 978 292.806 978 297.5C978 302.194 974.194 306 969.5 306H816.5C811.806 306 808 302.194 808 297.5ZM1018.5 289C1013.81 289 1010 292.806 1010 297.5C1010 302.194 1013.81 306 1018.5 306H1171.5C1176.19 306 1180 302.194 1180 297.5C1180 292.806 1176.19 289 1171.5 289H1018.5Z" fill="#CEDEE7"/>
<path opacity="0.3" fill-rule="evenodd" clip-rule="evenodd" d="M8.5 330C3.80558 330 0 333.806 0 338.5C0 343.194 3.80558 347 8.5 347H161.5C166.194 347 170 343.194 170 338.5C170 333.806 166.194 330 161.5 330H8.5ZM210.5 330C205.806 330 202 333.806 202 338.5C202 343.194 205.806 347 210.5 347H363.5C368.194 347 372 343.194 372 338.5C372 333.806 368.194 330 363.5 330H210.5ZM404 338.5C404 333.806 407.806 330 412.5 330H565.5C570.194 330 574 333.806 574 338.5C574 343.194 570.194 347 565.5 347H412.5C407.806 347 404 343.194 404 338.5ZM614.5 330C609.806 330 606 333.806 606 338.5C606 343.194 609.806 347 614.5 347H767.5C772.194 347 776 343.194 776 338.5C776 333.806 772.194 330 767.5 330H614.5ZM808 338.5C808 333.806 811.806 330 816.5 330H969.5C974.194 330 978 333.806 978 338.5C978 343.194 974.194 347 969.5 347H816.5C811.806 347 808 343.194 808 338.5ZM1018.5 330C1013.81 330 1010 333.806 1010 338.5C1010 343.194 1013.81 347 1018.5 347H1171.5C1176.19 347 1180 343.194 1180 338.5C1180 333.806 1176.19 330 1171.5 330H1018.5Z" fill="#CEDEE7"/>
<path opacity="0.3" fill-rule="evenodd" clip-rule="evenodd" d="M8.5 371C3.80558 371 0 374.806 0 379.5C0 384.194 3.80558 388 8.5 388H161.5C166.194 388 170 384.194 170 379.5C170 374.806 166.194 371 161.5 371H8.5ZM210.5 371C205.806 371 202 374.806 202 379.5C202 384.194 205.806 388 210.5 388H363.5C368.194 388 372 384.194 372 379.5C372 374.806 368.194 371 363.5 371H210.5ZM404 379.5C404 374.806 407.806 371 412.5 371H565.5C570.194 371 574 374.806 574 379.5C574 384.194 570.194 388 565.5 388H412.5C407.806 388 404 384.194 404 379.5ZM614.5 371C609.806 371 606 374.806 606 379.5C606 384.194 609.806 388 614.5 388H767.5C772.194 388 776 384.194 776 379.5C776 374.806 772.194 371 767.5 371H614.5ZM808 379.5C808 374.806 811.806 371 816.5 371H969.5C974.194 371 978 374.806 978 379.5C978 384.194 974.194 388 969.5 388H816.5C811.806 388 808 384.194 808 379.5ZM1018.5 371C1013.81 371 1010 374.806 1010 379.5C1010 384.194 1013.81 388 1018.5 388H1171.5C1176.19 388 1180 384.194 1180 379.5C1180 374.806 1176.19 371 1171.5 371H1018.5Z" fill="#CEDEE7"/>
<path opacity="0.3" fill-rule="evenodd" clip-rule="evenodd" d="M8.5 412C3.80558 412 0 415.806 0 420.5C0 425.194 3.80558 429 8.5 429H161.5C166.194 429 170 425.194 170 420.5C170 415.806 166.194 412 161.5 412H8.5ZM210.5 412C205.806 412 202 415.806 202 420.5C202 425.194 205.806 429 210.5 429H363.5C368.194 429 372 425.194 372 420.5C372 415.806 368.194 412 363.5 412H210.5ZM404 420.5C404 415.806 407.806 412 412.5 412H565.5C570.194 412 574 415.806 574 420.5C574 425.194 570.194 429 565.5 429H412.5C407.806 429 404 425.194 404 420.5ZM614.5 412C609.806 412 606 415.806 606 420.5C606 425.194 609.806 429 614.5 429H767.5C772.194 429 776 425.194 776 420.5C776 415.806 772.194 412 767.5 412H614.5ZM808 420.5C808 415.806 811.806 412 816.5 412H969.5C974.194 412 978 415.806 978 420.5C978 425.194 974.194 429 969.5 429H816.5C811.806 429 808 425.194 808 420.5ZM1018.5 412C1013.81 412 1010 415.806 1010 420.5C1010 425.194 1013.81 429 1018.5 429H1171.5C1176.19 429 1180 425.194 1180 420.5C1180 415.806 1176.19 412 1171.5 412H1018.5Z" fill="#CEDEE7"/>
</svg>
