<?xml version="1.0" encoding="UTF-8"?>
<svg width="954px" height="454px" viewBox="0 0 954 454" version="1.1" xmlns="http://www.w3.org/2000/svg" xmlns:xlink="http://www.w3.org/1999/xlink">
    <defs>
        <rect id="path-1" x="0" y="0" width="940" height="440"></rect>
    </defs>
    <g id="Page-1" stroke="none" stroke-width="1" fill="none" fill-rule="evenodd">
        <g id="Desktop-Facturas-Copy" transform="translate(-70.000000, -798.000000)">
            <g id="tabla_desktop" transform="translate(77.000000, 805.000000)">
                <g id="Group">
                    <g id="table_bg">
                        <use fill="black" fill-opacity="1" filter="url(#filter-2)" xlink:href="#path-1"></use>
                        <use fill="#DEEDF2" fill-rule="evenodd" xlink:href="#path-1"></use>
                    </g>
                    <g id="at/color/grey_01" transform="translate(0.000000, 39.000000)" fill="#C3DEE7" fill-rule="nonzero">
                        <rect id="at/color/grey" x="0" y="0" width="940" height="1"></rect>
                    </g>
                    <rect id="at/color/grey" fill="#C3DEE7" fill-rule="nonzero" x="0" y="79" width="940" height="1"></rect>
                    <rect id="at/color/grey" fill="#C3DEE7" fill-rule="nonzero" x="0" y="119" width="940" height="1"></rect>
                    <rect id="at/color/grey" fill="#C3DEE7" fill-rule="nonzero" x="0" y="159" width="940" height="1"></rect>
                    <rect id="at/color/grey" fill="#C3DEE7" fill-rule="nonzero" x="0" y="199" width="940" height="1"></rect>
                    <rect id="at/color/grey" fill="#C3DEE7" fill-rule="nonzero" x="0" y="239" width="940" height="1"></rect>
                    <rect id="at/color/grey" fill="#C3DEE7" fill-rule="nonzero" x="0" y="279" width="940" height="1"></rect>
                    <rect id="at/color/grey" fill="#C3DEE7" fill-rule="nonzero" x="0" y="319" width="940" height="1"></rect>
                    <rect id="at/color/grey" fill="#C3DEE7" fill-rule="nonzero" x="0" y="359" width="940" height="1"></rect>
                    <rect id="at/color/grey" fill="#C3DEE7" fill-rule="nonzero" x="0" y="399" width="940" height="1"></rect>
                </g>
                <g id="Group-2" transform="translate(40.000000, 54.000000)" fill="#C3DEE7" fill-rule="nonzero">
                    <rect id="Rectangle-2" x="0" y="0" width="100" height="16" rx="8"></rect>
                    <rect id="Rectangle-3" x="170" y="0" width="200" height="16" rx="8"></rect>
                    <rect id="Rectangle-4" x="390" y="0" width="70" height="16" rx="8"></rect>
                    <rect id="Rectangle-5" x="540" y="0" width="200" height="16" rx="8"></rect>
                    <rect id="Rectangle-6" x="750" y="0" width="70" height="16" rx="8"></rect>
                </g>
                <g id="Group-2-Copy" transform="translate(40.000000, 94.000000)" fill="#C3DEE7" fill-rule="nonzero">
                    <rect id="Rectangle-2" x="0" y="0" width="100" height="16" rx="8"></rect>
                    <rect id="Rectangle-3" x="170" y="0" width="200" height="16" rx="8"></rect>
                    <rect id="Rectangle-4" x="390" y="0" width="70" height="16" rx="8"></rect>
                    <rect id="Rectangle-5" x="540" y="0" width="200" height="16" rx="8"></rect>
                    <rect id="Rectangle-6" x="750" y="0" width="70" height="16" rx="8"></rect>
                </g>
                <g id="Group-2-Copy-2" transform="translate(40.000000, 134.000000)" fill="#C3DEE7" fill-rule="nonzero">
                    <rect id="Rectangle-2" x="0" y="0" width="100" height="16" rx="8"></rect>
                    <rect id="Rectangle-3" x="170" y="0" width="200" height="16" rx="8"></rect>
                    <rect id="Rectangle-4" x="390" y="0" width="70" height="16" rx="8"></rect>
                    <rect id="Rectangle-5" x="540" y="0" width="200" height="16" rx="8"></rect>
                    <rect id="Rectangle-6" x="750" y="0" width="70" height="16" rx="8"></rect>
                </g>
                <g id="Group-2-Copy-3" transform="translate(40.000000, 174.000000)" fill="#C3DEE7" fill-rule="nonzero">
                    <rect id="Rectangle-2" x="0" y="0" width="100" height="16" rx="8"></rect>
                    <rect id="Rectangle-3" x="170" y="0" width="200" height="16" rx="8"></rect>
                    <rect id="Rectangle-4" x="390" y="0" width="70" height="16" rx="8"></rect>
                    <rect id="Rectangle-5" x="540" y="0" width="200" height="16" rx="8"></rect>
                    <rect id="Rectangle-6" x="750" y="0" width="70" height="16" rx="8"></rect>
                </g>
                <g id="Group-2-Copy-4" transform="translate(40.000000, 214.000000)" fill="#C3DEE7" fill-rule="nonzero">
                    <rect id="Rectangle-2" x="0" y="0" width="100" height="16" rx="8"></rect>
                    <rect id="Rectangle-3" x="170" y="0" width="200" height="16" rx="8"></rect>
                    <rect id="Rectangle-4" x="390" y="0" width="70" height="16" rx="8"></rect>
                    <rect id="Rectangle-5" x="540" y="0" width="200" height="16" rx="8"></rect>
                    <rect id="Rectangle-6" x="750" y="0" width="70" height="16" rx="8"></rect>
                </g>
                <g id="Group-2-Copy-5" transform="translate(40.000000, 254.000000)" fill="#C3DEE7" fill-rule="nonzero">
                    <rect id="Rectangle-2" x="0" y="0" width="100" height="16" rx="8"></rect>
                    <rect id="Rectangle-3" x="170" y="0" width="200" height="16" rx="8"></rect>
                    <rect id="Rectangle-4" x="390" y="0" width="70" height="16" rx="8"></rect>
                    <rect id="Rectangle-5" x="540" y="0" width="200" height="16" rx="8"></rect>
                    <rect id="Rectangle-6" x="750" y="0" width="70" height="16" rx="8"></rect>
                </g>
                <g id="Group-2-Copy-6" transform="translate(40.000000, 294.000000)" fill="#C3DEE7" fill-rule="nonzero">
                    <rect id="Rectangle-2" x="0" y="0" width="100" height="16" rx="8"></rect>
                    <rect id="Rectangle-3" x="170" y="0" width="200" height="16" rx="8"></rect>
                    <rect id="Rectangle-4" x="390" y="0" width="70" height="16" rx="8"></rect>
                    <rect id="Rectangle-5" x="540" y="0" width="200" height="16" rx="8"></rect>
                    <rect id="Rectangle-6" x="750" y="0" width="70" height="16" rx="8"></rect>
                </g>
                <g id="Group-2-Copy-7" transform="translate(40.000000, 334.000000)" fill="#C3DEE7" fill-rule="nonzero">
                    <rect id="Rectangle-2" x="0" y="0" width="100" height="16" rx="8"></rect>
                    <rect id="Rectangle-3" x="170" y="0" width="200" height="16" rx="8"></rect>
                    <rect id="Rectangle-4" x="390" y="0" width="70" height="16" rx="8"></rect>
                    <rect id="Rectangle-5" x="540" y="0" width="200" height="16" rx="8"></rect>
                    <rect id="Rectangle-6" x="750" y="0" width="70" height="16" rx="8"></rect>
                </g>
                <g id="Group-2-Copy-8" transform="translate(40.000000, 374.000000)" fill="#C3DEE7" fill-rule="nonzero">
                    <rect id="Rectangle-2" x="0" y="0" width="100" height="16" rx="8"></rect>
                    <rect id="Rectangle-3" x="170" y="0" width="200" height="16" rx="8"></rect>
                    <rect id="Rectangle-4" x="390" y="0" width="70" height="16" rx="8"></rect>
                    <rect id="Rectangle-5" x="540" y="0" width="200" height="16" rx="8"></rect>
                    <rect id="Rectangle-6" x="750" y="0" width="70" height="16" rx="8"></rect>
                </g>
                <g id="Group-2-Copy-9" transform="translate(40.000000, 414.000000)" fill="#C3DEE7" fill-rule="nonzero">
                    <rect id="Rectangle-2" x="0" y="0" width="120" height="10" rx="8"></rect>
                    <rect id="Rectangle-3" x="650" y="0" width="80" height="10" rx="8"></rect>
                    <rect id="Rectangle-4" x="750" y="0" width="30" height="10" rx="8"></rect>
                    <rect id="Rectangle-5" x="790" y="0" width="30" height="10" rx="8"></rect>
                    <rect id="Rectangle-6" x="830" y="0" width="30" height="10" rx="8"></rect>
                </g>
                <rect id="Rectangle-Copy-38" fill="#C3DEE7" fill-rule="nonzero" x="40" y="13" width="100" height="16" rx="8"></rect>
                <rect id="Rectangle-Copy-39" fill="#C3DEE7" fill-rule="nonzero" x="210" y="13" width="200" height="16" rx="8"></rect>
                <rect id="Rectangle-Copy-40" fill="#C3DEE7" fill-rule="nonzero" x="430" y="13" width="70" height="16" rx="8"></rect>
                <rect id="Rectangle-Copy-41" fill="#C3DEE7" fill-rule="nonzero" x="580" y="13" width="200" height="16" rx="8"></rect>
                <rect id="Rectangle-Copy-42" fill="#C3DEE7" fill-rule="nonzero" x="790" y="13" width="70" height="16" rx="8"></rect>
            </g>
        </g>
    </g>
</svg>