<svg width="32" height="32" viewBox="0 0 32 32" fill="none" xmlns="http://www.w3.org/2000/svg">
<path fill-rule="evenodd" clip-rule="evenodd" d="M3.33317 2.66663C2.96498 2.66663 2.6665 2.96511 2.6665 3.3333V28.6666C2.6665 29.0348 2.96498 29.3333 3.33317 29.3333H17.0111C17.662 29.3333 17.9952 28.4033 17.5901 27.8939C16.5946 26.6419 15.9998 25.0571 15.9998 23.3333C15.9998 20.1537 18.0234 17.4467 20.8529 16.43C21.1337 16.3291 21.3332 16.0701 21.3332 15.7717V9.54805C21.3332 9.37124 21.2629 9.20167 21.1379 9.07665L14.9139 2.86189C14.7889 2.73687 14.6194 2.66663 14.4425 2.66663H3.33317Z" fill="#CEDEE7"/>
<path fill-rule="evenodd" clip-rule="evenodd" d="M4.30176 29.3334H17.0111C17.6619 29.3334 17.9951 28.4034 17.59 27.8939C16.5945 26.642 15.9998 25.0571 15.9998 23.3334C15.9998 20.1538 18.0233 17.4468 20.8529 16.4301C21.1336 16.3292 21.3331 16.0701 21.3331 15.7718V9.54812C21.3331 9.3713 21.2629 9.20174 21.1379 9.07671L17.8769 5.82056L4.30176 29.3334Z" fill="#9BC3D3"/>
<path fill-rule="evenodd" clip-rule="evenodd" d="M16.2759 21.3334H7.33317C6.96498 21.3334 6.6665 21.6319 6.6665 22C6.6665 22.3682 6.96498 22.6667 7.33317 22.6667H16.0297C16.071 22.2088 16.1543 21.7631 16.2759 21.3334ZM7.33317 13.3334C6.96498 13.3334 6.6665 13.6319 6.6665 14C6.6665 14.3682 6.96498 14.6667 7.33317 14.6667H16.6665C17.0347 14.6667 17.3332 14.3682 17.3332 14C17.3332 13.6319 17.0347 13.3334 16.6665 13.3334H7.33317ZM7.33317 17.3334C6.96498 17.3334 6.6665 17.6319 6.6665 18C6.6665 18.3682 6.96498 18.6667 7.33317 18.6667H16.6665C17.0347 18.6667 17.3332 18.3682 17.3332 18C17.3332 17.6319 17.0347 17.3334 16.6665 17.3334H7.33317Z" fill="#34466B"/>
<path fill-rule="evenodd" clip-rule="evenodd" d="M29.3335 23.3334C29.3335 20.0248 26.6421 17.3334 23.3335 17.3334C20.0249 17.3334 17.3335 20.0248 17.3335 23.3334C17.3335 26.642 20.0249 29.3334 23.3335 29.3334C26.6421 29.3334 29.3335 26.642 29.3335 23.3334ZM23.9894 20.5468C23.933 20.2356 23.661 20 23.3335 20C22.965 20 22.6668 20.2982 22.6668 20.6667V22.6667H20.6668L20.5469 22.6774C20.2358 22.7338 20.0002 23.0058 20.0002 23.3334C20.0002 23.7019 20.2983 24 20.6668 24H22.6668V26L22.6776 26.12C22.734 26.4311 23.0059 26.6667 23.3335 26.6667C23.702 26.6667 24.0002 26.3685 24.0002 26V24H26.0002L26.1201 23.9893C26.4312 23.9329 26.6668 23.6609 26.6668 23.3334C26.6668 22.9649 26.3687 22.6667 26.0002 22.6667H24.0002V20.6667L23.9894 20.5468Z" fill="#008035"/>
<path fill-rule="evenodd" clip-rule="evenodd" d="M14.6719 2.70728V8.7688C14.6719 9.0777 14.9223 9.32811 15.2312 9.32811H21.296C21.2714 9.25761 21.2349 9.19141 21.1879 9.13248L14.9141 2.86191C14.8449 2.79271 14.7621 2.74029 14.6719 2.70728Z" fill="#23779A"/>
</svg>
