<svg width="24" height="24" viewBox="0 0 24 24" fill="none" xmlns="http://www.w3.org/2000/svg">
<path d="M12 2C17.5142 2 22 6.48584 22 12C22 17.5142 17.5142 22 12 22C6.48584 22 2 17.5142 2 12C2 6.48584 6.48584 2 12 2Z" fill="#F0F8F0"/>
<path fill-rule="evenodd" clip-rule="evenodd" d="M12 2C17.514 2 22 6.486 22 12C22 17.514 17.514 22 12 22C6.486 22 2 17.514 2 12C2 6.486 6.486 2 12 2ZM12 3C7.037 3 3 7.037 3 12C3 16.963 7.037 21 12 21C16.963 21 21 16.963 21 12C21 7.037 16.963 3 12 3ZM16.6923 7.0779C16.4593 6.9319 16.1503 6.9959 16.0013 7.2299L11.1893 14.7659L7.86035 11.3069L7.79205 11.248C7.59937 11.1102 7.32935 11.125 7.15335 11.2939C6.95435 11.4849 6.94835 11.8019 7.13935 12.0009L10.9093 15.9169L10.9703 15.9708C11.0565 16.0353 11.1613 16.0699 11.2693 16.0699L11.3193 16.0669C11.4713 16.0529 11.6083 15.9689 11.6913 15.8399L16.8443 7.7689L16.886 7.68874C16.976 7.46921 16.8986 7.21034 16.6923 7.0779Z" fill="#008035"/>
</svg>
