<svg width="24" height="24" viewBox="0 0 24 24" fill="none" xmlns="http://www.w3.org/2000/svg">
<path d="M12 2C17.5142 2 22 6.48584 22 12C22 17.5142 17.5142 22 12 22C6.48584 22 2 17.5142 2 12C2 6.48584 6.48584 2 12 2Z" fill="#FFFAEB"/>
<path fill-rule="evenodd" clip-rule="evenodd" d="M22 12C22 6.48584 17.5142 2 12 2C6.48584 2 2 6.48584 2 12C2 17.5142 6.48584 22 12 22C17.5142 22 22 17.5142 22 12ZM3 12C3 7.0376 7.0376 3 12 3C16.9624 3 21 7.0376 21 12C21 16.9624 16.9624 21 12 21C7.0376 21 3 16.9624 3 12ZM12 16C12.2457 16 12.4497 16.1767 12.492 16.4101L12.5 16.5V17.5C12.5 17.7764 12.2764 18 12 18C11.7543 18 11.5503 17.8233 11.508 17.5899L11.5 17.5V16.5C11.5 16.2236 11.7236 16 12 16ZM12.492 6.41007C12.4497 6.1767 12.2457 6 12 6C11.7236 6 11.5 6.22363 11.5 6.5V14.5L11.508 14.5899C11.5503 14.8233 11.7543 15 12 15C12.2764 15 12.5 14.7764 12.5 14.5V6.5L12.492 6.41007Z" fill="#856300"/>
</svg>
